<?xml version="1.0" encoding="UTF-8" standalone="no"?>
<!-- Generator: Adobe Illustrator 25.4.1, SVG Export Plug-In . SVG Version: 6.00 Build 0)  -->

<svg
   version="1.1"
   x="0px"
   y="0px"
   viewBox="0 0 929.64622 283.46"
   xml:space="preserve"
   id="svg2470"
   sodipodi:docname="TU_logo.svg"
   inkscape:version="1.2.2 (b0a8486, 2022-12-01)"
   width="929.64624"
   height="283.45999"
   xmlns:inkscape="http://www.inkscape.org/namespaces/inkscape"
   xmlns:sodipodi="http://sodipodi.sourceforge.net/DTD/sodipodi-0.dtd"
   xmlns="http://www.w3.org/2000/svg"
   xmlns:svg="http://www.w3.org/2000/svg"><defs
   id="defs2474"><style
     id="style73">.cls-1{fill:#5dbcaf;}.cls-2{fill:#f8e14b;}</style></defs><sodipodi:namedview
   id="namedview2472"
   pagecolor="#ffffff"
   bordercolor="#000000"
   borderopacity="0.25"
   inkscape:showpageshadow="2"
   inkscape:pageopacity="0.0"
   inkscape:pagecheckerboard="true"
   inkscape:deskcolor="#d1d1d1"
   showgrid="false"
   inkscape:zoom="0.73690416"
   inkscape:cx="-156.05829"
   inkscape:cy="117.38297"
   inkscape:window-width="2560"
   inkscape:window-height="1403"
   inkscape:window-x="0"
   inkscape:window-y="0"
   inkscape:window-maximized="1"
   inkscape:current-layer="svg2470" />
<style
   type="text/css"
   id="style2395">
	.st0{display:none;}
	.st1{fill:#FFFFFF;stroke:#1D1D1B;}
	.st2{fill-rule:evenodd;clip-rule:evenodd;fill:#646363;}
	.st3{fill-rule:evenodd;clip-rule:evenodd;fill:#006699;}
</style>
<g
   id="Hintergrund"
   class="st0"
   transform="translate(0.96706071,-0.9745573)">
</g>
<g
   id="Hilfslinien_anzeigen"
   class="st0"
   inkscape:label="Hilfslinien_anzeigen"
   transform="translate(0.96706071,-0.9745573)">
</g>
<g
   id="Vordergrund">
	<rect
   x="13.79"
   y="19.469999"
   class="st1"
   width="251.35001"
   height="242.62"
   id="rect2399" />
	<g
   id="g2467">
		
		
		
		<path
   class="st3"
   d="m 202.75,138.27 c 0.46,-0.08 0.8,-0.14 1.25,-0.25 11.39,-2.89 19.88,-13.87 19.88,-26.08 l -0.26,-83.47 h 30.87 v 83.91 c 0.03,29.16 -22.11,53.41 -50.49,56.41 l -1.25,0.13 z m -9.18,30.65 -1.6,-0.13 c -28.37,-2.96 -50.31,-26.94 -50.31,-56.1 V 28.48 h 30.67 l -0.05,83.47 c 0,12.21 8.49,23.19 19.88,26.08 0.5,0.12 0.89,0.2 1.4,0.29 z m -74.93,85.53 v -49.89 h -9.74 v 49.89 z m 66.22,0 v -8.69 h -23.12 v -12.12 h 19.69 v -8.69 h -19.69 v -11.7 h 23.12 v -8.69 H 152 v 49.89 z m 69.77,0 v -49.89 h -9.74 v 30.55 l -19.76,-30.55 h -8.69 v 49.89 h 9.74 v -30.62 l 19.76,30.62 z M 85.72,204.56 H 75.56 l -7.78,31.46 -9.11,-31.46 h -7.29 l -9.11,31.46 -7.71,-31.46 H 24.42 l 13.31,49.89 h 8.13 l 9.18,-30.27 9.18,30.27 h 8.13 z M 21.79,28.48 H 127.65 V 58.75 H 21.79 Z M 60.1,168.12 V 67.55 H 90.37 V 168.13 H 60.1 Z M 255.11,0 c 15.65,0 28.29,12.7 28.29,28.36 l 0.06,226.74 c 0,15.66 -12.74,28.36 -28.39,28.36 H 28.34 C 12.7,283.46 0,270.77 0,255.11 L 0.02,28.36 C 0.02,12.7 12.68,0 28.32,0 Z"
   id="path2465" />
	</g>
</g>
<g
   id="g2593"
   transform="matrix(1.3914504,0,0,1.3914504,368.35841,14.556414)"><g
     id="Calque_2"
     data-name="Calque 2"><g
       id="Calque_1-2"
       data-name="Calque 1"><path
         class="cls-1"
         d="m 77.39,94.6 a 20.39,20.39 0 0 1 -2.08,0.11 19.6,19.6 0 0 1 -2.06,-0.12 h -0.39 v 0.39 a 54.76,54.76 0 0 1 -2.1,19.46 90.47,90.47 0 0 1 -14.66,28.5 94.15,94.15 0 0 1 -17,17.44 c -6.63,5 -12.85,7.48 -18.46,7.48 -4.27,0 -7.7,-0.76 -10.19,-2.26 a 19,19 0 0 1 -5.61,-4.72 c -5,-6.37 -6.21,-17.1 -3.47,-31.88 1.87,-11.53 6.31,-26.43 13.19,-44.31 a 4.92,4.92 0 0 1 2.71,-2.88 5.92,5.92 0 0 1 2.44,-0.54 6.37,6.37 0 0 1 1.77,0.26 6.6,6.6 0 0 1 3.23,2.79 3.43,3.43 0 0 1 0.15,3.5 v 0.1 a 294.43,294.43 0 0 0 -10,30.48 126.23,126.23 0 0 0 -3.72,19.75 c -0.41,5.14 -0.28,8.92 0.4,11.56 a 17.06,17.06 0 0 0 2.21,5.61 7.9,7.9 0 0 0 2.36,1.89 9.62,9.62 0 0 0 4.56,0.85 c 2.89,0 6.72,-1.73 11.7,-5.28 4.77,-3.4 9.63,-8.46 14.43,-15.05 a 90.13,90.13 0 0 0 7.23,-11.24 76.07,76.07 0 0 0 5.56,-12.83 52,52 0 0 0 2.57,-13.18 A 27,27 0 0 0 60,88 a 3.69,3.69 0 0 1 0.07,-3.55 6.14,6.14 0 0 1 1,-1.29 l 0.05,-0.07 a 5.39,5.39 0 0 1 0.4,-0.54 4.81,4.81 0 0 1 3.57,-1.55 5.1,5.1 0 0 1 3.07,1.08 5.56,5.56 0 0 1 1.24,1 10.44,10.44 0 0 0 5.93,1.92 8.47,8.47 0 0 0 1,-0.06 10.46,10.46 0 0 0 6.67,-3.56 4.87,4.87 0 0 1 3.71,-1.72 4.88,4.88 0 0 1 3.71,8 20.21,20.21 0 0 1 -13.03,6.94 z M 201.56,66.76 A 5.26,5.26 0 0 0 208,63 a 30.2,30.2 0 0 1 2,-5.26 31.09,31.09 0 0 1 2.23,-3.89 5.27,5.27 0 1 0 -8.73,-5.9 41,41 0 0 0 -5.62,12.37 5.25,5.25 0 0 0 3.73,6.44 z m -34.14,41.61 c 1.69,21.74 -13.42,50.21 -38.62,57.94 A 44,44 0 0 1 115.68,168.58 26.29,26.29 0 0 1 102,165 c -9.81,-5.91 -12.34,-16.63 -13.29,-20.66 -4.77,-20.24 7.94,-38.52 13.63,-45.44 4.11,-5 19,-21.13 38.71,-18.9 3.47,0.4 12.7,1.45 19.51,9.76 5.35,6.55 6.44,13.76 6.86,18.61 z m -10.67,0.83 c -0.29,-3.7 -1.06,-8.49 -4.51,-12.7 -4.06,-5 -9.73,-5.6 -12.45,-5.91 a 23.5,23.5 0 0 0 -2.52,-0.14 c -13.18,0 -23.78,11.64 -26.71,15.2 -4.68,5.69 -15.16,20.61 -11.49,36.2 0.73,3.1 2.45,10.36 8.4,14 6.44,3.88 14.38,1.45 18.19,0.29 v 0.15 -0.16 c 20,-6.13 32.44,-29.68 31.09,-46.93 z m 246.47,26.87 c -0.8,2.87 -8.35,28.11 -28.46,32.05 a 30,30 0 0 1 -5.83,0.6 20.65,20.65 0 0 1 -11.73,-3.4 c -6.52,-4.39 -10.11,-12.51 -9.66,-21.81 l -2,2.42 a 80.29,80.29 0 0 1 -6.27,6.69 c -2.16,2 -4.35,3.94 -6.51,5.63 a 46.86,46.86 0 0 1 -15.87,8.21 24.58,24.58 0 0 1 -14.92,0.23 19,19 0 0 1 -7.8,-5 21.82,21.82 0 0 1 -4.75,-8.28 26.43,26.43 0 0 1 -1.22,-6.81 83.12,83.12 0 0 1 -12.87,11.51 c -6.31,4.53 -12.43,6.83 -18.19,6.83 -4.54,0 -8.09,-0.82 -10.56,-2.43 a 19.48,19.48 0 0 1 -5.63,-5.14 c -2.55,-3.59 -4,-8.48 -4.42,-14.52 -1.61,1.85 -3.14,3.53 -4.66,5.11 a 102.19,102.19 0 0 1 -15.61,13.39 c -7,4.41 -13.66,6.64 -19.75,6.64 -4.6,0 -8.29,-0.76 -11,-2.25 a 20.22,20.22 0 0 1 -6.1,-4.73 c -5.51,-6.42 -6.79,-17.22 -3.8,-32.09 2,-11.55 6.85,-26.47 14.31,-44.36 a 5.2,5.2 0 0 1 3,-3 6.66,6.66 0 0 1 4.5,-0.26 6.37,6.37 0 0 1 3.58,2.79 3.69,3.69 0 0 1 0,3.81 v 0.08 a 278.26,278.26 0 0 0 -10.83,30.45 116.68,116.68 0 0 0 -4,19.82 c -0.45,5.17 -0.31,8.92 0.43,11.47 a 16,16 0 0 0 2.29,5.33 l 0.05,0.06 a 8.31,8.31 0 0 0 2.55,1.89 11.3,11.3 0 0 0 5,0.86 c 3.5,0 7.45,-1.4 12.08,-4.29 a 73.36,73.36 0 0 0 13.92,-11.85 c 2.07,-2.17 4,-4.36 5.62,-6.49 1.39,-1.8 2.35,-2.92 3,-3.74 0.65,-0.82 1,-1.18 1.42,-1.75 a 61.19,61.19 0 0 0 3.84,-5.85 50.71,50.71 0 0 0 3.11,-6.58 c 1.5,-6.35 3.55,-13.46 6.09,-21.09 2.34,-6.72 4.93,-13.66 7.67,-20.63 2.74,-6.97 5.54,-13.76 8.39,-20.42 2.85,-6.66 13.24,-29.51 16,-35.37 l 7.8,-16.64 a 5.51,5.51 0 0 1 3.1,-2.74 5.67,5.67 0 0 1 2.14,-0.42 6,6 0 0 1 2.14,0.41 5,5 0 0 1 2.86,2.87 4.55,4.55 0 0 1 -0.09,3.92 C 281.4,37 262.84,79.54 256.31,99 c -4.59,13.45 -7.39,24.68 -8.34,33.38 -0.82,6.13 -0.89,10.5 -0.22,13.35 a 16.6,16.6 0 0 0 2.32,6 6.09,6.09 0 0 0 2.28,2.1 9.5,9.5 0 0 0 4.77,1 c 3.23,0 6.87,-1.45 11.15,-4.42 a 73.22,73.22 0 0 0 12.82,-11.93 l 0.63,-0.71 c 1.26,-1.44 2.83,-3.22 4.63,-5.63 a 82.8,82.8 0 0 0 5.07,-7.78 l 1.15,-1.93 c 6.3,-10.45 8.5,-13.15 9.61,-14.28 a 91.3,91.3 0 0 1 9.13,-10 c 4.62,-4.38 11,-10.38 20.76,-13.87 a 45.63,45.63 0 0 1 5,-1.45 l 0.88,-0.22 c 7.2,-2.08 13.31,-1.84 18.68,0.72 a 19.88,19.88 0 0 1 9.56,8.66 c 3.24,6.23 2.57,13.48 -2.32,25 a 75.27,75.27 0 0 0 -4.64,25.65 34.57,34.57 0 0 0 0.9,8.81 v 0.11 l -0.1,0.07 -0.14,0.08 v 0 a 10,10 0 0 0 3.48,4.41 c 3.36,2.26 7.6,1.43 9.2,1.12 13.84,-2.71 19.83,-23.9 19.89,-24.11 a 5.56,5.56 0 0 1 6.84,-3.88 5.56,5.56 0 0 1 3.88,6.85 z m -46.87,-39 a 9.29,9.29 0 0 0 -4.48,-3.74 c -4.39,-2.1 -9.23,-0.7 -14.22,1 -13.19,4.62 -23,15.31 -28.83,23.47 l -0.09,0.13 v 0 a 60.62,60.62 0 0 0 -7.28,15.74 c -1.8,5.82 -2.37,10.89 -1.71,15.08 0.73,4.56 2.74,7.4 6,8.45 2,0.67 4.73,0.57 8.19,-0.29 3.46,-0.86 7.27,-2.94 11.7,-6.24 A 102.09,102.09 0 0 0 338.38,137.92 103.2,103.2 0 0 0 351,118.44 c 4.74,-9.91 7.45,-17.34 5.35,-21.39 z"
         id="path79" /><path
         class="cls-2"
         d="m 381.52,72.31 a 43.42,43.42 0 0 1 -43.38,-43.37 5.59,5.59 0 1 1 11.18,0 32.24,32.24 0 0 0 32.2,32.2 5.59,5.59 0 0 1 0,11.17 z"
         id="path81" /></g></g><path
     style="fill:#006699;stroke-width:0.254342"
     d="m 15.988454,167.34158 c -2.64425,-0.47859 -4.432867,-1.18706 -6.6304993,-2.62635 C 0.9130113,159.1844 -1.6647052,148.21616 1.279868,130.34281 3.3670306,117.67388 7.3843793,103.96306 14.486352,85.270362 c 0.976464,-2.570093 2.647959,-3.756919 5.280603,-3.749429 1.812171,0.0052 3.135768,0.689697 4.309796,2.228952 1.408709,1.84694 1.381182,2.103008 -0.882265,8.207514 -8.017952,21.624381 -12.30617,39.413591 -12.320489,51.110221 -0.0097,7.91536 1.767878,12.63277 5.403919,14.34124 0.958991,0.45061 1.618724,0.53738 4.069479,0.53524 2.621939,-0.002 3.096197,-0.0753 4.578163,-0.70494 7.890845,-3.35256 15.997254,-10.8284 23.778645,-21.92899 8.571591,-12.22785 13.597164,-25.81248 13.607607,-36.782747 0.0028,-2.908886 -0.561679,-6.004426 -1.650074,-9.049327 -1.18574,-3.317234 -1.164563,-3.967699 0.188628,-5.79418 1.294419,-1.747154 2.568634,-2.473599 4.315067,-2.460071 1.282646,0.0099 2.126002,0.408964 4.397224,2.08052 2.300001,1.692737 5.97006,2.209346 8.836202,1.243813 1.837047,-0.618856 2.606756,-1.115327 4.539733,-2.928176 1.521046,-1.426519 3.041454,-2.046512 4.368028,-1.781197 2.373786,0.474757 4.002315,2.319495 4.002315,4.533676 0,1.737745 -0.534089,2.814692 -2.204823,4.445851 -3.734241,3.645786 -7.766804,5.366289 -13.119309,5.597386 l -3.242866,0.140012 v 4.360321 c 0,6.370709 -0.662254,10.811309 -2.462281,16.510309 -4.305776,13.63236 -12.25653,26.58137 -22.839007,37.19677 -7.169623,7.19194 -12.447839,11.03129 -18.307715,13.31695 -4.453579,1.73714 -8.755652,2.19584 -13.144478,1.4015 z"
     id="path262" /><path
     style="fill:#006699;stroke-width:0.254342"
     d="m 111.97908,168.23121 c -3.28158,-0.42686 -7.02827,-1.69249 -9.73342,-3.28793 -6.98825,-4.12154 -11.433225,-11.23669 -13.656712,-21.86054 -0.576101,-2.75261 -0.669578,-3.82757 -0.675893,-7.77257 -0.0078,-4.85853 0.293678,-7.24291 1.485041,-11.74605 2.542566,-9.61043 8.612111,-20.09541 16.154014,-27.905644 7.5489,-7.817474 14.94561,-12.423279 23.65385,-14.72883 2.78462,-0.737245 3.16896,-0.774851 8.01178,-0.783925 5.76269,-0.0108 8.05202,0.351083 12.26997,1.939552 9.05082,3.408507 15.30688,11.365995 17.24953,21.940777 0.63807,3.47335 0.759,10.01937 0.25608,13.86167 -2.28151,17.43045 -12.8936,34.32084 -27.12034,43.16523 -8.5232,5.29864 -19.87863,8.22086 -27.8939,7.17826 z m 10.23246,-11.02099 c 9.45325,-2.33307 16.27368,-6.61799 22.71361,-14.26977 9.68817,-11.51127 14.20779,-27.86507 10.94997,-39.62132 -1.26495,-4.564716 -4.74603,-9.049365 -8.39671,-10.8174 -3.18341,-1.541737 -5.14633,-1.914471 -10.1335,-1.924223 -4.15449,-0.0081 -4.60348,0.03818 -6.74007,0.695019 -10.96468,3.370818 -21.58984,13.378574 -27.85209,26.233674 -4.53847,9.31655 -5.627323,17.56247 -3.412107,25.84001 1.301677,4.86393 2.862037,7.85163 5.466767,10.46745 1.91743,1.9256 4.34824,3.25109 7.12158,3.88331 2.36288,0.53865 7.02128,0.31813 10.28255,-0.48675 z"
     id="path264" /><path
     style="fill:#006699;stroke-width:0.254342"
     d="m 363.70968,167.99335 c -5.83706,-1.56897 -10.40775,-5.21481 -13.07356,-10.42821 -1.94651,-3.80669 -2.67364,-6.59207 -2.91257,-11.15707 l -0.16462,-3.14529 -2.28259,2.72746 c -4.47132,5.34276 -11.9629,12.0666 -16.79309,15.07215 -4.44061,2.76314 -10.45087,5.22195 -14.82771,6.06607 -4.0439,0.7799 -9.43096,0.33316 -12.87941,-1.06807 -3.15691,-1.28277 -6.4221,-3.98754 -8.51308,-7.05195 -1.89644,-2.77931 -3.42252,-7.11618 -3.75221,-10.66322 -0.0878,-0.94424 -0.23136,-1.71681 -0.31911,-1.71681 -0.0877,0 -1.18723,1.03812 -2.44331,2.30693 -9.52256,9.61907 -18.60647,15.02251 -26.4043,15.7062 -5.15715,0.45217 -9.97916,-0.4836 -13.14065,-2.55011 -5.24987,-3.43158 -8.27513,-8.84849 -9.20404,-16.48039 -0.16175,-1.32894 -0.36629,-2.5024 -0.45452,-2.6077 -0.0882,-0.10529 -1.52785,1.31134 -3.19914,3.14809 -4.83336,5.31185 -11.59147,11.25336 -16.87582,14.83666 -4.19474,2.84444 -10.11204,5.37144 -14.88794,6.35792 -2.84,0.58662 -8.21257,0.53844 -11.29419,-0.10128 -8.46507,-1.75729 -14.22622,-8.43697 -15.67144,-18.17002 -1.65082,-11.1177 1.84228,-28.81732 10.00998,-50.720911 1.87815,-5.036695 4.9843,-12.789716 5.63516,-14.065516 1.03753,-2.033727 2.76625,-3.012948 5.32781,-3.017902 1.37643,-0.0027 1.87674,0.124983 2.9882,0.762399 0.73814,0.423322 1.62394,1.202274 1.98135,1.742357 1.14377,1.728346 1.0875,2.285509 -0.6581,6.516426 -4.40346,10.672897 -9.59361,26.124917 -11.40499,33.954717 -1.72051,7.43703 -2.5863,13.64753 -2.6061,18.69417 -0.0157,4.00534 0.2372,6.02503 1.05043,8.38875 1.67673,4.8735 4.19901,6.63579 9.41224,6.57624 3.15346,-0.036 5.05839,-0.54862 8.77481,-2.36123 7.58383,-3.69885 15.47442,-10.73484 24.11783,-21.50575 7.01231,-8.73831 9.29747,-12.83421 11.2134,-20.09881 4.98498,-18.9015 13.57502,-41.661493 26.94159,-71.383898 9.07647,-20.182787 18.24434,-39.7226497 19.04666,-40.5949291 0.78465,-0.8530844 2.9235,-1.82844438 4.01241,-1.82974857 2.19511,-0.002629 3.92253,1.01874387 4.88684,2.88944327 0.97483,1.8911 0.77631,2.7550502 -1.96506,8.5520634 -8.63952,18.269467 -20.45352,44.983592 -27.67005,62.568238 -11.335,27.620181 -16.23854,43.952251 -18.09823,60.279161 -1.25237,10.99506 0.84046,18.29131 5.73546,19.99553 2.17317,0.7566 5.63717,0.61742 8.27117,-0.33231 5.69478,-2.05337 12.45315,-7.40894 19.5325,-15.47824 4.80275,-5.47435 6.63981,-8.02472 11.33642,-15.73815 3.85602,-6.33289 6.7563,-10.81736 8.23721,-12.73654 3.92711,-5.08933 12.21283,-13.651774 16.69403,-17.251571 4.64918,-3.734734 10.82952,-7.226965 15.38772,-8.694902 3.57298,-1.150653 8.88845,-2.394693 11.47781,-2.686284 9.26436,-1.043271 18.41805,3.637087 22.07319,11.286207 2.57746,5.393855 2.16064,11.73742 -1.37375,20.90735 -4.07729,10.57844 -5.63846,18.24956 -5.6938,27.97766 -0.0333,5.85143 0.29918,9.33471 1.06613,11.16976 0.55959,1.33889 2.43944,3.21784 3.94733,3.94543 4.35857,2.10311 11.36521,0.64443 16.22333,-3.37745 4.35031,-3.6015 8.83122,-10.79888 11.39788,-18.30767 1.19591,-3.49865 1.66464,-4.24595 3.24349,-5.17123 2.0601,-1.2073 5.01496,-0.77276 6.59903,0.97044 2.17433,2.39278 1.75524,5.54164 -1.77906,13.36712 -5.03779,11.15445 -12.16331,18.92703 -20.36041,22.20931 -3.5592,1.42517 -5.51972,1.80434 -9.94152,1.92272 -3.50698,0.0939 -4.33314,0.0381 -5.97704,-0.40381 z m -52.50913,-10.44606 c 7.38026,-1.0265 15.45993,-6.38267 24.20935,-16.04885 6.69168,-7.39284 11.7787,-14.97857 16.1953,-24.15035 5.85383,-12.15641 6.93113,-18.393509 3.76031,-21.770625 -2.70893,-2.885176 -7.29483,-4.016641 -12.12928,-2.992618 -11.12003,2.355422 -22.47656,9.948533 -31.29966,20.927323 -5.31209,6.60995 -8.70079,13.2302 -10.93579,21.36441 -2.07962,7.56867 -2.13771,13.76674 -0.16806,17.92906 1.20741,2.55154 2.9496,4.02041 5.52274,4.6563 1.63515,0.40409 2.45019,0.41845 4.84509,0.0854 z"
     id="path266" /><path
     style="fill:#006699;stroke-width:0.254342"
     d="m 200.6526,66.173091 c -1.5561,-0.821525 -2.57419,-2.341139 -2.71626,-4.054335 -0.0897,-1.081775 0.0719,-1.908805 0.79563,-4.07164 1.38914,-4.151392 4.25773,-9.615625 5.79846,-11.045213 2.07918,-1.929182 5.31947,-1.698644 7.26471,0.516866 1.62124,1.846491 1.67166,3.94453 0.15499,6.449432 -1.46717,2.423144 -2.7716,5.150603 -3.6265,7.582667 -0.44255,1.258996 -1.07772,2.704419 -1.41149,3.212053 -1.24719,1.896843 -4.11426,2.542746 -6.25954,1.41017 z"
     id="path268" /></g></svg>
