<svg xmlns="http://www.w3.org/2000/svg" viewBox="0 0 24 24"><defs><style>.cls-1{opacity:0.3;}</style></defs><g id="grid"><g id="element-2"><rect x="2.5" y="2.5" width="5" height="5" rx="1"/><g class="cls-1"><path d="M13.5,7.5h-3a1,1,0,0,1-1-1v-3a1,1,0,0,1,1-1h3a1,1,0,0,1,1,1v3A1,1,0,0,1,13.5,7.5Zm8-1v-3a1,1,0,0,0-1-1h-3a1,1,0,0,0-1,1v3a1,1,0,0,0,1,1h3A1,1,0,0,0,21.5,6.5Zm-14,7v-3a1,1,0,0,0-1-1h-3a1,1,0,0,0-1,1v3a1,1,0,0,0,1,1h3A1,1,0,0,0,7.5,13.5Zm7,0v-3a1,1,0,0,0-1-1h-3a1,1,0,0,0-1,1v3a1,1,0,0,0,1,1h3A1,1,0,0,0,14.5,13.5Zm7,0v-3a1,1,0,0,0-1-1h-3a1,1,0,0,0-1,1v3a1,1,0,0,0,1,1h3A1,1,0,0,0,21.5,13.5Zm-14,7v-3a1,1,0,0,0-1-1h-3a1,1,0,0,0-1,1v3a1,1,0,0,0,1,1h3A1,1,0,0,0,7.5,20.5Zm7,0v-3a1,1,0,0,0-1-1h-3a1,1,0,0,0-1,1v3a1,1,0,0,0,1,1h3A1,1,0,0,0,14.5,20.5Zm7,0v-3a1,1,0,0,0-1-1h-3a1,1,0,0,0-1,1v3a1,1,0,0,0,1,1h3A1,1,0,0,0,21.5,20.5Z"/></g></g></g></svg>