<svg xmlns="http://www.w3.org/2000/svg" viewBox="0 0 24 24"><defs><style>.cls-1{opacity:0.3;}</style></defs><g id="grid"><g id="maximize"><g class="cls-1"><rect x="2" y="2" width="20" height="20" rx="5.19"/></g><path d="M2.67,10.24a.74.74,0,0,1-.75-.75v-2A5.6,5.6,0,0,1,7.51,1.92H9.43a.75.75,0,0,1,0,1.5H7.51A4.09,4.09,0,0,0,3.42,7.51v2A.75.75,0,0,1,2.67,10.24Z"/><path d="M9.57,22.08H7.51a5.6,5.6,0,0,1-5.59-5.59v-2a.75.75,0,0,1,1.5,0v2a4.09,4.09,0,0,0,4.09,4.09H9.57a.75.75,0,0,1,0,1.5Z"/><path d="M16.49,22.08H14.57a.75.75,0,0,1,0-1.5h1.92a4.09,4.09,0,0,0,4.09-4.09V14.35a.75.75,0,0,1,1.5,0v2.14A5.6,5.6,0,0,1,16.49,22.08Z"/><path d="M21.33,10.09a.75.75,0,0,1-.75-.75V7.51a4.09,4.09,0,0,0-4.09-4.09H14.43a.75.75,0,0,1,0-1.5h2.06a5.6,5.6,0,0,1,5.59,5.59V9.34A.74.74,0,0,1,21.33,10.09Z"/></g></g></svg>