<svg xmlns="http://www.w3.org/2000/svg" viewBox="0 0 24 24"><defs><style>.cls-1{opacity:0.3;}</style></defs><g id="eCommerce"><g id="barcode"><path d="M6.32,16.69a.75.75,0,0,1-.75-.75V8.24a.75.75,0,0,1,1.5,0v7.7A.74.74,0,0,1,6.32,16.69Z"/><path d="M9.33,10.32a.75.75,0,0,1-.75-.75V8.24a.75.75,0,0,1,1.5,0V9.57A.76.76,0,0,1,9.33,10.32Z"/><path d="M9.33,16.69a.74.74,0,0,1-.75-.75V12.09a.75.75,0,0,1,1.5,0v3.85A.75.75,0,0,1,9.33,16.69Z"/><path d="M15.34,16.47a.75.75,0,0,1-.75-.75V14.4a.75.75,0,0,1,1.5,0v1.32A.75.75,0,0,1,15.34,16.47Z"/><path d="M15.34,12.62a.75.75,0,0,1-.75-.75V8a.75.75,0,0,1,1.5,0v3.85A.75.75,0,0,1,15.34,12.62Z"/><path d="M12.33,16.69a.75.75,0,0,1-.75-.75V8.24a.75.75,0,0,1,1.5,0v7.7A.74.74,0,0,1,12.33,16.69Z"/><path d="M18.35,16.69a.74.74,0,0,1-.75-.75V8.24a.75.75,0,0,1,1.5,0v7.7A.75.75,0,0,1,18.35,16.69Z"/><rect class="cls-1" x="2" y="4.16" width="20" height="16.23" rx="5.36"/></g></g></svg>