<svg xmlns="http://www.w3.org/2000/svg" viewBox="0 0 24 24"><defs><style>.cls-1{opacity:0.3;}</style></defs><g id="eCommerce"><g id="basket-ok"><path class="cls-1" d="M19.94,5.56H4.06A2.11,2.11,0,0,0,2,7.72,2.11,2.11,0,0,0,4.06,9.88H19.94A2.11,2.11,0,0,0,22,7.72,2.11,2.11,0,0,0,19.94,5.56Z"/><path d="M17.9,6.81a.74.74,0,0,1-.63-.35l-1.95-3a.74.74,0,0,1,.23-1,.76.76,0,0,1,1,.22l1.95,3.05a.75.75,0,0,1-.23,1A.78.78,0,0,1,17.9,6.81Z"/><path d="M6,6.82a.71.71,0,0,1-.4-.11.75.75,0,0,1-.23-1l2-3a.74.74,0,0,1,1-.23.76.76,0,0,1,.23,1l-1.95,3A.74.74,0,0,1,6,6.82Z"/><path d="M4.06,9.88l1.5,9.33A3.33,3.33,0,0,0,8.79,22H15.3a3.32,3.32,0,0,0,3.23-2.82l1.41-9.3Zm11.77,4.73-3.64,3.32a.77.77,0,0,1-.51.19.74.74,0,0,1-.53-.22L9.43,16.18a.75.75,0,0,1,0-1.06.74.74,0,0,1,1.06,0l1.22,1.21,3.11-2.83a.76.76,0,0,1,1.06.05A.75.75,0,0,1,15.83,14.61Z"/></g></g></svg>