<svg xmlns="http://www.w3.org/2000/svg" viewBox="0 0 24 24"><defs><style>.cls-1{opacity:0.3;}</style></defs><g id="eCommerce"><g id="cheque"><path d="M8.17,9.48H6A.75.75,0,1,1,6,8H8.17a.75.75,0,0,1,0,1.5Z"/><path d="M12.26,9.48H10.9a.75.75,0,0,1,0-1.5h1.36a.75.75,0,1,1,0,1.5Z"/><path d="M8.17,12.75H6a.75.75,0,1,1,0-1.5H8.17a.75.75,0,1,1,0,1.5Z"/><path d="M12.26,16H10a.75.75,0,0,1,0-1.5h2.22a.75.75,0,1,1,0,1.5Z"/><path d="M12.26,12.75H10.9a.75.75,0,1,1,0-1.5h1.36a.75.75,0,0,1,0,1.5Z"/><path class="cls-1" d="M15.39,18.94V3.44A.88.88,0,0,0,14,2.7l-1.21.78a.9.9,0,0,1-1,0l-2-1.34a.89.89,0,0,0-1,0L6.84,3.64a.89.89,0,0,1-1,0L4.55,2.78a.89.89,0,0,0-1.4.73v2h0V18.94A3.06,3.06,0,0,0,6.21,22H18.45A3.06,3.06,0,0,1,15.39,18.94Z"/><path d="M21.5,16a2,2,0,0,0-2.05-2.05H15.38v2.71h0v2.18a3.13,3.13,0,0,0,2.45,3.11,3.05,3.05,0,0,0,3.66-3V16.65h0Z"/></g></g></svg>