<svg xmlns="http://www.w3.org/2000/svg" viewBox="0 0 24 24"><defs><style>.cls-1{opacity:0.3;}</style></defs><g id="eCommerce"><g id="lots-shopping"><rect class="cls-1" x="2" y="13.43" width="8.57" height="8.57" rx="1.93"/><path d="M4.86,13.43H7.71a0,0,0,0,1,0,0v1.9a1,1,0,0,1-1,1h-1a1,1,0,0,1-1-1v-1.9A0,0,0,0,1,4.86,13.43Z"/><rect class="cls-1" x="13.43" y="13.43" width="8.57" height="8.57" rx="1.93"/><path d="M16.29,13.43h2.86a0,0,0,0,1,0,0v1.9a1,1,0,0,1-1,1h-1a1,1,0,0,1-1-1v-1.9A0,0,0,0,1,16.29,13.43Z"/><path class="cls-1" d="M4,2H8.64a1.93,1.93,0,0,1,1.93,1.93V8.64a1.93,1.93,0,0,1-1.93,1.93H3.93A1.93,1.93,0,0,1,2,8.64V4A2,2,0,0,1,4,2Z"/><path d="M4.86,2H7.71a0,0,0,0,1,0,0V3.9a1,1,0,0,1-1,1h-1a1,1,0,0,1-1-1V2a0,0,0,0,1,0,0Z"/><rect class="cls-1" x="13.43" y="2" width="8.57" height="8.57" rx="1.93"/><path d="M16.29,2h2.86a0,0,0,0,1,0,0V3.9a1,1,0,0,1-1,1h-1a1,1,0,0,1-1-1V2A0,0,0,0,1,16.29,2Z"/></g></g></svg>