<svg xmlns="http://www.w3.org/2000/svg" viewBox="0 0 24 24"><defs><style>.cls-1{opacity:0.3;}</style></defs><g id="eCommerce"><g id="package"><path class="cls-1" d="M16.09,7.9H7.8a3.8,3.8,0,0,0-3.75,3.19L3,17.64a3.8,3.8,0,0,0,3.75,4.42H17.28A3.8,3.8,0,0,0,21,17.58L19.84,11A3.82,3.82,0,0,0,16.09,7.9Z"/><path d="M16.23,9.62a.75.75,0,0,1-.75-.75V5.33a1.82,1.82,0,0,0-1.81-1.82H10.12A1.82,1.82,0,0,0,8.31,5.33V8.87a.75.75,0,0,1-1.5,0V5.33A3.32,3.32,0,0,1,10.12,2h3.55A3.32,3.32,0,0,1,17,5.33V8.87A.74.74,0,0,1,16.23,9.62Z"/><path d="M21.08,18.43a4.1,4.1,0,0,0-.06-.85L20.91,17H11a.72.72,0,0,0,0,1.43H21.08Z"/></g></g></svg>