<svg xmlns="http://www.w3.org/2000/svg" viewBox="0 0 24 24"><defs><style>.cls-1{opacity:0.3;}</style></defs><g id="eCommerce"><g id="purchase"><path class="cls-1" d="M17.31,8.28a.75.75,0,0,1-.75-.75,4.08,4.08,0,0,0-8.15,0,.75.75,0,0,1-1.5,0,5.58,5.58,0,0,1,11.15,0A.76.76,0,0,1,17.31,8.28Z"/><path d="M17.88,7.53H7.09a3.89,3.89,0,0,0-3.84,4.52l1.11,6.7A3.89,3.89,0,0,0,8.19,22h8.48a3.87,3.87,0,0,0,3.82-3.19l1.21-6.7A3.89,3.89,0,0,0,17.88,7.53ZM7.66,12.25a1,1,0,1,1,1-1A1,1,0,0,1,7.66,12.25Zm9.65,0a1,1,0,1,1,1-1A1,1,0,0,1,17.31,12.25Z"/></g></g></svg>