<svg xmlns="http://www.w3.org/2000/svg" viewBox="0 0 24 24"><defs><style>.cls-1{opacity:0.3;}</style></defs><g id="eCommerce"><g id="shop"><path d="M12.14,12.3h0A3.09,3.09,0,0,1,9.05,9l.43-7h5.14l.6,6.94A3.1,3.1,0,0,1,12.14,12.3Z"/><path class="cls-1" d="M18.49,12.3h0a3.25,3.25,0,0,1-3.24-3l-.61-7.15A.15.15,0,0,1,14.79,2h2.46a4.12,4.12,0,0,1,4.09,3.61l.38,3A3.26,3.26,0,0,1,18.49,12.3Z"/><path class="cls-1" d="M5.93,12.3H5.62A3.09,3.09,0,0,1,2.55,8.87l.34-3.16A4.17,4.17,0,0,1,7,2H9.48L9,9.4A3.09,3.09,0,0,1,5.93,12.3Z"/><path class="cls-1" d="M21.72,8.64l-.38-3A4.12,4.12,0,0,0,17.25,2H14.79a.15.15,0,0,0-.15.17l0,.43h0L14.62,2H9.48l0,.6h0l0-.6H7A4.17,4.17,0,0,0,2.89,5.71L2.55,8.87a3,3,0,0,0,.49,2v6.36A4.76,4.76,0,0,0,7.8,22h8.68a4.76,4.76,0,0,0,4.76-4.76V10.77A3.22,3.22,0,0,0,21.72,8.64Z"/><path d="M12.21,16.54h0a2.73,2.73,0,0,1,2.73,2.73V22a0,0,0,0,1,0,0H9.48a0,0,0,0,1,0,0V19.27A2.73,2.73,0,0,1,12.21,16.54Z"/></g></g></svg>