<svg xmlns="http://www.w3.org/2000/svg" viewBox="0 0 24 24"><defs><style>.cls-1{opacity:0.3;}</style></defs><g id="eCommerce"><g id="tag"><path class="cls-1" d="M16.51,22H8.59a3.1,3.1,0,0,1-3.1-3.1v-8a7.06,7.06,0,0,1,7.06-7.06h0a7.06,7.06,0,0,1,7.05,7.06v8A3.09,3.09,0,0,1,16.51,22Zm-4-16.64a1.52,1.52,0,1,0,1.51,1.52A1.52,1.52,0,0,0,12.55,5.36Z"/><path d="M12.55,7.18a.74.74,0,0,1-.75-.75V2a.75.75,0,0,1,1.5,0V6.43A.75.75,0,0,1,12.55,7.18Z"/><path d="M13.39,14.37c-.66-.33-1-.51-1-.86A.5.5,0,0,1,13,13a1.2,1.2,0,0,1,.92.45.44.44,0,0,0,.64,0l.44-.49a.45.45,0,0,0,0-.6,2.77,2.77,0,0,0-1.31-.81v-.65a.44.44,0,0,0-.44-.44h-.6a.44.44,0,0,0-.44.44v.67a2.06,2.06,0,0,0-1.47,2c0,1.29,1,1.79,1.75,2.18s1.07.57,1.07,1.06c0,.28-.08.59-.68.59a1.92,1.92,0,0,1-1.27-.55.44.44,0,0,0-.35-.11.46.46,0,0,0-.31.19l-.39.57a.46.46,0,0,0,.07.58,3.46,3.46,0,0,0,1.58.81v.64a.44.44,0,0,0,.44.44h.6a.44.44,0,0,0,.44-.44v-.67a2.1,2.1,0,0,0,1.57-2.11A2.58,2.58,0,0,0,13.39,14.37Z"/></g></g></svg>