<svg xmlns="http://www.w3.org/2000/svg" viewBox="0 0 24 24"><defs><style>.cls-1{opacity:0.3;}</style></defs><g id="delivery-logistics"><g id="airplane"><g id="airplane-2" data-name="airplane" class="cls-1"><path d="M20.64,10.68,14.5,8a.63.63,0,0,1-.37-.57V4.1a1.72,1.72,0,0,0-.49-1.19L13,2.28a1.34,1.34,0,0,0-1.92,0l-.62.63A1.72,1.72,0,0,0,10,4.1V7.39A.62.62,0,0,1,9.62,8L3.36,10.68a.9.9,0,0,0-.55.83v2.14a.91.91,0,0,0,1.27.83l5-2.2a.62.62,0,0,1,.87.57v3.29a.64.64,0,0,1-.22.49L7.39,18.57a.86.86,0,0,0-.32.67v2a.87.87,0,0,0,1.42.67l2.95-2.4a.82.82,0,0,1,1.06,0l2.95,2.4a.87.87,0,0,0,1.42-.67v-2a.83.83,0,0,0-.32-.67l-2.19-1.79a.62.62,0,0,1-.23-.49V12.91a.62.62,0,0,1,.87-.57l4.92,2.14a.91.91,0,0,0,1.27-.83V11.51A.9.9,0,0,0,20.64,10.68Z"/></g><path d="M14.5,8a.63.63,0,0,1-.37-.57V4.1a1.72,1.72,0,0,0-.49-1.19L13,2.28a1.34,1.34,0,0,0-1.92,0l-.62.63A1.72,1.72,0,0,0,10,4.1V7.39A.62.62,0,0,1,9.62,8L3.36,10.68a.9.9,0,0,0-.55.83v2.14a.91.91,0,0,0,1.27.83l5-2.2a.62.62,0,0,1,.87.57V14.1L16.67,9Z"/></g></g></svg>