<svg xmlns="http://www.w3.org/2000/svg" viewBox="0 0 24 24"><defs><style>.cls-1{opacity:0.3;}</style></defs><g id="delivery-logistics"><g id="airplane-square"><rect class="cls-1" x="1.97" y="2" width="20.06" height="20" rx="5.96" transform="translate(-0.06 0.06) rotate(-0.31)"/><path d="M18.4,11,13.85,9a.46.46,0,0,1-.27-.42V6.15a1.25,1.25,0,0,0-.36-.88l-.46-.47a1,1,0,0,0-1.43,0l-.46.47a1.25,1.25,0,0,0-.36.88V8.58a.45.45,0,0,1-.27.42L5.6,11a.68.68,0,0,0-.41.62v1.58a.68.68,0,0,0,.94.62l3.74-1.63a.46.46,0,0,1,.64.42v2.44a.46.46,0,0,1-.17.36L8.58,16.86a.66.66,0,0,0-.23.51v1.49a.65.65,0,0,0,1.05.5l2.18-1.78a.62.62,0,0,1,.79,0l2.19,1.78a.65.65,0,0,0,1-.5V17.37a.67.67,0,0,0-.24-.51l-1.62-1.32a.46.46,0,0,1-.17-.36V12.67a.46.46,0,0,1,.64-.42l3.65,1.59a.68.68,0,0,0,.94-.62V11.64A.68.68,0,0,0,18.4,11Z"/></g></g></svg>