<svg xmlns="http://www.w3.org/2000/svg" viewBox="0 0 24 24"><defs><style>.cls-1{opacity:0.3;}</style></defs><g id="delivery-logistics"><g id="car-3"><circle cx="5.88" cy="15.83" r="1.48"/><circle cx="18.05" cy="15.83" r="1.48"/><path class="cls-1" d="M20.72,11.45,18.55,11a1.75,1.75,0,0,1-.77-.41L14.23,7.15a1.67,1.67,0,0,0-1.14-.45H7.94a1.64,1.64,0,0,0-1.3.63L4.76,9.72a1.66,1.66,0,0,1-.83.57l-.72.2A1.7,1.7,0,0,0,2,12.11v2.28a1.45,1.45,0,0,0,.41,1,1.4,1.4,0,0,0,.89.42,2.58,2.58,0,0,1,5.15-.18.21.21,0,0,0,.2.2h6.62a.22.22,0,0,0,.21-.2,2.57,2.57,0,0,1,5.14.18,1.44,1.44,0,0,0,.88-.34h0A1.44,1.44,0,0,0,22,14.38V13.05A1.64,1.64,0,0,0,20.72,11.45ZM10,7.8v3.08H7.48a.88.88,0,0,1-.73-1.37l.88-1.32a.88.88,0,0,1,.74-.39Zm4.29,3.08H11.48V7.81h1.61a.88.88,0,0,1,.65.29l1.18,1.31A.88.88,0,0,1,14.27,10.88Z"/></g></g></svg>