<svg xmlns="http://www.w3.org/2000/svg" viewBox="0 0 24 24"><defs><style>.cls-1{opacity:0.3;}</style></defs><g id="delivery-logistics"><g id="car-2"><path d="M3.56,10.09l.85-2.15H3.07a1.08,1.08,0,0,0,0,2.15Z"/><path d="M20.93,7.94H19.85l.92,2.15h.16a1.08,1.08,0,0,0,0-2.15Z"/><path d="M2.87,17.87v1.07a1.68,1.68,0,0,0,3.36,0V17.87Z"/><path d="M18.17,18.94a1.68,1.68,0,1,0,3.36,0V17.87H18.17Z"/><path class="cls-1" d="M21.22,11.13,18.78,5.47a3.45,3.45,0,0,0-3.17-2.09h-7A3.44,3.44,0,0,0,5.36,5.56L3.13,11.17a3.5,3.5,0,0,0-.24,1.28v5.42H21.51V12.5A3.4,3.4,0,0,0,21.22,11.13ZM5.8,8.92l.94-2.86a.63.63,0,0,1,.6-.44h9.5a.65.65,0,0,1,.61.44l.94,2.86a.64.64,0,0,1-.61.84H6.4A.64.64,0,0,1,5.8,8.92Zm-.2,5.55a1.05,1.05,0,1,1,1.05-1.05A1,1,0,0,1,5.6,14.47Zm13,0a1.05,1.05,0,1,1,1.05-1.05A1,1,0,0,1,18.62,14.47Z"/><path d="M15.84,16.23h-7a.75.75,0,0,1,0-1.5h7a.75.75,0,0,1,0,1.5Z"/></g></g></svg>