<svg xmlns="http://www.w3.org/2000/svg" viewBox="0 0 24 24"><defs><style>.cls-1{opacity:0.3;}</style></defs><g id="delivery-logistics"><g id="car"><g class="cls-1"><path d="M13.76,19.13H9.87a1.55,1.55,0,0,0-1.55,1.45v.09a1.56,1.56,0,0,1-1.55,1.46H2.93a1.56,1.56,0,0,1-1.55-1.68l.67-8.36A2.68,2.68,0,0,1,4.72,9.63H19.28A2.68,2.68,0,0,1,22,12.09l.67,8.36a1.56,1.56,0,0,1-1.55,1.68H16.86a1.56,1.56,0,0,1-1.54-1.4l0-.21A1.54,1.54,0,0,0,13.76,19.13Z"/></g><path d="M4.72,9.62H19.28a2.71,2.71,0,0,1,.94.18l-1-5.47a3,3,0,0,0-2.93-2.46H7.45A3,3,0,0,0,4.52,4.33l-1,5.52h.14A2.58,2.58,0,0,1,4.72,9.62Z"/><path d="M20.62,8.14H2.9a.75.75,0,0,1,0-1.5H20.62a.75.75,0,1,1,0,1.5Z"/><path d="M18.64,14H15.39a.75.75,0,0,1,0-1.5h3.25a.75.75,0,0,1,0,1.5Z"/><path d="M8.64,14H5.39a.75.75,0,1,1,0-1.5H8.64a.75.75,0,0,1,0,1.5Z"/></g></g></svg>