<svg xmlns="http://www.w3.org/2000/svg" viewBox="0 0 24 24"><defs><style>.cls-1{opacity:0.3;}</style></defs><g id="delivery-logistics"><g id="courier"><path d="M15.05,10.61h-2.5L11.9,8.14a1.5,1.5,0,0,0-1.5-1.5H8.94a1.5,1.5,0,0,0-1.5,1.5v5.77h0v2.95A3.71,3.71,0,0,1,7.1,18.4l-.92,2.05a1.08,1.08,0,1,0,2,.89l1.12-2.47a3.91,3.91,0,0,0,.33-1.54V14.92L10.8,17a3.71,3.71,0,0,1,.5,1.89v2a1.08,1.08,0,1,0,2.16,0V18.32a3.71,3.71,0,0,0-.5-1.89L11.9,14.58V12.77h3.15a1.08,1.08,0,0,0,0-2.16Z"/><rect class="cls-1" x="12.91" y="5.69" width="5.01" height="4.04" rx="1.04"/><path d="M13.14,3.48h-1.3A2,2,0,0,0,9.89,1.82H9.42a2,2,0,0,0-2,2v.85a2,2,0,0,0,2,2h.47A2,2,0,0,0,11.84,5h1.3a.75.75,0,0,0,0-1.5Z"/></g></g></svg>