<svg xmlns="http://www.w3.org/2000/svg" viewBox="0 0 24 24"><defs><style>.cls-1{opacity:0.3;}</style></defs><g id="delivery-logistics"><g id="courier-express"><path d="M14.75,2.6a1.92,1.92,0,0,1,1.81,1.34H12.93A1.92,1.92,0,0,1,14.75,2.6Z"/><path d="M2.42,18.82l5.39-5.4h0l1.06-1.05L9,12.25l2.89-5.12a1.39,1.39,0,0,1,.86-.66,1.33,1.33,0,0,1,.4,0,1.82,1.82,0,0,1-.3-1V5.35h3.83v.06A1.91,1.91,0,0,1,15,7.3l.42.25a1.37,1.37,0,0,1,.45.41,1.29,1.29,0,0,1,.23.47l.64,2.36H19.2a1.27,1.27,0,0,1,0,2.54H15.77l-.22,0H15.5l-.15-.05a.35.35,0,0,1-.14-.06s-.05,0-.07,0l0,0a1,1,0,0,1-.33-.29l0,0a1.36,1.36,0,0,1-.24-.55l0-.18-1.18,2,1.26,1.26h0a1.24,1.24,0,0,1,.37.89,1.26,1.26,0,0,1-.37.9L10.68,21a1.24,1.24,0,0,1-.89.37,1.26,1.26,0,0,1-.9-.37,1.29,1.29,0,0,1,0-1.8l2.85-2.84L9.86,15,4.21,20.61a1.24,1.24,0,0,1-.89.37,1.26,1.26,0,0,1-1.27-1.27A1.22,1.22,0,0,1,2.42,18.82Z"/><path class="cls-1" d="M19.2,10.79h-.9V8.52a.94.94,0,0,1,.94-.93H21a.93.93,0,0,1,.93.93v2.55A.93.93,0,0,1,21,12h-.57A1.26,1.26,0,0,0,19.2,10.79Z"/><path d="M16.56,3.94H18a.71.71,0,1,1,0,1.41H16.66V4.52A1.81,1.81,0,0,0,16.56,3.94Z"/><path d="M12.93,3.94h3.63a1.81,1.81,0,0,1,.1.58v.83H12.83V4.52A1.81,1.81,0,0,1,12.93,3.94Z"/><path class="cls-1" d="M2.73,9.69a.75.75,0,1,1,0-1.5l5.75,0h0a.75.75,0,0,1,.75.75.74.74,0,0,1-.74.75l-5.75,0Z"/><path class="cls-1" d="M5.63,6.86a.75.75,0,0,1,0-1.5l2.85,0h0a.75.75,0,0,1,.75.74.74.74,0,0,1-.74.76l-2.85,0Z"/></g></g></svg>