<svg xmlns="http://www.w3.org/2000/svg" viewBox="0 0 24 24"><defs><style>.cls-1{opacity:0.3;}</style></defs><g id="delivery-logistics"><g id="cube-2"><path class="cls-1" d="M9.91,21.67l-5.24-3A4.17,4.17,0,0,1,2.58,15V9A4.17,4.17,0,0,1,4.67,5.36l5.24-3a4.16,4.16,0,0,1,4.18,0l5.24,3A4.17,4.17,0,0,1,21.42,9V15a4.17,4.17,0,0,1-2.09,3.61l-5.24,3A4.16,4.16,0,0,1,9.91,21.67Z"/><path class="cls-1" d="M20.86,6.89a4.09,4.09,0,0,0-1.53-1.53l-5.24-3a4.16,4.16,0,0,0-4.18,0l-5.24,3A4.09,4.09,0,0,0,3.14,6.89L12,12Z"/><path d="M20.85,6.89,12,12l.13,10.22a4.17,4.17,0,0,0,2-.55l5.24-3A4.17,4.17,0,0,0,21.42,15V9A4.16,4.16,0,0,0,20.85,6.89Z"/></g></g></svg>