<svg xmlns="http://www.w3.org/2000/svg" viewBox="0 0 24 24"><defs><style>.cls-1{opacity:0.3;}</style></defs><g id="delivery-logistics"><g id="cube-3"><rect class="cls-1" x="2" y="2" width="20" height="20" rx="5.95"/><path d="M7.29,10.34l3.55,2.05a1,1,0,0,1,.48.84v4.1a1,1,0,0,1-1.45.84L6.32,16.12a1,1,0,0,1-.48-.84v-4.1A1,1,0,0,1,7.29,10.34Zm9.42,0-3.55,2.05a1,1,0,0,0-.48.84v4.1a1,1,0,0,0,1.45.84l3.55-2.05a1,1,0,0,0,.48-.84v-4.1A1,1,0,0,0,16.71,10.34ZM8,7.89l3.54-2.06a.94.94,0,0,1,1,0l3.56,2a1,1,0,0,1,0,1.67L12.57,11.6a1,1,0,0,1-1,0L8,9.56A1,1,0,0,1,8,7.89Z"/></g></g></svg>