<svg xmlns="http://www.w3.org/2000/svg" viewBox="0 0 24 24"><defs><style>.cls-1{opacity:0.3;}</style></defs><g id="delivery-logistics"><g id="delivery-geolocation"><path d="M19.38,10.42H18.11a.88.88,0,0,0-.88.88V14a.87.87,0,0,0,.88.88H21v-.75A2.42,2.42,0,0,0,20.72,13Z"/><circle cx="8.33" cy="20.21" r="1.78"/><circle cx="15.45" cy="20.21" r="1.78"/><path class="cls-1" d="M20.72,13,18.19,8.18A2.48,2.48,0,0,0,16,6.86h-.28a1.48,1.48,0,0,1,0,.21,5.06,5.06,0,0,1-1.28,3.38l-2.58,2.88a1.62,1.62,0,0,1-2.4,0L6.9,10.45A5,5,0,0,1,5.62,6.86H5.46A2.48,2.48,0,0,0,3,9.34v8.4a2.48,2.48,0,0,0,2.47,2.47H18.54A2.48,2.48,0,0,0,21,17.74V14.12A2.42,2.42,0,0,0,20.72,13Z"/><path d="M10.08,2A5.06,5.06,0,0,0,6.9,10.45l2.57,2.88a1.62,1.62,0,0,0,2.4,0l2.58-2.88A5.07,5.07,0,0,0,10.08,2ZM10.67,9a1.9,1.9,0,1,1,1.9-1.9A1.9,1.9,0,0,1,10.67,9Z"/></g></g></svg>