<svg xmlns="http://www.w3.org/2000/svg" viewBox="0 0 24 24"><defs><style>.cls-1{opacity:0.3;}</style></defs><g id="delivery-logistics"><g id="delivery-3"><rect class="cls-1" x="8.41" y="2.89" width="8.93" height="8.17" rx="1.59"/><path d="M21.81,11.85a1.2,1.2,0,0,0-1.48-.26L16.2,14.54a3,3,0,0,1,.15,1.91,2.81,2.81,0,0,1-2.72,2.12,2.74,2.74,0,0,1-.7-.09l-2.44-.63a.73.73,0,1,1,.36-1.41l2.44.62a1.31,1.31,0,0,0,1.64-1h0a1.5,1.5,0,0,0-1.07-1.88L8.08,12.73a1.61,1.61,0,0,0-.37,0,2.9,2.9,0,0,0-2.52,1.14c-.94,1.05-2.09,2.27-2.87,3.09a1.29,1.29,0,0,0,0,1.82L4.09,20.4a1.29,1.29,0,0,0,1.8,0,3.91,3.91,0,0,1,.73-.62C7,19.58,12.67,21,12.67,21a2.46,2.46,0,0,0,1.21,0,3.68,3.68,0,0,0,1.2-.77l6.52-6.65S22.42,12.59,21.81,11.85Z"/><path d="M11.27,2.89h3.19a0,0,0,0,1,0,0v2a1.21,1.21,0,0,1-1.21,1.21h-.77a1.21,1.21,0,0,1-1.21-1.21v-2A0,0,0,0,1,11.27,2.89Z"/></g></g></svg>