<svg xmlns="http://www.w3.org/2000/svg" viewBox="0 0 24 24"><defs><style>.cls-1{opacity:0.3;}</style></defs><g id="delivery-logistics"><g id="delivery-2"><rect class="cls-1" x="12.41" y="7.61" width="6.87" height="6.66" rx="1.1" transform="translate(-2.39 4.76) rotate(-15.89)"/><path d="M14,7.69h2.54a0,0,0,0,1,0,0V9.44a.71.71,0,0,1-.71.71H14.71A.71.71,0,0,1,14,9.44V7.69a0,0,0,0,1,0,0Z" transform="translate(-1.86 4.52) rotate(-15.89)"/><rect class="cls-1" x="10.77" y="2.45" width="5.66" height="5.55" rx="0.91" transform="translate(-0.91 3.92) rotate(-15.89)"/><path d="M12.08,2.52h2.09a0,0,0,0,1,0,0V4a.59.59,0,0,1-.59.59h-.91A.59.59,0,0,1,12.08,4V2.52A0,0,0,0,1,12.08,2.52Z" transform="translate(-0.47 3.73) rotate(-15.89)"/><path d="M10.44,14.88a.75.75,0,0,1-.72-.55L6.83,3.92l-2.95.81A.73.73,0,0,1,3,4.21a.74.74,0,0,1,.52-.92l3.66-1a.75.75,0,0,1,.92.52l3.08,11.13a.74.74,0,0,1-.51.91Z"/><path d="M15.07,17.69a.75.75,0,0,1-.72-.55.74.74,0,0,1,.52-.91l6.2-1.72a.74.74,0,1,1,.4,1.43l-6.2,1.72Z"/><path class="cls-1" d="M11.18,15.92a2.3,2.3,0,1,0,2.23,2.3A2.27,2.27,0,0,0,11.18,15.92Zm0,3.12a.82.82,0,1,1,.75-.82A.79.79,0,0,1,11.18,19Z"/><path d="M19.81,22H7.49a.74.74,0,0,1-.74-.74.75.75,0,0,1,.74-.75H19.81a.75.75,0,0,1,.74.75A.74.74,0,0,1,19.81,22Z"/><rect x="1.98" y="2.84" width="4.36" height="2.03" rx="0.89" transform="translate(-0.82 1.14) rotate(-14.21)"/></g></g></svg>