<svg xmlns="http://www.w3.org/2000/svg" viewBox="0 0 24 24"><defs><style>.cls-1{opacity:0.3;}</style></defs><g id="delivery-logistics"><g id="delivery-24"><path d="M3.06,8.94c-1.26,1.17-1.49,2.83-.17,5.42A16.72,16.72,0,0,0,9,20.67c2.19,1.25,3.68,1.58,5.22.68a2.24,2.24,0,0,0,1.27-2.5,3.17,3.17,0,0,0-.38-.44l-2.71-1.85a1,1,0,0,0-.9.05,13,13,0,0,0-1,.89.38.38,0,0,1-.46.09,13.24,13.24,0,0,1-3.74-3.73.35.35,0,0,1,.08-.43c.21-.22.89-1,.89-1a.85.85,0,0,0,.15-.49,2.44,2.44,0,0,0-.1-.42L5.47,8.81a1.16,1.16,0,0,0-1-.5A2.15,2.15,0,0,0,3.06,8.94Z"/><circle class="cls-1" cx="13.33" cy="10.81" r="8.67"/><path d="M12.36,12.6H10.69c1-1,1.81-1.85,1.81-2.93a1.72,1.72,0,0,0-1.86-1.78A2.58,2.58,0,0,0,9,8.48a.28.28,0,0,0-.07.32l.23.49a.25.25,0,0,0,.18.15.28.28,0,0,0,.23,0A1.52,1.52,0,0,1,10.5,9a.66.66,0,0,1,.76.75c0,.66-.55,1.29-1.86,2.54l-.55.54a.25.25,0,0,0-.09.19v.43a.28.28,0,0,0,.27.27h3.33a.27.27,0,0,0,.27-.27v-.59A.27.27,0,0,0,12.36,12.6Z"/><path d="M17.63,11.22h-.46v-3A.27.27,0,0,0,16.9,8h-.77a.28.28,0,0,0-.22.11l-2.32,3.33a.3.3,0,0,0-.05.15V12a.27.27,0,0,0,.27.26H16v1.16a.27.27,0,0,0,.27.27h.67a.27.27,0,0,0,.27-.27V12.3h.46A.27.27,0,0,0,17.9,12v-.55A.27.27,0,0,0,17.63,11.22Zm-1.67,0H15L16,9.93Z"/></g></g></svg>