<svg xmlns="http://www.w3.org/2000/svg" viewBox="0 0 24 24"><defs><style>.cls-1{opacity:0.3;}</style></defs><g id="delivery-logistics"><g id="delivery-time"><g id="delivery"><path d="M20.29,9H18.86a1,1,0,0,0-1,1v3a1,1,0,0,0,1,1h3.27v-.84a2.7,2.7,0,0,0-.33-1.3Z"/><circle cx="7.87" cy="20" r="2"/><circle cx="15.87" cy="20" r="2"/></g><path d="M10.36,2a5.25,5.25,0,1,0,5.25,5.25A5.25,5.25,0,0,0,10.36,2Zm.75,5.15a.75.75,0,0,1-.29.59L9.05,9.15a.72.72,0,0,1-.46.16A.77.77,0,0,1,8,9,.76.76,0,0,1,8.12,8L9.61,6.79V4.94a.75.75,0,0,1,1.5,0Z"/><path class="cls-1" d="M21.8,11.86,19,6.48A2.77,2.77,0,0,0,16.5,5H11.11V7.15a.75.75,0,0,1-.29.59L9.05,9.15a.72.72,0,0,1-.46.16A.77.77,0,0,1,8,9,.76.76,0,0,1,8.12,8L9.61,6.79V5h-5A2.79,2.79,0,0,0,1.87,7.78v9.44A2.78,2.78,0,0,0,4.65,20h14.7a2.78,2.78,0,0,0,2.78-2.78V13.16A2.7,2.7,0,0,0,21.8,11.86Z"/></g></g></svg>