<svg xmlns="http://www.w3.org/2000/svg" viewBox="0 0 24 24"><defs><style>.cls-1{opacity:0.3;}</style></defs><g id="delivery-logistics"><g id="logistic"><rect class="cls-1" x="3.35" y="12.54" width="17.29" height="9.06" rx="1.11"/><path d="M6.34,20a.75.75,0,0,1-.75-.75V14.62a.75.75,0,0,1,1.5,0v4.66A.74.74,0,0,1,6.34,20Z"/><path d="M10.11,20a.75.75,0,0,1-.75-.75V14.62a.75.75,0,1,1,1.5,0v4.66A.74.74,0,0,1,10.11,20Z"/><path d="M13.89,20a.74.74,0,0,1-.75-.75V14.62a.75.75,0,1,1,1.5,0v4.66A.75.75,0,0,1,13.89,20Z"/><path d="M17.66,20a.74.74,0,0,1-.75-.75V14.62a.75.75,0,0,1,1.5,0v4.66A.75.75,0,0,1,17.66,20Z"/><path d="M7.3,12.54,12,8.06l4.7,4.48h2.17l0,0-6.32-6a.75.75,0,0,0-1,0l-6.32,6,0,0Z"/><path d="M12,8A2.38,2.38,0,0,1,9.63,5.6a.75.75,0,0,1,1.5,0A.87.87,0,1,0,12,4.74.76.76,0,0,1,11.25,4V2.4a.75.75,0,0,1,1.5,0v1A2.37,2.37,0,0,1,12,8Z"/></g></g></svg>