<svg xmlns="http://www.w3.org/2000/svg" viewBox="0 0 24 24"><defs><style>.cls-1{opacity:0.3;}</style></defs><g id="delivery-logistics"><g id="parcel"><path class="cls-1" d="M5.6,9.81l4.74,2.73a2.09,2.09,0,0,1,1,1.81v5.47a2.09,2.09,0,0,1-3.13,1.8L3.51,18.89a2.1,2.1,0,0,1-1-1.81V11.61A2.09,2.09,0,0,1,5.6,9.81Z"/><path class="cls-1" d="M21.53,11.61v5.47a2.1,2.1,0,0,1-1,1.81l-4.74,2.73a2.09,2.09,0,0,1-3.13-1.8V14.35a2.09,2.09,0,0,1,1-1.81L18.4,9.81A2.09,2.09,0,0,1,21.53,11.61Z"/><path class="cls-1" d="M6.22,8.73,11,11.46a2.09,2.09,0,0,0,2.08,0L17.79,8.7a2.08,2.08,0,0,0,0-3.6L13,2.37a2.06,2.06,0,0,0-2.08,0L6.21,5.13A2.08,2.08,0,0,0,6.22,8.73Z"/><path d="M15.81,13.1a.75.75,0,0,0,.75.74h0a.75.75,0,0,0,.74-.75l0-2.64-1.49.86Z"/><polygon points="17.28 8.99 8.45 3.83 6.95 4.7 15.79 9.85 15.79 9.86 17.28 9 17.28 8.99"/></g></g></svg>