<svg xmlns="http://www.w3.org/2000/svg" viewBox="0 0 24 24"><defs><style>.cls-1{opacity:0.3;}</style></defs><g id="delivery-logistics"><g id="parcel-tracking"><path d="M10.32,3.77h6.15a0,0,0,0,1,0,0V8.39a1.84,1.84,0,0,1-1.84,1.84H12.16a1.84,1.84,0,0,1-1.84-1.84V3.77A0,0,0,0,1,10.32,3.77Z"/><path d="M7.75,11a4.48,4.48,0,0,0-4.48,4.48,4.33,4.33,0,0,0,.51,2l-1.5,1.26a.75.75,0,0,0,.48,1.32A.72.72,0,0,0,3.24,20l1.43-1.2A4.47,4.47,0,1,0,7.75,11Zm2.92,4.48a2.93,2.93,0,1,1-2.92-2.93A2.93,2.93,0,0,1,10.67,15.52Z"/><path class="cls-1" d="M18.21,3.77H8.57A3.78,3.78,0,0,0,4.79,7.55v5.8a3.68,3.68,0,1,1,.44,4.84,3.76,3.76,0,0,0,3.34,2h9.64A3.78,3.78,0,0,0,22,16.45V7.55A3.78,3.78,0,0,0,18.21,3.77Z"/></g></g></svg>