<svg xmlns="http://www.w3.org/2000/svg" viewBox="0 0 24 24"><defs><style>.cls-1{opacity:0.3;}</style></defs><g id="delivery-logistics"><g id="scooter"><path d="M11.64,13.31H3.22a.75.75,0,0,1,0-1.5h8.42a.75.75,0,0,1,0,1.5Z"/><path d="M12.09,7h0l2.18,0,0-.71a1.31,1.31,0,0,1,.36-.8l-2.59,0a.75.75,0,0,0,0,1.5Z"/><circle cx="19.17" cy="16.98" r="2.3"/><path class="cls-1" d="M19.17,13.68V12.8a1.25,1.25,0,0,0-.18-.65L16.34,7.42l.94,0,.06-2.32a.38.38,0,0,0-.46-.39l-1.58.34a1.25,1.25,0,0,0-1,1.15L14.2,8.15l0,.41.84,2.95a1.27,1.27,0,0,1-.07.88l-1,2.07a1.25,1.25,0,0,1-1.19.72l-1.6-.07A.32.32,0,0,1,11,14.7l.36-1.23a.33.33,0,0,0-.31-.41L4.57,13a1.27,1.27,0,0,0-1.1.65l-.78,1.42A1.26,1.26,0,0,0,3.79,17H15.87A3.3,3.3,0,0,1,19.17,13.68Z"/><path d="M3.63,17v0a2.31,2.31,0,0,0,4.61,0H3.79Z"/><path d="M9.43,10.76H4.5a.75.75,0,0,1,0-1.5H9.43a.75.75,0,0,1,0,1.5Z"/><path d="M9.43,8.19H4.5a.75.75,0,1,1,0-1.5H9.43a.75.75,0,1,1,0,1.5Z"/></g></g></svg>