<svg xmlns="http://www.w3.org/2000/svg" viewBox="0 0 24 24"><defs><style>.cls-1{opacity:0.3;}</style></defs><g id="delivery-logistics"><g id="ship"><g class="cls-1"><rect x="5" y="5" width="14" height="11.53" rx="2.79"/></g><path d="M10.65,2h2.7A1.15,1.15,0,0,1,14.5,3.15V5a0,0,0,0,1,0,0h-5a0,0,0,0,1,0,0V3.15A1.15,1.15,0,0,1,10.65,2Z"/><path d="M14,22H10a7.63,7.63,0,0,1-7.63-7.63h0a2.3,2.3,0,0,1,1.45-2.15l7.05-2.84a3.15,3.15,0,0,1,2.34,0l7,2.84a2.3,2.3,0,0,1,1.45,2.15h0A7.63,7.63,0,0,1,14,22Z"/></g></g></svg>