<svg xmlns="http://www.w3.org/2000/svg" viewBox="0 0 24 24"><defs><style>.cls-1{opacity:0.3;}</style></defs><g id="delivery-logistics"><g id="trailer"><rect x="4.84" y="8.44" width="5.02" height="3.73" rx="0.76"/><rect x="11.23" y="8.44" width="3.53" height="6.94" rx="0.76"/><circle cx="7.74" cy="17.34" r="1.53"/><path d="M18.3,16.59H10.16a2.68,2.68,0,0,1,.13.75,2.56,2.56,0,0,1-.13.75H18.3a.75.75,0,0,0,0-1.5Z"/></g><path class="cls-1" d="M18.21,13.39l-1.28-6a2.67,2.67,0,0,0-2.6-2.12L5.58,5.24A2.68,2.68,0,0,0,2.9,7.61l-.72,6a2.68,2.68,0,0,0,2.67,3h.51a2.51,2.51,0,0,1,4.81,0h5.42A2.68,2.68,0,0,0,18.21,13.39Z"/></g></svg>