<svg xmlns="http://www.w3.org/2000/svg" viewBox="0 0 24 24"><defs><style>.cls-1{opacity:0.3;}</style></defs><g id="delivery-logistics"><g id="truck"><circle cx="7.05" cy="17.52" r="1.73"/><circle cx="17.83" cy="17.52" r="1.73"/><path class="cls-1" d="M2,12.46v3.37a1.28,1.28,0,0,0,1.28,1.28H4.36a2.72,2.72,0,0,1,5.38,0h2.55a1.28,1.28,0,0,0,1.29-1.28V12.46Z"/><path d="M12.29,4.75h-9A1.29,1.29,0,0,0,2,6.05v6.54H13.58V6.05A1.3,1.3,0,0,0,12.29,4.75Z"/><path class="cls-1" d="M21.73,11.41,19.37,8.34a1.32,1.32,0,0,0-1.05-.52h-2.6A1.32,1.32,0,0,0,14.4,9.14v6.65A1.32,1.32,0,0,0,15.16,17a2.72,2.72,0,0,1,5.36.13h.16A1.32,1.32,0,0,0,22,15.79V12.22A1.38,1.38,0,0,0,21.73,11.41Zm-1.81,1a.63.63,0,0,1-.62.63H17.23a.63.63,0,0,1-.63-.63V10.47a.63.63,0,0,1,.63-.62h1.23a.6.6,0,0,1,.5.26l.84,1.16a.58.58,0,0,1,.12.36Z"/></g></g></svg>