<svg xmlns="http://www.w3.org/2000/svg" viewBox="0 0 24 24"><defs><style>.cls-1{opacity:0.3;isolation:isolate;}</style></defs><g id="social-media"><g id="behance"><path id="behance-2" data-name="behance" d="M11.2,7.53a2.88,2.88,0,0,1,.6,1.9,2.79,2.79,0,0,1-.6,1.8,2.18,2.18,0,0,1-.9.7A2.59,2.59,0,0,1,11.7,13a3.45,3.45,0,0,1,.5,1.8,3.08,3.08,0,0,1-.6,1.9,2.84,2.84,0,0,1-.9,1,3.51,3.51,0,0,1-1.4.6,8.81,8.81,0,0,1-1.7.2H3a.94.94,0,0,1-1-1V7.33a.94.94,0,0,1,1-1H8A3.94,3.94,0,0,1,11.2,7.53Zm-6.7.9v2.7h3a2.5,2.5,0,0,0,1.3-.3,1.29,1.29,0,0,0,.5-1.1,1,1,0,0,0-.7-1.1,6.05,6.05,0,0,0-1.5-.2Zm0,4.7v3.3h3a4.44,4.44,0,0,0,1.3-.2,1.65,1.65,0,0,0,.8-1.5,1.34,1.34,0,0,0-.8-1.3,3.73,3.73,0,0,0-1.2-.2Zm15.1-3.5a4,4,0,0,1,1.6,1.3,4,4,0,0,1,.7,1.9c0,.2.1.5.1.8a.94.94,0,0,1-1,1H15.4a2.15,2.15,0,0,0,1,1.9,2.77,2.77,0,0,0,1.3.3,2.4,2.4,0,0,0,1.5-.6,1.59,1.59,0,0,1,1.2-.4H21a.63.63,0,0,1,.5,1,4.87,4.87,0,0,1-3.9,2,5.17,5.17,0,0,1-3.2-1.1,4.31,4.31,0,0,1-1.4-3.6,4.48,4.48,0,0,1,4.6-4.9A4.48,4.48,0,0,1,19.6,9.63Zm-3.6,2a2,2,0,0,0-.6,1.4h4.1a2,2,0,0,0-.6-1.4,2.39,2.39,0,0,0-1.4-.5A2.46,2.46,0,0,0,16,11.63Z"/><path class="cls-1" d="M15.55,7.93h3.8a.8.8,0,0,0,0-1.6h-3.8a.79.79,0,0,0-.8.8C14.85,7.63,15.15,7.93,15.55,7.93Z"/></g></g></svg>