<svg xmlns="http://www.w3.org/2000/svg" viewBox="0 0 24 24"><defs><style>.cls-1{opacity:0.3;}</style></defs><g id="social-media"><g id="classmates"><path d="M9.65,9.27A2.38,2.38,0,1,1,12,11.65,2.38,2.38,0,0,1,9.65,9.27Zm3.75,5.09a8.42,8.42,0,0,0,1-.33.75.75,0,0,0,.38-1,.74.74,0,0,0-1-.38,3.86,3.86,0,0,1-3.42,0,.76.76,0,0,0-1,.27.75.75,0,0,0,.26,1,3.9,3.9,0,0,0,1,.4L9.36,15.89a.75.75,0,0,0,1.17.94L12,15l1.47,1.83a.77.77,0,0,0,.58.28.68.68,0,0,0,.47-.17.74.74,0,0,0,.12-1.05Z"/><circle class="cls-1" cx="12" cy="12" r="10"/></g></g></svg>