<svg xmlns="http://www.w3.org/2000/svg" viewBox="0 0 24 24"><defs><style>.cls-1{opacity:0.3;}</style></defs><g id="social-media"><g id="dribbble"><path d="M13.89,7.64a16.15,16.15,0,0,0,4.16-2.77.64.64,0,0,0-.05-1,10.06,10.06,0,0,0-6-2A9.28,9.28,0,0,0,10.82,2a.66.66,0,0,0-.46,1A44.4,44.4,0,0,1,13,7.35.67.67,0,0,0,13.89,7.64Z"/><path d="M11,7.88A44.57,44.57,0,0,0,8.09,3.29a.64.64,0,0,0-.82-.19A10.09,10.09,0,0,0,2.41,8.9a.65.65,0,0,0,.6.87,28.27,28.27,0,0,0,7.63-.95A.65.65,0,0,0,11,7.88Z"/><path class="cls-1" d="M15.53,11.35a15.83,15.83,0,0,1,5.7.17.66.66,0,0,0,.79-.73A10,10,0,0,0,20.4,6.41a.65.65,0,0,0-1-.08,17.76,17.76,0,0,1-4.58,3.09.65.65,0,0,0-.32.86l.32.69A.64.64,0,0,0,15.53,11.35Z"/><path class="cls-1" d="M12.78,11.32l-.18-.39a.66.66,0,0,0-.78-.34,29.08,29.08,0,0,1-8.42,1.2H2.6a.65.65,0,0,0-.66.67,10.75,10.75,0,0,0,.27,2A10.18,10.18,0,0,0,3.83,17.9a.66.66,0,0,0,1.06,0,18.41,18.41,0,0,1,7.52-5.74A.65.65,0,0,0,12.78,11.32Z"/><path d="M16.08,14.09a41.63,41.63,0,0,1,1.47,5.16.66.66,0,0,0,1.07.37,10.11,10.11,0,0,0,3.19-5.24.67.67,0,0,0-.49-.78,14.51,14.51,0,0,0-4.67-.38A.66.66,0,0,0,16.08,14.09Z"/><path d="M13.21,14a15.83,15.83,0,0,0-7,5.46.64.64,0,0,0,.15.91,10.11,10.11,0,0,0,9,1.15.66.66,0,0,0,.42-.74A38.46,38.46,0,0,0,14,14.38.66.66,0,0,0,13.21,14Z"/></g></g></svg>