<svg xmlns="http://www.w3.org/2000/svg" viewBox="0 0 24 24"><defs><style>.cls-1{opacity:0.3;}</style></defs><g id="social-media"><g id="facebook"><rect class="cls-1" x="1.97" y="2" width="20.06" height="20" rx="5.96" transform="translate(-0.06 0.06) rotate(-0.31)"/><path d="M16,12H13.26V9.66a1.18,1.18,0,0,1,1.18-1.18h1.67a.5.5,0,0,0,.5-.5V6a.5.5,0,0,0-.5-.5H13.26A3.53,3.53,0,0,0,9.74,9.06v3H7.89a.5.5,0,0,0-.5.5v1.94a.5.5,0,0,0,.5.5H9.74V22l3.52,0V15h2a.5.5,0,0,0,.47-.32l.77-1.93A.5.5,0,0,0,16,12Z"/></g></g></svg>