<svg xmlns="http://www.w3.org/2000/svg" viewBox="0 0 24 24"><defs><style>.cls-1{opacity:0.3;}</style></defs><g id="social-media"><g id="snapchat"><path d="M17.28,14.92a4.16,4.16,0,0,1-1.9-1.7c-.43-.91-.39-1-.08-1.22s1.15-.62,1.14-1-.32-.49-.75-.34S15,11,15,10.6V9.31A2.75,2.75,0,0,0,12.2,6.56h-.43A2.75,2.75,0,0,0,9,9.31V10.8c0,.09-.06.12-.36,0s-.83-.35-1-.08,0,.56.41.83.88.52.88.71a2.41,2.41,0,0,1-.53,1.31,4,4,0,0,1-1.43,1.21c-.75.37-.4.47-.11.59a5.73,5.73,0,0,1,1.07.41c.14.13,0,.37.16.49s.53.12.72.14a2.94,2.94,0,0,1,1.68.55,2.75,2.75,0,0,0,3,.06,3.37,3.37,0,0,1,2.09-.62c.48,0,.43-.28.48-.42s.09-.35.71-.44S17.8,15.22,17.28,14.92Z"/><circle class="cls-1" cx="12" cy="12" r="10"/></g></g></svg>