<svg xmlns="http://www.w3.org/2000/svg" viewBox="0 0 24 24"><defs><style>.cls-1{opacity:0.3;}</style></defs><g id="social-media"><g id="social-media-2" data-name="social-media"><path d="M17.15,11.06A1.14,1.14,0,0,1,16,9.92V8a2,2,0,0,0-2-2H8A2,2,0,0,0,6,8v8a2,2,0,0,0,2,2h8a2,2,0,0,0,2-2v-4.1A.85.85,0,0,0,17.15,11.06ZM9.9,9.25H12a.75.75,0,0,1,0,1.5H9.9a.75.75,0,1,1,0-1.5Zm4,5.5H10a.75.75,0,0,1,0-1.5h3.94a.75.75,0,0,1,0,1.5Z"/><rect class="cls-1" x="1.97" y="2" width="20.06" height="20" rx="5.96" transform="translate(-0.06 0.06) rotate(-0.31)"/></g></g></svg>