<svg xmlns="http://www.w3.org/2000/svg" viewBox="0 0 24 24"><defs><style>.cls-1{opacity:0.3;}</style></defs><g id="social-media"><g id="tiktok"><g class="cls-1"><path d="M6.11,20.19l0,0A6.08,6.08,0,0,1,8.73,9.1a3.94,3.94,0,0,1,.52,0,1,1,0,0,1,1,.8h0a4,4,0,0,0-.53,0,6,6,0,0,0-4.44,2.86,6.12,6.12,0,0,0-.91,3.17A6,6,0,0,0,6.11,20.19ZM18.63,6.69a4.66,4.66,0,0,0,1.44.59,1.11,1.11,0,0,0-.85-.77,4.48,4.48,0,0,1-1.48-.58A4.59,4.59,0,0,0,18.63,6.69ZM9.16,18.4a2.79,2.79,0,0,0,4-2.47V3.8a1,1,0,0,1,1-1h1.3l.1,0A1.13,1.13,0,0,0,14.53,2h-1.3a1,1,0,0,0-1,1V15.13a2.78,2.78,0,0,1-2.78,2.76,2.7,2.7,0,0,1-1.24-.29A2.82,2.82,0,0,0,9.16,18.4ZM17.67,5.89l.07,0a4.65,4.65,0,0,1-1.15-2.19,1.11,1.11,0,0,0-1-.92s0,.07,0,.12A4.58,4.58,0,0,0,17.67,5.89Zm-7.38,5.47a1,1,0,0,1-.95,1,2.83,2.83,0,0,0-2.67,2.77A2.78,2.78,0,0,0,8.2,17.6h0a2.76,2.76,0,0,1-.58-1.68,2.83,2.83,0,0,1,2.67-2.77,1,1,0,0,0,1-1V10.87a1,1,0,0,0-1-1,.71.71,0,0,1,0,.2Zm9.89-4-.11,0a1.25,1.25,0,0,1,.05.29v1.3a1,1,0,0,1-1.07.94,7.69,7.69,0,0,1-3.51-1.39v6.49A6.23,6.23,0,0,1,10,21.18a6,6,0,0,1-3.87-1A5.34,5.34,0,0,0,7,21a6,6,0,0,0,3.9,1,6.22,6.22,0,0,0,5.56-6.27V9.22A7.73,7.73,0,0,0,20,10.61a.94.94,0,0,0,1.07-.94V8.37A1.08,1.08,0,0,0,20.18,7.31Z"/></g><path d="M15.54,14.91V8.42a7.69,7.69,0,0,0,3.51,1.39,1,1,0,0,0,1.07-.94V7.57a1.25,1.25,0,0,0-.05-.29,4.66,4.66,0,0,1-1.44-.59,4.59,4.59,0,0,1-.89-.76l-.07,0a4.58,4.58,0,0,1-2-2.95s0-.08,0-.12l-.1,0h-1.3a1,1,0,0,0-1,1V15.93a2.79,2.79,0,0,1-4,2.47,2.82,2.82,0,0,1-.95-.8h0a2.78,2.78,0,0,1-1.53-2.48,2.83,2.83,0,0,1,2.67-2.77,1,1,0,0,0,.95-1V10.07a.71.71,0,0,0,0-.2h0a4,4,0,0,0-.53,0,6,6,0,0,0-4.44,2.86,6.12,6.12,0,0,0-.91,3.17,6,6,0,0,0,1.77,4.26,6,6,0,0,0,3.87,1A6.23,6.23,0,0,0,15.54,14.91Z"/></g></g></svg>