<svg xmlns="http://www.w3.org/2000/svg" viewBox="0 0 24 24"><g id="business"><path id="chart-simple" d="M20.78,22.75H3.22a.76.76,0,0,1,0-1.52H20.78a.76.76,0,0,1,0,1.52Zm-2.49-3h-1a1.93,1.93,0,0,1-1.91-1.94V7.51a1.93,1.93,0,0,1,1.91-1.94h1A1.93,1.93,0,0,1,20.2,7.51V17.77A1.93,1.93,0,0,1,18.29,19.71Zm-1-12.62a.42.42,0,0,0-.41.42V17.77a.41.41,0,0,0,.41.41h1a.41.41,0,0,0,.41-.41V7.51a.41.41,0,0,0-.41-.42ZM11.92,19.71h-.77a2.05,2.05,0,0,1-2-2.06V3.41a2,2,0,0,1,2-2.06h.77a2,2,0,0,1,2,2.06V17.65A2,2,0,0,1,11.92,19.71ZM11.15,2.88a.53.53,0,0,0-.53.53V17.65a.53.53,0,0,0,.53.53h.77a.52.52,0,0,0,.52-.53V3.41a.52.52,0,0,0-.52-.53ZM6,19.71H5a1.92,1.92,0,0,1-1.9-1.94V12.36A1.92,1.92,0,0,1,5,10.42H6a1.92,1.92,0,0,1,1.91,1.94v5.41A1.92,1.92,0,0,1,6,19.71ZM5,12a.4.4,0,0,0-.4.41v5.41a.4.4,0,0,0,.4.41H6a.41.41,0,0,0,.41-.41V12.36A.41.41,0,0,0,6,12Z"/></g></svg>