<svg xmlns="http://www.w3.org/2000/svg" viewBox="0 0 24 24"><g id="business"><path id="chart-pie-3" d="M15.31,22.38a2,2,0,0,1-2-2V15.94A2.92,2.92,0,0,1,16.21,13h4.41a2,2,0,0,1,1.57.74,2,2,0,0,1,.42,1.68,8.76,8.76,0,0,1-2.4,4.5,8.62,8.62,0,0,1-4.5,2.4A1.75,1.75,0,0,1,15.31,22.38Zm.9-7.93a1.49,1.49,0,0,0-1.49,1.49v4.42a.61.61,0,0,0,.22.46.63.63,0,0,0,.49.12,7.33,7.33,0,0,0,5.78-5.78.61.61,0,0,0-.59-.71ZM9.8,22.33a2.71,2.71,0,0,1-.41,0,9.91,9.91,0,0,1,0-19.46,2.21,2.21,0,0,1,1.8.46A2.19,2.19,0,0,1,12,5V20.17a2.17,2.17,0,0,1-.78,1.66A2.23,2.23,0,0,1,9.8,22.33Zm0-18.1H9.65a8.47,8.47,0,0,0,0,16.64.75.75,0,0,0,.62-.15.74.74,0,0,0,.27-.56V5a.7.7,0,0,0-.27-.55A.68.68,0,0,0,9.8,4.23Zm10.82,7.65H16.21A2.92,2.92,0,0,1,13.29,9V4.55a2,2,0,0,1,2.42-2,8.76,8.76,0,0,1,6.9,6.9,2,2,0,0,1-.42,1.68A2,2,0,0,1,20.62,11.88ZM15.31,4a.58.58,0,0,0-.37.14.57.57,0,0,0-.22.46V9a1.49,1.49,0,0,0,1.49,1.49h4.41a.57.57,0,0,0,.46-.22.56.56,0,0,0,.13-.49A7.36,7.36,0,0,0,19.2,6a7.43,7.43,0,0,0-3.77-2Z"/></g></svg>