<svg xmlns="http://www.w3.org/2000/svg" viewBox="0 0 24 24"><g id="business"><path id="chart" d="M12,22.7a10.74,10.74,0,0,1-7.74-3.27,1.93,1.93,0,0,1-.52-1.61,2,2,0,0,1,1-1.45l1.64-1a1.61,1.61,0,0,1,1.93.22,5.29,5.29,0,0,0,7.42,0,1.61,1.61,0,0,1,1.93-.22l1.64,1a2,2,0,0,1,1,1.45,1.93,1.93,0,0,1-.52,1.61A10.74,10.74,0,0,1,12,22.7Zm-4.82-6a.1.1,0,0,0-.07,0l-1.64.94a.49.49,0,0,0-.25.37.41.41,0,0,0,.11.35,9.3,9.3,0,0,0,13.34,0,.41.41,0,0,0,.11-.35.49.49,0,0,0-.25-.37l-1.64-.94a.12.12,0,0,0-.13,0,6.78,6.78,0,0,1-9.52,0Zm13.35-.52a2,2,0,0,1-1-.26L17.9,15a1.63,1.63,0,0,1-.77-1.8,5.27,5.27,0,0,0-3.72-6.41A1.69,1.69,0,0,1,12.26,5V3.29A2,2,0,0,1,13,1.71a1.92,1.92,0,0,1,1.65-.35,10.82,10.82,0,0,1,8.15,10.5,10.94,10.94,0,0,1-.38,2.85A2,2,0,0,1,21.28,16,2,2,0,0,1,20.53,16.18ZM14.21,2.8a.42.42,0,0,0-.26.1.48.48,0,0,0-.19.39V5a.74.74,0,0,0,.06.34,6.79,6.79,0,0,1,5,6.54,6.48,6.48,0,0,1-.22,1.69.12.12,0,0,0,.07.12l1.64.95a.49.49,0,0,0,.42,0,.5.5,0,0,0,.29-.33,9.33,9.33,0,0,0-6.69-11.5ZM3.47,16.18A2,2,0,0,1,2.72,16a2,2,0,0,1-1.17-1.33,10.94,10.94,0,0,1-.38-2.85A10.82,10.82,0,0,1,9.32,1.36,2,2,0,0,1,11,1.71a2,2,0,0,1,.77,1.58V5.2a1.61,1.61,0,0,1-1.15,1.56,5.27,5.27,0,0,0-3.72,6.41A1.62,1.62,0,0,1,6.1,15l-1.64.95A2,2,0,0,1,3.47,16.18ZM9.79,2.8l-.1,0A9.33,9.33,0,0,0,3,14.32a.5.5,0,0,0,.29.33.49.49,0,0,0,.42,0l1.64-.95a.12.12,0,0,0,.07-.12,6.43,6.43,0,0,1-.22-1.69,6.82,6.82,0,0,1,5-6.55s.05,0,.05-.11V3.29a.49.49,0,0,0-.19-.39A.42.42,0,0,0,9.79,2.8Z"/></g></svg>