<svg xmlns="http://www.w3.org/2000/svg" viewBox="0 0 24 24"><g id="business"><path id="chart-simple-3" d="M20.78,22.87H3.22a.75.75,0,1,1,0-1.5H20.78a.75.75,0,0,1,0,1.5Zm-8.76-3h-.95A1.94,1.94,0,0,1,9.14,18V7.39a1.93,1.93,0,0,1,1.93-1.93H12A1.93,1.93,0,0,1,14,7.39V18A1.94,1.94,0,0,1,12,19.89ZM11.07,7a.43.43,0,0,0-.43.43V18a.43.43,0,0,0,.43.43H12a.44.44,0,0,0,.44-.43V7.39A.44.44,0,0,0,12,7ZM6.25,19.89H5.53a2.05,2.05,0,0,1-2.05-2.05V3.18A2.05,2.05,0,0,1,5.53,1.13h.72A2.05,2.05,0,0,1,8.3,3.18V17.84A2.05,2.05,0,0,1,6.25,19.89ZM5.53,2.63A.55.55,0,0,0,5,3.18V17.84a.55.55,0,0,0,.55.55h.72a.55.55,0,0,0,.55-.55V3.18a.55.55,0,0,0-.55-.55ZM17.67,19.89h-1A1.94,1.94,0,0,1,14.79,18v-5.6a1.94,1.94,0,0,1,1.93-1.93h1a1.94,1.94,0,0,1,1.94,1.93V18A1.94,1.94,0,0,1,17.67,19.89Zm-1-8a.43.43,0,0,0-.43.43V18a.43.43,0,0,0,.43.43h1a.44.44,0,0,0,.44-.43v-5.6a.44.44,0,0,0-.44-.43Z"/></g></svg>