<svg xmlns="http://www.w3.org/2000/svg" viewBox="0 0 24 24"><g id="business"><g id="chart-line-star"><path d="M22.91,17.16a2.39,2.39,0,0,0-2-1.68h-.37l-.09-.2a2.62,2.62,0,0,0-2.31-1.59h-.06a2.48,2.48,0,0,0-2.26,1.52l-.09.2h-.36a2.41,2.41,0,0,0-2,1.69,2.52,2.52,0,0,0,.69,2.6l.28.25-.11.43a2.47,2.47,0,0,0,.48,2,2.37,2.37,0,0,0,1.92,1A2.28,2.28,0,0,0,17.85,23l.32-.19.32.19a2.31,2.31,0,0,0,1.2.33,2.34,2.34,0,0,0,1.82-1,2.48,2.48,0,0,0,.47-2V20l.27-.25A2.5,2.5,0,0,0,22.91,17.16ZM21.2,18.62l-.53.49a1,1,0,0,0-.28.89l.15.71a.93.93,0,0,1-.69,1.11h-.2a.94.94,0,0,1-.46-.13l-.61-.36a.94.94,0,0,0-.92,0l-.61.37a.84.84,0,0,1-.46.13.93.93,0,0,1-.91-.95h0v-.17l.15-.72a.93.93,0,0,0-.28-.88L15,18.62a1,1,0,0,1-.08-1.33l0,0a.9.9,0,0,1,.55-.29l.71-.08a.88.88,0,0,0,.74-.55l.22-.52a1,1,0,0,1,.89-.6h0a1,1,0,0,1,.9.6l.22.51a.87.87,0,0,0,.73.6l.71.07a.94.94,0,0,1,.81,1.05A1,1,0,0,1,21.2,18.62Z"/><path d="M16.13,8.38a.76.76,0,0,0-.55.24L13,11.51h-.15l-1.55-1.27a1.57,1.57,0,0,0-2.15.14L6.73,12.93a.77.77,0,0,0,0,1.09h0a.67.67,0,0,0,1.06-.09l2.39-2.51h.14l1.55,1.31A1.6,1.6,0,0,0,14,12.56l2.62-2.9a.78.78,0,0,0,0-1.08.7.7,0,0,0-.5-.2Z"/><path d="M8.94,22.14H7.38A6.41,6.41,0,0,1,1,15.73V7A6.41,6.41,0,0,1,7.38.62h8.7A6.42,6.42,0,0,1,22.49,7v3.21a.75.75,0,0,1-1.5,0V7a4.91,4.91,0,0,0-4.91-4.91H7.38A4.91,4.91,0,0,0,2.47,7v8.7a4.91,4.91,0,0,0,4.91,4.91H8.94a.75.75,0,0,1,0,1.5Z"/></g></g></svg>