<svg xmlns="http://www.w3.org/2000/svg" viewBox="0 0 24 24"><g id="business"><path id="chart-pie-too" d="M15.32,2.75a.57.57,0,0,1,.18,0,7.74,7.74,0,0,1,5.82,7.33,7.76,7.76,0,0,1-5.82,7.34l-.18,0a.57.57,0,0,1-.6-.5V3.25a.57.57,0,0,1,.6-.5M8.69,6.53a.56.56,0,0,1,.59.5V20.75a.6.6,0,0,1-.78.47,7.74,7.74,0,0,1-5.82-7.33A7.76,7.76,0,0,1,8.5,6.55l.19,0m6.63-5.28a2.06,2.06,0,0,0-2.1,2V17a2.06,2.06,0,0,0,2.1,2,2,2,0,0,0,.58-.08,9.22,9.22,0,0,0,6.92-8.78A9.22,9.22,0,0,0,15.9,1.33a2.38,2.38,0,0,0-.58-.08ZM8.68,5a2,2,0,0,0-.58.08,9.22,9.22,0,0,0-6.92,8.78A9.22,9.22,0,0,0,8.1,22.67a2.38,2.38,0,0,0,.58.08,2.06,2.06,0,0,0,2.1-2V7a2.06,2.06,0,0,0-2.1-2Z"/></g></svg>