<svg xmlns="http://www.w3.org/2000/svg" viewBox="0 0 24 24"><g id="business"><path id="chart-line" d="M13.11,12.23s0,0-.06,0L11.6,11a1.43,1.43,0,0,0-.93-.34,1.49,1.49,0,0,0-1.07.46L7.36,13.5a.71.71,0,0,0,0,1,.67.67,0,0,0,.49.21.72.72,0,0,0,.5-.22l2.24-2.33a.09.09,0,0,1,.07,0l.06,0,1.44,1.17a1.46,1.46,0,0,0,.94.33,1.5,1.5,0,0,0,1.1-.48l2.45-2.68a.72.72,0,0,0,0-1,.69.69,0,0,0-.48-.2.71.71,0,0,0-.51.23L13.18,12.2a.09.09,0,0,1-.07,0"/><path d="M16.18,2.75a5.07,5.07,0,0,1,5.07,5.07v8.36a5.07,5.07,0,0,1-5.07,5.07H7.82a5.07,5.07,0,0,1-5.07-5.07V7.82A5.07,5.07,0,0,1,7.82,2.75h8.36m0-1.5H7.82A6.57,6.57,0,0,0,1.25,7.82v8.36a6.57,6.57,0,0,0,6.57,6.57h8.36a6.57,6.57,0,0,0,6.57-6.57V7.82a6.57,6.57,0,0,0-6.57-6.57Z"/></g></svg>