<svg xmlns="http://www.w3.org/2000/svg" viewBox="0 0 24 24"><g id="business"><path id="chart-simple-2" d="M20.78,22.75H3.22a.76.76,0,0,1,0-1.52H20.78a.76.76,0,0,1,0,1.52ZM12,19.7H11a1.93,1.93,0,0,1-1.91-1.94V7.48A1.93,1.93,0,0,1,11,5.54h1a1.93,1.93,0,0,1,1.91,1.94V17.76A1.93,1.93,0,0,1,12,19.7ZM11,7.07a.42.42,0,0,0-.41.41V17.76a.42.42,0,0,0,.41.42h1a.41.41,0,0,0,.41-.42V7.48A.41.41,0,0,0,12,7.07ZM18,19.7h-.77a2,2,0,0,1-2-2.06V3.38a2,2,0,0,1,2-2.06H18a2,2,0,0,1,2,2.06V17.64A2,2,0,0,1,18,19.7ZM17.25,2.84a.53.53,0,0,0-.52.54V17.64a.53.53,0,0,0,.52.54H18a.53.53,0,0,0,.52-.54V3.38A.53.53,0,0,0,18,2.84ZM6,19.7H5a1.92,1.92,0,0,1-1.91-1.94V12.34A1.92,1.92,0,0,1,5,10.4H6a1.92,1.92,0,0,1,1.91,1.94v5.42A1.92,1.92,0,0,1,6,19.7ZM5,11.93a.41.41,0,0,0-.41.41v5.42a.41.41,0,0,0,.41.42H6a.41.41,0,0,0,.41-.42V12.34A.41.41,0,0,0,6,11.93Z"/></g></svg>