<svg xmlns="http://www.w3.org/2000/svg" viewBox="0 0 24 24"><g id="business"><path id="chart-pie-simple" d="M11.05,22.64A9.69,9.69,0,0,1,9,3.49a.75.75,0,0,1,.89.57A.74.74,0,0,1,9.28,5a8.19,8.19,0,1,0,9.79,9.65.75.75,0,0,1,1.47.3A9.73,9.73,0,0,1,11.05,22.64ZM20.3,11.7H15.81A3.51,3.51,0,0,1,12.3,8.19V3.7a2.33,2.33,0,0,1,.87-1.82,2.26,2.26,0,0,1,1.92-.46,9.68,9.68,0,0,1,7.49,7.49,2.26,2.26,0,0,1-.46,1.92A2.33,2.33,0,0,1,20.3,11.7ZM14.61,2.86a.83.83,0,0,0-.5.18.88.88,0,0,0-.31.66V8.19a2,2,0,0,0,2,2H20.3A.88.88,0,0,0,21,9.89a.79.79,0,0,0,.16-.67,8.3,8.3,0,0,0-6.34-6.34Z"/></g></svg>