<svg xmlns="http://www.w3.org/2000/svg" viewBox="0 0 24 24"><g id="business"><path id="graph-4" d="M21.78,22.64H7.59A6.35,6.35,0,0,1,1.25,16.3V2.06a.81.81,0,0,1,1.62,0V16.3A4.73,4.73,0,0,0,7.59,21H21.78a.81.81,0,0,1,0,1.62Zm.12-4v-7a.82.82,0,0,0-1.63,0v7a.82.82,0,0,0,1.63,0ZM9.64,12.07,14,7.68a5.9,5.9,0,0,1,4.2-1.74,2,2,0,0,1,2,2A.82.82,0,0,0,21.9,8a3.67,3.67,0,0,0-3.67-3.66,7.47,7.47,0,0,0-5.34,2.21l-4.4,4.39a2.59,2.59,0,0,1-2.56.66l-.11,0a.81.81,0,0,0-.44,1.56l.11,0a4.17,4.17,0,0,0,1.16.17A4.23,4.23,0,0,0,9.64,12.07Z"/></g></svg>