<svg xmlns="http://www.w3.org/2000/svg" viewBox="0 0 24 24"><g id="business"><path d="M12,16.88a.7.7,0,0,0,.7-.71V7.83a.7.7,0,1,0-1.4,0v8.34a.7.7,0,0,0,.7.71"/><path d="M17.18,14.41a.71.71,0,0,0,.7-.72V10.3a.7.7,0,1,0-1.4,0v3.39a.71.71,0,0,0,.7.72"/><path d="M6.76,14.41a.71.71,0,0,0,.7-.72V10.3a.7.7,0,1,0-1.4,0v3.39a.71.71,0,0,0,.7.72"/><path d="M16.18,2.75a5.07,5.07,0,0,1,5.07,5.07v8.36a5.07,5.07,0,0,1-5.07,5.07H7.82a5.07,5.07,0,0,1-5.07-5.07V7.82A5.07,5.07,0,0,1,7.82,2.75h8.36m0-1.5H7.82A6.57,6.57,0,0,0,1.25,7.82v8.36a6.57,6.57,0,0,0,6.57,6.57h8.36a6.57,6.57,0,0,0,6.57-6.57V7.82a6.57,6.57,0,0,0-6.57-6.57Z"/></g></svg>