<?xml version="1.0" encoding="UTF-8" standalone="no"?>
<!-- Created with Inkscape (http://www.inkscape.org/) -->

<svg
   width="5in"
   height="5in"
   viewBox="0 0 127 127"
   version="1.1"
   id="svg6020"
   inkscape:version="1.2.1 (9c6d41e410, 2022-07-14)"
   sodipodi:docname="logo.svg"
   inkscape:export-filename="logo.png"
   inkscape:export-xdpi="96"
   inkscape:export-ydpi="96"
   xmlns:inkscape="http://www.inkscape.org/namespaces/inkscape"
   xmlns:sodipodi="http://sodipodi.sourceforge.net/DTD/sodipodi-0.dtd"
   xmlns:xlink="http://www.w3.org/1999/xlink"
   xmlns="http://www.w3.org/2000/svg"
   xmlns:svg="http://www.w3.org/2000/svg"
   xmlns:rdf="http://www.w3.org/1999/02/22-rdf-syntax-ns#"
   xmlns:cc="http://creativecommons.org/ns#"
   xmlns:dc="http://purl.org/dc/elements/1.1/">
  <defs
     id="defs6014">
    <path
       style="fill:none;stroke:#000000;stroke-width:0.09;stroke-linejoin:miter;stroke-miterlimit:4;stroke-opacity:1"
       d="m 267.34693,396.12244 c 0,-21.03942 -17.05582,-38.09524 -38.09524,-38.09524 -21.03942,0 -38.09523,17.05582 -38.09523,38.09524 0,21.03942 17.05581,38.09523 38.09523,38.09523 21.03942,0 38.09524,-17.05581 38.09524,-38.09523 z"
       id="path5921"
       transform="matrix(2.0965604,0,0,2.0965604,48.277076,-418.39129)"
       inkscape:connector-curvature="0" />
  </defs>
  <sodipodi:namedview
     id="base"
     pagecolor="#ffffff"
     bordercolor="#666666"
     borderopacity="1.0"
     inkscape:pageopacity="0.0"
     inkscape:pageshadow="2"
     inkscape:zoom="1.1292969"
     inkscape:cx="92.978206"
     inkscape:cy="209.86509"
     inkscape:document-units="in"
     inkscape:current-layer="layer1"
     showgrid="false"
     inkscape:measure-start="0,0"
     inkscape:measure-end="0,0"
     units="in"
     fit-margin-top="0"
     fit-margin-left="0"
     fit-margin-right="0"
     fit-margin-bottom="0"
     inkscape:window-width="1920"
     inkscape:window-height="1009"
     inkscape:window-x="1912"
     inkscape:window-y="111"
     inkscape:window-maximized="1"
     inkscape:showpageshadow="2"
     inkscape:pagecheckerboard="0"
     inkscape:deskcolor="#d1d1d1"
     showguides="true">
    <sodipodi:guide
       position="0,127"
       orientation="0,480"
       id="guide184"
       inkscape:locked="false" />
    <sodipodi:guide
       position="127,127"
       orientation="480,0"
       id="guide186"
       inkscape:locked="false" />
    <sodipodi:guide
       position="127,0"
       orientation="0,-480"
       id="guide188"
       inkscape:locked="false" />
    <sodipodi:guide
       position="0,0"
       orientation="-480,0"
       id="guide190"
       inkscape:locked="false" />
    <sodipodi:guide
       position="0,120.65"
       orientation="0,1"
       id="guide192"
       inkscape:locked="false"
       inkscape:label=""
       inkscape:color="rgb(98,160,234)" />
  </sodipodi:namedview>
  <metadata
     id="metadata6017">
    <rdf:RDF>
      <cc:Work
         rdf:about="">
        <dc:format>image/svg+xml</dc:format>
        <dc:type
           rdf:resource="http://purl.org/dc/dcmitype/StillImage" />
      </cc:Work>
    </rdf:RDF>
  </metadata>
  <g
     inkscape:label="Layer 1"
     inkscape:groupmode="layer"
     id="layer1"
     transform="translate(-66.812353,-40.00175)">
    <g
       id="g182"
       transform="matrix(0.97338742,0,0,0.97338742,12.739463,2.500964)">
      <path
         inkscape:export-ydpi="34.419998"
         inkscape:export-xdpi="34.419998"
         inkscape:export-filename="C:\Users\jplarose\Dropbox\Larose Karate\LaroseKarateLogo-80.png"
         style="display:inline;fill:#ffcc00;stroke:#000000;stroke-width:1.68419;stroke-linejoin:miter;stroke-miterlimit:4;stroke-dasharray:none"
         d="m 74.004444,93.976749 c 0,0 5.150334,-2.199452 5.150334,-8.281236 0,-6.081784 4.894059,-6.936369 4.894059,-6.936369 0,0 -2.856378,-4.064924 1.444096,-8.365399 4.300477,-4.300474 2.213864,-9.497547 2.213864,-9.497547 0,0 5.197073,2.086567 9.497547,-2.213864 4.300476,-4.300474 8.365396,-1.444096 8.365396,-1.444096 0,0 0.85459,-4.894059 6.93637,-4.894059 6.08179,0 8.28124,-5.150334 8.28124,-5.150334 0,0 2.19945,5.150334 8.28124,5.150334 6.08178,0 6.93636,4.894059 6.93636,4.894059 0,0 4.06493,-2.856378 8.3654,1.444096 4.30048,4.300476 9.49755,2.213864 9.49755,2.213864 0,0 -2.08656,5.197073 2.21387,9.497547 4.30047,4.300475 1.44409,8.365399 1.44409,8.365399 0,0 4.89406,0.854585 4.89406,6.936369 0,6.081784 5.15034,8.281236 5.15034,8.281236 0,0 -5.15034,2.199458 -5.15034,8.281231 0,6.08178 -4.89406,6.93637 -4.89406,6.93637 0,0 2.85638,4.06492 -1.44409,8.3654 -4.30048,4.30047 -2.21387,9.49755 -2.21387,9.49755 0,0 -5.19707,-2.08657 -9.49755,2.21386 -4.30047,4.30048 -8.3654,1.44409 -8.3654,1.44409 0,0 -0.85458,4.89406 -6.93636,4.89406 -6.08179,0 -8.28124,5.15034 -8.28124,5.15034 0,0 -2.19945,-5.15034 -8.28124,-5.15034 -6.08178,0 -6.93637,-4.89406 -6.93637,-4.89406 0,0 -4.06492,2.85639 -8.365396,-1.44409 -4.300474,-4.30048 -9.497547,-2.21386 -9.497547,-2.21386 0,0 2.086568,-5.19708 -2.213864,-9.49755 -4.300474,-4.30048 -1.444096,-8.3654 -1.444096,-8.3654 0,0 -4.894059,-0.85459 -4.894059,-6.93637 0,-6.081773 -5.150334,-8.281231 -5.150334,-8.281231 z"
         id="path2288"
         inkscape:connector-curvature="0"
         sodipodi:nodetypes="ccccccccccccccccccccccccccccccccc" />
      <path
         style="display:inline;fill:#ffffff;fill-opacity:1;stroke:#000000;stroke-width:0.529167;stroke-miterlimit:4;stroke-dasharray:none;stroke-opacity:1"
         d="m 120.77282,56.424522 c -2.31985,0.0049 -4.62931,0.309955 -6.8709,0.907439 -16.77534,17.414179 14.67933,35.844712 17.52503,6.219259 13.09427,5.620758 14.75259,17.904065 15.41663,26.265062 0.47463,-2.234078 0.81035,-4.541316 0.82941,-6.491594 -2e-5,-14.856544 -12.04363,-26.900147 -26.90017,-26.900166 z m 26.07076,33.39176 -0.001,0.0041 c 0.003,0.01106 -5e-5,2.01e-4 0.001,-0.0042 z m -0.001,0.0041 c -6.61498,-23.42937 -38.16799,-4.686952 -13.88955,12.620438 -11.30716,8.45062 -22.88757,4.15365 -30.46429,0.56896 4.95782,4.5812 11.53383,7.20279 18.28418,7.21507 12.34175,-0.0158 23.08949,-8.42791 26.06973,-20.404432 z m -44.35394,13.189398 c 23.44861,5.79249 23.15909,-30.94056 -3.912936,-18.59421 -1.667228,-14.043849 8.420856,-22.310822 15.326216,-27.083609 -11.7648,3.143647 -20.023757,13.815161 -20.029286,25.992719 0.01273,7.473693 3.134143,14.605203 8.616006,19.6851 z"
         id="circle2290"
         inkscape:connector-curvature="0"
         sodipodi:nodetypes="ccccccccccccccccccccc" />
      <g
         transform="matrix(0.26458333,0,0,0.26458333,19.584224,22.010086)"
         id="g2320"
         style="display:inline;stroke:#000000;stroke-width:2;stroke-miterlimit:4;stroke-dasharray:none;stroke-opacity:1">
        <text
           xml:space="preserve"
           style="font-style:normal;font-variant:normal;font-weight:900;font-stretch:normal;font-size:19.0406px;line-height:0%;font-family:'Arial Black';-inkscape-font-specification:'Arial Black, Heavy';font-variant-ligatures:normal;font-variant-caps:normal;font-variant-numeric:normal;font-feature-settings:normal;text-align:start;letter-spacing:0px;word-spacing:0px;writing-mode:lr-tb;text-anchor:start;fill:#000000;fill-opacity:1;stroke:#ffffff;stroke-width:1.16203477;stroke-miterlimit:4;stroke-dasharray:none;stroke-opacity:1;paint-order:markers stroke fill"
           id="text2302"
           inkscape:export-filename="C:\Users\jplarose\Dropbox\Larose Karate\LaroseKarateLogo-80.png"
           inkscape:export-xdpi="34.419998"
           inkscape:export-ydpi="34.419998"
           transform="matrix(-1.3958844,1.0853332,-1.0853332,-1.3958844,1565.9053,266.30219)"><textPath
             xlink:href="#path5921"
             id="textPath2300">Budo Systems</textPath></text>
        <g
           id="g2314"
           transform="matrix(1.4609667,0,0,1.4609667,215.82221,-793.79163)"
           inkscape:export-filename="C:\Users\jplarose\Dropbox\Larose Karate\LaroseKarateLogo-80.png"
           inkscape:export-xdpi="34.419998"
           inkscape:export-ydpi="34.419998"
           style="stroke:#000000;stroke-width:1.36896;stroke-miterlimit:4;stroke-dasharray:none;stroke-opacity:1">
          <g
             id="g2312"
             style="stroke:#000000;stroke-width:1.36896;stroke-miterlimit:4;stroke-dasharray:none;stroke-opacity:1">
            <g
               id="g2310"
               style="stroke:#000000;stroke-width:1.36896;stroke-miterlimit:4;stroke-dasharray:none;stroke-opacity:1" />
          </g>
        </g>
      </g>
    </g>
    <text
       xml:space="preserve"
       style="font-style:normal;font-variant:normal;font-weight:bold;font-stretch:normal;font-size:25.7181px;font-family:'Arial Black';-inkscape-font-specification:'Arial Black, Bold';font-variant-ligatures:normal;font-variant-caps:normal;font-variant-numeric:normal;font-variant-east-asian:normal;fill:#000000;stroke-width:1.05833333;stroke:#ffffff;stroke-opacity:1;stroke-dasharray:none;paint-order:markers stroke fill"
       x="97.034538"
       y="160.32523"
       id="text248"><tspan
         sodipodi:role="line"
         id="tspan246"
         style="font-style:normal;font-variant:normal;font-weight:bold;font-stretch:normal;font-size:25.7181px;font-family:'Arial Black';-inkscape-font-specification:'Arial Black, Bold';font-variant-ligatures:normal;font-variant-caps:normal;font-variant-numeric:normal;font-variant-east-asian:normal;stroke-width:1.05833333;stroke:#ffffff;stroke-opacity:1;stroke-dasharray:none;paint-order:markers stroke fill"
         x="97.034538"
         y="160.32523">Core</tspan></text>
  </g>
</svg>
