<svg xmlns="http://www.w3.org/2000/svg" viewBox="0 0 24 24"><defs><style>.cls-1{opacity:0.3;}</style></defs><g id="security"><g id="check"><path d="M14.64,21.94a.74.74,0,0,1-.75-.75V2.81a.75.75,0,1,1,1.5,0V21.19A.75.75,0,0,1,14.64,21.94Z"/><path class="cls-1" d="M12.53,4.16H6a4,4,0,0,0-4,4v8.33a4,4,0,0,0,4,4h6.49Z"/><path class="cls-1" d="M18,4.16H14V20.57H18a4,4,0,0,0,4-4V8.2A4,4,0,0,0,18,4.16Z"/><path d="M7.15,16.71A.76.76,0,0,1,6.4,16V8A.75.75,0,1,1,7.9,8V16A.76.76,0,0,1,7.15,16.71Z"/></g></g></svg>