<svg xmlns="http://www.w3.org/2000/svg" viewBox="0 0 24 24"><defs><style>.cls-1{opacity:0.3;}</style></defs><g id="security"><g id="key-square"><rect class="cls-1" x="2" y="2" width="19.99" height="19.99" rx="5.16"/><path d="M13.46,6.15a4.41,4.41,0,0,0-4.41,4.4,4.51,4.51,0,0,0,.21,1.33l-2.9,2.9a.79.79,0,0,0-.21.69l.29,1.47a.77.77,0,0,0,.6.61l1.49.29a.75.75,0,0,0,.68-.21l.88-.88-1.26-1.2a.45.45,0,0,1,0-.63.44.44,0,0,1,.62,0l1.27,1.22,1.4-1.39a4.29,4.29,0,0,0,1.35.21,4.4,4.4,0,0,0,0-8.8ZM13.57,12A1.38,1.38,0,1,1,15,10.63,1.37,1.37,0,0,1,13.57,12Z"/></g></g></svg>