<svg xmlns="http://www.w3.org/2000/svg" viewBox="0 0 24 24"><defs><style>.cls-1{opacity:0.3;}</style></defs><g id="security"><g id="lock"><path class="cls-1" d="M17.53,13.61a.76.76,0,0,1-.75-.75V7.42a3.93,3.93,0,0,0-3.93-3.93h-1.7A3.93,3.93,0,0,0,7.22,7.42v5.44a.75.75,0,0,1-1.5,0V7.42A5.44,5.44,0,0,1,11.15,2h1.7a5.44,5.44,0,0,1,5.43,5.43v5.44A.75.75,0,0,1,17.53,13.61Z"/><circle cx="12" cy="15.73" r="1.63"/><path d="M18.09,9.45H5.91A3.91,3.91,0,0,0,2,13.36V18.1A3.91,3.91,0,0,0,5.91,22H18.09A3.91,3.91,0,0,0,22,18.1V13.36A3.91,3.91,0,0,0,18.09,9.45ZM12,18.86a3.13,3.13,0,1,1,3.13-3.13A3.13,3.13,0,0,1,12,18.86Z"/></g></g></svg>