<svg xmlns="http://www.w3.org/2000/svg" viewBox="0 0 24 24"><defs><style>.cls-1{opacity:0.3;}</style></defs><g id="security"><g id="lock-3"><circle class="cls-1" cx="12" cy="12" r="10"/><path d="M14.93,13a.75.75,0,0,1-.75-.75V9.38a1.74,1.74,0,0,0-1.73-1.73h-.9A1.74,1.74,0,0,0,9.82,9.38v2.88a.75.75,0,0,1-1.5,0V9.38a3.23,3.23,0,0,1,3.23-3.23h.9a3.23,3.23,0,0,1,3.23,3.23v2.88A.76.76,0,0,1,14.93,13Z"/><path d="M15.22,10.45H8.78a2.07,2.07,0,0,0-2.07,2.07V15A2.07,2.07,0,0,0,8.78,17.1h6.44A2.07,2.07,0,0,0,17.29,15V12.52A2.07,2.07,0,0,0,15.22,10.45ZM12,14.84a1.07,1.07,0,1,1,1.06-1.06A1.06,1.06,0,0,1,12,14.84Z"/></g></g></svg>