<svg xmlns="http://www.w3.org/2000/svg" viewBox="0 0 24 24"><defs><style>.cls-1{opacity:0.3;}</style></defs><g id="security"><g id="scan-barcode"><rect x="5.25" y="5.25" width="5.5" height="5.5" rx="1.46"/><rect class="cls-1" x="13.25" y="5.25" width="5.5" height="5.5" rx="1.46"/><rect class="cls-1" x="5.25" y="13.25" width="5.5" height="5.5" rx="1.46"/><rect x="13.25" y="13.25" width="5.5" height="5.5" rx="1.46"/><path class="cls-1" d="M1.93,9.75A.76.76,0,0,1,1.18,9V6.25A5.07,5.07,0,0,1,6.25,1.18H8.56a.75.75,0,0,1,0,1.5H6.25A3.57,3.57,0,0,0,2.68,6.25V9A.76.76,0,0,1,1.93,9.75Z"/><path d="M22.07,9.75A.76.76,0,0,1,21.32,9V6.25a3.57,3.57,0,0,0-3.56-3.57H14.57a.75.75,0,1,1,0-1.5h3.19a5.07,5.07,0,0,1,5.06,5.07V9A.76.76,0,0,1,22.07,9.75Z"/><path d="M8.56,22.82H6.25a5.07,5.07,0,0,1-5.07-5.06V15a.75.75,0,0,1,1.5,0v2.76a3.57,3.57,0,0,0,3.57,3.56H8.56a.75.75,0,1,1,0,1.5Z"/><path class="cls-1" d="M17.76,22.82H14.57a.75.75,0,0,1,0-1.5h3.19a3.57,3.57,0,0,0,3.56-3.56V15a.75.75,0,0,1,1.5,0v2.76A5.07,5.07,0,0,1,17.76,22.82Z"/></g></g></svg>