<svg xmlns="http://www.w3.org/2000/svg" viewBox="0 0 24 24"><defs><style>.cls-1{opacity:0.3;}</style></defs><g id="security"><g id="security-user"><path class="cls-1" d="M9.85,21.23,5.26,17.48A3.39,3.39,0,0,1,4,14.85V7.5A3.39,3.39,0,0,1,6,4.41l4.6-2.1a3.39,3.39,0,0,1,2.82,0L18,4.41A3.39,3.39,0,0,1,20,7.5v7.35a3.39,3.39,0,0,1-1.25,2.63l-4.59,3.75A3.38,3.38,0,0,1,9.85,21.23Z"/><path id="profile-2user" d="M14.52,9.18A2.52,2.52,0,1,1,12,6.67,2.52,2.52,0,0,1,14.52,9.18ZM12,12.32c-2.07,0-3.74,1.12-3.74,2.5S9.93,17.33,12,17.33s3.74-1.12,3.74-2.51S14.07,12.32,12,12.32Z"/></g></g></svg>