<svg xmlns="http://www.w3.org/2000/svg" viewBox="0 0 24 24"><defs><style>.cls-1{opacity:0.3;}</style></defs><g id="security"><g id="shield-slash"><path d="M3.32,21.59a.73.73,0,0,1-.53-.22.75.75,0,0,1,0-1.06L20.24,2.93A.75.75,0,1,1,21.3,4L3.85,21.37A.74.74,0,0,1,3.32,21.59Z"/><path class="cls-1" d="M7.74,19.45,9.9,21.21a3.39,3.39,0,0,0,4.29,0l4.59-3.75A3.39,3.39,0,0,0,20,14.83V7.49a2.11,2.11,0,0,0,0-.25Z"/><path class="cls-1" d="M6.63,18.54,19.52,5.71a3.38,3.38,0,0,0-1.47-1.3l-4.59-2.1a3.41,3.41,0,0,0-2.83,0L6.05,4.41a3.39,3.39,0,0,0-2,3.08v7.34a3.39,3.39,0,0,0,1.25,2.63Z"/></g></g></svg>