<svg xmlns="http://www.w3.org/2000/svg" viewBox="0 0 24 24"><defs><style>.cls-1{opacity:0.3;}</style></defs><g id="security"><g id="shield-cross"><path class="cls-1" d="M9.85,21.23,5.26,17.48A3.39,3.39,0,0,1,4,14.85V7.5A3.39,3.39,0,0,1,6,4.41l4.6-2.1a3.39,3.39,0,0,1,2.82,0L18,4.41A3.39,3.39,0,0,1,20,7.5v7.35a3.39,3.39,0,0,1-1.25,2.63l-4.59,3.75A3.38,3.38,0,0,1,9.85,21.23Z"/><path d="M14,14.7a.73.73,0,0,1-.52-.21l-4-3.91a.75.75,0,0,1,0-1.06.77.77,0,0,1,1.07,0l4,3.91a.75.75,0,0,1,0,1.06A.76.76,0,0,1,14,14.7Z"/><path d="M10,14.7a.76.76,0,0,1-.54-.22.75.75,0,0,1,0-1.06l4-3.91a.75.75,0,1,1,1,1.07l-4,3.91A.77.77,0,0,1,10,14.7Z"/></g></g></svg>