<svg xmlns="http://www.w3.org/2000/svg" viewBox="0 0 24 24"><g id="setting"><path d="M10.13,3A3.93,3.93,0,0,0,6.28,6.17H2.78A.75.75,0,0,0,2,6.91a.76.76,0,0,0,.75.76h3.5A3.92,3.92,0,1,0,10.13,3Z"/><path d="M15.64,7.68a.75.75,0,0,1-.75-.75.73.73,0,0,1,.74-.75h5.59a.75.75,0,0,1,.75.74.76.76,0,0,1-.75.76Z"/><path d="M21.22,16.31h-3.5a3.92,3.92,0,1,0,0,1.5h3.5a.75.75,0,0,0,.75-.75A.76.76,0,0,0,21.22,16.31Z"/><path d="M8.36,17.83h0l-5.58,0A.75.75,0,0,1,2,17.06a.76.76,0,0,1,.75-.75h0l5.58,0a.73.73,0,0,1,.74.75A.75.75,0,0,1,8.36,17.83Z"/></g></svg>