<svg xmlns="http://www.w3.org/2000/svg" viewBox="0 0 24 24"><g id="мedicine"><path id="bandage" d="M7.77,22.75a2.25,2.25,0,0,1-1.1-.28h0a12.94,12.94,0,0,1-5.12-5.15,2.27,2.27,0,0,1,.36-2.73L14.59,1.91a2.27,2.27,0,0,1,2.79-.33,14.56,14.56,0,0,1,5.05,5,2.27,2.27,0,0,1-.34,2.76L9.37,22.09A2.26,2.26,0,0,1,7.77,22.75Zm-.38-1.6A.77.77,0,0,0,8.31,21L21,8.31a.77.77,0,0,0,.11-.94,13,13,0,0,0-4.54-4.5.77.77,0,0,0-1,.1L3,15.65a.8.8,0,0,0-.12.94,11.45,11.45,0,0,0,4.54,4.56Zm8.54-9.53a1,1,0,1,1,0-1.43A1,1,0,0,1,15.93,11.62ZM13.79,8.05a1,1,0,1,0,0,1.43A1,1,0,0,0,13.79,8.05Zm0,4.28a1,1,0,1,0,0,1.43A1,1,0,0,0,13.79,12.33Zm-2.14-2.14a1,1,0,1,0,0,1.43A1,1,0,0,0,11.65,10.19Zm0,4.28a1,1,0,1,0,0,1.43A1,1,0,0,0,11.65,14.47ZM9.51,12.33a1,1,0,1,0,0,1.43A1,1,0,0,0,9.51,12.33Z"/></g></svg>