<svg xmlns="http://www.w3.org/2000/svg" viewBox="0 0 24 24"><g id="мedicine"><path id="flask" d="M21.45,18.07,18.3,12.63,15.75,8.21V4.58A1.75,1.75,0,0,0,15,1.25H9a1.75,1.75,0,0,0-.75,3.33V8.21L5.7,12.63,2.55,18.07a3.12,3.12,0,0,0,2.7,4.68h13.5a3.12,3.12,0,0,0,2.7-4.68ZM9.65,8.78a.69.69,0,0,0,.1-.37V4A.76.76,0,0,0,9,3.25a.25.25,0,0,1,0-.5h6a.25.25,0,0,1,0,.5.76.76,0,0,0-.75.75V8.41a.69.69,0,0,0,.1.37l2,3.47H7.65Zm10.5,11.66a1.6,1.6,0,0,1-1.4.81H5.25a1.62,1.62,0,0,1-1.4-2.43l2.93-5.07H17.22l2.93,5.07A1.62,1.62,0,0,1,20.15,20.44Z"/></g></svg>