<svg xmlns="http://www.w3.org/2000/svg" viewBox="0 0 24 24"><g id="мedicine"><path id="mask" d="M20.58,3.42a4.66,4.66,0,0,0-5.21-.94,1.9,1.9,0,0,0-1.9.06c-.91.57-1.81,1.2-2.66,1.86a1.69,1.69,0,0,1-1.57.25A3.57,3.57,0,0,0,4.66,9.23,1.69,1.69,0,0,1,4.4,10.8c-.66.86-1.29,1.76-1.86,2.67a1.92,1.92,0,0,0-.06,1.9A4.67,4.67,0,0,0,6.74,22a4.55,4.55,0,0,0,1.9-.44,1.87,1.87,0,0,0,.89.23,1.82,1.82,0,0,0,1-.29A34.64,34.64,0,0,0,21.45,10.53a1.9,1.9,0,0,0,.07-1.9A4.66,4.66,0,0,0,20.58,3.42ZM19.52,4.48a3.17,3.17,0,0,1,.86,2.87L16.65,3.62a3.19,3.19,0,0,1,.61-.08A3.16,3.16,0,0,1,19.52,4.48Zm-15,15a3.17,3.17,0,0,1-.86-2.87l3.73,3.73A3.17,3.17,0,0,1,4.48,19.52ZM20.19,9.73A33.16,33.16,0,0,1,9.73,20.19a.43.43,0,0,1-.51-.06L3.88,14.78a.41.41,0,0,1-.07-.51c.55-.87,1.14-1.73,1.78-2.56a3.19,3.19,0,0,0,.48-3A2.06,2.06,0,0,1,8,5.94a2.15,2.15,0,0,1,.7.12,3.19,3.19,0,0,0,3-.48c.82-.62,1.68-1.22,2.55-1.77a.42.42,0,0,1,.52.06l5.33,5.34A.43.43,0,0,1,20.19,9.73ZM15.8,7.93l-8,7.88A.74.74,0,0,1,7.3,16a.76.76,0,0,1-.53-1.29l8-7.88A.75.75,0,0,1,15.8,7.93Zm2.54,1.43a.75.75,0,0,1,.18,1.05,36,36,0,0,1-8.14,8.05.73.73,0,0,1-.44.15.77.77,0,0,1-.61-.31.75.75,0,0,1,.16-1,34.23,34.23,0,0,0,7.8-7.72A.75.75,0,0,1,18.34,9.36Zm-11.46.73a3.69,3.69,0,0,1,3.2-3.2.75.75,0,0,1,.29,1.47,2.22,2.22,0,0,0-2,2,.75.75,0,0,1-.74.63H7.5A.73.73,0,0,1,6.88,10.09Z"/></g></svg>