<svg xmlns="http://www.w3.org/2000/svg" viewBox="0 0 24 24"><g id="мedicine"><path id="pulse" d="M14.11,16.26H14a.75.75,0,0,1-.65-.56l-1.47-5.55-1.34,4a.75.75,0,0,1-1.33.19L7.63,12l-1.3.7a.74.74,0,0,1-.36.09H3a.75.75,0,0,1,0-1.5H5.78l1.73-.93a.75.75,0,0,1,1,.24l1.16,1.68L11.29,7.3A.73.73,0,0,1,12,6.79a.74.74,0,0,1,.7.56l1.59,6,.79-1.66a.74.74,0,0,1,.67-.43H21a.75.75,0,0,1,0,1.5H16.25l-1.46,3.08A.76.76,0,0,1,14.11,16.26Zm8.61-7.19A6.58,6.58,0,0,0,12,3.57,6.59,6.59,0,0,0,1.28,9.07a.75.75,0,0,0,.79.71A.76.76,0,0,0,2.78,9,5,5,0,0,1,4.25,5.1a5.11,5.11,0,0,1,7.22,0,.74.74,0,0,0,1.06,0,5.11,5.11,0,0,1,7.22,0A5,5,0,0,1,21.22,9a.76.76,0,0,0,.71.79h0A.75.75,0,0,0,22.72,9.07ZM12,21.48A1.75,1.75,0,0,0,13.24,21L18.16,16a.74.74,0,0,0,0-1.06.75.75,0,0,0-1.06,0l-4.92,4.93a.22.22,0,0,1-.36,0L6.9,15a.75.75,0,0,0-1.06,0,.74.74,0,0,0,0,1.06L10.76,21a1.71,1.71,0,0,0,1.24.52Z"/></g></svg>