<svg xmlns="http://www.w3.org/2000/svg" viewBox="0 0 24 24"><g id="мedicine"><path id="syringe" d="M21.26,7.79,20.15,6.66l0,0L18.66,5.17,16.23,2.72a.75.75,0,0,0-1.06,0,.75.75,0,0,0,0,1.06l.61.61L14.09,6.08,12.54,4.53A1.75,1.75,0,1,0,10.07,7l.16.16L5.17,12.23a2.16,2.16,0,0,0-.53,2.22l.61,1.83L1.76,19.76a1.76,1.76,0,0,0,0,2.48,1.76,1.76,0,0,0,2.48,0l3.48-3.49,1.83.61a2.16,2.16,0,0,0,2.22-.53l5.06-5.06.16.16a1.8,1.8,0,0,0,2.48,0,1.75,1.75,0,0,0,0-2.47L17.92,9.91l1.67-1.67.61.6a.75.75,0,0,0,.53.23.79.79,0,0,0,.53-.22A.75.75,0,0,0,21.26,7.79Zm-2.85,5.08a.21.21,0,0,1-.36,0l-.69-.69a.75.75,0,0,0-1.06,0l-5.6,5.59a.66.66,0,0,1-.68.16l-2.26-.75a.75.75,0,0,0-.77.18L3.18,21.18a.22.22,0,0,1-.36,0,.27.27,0,0,1,0-.36L6.64,17a.75.75,0,0,0,.18-.77L6.07,14a.66.66,0,0,1,.16-.69L11.82,7.7a.74.74,0,0,0,0-1.06L11.13,6a.27.27,0,0,1,0-.36.24.24,0,0,1,.18-.07.22.22,0,0,1,.17.07l6.93,6.93A.26.26,0,0,1,18.41,12.87Zm-1.55-4L15.15,7.14l1.68-1.68.76.76.95,1Z"/></g></svg>