<svg xmlns="http://www.w3.org/2000/svg" viewBox="0 0 24 24"><g id="мedicine"><path id="thermometer" d="M18,7.39,16.59,6a1.75,1.75,0,0,0-2.47,0L11.28,8.81a1.74,1.74,0,0,0,0,2.48l1.42,1.42a1.75,1.75,0,0,0,1.24.51,1.73,1.73,0,0,0,1.23-.51L18,9.87A1.76,1.76,0,0,0,18,7.39ZM17,8.81l-2.85,2.84c-.12.13-.22.13-.35,0l-1.42-1.42a.25.25,0,0,1-.08-.18.24.24,0,0,1,.08-.18L15.18,7A.24.24,0,0,1,15.36,7a.23.23,0,0,1,.17.07L17,8.45A.27.27,0,0,1,17,8.81Zm5.41-3.4a11.06,11.06,0,0,0-3.8-3.8,2.75,2.75,0,0,0-3.38.46l-.36.35-4,4A10.19,10.19,0,0,0,9.09,8.71L6.83,12.78a8.56,8.56,0,0,1-1.45,1.93L4.19,15.9,2.06,18A2.76,2.76,0,1,0,6,21.93L8.08,19.8l1.19-1.19a9.43,9.43,0,0,1,1.93-1.46l4.07-2.26a10.15,10.15,0,0,0,2.26-1.7l4-4h0l.35-.35a2.82,2.82,0,0,0,.72-1.2A2.75,2.75,0,0,0,22.37,5.41Zm-1.29.77a1.28,1.28,0,0,1,.14.37.49.49,0,0,1,0,.12,1.22,1.22,0,0,1,0,.27.78.78,0,0,1,0,.14,2.25,2.25,0,0,1-.08.24.83.83,0,0,1-.07.13.47.47,0,0,1-.06.09L16.45,3l.18-.12.09,0a1.12,1.12,0,0,1,.44-.09.74.74,0,0,1,.21,0l.12,0a1.2,1.2,0,0,1,.31.13A9.37,9.37,0,0,1,21.08,6.18ZM4.9,20.87a1.3,1.3,0,0,1-1.78,0,1.26,1.26,0,0,1,0-1.78l1.6-1.6,1.77,1.78Zm11.57-8.74a8.56,8.56,0,0,1-1.93,1.45l-4.06,2.26a10.48,10.48,0,0,0-2.27,1.71l-.66.66L5.78,16.43l.66-.66a10.15,10.15,0,0,0,1.7-2.26L10.4,9.44a8.91,8.91,0,0,1,1.46-1.93L15.36,4,20,8.63Z"/></g></svg>