<svg xmlns="http://www.w3.org/2000/svg" viewBox="0 0 24 24"><g id="мedicine"><path id="virus" d="M13.07,22.82h-2a1.75,1.75,0,0,1-1-3.22,7.5,7.5,0,0,1-3.65-2.18,2,2,0,0,1-.07.43,1.75,1.75,0,0,1-.81,1.07,1.81,1.81,0,0,1-2.39-.64l-1-1.74a1.74,1.74,0,0,1,2-2.56,1.52,1.52,0,0,1,.47.2,8.07,8.07,0,0,1,0-4.36,1.81,1.81,0,0,1-1.79,0A1.75,1.75,0,0,1,2.2,7.46l1-1.74a1.74,1.74,0,0,1,3.2.43,2,2,0,0,1,.07.43,7.55,7.55,0,0,1,3.71-2.19,1.74,1.74,0,0,1,1-3.21h1.92A1.75,1.75,0,0,1,14.8,2.93,1.71,1.71,0,0,1,14,4.42a7.6,7.6,0,0,1,3.72,2.32l0,0a1.72,1.72,0,0,1,.86-1.58A1.7,1.7,0,0,1,19.9,5,1.73,1.73,0,0,1,21,5.78l1,1.66a1.76,1.76,0,0,1,.18,1.33,1.75,1.75,0,0,1-2.67,1l-.08.05a7.89,7.89,0,0,1,0,4.38l.11.06a1.71,1.71,0,0,1,1.8,0h0a1.75,1.75,0,0,1,.64,2.39l-1,1.66a1.79,1.79,0,0,1-2.39.64,1.76,1.76,0,0,1-.87-1.63h0A7.53,7.53,0,0,1,14,19.57a1.75,1.75,0,0,1-.9,3.25Zm-1.25-3.68v.93a.76.76,0,0,1-.75.75.25.25,0,0,0,0,.5h2a.25.25,0,0,0,0-.5.76.76,0,0,1-.75-.75v-.93s0-.06,0-.08a.75.75,0,0,1,.63-.8,6.12,6.12,0,0,0,4-2.43.75.75,0,0,1,1-.16l.06.05.93.53a.75.75,0,0,1,.28,1,.25.25,0,0,0,.43.25l1-1.66a.26.26,0,0,0-.09-.35h0a.26.26,0,0,0-.33.09.75.75,0,0,1-1,.23l-.93-.53-.1,0a.75.75,0,0,1-.41-1,6.45,6.45,0,0,0,0-4.58.75.75,0,0,1,.41-1l1-.58a.74.74,0,0,1,1,.26.25.25,0,0,0,.43-.25l-1-1.66a.23.23,0,0,0-.15-.12.27.27,0,0,0-.19,0,.25.25,0,0,0-.09.33.74.74,0,0,1-.3,1L18,8.28,18,8.33a.75.75,0,0,1-1-.16,6.08,6.08,0,0,0-4-2.43A.75.75,0,0,1,12.32,5V3.93a.74.74,0,0,1,.73-.75.26.26,0,0,0,.25-.25.25.25,0,0,0-.25-.25H11.13a.25.25,0,0,0-.25.25.24.24,0,0,0,.24.24.75.75,0,0,1,.7.75V5a.75.75,0,0,1-.65.74,6.07,6.07,0,0,0-4,2.4.75.75,0,0,1-1,.15L6,8.21l-.8-.46a.76.76,0,0,1-.28-1,.25.25,0,0,0-.09-.34.27.27,0,0,0-.19,0,.24.24,0,0,0-.15.11l-1,1.74a.25.25,0,0,0,.09.34.26.26,0,0,0,.34-.09.76.76,0,0,1,1-.28l.86.5a.77.77,0,0,1,.45,1,6.5,6.5,0,0,0,0,4.7.76.76,0,0,1-.4,1l-.11,0-.8.47a.75.75,0,0,1-1-.28.21.21,0,0,0-.15-.11.27.27,0,0,0-.19,0,.25.25,0,0,0-.09.34l1,1.74a.25.25,0,0,0,.34.09.25.25,0,0,0,.09-.34.76.76,0,0,1,.28-1l.8-.46.07-.06a.75.75,0,0,1,1,.15,6.07,6.07,0,0,0,4.05,2.4.75.75,0,0,1,.65.79S11.82,19.11,11.82,19.14ZM13.06,19h0ZM5.83,15.32h0Zm.24-7.07Zm8.84,4.56a.74.74,0,1,0,1.05.1A.76.76,0,0,0,14.91,12.81Zm-.27-4.58a1.21,1.21,0,1,0,1.21,1.21A1.21,1.21,0,0,0,14.64,8.23Z"/></g></svg>