<svg xmlns="http://www.w3.org/2000/svg" viewBox="0 0 24 24"><defs><style>.cls-1{opacity:0.3;}</style></defs><g id="communication"><g id="address-book"><path d="M18.5,11h2a1,1,0,0,1,1,1v2a1,1,0,0,1-1,1h-2a0,0,0,0,1,0,0V11A0,0,0,0,1,18.5,11Z"/><path d="M19,5.5h2a1,1,0,0,1,1,1v2a0,0,0,0,1,0,0H18a0,0,0,0,1,0,0v-2A1,1,0,0,1,19,5.5Z" transform="translate(27 -13) rotate(90)"/><path class="cls-1" d="M15.62,22H5.38A2.88,2.88,0,0,1,2.5,19.12V4.88A2.88,2.88,0,0,1,5.38,2H15.62A2.88,2.88,0,0,1,18.5,4.88V19.12A2.88,2.88,0,0,1,15.62,22ZM10.5,7a2,2,0,1,0,2,2A2,2,0,0,0,10.5,7Zm3.27,9a1,1,0,0,0,1-1.34A4.51,4.51,0,0,0,10.5,12a4.52,4.52,0,0,0-4.24,2.65C6,15.3,6.53,16,7.79,16Z"/></g></g></svg>