<svg xmlns="http://www.w3.org/2000/svg" viewBox="0 0 24 24"><defs><style>.cls-1{opacity:0.3;}</style></defs><g id="communication"><g id="messages"><path d="M18.05,2H9.81a3.9,3.9,0,0,0-3.9,3.9V6h8.28a3.9,3.9,0,0,1,3.9,3.9v5.84A3.89,3.89,0,0,0,22,11.83V5.88A3.91,3.91,0,0,0,18.05,2Z"/><g class="cls-1"><path d="M14.19,6H6a3.91,3.91,0,0,0-3.9,3.9v5.95A3.91,3.91,0,0,0,6,19.73H7.22a1.07,1.07,0,0,1,.9.47L9,21.47a1.28,1.28,0,0,0,2.1,0L12,20.2a1.07,1.07,0,0,1,.9-.47h1.27a3.9,3.9,0,0,0,3.9-3.9V9.88A3.9,3.9,0,0,0,14.19,6Z"/></g><circle cx="6.58" cy="12.98" r="0.94"/><circle cx="10.08" cy="12.98" r="0.94"/><circle cx="13.57" cy="12.98" r="0.94"/></g></g></svg>