<svg xmlns="http://www.w3.org/2000/svg" viewBox="0 0 24 24"><defs><style>.cls-1{opacity:0.3;}</style></defs><g id="communication"><g id="message-text-2"><g class="cls-1"><path d="M17.14,2H6.86A4.86,4.86,0,0,0,2,6.87v7.41a4.86,4.86,0,0,0,4.86,4.86H8.45a1.35,1.35,0,0,1,1.12.59l1.12,1.58a1.6,1.6,0,0,0,2.62,0l1.12-1.58a1.35,1.35,0,0,1,1.12-.59h1.59A4.86,4.86,0,0,0,22,14.28V6.87A4.86,4.86,0,0,0,17.14,2Z"/></g><path d="M16.76,9.63H7.24a.75.75,0,0,1,0-1.5h9.52a.75.75,0,0,1,0,1.5Z"/><path d="M15.17,14.63H8.83a.75.75,0,0,1,0-1.5h6.34a.75.75,0,0,1,0,1.5Z"/></g></g></svg>