<svg xmlns="http://www.w3.org/2000/svg" viewBox="0 0 24 24"><defs><style>.cls-1{opacity:0.3;}</style></defs><g id="communication"><g id="message-notif"><circle cx="19.36" cy="4.59" r="2.64"/><g class="cls-1"><path d="M19.36,8.66a4.08,4.08,0,0,1-4.07-4.07,4,4,0,0,1,.5-1.92h-9A4.66,4.66,0,0,0,2.11,7.33v7.11A4.66,4.66,0,0,0,6.77,19.1H8.29a1.33,1.33,0,0,1,1.08.56l1.07,1.52a1.53,1.53,0,0,0,2.51,0L14,19.66a1.33,1.33,0,0,1,1.08-.56h1.52a4.66,4.66,0,0,0,4.66-4.66V8.16A4,4,0,0,1,19.36,8.66Z"/></g><circle cx="7.86" cy="11.3" r="0.95"/><circle cx="11.69" cy="11.3" r="0.95"/><circle cx="11.69" cy="11.3" r="0.95"/><circle cx="15.53" cy="11.3" r="0.95"/></g></g></svg>