<svg xmlns="http://www.w3.org/2000/svg" viewBox="0 0 24 24"><defs><style>.cls-1{opacity:0.3;}</style></defs><g id="communication"><g id="message-edit"><g class="cls-1"><path d="M16.82,22H3a1,1,0,0,1-1-1V7.18A5.18,5.18,0,0,1,7.18,2h9.64A5.18,5.18,0,0,1,22,7.18v9.64A5.18,5.18,0,0,1,16.82,22Z"/></g><path d="M11.23,7.74l.74-1a1.86,1.86,0,0,1,2.65-.38l1.67,1.29a2,2,0,0,1,.37,2.71l-.74,1a3.82,3.82,0,0,1-3.13-.75A4,4,0,0,1,11.23,7.74Zm.73,4a5.56,5.56,0,0,1-1.82-2.51L7.34,13A1.86,1.86,0,0,0,7,14.05l0,2.52A1.42,1.42,0,0,0,8.77,18l2.36-.72a1.73,1.73,0,0,0,.9-.63l2.79-3.78A5.37,5.37,0,0,1,12,11.73Z"/></g></g></svg>