<svg xmlns="http://www.w3.org/2000/svg" viewBox="0 0 24 24"><defs><style>.cls-1{opacity:0.3;}</style></defs><g id="time"><g id="calendar-2"><path class="cls-1" d="M2.8,10.86v5.68A5.42,5.42,0,0,0,8.22,22h7.56a5.42,5.42,0,0,0,5.42-5.42V10.86a.82.82,0,0,0-.82-.82H3.62A.82.82,0,0,0,2.8,10.86Z"/><path d="M20.85,7.55a.82.82,0,0,1-.77,1.11h-16A1,1,0,0,1,3.17,7.3,5.43,5.43,0,0,1,6.5,4.22V2.65A.68.68,0,0,1,7.18,2a.69.69,0,0,1,.69.69V4c.11,0,.21,0,.32,0h3.27V2.65a.69.69,0,1,1,1.38,0V3.93h2.9c.11,0,.21,0,.32,0V2.65A.68.68,0,0,1,16.74,2a.69.69,0,0,1,.69.69V4.22A5.42,5.42,0,0,1,20.85,7.55Z"/><ellipse cx="8.73" cy="13.81" rx="0.86" ry="0.85"/><ellipse cx="11.94" cy="13.81" rx="0.86" ry="0.85"/><ellipse cx="8.72" cy="17.01" rx="0.86" ry="0.85"/></g></g></svg>