<svg xmlns="http://www.w3.org/2000/svg" viewBox="0 0 24 24"><defs><style>.cls-1{opacity:0.3;}</style></defs><g id="time"><g id="calendar-edit"><path class="cls-1" d="M2.1,10.89v5.69A5.42,5.42,0,0,0,7.52,22h7.56a5.42,5.42,0,0,0,5.42-5.42V10.89a.82.82,0,0,0-.82-.82H2.92A.82.82,0,0,0,2.1,10.89Z"/><path d="M20.15,7.58a.83.83,0,0,1-.77,1.12h-16a1,1,0,0,1-.94-1.36A5.45,5.45,0,0,1,5.8,4.25V2.69A.69.69,0,0,1,6.49,2a.68.68,0,0,1,.68.69V4c.11,0,.21,0,.32,0h3.28V2.69A.68.68,0,0,1,11.45,2a.69.69,0,0,1,.69.69V4H15c.11,0,.21,0,.32,0V2.69a.69.69,0,1,1,1.37,0V4.25A5.46,5.46,0,0,1,20.15,7.58Z"/><path d="M10.73,19.38l-1.35.35a.88.88,0,0,1-1.08-1l.23-1.37a1,1,0,0,1,.22-.45L13,12.34a1.06,1.06,0,0,1,1.5-.06l.84.78a1,1,0,0,1,.06,1.49l-4.22,4.58A.86.86,0,0,1,10.73,19.38Z"/></g></g></svg>