<svg xmlns="http://www.w3.org/2000/svg" viewBox="0 0 24 24"><defs><style>.cls-1{opacity:0.3;}</style></defs><g id="time"><g id="calendar-search"><path class="cls-1" d="M2.8,10.89v5.69A5.42,5.42,0,0,0,8.22,22h7.56a5.42,5.42,0,0,0,5.42-5.42V10.89a.82.82,0,0,0-.82-.82H3.62A.82.82,0,0,0,2.8,10.89Z"/><path d="M20.85,7.58a.83.83,0,0,1-.77,1.12h-16a1,1,0,0,1-.94-1.36A5.45,5.45,0,0,1,6.5,4.25V2.69A.68.68,0,0,1,7.18,2a.69.69,0,0,1,.69.69V4C8,4,8.08,4,8.19,4h3.27V2.69a.69.69,0,1,1,1.38,0V4h2.9c.11,0,.21,0,.32,0V2.69A.68.68,0,0,1,16.74,2a.69.69,0,0,1,.69.69V4.25A5.46,5.46,0,0,1,20.85,7.58Z"/><circle cx="12" cy="15.62" r="3.65"/><path d="M15.18,19.57a.78.78,0,0,1-.54-.23l-.91-.95a.75.75,0,1,1,1.07-1l.92.94a.75.75,0,0,1,0,1.06A.7.7,0,0,1,15.18,19.57Z"/></g></g></svg>