<svg xmlns="http://www.w3.org/2000/svg" viewBox="0 0 24 24"><defs><style>.cls-1{opacity:0.3;}</style></defs><g id="time"><g id="calendar-8"><rect class="cls-1" x="2.51" y="3.47" width="18.98" height="18.5" rx="4.72"/><path d="M8,5.59a.76.76,0,0,1-.75-.75V2a.75.75,0,1,1,1.5,0V4.84A.76.76,0,0,1,8,5.59Z"/><path d="M16,5.59a.76.76,0,0,1-.75-.75V2a.75.75,0,0,1,1.5,0V4.84A.76.76,0,0,1,16,5.59Z"/><path d="M12,12.48a2.18,2.18,0,0,1-2.22-2.12,2.22,2.22,0,0,1,4.44,0A2.18,2.18,0,0,1,12,12.48Zm0-2.73a.68.68,0,0,0-.72.61.73.73,0,0,0,1.44,0A.68.68,0,0,0,12,9.75Z"/><path d="M12,15.71a2.44,2.44,0,0,1-2.52-2.35A2.45,2.45,0,0,1,12,11a2.45,2.45,0,0,1,2.52,2.36A2.44,2.44,0,0,1,12,15.71Zm0-3.21a1,1,0,0,0-1,.86,1,1,0,0,0,1,.85,1,1,0,0,0,1-.85A1,1,0,0,0,12,12.5Z"/><path d="M2.54,17.57A4.71,4.71,0,0,0,7.23,22h9.54a4.71,4.71,0,0,0,4.69-4.4Z"/></g></g></svg>