<svg xmlns="http://www.w3.org/2000/svg" viewBox="0 0 24 24"><defs><style>.cls-1{opacity:0.3;}</style></defs><g id="time"><g id="watch"><path class="cls-1" d="M19.53,4.66V4.33A2.33,2.33,0,0,0,17.2,2H6.79A2.33,2.33,0,0,0,4.46,4.33v.33a5.47,5.47,0,0,0,1.83,4L9,11.13A1.12,1.12,0,0,1,9,12.8L6.29,15.24a5.47,5.47,0,0,0-1.83,4v.45A2.33,2.33,0,0,0,6.8,22H17.21a2.33,2.33,0,0,0,2.33-2.38v-.35a5.47,5.47,0,0,0-1.83-4L15,12.8a1.12,1.12,0,0,1,0-1.67L17.7,8.69A5.47,5.47,0,0,0,19.53,4.66Z"/><path d="M8.5,18.35l2.37-2.45a1.63,1.63,0,0,1,2.37,0l2.37,2.45a.47.47,0,0,1-.33.8H8.82A.47.47,0,0,1,8.5,18.35Z"/></g></g></svg>