<svg xmlns="http://www.w3.org/2000/svg" viewBox="0 0 24 24"><g id="education"><g id="award"><path d="M12.44,4.77a2.14,2.14,0,0,0-.5-.06h0A2.63,2.63,0,0,1,12.44,4.77ZM9.69,3.82A4.52,4.52,0,0,1,12,3.2h0a4.46,4.46,0,0,1,2.2.58l3.66,2.08v-1A2.94,2.94,0,0,0,14.87,2H9.13A2.94,2.94,0,0,0,6.19,4.91v1Zm-3.5,3.8h0L8,6.57Zm5-2.81.26,0Zm1.51,0a2.94,2.94,0,0,1,.69.28A2.94,2.94,0,0,0,12.69,4.8ZM17.3,7.29l.51.29h0Zm2.62,8.87a3,3,0,0,1-1.45,2.57l-4.93,2.89a2.94,2.94,0,0,1-2.95,0l-5-2.81a2.94,2.94,0,0,1-1.49-2.54l0-5.71A3,3,0,0,1,5.53,8l4.93-2.9a3,3,0,0,1,2.95,0l5,2.81a3,3,0,0,1,1.49,2.55Zm-5.36-4.24-1-.31a.66.66,0,0,1-.38-.27l-.59-.87a.7.7,0,0,0-1.16,0l-.6.86a.69.69,0,0,1-.38.27l-1,.3A.7.7,0,0,0,9.08,13l.63.83a.74.74,0,0,1,.15.45l0,1.05a.7.7,0,0,0,.93.68l1-.34a.69.69,0,0,1,.47,0l1,.35a.7.7,0,0,0,.94-.68l0-1a.67.67,0,0,1,.14-.45l.64-.83A.7.7,0,0,0,14.56,11.92Z"/></g></g></svg>