<svg xmlns="http://www.w3.org/2000/svg" viewBox="0 0 24 24"><g id="education"><path id="bookmark" d="M22,8v8.1A6,6,0,0,1,16.05,22H8A6,6,0,0,1,2,16.05V8A6,6,0,0,1,5.67,2.46a.41.41,0,0,1,.58.38v9.74A2.41,2.41,0,0,0,8.68,15a2.36,2.36,0,0,0,1-.22l2.31-1,2.31,1a2.36,2.36,0,0,0,1,.22,2.41,2.41,0,0,0,2.43-2.39V2.84a.41.41,0,0,1,.58-.38A6,6,0,0,1,22,8ZM8.68,13.47a.93.93,0,0,0,.4-.09l2.52-1.12a1,1,0,0,1,.8,0l2.52,1.12a.93.93,0,0,0,.4.09.91.91,0,0,0,.93-.89V2.42A.41.41,0,0,0,15.84,2H8.16a.41.41,0,0,0-.41.41V12.58A.91.91,0,0,0,8.68,13.47Z"/></g></svg>