<svg xmlns="http://www.w3.org/2000/svg" viewBox="0 0 24 24"><g id="education"><path id="briefcase" d="M18,5.18H16.39v-1a2.71,2.71,0,0,0-2.71-2.71H10.29A2.71,2.71,0,0,0,7.58,4.13v1H6.05A4.16,4.16,0,0,0,2.46,7.25,4.34,4.34,0,0,0,2,8.42a4.11,4.11,0,0,0-.1,1.36l.15,1.44a14.22,14.22,0,0,0,6.37,2.7,2.86,2.86,0,0,0,2.86,2.79h1.11a2.87,2.87,0,0,0,2.86-2.78A13.93,13.93,0,0,0,22,11l.07-.84.05-.43A4.17,4.17,0,0,0,18,5.18Zm-8.87-1a1.21,1.21,0,0,1,1.21-1.21h3.39a1.21,1.21,0,0,1,1.21,1.21v1H9.08Zm3.33,11.08H11.3A1.35,1.35,0,0,1,10,14.14a1.45,1.45,0,0,1,0-.29h0V11.47h3.85v2.38h0a1.54,1.54,0,0,1,0,.3A1.35,1.35,0,0,1,12.41,15.21ZM21.78,13l-.47,5a4.15,4.15,0,0,1-4.14,3.77H6.94a4.16,4.16,0,0,1-4.13-3.71L2.28,13.2a16.63,16.63,0,0,0,5.45,2.12,3.87,3.87,0,0,0,3.57,2.39h1.11A3.86,3.86,0,0,0,16,15.33,16.12,16.12,0,0,0,21.78,13Z"/></g></svg>