<svg xmlns="http://www.w3.org/2000/svg" viewBox="0 0 24 24"><g id="education"><path id="brifecase-timer" d="M22.08,10.1a4.19,4.19,0,0,0-.2-1.74,5.4,5.4,0,0,0-.36-.77,4.16,4.16,0,0,0-3.58-2H16.39V4.5a2.72,2.72,0,0,0-2.72-2.71H10.29A2.71,2.71,0,0,0,7.58,4.5V5.56H6.05a4.17,4.17,0,0,0-.8.09l-.17,0a4.34,4.34,0,0,0-.72.24L4.25,6a4.3,4.3,0,0,0-.59.34l-.1.07a4.35,4.35,0,0,0-.55.5L2.91,7a3.84,3.84,0,0,0-.45.61h0a4.78,4.78,0,0,0-.28.61,4.36,4.36,0,0,0-.26,1.19,3.66,3.66,0,0,0,0,.74h0l.15,1.44A13.85,13.85,0,0,0,7.4,14.06a3.16,3.16,0,0,0,0,.32,4.63,4.63,0,0,0,9.26,0c0-.13,0-.24,0-.36A13.32,13.32,0,0,0,22,11.38l.12-1.28Zm-13-5.6a1.21,1.21,0,0,1,1.21-1.21h3.38A1.22,1.22,0,0,1,14.89,4.5V5.56H9.08Zm2.92,13a3.14,3.14,0,1,1,3.13-3.13A3.13,3.13,0,0,1,12,17.51Zm6.07-2.37a15.13,15.13,0,0,0,3.71-1.75l-.47,5.05a4.16,4.16,0,0,1-4.14,3.77H6.94a4.15,4.15,0,0,1-4.13-3.72l-.53-4.93a15.42,15.42,0,0,0,3.65,1.65,6.12,6.12,0,0,0,12.14-.07ZM12.9,13v1.51a.77.77,0,0,1-.34.63L11.13,16a.65.65,0,0,1-.4.12.75.75,0,0,1-.41-1.38l1.08-.69V13a.75.75,0,0,1,1.5,0Z"/></g></svg>