<svg xmlns="http://www.w3.org/2000/svg" viewBox="0 0 24 24"><g id="education"><path id="brifecase-tick" d="M11.56,16.28a.74.74,0,0,1-.53-.22l-.93-.91a.75.75,0,1,1,1-1.07l.44.42L13.21,13a.75.75,0,0,1,1,1.12l-2.16,1.94A.74.74,0,0,1,11.56,16.28ZM22.08,10.1h0L22,11.38A13.32,13.32,0,0,1,16.59,14c0,.12,0,.23,0,.36a4.63,4.63,0,0,1-9.26,0,3.16,3.16,0,0,1,0-.32A13.85,13.85,0,0,1,2.07,11.6l-.15-1.44h0a3.66,3.66,0,0,1,0-.74,4.36,4.36,0,0,1,.26-1.19,4.78,4.78,0,0,1,.28-.61h0A3.84,3.84,0,0,1,2.91,7L3,6.89a4.35,4.35,0,0,1,.55-.5l.1-.07A4.3,4.3,0,0,1,4.25,6l.11-.06a4.34,4.34,0,0,1,.72-.24l.17,0a4.17,4.17,0,0,1,.8-.09H7.58V4.5a2.71,2.71,0,0,1,2.71-2.71h3.38A2.72,2.72,0,0,1,16.39,4.5V5.56h1.55a4.16,4.16,0,0,1,3.58,2,5.4,5.4,0,0,1,.36.77,4.19,4.19,0,0,1,.2,1.74Zm-13-4.54h5.81V4.5a1.22,1.22,0,0,0-1.22-1.21H10.29A1.21,1.21,0,0,0,9.08,4.5Zm6.05,8.82A3.13,3.13,0,1,0,12,17.51,3.14,3.14,0,0,0,15.13,14.38ZM12,20.51a6.14,6.14,0,0,1-6.07-5.3,15.42,15.42,0,0,1-3.65-1.65l.53,4.93a4.15,4.15,0,0,0,4.13,3.72H17.17a4.16,4.16,0,0,0,4.14-3.77l.47-5.05a15.13,15.13,0,0,1-3.71,1.75A6.13,6.13,0,0,1,12,20.51Z"/></g></svg>