<svg xmlns="http://www.w3.org/2000/svg" viewBox="0 0 24 24"><g id="education"><g id="clipboard"><path d="M14.13,18.65a2.53,2.53,0,0,0,.48-.07A2.53,2.53,0,0,1,14.13,18.65Zm.83-.17a4,4,0,0,0,.45-.16A4,4,0,0,1,15,18.48Zm2.55-2a4.59,4.59,0,0,0,.24-.5A4.59,4.59,0,0,1,17.51,16.47Zm-13.28.34h0a4.23,4.23,0,0,0,.68.41A4.23,4.23,0,0,1,4.23,16.81Zm1.26.65-.29-.1ZM13,18.65a4.89,4.89,0,0,0,.66.05h.13a5.29,5.29,0,0,1-.79,0l-6.76-1h0Zm4.34-1.9a3.79,3.79,0,0,1-.3.4A3.79,3.79,0,0,0,17.32,16.75Zm-.54.65c-.12.11-.23.22-.36.32C16.55,17.62,16.66,17.51,16.78,17.4ZM20.1,7.75a4.19,4.19,0,0,1,0,.5l-1,6.76a5.49,5.49,0,0,1-6.24,4.63l-6.76-1a5.78,5.78,0,0,1-.91-.23,4.36,4.36,0,0,0,1.9,1.25l6.48,2.16A4.5,4.5,0,0,0,19.23,19l2.16-6.48A4.47,4.47,0,0,0,20.1,7.75Zm-1-.69c0,.11,0,.21,0,.32C19.12,7.27,19.12,7.17,19.11,7.06Zm-1,7.8a4.59,4.59,0,0,1-.21.85,4.59,4.59,0,0,0,.21-.85l.5-3.38Zm-2.35,3.31.4-.25ZM19.09,8.1l-1,6.76A4.49,4.49,0,0,1,13,18.65l-6.76-1a4.5,4.5,0,0,1-3.79-5.11l1-6.76A4.51,4.51,0,0,1,8.54,2L15.3,3A4.5,4.5,0,0,1,19.09,8.1Zm-8.33-.9a2,2,0,1,0-2,2A2,2,0,0,0,10.76,7.2Z"/></g></g></svg>