<svg xmlns="http://www.w3.org/2000/svg" viewBox="0 0 24 24"><g id="education"><g id="note-2"><path d="M15.36,19h0a5.77,5.77,0,0,1-.71-.1L10.72,18a4.83,4.83,0,0,1-3.63-5.78l1.15-5-1.15,5A4.83,4.83,0,0,0,10.72,18l3.92.9A5.9,5.9,0,0,0,15.36,19ZM8.79,5.08c.05-.11.09-.22.14-.32C8.88,4.86,8.84,5,8.79,5.08ZM10.49,19a5.81,5.81,0,0,1-4.37-7L7.61,5.5c0-.16.1-.3.15-.45l-2.34.67a4.77,4.77,0,0,0-3.26,5.91l1.73,6A4.78,4.78,0,0,0,9.8,20.92l4-1.16ZM21.91,8.77l-1.5,6.53a4.82,4.82,0,0,1-5.77,3.63L10.72,18a4.83,4.83,0,0,1-3.63-5.78l1.5-6.53A4.82,4.82,0,0,1,14.36,2.1l3.92.9A4.82,4.82,0,0,1,21.91,8.77Zm-7.23,3.57-2.79-.73a.75.75,0,0,0-.91.54.74.74,0,0,0,.54.91l2.78.73.19,0a.77.77,0,0,0,.73-.57A.75.75,0,0,0,14.68,12.34Zm2.91-3.4L12.88,7.73a.75.75,0,0,0-.91.54.76.76,0,0,0,.54.92l4.7,1.2a.65.65,0,0,0,.19,0,.75.75,0,0,0,.19-1.47Z"/></g></g></svg>