<svg xmlns="http://www.w3.org/2000/svg" viewBox="0 0 24 24"><g id="education"><g id="note"><path d="M14.64,19.38l-3.92-.89a4.83,4.83,0,0,1-3.63-5.78l1.5-6.53a4.81,4.81,0,0,1,5.77-3.62l3.92.9a4.82,4.82,0,0,1,3.63,5.77l-1.5,6.53A4.81,4.81,0,0,1,14.64,19.38ZM8.79,5.54c.05-.11.09-.22.14-.32C8.88,5.32,8.84,5.43,8.79,5.54Zm5.85,13.84-3.92-.89a4.83,4.83,0,0,1-3.43-3,4.83,4.83,0,0,0,3.43,3l3.92.89a4.36,4.36,0,0,0,.71.11v0A3.55,3.55,0,0,1,14.64,19.38ZM8.24,7.68l-1.15,5a4.75,4.75,0,0,0,0,1.91,4.75,4.75,0,0,1,0-1.91Zm2.25,11.78a5.82,5.82,0,0,1-4.37-7L7.61,6c0-.16.1-.3.15-.46l-2.34.68a4.77,4.77,0,0,0-3.26,5.91l1.73,6A4.78,4.78,0,0,0,9.8,21.38l4-1.16Z"/></g></g></svg>