<svg xmlns="http://www.w3.org/2000/svg" viewBox="0 0 24 24"><g id="security"><path id="check" d="M7.15,7.29A.76.76,0,0,1,7.9,8V16a.75.75,0,0,1-1.5,0V8A.76.76,0,0,1,7.15,7.29Zm5.07-3.5A.76.76,0,0,0,11.47,3H6A4.8,4.8,0,0,0,1.25,7.83v8.34A4.8,4.8,0,0,0,6,21h5.24a.75.75,0,1,0,0-1.5H6a3.3,3.3,0,0,1-3.29-3.29V7.83A3.3,3.3,0,0,1,6,4.54h5.43A.75.75,0,0,0,12.22,3.79Zm10.53,4v8.34A4.8,4.8,0,0,1,18,21H15.57v.23a.75.75,0,1,1-1.5,0V2.81a.75.75,0,1,1,1.5,0V3H18A4.8,4.8,0,0,1,22.75,7.83Zm-1.5,0A3.3,3.3,0,0,0,18,4.54H15.57V19.46H18a3.3,3.3,0,0,0,3.29-3.29Z"/></g></svg>