<svg xmlns="http://www.w3.org/2000/svg" viewBox="0 0 24 24"><g id="security"><path id="eye-slash" d="M14.1,12.61a1.84,1.84,0,0,0,0-.33.76.76,0,0,1,.63-.86.73.73,0,0,1,.85.62,3.66,3.66,0,0,1,0,.57,3.6,3.6,0,0,1-3.6,3.6l-.4,0a.75.75,0,0,1-.66-.83.74.74,0,0,1,.82-.66A2.12,2.12,0,0,0,14.1,12.61Zm6.59-4.83a.75.75,0,0,0-1.15,1,6.4,6.4,0,0,1,1.71,3.87c0,3.41-4.49,7.81-9.25,7.81a8.54,8.54,0,0,1-3.7-1,.75.75,0,1,0-.67,1.34A10,10,0,0,0,12,21.92c5.22,0,10.75-4.78,10.75-9.31A7.84,7.84,0,0,0,20.69,7.78Zm1-4.33L3.4,21.62a.74.74,0,0,1-.52.22.79.79,0,0,1-.54-.22.76.76,0,0,1,0-1.07l2-2c-2-1.84-3.13-4-3.13-5.92C1.25,8.17,6.88,3.3,12,3.3a10.78,10.78,0,0,1,5.76,1.9L20.6,2.38a.75.75,0,1,1,1,1.07Zm-16.21,14,3.33-3.31a3.57,3.57,0,0,1,4.79-4.78l3.12-3.1A9.19,9.19,0,0,0,12,4.8C7.77,4.8,2.75,9,2.75,12.61,2.75,14.1,3.77,15.92,5.44,17.47ZM9.94,13l2.45-2.45a2.58,2.58,0,0,0-.39,0,2.1,2.1,0,0,0-2.1,2.1A1.72,1.72,0,0,0,9.94,13Z"/></g></svg>