<svg xmlns="http://www.w3.org/2000/svg" viewBox="0 0 24 24"><g id="security"><path id="eye" d="M12,15.6A3.6,3.6,0,1,1,15.6,12,3.61,3.61,0,0,1,12,15.6Zm0-5.7A2.1,2.1,0,1,0,14.1,12,2.1,2.1,0,0,0,12,9.9Zm0,11.41a11.42,11.42,0,0,1-7.27-3.06C2.55,16.34,1.25,14,1.25,12,1.25,7.56,6.88,2.69,12,2.69s10.75,5,10.75,9.31C22.75,16.52,17.22,21.31,12,21.31ZM12,4.19C7.77,4.19,2.75,8.42,2.75,12c0,1.56,1.14,3.52,3,5.12A10.05,10.05,0,0,0,12,19.81c4.76,0,9.25-4.4,9.25-7.81C21.25,8.77,16.47,4.19,12,4.19Z"/></g></svg>