<svg xmlns="http://www.w3.org/2000/svg" viewBox="0 0 24 24"><g id="security"><path id="key-square" d="M16.84,22.75H7.16a5.92,5.92,0,0,1-5.91-5.91V7.16A5.92,5.92,0,0,1,7.16,1.25h9.68a5.92,5.92,0,0,1,5.91,5.91v9.68A5.92,5.92,0,0,1,16.84,22.75Zm-9.68-20A4.42,4.42,0,0,0,2.75,7.16v9.68a4.42,4.42,0,0,0,4.41,4.41h9.68a4.42,4.42,0,0,0,4.41-4.41V7.16a4.42,4.42,0,0,0-4.41-4.41ZM8.68,18.6l-.3,0-1.48-.3a1.49,1.49,0,0,1-1.2-1.19l-.28-1.48a1.52,1.52,0,0,1,.41-1.36l2.59-2.59a5.16,5.16,0,1,1,5,4,5.35,5.35,0,0,1-1.13-.12L9.74,18.16A1.47,1.47,0,0,1,8.68,18.6ZM13.46,6.9A3.66,3.66,0,0,0,9.8,10.55,3.49,3.49,0,0,0,10,11.66a.75.75,0,0,1-.19.75l-2.9,2.9.29,1.49,1.49.3,2.91-2.89a.73.73,0,0,1,.76-.18,3.85,3.85,0,0,0,1.12.17,3.65,3.65,0,0,0,0-7.3Zm0,5.84a2.19,2.19,0,1,1,2.19-2.19A2.2,2.2,0,0,1,13.46,12.74Zm0-2.88a.69.69,0,1,0,0,1.38.69.69,0,1,0,0-1.38ZM10.94,17a.75.75,0,0,0,0-1.06l-1.09-1a.75.75,0,0,0-1.06,0,.75.75,0,0,0,0,1.06l1.08,1a.75.75,0,0,0,.52.21A.74.74,0,0,0,10.94,17Z"/></g></svg>