<svg xmlns="http://www.w3.org/2000/svg" viewBox="0 0 24 24"><g id="security"><path id="key" d="M14.48,1.34A8.25,8.25,0,0,0,6.24,9.58a8.35,8.35,0,0,0,.26,2.05L1.88,16.25a2,2,0,0,0-.56,1.83l.49,2.52a2.05,2.05,0,0,0,1.61,1.62L6,22.71a1.75,1.75,0,0,0,.4,0,2,2,0,0,0,1.44-.6l4.61-4.6a8.13,8.13,0,0,0,2.08.27,8.24,8.24,0,0,0,0-16.48Zm0,15A6.64,6.64,0,0,1,12.41,16a.74.74,0,0,0-.76.18L9.27,18.55,7.65,17a.75.75,0,0,0-1,1.09l1.59,1.53L6.73,21.09a.55.55,0,0,1-.49.15l-2.53-.5a.53.53,0,0,1-.43-.43L2.79,17.8a.58.58,0,0,1,.15-.49l4.93-4.93a.76.76,0,0,0,.19-.76,6.74,6.74,0,1,1,6.42,4.7Zm0-9.95a3.21,3.21,0,1,0,3.2,3.21A3.21,3.21,0,0,0,14.48,6.37Zm0,4.91a1.71,1.71,0,1,1,1.7-1.7A1.71,1.71,0,0,1,14.48,11.28Z"/></g></svg>