<svg xmlns="http://www.w3.org/2000/svg" viewBox="0 0 24 24"><g id="security"><path id="lock-3" d="M12,1.25A10.75,10.75,0,1,0,22.75,12,10.76,10.76,0,0,0,12,1.25Zm0,20A9.25,9.25,0,1,1,21.25,12,9.26,9.26,0,0,1,12,21.25Zm3.68-11.5V9.38a3.23,3.23,0,0,0-3.23-3.23h-.9A3.23,3.23,0,0,0,8.32,9.38v.37A2.81,2.81,0,0,0,6,12.52V15a2.82,2.82,0,0,0,2.82,2.82h6.44A2.82,2.82,0,0,0,18,15V12.52A2.81,2.81,0,0,0,15.68,9.75Zm-4.13-2.1h.9a1.74,1.74,0,0,1,1.73,1.73V9.7H9.82V9.38A1.74,1.74,0,0,1,11.55,7.65Zm5,7.38a1.32,1.32,0,0,1-1.32,1.32H8.78A1.32,1.32,0,0,1,7.46,15V12.52A1.32,1.32,0,0,1,8.78,11.2h6.44a1.32,1.32,0,0,1,1.32,1.32ZM12,12a1.82,1.82,0,1,0,1.81,1.82A1.82,1.82,0,0,0,12,12Zm0,2.13a.32.32,0,1,1,.31-.31A.31.31,0,0,1,12,14.09Z"/></g></svg>