<svg xmlns="http://www.w3.org/2000/svg" viewBox="0 0 24 24"><g id="security"><path id="lock-2" d="M9,15.36a1,1,0,1,1-1-1A1,1,0,0,1,9,15.36Zm3-1a1,1,0,1,0,1,1A1,1,0,0,0,12,14.37Zm4,0a1,1,0,1,0,1,1A1,1,0,0,0,16,14.36Zm6.75-1V18.1a4.66,4.66,0,0,1-4.66,4.66H5.91A4.66,4.66,0,0,1,1.25,18.1V13.36A4.66,4.66,0,0,1,5.72,8.72V7.42A5.44,5.44,0,0,1,11.15,2h1.7a5.44,5.44,0,0,1,5.43,5.43v1.3A4.66,4.66,0,0,1,22.75,13.36ZM7.22,7.42V8.7h9.56V7.42a3.93,3.93,0,0,0-3.93-3.93h-1.7A3.93,3.93,0,0,0,7.22,7.42Zm14,5.94a3.17,3.17,0,0,0-3.16-3.16H5.91a3.17,3.17,0,0,0-3.16,3.16V18.1a3.17,3.17,0,0,0,3.16,3.16H18.09a3.17,3.17,0,0,0,3.16-3.16Z"/></g></svg>