<svg xmlns="http://www.w3.org/2000/svg" viewBox="0 0 24 24"><g id="security"><g id="security-2" data-name="security"><path id="lock" d="M13.63,15.35A1.63,1.63,0,1,1,12,13.72h0A1.63,1.63,0,0,1,13.63,15.35ZM22.75,13v4.74a4.66,4.66,0,0,1-4.66,4.66H5.91a4.66,4.66,0,0,1-4.66-4.66V13A4.66,4.66,0,0,1,5.72,8.34V7a5.45,5.45,0,0,1,5.43-5.42h1.7a5.44,5.44,0,0,1,5.43,5.43v1.3A4.65,4.65,0,0,1,22.75,13ZM7.22,7V8.32h9.56V7a3.93,3.93,0,0,0-3.93-3.93h-1.7A3.93,3.93,0,0,0,7.22,7Zm14,5.94a3.18,3.18,0,0,0-3.16-3.16H5.91A3.18,3.18,0,0,0,2.75,13v4.74a3.18,3.18,0,0,0,3.16,3.16H18.09a3.18,3.18,0,0,0,3.16-3.16Zm-5.34,2.37A3.9,3.9,0,1,1,12,11.47h0a3.88,3.88,0,0,1,3.88,3.88Zm-1.53,0A2.38,2.38,0,1,0,12,17.73h0a2.37,2.37,0,0,0,2.35-2.38Z"/></g></g></svg>