<svg xmlns="http://www.w3.org/2000/svg" viewBox="0 0 24 24"><g id="security"><path id="shield-cross" d="M11.47,4.54H6A3.3,3.3,0,0,0,2.75,7.83v8.34A3.3,3.3,0,0,0,6,19.46h5.24a.75.75,0,1,1,0,1.5H6a4.8,4.8,0,0,1-4.79-4.79V7.83A4.8,4.8,0,0,1,6,3h5.43a.75.75,0,0,1,0,1.5ZM22.75,7.83v8.34A4.8,4.8,0,0,1,18,21H15.57v.23a.75.75,0,1,1-1.5,0V2.81a.75.75,0,1,1,1.5,0V3H18A4.8,4.8,0,0,1,22.75,7.83Zm-1.5,0A3.3,3.3,0,0,0,18,4.54H15.57V19.46H18a3.3,3.3,0,0,0,3.29-3.29ZM4.31,12a1,1,0,1,0,1-1A1,1,0,0,0,4.31,12ZM7.9,12a1,1,0,1,0,1-1A1,1,0,0,0,7.9,12Z"/></g></svg>