<svg xmlns="http://www.w3.org/2000/svg" viewBox="0 0 24 24"><g id="security"><path id="scan-barcode" d="M9.29,11.5H6.71A2.21,2.21,0,0,1,4.5,9.29V6.71A2.21,2.21,0,0,1,6.71,4.5H9.29A2.21,2.21,0,0,1,11.5,6.71V9.29A2.21,2.21,0,0,1,9.29,11.5ZM6.71,6A.71.71,0,0,0,6,6.71V9.29a.71.71,0,0,0,.71.71H9.29A.71.71,0,0,0,10,9.29V6.71A.71.71,0,0,0,9.29,6Zm10.58,5.5H14.71A2.21,2.21,0,0,1,12.5,9.29V6.71A2.21,2.21,0,0,1,14.71,4.5h2.58A2.21,2.21,0,0,1,19.5,6.71V9.29A2.21,2.21,0,0,1,17.29,11.5ZM14.71,6a.71.71,0,0,0-.71.71V9.29a.71.71,0,0,0,.71.71h2.58A.71.71,0,0,0,18,9.29V6.71A.71.71,0,0,0,17.29,6ZM9.29,19.5H6.71A2.21,2.21,0,0,1,4.5,17.29V14.71A2.21,2.21,0,0,1,6.71,12.5H9.29a2.21,2.21,0,0,1,2.21,2.21v2.58A2.21,2.21,0,0,1,9.29,19.5ZM6.71,14a.71.71,0,0,0-.71.71v2.58a.71.71,0,0,0,.71.71H9.29a.71.71,0,0,0,.71-.71V14.71A.71.71,0,0,0,9.29,14Zm10.58,5.5H14.71a2.21,2.21,0,0,1-2.21-2.21V14.71a2.21,2.21,0,0,1,2.21-2.21h2.58a2.21,2.21,0,0,1,2.21,2.21v2.58A2.21,2.21,0,0,1,17.29,19.5ZM14.71,14a.71.71,0,0,0-.71.71v2.58a.71.71,0,0,0,.71.71h2.58a.71.71,0,0,0,.71-.71V14.71a.71.71,0,0,0-.71-.71Zm-12-5V6.25A3.57,3.57,0,0,1,6.25,2.68H8.56a.75.75,0,0,0,0-1.5H6.25A5.07,5.07,0,0,0,1.18,6.25V9a.75.75,0,0,0,1.5,0ZM22.82,9V6.25a5.07,5.07,0,0,0-5.06-5.07H14.57a.75.75,0,1,0,0,1.5h3.19a3.57,3.57,0,0,1,3.56,3.57V9a.75.75,0,0,0,1.5,0ZM9.31,22.07a.76.76,0,0,0-.75-.75H6.25a3.57,3.57,0,0,1-3.57-3.57V15a.75.75,0,0,0-1.5,0v2.75a5.07,5.07,0,0,0,5.07,5.07H8.56A.76.76,0,0,0,9.31,22.07Zm13.51-4.32V15a.75.75,0,0,0-1.5,0v2.75a3.57,3.57,0,0,1-3.56,3.57H14.57a.75.75,0,0,0,0,1.5h3.19A5.07,5.07,0,0,0,22.82,17.75Z"/></g></svg>