<svg xmlns="http://www.w3.org/2000/svg" viewBox="0 0 24 24"><g id="security"><path id="security-user" d="M12,22.75a4.14,4.14,0,0,1-2.63-.94L4.78,18.06a4.12,4.12,0,0,1-1.52-3.21V7.5A4.15,4.15,0,0,1,5.68,3.73l4.59-2.1a4.1,4.1,0,0,1,3.46,0l4.59,2.1A4.15,4.15,0,0,1,20.74,7.5v7.35a4.12,4.12,0,0,1-1.52,3.21l-4.59,3.75A4.14,4.14,0,0,1,12,22.75Zm0-20A2.63,2.63,0,0,0,10.9,3L6.31,5.09A2.66,2.66,0,0,0,4.76,7.5v7.35a2.62,2.62,0,0,0,1,2l4.59,3.75h0a2.65,2.65,0,0,0,3.36,0l4.59-3.75a2.62,2.62,0,0,0,1-2V7.5a2.66,2.66,0,0,0-1.55-2.41L13.1,3A2.63,2.63,0,0,0,12,2.75Zm0,15.33c-2.52,0-4.49-1.43-4.49-3.26a3.35,3.35,0,0,1,2.62-3,3.23,3.23,0,0,1-1.4-2.67,3.27,3.27,0,0,1,6.54,0,3.23,3.23,0,0,1-1.4,2.67,3.35,3.35,0,0,1,2.62,3C16.49,16.65,14.52,18.08,12,18.08Zm0-5c-1.59,0-3,.82-3,1.75s1.4,1.76,3,1.76,3-.82,3-1.76S13.59,13.07,12,13.07Zm0-5.65a1.76,1.76,0,1,0,1.77,1.76A1.76,1.76,0,0,0,12,7.42Z"/></g></svg>