<svg xmlns="http://www.w3.org/2000/svg" viewBox="0 0 24 24"><g id="security"><path id="shield-search" d="M10.75,22.76H10.7a4,4,0,0,1-2.36-.93l-4.6-3.75a4.14,4.14,0,0,1-1.52-3.22V7.51A4.16,4.16,0,0,1,4.64,3.73l4.6-2.1a4.1,4.1,0,0,1,3.46,0l4.59,2.1a4.16,4.16,0,0,1,2.43,3.78v2.62a.75.75,0,1,1-1.5,0V7.51a2.67,2.67,0,0,0-1.55-2.42L12.07,3A2.66,2.66,0,0,0,9.86,3L5.27,5.09A2.67,2.67,0,0,0,3.72,7.51v7.35a2.65,2.65,0,0,0,1,2.06l4.6,3.75a2.68,2.68,0,0,0,1.51.6.75.75,0,0,1-.05,1.49Zm9.59-6.45a5.06,5.06,0,1,0-5.06,5.07A5.07,5.07,0,0,0,20.34,16.31Zm-1.5,0a3.56,3.56,0,1,1-3.56-3.56A3.56,3.56,0,0,1,18.84,16.31Zm1.23,3.83a1,1,0,1,0,1,1A1,1,0,0,0,20.07,20.14Z"/></g></svg>