<svg xmlns="http://www.w3.org/2000/svg" viewBox="0 0 24 24"><g id="security"><g id="security-2" data-name="security"><path id="shield-slash" d="M20.73,14.85a4.2,4.2,0,0,1-1.52,3.22l-4.59,3.74a4.17,4.17,0,0,1-5.25,0L7.81,20.54a.77.77,0,0,1-.08-1.08.76.76,0,0,1,1.08-.08l1.56,1.27a2.66,2.66,0,0,0,3.35,0l4.59-3.75a2.63,2.63,0,0,0,1-2V8.38a.75.75,0,1,1,1.5,0ZM21.25,4,3.8,21.39a.75.75,0,0,1-1.06-1.06L5,18.17l-.12-.1A4.15,4.15,0,0,1,3.3,14.85V7.52A4.18,4.18,0,0,1,5.68,3.74l4.59-2.09a4.08,4.08,0,0,1,3.45,0l4.59,2.09a4.23,4.23,0,0,1,.68.41L20.19,3A.75.75,0,1,1,21.25,4ZM6,17.1,17.89,5.24a.74.74,0,0,0-.21-.13L13.1,3a2.66,2.66,0,0,0-2.21,0L6.31,5.11A2.65,2.65,0,0,0,4.76,7.52v7.33a2.69,2.69,0,0,0,1,2Z"/></g></g></svg>