<svg xmlns="http://www.w3.org/2000/svg" viewBox="0 0 24 24"><g id="security"><path id="shield" d="M11.69,22.75a4.12,4.12,0,0,1-2.63-.94L4.47,18.06A4.12,4.12,0,0,1,3,14.85V7.5A4.15,4.15,0,0,1,5.37,3.73L10,1.63a4.08,4.08,0,0,1,3.45,0L18,3.73A4.15,4.15,0,0,1,20.43,7.5v7.35a4.15,4.15,0,0,1-1.52,3.21l-4.6,3.75A4.09,4.09,0,0,1,11.69,22.75Zm0-20A2.71,2.71,0,0,0,10.58,3L6,5.09A2.65,2.65,0,0,0,4.45,7.5v7.35a2.62,2.62,0,0,0,1,2L10,20.65h0a2.65,2.65,0,0,0,3.35,0L18,16.9a2.62,2.62,0,0,0,1-2V7.5a2.66,2.66,0,0,0-1.55-2.41L12.79,3A2.66,2.66,0,0,0,11.69,2.75Z"/></g></svg>