<svg xmlns="http://www.w3.org/2000/svg" viewBox="0 0 24 24"><g id="security"><path id="shield-cross" d="M18.32,3.73l-4.59-2.1a4.1,4.1,0,0,0-3.46,0L5.68,3.73A4.15,4.15,0,0,0,3.26,7.5v7.35a4.12,4.12,0,0,0,1.52,3.21l4.59,3.75a4.15,4.15,0,0,0,5.26,0l4.59-3.75a4.12,4.12,0,0,0,1.52-3.21V7.5A4.15,4.15,0,0,0,18.32,3.73Zm.92,11.12a2.62,2.62,0,0,1-1,2l-4.59,3.75a2.66,2.66,0,0,1-3.36,0L5.73,16.9a2.62,2.62,0,0,1-1-2V7.5A2.66,2.66,0,0,1,6.31,5.09L10.9,3a2.64,2.64,0,0,1,2.2,0l4.59,2.1A2.66,2.66,0,0,1,19.24,7.5Zm-4.72-4.27L13.07,12l1.45,1.42a.75.75,0,0,1,0,1.06.76.76,0,0,1-.54.22.73.73,0,0,1-.52-.21L12,13.05l-1.46,1.44a.77.77,0,0,1-.53.21.76.76,0,0,1-.54-.22.75.75,0,0,1,0-1.06L10.93,12,9.48,10.58a.75.75,0,0,1,0-1.06.77.77,0,0,1,1.07,0L12,11l1.47-1.44a.75.75,0,1,1,1,1.07Z"/></g></svg>