<svg xmlns="http://www.w3.org/2000/svg" viewBox="0 0 24 24"><g id="security"><path id="shield-tick" d="M12,22.75a4.14,4.14,0,0,1-2.63-.94L4.78,18.06a4.12,4.12,0,0,1-1.52-3.21V7.5A4.15,4.15,0,0,1,5.68,3.73l4.59-2.1a4.1,4.1,0,0,1,3.46,0l4.59,2.1A4.15,4.15,0,0,1,20.74,7.5v7.35a4.12,4.12,0,0,1-1.52,3.21l-4.59,3.75A4.14,4.14,0,0,1,12,22.75Zm0-20A2.63,2.63,0,0,0,10.9,3L6.31,5.09A2.66,2.66,0,0,0,4.76,7.5v7.35a2.62,2.62,0,0,0,1,2l4.59,3.75h0a2.66,2.66,0,0,0,3.36,0l4.59-3.75a2.62,2.62,0,0,0,1-2V7.5a2.66,2.66,0,0,0-1.55-2.41L13.1,3A2.63,2.63,0,0,0,12,2.75Zm-.8,11.82,4.18-4.07a.75.75,0,0,0,0-1.06.75.75,0,0,0-1.06,0L10.69,13l-1-1A.75.75,0,1,0,8.61,13l1.53,1.57a.76.76,0,0,0,.54.23A.74.74,0,0,0,11.2,14.57Z"/></g></svg>