<svg xmlns="http://www.w3.org/2000/svg" viewBox="0 0 24 24"><g id="arrows"><path id="arrow-circle-right" d="M20.78,11.11l-1.56,1.64v-5A4.35,4.35,0,0,0,15,3.32H6.32A4.34,4.34,0,0,0,2.05,7.73v8.91A4.34,4.34,0,0,0,6.32,21H15a4.25,4.25,0,0,0,4-2.79.76.76,0,0,0-.41-1,.72.72,0,0,0-.94.42A2.81,2.81,0,0,1,15,19.54H6.32a2.86,2.86,0,0,1-2.82-2.9V7.73A2.87,2.87,0,0,1,6.32,4.82H15a2.87,2.87,0,0,1,2.81,2.91v5.11l-1.65-1.73a.75.75,0,0,0-1.06,0,.75.75,0,0,0,0,1.06l2.88,3a.76.76,0,0,0,1.09,0l2.88-3a.75.75,0,0,0,0-1.06A.75.75,0,0,0,20.78,11.11Z"/></g></svg>