<svg xmlns="http://www.w3.org/2000/svg" viewBox="0 0 24 24"><g id="arrows"><path id="arrows-circle" d="M4.8,10.59A.77.77,0,0,1,4,11.2l-.17,0a.77.77,0,0,1-.59-.92,9.5,9.5,0,0,1,9.21-7.37,9.4,9.4,0,0,1,6.79,2.9V3.06a.78.78,0,0,1,1.56,0V7.71a.78.78,0,0,1-.78.77H15.34a.78.78,0,1,1,0-1.55h2.89A7.88,7.88,0,0,0,4.8,10.59Zm16.33,2.72a.78.78,0,0,0-.92.6A7.87,7.87,0,0,1,6.67,17.63h3a.78.78,0,0,0,.78-.78.77.77,0,0,0-.78-.77H5.32a.77.77,0,0,0-.77.77v4.5a.78.78,0,1,0,1.55,0v-2.1a9.42,9.42,0,0,0,15.63-5A.76.76,0,0,0,21.13,13.31Z"/></g></svg>