<svg xmlns="http://www.w3.org/2000/svg" viewBox="0 0 24 24"><g id="arrows"><path id="arrow-up-down" d="M20,18.45a.74.74,0,0,1-.22.56L16.92,21.8a.68.68,0,0,1-1,0l-2.58-2.73a.77.77,0,0,1,0-1.06.67.67,0,0,1,1,0l1.37,1.44,0-16.68a.71.71,0,1,1,1.41,0h0l0,16.78,1.64-1.62a.68.68,0,0,1,1,0A.73.73,0,0,1,20,18.45ZM8,2.22A.68.68,0,0,0,7.45,2h0a.72.72,0,0,0-.51.22L4.23,5.05a.76.76,0,0,0,0,1,.7.7,0,0,0,.5.21.68.68,0,0,0,.5-.22L6.66,4.6V21.27a.71.71,0,1,0,1.42,0V4.45L9.5,5.94a.69.69,0,0,0,1,0,.75.75,0,0,0,0-1Z"/></g></svg>