<svg xmlns="http://www.w3.org/2000/svg" viewBox="0 0 24 24"><g id="arrows"><path id="arrow-two-diagonals" d="M18.64,10.42h0a.75.75,0,0,0,.75-.75l.05-4.2a.75.75,0,0,0-.22-.53.66.66,0,0,0-.54-.22l-4.2,0a.74.74,0,0,0-.74.76.75.75,0,0,0,.75.74h0l2.12,0L12,10.86,7.41,6.24l2.1,0h0a.75.75,0,0,0,.75-.74.74.74,0,0,0-.74-.76l-4.2,0a.7.7,0,0,0-.54.22.79.79,0,0,0-.22.54l.05,4.2a.75.75,0,0,0,.75.75h0a.76.76,0,0,0,.75-.76L6.08,7,11,11.93,6.17,16.75l0-2.41a.75.75,0,0,0-.74-.76h0a.76.76,0,0,0-.75.75l0,4.2a.79.79,0,0,0,.22.54.75.75,0,0,0,.53.22h0l4.2-.05a.74.74,0,0,0,.74-.76.76.76,0,0,0-.76-.74l-2.32,0L12,13l4.75,4.78-2.35,0a.78.78,0,0,0-.76.75.74.74,0,0,0,.74.75l4.2.05h0a.75.75,0,0,0,.53-.22.79.79,0,0,0,.22-.54l0-4.2a.75.75,0,0,0-1.5,0l0,2.38-4.76-4.79,4.85-4.88,0,2.61A.76.76,0,0,0,18.64,10.42Z"/></g></svg>