<svg xmlns="http://www.w3.org/2000/svg" viewBox="0 0 24 24"><g id="arrows"><path id="arrow-right-left" d="M22,17.19a.75.75,0,0,1-.74.75h0L4.53,18l1.61,1.72a.76.76,0,0,1,0,1.06.74.74,0,0,1-.5.2A.77.77,0,0,1,5,20.7l-2.77-3a.75.75,0,0,1,0-1L5,14a.75.75,0,0,1,1.06,0,.73.73,0,0,1,0,1L4.63,16.46l16.62,0A.75.75,0,0,1,22,17.19ZM19,4.36a.72.72,0,0,0-1,0,.75.75,0,0,0,0,1l1.48,1.5H2.8a.75.75,0,0,0,0,1.49H19.56l-1.49,1.5a.75.75,0,0,0,0,1.05.71.71,0,0,0,.52.23A.7.7,0,0,0,19.1,11l2.68-2.69A.75.75,0,0,0,22,7.75a.79.79,0,0,0-.22-.54Z"/></g></svg>