<svg xmlns="http://www.w3.org/2000/svg" viewBox="0 0 24 24"><g id="arrows"><path id="arrow-circle-left" d="M17.77,3.32H9.14A4.35,4.35,0,0,0,4.87,7.73v5L3.31,11.11a.75.75,0,0,0-1.06,0,.75.75,0,0,0,0,1.06l2.88,3a.76.76,0,0,0,1.09,0l2.88-3a.75.75,0,0,0,0-1.06.75.75,0,0,0-1.06,0L6.33,12.84V7.73A2.87,2.87,0,0,1,9.14,4.82h8.63a2.87,2.87,0,0,1,2.82,2.91v8.91a2.86,2.86,0,0,1-2.82,2.9H9.14A2.81,2.81,0,0,1,6.52,17.7a.72.72,0,0,0-.94-.42.76.76,0,0,0-.41,1,4.25,4.25,0,0,0,4,2.79h8.63a4.34,4.34,0,0,0,4.28-4.4V7.73A4.35,4.35,0,0,0,17.77,3.32Z"/></g></svg>