<svg xmlns="http://www.w3.org/2000/svg" viewBox="0 0 24 24"><g id="arrows"><path id="arrow-mix" d="M21.81,5.71a.77.77,0,0,1,0,1.06L19.16,9.51a.72.72,0,0,1-.51.22.74.74,0,0,1-.51-.22.77.77,0,0,1,0-1.06l1.31-1.37-2.66,0-11,11.3a.7.7,0,0,1-.51.22H2.73a.75.75,0,0,1,0-1.5H5L9.91,12,5,6.93H2.73a.75.75,0,0,1,0-1.5H5.27a.7.7,0,0,1,.51.22L10.94,11l5-5.18a.77.77,0,0,1,.52-.22l3.1,0h0L18.24,4.13a.77.77,0,0,1,0-1.06.71.71,0,0,1,1,0Zm-2.57,8.78a.71.71,0,0,0-1,0,.77.77,0,0,0,0,1.06l1.32,1.37-2.39,0-2.5-2.57a.71.71,0,0,0-1,0,.76.76,0,0,0,0,1.06l2.71,2.79a.72.72,0,0,0,.51.22h0l2.66,0-1.4,1.45a.75.75,0,0,0,0,1.06.68.68,0,0,0,.51.22.7.7,0,0,0,.51-.22l2.64-2.74a.77.77,0,0,0,0-1.06Z"/></g></svg>