<svg xmlns="http://www.w3.org/2000/svg" viewBox="0 0 24 24"><g id="setting"><path id="category" d="M7.73,10.54H4.83A2.83,2.83,0,0,1,2,7.71V4.8A2.83,2.83,0,0,1,4.83,2h2.9A2.83,2.83,0,0,1,10.56,4.8V7.71A2.83,2.83,0,0,1,7.73,10.54ZM22,7.74V4.84A2.83,2.83,0,0,0,19.17,2h-2.9a2.83,2.83,0,0,0-2.83,2.83v2.9a2.83,2.83,0,0,0,2.83,2.83h2.9A2.83,2.83,0,0,0,22,7.74ZM10.56,19.16v-2.9a2.83,2.83,0,0,0-2.83-2.83H4.83A2.83,2.83,0,0,0,2,16.26v2.9A2.83,2.83,0,0,0,4.83,22h2.9A2.83,2.83,0,0,0,10.56,19.16ZM22,19.2V16.29a2.83,2.83,0,0,0-2.83-2.83h-2.9a2.83,2.83,0,0,0-2.83,2.83V19.2A2.83,2.83,0,0,0,16.27,22h2.9A2.83,2.83,0,0,0,22,19.2Z"/></g></svg>