<svg xmlns="http://www.w3.org/2000/svg" viewBox="0 0 24 24"><g id="setting"><path id="setting-3" d="M16.87,2H7.13A5.13,5.13,0,0,0,2,7.13v9.74A5.13,5.13,0,0,0,7.13,22h9.74A5.13,5.13,0,0,0,22,16.87V7.13A5.13,5.13,0,0,0,16.87,2ZM7.67,5.5a.75.75,0,0,1,1.5,0V9.4a.75.75,0,0,1-1.5,0Zm1.5,11v2a.74.74,0,0,1-.74.75h0a.76.76,0,0,1-.75-.75v-2a2.73,2.73,0,1,1,1.5,0Zm7.16,2a.75.75,0,0,1-1.5,0V14.6a.75.75,0,0,1,1.5,0Zm-.75-5.65a2.72,2.72,0,0,1-.75-5.34v-2a.72.72,0,0,1,.76-.75.74.74,0,0,1,.74.75v2a2.72,2.72,0,0,1-.75,5.34Z"/></g></svg>