<svg xmlns="http://www.w3.org/2000/svg" viewBox="0 0 24 24"><g id="software"><path id="android" d="M14.8,9.29H9.2a2.77,2.77,0,0,0-2.76,2.76v5.62A2.76,2.76,0,0,0,9,20.41v1.31a1,1,0,1,0,2,0V20.43h2v1.29a1,1,0,1,0,2,0V20.41a2.76,2.76,0,0,0,2.53-2.74V12.05A2.77,2.77,0,0,0,14.8,9.29ZM16,17.67a1.22,1.22,0,0,1-1.22,1.22H9.2A1.22,1.22,0,0,1,8,17.67V12.05A1.22,1.22,0,0,1,9.2,10.83h5.6A1.22,1.22,0,0,1,16,12.05ZM4.81,12.1v4.12a1,1,0,0,1-2.06,0V12.1a1,1,0,0,1,2.06,0Zm16.44,0v4.12a1,1,0,0,1-2.06,0V12.1a1,1,0,0,1,2.06,0ZM9.61,8.16h4.15a2.49,2.49,0,0,0,2.53-2.43,4.61,4.61,0,0,0-9.21,0A2.48,2.48,0,0,0,9.61,8.16Zm2.07-5.37a3,3,0,0,1,3.07,3,1,1,0,0,1-1,.88H9.61a1,1,0,0,1-1-.89A3,3,0,0,1,11.68,2.79Z"/></g></svg>