<svg xmlns="http://www.w3.org/2000/svg" viewBox="0 0 24 24"><g id="software"><path id="angular" d="M11.89,22.75a4.11,4.11,0,0,1-2.09-.57L5.26,19.53a4.14,4.14,0,0,1-2-3.21L2.48,7.78A4.16,4.16,0,0,1,5.12,3.55l5.29-2a4.19,4.19,0,0,1,3,0l5.29,2A4.16,4.16,0,0,1,21.3,7.78l-.76,8.54a4.15,4.15,0,0,1-2,3.21L14,22.18A4.11,4.11,0,0,1,11.89,22.75Zm0-20a2.74,2.74,0,0,0-.94.17L5.66,5A2.66,2.66,0,0,0,4,7.65l.76,8.54a2.63,2.63,0,0,0,1.29,2l4.54,2.66a2.64,2.64,0,0,0,2.66,0l4.54-2.66h0a2.65,2.65,0,0,0,1.29-2l.75-8.54A2.63,2.63,0,0,0,18.12,5l-5.29-2A2.74,2.74,0,0,0,11.89,2.75Zm5.35,13.1L12.57,6a.75.75,0,0,0-1.36,0L6.72,15.86a.75.75,0,0,0,.38,1,.67.67,0,0,0,.31.07.75.75,0,0,0,.68-.44l1.23-2.7H14.6l1.29,2.71a.75.75,0,1,0,1.35-.64ZM10,12.28,11.9,8.1l2,4.18Z"/></g></svg>