<svg xmlns="http://www.w3.org/2000/svg" viewBox="0 0 24 24"><g id="software"><path id="apple" d="M12.93,7.35a1.52,1.52,0,0,1-1-.37,1.42,1.42,0,0,1-.5-1.23A5.35,5.35,0,0,1,12.64,3,5.66,5.66,0,0,1,15,1.34a1.47,1.47,0,0,1,1.44.24A1.51,1.51,0,0,1,17,3a5.56,5.56,0,0,1-1.12,2.6h0a5,5,0,0,1-2.58,1.73A1.32,1.32,0,0,1,12.93,7.35Zm2.6-4.6A4.21,4.21,0,0,0,13.8,4a3.8,3.8,0,0,0-.87,1.94,4,4,0,0,0,1.78-1.26h0A4,4,0,0,0,15.53,2.75Zm-6.24,20h0c-1.73,0-3-1.57-3.83-2.92-2.24-3.44-2.7-7.76-1.08-10.27A5.61,5.61,0,0,1,8.9,6.85a6.29,6.29,0,0,1,2.21.47,4,4,0,0,0,1.36.33A4.66,4.66,0,0,0,14,7.29a5.72,5.72,0,0,1,2.3-.44A5.25,5.25,0,0,1,19.14,8a1.78,1.78,0,0,1,.69,1.34,1.69,1.69,0,0,1-.54,1.33h0a3.31,3.31,0,0,0-1,2.73A3.47,3.47,0,0,0,19.8,16a1.74,1.74,0,0,1,.64,2.21,12.76,12.76,0,0,1-.86,1.5c-1,1.51-2.21,3.05-3.89,3.07A3.23,3.23,0,0,1,14,22.33,3.48,3.48,0,0,0,12.49,22a3.35,3.35,0,0,0-1.56.37A3.61,3.61,0,0,1,9.29,22.75ZM8.9,8.35a4.1,4.1,0,0,0-3.29,2c-1.1,1.7-1.09,5.31,1.07,8.63.68,1,1.58,2.23,2.59,2.24A2.2,2.2,0,0,0,10.32,21a4.68,4.68,0,0,1,2.17-.51h0a4.54,4.54,0,0,1,2.14.51,2.69,2.69,0,0,0,1,.28c1,0,1.93-1.28,2.65-2.39a10.21,10.21,0,0,0,.77-1.34.21.21,0,0,0-.1-.28,5,5,0,0,1-2.22-3.73,4.8,4.8,0,0,1,1.5-4h0a.17.17,0,0,0,.06-.16.29.29,0,0,0-.1-.22,3.82,3.82,0,0,0-2-.82,4.37,4.37,0,0,0-1.7.36,6,6,0,0,1-2,.44,5.29,5.29,0,0,1-1.87-.42A4.8,4.8,0,0,0,8.9,8.35Z"/></g></svg>