<svg xmlns="http://www.w3.org/2000/svg" viewBox="0 0 24 24"><g id="software"><path id="soft-1" d="M23,9.91a2.25,2.25,0,0,1-2.24-2.24V6.56a4.31,4.31,0,0,0-4.31-4.31H7.58A4.31,4.31,0,0,0,3.27,6.56V7.67A2.24,2.24,0,0,1,1,9.91a.74.74,0,0,0-.75.75v2.63A.75.75,0,0,0,1,14a2.24,2.24,0,0,1,2.24,2.24v1.16a4.31,4.31,0,0,0,4.31,4.31h8.84a4.31,4.31,0,0,0,4.31-4.31V16.28A2.25,2.25,0,0,1,23,14a.74.74,0,0,0,.75-.75V10.66A.74.74,0,0,0,23,9.91Zm-.75,2.71a3.75,3.75,0,0,0-3,3.66v1.16a2.81,2.81,0,0,1-2.81,2.81H7.58a2.81,2.81,0,0,1-2.81-2.81V16.28a3.75,3.75,0,0,0-3-3.66V11.33a3.75,3.75,0,0,0,3-3.66V6.56A2.81,2.81,0,0,1,7.58,3.75h8.84a2.81,2.81,0,0,1,2.81,2.81V7.67a3.75,3.75,0,0,0,3,3.66ZM15.47,10a2.81,2.81,0,0,0-2.82-2.81H9.75A.75.75,0,0,0,9,7.93v8.25a.75.75,0,0,0,.75.75h2.9a2.81,2.81,0,0,0,2.82-2.81,2.78,2.78,0,0,0-.92-2.06A2.82,2.82,0,0,0,15.47,10ZM14,14.12a1.32,1.32,0,0,1-1.32,1.31H10.5V12.81h2.15A1.31,1.31,0,0,1,14,14.12ZM10.5,11.31V8.68h2.15a1.32,1.32,0,1,1,0,2.63Z"/></g></svg>