<svg xmlns="http://www.w3.org/2000/svg" viewBox="0 0 24 24"><g id="software"><path id="css" d="M12,22.75a3.06,3.06,0,0,1-.9-.13L6.35,21.26A3.26,3.26,0,0,1,4,18.47L2.59,4.84a3.29,3.29,0,0,1,.82-2.51A3.25,3.25,0,0,1,5.83,1.25H18.17a3.25,3.25,0,0,1,3.24,3.58L20,18.46a3.23,3.23,0,0,1-2.34,2.8h0l-4.78,1.36A3,3,0,0,1,12,22.75Zm-6.17-20A1.77,1.77,0,0,0,4.08,4.68L5.5,18.31a1.75,1.75,0,0,0,1.26,1.5l4.75,1.37a1.78,1.78,0,0,0,1,0l4.78-1.37a1.74,1.74,0,0,0,1.26-1.5l1.4-13.63a1.77,1.77,0,0,0-1.75-1.93ZM17.47,20.53h0Zm-.4-14a.77.77,0,0,0-.57-.25h-9a.76.76,0,1,0,0,1.51h8.16l-.28,2.61H8a.76.76,0,1,0,0,1.51h7.19l-.38,3.52-2.77.82-2.88-.88L8.8,14a.75.75,0,0,0-1.45.41l.5,1.77a.77.77,0,0,0,.5.52l3.49,1.08a.83.83,0,0,0,.22,0,.78.78,0,0,0,.22,0l3.48-1a.75.75,0,0,0,.53-.64l1-9A.74.74,0,0,0,17.07,6.49Z"/></g></svg>