<svg xmlns="http://www.w3.org/2000/svg" viewBox="0 0 24 24"><g id="software"><path id="dj" d="M12.1,17.24H8.57a5.68,5.68,0,0,1,0-11.36H10V3.07a2.15,2.15,0,0,1,4.3,0v12A2.15,2.15,0,0,1,12.1,17.24ZM8.57,7.38a4.18,4.18,0,0,0,0,8.36H12.1a.65.65,0,0,0,.65-.65v-12a.65.65,0,0,0-1.3,0V6.63a.75.75,0,0,1-.75.75Zm2.13,7.06H8.57a2.88,2.88,0,0,1,0-5.76H10.7a.76.76,0,0,1,.75.75v4.26A.75.75,0,0,1,10.7,14.44ZM8.57,10.18a1.38,1.38,0,0,0,0,2.76H10V10.18Zm7.48,12.9a2.15,2.15,0,0,1-.7-4.18,2.08,2.08,0,0,0,1.46-2v-9a2.15,2.15,0,1,1,4.3,0v9A6.39,6.39,0,0,1,16.75,23,2.15,2.15,0,0,1,16.05,23.08ZM19,7.27a.65.65,0,0,0-.65.65v9a3.58,3.58,0,0,1-2.47,3.38.65.65,0,1,0,.42,1.23,4.86,4.86,0,0,0,3.35-4.61v-9A.65.65,0,0,0,19,7.27ZM19,5.2A2.14,2.14,0,1,1,21.1,3.06,2.14,2.14,0,0,1,19,5.2Zm0-2.78a.64.64,0,1,0,.64.64A.64.64,0,0,0,19,2.42Z"/></g></svg>