<svg xmlns="http://www.w3.org/2000/svg" viewBox="0 0 24 24"><g id="software"><path id="soft-4" d="M21.69,11,19.1,9.14l2.58-1.82a1.67,1.67,0,0,0,0-2.73l-4.09-3a1.68,1.68,0,0,0-2,0L12,4.13,8.35,1.56a1.68,1.68,0,0,0-2,0l-4.09,3A1.69,1.69,0,0,0,1.6,6a1.66,1.66,0,0,0,.72,1.35L4.9,9.14,2.32,11a1.66,1.66,0,0,0-.72,1.35,1.71,1.71,0,0,0,.68,1.38l1.59,1.18V17a2.6,2.6,0,0,0,1.3,2.23l5.55,3.2a2.57,2.57,0,0,0,2.59,0l5.54-3.2A2.57,2.57,0,0,0,20.15,17V14.86l1.58-1.17a1.69,1.69,0,0,0,0-2.73ZM12,12.3,7.5,9.14,12,6l4.5,3.17Zm4.51-9.52a.2.2,0,0,1,.22,0l4.09,3A.16.16,0,0,1,20.9,6a.2.2,0,0,1-.08.15l-3,2.12L13.3,5.05ZM3.1,6a.16.16,0,0,1,.08-.15l4.09-3a.15.15,0,0,1,.11,0,.2.2,0,0,1,.11,0L10.7,5.05,6.2,8.22l-3-2.12A.2.2,0,0,1,3.1,6Zm0,6.38a.17.17,0,0,1,.08-.14h0l3-2.14,4.5,3.16L7.33,15.58l-4.15-3.1A.16.16,0,0,1,3.1,12.33ZM18.65,16v1a1,1,0,0,1-.54.94l-5.54,3.2a1.07,1.07,0,0,1-1.09,0L5.93,17.9A1.09,1.09,0,0,1,5.38,17V16l1.49,1.11a.7.7,0,0,0,.21.11h.08l.15,0h0a.76.76,0,0,0,.16,0h.06a.62.62,0,0,0,.22-.1l1.44-1,2.81-2,2.81,2,1.44,1a.62.62,0,0,0,.22.1h.06a.76.76,0,0,0,.16,0h0l.15,0h.08a.7.7,0,0,0,.21-.11Zm2.17-3.5-1.88,1.41h0l-2.27,1.69L13.3,13.21l4.5-3.16,3,2.14a.17.17,0,0,1,.08.14A.16.16,0,0,1,20.82,12.48Z"/></g></svg>