<svg xmlns="http://www.w3.org/2000/svg" viewBox="0 0 24 24"><g id="software"><path id="figma" d="M17.67,8.67a4.08,4.08,0,0,0-2.34-7.42H8.67A4.08,4.08,0,0,0,6.33,8.67a4.07,4.07,0,0,0,0,6.67,4.08,4.08,0,1,0,6.42,3.33V15.13a4,4,0,0,0,2.58.95,4.07,4.07,0,0,0,2.34-7.41Zm.24-3.34a2.59,2.59,0,0,1-2.58,2.58H12.75V2.75h2.58A2.59,2.59,0,0,1,17.91,5.33ZM8.67,2.75h2.58V7.91H8.67a2.58,2.58,0,0,1,0-5.16Zm0,6.67h2.58v5.16H8.67a2.58,2.58,0,1,1,0-5.16Zm0,11.83a2.58,2.58,0,0,1,0-5.16h2.58v2.59A2.59,2.59,0,0,1,8.67,21.25Zm6.66-6.67A2.58,2.58,0,1,1,17.91,12,2.59,2.59,0,0,1,15.33,14.58Z"/></g></svg>