<svg xmlns="http://www.w3.org/2000/svg" viewBox="0 0 24 24"><g id="software"><path id="github" d="M12,1.56A10.44,10.44,0,0,0,9.35,22.09a10.25,10.25,0,0,0,6.11-.25A10.43,10.43,0,0,0,12,1.56ZM14.79,21a9.32,9.32,0,0,1-4.81.2V19.29a.49.49,0,0,0-.45-.49l-1.6-.17a1.21,1.21,0,0,1-.38-.12A1.16,1.16,0,0,1,7,18c-.07-.17-.14-.31-.22-.47.11.13.22.28.34.45a1,1,0,0,0,.6.34,1.08,1.08,0,0,0,.31,0l1.64-.17a.49.49,0,0,0,.42-.33,2.49,2.49,0,0,1,.7-1,.67.67,0,0,0,.2-.68.69.69,0,0,0-.55-.49,6.28,6.28,0,0,1-1.65-.48,3.47,3.47,0,0,1-2.13-3.43A3.26,3.26,0,0,1,7.58,9.5.48.48,0,0,0,7.69,9a5.13,5.13,0,0,1-.15-2.25,3.69,3.69,0,0,1,1.93,1A.49.49,0,0,0,10,8a7.72,7.72,0,0,1,4.66,0,.49.49,0,0,0,.53-.15,4.38,4.38,0,0,1,1.84-1A4.52,4.52,0,0,1,17,8.93a.52.52,0,0,0,.13.47,3.27,3.27,0,0,1,1,2.27c0,2.07-1.35,3.46-3.8,3.9a.68.68,0,0,0-.54.5.65.65,0,0,0,.21.68,2.4,2.4,0,0,1,.83,1.82Zm1-.38V18.57A3.39,3.39,0,0,0,15,16.43c2.59-.65,4.06-2.36,4.06-4.76A4.18,4.18,0,0,0,18,8.91a5.48,5.48,0,0,0,0-2.42.94.94,0,0,0-1.13-.68,4.82,4.82,0,0,0-2.2,1.09,8.78,8.78,0,0,0-4.66,0A4.74,4.74,0,0,0,7.76,5.81a.93.93,0,0,0-1.12.66A5.4,5.4,0,0,0,6.66,9a4.14,4.14,0,0,0-1,2.63A4.47,4.47,0,0,0,8.4,16a7.15,7.15,0,0,0,1.33.44,3.63,3.63,0,0,0-.43.71l-1.2.12-.19,0a5.63,5.63,0,0,0-.53-.64,5.86,5.86,0,0,0-1.36-1A.83.83,0,0,0,5.11,17a4,4,0,0,1,.75.86,2.93,2.93,0,0,1,.26.5,2.2,2.2,0,0,0,1,1,2.16,2.16,0,0,0,.72.22L9,19.74v1.19a9.44,9.44,0,1,1,6.81-.3Z"/></g></svg>