<svg xmlns="http://www.w3.org/2000/svg" viewBox="0 0 24 24"><g id="software"><path id="google" d="M12,22.75A10.76,10.76,0,0,1,1.37,10.35,10.75,10.75,0,0,1,17.93,3a2.06,2.06,0,0,1,.9,1.45,2.15,2.15,0,0,1-.54,1.7l-.91,1a2.09,2.09,0,0,1-2.67.34A5.27,5.27,0,0,0,10.34,7a5.18,5.18,0,0,0-3.49,4.08,5.22,5.22,0,0,0,9.58,3.64H13.56a2.11,2.11,0,0,1-2.11-2.11v-1.3a2.11,2.11,0,0,1,2.11-2.11h7.08a2.11,2.11,0,0,1,2.11,2.11v.4c0,5.15-4.16,10.13-9.09,10.87h0A10.53,10.53,0,0,1,12,22.75Zm0-20a9.82,9.82,0,0,0-2.4.31,9.26,9.26,0,0,0,3.85,18.08h0c4.23-.64,7.81-4.94,7.81-9.39v-.4a.61.61,0,0,0-.61-.61H13.56a.61.61,0,0,0-.61.61v1.3a.61.61,0,0,0,.61.61h4.07a.75.75,0,0,1,.61.32.77.77,0,0,1,.09.69,6.73,6.73,0,1,1-2.84-8,.61.61,0,0,0,.78-.07l.91-1a.67.67,0,0,0,.16-.51.59.59,0,0,0-.24-.39A9.3,9.3,0,0,0,12,2.75Z"/></g></svg>