<svg xmlns="http://www.w3.org/2000/svg" viewBox="0 0 24 24"><g id="software"><path id="google-play" d="M21.75,10.4,17.23,8.13h0L4.39,1.68h0l-.48-.24A1.81,1.81,0,0,0,1.29,3.06V20.94A1.81,1.81,0,0,0,3.1,22.75a1.81,1.81,0,0,0,.81-.19l17.84-8.92a1.81,1.81,0,0,0,0-3.24Zm-11,7L7.84,18.91l5.84-5.84L15.62,15ZM13.67,11,7.83,5.09,15.62,9ZM2.93,21.2a.3.3,0,0,1-.14-.26V3.06a.3.3,0,0,1,.14-.26.38.38,0,0,1,.17,0l.14,0L3.61,3l9,9-9,9-.37.19A.32.32,0,0,1,2.93,21.2Zm18.15-8.91-4,2L14.74,12,17,9.71l4,2a.29.29,0,0,1,.17.28A.28.28,0,0,1,21.08,12.29Z"/></g></svg>