<svg xmlns="http://www.w3.org/2000/svg" viewBox="0 0 24 24"><g id="software"><path id="html" d="M12,22.75a3.06,3.06,0,0,1-.9-.13L6.35,21.26A3.26,3.26,0,0,1,4,18.47L2.59,4.84a3.29,3.29,0,0,1,.82-2.51A3.25,3.25,0,0,1,5.83,1.25H18.17a3.25,3.25,0,0,1,3.24,3.58L20,18.46a3.23,3.23,0,0,1-2.34,2.8h0l-4.78,1.36A3,3,0,0,1,12,22.75Zm-6.17-20A1.77,1.77,0,0,0,4.08,4.68L5.5,18.31a1.75,1.75,0,0,0,1.26,1.5l4.75,1.37a1.78,1.78,0,0,0,1,0l4.78-1.37a1.74,1.74,0,0,0,1.26-1.5l1.4-13.63a1.77,1.77,0,0,0-1.75-1.93ZM17.47,20.53h0ZM12,17.93l3.46-1.12a.75.75,0,0,0,.52-.65l.38-4.7a.73.73,0,0,0-.19-.56.71.71,0,0,0-.54-.25l-6.73-.14-.3-3H16.2a.75.75,0,0,0,0-1.5H7.8a.76.76,0,0,0-.74.83l.46,4.46a.75.75,0,0,0,.73.68l6.59.13-.27,3.41-2.77.89-2.56-.75L9,14.28a.75.75,0,1,0-1.48.25l.31,1.86a.74.74,0,0,0,.53.6l3.23,1a.76.76,0,0,0,.21,0A.62.62,0,0,0,12,17.93Z"/></g></svg>