<svg xmlns="http://www.w3.org/2000/svg" viewBox="0 0 24 24"><g id="software"><path id="illustrator" d="M11.25,7.92a.72.72,0,0,0-.67-.51.74.74,0,0,0-.72.44L7.5,13.15h0L6.27,15.93a.75.75,0,1,0,1.37.6l1-2.33h3.08l.75,2.27a.75.75,0,0,0,.71.51.67.67,0,0,0,.24,0,.75.75,0,0,0,.47-1ZM9.35,12.7l1.09-2.47.82,2.47Zm8.37-4.54a1,1,0,0,1-2,0,1,1,0,1,1,2,0Zm-.24,2.6v5.47a.75.75,0,0,1-1.5,0V10.76a.75.75,0,0,1,1.5,0ZM22.76,7.9a6.71,6.71,0,0,0-6.71-6.67h0l-8.14,0A6.71,6.71,0,0,0,1.2,8l0,8.08A6.71,6.71,0,0,0,8,22.77H8l8.14,0A6.71,6.71,0,0,0,22.8,16Zm-3,11.78a5.18,5.18,0,0,1-3.67,1.55L8,21.27a5,5,0,0,1-3.69-1.5,5.2,5.2,0,0,1-1.55-3.68L2.7,8A5.22,5.22,0,0,1,7.88,2.77l8.14,0a5,5,0,0,1,3.69,1.5,5.2,5.2,0,0,1,1.55,3.68l0,8.08A5.16,5.16,0,0,1,19.79,19.68Z"/></g></svg>