<svg xmlns="http://www.w3.org/2000/svg" viewBox="0 0 24 24"><g id="software"><path id="js-2" d="M12,22.68a1.77,1.77,0,0,1-.92-.25L9,21.24a.75.75,0,0,1-.28-1,.76.76,0,0,1,1-.28l2.06,1.19a.34.34,0,0,0,.34,0l7.65-4.41a.36.36,0,0,0,.18-.3V7.58a.36.36,0,0,0-.18-.3L12.17,2.87a.34.34,0,0,0-.34,0L4.18,7.28a.36.36,0,0,0-.18.3v8.65a.67.67,0,0,0,.34.58l2,1.15a.78.78,0,0,0,1.16-.68L7.43,8.81a.76.76,0,0,1,.75-.75h0a.74.74,0,0,1,.75.74L9,17.28a2.25,2.25,0,0,1-1.13,2,2.22,2.22,0,0,1-2.28,0l-2-1.14A2.19,2.19,0,0,1,2.5,16.23V7.58A1.86,1.86,0,0,1,3.43,6l7.65-4.41a1.83,1.83,0,0,1,1.84,0L20.57,6a1.86,1.86,0,0,1,.93,1.6v8.84a1.86,1.86,0,0,1-.93,1.6l-7.65,4.41A1.77,1.77,0,0,1,12,22.68Zm5.28-10.09a2,2,0,0,0-.62-.71,3.9,3.9,0,0,0-1-.47,10.15,10.15,0,0,0-1.26-.36l-.79-.22a2,2,0,0,1-.48-.2,1,1,0,0,1-.37-.31.68.68,0,0,1-.13-.42.81.81,0,0,1,.39-.68,1.75,1.75,0,0,1,1-.29,1.59,1.59,0,0,1,1,.26,2.21,2.21,0,0,1,.54.73,2.08,2.08,0,0,0,.32.47.64.64,0,0,0,.44.14.66.66,0,0,0,.52-.24.77.77,0,0,0,.21-.53A1.55,1.55,0,0,0,17,9.09a2,2,0,0,0-.53-.65,2.61,2.61,0,0,0-.92-.5,3.9,3.9,0,0,0-1.31-.19A4.3,4.3,0,0,0,12.57,8a2.38,2.38,0,0,0-1.08.81,2.11,2.11,0,0,0-.37,1.21,1.93,1.93,0,0,0,.36,1.19,2.38,2.38,0,0,0,.94.76,8.44,8.44,0,0,0,1.49.48,10.19,10.19,0,0,1,1.05.29,1.61,1.61,0,0,1,.65.39.93.93,0,0,1,.25.66,1,1,0,0,1-.47.86,1.92,1.92,0,0,1-1.2.35,2,2,0,0,1-.87-.17,1.38,1.38,0,0,1-.51-.44,3.54,3.54,0,0,1-.34-.65,1.38,1.38,0,0,0-.31-.5.64.64,0,0,0-.45-.17.72.72,0,0,0-.53.21.73.73,0,0,0-.21.52,2,2,0,0,0,.35,1.08,2.64,2.64,0,0,0,.91.88,3.93,3.93,0,0,0,2,.46A4.11,4.11,0,0,0,16,15.91,2.55,2.55,0,0,0,17.12,15a2.44,2.44,0,0,0,.38-1.34A2.26,2.26,0,0,0,17.28,12.59Z"/></g></svg>