<svg xmlns="http://www.w3.org/2000/svg" viewBox="0 0 24 24"><g id="software"><path id="laravel" d="M22.46,6.49v0a1.88,1.88,0,0,0-.16-.39h0A2,2,0,0,0,22,5.74l0,0a1.65,1.65,0,0,0-.36-.28L18.77,3.75a1.74,1.74,0,0,0-1.75,0L14.1,5.41a1.84,1.84,0,0,0-.64.64h0a1.74,1.74,0,0,0-.23.87v3.43l-2.35,1.32V4.78a1.77,1.77,0,0,0-.25-.9h0a.7.7,0,0,0-.06-.09,2,2,0,0,0-.22-.27A1.78,1.78,0,0,0,10,3.24L7,1.61a1.75,1.75,0,0,0-1.69,0L2.38,3.25s-.06,0-.09.06A2,2,0,0,0,2,3.52a1.56,1.56,0,0,0-.16.2s-.09.1-.13.16h0a1.79,1.79,0,0,0-.24.88V17a1.77,1.77,0,0,0,.88,1.52l6.81,3.87a1.69,1.69,0,0,0,.87.23h0a1.2,1.2,0,0,0,.2,0,1.9,1.9,0,0,0,.25,0,1.57,1.57,0,0,0,.42-.18l6.85-4a1.75,1.75,0,0,0,.87-1.52V13.5l3-1.76a1.77,1.77,0,0,0,.87-1.51V6.94A1.68,1.68,0,0,0,22.46,6.49Zm-10.3,9-2.1,1.21L7.62,15.22l2.87-1.59h0l3.48-2,2.42,1.41Zm5-3.71-2.41-1.4V7.67l2.41,1.42Zm1.5,0V9.09L21,7.68v2.55a.24.24,0,0,1-.12.21ZM18,5l2.27,1.33L17.89,7.8,15.47,6.36,17.76,5A.3.3,0,0,1,18,5ZM6.86,13.92,6.79,6.86,9.38,5.45v7.07Zm-.73-11a.24.24,0,0,1,.12,0L8.56,4.19l-1,.52-1.54.84L3.74,4.2,6,2.93A.27.27,0,0,1,6.13,2.9Zm-3,14.29A.23.23,0,0,1,3,17V5.49L5.29,6.85l.09,8.35a.73.73,0,0,0,0,.2.84.84,0,0,0,.05.17.75.75,0,0,0,.15.16l.11.11L9.3,18v2.74ZM17,17.08,10.8,20.7V18l6.34-3.62h0v2.5A.24.24,0,0,1,17,17.08Z"/></g></svg>