<svg xmlns="http://www.w3.org/2000/svg" viewBox="0 0 24 24"><g id="software"><path id="microsoft" d="M20.83,22.05l-.24,0-6.9-.86A1.94,1.94,0,0,1,12,19.24V14.63a2,2,0,0,1,1.94-2h6.9a2,2,0,0,1,2,2V20.1a1.94,1.94,0,0,1-.66,1.46A1.9,1.9,0,0,1,20.83,22.05Zm-6.9-7.87a.45.45,0,0,0-.44.45v4.61a.44.44,0,0,0,.39.44l6.9.87a.46.46,0,0,0,.35-.11.43.43,0,0,0,.15-.34V14.63a.45.45,0,0,0-.45-.45ZM8.67,20.64H8.43l-5.51-.69A1.94,1.94,0,0,1,1.22,18V14.63a2,2,0,0,1,2-2h5.5a2,2,0,0,1,1.95,2V18.7A1.94,1.94,0,0,1,10,20.16,2,2,0,0,1,8.67,20.64Zm-5.5-6.46a.45.45,0,0,0-.45.45V18a.45.45,0,0,0,.39.44l5.51.69A.46.46,0,0,0,9,19a.46.46,0,0,0,.15-.33V14.63a.45.45,0,0,0-.45-.45Zm17.66-2.86h-6.9a2,2,0,0,1-1.94-2V4.76a1.94,1.94,0,0,1,1.7-1.93h0L20.59,2A1.95,1.95,0,0,1,22.78,3.9V9.37A2,2,0,0,1,20.83,11.32Zm-6.95-7a.44.44,0,0,0-.39.44V9.37a.45.45,0,0,0,.44.45h6.9a.45.45,0,0,0,.45-.45V3.9a.43.43,0,0,0-.15-.34.46.46,0,0,0-.35-.11Zm-5.21,7H3.17a2,2,0,0,1-1.95-2V6a1.94,1.94,0,0,1,1.7-1.93l5.51-.69A1.95,1.95,0,0,1,10.62,5.3V9.37A2,2,0,0,1,8.67,11.32Zm0-6.47H8.62l-5.51.69A.45.45,0,0,0,2.72,6V9.37a.45.45,0,0,0,.45.45h5.5a.45.45,0,0,0,.45-.45V5.3A.46.46,0,0,0,9,5,.41.41,0,0,0,8.68,4.85Z"/></g></svg>