<svg xmlns="http://www.w3.org/2000/svg" viewBox="0 0 24 24"><g id="software"><path id="pails" d="M12,22.75A10.75,10.75,0,1,1,22.75,12,10.76,10.76,0,0,1,12,22.75Zm0-20A9.25,9.25,0,1,0,21.25,12,9.26,9.26,0,0,0,12,2.75ZM17,7.06a.61.61,0,0,1,0,1.22.61.61,0,0,1,0-1.22ZM12,6.64a.61.61,0,1,1-.61.61A.61.61,0,0,1,12,6.64Zm-4.53,2a.62.62,0,1,1-.61.62A.62.62,0,0,1,7.47,8.66ZM4.83,14a.61.61,0,0,1-.61-.61.61.61,0,1,1,1.22,0A.61.61,0,0,1,4.83,14Zm7.78,3.09a.61.61,0,1,1,.61-.61A.61.61,0,0,1,12.61,17.09ZM15.33,14a.61.61,0,0,1-.61-.61.62.62,0,0,1,.61-.61.61.61,0,0,1,.61.61A.61.61,0,0,1,15.33,14ZM9.86,17.5H6.35A1.2,1.2,0,0,1,5.4,17a1.18,1.18,0,0,1-.19-1c1.42-5,4.72-8,8.52-7.92A7.74,7.74,0,0,1,18.4,9.85a1.17,1.17,0,0,1,.32,1.43,1.2,1.2,0,0,1-1.34.64h0a5.26,5.26,0,0,0-4.37.5,5.72,5.72,0,0,0-2,4A1.18,1.18,0,0,1,9.86,17.5ZM6.77,16H9.58a7,7,0,0,1,2.56-4.8,5.94,5.94,0,0,1,4.07-1,5.81,5.81,0,0,0-2.52-.64C10.7,9.53,8.05,12,6.77,16Zm13-3.05a.62.62,0,1,1,.61-.61A.61.61,0,0,1,19.78,13Z"/></g></svg>