<svg xmlns="http://www.w3.org/2000/svg" viewBox="0 0 24 24"><g id="software"><path id="photoshop" d="M22.76,7.9a6.71,6.71,0,0,0-6.71-6.67h0l-8.14,0A6.71,6.71,0,0,0,1.2,8l0,8.08A6.71,6.71,0,0,0,8,22.77H8l8.14,0A6.71,6.71,0,0,0,22.8,16Zm-3,11.78a5.18,5.18,0,0,1-3.67,1.55L8,21.27H8a5.21,5.21,0,0,1-5.21-5.18L2.7,8A5.22,5.22,0,0,1,7.88,2.77l8.14,0a5.07,5.07,0,0,1,3.69,1.5,5.2,5.2,0,0,1,1.55,3.68l0,8.08A5.16,5.16,0,0,1,19.79,19.68Zm-5-7.42a.48.48,0,0,0,.48.49,2,2,0,1,1,0,4H14.08a.75.75,0,1,1,0-1.5h1.23a.49.49,0,1,0,0-1,2,2,0,0,1,0-4h1.24a.75.75,0,0,1,0,1.5H15.31A.48.48,0,0,0,14.83,12.26Zm-5.37-5h-2A.75.75,0,0,0,6.73,8V16a.75.75,0,0,0,1.5,0V12.71H9.46a2.72,2.72,0,0,0,0-5.44Zm0,3.94H8.23V8.77H9.46a1.22,1.22,0,0,1,0,2.44Z"/></g></svg>