<svg xmlns="http://www.w3.org/2000/svg" viewBox="0 0 24 24"><g id="software"><path id="python" d="M19.85,6.81H17.19V4.15a2.9,2.9,0,0,0-2.9-2.9H9.71a2.9,2.9,0,0,0-2.9,2.9V6.81H4.15a2.9,2.9,0,0,0-2.9,2.9v4.58a2.9,2.9,0,0,0,2.9,2.9H6.81v2.66a2.9,2.9,0,0,0,2.9,2.9h4.58a2.9,2.9,0,0,0,2.9-2.9V17.19h2.66a2.9,2.9,0,0,0,2.9-2.9V9.71A2.9,2.9,0,0,0,19.85,6.81ZM4.15,15.69a1.4,1.4,0,0,1-1.4-1.4V9.71a1.4,1.4,0,0,1,1.4-1.4H7.56a.76.76,0,0,0,.75-.75V4.15a1.4,1.4,0,0,1,1.4-1.4h4.58a1.4,1.4,0,0,1,1.4,1.4V9.7a1.54,1.54,0,0,1-1.55,1.55H10a3.23,3.23,0,0,0-3.22,3.22v1.22Zm17.1-1.4a1.4,1.4,0,0,1-1.4,1.4H16.44a.76.76,0,0,0-.75.75v3.41a1.4,1.4,0,0,1-1.4,1.4H9.71a1.4,1.4,0,0,1-1.4-1.4V14.47A1.72,1.72,0,0,1,10,12.75h4.11A3.06,3.06,0,0,0,17.19,9.7V8.31h2.66a1.4,1.4,0,0,1,1.4,1.4Zm-12-9.61A.74.74,0,0,1,10,3.94a.75.75,0,0,1,.75.74.76.76,0,0,1-.75.75A.75.75,0,0,1,9.22,4.68Zm5.57,14.59a.79.79,0,0,1-.79.8.8.8,0,0,1-.8-.8.79.79,0,0,1,.8-.79A.79.79,0,0,1,14.79,19.27Z"/></g></svg>