<svg xmlns="http://www.w3.org/2000/svg" viewBox="0 0 24 24"><g id="software"><path id="react" d="M22.75,12c0-1.66-1.4-3.12-3.63-4.11.26-2.43-.31-4.37-1.74-5.2S14,2.34,12,3.77C10,2.34,8.06,1.86,6.63,2.69s-2,2.77-1.75,5.2c-2.23,1-3.63,2.45-3.63,4.11s1.39,3.12,3.62,4.11c0,.09,0,.19,0,.29-.2,2.38.44,4.13,1.8,4.91a3.18,3.18,0,0,0,1.62.42,6.41,6.41,0,0,0,3.53-1.33l.22-.16.22.16a6.41,6.41,0,0,0,3.53,1.33,3.24,3.24,0,0,0,1.63-.42c1.35-.78,2-2.53,1.79-4.91,0-.1,0-.2,0-.29C21.36,15.12,22.75,13.66,22.75,12Zm-7-8.22a1.74,1.74,0,0,1,.86.21c.77.45,1.15,1.68,1,3.36A15.73,15.73,0,0,0,15,6.76a17.91,17.91,0,0,0-1.83-2A4.94,4.94,0,0,1,15.77,3.78ZM17.15,14a11.8,11.8,0,0,1,.31,1.2,12,12,0,0,1-1.19.33c.15-.24.31-.49.46-.75S17,14.21,17.15,14Zm-1.72,0a19.1,19.1,0,0,1-1.22,1.85A19.46,19.46,0,0,1,12,16a19.46,19.46,0,0,1-2.21-.13A20.4,20.4,0,0,1,8.57,14a20.44,20.44,0,0,1-1-2,20.43,20.43,0,0,1,1-2A20.68,20.68,0,0,1,9.8,8.16,22,22,0,0,1,12,8a22,22,0,0,1,2.2.12A20.68,20.68,0,0,1,15.43,10a20.43,20.43,0,0,1,1,2A20.44,20.44,0,0,1,15.43,14ZM12,18.31c-.3-.27-.6-.56-.89-.87l.89,0,.89,0C12.6,17.75,12.3,18,12,18.31ZM7.27,14.73c.15.26.31.51.46.75a12,12,0,0,1-1.19-.33A11.8,11.8,0,0,1,6.85,14Q7,14.34,7.27,14.73Zm-.42-4.68c-.12-.42-.23-.82-.31-1.2a10.92,10.92,0,0,1,1.19-.33c-.15.24-.31.49-.46.75S7,9.79,6.85,10.05ZM12,5.71c.29.26.58.54.87.85l-.87,0-.87,0C11.42,6.25,11.71,6,12,5.71Zm4.73,3.56c-.15-.26-.31-.51-.46-.75a10.92,10.92,0,0,1,1.19.33c-.08.38-.19.78-.31,1.2C17,9.79,16.88,9.53,16.73,9.27ZM7.38,4a1.67,1.67,0,0,1,.85-.21,4.94,4.94,0,0,1,2.57,1A17.91,17.91,0,0,0,9,6.76a15.73,15.73,0,0,0-2.64.59C6.22,5.67,6.6,4.44,7.38,4ZM2.75,12c0-.9.88-1.84,2.38-2.58A17.61,17.61,0,0,0,5.94,12a17.45,17.45,0,0,0-.81,2.59C3.63,13.84,2.75,12.89,2.75,12Zm4.63,8c-.8-.46-1.17-1.68-1.06-3.36A15.85,15.85,0,0,0,9,17.24a17,17,0,0,0,1.83,2C9.41,20.18,8.16,20.46,7.38,20Zm9.25,0c-.79.46-2,.17-3.43-.76a17,17,0,0,0,1.83-2,15.85,15.85,0,0,0,2.65-.59C17.79,18.33,17.42,19.55,16.63,20Zm2.24-5.43A17.45,17.45,0,0,0,18.06,12a17.61,17.61,0,0,0,.81-2.57c1.5.74,2.38,1.68,2.38,2.58S20.37,13.84,18.87,14.58ZM13.81,12A1.81,1.81,0,1,1,12,10.19,1.81,1.81,0,0,1,13.81,12Z"/></g></svg>