<svg xmlns="http://www.w3.org/2000/svg" viewBox="0 0 24 24"><g id="software"><path id="slack" d="M9.48,22.56A2.66,2.66,0,0,1,6.82,19.9V15.37a2.66,2.66,0,0,1,5.32,0V19.9A2.66,2.66,0,0,1,9.48,22.56Zm0-8.35a1.16,1.16,0,0,0-1.16,1.16V19.9a1.16,1.16,0,0,0,2.32,0V15.37A1.16,1.16,0,0,0,9.48,14.21Zm5.11-2.83a2.67,2.67,0,0,1-2.66-2.66V4.19a2.66,2.66,0,0,1,5.32,0V8.72A2.67,2.67,0,0,1,14.59,11.38Zm0-8.35a1.16,1.16,0,0,0-1.16,1.16V8.72a1.16,1.16,0,1,0,2.32,0V4.19A1.16,1.16,0,0,0,14.59,3ZM20.1,17.47H15.58a2.66,2.66,0,0,1,0-5.32H20.1a2.66,2.66,0,1,1,0,5.32Zm-4.52-3.82a1.16,1.16,0,0,0,0,2.32H20.1a1.16,1.16,0,1,0,0-2.32ZM8.42,11.89H3.9a2.66,2.66,0,1,1,0-5.32H8.42a2.66,2.66,0,0,1,0,5.32ZM3.9,8.07a1.16,1.16,0,1,0,0,2.32H8.42a1.16,1.16,0,0,0,0-2.32Zm6.37-2.19H9a2.38,2.38,0,0,1-2.4-2.11A2.3,2.3,0,0,1,9,1.29a2.38,2.38,0,0,1,2.11,2.4V5A.87.87,0,0,1,10.27,5.88ZM8.84,2.78A.8.8,0,0,0,8.27,3,.81.81,0,0,0,8,3.65.89.89,0,0,0,9,4.38h.69V3.69a.88.88,0,0,0-.73-.9H8.84Zm-5,14.51A2.29,2.29,0,0,1,1.55,14.8h0A2.38,2.38,0,0,1,4,12.69H5.27a.87.87,0,0,1,.87.87v1.32A2.37,2.37,0,0,1,4,17.28ZM3,14.92a.8.8,0,0,0,.87.87.89.89,0,0,0,.73-.91v-.69H4a.89.89,0,0,0-.91.73Zm12.19,7.8a2.43,2.43,0,0,1-1.07-.25h0a2.23,2.23,0,0,1-1.23-2V19a.87.87,0,0,1,.87-.87h1.32a2.38,2.38,0,0,1,2.4,2.11,2.31,2.31,0,0,1-1,2.09A2.34,2.34,0,0,1,15.23,22.72Zm-.42-1.6a.83.83,0,0,0,.87,0,.81.81,0,0,0,.35-.73.89.89,0,0,0-.91-.73h-.69v.83a.74.74,0,0,0,.38.67Zm5.33-9.76H18.83a.87.87,0,0,1-.87-.87V9.17a2.37,2.37,0,0,1,2.11-2.4,2.31,2.31,0,0,1,2.48,2.48h0A2.38,2.38,0,0,1,20.14,11.36Zm-.68-1.5h.68a.88.88,0,0,0,.91-.73h0a.77.77,0,0,0-.23-.63.84.84,0,0,0-.63-.24.9.9,0,0,0-.73.91Z"/></g></svg>