<svg xmlns="http://www.w3.org/2000/svg" viewBox="0 0 24 24"><g id="software"><path id="soft-8" d="M18.41,1.25H5.59A4.35,4.35,0,0,0,1.25,5.59V18.41a4.35,4.35,0,0,0,4.34,4.34H18.41a4.35,4.35,0,0,0,4.34-4.34V5.59A4.35,4.35,0,0,0,18.41,1.25Zm-5.66,20V9.64a.45.45,0,0,1,.44-.45H14.5a.45.45,0,0,1,.44.45V21.25Zm8.5-2.84a2.84,2.84,0,0,1-2.84,2.84h-2V9.64A1.94,1.94,0,0,0,14.5,7.69H13.19a1.94,1.94,0,0,0-1.94,2V21.25H5.59a2.84,2.84,0,0,1-2.84-2.84V5.59A2.84,2.84,0,0,1,5.59,2.75H18.41a2.84,2.84,0,0,1,2.84,2.84Z"/></g></svg>