<svg xmlns="http://www.w3.org/2000/svg" viewBox="0 0 24 24"><g id="software"><path id="soft-7" d="M7.8,23.9a2.78,2.78,0,0,1-2-.82l-.7-.7a2.8,2.8,0,0,1,0-4l5.5-5.5a1.3,1.3,0,0,0,0-1.84l-5.5-5.5a2.8,2.8,0,0,1,0-4l.7-.7a2.81,2.81,0,0,1,4,0l7,7h0L18.88,10a2.8,2.8,0,0,1,0,4l-9.1,9.1A2.78,2.78,0,0,1,7.8,23.9Zm0-22.3A1.29,1.29,0,0,0,6.88,2l-.7.7a1.3,1.3,0,0,0,0,1.84l5.5,5.5a2.8,2.8,0,0,1,0,4l-5.5,5.5a1.3,1.3,0,0,0,0,1.84l.7.7a1.34,1.34,0,0,0,1.84,0l9.1-9.1a1.3,1.3,0,0,0,0-1.84L8.72,2A1.29,1.29,0,0,0,7.8,1.6Z"/></g></svg>