<svg xmlns="http://www.w3.org/2000/svg" viewBox="0 0 24 24"><g id="software"><path id="soft-6" d="M9,16.75a4.72,4.72,0,1,1,2.54-8.68.5.5,0,0,1-.54.84,3.71,3.71,0,1,0-2,6.84,3.68,3.68,0,0,0,1.72-.43.5.5,0,1,1,.47.89A4.76,4.76,0,0,1,9,16.75ZM9,10.4A1.64,1.64,0,1,0,10.64,12,1.63,1.63,0,0,0,9,10.4Zm6.07-.79a.5.5,0,0,0-.7-.09l-.77.6v-.2a.5.5,0,0,0-.5-.5.5.5,0,0,0-.5.5v4.46a.51.51,0,0,0,.5.5.5.5,0,0,0,.5-.5v-3L15,10.31A.5.5,0,0,0,15.07,9.61Zm4.72,3H16.66A1.34,1.34,0,0,0,18,13.88h1.43a.5.5,0,0,1,.5.5.5.5,0,0,1-.5.5H18a2.45,2.45,0,0,1-2.34-2.73A2.56,2.56,0,0,1,18,9.42a2.56,2.56,0,0,1,2.34,2.73A.5.5,0,0,1,19.79,12.65Zm-.56-1A1.43,1.43,0,0,0,18,10.42a1.44,1.44,0,0,0-1.28,1.23Zm3.48.35A10.71,10.71,0,1,0,12,22.71,10.72,10.72,0,0,0,22.71,12Zm-1.5,0A9.21,9.21,0,1,1,12,2.79,9.22,9.22,0,0,1,21.21,12Z"/></g></svg>