<svg xmlns="http://www.w3.org/2000/svg" viewBox="0 0 24 24"><g id="software"><path id="spring-framework" d="M12.87,19.69c-.7,0-1.43,0-2.21-.11a.75.75,0,0,1-.68-.81.77.77,0,0,1,.82-.68c4.59.42,7.71-.48,9.25-2.66,2.19-3.09.88-8.06,0-10.45C18.43,7.33,16.26,8.33,10,9.21a4.67,4.67,0,0,0-3.58,2c-1,1.71-.54,4-.29,5A10.88,10.88,0,0,0,18.1,9.82a.75.75,0,0,1,1.4.55,12.57,12.57,0,0,1-14,7.26.75.75,0,0,1-.58-.49c-.06-.15-1.39-3.89.28-6.68A6.08,6.08,0,0,1,9.82,7.73c7.08-1,8.24-2.05,9.77-4.78a.74.74,0,0,1,.69-.39.75.75,0,0,1,.65.44c.15.34,3.79,8.45.35,13.3C19.68,18.55,16.86,19.69,12.87,19.69Zm4.27,1.75a.75.75,0,1,0-.72-1.31A9.25,9.25,0,1,1,16.58,4a.75.75,0,1,0,.75-1.3,10.75,10.75,0,1,0-.19,18.78Z"/></g></svg>