<svg xmlns="http://www.w3.org/2000/svg" viewBox="0 0 24 24"><g id="software"><path id="ts" d="M6.42,22.78a5.19,5.19,0,0,1-5.17-5.15L1.19,6.48a5.19,5.19,0,0,1,5.15-5.2l11.21-.06h0a5.19,5.19,0,0,1,5.18,5.15l.06,11.15a5.19,5.19,0,0,1-5.15,5.2l-11.21.06ZM17.55,2.72l-11.2.06a3.68,3.68,0,0,0-3.66,3.7l.06,11.14a3.67,3.67,0,0,0,3.68,3.66h0l11.2-.06a3.68,3.68,0,0,0,3.66-3.7L21.25,6.38a3.69,3.69,0,0,0-3.68-3.66ZM14.2,11.61H9.34a.5.5,0,0,0-.5.5v.72a.5.5,0,0,0,.5.5h1.5v5.34a.5.5,0,0,0,.5.5h.85a.5.5,0,0,0,.5-.5V13.33H14.2a.5.5,0,0,0,.5-.5v-.72A.51.51,0,0,0,14.2,11.61ZM18,14.49c-.92-.36-1-.55-1-.8s.2-.48.74-.48a2.06,2.06,0,0,1,1,.25.47.47,0,0,0,.42,0,.48.48,0,0,0,.29-.3l.23-.69a.51.51,0,0,0-.22-.6,3.55,3.55,0,0,0-1.7-.38,2.38,2.38,0,0,0-2.62,2.28c0,1.59,1.55,2.15,2.05,2.32.92.35.92.61.92.84,0,.54-.55.62-.88.62A2.42,2.42,0,0,1,16,17.21a.53.53,0,0,0-.44,0,.49.49,0,0,0-.3.33l-.22.71a.51.51,0,0,0,.2.56,3.85,3.85,0,0,0,2,.5c1.94,0,2.8-1.2,2.8-2.39A2.55,2.55,0,0,0,18,14.49Z"/></g></svg>