<svg xmlns="http://www.w3.org/2000/svg" viewBox="0 0 24 24"><g id="software"><path id="soft-2" d="M8.84,22.76H7.5a1.83,1.83,0,0,1-1.83-1.84V20a.34.34,0,0,0-.34-.34H3.59a1.85,1.85,0,0,1-1.84-1.84V5.36a1.88,1.88,0,0,1,.31-1L3.58,2.06a1.84,1.84,0,0,1,1.53-.82h15.3a1.84,1.84,0,0,1,1.84,1.84V13.46a1.88,1.88,0,0,1-.54,1.3l-4.38,4.37a1.85,1.85,0,0,1-1.3.54H12.09a.34.34,0,0,0-.29.15L10.37,22A1.83,1.83,0,0,1,8.84,22.76Zm-3.73-20a.35.35,0,0,0-.28.15L3.31,5.17a.33.33,0,0,0-.06.19V17.83a.35.35,0,0,0,.34.34H5.33A1.84,1.84,0,0,1,7.17,20v.91a.34.34,0,0,0,.33.34H8.84a.34.34,0,0,0,.29-.15L10.56,19a1.83,1.83,0,0,1,1.53-.81H16a.35.35,0,0,0,.24-.1l4.38-4.37a.39.39,0,0,0,.1-.24V3.08a.34.34,0,0,0-.34-.34ZM10,14.16H9.24a1.49,1.49,0,0,1-1.49-1.49V7.24A1.49,1.49,0,0,1,9.24,5.75H10a1.5,1.5,0,0,1,1.5,1.49v5.43A1.5,1.5,0,0,1,10,14.16Zm0-1.5v0Zm0-5.42H9.24v5.42H10Zm5.71,7H15a1.49,1.49,0,0,1-1.49-1.49V7.27A1.49,1.49,0,0,1,15,5.78h.79a1.5,1.5,0,0,1,1.5,1.49V12.7A1.5,1.5,0,0,1,15.74,14.19Zm0-1.5v0Zm0-5.42H15V12.7h.78Z"/></g></svg>