<svg xmlns="http://www.w3.org/2000/svg" viewBox="0 0 24 24"><g id="software"><path id="xd" d="M22.76,7.9a6.71,6.71,0,0,0-6.71-6.67h0l-8.14,0A6.71,6.71,0,0,0,1.2,8l0,8.08A6.71,6.71,0,0,0,8,22.77H8l8.13,0A6.71,6.71,0,0,0,22.8,16Zm-3,11.78a5.18,5.18,0,0,1-3.67,1.55L8,21.27H8a5.21,5.21,0,0,1-5.21-5.18L2.7,8A5.22,5.22,0,0,1,7.88,2.77l8.14,0h0a5.21,5.21,0,0,1,5.21,5.18l0,8.08A5.16,5.16,0,0,1,19.79,19.68ZM12.13,8.94,9.77,12l2.36,3a.76.76,0,0,1-.13,1,.74.74,0,0,1-.46.16.76.76,0,0,1-.6-.29L8.82,13.2,6.7,15.93a.75.75,0,0,1-.59.29A.75.75,0,0,1,5.52,15l2.35-3-2.35-3A.75.75,0,0,1,6.7,8l2.12,2.73L10.94,8a.75.75,0,0,1,1.19.92Zm5.79-1.21a.74.74,0,0,0-.75.75v2.74h-1a2.5,2.5,0,0,0,0,5h1.75a.75.75,0,0,0,.75-.75v-7A.75.75,0,0,0,17.92,7.73Zm-.75,7h-1a1,1,0,0,1,0-2h1Z"/></g></svg>