<svg xmlns="http://www.w3.org/2000/svg" viewBox="0 0 24 24"><g id="files-folders"><path id="add-folder" d="M15,13.56a.77.77,0,0,1-.77.76h0l-1.65,0,0,1.65a.76.76,0,0,1-.74.79h0a.76.76,0,0,1-.76-.74L11,14.29l-1.71,0a.77.77,0,0,1-.76-.77.78.78,0,0,1,.78-.76l1.65,0,0-1.65a.77.77,0,0,1,.74-.79.74.74,0,0,1,.79.75l0,1.7,1.72,0A.77.77,0,0,1,15,13.56Zm7.07-4.82a6.78,6.78,0,0,0-6.61-6.43H10.53A2.76,2.76,0,0,0,8.36,1.25H6.21A4.92,4.92,0,0,0,1.3,6.18V17.07A5.66,5.66,0,0,0,7,22.75h10.1a5.66,5.66,0,0,0,5.65-5.68V11.35A5.72,5.72,0,0,0,22.06,8.74ZM19.74,6.36a5.57,5.57,0,0,0-2.69-.69H13.88A2.77,2.77,0,0,1,11.3,3.91l0-.07h4.18A5,5,0,0,1,19.74,6.36Zm1.43,10.71a4.14,4.14,0,0,1-4.12,4.15H7a4.14,4.14,0,0,1-4.12-4.15V6.18a3.39,3.39,0,0,1,3.38-3.4H8.36a1.26,1.26,0,0,1,1.17.8l.36.9a4.26,4.26,0,0,0,4,2.72h3.17a4.14,4.14,0,0,1,4.12,4.15Z"/></g></svg>