<svg xmlns="http://www.w3.org/2000/svg" viewBox="0 0 24 24"><g id="files-folders"><path id="add-notepad" d="M20.12,4.33A6.21,6.21,0,0,0,16.4,2.55V2.43a.75.75,0,0,0-1.5,0v.09H9.1V2.43a.75.75,0,1,0-1.5,0v.12A6.22,6.22,0,0,0,2.07,8.72v7.4a6.21,6.21,0,0,0,6.2,6.2h7.46a6.21,6.21,0,0,0,6.2-6.2V8.72A6.2,6.2,0,0,0,20.12,4.33Zm.31,11.79a4.71,4.71,0,0,1-4.7,4.7H8.27a4.71,4.71,0,0,1-4.7-4.7V8.72a4.71,4.71,0,0,1,4-4.64v.18a.75.75,0,0,0,1.5,0V4h5.8v.24a.75.75,0,1,0,1.5,0V4.08a4.65,4.65,0,0,1,4,4.64ZM15,12.49a.7.7,0,0,1-.71.7H12.73l0,1.53a.72.72,0,0,1-.69.74h0a.72.72,0,0,1-.71-.7l0-1.59H9.71a.72.72,0,0,1,0-1.43l1.54,0,0-1.54a.71.71,0,0,1,.69-.73.69.69,0,0,1,.73.69l0,1.59,1.6,0A.71.71,0,0,1,15,12.49Z"/></g></svg>