<svg xmlns="http://www.w3.org/2000/svg" viewBox="0 0 24 24"><g id="files-folders"><path id="add-files" d="M22.72,10.49a.58.58,0,0,0,0-.14.76.76,0,0,0-.18-.71l-7.88-8a.8.8,0,0,0-.21-.15l-.07,0a.65.65,0,0,0-.19,0H7.8A6.78,6.78,0,0,0,1.25,7.91V12.8a.74.74,0,1,0,1.48,0V8A5.29,5.29,0,0,1,7.8,2.92h5.57v4a4,4,0,0,0,4,4h3.91l0,5.29a4.83,4.83,0,0,1-4.79,4.87H10a.75.75,0,0,0,0,1.5h6.44a6.33,6.33,0,0,0,6.27-6.37ZM17.34,9.42a2.52,2.52,0,0,1-2.49-2.53V4L20.2,9.42Zm-10,9.28a.74.74,0,0,1-.73.74H5.38v1.21a.75.75,0,0,1-.74.75h0a.74.74,0,0,1-.73-.75V19.41H2.7A.73.73,0,0,1,2,18.64a.76.76,0,0,1,.74-.74h1.2v-1.2A.74.74,0,0,1,4.65,16h0a.74.74,0,0,1,.73.75v1.22H6.59A.75.75,0,0,1,7.32,18.7Z"/></g></svg>