<svg xmlns="http://www.w3.org/2000/svg" viewBox="0 0 24 24"><g id="files-folders"><path id="delete-folder" d="M22.58,10a.78.78,0,0,0,0-.22V8.57a6.62,6.62,0,0,0-6.55-6.26H10.52A2.78,2.78,0,0,0,8.34,1.25H6.18A4.93,4.93,0,0,0,1.25,6.18V17.07a5.68,5.68,0,0,0,5.68,5.68H17.07a5.68,5.68,0,0,0,5.68-5.68V11.35A5.57,5.57,0,0,0,22.58,10ZM20.7,7a5.66,5.66,0,0,0-3.63-1.31H13.89A2.78,2.78,0,0,1,11.3,3.91l0-.07h4.8A5.05,5.05,0,0,1,20.7,7Zm.52,10.09a4.15,4.15,0,0,1-4.15,4.15H6.93a4.15,4.15,0,0,1-4.15-4.15V6.18a3.4,3.4,0,0,1,3.4-3.4H8.34a1.24,1.24,0,0,1,1.17.8l.36.9a4.31,4.31,0,0,0,4,2.72h3.18a4.15,4.15,0,0,1,4.15,4.15Zm-6.8-1.55a.75.75,0,0,1-.55.24.77.77,0,0,1-.53-.21l-1.21-1.16L11,15.61a.77.77,0,0,1-1.12-1L11,13.33,9.8,12.16a.75.75,0,0,1,0-1.08.76.76,0,0,1,1.08,0l1.21,1.16L13.21,11a.77.77,0,0,1,1.12,1l-1.15,1.23,1.22,1.17A.75.75,0,0,1,14.42,15.52Z"/></g></svg>