<svg xmlns="http://www.w3.org/2000/svg" viewBox="0 0 24 24"><g id="files-folders"><g id="document"><path d="M16,16.51a.71.71,0,0,1-.64.76H7.88a.77.77,0,0,1,0-1.52h7.47A.71.71,0,0,1,16,16.51Zm-7.9-3.33h3.16a.76.76,0,0,0,.75-.76.77.77,0,0,0-.75-.77H8.09a.76.76,0,0,0-.75.77A.75.75,0,0,0,8.09,13.18Zm14.66-2.71a.66.66,0,0,0,0-.15.76.76,0,0,0-.19-.72l-8-8.13a.64.64,0,0,0-.22-.14l-.06,0a.78.78,0,0,0-.21,0H7.59A6.43,6.43,0,0,0,1.22,7.72v8.56a6.43,6.43,0,0,0,6.37,6.47h8.82a6.43,6.43,0,0,0,6.37-6.47Zm-8-6.62,5.44,5.53H17.28a2.56,2.56,0,0,1-2.53-2.57Zm1.66,17.38H7.59a4.91,4.91,0,0,1-4.87-4.95V7.72A4.91,4.91,0,0,1,7.59,2.77h5.66v4a4.07,4.07,0,0,0,4,4.09h4l0,5.38A4.91,4.91,0,0,1,16.41,21.23Z"/></g></g></svg>