<svg xmlns="http://www.w3.org/2000/svg" viewBox="0 0 24 24"><g id="files-folders"><path id="tablet-down" d="M15.73,22.72H8.27a6.21,6.21,0,0,1-6.2-6.21V9.11A6.17,6.17,0,0,1,6,3.33a.76.76,0,0,1,1,.43.75.75,0,0,1-.42,1,4.67,4.67,0,0,0-3,4.38v7.4a4.72,4.72,0,0,0,4.7,4.71h7.46a4.71,4.71,0,0,0,4.7-4.71V9.12a4.68,4.68,0,0,0-3-4.39A.75.75,0,1,1,18,3.34a6.16,6.16,0,0,1,3.94,5.78v7.39a6.2,6.2,0,0,1-6.2,6.21ZM16.57,4V3a1.74,1.74,0,0,0-1.73-1.73H9.16A1.74,1.74,0,0,0,7.43,3V4A1.74,1.74,0,0,0,9.16,5.74h5.68A1.74,1.74,0,0,0,16.57,4ZM14.84,2.78a.23.23,0,0,1,.23.23V4a.23.23,0,0,1-.23.23H9.16A.23.23,0,0,1,8.93,4V3a.23.23,0,0,1,.23-.23ZM9.31,10.52a.76.76,0,0,0-.6.29.75.75,0,0,0,.14,1L13,15.07l-2.23.55a.75.75,0,0,0,.16,1.48h0l.18,0,3.75-.92a.44.44,0,0,1,.15-.05.79.79,0,0,0,.42-.68v-4a.72.72,0,0,0-.75-.74.73.73,0,0,0-.75.74v2.45L9.76,10.67a.74.74,0,0,0-.45-.15Z"/></g></svg>