<svg xmlns="http://www.w3.org/2000/svg" viewBox="0 0 24 24"><g id="files-folders"><path id="file-right" d="M22.78,16.26a6.44,6.44,0,0,1-6.37,6.49H7.59a6.44,6.44,0,0,1-6.37-6.49V7.68A6.44,6.44,0,0,1,7.59,1.19h6.46a.67.67,0,0,1,.19.05l.08,0a.74.74,0,0,1,.21.15l8,8.15a.76.76,0,0,1,.19.72.7.7,0,0,1,0,.14Zm-8-9.5a2.56,2.56,0,0,0,2.53,2.58h2.91L14.75,3.8Zm6.53,9.5,0-5.39h-4a4.07,4.07,0,0,1-4-4.11v-4H7.59a4.92,4.92,0,0,0-4.87,5v8.58a4.91,4.91,0,0,0,4.87,5h8.82A4.91,4.91,0,0,0,21.28,16.26ZM9.38,17.92a.74.74,0,0,1-.14-1.05l1.86-2.45L9.24,12a.75.75,0,1,1,1.19-.91L12.64,14a.77.77,0,0,1,0,.91l-2.21,2.89a.75.75,0,0,1-1,.15Zm-4.87-3.5a.75.75,0,0,1,.75-.75H12a.75.75,0,0,1,0,1.5H5.26A.74.74,0,0,1,4.51,14.42Z"/></g></svg>