<svg xmlns="http://www.w3.org/2000/svg" viewBox="0 0 24 24"><g id="files-folders"><path id="file-added" d="M4,21.17a.73.73,0,0,1-.58-.29L1.73,18.71a.78.78,0,0,1,.13-1.07.73.73,0,0,1,1,.13L4,19.17l1.7-2.23a.72.72,0,0,1,1-.13.78.78,0,0,1,.13,1.07l-2.28,3a.73.73,0,0,1-.58.29Zm18.8-4.89a6.38,6.38,0,0,1-6.27,6.47H10a.76.76,0,0,1,0-1.52h6.44a4.88,4.88,0,0,0,4.79-4.95l0-5.38H17.34a4,4,0,0,1-4-4.09v-4H7.8A5.34,5.34,0,0,0,2.72,7.91v4.9a.74.74,0,1,1-1.48,0v-5C1.58,4.05,4.39,1.25,7.8,1.25h6.36l.19,0s.05,0,.07,0a.6.6,0,0,1,.21.14L22.51,9.6a.78.78,0,0,1,.18.72.66.66,0,0,1,0,.15ZM20.2,9.38,14.85,3.85v3a2.54,2.54,0,0,0,2.49,2.57Z"/></g></svg>