<svg xmlns="http://www.w3.org/2000/svg" viewBox="0 0 24 24"><g id="files-folders"><path id="file-left" d="M22.78,16.28a6.43,6.43,0,0,1-6.37,6.47H7.59a6.43,6.43,0,0,1-6.37-6.47V7.72A6.43,6.43,0,0,1,7.59,1.25h6.46a.65.65,0,0,1,.19,0l.08,0a.7.7,0,0,1,.21.14l8,8.13a.76.76,0,0,1,.19.72.66.66,0,0,1,0,.15Zm-8-9.47a2.56,2.56,0,0,0,2.53,2.57h2.91L14.75,3.85Zm6.53,9.47,0-5.38h-4a4.07,4.07,0,0,1-4-4.09v-4H7.59A4.91,4.91,0,0,0,2.72,7.72v8.56a4.91,4.91,0,0,0,4.87,4.95h8.82A4.91,4.91,0,0,0,21.28,16.28Z"/><path d="M7.32,18.07a.77.77,0,0,1-.6-.29l-2.2-2.9a.74.74,0,0,1,0-.91l2.21-2.89A.75.75,0,0,1,7.92,12L6.06,14.43l1.86,2.44a.75.75,0,0,1-.14,1.05A.79.79,0,0,1,7.32,18.07Z"/><path d="M11.9,15.18H5.19a.75.75,0,0,1,0-1.5H11.9a.75.75,0,0,1,0,1.5Z"/></g></svg>