<svg xmlns="http://www.w3.org/2000/svg" viewBox="0 0 24 24"><g id="files-folders"><path id="file-up" d="M12.24,14.36a.75.75,0,0,1-1.06.08l-1.6-1.39v5.1a.75.75,0,1,1-1.5,0V13L6.23,14.46a.72.72,0,0,1-.46.16.75.75,0,0,1-.59-.29.77.77,0,0,1,.12-1.07L8.36,10.8a.39.39,0,0,1,.11-.06l.09-.05a.87.87,0,0,1,.22,0h.05a.6.6,0,0,1,.27.06l.09.05a.47.47,0,0,1,.12.07l2.85,2.47A.78.78,0,0,1,12.24,14.36Zm10.54,1.92a6.43,6.43,0,0,1-6.37,6.47H7.59a6.43,6.43,0,0,1-6.37-6.47V7.72A6.43,6.43,0,0,1,7.59,1.25H14a.78.78,0,0,1,.21,0l.06,0a.64.64,0,0,1,.22.14l8,8.13a.76.76,0,0,1,.19.72.66.66,0,0,1,0,.15Zm-8-9.47a2.56,2.56,0,0,0,2.53,2.57h2.91L14.75,3.85Zm6.53,9.47,0-5.38h-4a4.07,4.07,0,0,1-4-4.09v-4H7.59A4.91,4.91,0,0,0,2.72,7.72v8.56a4.91,4.91,0,0,0,4.87,4.95h8.82A4.91,4.91,0,0,0,21.28,16.28Z"/></g></svg>