<svg xmlns="http://www.w3.org/2000/svg" viewBox="0 0 24 24"><g id="files-folders"><path id="file-down" d="M11.77,15.92,8.93,18.38a.83.83,0,0,1-.12.08l-.1.05a.63.63,0,0,1-.27.06.66.66,0,0,1-.27-.06l-.09-.05L8,18.4,4.91,15.93a.77.77,0,0,1-.12-1.07.75.75,0,0,1,1.06-.12l1.84,1.49V11.05a.75.75,0,1,1,1.5,0v5.1l1.61-1.39a.74.74,0,0,1,1,.08A.77.77,0,0,1,11.77,15.92Zm11,.36a6.43,6.43,0,0,1-6.37,6.47H7.59a6.43,6.43,0,0,1-6.37-6.47V7.72A6.43,6.43,0,0,1,7.59,1.25h6.46a.65.65,0,0,1,.19,0l.08,0a.7.7,0,0,1,.21.14l8,8.13a.76.76,0,0,1,.19.72.66.66,0,0,1,0,.15Zm-8-9.47a2.56,2.56,0,0,0,2.53,2.57h2.91L14.75,3.85Zm6.53,9.47,0-5.38h-4a4.07,4.07,0,0,1-4-4.09v-4H7.59A4.91,4.91,0,0,0,2.72,7.72v8.56a4.91,4.91,0,0,0,4.87,4.95h8.82A4.91,4.91,0,0,0,21.28,16.28Z"/></g></svg>