<svg xmlns="http://www.w3.org/2000/svg" viewBox="0 0 24 24"><g id="files-folders"><path id="file-sheet" d="M22.75,10.49a.58.58,0,0,0,0-.14.74.74,0,0,0-.19-.71l-8-8a.86.86,0,0,0-.22-.15l-.07,0a.65.65,0,0,0-.19,0H7.59A6.38,6.38,0,0,0,1.22,7.79v8.42a6.38,6.38,0,0,0,6.37,6.37h8.82a6.38,6.38,0,0,0,6.37-6.37ZM14.75,4l5.44,5.44H17.28a2.54,2.54,0,0,1-2.53-2.53Zm1.66,17.1H7.59a4.88,4.88,0,0,1-4.87-4.87V7.79A4.88,4.88,0,0,1,7.59,2.92h5.66v4a4,4,0,0,0,4,4h4l0,5.29A4.88,4.88,0,0,1,16.41,21.08ZM14.2,20H9.58a5.29,5.29,0,0,1-5.29-5.29V10A5.3,5.3,0,0,1,9.58,4.75h1.68a.75.75,0,0,1,0,1.5H9.58A3.79,3.79,0,0,0,5.79,10v4.62a3.79,3.79,0,0,0,3.79,3.79H14.2A3.79,3.79,0,0,0,18,14.66V13a.75.75,0,0,1,1.5,0v1.68A5.3,5.3,0,0,1,14.2,20Z"/></g></svg>