<svg xmlns="http://www.w3.org/2000/svg" viewBox="0 0 24 24"><g id="files-folders"><path id="filter-tablet" d="M16.49,22.75H8.71A6.37,6.37,0,0,1,2.4,16.33V13.9a.74.74,0,0,1,.73-.74.73.73,0,0,1,.72.74v2.43a4.91,4.91,0,0,0,4.86,5h7.78a4.9,4.9,0,0,0,4.85-5V8.8a4.9,4.9,0,0,0-4.85-4.94H14.8a.74.74,0,0,1,0-1.47h1.69a6.36,6.36,0,0,1,6.3,6.41v7.53A6.37,6.37,0,0,1,16.49,22.75ZM6.16,12.31l1-.34a1.47,1.47,0,0,0,1-1.41V8.34a.26.26,0,0,1,.08-.2l2.29-2.05a2.43,2.43,0,0,0,.8-1.83V3.55a2.21,2.21,0,0,0-2.11-2.3H3.32a2.21,2.21,0,0,0-2.11,2.3v.71A2.46,2.46,0,0,0,2,6.09L4.3,8.14a.26.26,0,0,1,.08.2V10.9A1.5,1.5,0,0,0,5,12.11a1.35,1.35,0,0,0,.78.26A1.4,1.4,0,0,0,6.16,12.31ZM9.23,2.72a.77.77,0,0,1,.66.83v.71a1,1,0,0,1-.3.72L7.29,7a1.75,1.75,0,0,0-.57,1.31l0,2.22-.92.31V8.34A1.73,1.73,0,0,0,5.25,7L3,5a1,1,0,0,1-.3-.72V3.55a.76.76,0,0,1,.66-.83Zm8.5,9.52A.74.74,0,0,0,17,11.5H12.6a.74.74,0,0,0,0,1.48H17A.74.74,0,0,0,17.73,12.24Zm.3,4.17a.73.73,0,0,0-.72-.73H9.05a.74.74,0,0,0,0,1.47h8.26A.73.73,0,0,0,18,16.41Z"/></g></svg>