<svg xmlns="http://www.w3.org/2000/svg" viewBox="0 0 24 24"><g id="files-folders"><g id="folder-down"><path d="M22.44,8.92a6.68,6.68,0,0,0-6.66-6.27h-5a2.78,2.78,0,0,0-2.42-1.4H6.18A4.93,4.93,0,0,0,1.25,6.18V17.07a5.68,5.68,0,0,0,5.68,5.68H17.07a5.68,5.68,0,0,0,5.68-5.68V11.35A22.55,22.55,0,0,0,22.44,8.92ZM15.78,4.18a5.12,5.12,0,0,1,4.3,2.36,5.64,5.64,0,0,0-3-.87H13.89a2.78,2.78,0,0,1-2.46-1.49Zm5.44,12.89a4.15,4.15,0,0,1-4.15,4.15H6.93a4.15,4.15,0,0,1-4.15-4.15V6.18a3.4,3.4,0,0,1,3.4-3.4H8.34a1.24,1.24,0,0,1,1.17.8l.36.9a4.31,4.31,0,0,0,4,2.72h3.18a4.15,4.15,0,0,1,4.15,4.15Z"/><path d="M15.44,15,12.6,17.5l-.12.07-.1.05a.64.64,0,0,1-.54,0l-.09-.05-.11-.06L8.58,15A.77.77,0,0,1,8.46,14a.74.74,0,0,1,1-.12l1.85,1.49V10.16a.75.75,0,1,1,1.5,0v5.1l1.61-1.39a.74.74,0,0,1,1,.08A.78.78,0,0,1,15.44,15Z"/></g></g></svg>