<svg xmlns="http://www.w3.org/2000/svg" viewBox="0 0 24 24"><g id="files-folders"><g id="folder-up"><path d="M22.26,8.86c-.21-3.76-3-6.7-6.37-6.7h-5a3.27,3.27,0,0,0-2.33-1h-2A5.32,5.32,0,0,0,1.25,6.52v10.2a6,6,0,0,0,6,6h9.48a6,6,0,0,0,6-6V11.36A12.81,12.81,0,0,0,22.26,8.86ZM15.89,3.59a4.87,4.87,0,0,1,4.26,2.82,5.91,5.91,0,0,0-3.41-1.08h-3A1.89,1.89,0,0,1,12,4.14l-.22-.55Zm5.43,13.13a4.6,4.6,0,0,1-4.58,4.6H7.26a4.6,4.6,0,0,1-4.58-4.6V6.52A3.89,3.89,0,0,1,6.56,2.63h2a1.89,1.89,0,0,1,1.76,1.19l.34.85a3.32,3.32,0,0,0,3.09,2.1h3a4.59,4.59,0,0,1,4.58,4.59Z"/><path d="M15.52,12.86a.75.75,0,0,1-1.06.09l-1.6-1.4v5.11a.75.75,0,1,1-1.5,0V11.48L9.51,13a.73.73,0,0,1-1-.12.77.77,0,0,1,.12-1.07L11.64,9.3l.11-.06.09-.05a.75.75,0,0,1,.54,0l.1.06.12.07,2.84,2.47A.77.77,0,0,1,15.52,12.86Z"/></g></g></svg>