<svg xmlns="http://www.w3.org/2000/svg" viewBox="0 0 24 24"><g id="files-folders"><path id="folder-added" d="M10.45,16.85,8.05,14a.76.76,0,1,1,1.17-1L11,15.13l2.76-3.6a.76.76,0,0,1,1.07-.14A.78.78,0,0,1,15,12.47l-3.33,4.35a.78.78,0,0,1-.59.3h0A.78.78,0,0,1,10.45,16.85Zm12.3-5.5v5.73a5.68,5.68,0,0,1-5.68,5.69H6.93a5.68,5.68,0,0,1-5.68-5.69V6.17A4.94,4.94,0,0,1,6.18,1.23H8.34a2.79,2.79,0,0,1,2.28,1.2h5A6.91,6.91,0,0,1,22.41,9a.92.92,0,0,1,0,.29A5.73,5.73,0,0,1,22.75,11.35ZM15.61,4H11.33a2.78,2.78,0,0,0,2.56,1.7h3.18a5.6,5.6,0,0,1,3,.85A5.21,5.21,0,0,0,15.61,4Zm5.61,7.39A4.15,4.15,0,0,0,17.07,7.2H13.89a4.32,4.32,0,0,1-4-2.73l-.36-.91a1.25,1.25,0,0,0-1.17-.79H6.18a3.4,3.4,0,0,0-3.4,3.4V17.08a4.15,4.15,0,0,0,4.15,4.15H17.07a4.15,4.15,0,0,0,4.15-4.15Z"/></g></svg>