<svg xmlns="http://www.w3.org/2000/svg" viewBox="0 0 24 24"><g id="files-folders"><path id="folder" d="M22.11,8.75a1.13,1.13,0,0,0,0-.18,6.48,6.48,0,0,0-6.3-6.26H11a.75.75,0,0,0-.36.1A2.81,2.81,0,0,0,8.34,1.25H6.18A4.93,4.93,0,0,0,1.25,6.18V17.07a5.68,5.68,0,0,0,5.68,5.68H17.07a5.68,5.68,0,0,0,5.68-5.68V11.35A5.56,5.56,0,0,0,22.11,8.75ZM20,6.49a5.71,5.71,0,0,0-2.93-.82H13.89A2.78,2.78,0,0,1,11.3,3.91l0-.07h4.57A4.73,4.73,0,0,1,20,6.49Zm1.22,10.58a4.15,4.15,0,0,1-4.15,4.15H6.93a4.15,4.15,0,0,1-4.15-4.15V6.18a3.4,3.4,0,0,1,3.4-3.4H8.34a1.24,1.24,0,0,1,1.17.8l.36.9a4.31,4.31,0,0,0,4,2.72h3.18a4.15,4.15,0,0,1,4.15,4.15Z"/></g></svg>