<svg xmlns="http://www.w3.org/2000/svg" viewBox="0 0 24 24"><g id="files-folders"><path id="like-lolder" d="M22,8.74a6.79,6.79,0,0,0-6.62-6.43H10.48A2.78,2.78,0,0,0,8.3,1.25H6.15a4.91,4.91,0,0,0-4.9,4.93V17.07A5.66,5.66,0,0,0,6.9,22.75H17a5.66,5.66,0,0,0,5.65-5.68V11.35A5.71,5.71,0,0,0,22,8.74ZM19.68,6.36A5.55,5.55,0,0,0,17,5.67H13.83a2.76,2.76,0,0,1-2.58-1.76l0-.07h4.17A5,5,0,0,1,19.68,6.36Zm1.44,10.71A4.14,4.14,0,0,1,17,21.22H6.9a4.14,4.14,0,0,1-4.13-4.15V6.18a3.39,3.39,0,0,1,3.38-3.4H8.3a1.24,1.24,0,0,1,1.17.8l.36.9a4.28,4.28,0,0,0,4,2.72H17a4.14,4.14,0,0,1,4.13,4.15Zm-9.32-.35a2.33,2.33,0,0,1-1.32-.4C8.8,15.19,8,14,8,12.91a2.53,2.53,0,0,1,2.38-2.65,2.2,2.2,0,0,1,1.5.59,2.24,2.24,0,0,1,1.51-.59,2.52,2.52,0,0,1,2.37,2.65c0,1-.85,2.17-2.53,3.37A2.33,2.33,0,0,1,11.8,16.72Zm-1.47-4.93c-.46,0-.85.51-.85,1.12s.69,1.36,1.85,2.14a.84.84,0,0,0,1,0c1.39-1,1.89-1.78,1.89-2.13,0-.61-.39-1.12-.85-1.12a.81.81,0,0,0-.68.45,1,1,0,0,1-.82.48h0a1,1,0,0,1-.82-.48A.82.82,0,0,0,10.33,11.79Zm1-.31Z"/></g></svg>