<svg xmlns="http://www.w3.org/2000/svg" viewBox="0 0 24 24"><g id="files-folders"><g id="files-folders-2" data-name="files-folders"><path id="notepad-bookmark" d="M16.46,9.69h-9a.76.76,0,0,1,0-1.52h9a.76.76,0,1,1,0,1.52ZM11,12.92H7.52a.76.76,0,0,0,0,1.52H11a.76.76,0,1,0,0-1.52Zm10.73.89-7.88,8.27a.66.66,0,0,1-.53.22h-5a6.21,6.21,0,0,1-6.2-6.2V8.73A6.24,6.24,0,0,1,7.57,2.56V2.44a.75.75,0,1,1,1.5,0v.09h5.8V2.44a.75.75,0,1,1,1.5,0v.12A6.19,6.19,0,0,1,21.9,8.73v4.56A.74.74,0,0,1,21.7,13.81ZM12.5,17.7a5,5,0,0,1,4.84-5.15H20.4V8.73a4.65,4.65,0,0,0-4-4.64v.18a.75.75,0,1,1-1.5,0V4H9.07v.24a.75.75,0,0,1-1.5,0V4.09a4.72,4.72,0,0,0-4,4.64v7.4a4.71,4.71,0,0,0,4.7,4.7h4.26ZM17.4,14A3.49,3.49,0,0,0,14,17.56V19.7L19.4,14Z"/></g></g></svg>