<svg xmlns="http://www.w3.org/2000/svg" viewBox="0 0 24 24"><g id="files-folders"><path id="notepad-edit" d="M16.11,22.75H7.89a6.6,6.6,0,0,1-6.65-6.53V8.56A6.6,6.6,0,0,1,7.89,2h3.54a.75.75,0,1,1,0,1.5H7.89a5.09,5.09,0,0,0-5.12,5v7.66a5.09,5.09,0,0,0,5.12,5h8.22a5.09,5.09,0,0,0,5.12-5V11.14a.77.77,0,0,1,1.53,0v5.08A6.6,6.6,0,0,1,16.11,22.75Zm1.57-20a.91.91,0,0,0-.75.37l-.59.76a3.47,3.47,0,0,0,1.36,2,3.65,3.65,0,0,0,2.18.74H20l.59-.76a.91.91,0,0,0,.18-.68.86.86,0,0,0-.36-.6L18.24,2.94a.91.91,0,0,0-.56-.19m0-1.5a2.48,2.48,0,0,1,1.48.49l2.19,1.62a2.39,2.39,0,0,1,.48,3.39l-.66.86a1.21,1.21,0,0,1-.81.47l-.48,0a5.26,5.26,0,0,1-3.11-1,5.05,5.05,0,0,1-2-3.1,1.17,1.17,0,0,1,.24-.9l.66-.86a2.5,2.5,0,0,1,2-1Zm-3.79,5.8h0m-.77,1L10.88,11a.73.73,0,0,0-.16.43l0,3.16a.24.24,0,0,0,.08.21.34.34,0,0,0,.23.1l.09,0L14.18,14a.79.79,0,0,0,.38-.27l2.24-2.9a9,9,0,0,1-2-1.12,8.69,8.69,0,0,1-1.65-1.61m.05-2.16a.6.6,0,0,1,.55.33,7.2,7.2,0,0,0,2,2.24,7,7,0,0,0,2.74,1.24.61.61,0,0,1,.37,1l-3,3.92a2.22,2.22,0,0,1-1.17.79l-3.09.9a1.88,1.88,0,0,1-.52.08,1.81,1.81,0,0,1-1.84-1.83l0-3.16a2.19,2.19,0,0,1,.47-1.32l3-3.92a.65.65,0,0,1,.5-.24Z"/></g></svg>