<svg xmlns="http://www.w3.org/2000/svg" viewBox="0 0 24 24"><g id="files-folders"><path id="questionnaire-tablet" d="M16.1,22.75H7.9A6.72,6.72,0,0,1,1.25,16V8A6.72,6.72,0,0,1,7.9,1.25h8.2A6.72,6.72,0,0,1,22.75,8v8A6.72,6.72,0,0,1,16.1,22.75ZM7.9,2.81A5.18,5.18,0,0,0,2.78,8v8A5.18,5.18,0,0,0,7.9,21.19h8.2A5.18,5.18,0,0,0,21.22,16V8A5.18,5.18,0,0,0,16.1,2.81Zm-.75,8a.77.77,0,0,0,.54-.35L9.38,7.73a.79.79,0,0,0-.24-1.08.75.75,0,0,0-1.05.25l-1.22,2-.69-.61a.75.75,0,0,0-1.08.07.8.8,0,0,0,.07,1.1l1.37,1.21a.78.78,0,0,0,.5.19ZM18.72,9.26A.78.78,0,0,0,18,8.48H12A.78.78,0,0,0,12,10H18A.78.78,0,0,0,18.72,9.26Zm-11.6,7a.77.77,0,0,0,.54-.35L9.35,13.2a.78.78,0,0,0-.24-1.07.75.75,0,0,0-1,.24l-1.22,2-.69-.61a.75.75,0,0,0-1.08.08.8.8,0,0,0,.07,1.1l1.37,1.2a.73.73,0,0,0,.5.19Zm11.62-1.55A.77.77,0,0,0,18,14H12a.78.78,0,0,0,0,1.56h6A.77.77,0,0,0,18.74,14.74Z"/></g></svg>