<svg xmlns="http://www.w3.org/2000/svg" viewBox="0 0 24 24"><g id="files-folders"><g id="search-list"><path d="M17.62,22.75H6.38a3.1,3.1,0,0,1-3.1-3.1V4.35a3.1,3.1,0,0,1,3.1-3.1h6.89a2.06,2.06,0,0,1,1.46.61l5.4,5.47a2.05,2.05,0,0,1,.59,1.44V19.65A3.1,3.1,0,0,1,17.62,22.75ZM6.38,2.75a1.6,1.6,0,0,0-1.6,1.6v15.3a1.6,1.6,0,0,0,1.6,1.6H17.62a1.6,1.6,0,0,0,1.6-1.6V8.77a.59.59,0,0,0-.16-.39l-5.4-5.47a.55.55,0,0,0-.39-.16Z"/><path d="M19.94,9.25H16.62A3.86,3.86,0,0,1,12.76,5.4V2A.74.74,0,0,1,13,1.45a.73.73,0,0,1,.62-.16,2,2,0,0,1,1.08.57l5.4,5.47h0a2.06,2.06,0,0,1,.54,1,.74.74,0,0,1-.73.9ZM14.26,3.52V5.4a2.36,2.36,0,0,0,2.36,2.35h1.82Z"/><path d="M16.25,17.24l-2.08-2A3.87,3.87,0,0,0,14.9,13a4,4,0,1,0-1.82,3.31l2.14,2a.75.75,0,0,0,.52.21.71.71,0,0,0,.54-.24A.75.75,0,0,0,16.25,17.24ZM8.52,13A2.44,2.44,0,1,1,11,15.44,2.45,2.45,0,0,1,8.52,13Z"/></g></g></svg>