<svg xmlns="http://www.w3.org/2000/svg" viewBox="0 0 24 24"><g id="files-folders"><path id="some-files" d="M20.37,18.18a.69.69,0,0,1-.54-.25.71.71,0,0,1,.07-1,4.27,4.27,0,0,0,1.43-3.19V7a4.24,4.24,0,0,0-4.21-4.26H10.43A4.12,4.12,0,0,0,7.57,3.85a.7.7,0,0,1-1,0,.73.73,0,0,1,0-1,5.54,5.54,0,0,1,3.84-1.55h6.69A5.68,5.68,0,0,1,22.75,7v6.78A5.72,5.72,0,0,1,20.84,18,.73.73,0,0,1,20.37,18.18ZM19,17.38a5.32,5.32,0,0,1-5.28,5.35H6.53a5.32,5.32,0,0,1-5.28-5.35V10.44A5.32,5.32,0,0,1,6.53,5.09h5.26a.58.58,0,0,1,.18,0l.07,0a.9.9,0,0,1,.2.14l6.51,6.59a.73.73,0,0,1,.18.66.53.53,0,0,1,0,.12ZM12.45,9.7a2,2,0,0,0,2,2h2.12L12.45,7.55Zm5.11,7.68,0-4.26H14.41A3.4,3.4,0,0,1,11,9.7V6.53H6.53a3.89,3.89,0,0,0-3.86,3.91v6.94a3.89,3.89,0,0,0,3.86,3.91H13.7A3.89,3.89,0,0,0,17.56,17.38Z"/></g></svg>