<svg xmlns="http://www.w3.org/2000/svg" viewBox="0 0 24 24"><g id="files-folders"><path id="tab-tablet" d="M16.1,22.75H7.9a6.57,6.57,0,0,1-6.65-6.48V8.67A6.57,6.57,0,0,1,7.9,2.2h3a.76.76,0,0,1,.77.74.76.76,0,0,1-.77.74h-3a5.06,5.06,0,0,0-5.12,5v7.6a5.06,5.06,0,0,0,5.12,5h8.2a5.06,5.06,0,0,0,5.12-5V8.67a.77.77,0,0,1,1.53,0v7.6A6.57,6.57,0,0,1,16.1,22.75ZM15.75,9.67l.59-.46a.23.23,0,0,1,.25,0l.59.46a1.75,1.75,0,0,0,1.83.2,1.66,1.66,0,0,0,1-1.52V3a1.72,1.72,0,0,0-1.73-1.69H14.67A1.72,1.72,0,0,0,12.94,3v5.4a1.68,1.68,0,0,0,1,1.52,1.83,1.83,0,0,0,.76.17A1.76,1.76,0,0,0,15.75,9.67Zm-.37-1.62-.58.46a.22.22,0,0,1-.22,0,.2.2,0,0,1-.11-.18V3a.2.2,0,0,1,.2-.2h3.59a.2.2,0,0,1,.2.2v5.4a.2.2,0,0,1-.11.18.22.22,0,0,1-.22,0h0l-.58-.45a1.78,1.78,0,0,0-2.17,0Zm-1.52,4.42a.75.75,0,0,0-.76-.74H8a.75.75,0,0,0-.77.74.76.76,0,0,0,.77.75H13.1A.76.76,0,0,0,13.86,12.47Zm2.31,3.76a.75.75,0,0,0-.76-.74H7.33a.75.75,0,0,0-.76.74.76.76,0,0,0,.76.75h8.08A.76.76,0,0,0,16.17,16.23Z"/></g></svg>