<svg xmlns="http://www.w3.org/2000/svg" viewBox="0 0 24 24"><g id="files-folders"><path id="tablet" d="M15.83,22.75H8.17a6.29,6.29,0,0,1-6.28-6.28V9.18A6.29,6.29,0,0,1,5.05,3.74.77.77,0,0,1,6.11,4a.79.79,0,0,1-.29,1.07A4.74,4.74,0,0,0,3.45,9.18v7.29a4.72,4.72,0,0,0,4.72,4.72h7.66a4.72,4.72,0,0,0,4.72-4.72V9.18a4.73,4.73,0,0,0-2.36-4.09A.78.78,0,1,1,19,3.75a6.31,6.31,0,0,1,3.14,5.43v7.29A6.29,6.29,0,0,1,15.83,22.75ZM16.81,4V3a1.74,1.74,0,0,0-1.74-1.75H9.4A1.75,1.75,0,0,0,7.65,3V4A1.75,1.75,0,0,0,9.4,5.75h5.67A1.74,1.74,0,0,0,16.81,4ZM15.07,2.81a.19.19,0,0,1,.19.19V4a.2.2,0,0,1-.19.2H9.4A.2.2,0,0,1,9.2,4V3a.19.19,0,0,1,.2-.19Z"/></g></svg>