<svg xmlns="http://www.w3.org/2000/svg" viewBox="0 0 24 24"><g id="files-folders"><path id="tablet-delete" d="M14.87,15.57a.76.76,0,0,1-.56.24.8.8,0,0,1-.54-.21l-1.51-1.45-1.43,1.52a.73.73,0,0,1-.56.25.78.78,0,0,1-.57-1.31l1.44-1.53L9.61,11.62a.78.78,0,0,1,0-1.1.79.79,0,0,1,1.1,0l1.51,1.45,1.43-1.52a.77.77,0,1,1,1.13,1.06L13.33,13l1.52,1.45A.78.78,0,0,1,14.87,15.57Zm7.24.91V9.18A6.31,6.31,0,0,0,19,3.75a.78.78,0,1,0-.78,1.34,4.73,4.73,0,0,1,2.36,4.09v7.3a4.72,4.72,0,0,1-4.72,4.71H8.17a4.72,4.72,0,0,1-4.72-4.71V9.18A4.74,4.74,0,0,1,5.82,5.09.79.79,0,0,0,6.11,4a.77.77,0,0,0-1.06-.28A6.29,6.29,0,0,0,1.89,9.18v7.3a6.29,6.29,0,0,0,6.28,6.27h7.66A6.29,6.29,0,0,0,22.11,16.48ZM16.81,4V3a1.74,1.74,0,0,0-1.74-1.75H9.4A1.75,1.75,0,0,0,7.65,3V4A1.75,1.75,0,0,0,9.4,5.75h5.67A1.74,1.74,0,0,0,16.81,4ZM15.07,2.81a.19.19,0,0,1,.19.19V4a.2.2,0,0,1-.19.2H9.4A.2.2,0,0,1,9.2,4V3a.19.19,0,0,1,.2-.19Z"/></g></svg>