<svg xmlns="http://www.w3.org/2000/svg" viewBox="0 0 24 24"><g id="files-folders"><path id="tablet-ok" d="M10.7,16,8.26,13.05A.77.77,0,0,1,8.36,12a.78.78,0,0,1,1.09.09l1.82,2.17,2.8-3.64a.77.77,0,1,1,1.23.94l-3.39,4.42a.78.78,0,0,1-.6.31h0A.81.81,0,0,1,10.7,16Zm11.18.51V9.18a6.29,6.29,0,0,0-3.14-5.43A.78.78,0,1,0,18,5.09a4.73,4.73,0,0,1,2.36,4.09v7.3a4.72,4.72,0,0,1-4.72,4.71H7.94a4.72,4.72,0,0,1-4.72-4.71V9.18A4.74,4.74,0,0,1,5.59,5.09.79.79,0,0,0,5.88,4a.77.77,0,0,0-1.06-.28A6.28,6.28,0,0,0,1.67,9.18v7.3a6.28,6.28,0,0,0,6.27,6.27H15.6A6.29,6.29,0,0,0,21.88,16.48ZM16.58,4V3a1.74,1.74,0,0,0-1.74-1.75H9.17A1.75,1.75,0,0,0,7.42,3V4A1.75,1.75,0,0,0,9.17,5.75h5.67A1.74,1.74,0,0,0,16.58,4ZM14.84,2.81A.19.19,0,0,1,15,3V4a.2.2,0,0,1-.19.2H9.17A.2.2,0,0,1,9,4V3a.19.19,0,0,1,.2-.19Z"/></g></svg>