<svg xmlns="http://www.w3.org/2000/svg" viewBox="0 0 24 24"><g id="files-folders"><path id="tablet-text-up" d="M12.13,16.44H7.39a.78.78,0,1,1,0-1.56h4.74a.78.78,0,0,1,0,1.56ZM17.06,12a.78.78,0,0,0-.78-.78H7.39a.78.78,0,1,0,0,1.56h8.89A.78.78,0,0,0,17.06,12Zm5.22,4.49V9.21a6.32,6.32,0,0,0-3.15-5.45.78.78,0,1,0-.79,1.35,4.73,4.73,0,0,1,2.37,4.1v7.32A4.74,4.74,0,0,1,16,21.27H8.28a4.74,4.74,0,0,1-4.73-4.74V9.21A4.76,4.76,0,0,1,5.93,5.1.78.78,0,0,0,6.21,4a.77.77,0,0,0-1.06-.28A6.32,6.32,0,0,0,2,9.21v7.32a6.31,6.31,0,0,0,6.3,6.3H16A6.31,6.31,0,0,0,22.28,16.53ZM17,4V3a1.75,1.75,0,0,0-1.75-1.76H9.52A1.76,1.76,0,0,0,7.76,3V4A1.76,1.76,0,0,0,9.52,5.77h5.69A1.75,1.75,0,0,0,17,4Zm-1.75-1.2a.2.2,0,0,1,.19.2V4a.2.2,0,0,1-.19.2H9.52a.2.2,0,0,1-.2-.2V3a.2.2,0,0,1,.2-.2Z"/></g></svg>