<svg xmlns="http://www.w3.org/2000/svg" viewBox="0 0 24 24"><g id="files-folders"><path id="update-folder" d="M22.11,8.74a.86.86,0,0,0,0-.17,6.69,6.69,0,0,0-6.66-6.26h-5A2.78,2.78,0,0,0,8.34,1.25H6.18A4.93,4.93,0,0,0,1.25,6.18V17.07a5.68,5.68,0,0,0,5.68,5.68H17.07a5.68,5.68,0,0,0,5.68-5.68V11.35A5.6,5.6,0,0,0,22.11,8.74Zm-2.19-2.3a5.73,5.73,0,0,0-2.85-.77H13.89A2.78,2.78,0,0,1,11.3,3.91l0-.07h4.21A5.13,5.13,0,0,1,19.92,6.44Zm1.3,10.63a4.15,4.15,0,0,1-4.15,4.15H6.93a4.15,4.15,0,0,1-4.15-4.15V6.18a3.4,3.4,0,0,1,3.4-3.4H8.34a1.24,1.24,0,0,1,1.17.8l.36.9a4.31,4.31,0,0,0,4,2.72h3.18a4.15,4.15,0,0,1,4.15,4.15ZM10.85,13.58l-2.34.82a.73.73,0,0,1-.25,0A.78.78,0,0,1,7.54,14l-.85-2.23a.77.77,0,0,1,1.43-.55l.24.64a.78.78,0,0,1,.05-.14,4.06,4.06,0,0,1,5.5-1.61.76.76,0,1,1-.73,1.34,2.53,2.53,0,0,0-3.37.92l.53-.19a.77.77,0,1,1,.51,1.45ZM17,16.85l-.77-2.36a.79.79,0,0,0-.4-.46.8.8,0,0,0-.61,0L13,14.89a.77.77,0,0,0,.56,1.43l.47-.19a2.53,2.53,0,0,1-3.37.92.76.76,0,0,0-1,.3.77.77,0,0,0,.3,1,4,4,0,0,0,1.95.5,4.09,4.09,0,0,0,3.53-2.05l.15.48a.78.78,0,0,0,.73.53.67.67,0,0,0,.24,0A.76.76,0,0,0,17,16.85Z"/></g></svg>