<svg xmlns="http://www.w3.org/2000/svg" viewBox="0 0 24 24"><g id="files-folders"><path id="update-file" d="M8.18,14.68l-2.29.81a.69.69,0,0,1-.24,0A.74.74,0,0,1,5,15l-.84-2.21a.78.78,0,0,1,.44-1,.74.74,0,0,1,1,.44l.24.63s0-.09,0-.13a4,4,0,0,1,2.37-1.94,3.91,3.91,0,0,1,3,.34.77.77,0,0,1,.3,1,.74.74,0,0,1-1,.3,2.46,2.46,0,0,0-3.3.91l.52-.18a.74.74,0,0,1,1,.47A.77.77,0,0,1,8.18,14.68Zm6,3.25-.75-2.35a.77.77,0,0,0-.4-.45.71.71,0,0,0-.59,0L10.28,16a.78.78,0,0,0-.42,1,.73.73,0,0,0,1,.43l.46-.18a2.44,2.44,0,0,1-3.3.91.76.76,0,0,0-1,.3.78.78,0,0,0,.3,1,3.95,3.95,0,0,0,5.36-1.55l.16.48a.73.73,0,0,0,.71.53.62.62,0,0,0,.23,0A.76.76,0,0,0,14.21,17.93Zm8.57-7.46a.66.66,0,0,0,0-.15.76.76,0,0,0-.19-.72l-8-8.13a.64.64,0,0,0-.22-.14s0,0-.07,0a.65.65,0,0,0-.19,0H7.62A6.43,6.43,0,0,0,1.25,7.72v8.56a6.43,6.43,0,0,0,6.37,6.47h8.82a6.43,6.43,0,0,0,6.37-6.47Zm-8-6.62,5.44,5.53H17.31a2.55,2.55,0,0,1-2.53-2.57Zm1.66,17.38H7.62a4.91,4.91,0,0,1-4.87-4.95V7.72A4.91,4.91,0,0,1,7.62,2.77h5.66v4a4.07,4.07,0,0,0,4,4.09h4l0,5.38A4.92,4.92,0,0,1,16.44,21.23Z"/></g></svg>