<svg xmlns="http://www.w3.org/2000/svg" viewBox="0 0 24 24"><defs><style>.cls-1{opacity:0.3;}</style></defs><g id="files-folders"><g id="add-folder"><path class="cls-1" d="M11.21,4.53a2.61,2.61,0,0,0,2.42,1.64h3a5.28,5.28,0,0,1,4.63,2.75,5.51,5.51,0,0,0-5.49-5.17H10.9Z"/><path d="M16.72,6.11h-3a2.59,2.59,0,0,1-2.41-1.64L11,3.63A2.61,2.61,0,0,0,8.59,2h-2A4.58,4.58,0,0,0,2,6.58V16.73A5.28,5.28,0,0,0,7.28,22h9.44A5.28,5.28,0,0,0,22,16.73V11.39A5.27,5.27,0,0,0,16.72,6.11Zm-2.44,8.05H12.73l0,1.53a.71.71,0,0,1-.69.73h0a.71.71,0,0,1-.71-.69l0-1.59-1.6,0a.71.71,0,0,1,0-1.42l1.54,0,0-1.54a.71.71,0,0,1,.69-.73.69.69,0,0,1,.73.69l0,1.59,1.6,0a.71.71,0,0,1,0,1.42Z"/></g></g></svg>