<svg xmlns="http://www.w3.org/2000/svg" viewBox="0 0 24 24"><defs><style>.cls-1{opacity:0.3;}</style></defs><g id="files-folders"><g id="add-files"><path d="M22.91,9.31h-4.7a3.39,3.39,0,0,1-3.28-3.62V.88Z"/><path d="M5.05,15a4.08,4.08,0,0,0,0,8.16,4.08,4.08,0,0,0,0-8.16Zm1.49,4.86H5.8v.73A.75.75,0,0,1,5,21.3a.77.77,0,0,1-.75-.75v-.73H3.54A.77.77,0,0,1,2.8,19a.79.79,0,0,1,.76-.75h.73v-.73a.77.77,0,0,1,1.53,0h0v.73h.73a.75.75,0,0,1,.74.77A.76.76,0,0,1,6.54,19.84Z"/><path class="cls-1" d="M22.92,10.84H18.21a4.91,4.91,0,0,1-4.77-5.15V.86H8.54a5.67,5.67,0,0,0-5.6,5.73v8.6c0,.13,0,.27,0,.4A3.9,3.9,0,0,1,5.05,15a4,4,0,0,1,4,4.08,4.16,4.16,0,0,1-.46,1.86h8.76a5.67,5.67,0,0,0,5.6-5.73Z"/></g></g></svg>