<svg xmlns="http://www.w3.org/2000/svg" viewBox="0 0 24 24"><defs><style>.cls-1{opacity:0.3;}</style></defs><g id="files-folders"><g id="add-notepad"><rect class="cls-1" x="2.82" y="3.69" width="18.37" height="18.31" rx="5.46"/><path d="M8.35,5.43a.75.75,0,0,1-.75-.75V2.85a.75.75,0,1,1,1.5,0V4.68A.75.75,0,0,1,8.35,5.43Z"/><path d="M15.65,5.43a.74.74,0,0,1-.75-.75V2.85a.75.75,0,0,1,1.5,0V4.68A.75.75,0,0,1,15.65,5.43Z"/><path d="M14.28,13.62h0l-1.54,0,0,1.54a.71.71,0,0,1-.69.73h0a.71.71,0,0,1-.71-.69l0-1.59-1.6,0a.71.71,0,0,1,0-1.42h1.54l0-1.53a.72.72,0,0,1,.69-.74.7.7,0,0,1,.73.7l0,1.59h1.6a.72.72,0,0,1,0,1.43Z"/></g></g></svg>