<svg xmlns="http://www.w3.org/2000/svg" viewBox="0 0 24 24"><defs><style>.cls-1{opacity:0.3;}</style></defs><g id="files-folders"><g id="delete-folder"><path class="cls-1" d="M11.38,4.47A2.57,2.57,0,0,0,13.79,6.1h2.95a5.26,5.26,0,0,1,4.61,2.74,5.48,5.48,0,0,0-5.47-5.15H11.06Z"/><path d="M16.74,6.1H13.79a2.57,2.57,0,0,1-2.41-1.63L11,3.63A2.6,2.6,0,0,0,8.63,2h-2A4.57,4.57,0,0,0,2.06,6.57V16.68a5.25,5.25,0,0,0,5.26,5.26h9.42A5.26,5.26,0,0,0,22,16.68V11.37A5.27,5.27,0,0,0,16.74,6.1Zm-2.46,9.14a.74.74,0,0,1-.52.22.73.73,0,0,1-.49-.2l-1.12-1.07-1.06,1.13a.7.7,0,0,1-.52.22.72.72,0,0,1-.49-.19.71.71,0,0,1,0-1l1.07-1.14L10,12.12a.7.7,0,0,1,0-1,.71.71,0,0,1,1,0l1.12,1.08L13.15,11a.71.71,0,1,1,1,1l-1.07,1.14,1.13,1.09A.7.7,0,0,1,14.28,15.24Z"/></g></g></svg>