<svg xmlns="http://www.w3.org/2000/svg" viewBox="0 0 24 24"><defs><style>.cls-1{opacity:0.3;}</style></defs><g id="files-folders"><g id="delete-files"><path d="M22.61,9.54H17.9a3.38,3.38,0,0,1-3.27-3.62V1.11ZM8.73,19.29a4,4,0,0,1-4,4.08,4.08,4.08,0,0,1,0-8.16A4,4,0,0,1,8.73,19.29ZM7,19.31a.76.76,0,0,0-.74-.77l-3,0a.77.77,0,0,0-.75.75.76.76,0,0,0,.74.78l3,0h0A.76.76,0,0,0,7,19.31Z"/><path class="cls-1" d="M22.61,11.07H17.9a4.92,4.92,0,0,1-4.77-5.15V1.09H8.23a5.67,5.67,0,0,0-5.6,5.73v8.6c0,.13,0,.27,0,.4a3.93,3.93,0,0,1,2.08-.61,4.06,4.06,0,0,1,3.53,5.94H17a5.67,5.67,0,0,0,5.61-5.73Z"/></g></g></svg>