<svg xmlns="http://www.w3.org/2000/svg" viewBox="0 0 24 24"><defs><style>.cls-1{opacity:0.3;}</style></defs><g id="files-folders"><g id="document"><path class="cls-1" d="M22,12H17.27a4.91,4.91,0,0,1-4.78-5.13V2H7.58A5.66,5.66,0,0,0,2,7.71v8.58A5.66,5.66,0,0,0,7.58,22H16.4A5.67,5.67,0,0,0,22,16.29L22,12Z"/><path d="M16,17.05a.71.71,0,0,1-.64.77H7.87a.72.72,0,0,1-.64-.77.71.71,0,0,1,.64-.76h7.46A.7.7,0,0,1,16,17.05ZM14,2v4.8a3.38,3.38,0,0,0,3.28,3.61H22ZM8.08,13.71h3.16a.76.76,0,0,0,0-1.52H8.08a.76.76,0,0,0,0,1.52Z"/></g></g></svg>