<svg xmlns="http://www.w3.org/2000/svg" viewBox="0 0 24 24"><defs><style>.cls-1{opacity:0.3;}</style></defs><g id="files-folders"><g id="file-down"><path class="cls-1" d="M22,12h-4.7A4.9,4.9,0,0,1,12.5,6.82V2H7.6A5.66,5.66,0,0,0,2,7.71v8.58A5.66,5.66,0,0,0,7.6,22h8.8A5.66,5.66,0,0,0,22,16.29L22,12Z"/><path d="M21.61,11H16.89a3.35,3.35,0,0,1-3.28-3.55V2.72ZM10.8,15.59,9.19,17v-5a.75.75,0,0,0-1.5,0V17L5.84,15.57a.75.75,0,0,0-.93,1.18L8,19.18l.11.06.09.05a.86.86,0,0,0,.27.05.63.63,0,0,0,.27-.06l.1-.05.12-.07,2.84-2.43a.76.76,0,0,0,.08-1.06A.74.74,0,0,0,10.8,15.59Z"/></g></g></svg>