<svg xmlns="http://www.w3.org/2000/svg" viewBox="0 0 24 24"><defs><style>.cls-1{opacity:0.3;}</style></defs><g id="files-folders"><g id="file-left"><path class="cls-1" d="M22,12H17.26a4.91,4.91,0,0,1-4.78-5.13V2H7.58A5.66,5.66,0,0,0,2,7.71v8.58A5.66,5.66,0,0,0,7.58,22h8.81A5.66,5.66,0,0,0,22,16.29L22,12Z"/><path d="M22,10.43H17.26A3.39,3.39,0,0,1,14,6.82V2ZM12,13.9H7l1.37-1.63a.77.77,0,0,0-.08-1.08.74.74,0,0,0-1.05.09L4.82,14.17l-.08.13s0,0,0,.08a.67.67,0,0,0-.06.28h0s0,0,0,0a1,1,0,0,0,0,.24.41.41,0,0,1,0,.09l.06.11,2.43,3.11a.73.73,0,0,0,.58.29.74.74,0,0,0,.47-.16A.78.78,0,0,0,8.4,17.3L6.94,15.43H12a.77.77,0,0,0,0-1.53Z"/></g></g></svg>