<svg xmlns="http://www.w3.org/2000/svg" viewBox="0 0 24 24"><defs><style>.cls-1{opacity:0.3;}</style></defs><g id="files-folders"><g id="file-right"><path class="cls-1" d="M22,12h-4.7A4.9,4.9,0,0,1,12.5,6.82V2H7.6A5.66,5.66,0,0,0,2,7.71v8.58A5.66,5.66,0,0,0,7.6,22h8.8A5.66,5.66,0,0,0,22,16.29L22,12Z"/><path d="M22,10.43h-4.7A3.39,3.39,0,0,1,14,6.82V2Zm-9.23,4a.35.35,0,0,0-.05-.08.46.46,0,0,0-.08-.13l-2.42-2.89a.74.74,0,0,0-1-.09.78.78,0,0,0-.09,1.08l1.37,1.63h-5a.77.77,0,0,0,0,1.53H10.5L9,17.3a.77.77,0,0,0,.12,1.08.74.74,0,0,0,.46.16.75.75,0,0,0,.59-.29l2.42-3.11a.39.39,0,0,0,.06-.11.41.41,0,0,0,.05-.09,1,1,0,0,0,0-.24v0h0A.87.87,0,0,0,12.74,14.38Z"/></g></g></svg>