<svg xmlns="http://www.w3.org/2000/svg" viewBox="0 0 24 24"><defs><style>.cls-1{opacity:0.3;}</style></defs><g id="files-folders"><g id="file-deleted"><path d="M22.83,9.78H18.11a3.39,3.39,0,0,1-3.28-3.61V1.37ZM9.14,19.16a4,4,0,0,1-4,4.07,4.07,4.07,0,0,1,0-8.14A4,4,0,0,1,9.14,19.16Zm-2.91,0,.53-.48a.78.78,0,0,0,0-1.08.75.75,0,0,0-1.06-.05l-.58.53-.56-.56a.74.74,0,0,0-1.06,0,.78.78,0,0,0,0,1.08l.51.51-.53.49a.77.77,0,0,0,0,1.08A.75.75,0,0,0,4,21a.78.78,0,0,0,.51-.2l.58-.54.55.56a.73.73,0,0,0,1.06,0,.78.78,0,0,0,0-1.08Z"/><path class="cls-1" d="M22.84,11.3H18.11a4.91,4.91,0,0,1-4.78-5.13V1.35H8.42A5.67,5.67,0,0,0,2.8,7.06v8.58c0,.07,0,.15,0,.22a3.94,3.94,0,0,1,2.33-.77,4,4,0,0,1,4,4.07,4.07,4.07,0,0,1-.64,2.19h8.74a5.67,5.67,0,0,0,5.62-5.71Z"/></g></g></svg>