<svg xmlns="http://www.w3.org/2000/svg" viewBox="0 0 24 24"><defs><style>.cls-1{opacity:0.3;}</style></defs><g id="files-folders"><g id="file-up"><path class="cls-1" d="M22,12H17.27a4.91,4.91,0,0,1-4.78-5.13V2H7.58A5.66,5.66,0,0,0,2,7.71v8.58A5.66,5.66,0,0,0,7.58,22H16.4A5.67,5.67,0,0,0,22,16.29L22,12Z"/><path d="M22,10.43H17.27A3.38,3.38,0,0,1,14,6.82V2Zm-12.67.38-.13-.08-.08,0a.66.66,0,0,0-.27-.06H8.77a.78.78,0,0,0-.21,0l-.1.06-.1,0L5.3,13.27a.76.76,0,0,0-.12,1.07.72.72,0,0,0,.58.29.75.75,0,0,0,.47-.17L8.07,13v5.19a.75.75,0,1,0,1.5,0V13.05l1.6,1.39a.74.74,0,0,0,1.06-.08.78.78,0,0,0-.08-1.08Z"/></g></g></svg>