<svg xmlns="http://www.w3.org/2000/svg" viewBox="0 0 24 24"><defs><style>.cls-1{opacity:0.3;}</style></defs><g id="files-folders"><g id="file_added" data-name="file added"><path d="M22.77,10H18.05a3.35,3.35,0,0,1-3.28-3.55V1.69ZM5.2,14.62a4,4,0,1,0,4,4A4,4,0,0,0,5.2,14.62ZM3.27,17.55a.75.75,0,0,1,1.06.13l.63.81,1.12-1.42A.75.75,0,0,1,7.26,18L5.55,20.17a.75.75,0,0,1-.59.29.74.74,0,0,1-.59-.29L3.14,18.6A.76.76,0,0,1,3.27,17.55Z"/><path class="cls-1" d="M22.78,11.46H18.05a4.87,4.87,0,0,1-4.78-5.05V1.67H8.36A5.62,5.62,0,0,0,2.74,7.29v8.2a3.94,3.94,0,0,1,2.46-.87,4,4,0,0,1,2.94,6.7h9a5.62,5.62,0,0,0,5.62-5.61Z"/></g></g></svg>