<svg xmlns="http://www.w3.org/2000/svg" viewBox="0 0 24 24"><defs><style>.cls-1{opacity:0.3;}</style></defs><g id="files-folders"><g id="filter-tablet"><path class="cls-1" d="M16.33,3.13h-5a2,2,0,0,1,0,.43v.71a2.68,2.68,0,0,1-.89,2L8.12,8.35v2.21A1.7,1.7,0,0,1,7,12.2l-1,.34a1.67,1.67,0,0,1-.49.08A1.69,1.69,0,0,1,3.78,10.9V8.33L2.9,7.55A5.77,5.77,0,0,0,2.76,8.8v7.53A5.67,5.67,0,0,0,8.43,22h7.9A5.67,5.67,0,0,0,22,16.33V8.8A5.67,5.67,0,0,0,16.33,3.13Z"/><path d="M9.8,5.55l-2.33,2a1,1,0,0,0-.33.76v2.21a.73.73,0,0,1-.48.71l-1,.34a.69.69,0,0,1-.85-.71V8.35a1,1,0,0,0-.33-.76l-2.33-2a1.71,1.71,0,0,1-.56-1.28V3.56A1.49,1.49,0,0,1,3,2H9a1.49,1.49,0,0,1,1.4,1.56v.71A1.68,1.68,0,0,1,9.8,5.55ZM12.38,13h4.47a.74.74,0,1,0,0-1.47H12.38a.74.74,0,1,0,0,1.47Zm4.78,2.69H8.78a.74.74,0,1,0,0,1.47h8.38a.74.74,0,1,0,0-1.47Z"/></g></g></svg>