<svg xmlns="http://www.w3.org/2000/svg" viewBox="0 0 24 24"><defs><style>.cls-1{opacity:0.3;}</style></defs><g id="files-folders"><g id="folder-added"><path class="cls-1" d="M11.35,4.49a2.59,2.59,0,0,0,2.41,1.64h3a5.27,5.27,0,0,1,4.63,2.75A5.51,5.51,0,0,0,15.86,3.7H11Z"/><path d="M16.72,6.13h-3a2.59,2.59,0,0,1-2.41-1.64L11,3.64A2.61,2.61,0,0,0,8.59,2h-2A4.59,4.59,0,0,0,2,6.6V16.78a5.29,5.29,0,0,0,5.28,5.3h9.44A5.29,5.29,0,0,0,22,16.78V11.43A5.29,5.29,0,0,0,16.72,6.13Zm-1,6.35-3.1,4.06a.73.73,0,0,1-.55.28h0a.74.74,0,0,1-.55-.26L9.25,13.88a.72.72,0,0,1,1.1-.92L12,15l2.56-3.35a.71.71,0,0,1,1-.14A.73.73,0,0,1,15.7,12.48Z"/></g></g></svg>