<svg xmlns="http://www.w3.org/2000/svg" viewBox="0 0 24 24"><defs><style>.cls-1{opacity:0.3;}</style></defs><g id="files-folders"><g id="folder-up"><path class="cls-1" d="M11.18,4.57a2.59,2.59,0,0,0,2.41,1.64h3A5.28,5.28,0,0,1,21.18,9a5.5,5.5,0,0,0-5.49-5.16H10.86Z"/><path d="M16.72,6.11h-3a2.58,2.58,0,0,1-2.41-1.63L11,3.64A2.61,2.61,0,0,0,8.59,2h-2A4.58,4.58,0,0,0,2,6.58V16.72A5.27,5.27,0,0,0,7.28,22h9.44A5.27,5.27,0,0,0,22,16.72V11.39A5.28,5.28,0,0,0,16.72,6.11Zm-1.14,7.23a.76.76,0,0,1-1.06.09l-1.6-1.38v5a.75.75,0,0,1-1.5,0V12L9.57,13.44a.75.75,0,1,1-.93-1.17L11,10.42h0l.68-.53a.83.83,0,0,1,1.06,0l2.8,2.38A.74.74,0,0,1,15.58,13.34Z"/></g></g></svg>