<svg xmlns="http://www.w3.org/2000/svg" viewBox="0 0 24 24"><defs><style>.cls-1{opacity:0.3;}</style></defs><g id="files-folders"><g id="like-folder"><path class="cls-1" d="M11.12,4.72a2.58,2.58,0,0,0,2.41,1.63h3a5.28,5.28,0,0,1,4.63,2.74,5.49,5.49,0,0,0-5.49-5.15H10.8Z"/><path d="M16.72,6.12h-3a2.58,2.58,0,0,1-2.41-1.63L11,3.65A2.61,2.61,0,0,0,8.59,2h-2A4.58,4.58,0,0,0,2,6.59V16.71A5.28,5.28,0,0,0,7.28,22h9.44A5.28,5.28,0,0,0,22,16.71V11.4A5.27,5.27,0,0,0,16.72,6.12Zm-4,9.28a1.52,1.52,0,0,1-1.72,0c-.86-.57-2-1.56-2-2.58a1.65,1.65,0,0,1,1.51-1.75,1.46,1.46,0,0,1,1.25.78.18.18,0,0,0,.31,0,1.46,1.46,0,0,1,1.25-.78,1.65,1.65,0,0,1,1.51,1.75C14.81,13.76,13.6,14.79,12.74,15.4Z"/></g></g></svg>