<svg xmlns="http://www.w3.org/2000/svg" viewBox="0 0 24 24"><defs><style>.cls-1{opacity:0.3;}</style></defs><g id="files-folders"><g id="minus-folder"><path class="cls-1" d="M11.19,4.71A2.59,2.59,0,0,0,13.6,6.35h3a5.26,5.26,0,0,1,4.63,2.74,5.5,5.5,0,0,0-5.48-5.16H10.87Z"/><path d="M16.72,6.12h-3a2.59,2.59,0,0,1-2.41-1.64L11,3.64A2.61,2.61,0,0,0,8.59,2h-2A4.58,4.58,0,0,0,2,6.59V16.72A5.27,5.27,0,0,0,7.28,22h9.44A5.27,5.27,0,0,0,22,16.72V11.4A5.27,5.27,0,0,0,16.72,6.12Zm-2.44,8h0l-4.56-.05a.71.71,0,0,1,0-1.42l4.56.05a.71.71,0,0,1,0,1.42Z"/></g></g></svg>