<svg xmlns="http://www.w3.org/2000/svg" viewBox="0 0 24 24"><defs><style>.cls-1{opacity:0.3;}</style></defs><g id="files-folders"><g id="notepad-bookmark"><path d="M17.24,9.35a.76.76,0,0,0-.75-.76h-9a.76.76,0,0,0,0,1.52h9A.76.76,0,0,0,17.24,9.35Z"/><path d="M11.75,14.1a.76.76,0,0,0-.75-.76H7.55a.76.76,0,0,0,0,1.52H11A.76.76,0,0,0,11.75,14.1Z"/><path d="M8.35,5.43a.75.75,0,0,1-.75-.75V2.85a.75.75,0,1,1,1.5,0V4.68A.75.75,0,0,1,8.35,5.43Z"/><path d="M15.65,5.43a.74.74,0,0,1-.75-.75V2.85a.75.75,0,0,1,1.5,0V4.68A.75.75,0,0,1,15.65,5.43Z"/><path d="M14.78,22V18.11a2.73,2.73,0,0,1,2.65-2.91h3.81Z"/><path class="cls-1" d="M13.28,22V18.11a4.24,4.24,0,0,1,4.15-4.41h3.75V9.15a5.45,5.45,0,0,0-5.45-5.46H8.27A5.45,5.45,0,0,0,2.82,9.15v7.39A5.45,5.45,0,0,0,8.27,22h5Z"/></g></g></svg>