<svg xmlns="http://www.w3.org/2000/svg" viewBox="0 0 24 24"><defs><style>.cls-1{opacity:0.3;}</style></defs><g id="files-folders"><g id="notepad-edit"><rect class="cls-1" x="1.86" y="2.8" width="19.94" height="19.99" rx="5.94"/><path d="M14.56,3.52l1-1.31A2.43,2.43,0,0,1,19,1.72L21.16,3.4a2.56,2.56,0,0,1,.48,3.53l-1,1.31a5,5,0,0,1-4.07-1A5.22,5.22,0,0,1,14.56,3.52Zm1,5.2a7.18,7.18,0,0,1-2.38-3.28L9.5,10.37A2.29,2.29,0,0,0,9,11.75L9,15a1.85,1.85,0,0,0,2.36,1.83l3.08-.94a2.24,2.24,0,0,0,1.16-.83l3.65-4.93A6.88,6.88,0,0,1,15.52,8.72Z"/></g></g></svg>