<svg xmlns="http://www.w3.org/2000/svg" viewBox="0 0 24 24"><defs><style>.cls-1{opacity:0.3;}</style></defs><g id="files-folders"><g id="questionnaire-tablet"><rect class="cls-1" x="2" y="2" width="20" height="20.01" rx="5.95"/><path d="M7,10.83a.78.78,0,0,1-.5-.19L5.16,9.43a.79.79,0,0,1-.07-1.1.75.75,0,0,1,1.08-.08l.69.61,1.22-2a.76.76,0,0,1,1.06-.25.81.81,0,0,1,.24,1.08l-1.7,2.74a.73.73,0,0,1-.54.36ZM18.72,9.26A.77.77,0,0,0,18,8.48H12A.78.78,0,0,0,12,10h6A.77.77,0,0,0,18.72,9.26Zm-11.61,7A.75.75,0,0,0,7.65,16l1.7-2.75a.8.8,0,0,0-.24-1.08.76.76,0,0,0-1.06.25l-1.22,2-.69-.61a.75.75,0,0,0-1.08.08.8.8,0,0,0,.07,1.1L6.5,16.13a.78.78,0,0,0,.5.19Zm11.64-1.56A.77.77,0,0,0,18,14H12a.78.78,0,0,0,0,1.56h6A.77.77,0,0,0,18.75,14.75Z"/></g></g></svg>