<svg xmlns="http://www.w3.org/2000/svg" viewBox="0 0 24 24"><defs><style>.cls-1{opacity:0.3;}</style></defs><g id="files-folders"><g id="search-list"><path class="cls-1" d="M17.62,22H6.38A2.35,2.35,0,0,1,4,19.65V4.35A2.35,2.35,0,0,1,6.38,2h6.89a1.27,1.27,0,0,1,.92.39l5.4,5.47a1.3,1.3,0,0,1,.38.91V19.65A2.35,2.35,0,0,1,17.62,22Z"/><path d="M19.59,7.86l-5.4-5.47A1.27,1.27,0,0,0,13.51,2V5.4a3.1,3.1,0,0,0,3.11,3.1h3.32A1.27,1.27,0,0,0,19.59,7.86Z"/><path d="M16.25,17.24l-2.08-2A3.87,3.87,0,0,0,14.9,13a4,4,0,1,0-1.82,3.31l2.14,2a.75.75,0,0,0,.52.21.71.71,0,0,0,.54-.24A.75.75,0,0,0,16.25,17.24ZM8.52,13A2.44,2.44,0,1,1,11,15.44,2.45,2.45,0,0,1,8.52,13Z"/></g></g></svg>