<svg xmlns="http://www.w3.org/2000/svg" viewBox="0 0 24 24"><defs><style>.cls-1{opacity:0.3;}</style></defs><g id="files-folders"><g id="some-files"><path class="cls-1" d="M18.4,13.76H14.54a4,4,0,0,1-3.92-4.22V5.6h-4A4.65,4.65,0,0,0,2,10.28v7A4.65,4.65,0,0,0,6.6,22h7.22a4.65,4.65,0,0,0,4.6-4.69V13.76Z"/><path d="M18.4,12.5H14.54a2.77,2.77,0,0,1-2.69-3V5.6ZM17.16,2H10.58A4.8,4.8,0,0,0,6.44,4.41a4.52,4.52,0,0,1,.74-.06h7A5.23,5.23,0,0,1,19.4,9.63v7.18a5.32,5.32,0,0,1-.16,1.27A4.91,4.91,0,0,0,22,13.64V6.93A4.89,4.89,0,0,0,17.16,2Z"/></g></g></svg>