<svg xmlns="http://www.w3.org/2000/svg" viewBox="0 0 24 24"><defs><style>.cls-1{opacity:0.3;}</style></defs><g id="files-folders"><g id="tab-tablet"><rect class="cls-1" x="2" y="2.06" width="20" height="19.91" rx="5.94"/><path d="M17.18,8.48,16.59,8a1,1,0,0,0-1.21,0l-.58.48a1,1,0,0,1-1.58-.77V2.07a1,1,0,0,1,1-1h3.59a1,1,0,0,1,1,1V7.71A1,1,0,0,1,17.18,8.48ZM13.86,12a.76.76,0,0,0-.76-.77H8a.76.76,0,0,0-.76.77.77.77,0,0,0,.76.78H13.1A.77.77,0,0,0,13.86,12Zm2.32,3.93a.78.78,0,0,0-.77-.78H7.33a.78.78,0,0,0,0,1.56h8.08A.78.78,0,0,0,16.18,15.94Z"/></g></g></svg>