<svg xmlns="http://www.w3.org/2000/svg" viewBox="0 0 24 24"><defs><style>.cls-1{opacity:0.3;}</style></defs><g id="files-folders"><g id="tablet-down"><path class="cls-1" d="M16.82,3.77V4a2,2,0,0,1-2,2H9.16a2,2,0,0,1-2-2V3.77A5.44,5.44,0,0,0,2.82,9.11v7.4A5.46,5.46,0,0,0,8.27,22h7.46a5.46,5.46,0,0,0,5.45-5.46V9.12A5.45,5.45,0,0,0,16.82,3.77Z"/><rect x="10.52" y="-0.31" width="2.95" height="7.63" rx="0.97" transform="translate(15.51 -8.49) rotate(90)"/><path d="M15.44,11.46a.75.75,0,0,0-1.5,0v2.45L9.76,10.67a.75.75,0,1,0-.91,1.19L13,15.07l-2.23.55a.75.75,0,0,0,.17,1.48l.18,0,3.75-.92a.44.44,0,0,1,.15-.05.79.79,0,0,0,.42-.68Z"/></g></g></svg>