<svg xmlns="http://www.w3.org/2000/svg" viewBox="0 0 24 24"><defs><style>.cls-1{opacity:0.3;}</style></defs><g id="files-folders"><g id="_tablet-ok" data-name=" tablet-ok"><path d="M11.53,15.86h0a.74.74,0,0,0,.6-.3l3.4-4.43a.78.78,0,0,0-1.24-1l-2.8,3.66L9.67,11.66a.78.78,0,0,0-1.19,1l2.45,2.93A.79.79,0,0,0,11.53,15.86Z"/><path class="cls-1" d="M16.82,3.73V4a2,2,0,0,1-2,2H9.16a2,2,0,0,1-2-2V3.73A5.46,5.46,0,0,0,2.82,9.08v7.4a5.45,5.45,0,0,0,5.45,5.45h7.46a5.44,5.44,0,0,0,5.45-5.45V9.08A5.46,5.46,0,0,0,16.82,3.73Z"/><rect x="10.52" y="-0.34" width="2.95" height="7.63" rx="0.97" transform="translate(15.48 -8.52) rotate(90)"/></g></g></svg>