<svg xmlns="http://www.w3.org/2000/svg" viewBox="0 0 24 24"><defs><style>.cls-1{opacity:0.3;}</style></defs><g id="files-folders"><g id="tablet-up"><path class="cls-1" d="M17.09,3.81V4a2,2,0,0,1-2,2H9.39a2,2,0,0,1-2-2V3.74A5.5,5.5,0,0,0,2.65,9.17v7.32A5.51,5.51,0,0,0,8.16,22h7.68a5.51,5.51,0,0,0,5.51-5.51V9.17A5.51,5.51,0,0,0,17.09,3.81Z"/><rect x="8.42" y="2" width="7.63" height="2.95" rx="0.97"/><path d="M8.56,15.22a.75.75,0,0,0,1.5,0V12.77L14.24,16a.75.75,0,1,0,.91-1.18L11,11.6l2.23-.55a.75.75,0,0,0-.17-1.47.55.55,0,0,0-.18,0l-3.75.91L9,10.57a.77.77,0,0,0-.42.67Z"/></g></g></svg>