<svg xmlns="http://www.w3.org/2000/svg" viewBox="0 0 24 24"><defs><style>.cls-1{opacity:0.3;}</style></defs><g id="files-folders"><g id="tablet-delete"><path d="M12.93,12.84l1.21-1.38a.71.71,0,0,0,0-1,.63.63,0,0,0-.93,0L12,11.88l-1.28-1.3a.63.63,0,0,0-.93,0,.74.74,0,0,0,0,1l1.29,1.31L9.86,14.27a.73.73,0,0,0,0,1,.63.63,0,0,0,.93,0L12,13.86l1.28,1.3a.62.62,0,0,0,.45.2.67.67,0,0,0,.48-.22.74.74,0,0,0,0-1Z"/><g id="_tablet-ok" data-name=" tablet-ok"><path class="cls-1" d="M16.82,3.77V4a2,2,0,0,1-2,2H9.16a2,2,0,0,1-2-2V3.77A5.44,5.44,0,0,0,2.82,9.11v7.4A5.46,5.46,0,0,0,8.27,22h7.46a5.46,5.46,0,0,0,5.45-5.46V9.12A5.45,5.45,0,0,0,16.82,3.77Z"/><rect x="10.52" y="-0.31" width="2.95" height="7.63" rx="0.97" transform="translate(15.51 -8.49) rotate(90)"/></g></g></g></svg>