<svg xmlns="http://www.w3.org/2000/svg" viewBox="0 0 24 24"><defs><style>.cls-1{opacity:0.3;}</style></defs><g id="files-folders"><g id="tablet-text-up"><path d="M12.13,16.44H7.43a.77.77,0,0,1,0-1.54h4.7a.77.77,0,1,1,0,1.54ZM17,12.08a.78.78,0,0,0-.78-.77H7.43a.78.78,0,0,0,0,1.55h8.81A.78.78,0,0,0,17,12.08ZM16,4.13v-1a1,1,0,0,0-1-1H9.41a1,1,0,0,0-1,1v1a1,1,0,0,0,1,1h5.64A1,1,0,0,0,16,4.13Z"/><path class="cls-1" d="M17,4v.16a2,2,0,0,1-2,2H9.41a2,2,0,0,1-2-2V3.89A5.46,5.46,0,0,0,2.72,9.28v7.25A5.47,5.47,0,0,0,8.19,22h7.62a5.47,5.47,0,0,0,5.47-5.47V9.28A5.46,5.46,0,0,0,17,4Z"/></g></g></svg>