<svg xmlns="http://www.w3.org/2000/svg" viewBox="0 0 24 24"><defs><style>.cls-1{opacity:0.3;}</style></defs><g id="files-folders"><g id="update-folder"><path class="cls-1" d="M11.32,4.53a2.6,2.6,0,0,0,2.42,1.63h3A5.28,5.28,0,0,1,21.32,8.9a5.5,5.5,0,0,0-5.48-5.16H11Z"/><path d="M16.72,6.11h-3a2.58,2.58,0,0,1-2.41-1.63L11,3.64A2.61,2.61,0,0,0,8.59,2h-2A4.58,4.58,0,0,0,2,6.58V16.72A5.27,5.27,0,0,0,7.28,22h9.44A5.27,5.27,0,0,0,22,16.72V11.39A5.28,5.28,0,0,0,16.72,6.11Zm-8.2,8.16a.72.72,0,0,1-.67-.46l-.79-2.07a.72.72,0,0,1,.41-.92.71.71,0,0,1,.92.41l.23.59a.28.28,0,0,1,0-.12,3.75,3.75,0,0,1,5.12-1.5.71.71,0,1,1-.68,1.24,2.33,2.33,0,0,0-1.79-.19A2.36,2.36,0,0,0,10,12.3l.5-.18a.71.71,0,0,1,.47,1.35l-2.18.76A.59.59,0,0,1,8.52,14.27Zm7.67,3.14a.78.78,0,0,1-.22,0A.71.71,0,0,1,15.3,17l-.15-.45a3.77,3.77,0,0,1-3.28,1.91,3.68,3.68,0,0,1-1.81-.47.71.71,0,1,1,.68-1.24,2.36,2.36,0,0,0,3.14-.86l-.44.17a.7.7,0,0,1-.92-.4.72.72,0,0,1,.4-.92L15,13.87a.73.73,0,0,1,.56,0,.7.7,0,0,1,.37.42l.72,2.2A.72.72,0,0,1,16.19,17.41Z"/></g></g></svg>