<svg xmlns="http://www.w3.org/2000/svg" viewBox="0 0 24 24"><defs><style>.cls-1{opacity:0.3;}</style></defs><g id="files-folders"><g id="update-file"><path class="cls-1" d="M22,12h-4.7A4.9,4.9,0,0,1,12.5,6.82V2H7.6A5.66,5.66,0,0,0,2,7.71v8.58A5.66,5.66,0,0,0,7.6,22h8.8A5.66,5.66,0,0,0,22,16.29L22,12Z"/><path d="M21.93,10.43H17.27A3.39,3.39,0,0,1,14,6.82V2l2.66,2.8Z"/><path d="M9.37,13.25a.73.73,0,0,0-.92-.45L8,13a2.34,2.34,0,0,1,3.17-.88.72.72,0,0,0,1-.29.74.74,0,0,0-.29-1,3.74,3.74,0,0,0-2.91-.32,3.78,3.78,0,0,0-2.28,1.87s0,.08,0,.13l-.22-.61a.72.72,0,0,0-.93-.43.74.74,0,0,0-.42,1l.8,2.14a.71.71,0,0,0,.67.48,1,1,0,0,0,.24,0l2.2-.79A.75.75,0,0,0,9.37,13.25Z"/><path d="M14,15.06a.72.72,0,0,0-1-.45l-2.1.84a.74.74,0,0,0-.4,1,.71.71,0,0,0,.93.41l.44-.18a2.34,2.34,0,0,1-3.17.88.72.72,0,0,0-1,.3.74.74,0,0,0,.29,1,3.65,3.65,0,0,0,1.82.48,3.8,3.8,0,0,0,3.33-2l.15.47a.71.71,0,0,0,.68.5.91.91,0,0,0,.23,0,.74.74,0,0,0,.46-.93Z"/></g></g></svg>