<svg xmlns="http://www.w3.org/2000/svg" viewBox="0 0 24 24"><g id="support"><path id="_24-support" data-name="24-support" d="M13.54,11.41,15.22,9l0,2.45ZM21,4.87v11a2.92,2.92,0,0,1-2.92,2.92H17a2.21,2.21,0,0,0-1.6.68l-1.81,1.9a2.23,2.23,0,0,1-3.23,0L8.69,19.5a2.19,2.19,0,0,0-1.63-.71H5.92A2.92,2.92,0,0,1,3,15.87v-11A2.92,2.92,0,0,1,5.92,2H18.08A2.92,2.92,0,0,1,21,4.87Zm-13.07,8c.23-.21.53-.44.84-.68,1.08-.84,2.3-1.79,2.31-3.15a2.4,2.4,0,1,0-4.8,0,.75.75,0,0,0,1.5,0,.9.9,0,0,1,.9-.9.91.91,0,0,1,.66.25A.88.88,0,0,1,9.58,9c0,.63-1,1.38-1.73,2a8.81,8.81,0,0,0-1.29,1.13,1.34,1.34,0,0,0,1,2.23h2.77a.75.75,0,0,0,0-1.5Zm9.92-.66a.75.75,0,0,0-.75-.75h-.4l0-3.5a1.16,1.16,0,0,0-.82-1.13,1.17,1.17,0,0,0-1.32.46L12,11.07a1.15,1.15,0,0,0-.07,1.21,1.16,1.16,0,0,0,1,.63h2.27v.66a.74.74,0,0,0,.74.75h0a.75.75,0,0,0,.75-.74v-.67h.41A.75.75,0,0,0,17.85,12.16Z"/></g></svg>