<svg xmlns="http://www.w3.org/2000/svg" viewBox="0 0 24 24"><g id="support"><path id="like-shapes" d="M21.39,10.53,20,9.12a1,1,0,0,1-.3-.73v-2A2.08,2.08,0,0,0,17.6,4.32h-2a1,1,0,0,1-.73-.3L13.47,2.61a2.08,2.08,0,0,0-2.94,0L9.12,4a1,1,0,0,1-.73.3h-2A2.08,2.08,0,0,0,4.32,6.4v2a1,1,0,0,1-.3.73L2.61,10.53a2.08,2.08,0,0,0,0,2.94L4,14.88a1,1,0,0,1,.3.73v2A2.08,2.08,0,0,0,6.4,19.68h2a1,1,0,0,1,.73.3l1.41,1.41a2.08,2.08,0,0,0,2.94,0L14.88,20a1,1,0,0,1,.73-.3h2a2.08,2.08,0,0,0,2.08-2.08v-2a1,1,0,0,1,.3-.73l1.41-1.41A2.08,2.08,0,0,0,21.39,10.53Zm-4.6,1.3-1.24,4.05a1.08,1.08,0,0,1-1,.76H12.1a1.63,1.63,0,0,1-.93-.3l-1.26-1v-.07a.76.76,0,0,1-.76.76h-1a.76.76,0,0,1-.76-.76V10.13a.76.76,0,0,1,.76-.76h1a.76.76,0,0,1,.76.76v.58l1.89-2.86a1.06,1.06,0,0,1,1.94.77l-.25,1.43a.57.57,0,0,0,.56.67H16A.86.86,0,0,1,16.79,11.83Z"/></g></svg>