<svg xmlns="http://www.w3.org/2000/svg" viewBox="0 0 24 24"><g id="support"><path id="like-2" d="M18.08,2H5.92A2.93,2.93,0,0,0,3,4.85v11a2.92,2.92,0,0,0,2.92,2.92H7.06a2.23,2.23,0,0,1,1.63.71l1.7,1.84a2.22,2.22,0,0,0,3.15.08.6.6,0,0,0,.08-.08l1.81-1.9a2.25,2.25,0,0,1,1.6-.68h1a2.92,2.92,0,0,0,3-2.87v-11A2.93,2.93,0,0,0,18.08,2ZM12.35,14.55a.87.87,0,0,1-.69,0c-1.07-.49-4.3-2.21-4.25-5.3a2.76,2.76,0,0,1,2-2.66,2.94,2.94,0,0,1,2.35.36.34.34,0,0,0,.41,0,3,3,0,0,1,2.55-.3,2.78,2.78,0,0,1,1.83,2.56C16.53,12.67,13.42,14.15,12.35,14.55Z"/></g></svg>