<svg xmlns="http://www.w3.org/2000/svg" viewBox="0 0 24 24"><g id="support"><path id="like-tag" d="M18.08,2H5.92A2.92,2.92,0,0,0,3,4.87v11a2.92,2.92,0,0,0,2.92,2.92H7.06a2.19,2.19,0,0,1,1.63.71l1.7,1.84a2.23,2.23,0,0,0,3.23,0l1.81-1.9a2.21,2.21,0,0,1,1.6-.68h1A2.92,2.92,0,0,0,21,15.87v-11A2.92,2.92,0,0,0,18.08,2Zm-1.44,8.29-1.24,4a1.07,1.07,0,0,1-1,.76H12a1.59,1.59,0,0,1-.94-.3l-1.26-1v-.07a.76.76,0,0,1-.76.76H8a.76.76,0,0,1-.76-.76V8.54A.76.76,0,0,1,8,7.78H9a.76.76,0,0,1,.76.76v.58l1.89-2.86A1.07,1.07,0,0,1,13.59,7l-.25,1.43a.57.57,0,0,0,.55.67l1.95,0A.84.84,0,0,1,16.64,10.24Z"/></g></svg>