<svg xmlns="http://www.w3.org/2000/svg" viewBox="0 0 24 24"><g id="support"><path id="lovely" d="M13.21,19.18a4.37,4.37,0,0,1-.48.18.94.94,0,0,1-.68,0C10.39,18.62,3.3,15.24,3.4,8.88a5.34,5.34,0,0,1,4-5.16,5.79,5.79,0,0,1,5,1,5.82,5.82,0,0,1,5.42-.87,5.37,5.37,0,0,1,3.57,5,9.64,9.64,0,0,1-.08,1.1,4.88,4.88,0,0,0-.66-.29A4.54,4.54,0,0,0,16.9,10a4.6,4.6,0,0,0-3.45-.47,4.2,4.2,0,0,0-3.16,4.07A7.07,7.07,0,0,0,13.21,19.18Zm3.69-7.33-.46-.35a2.94,2.94,0,0,0-1.81-.62,3.74,3.74,0,0,0-.81.1,2.73,2.73,0,0,0-2,2.65c-.07,3.69,4.29,5.73,5.17,6.1.75-.29,5-1.95,5-6.17a2.78,2.78,0,0,0-1.81-2.51,3,3,0,0,0-2.84.45Z"/></g></svg>