<svg xmlns="http://www.w3.org/2000/svg" viewBox="0 0 24 24"><g id="support"><path id="medal-star" d="M12.26,2.23a6.95,6.95,0,1,0,6.94,7A6.95,6.95,0,0,0,12.26,2.23Zm3.19,6.68-.89.87a.64.64,0,0,0-.18.57l.21,1.23a.64.64,0,0,1-.93.67l-1.11-.58a.62.62,0,0,0-.59,0l-1.11.58a.63.63,0,0,1-.92-.67l.21-1.23A.67.67,0,0,0,10,9.78l-.89-.87a.64.64,0,0,1,.35-1.09l1.24-.18a.63.63,0,0,0,.48-.35l.55-1.12a.64.64,0,0,1,1.15,0l.55,1.12a.64.64,0,0,0,.48.35l1.24.18A.64.64,0,0,1,15.45,8.91Zm5.76,9.6-1.41.17a1,1,0,0,0-.85.8l-.25,1.39a1,1,0,0,1-1.69.5l-3.6-3.83A8.48,8.48,0,0,0,19.15,14l2.66,2.82A1,1,0,0,1,21.21,18.51Zm-10.49-1L7,21.45A1,1,0,0,1,5.3,21l-.25-1.39a1,1,0,0,0-.85-.8L2.79,18.6A1,1,0,0,1,2.19,17l3-3.18A8.46,8.46,0,0,0,10.72,17.48Z"/></g></svg>