<svg xmlns="http://www.w3.org/2000/svg" viewBox="0 0 24 24"><g id="support"><path id="message-questio" d="M17.49,2.27h-11A4.51,4.51,0,0,0,2,6.78V13.6a4.51,4.51,0,0,0,4.51,4.51A.49.49,0,0,1,7,18.6v2.17a1,1,0,0,0,1.53.78L13,18.29a1,1,0,0,1,.57-.18h3.89A4.51,4.51,0,0,0,22,13.6V6.78A4.51,4.51,0,0,0,17.49,2.27ZM12,14.49a.75.75,0,1,1,.75-.75A.76.76,0,0,1,12,14.49Zm1.16-4.09a1,1,0,0,0-.41.86v.28a.75.75,0,0,1-1.5,0v-.28A2.49,2.49,0,0,1,12.4,9.1a.78.78,0,0,0,.4-.68.8.8,0,0,0-1.6,0,.75.75,0,0,1-1.5,0,2.3,2.3,0,1,1,3.46,2Z"/></g></svg>