<svg xmlns="http://www.w3.org/2000/svg" viewBox="0 0 24 24"><g id="support"><path id="questio" d="M21.39,10.53,20,9.12a1,1,0,0,1-.3-.73v-2A2.08,2.08,0,0,0,17.6,4.32h-2a1,1,0,0,1-.73-.3L13.47,2.61a2.08,2.08,0,0,0-2.94,0L9.12,4a1,1,0,0,1-.73.3h-2A2.08,2.08,0,0,0,4.32,6.4v2a1,1,0,0,1-.3.73L2.61,10.53a2.08,2.08,0,0,0,0,2.94L4,14.88a1,1,0,0,1,.3.73v2A2.08,2.08,0,0,0,6.4,19.68h2a1,1,0,0,1,.73.3l1.41,1.41a2.08,2.08,0,0,0,2.94,0L14.88,20a1,1,0,0,1,.73-.3h2a2.08,2.08,0,0,0,2.08-2.08v-2a1,1,0,0,1,.3-.73l1.41-1.41A2.08,2.08,0,0,0,21.39,10.53Zm-9.39,7a.75.75,0,1,1,.75-.75A.76.76,0,0,1,12,17.53Zm1.36-5.23a1.17,1.17,0,0,0-.61,1.06v.82a.75.75,0,0,1-1.5,0v-.82A2.67,2.67,0,0,1,12.71,11a1.63,1.63,0,1,0-2.34-1.47.75.75,0,0,1-1.5,0A3.1,3.1,0,0,1,10,7.09a3.13,3.13,0,1,1,3.37,5.21Z"/></g></svg>