<svg xmlns="http://www.w3.org/2000/svg" viewBox="0 0 24 24"><g id="eCommerce"><path id="barcode" d="M6.31,16.42a.75.75,0,0,1-.76-.75V8A.76.76,0,1,1,7.06,8v7.7A.75.75,0,0,1,6.31,16.42Zm3.76-7.13V8A.76.76,0,1,0,8.56,8V9.29a.76.76,0,0,0,1.51,0Zm0,6.38V11.82a.76.76,0,1,0-1.51,0v3.85a.76.76,0,0,0,1.51,0Zm6-.22V14.12a.76.76,0,0,0-1.51,0v1.33a.76.76,0,0,0,1.51,0Zm0-3.85V7.74a.76.76,0,0,0-1.51,0V11.6a.76.76,0,0,0,1.51,0Zm-3,4.07V8a.76.76,0,1,0-1.51,0v7.7a.76.76,0,0,0,1.51,0Zm6,0V8a.75.75,0,1,0-1.5,0v7.7a.75.75,0,0,0,1.5,0Zm3.66-.91V9.24a6.13,6.13,0,0,0-6.12-6.12H7.35A6.13,6.13,0,0,0,1.23,9.24v5.52a6.13,6.13,0,0,0,6.12,6.12h9.28A6.13,6.13,0,0,0,22.75,14.76ZM16.63,4.63a4.62,4.62,0,0,1,4.61,4.61v5.52a4.62,4.62,0,0,1-4.61,4.61H7.35a4.62,4.62,0,0,1-4.61-4.61V9.24A4.62,4.62,0,0,1,7.35,4.63Z"/></g></svg>