<svg xmlns="http://www.w3.org/2000/svg" viewBox="0 0 24 24"><g id="eCommerce"><path id="basket" d="M22.75,7a2.94,2.94,0,0,0-2.81-3H18l-1.4-2.31a.74.74,0,0,0-1-.24.82.82,0,0,0-.23,1.09l.89,1.46H7.73l.89-1.44A.82.82,0,0,0,8.4,1.39a.73.73,0,0,0-1,.23L5.94,3.92H4.06A2.94,2.94,0,0,0,1.25,7a3,3,0,0,0,2.16,3l1.42,9.24a4.14,4.14,0,0,0,4,3.57H15.3a4.13,4.13,0,0,0,4-3.63l1.32-9.18A3,3,0,0,0,22.75,7Zm-5,11.9a2.62,2.62,0,0,1-2.49,2.31H8.79A2.63,2.63,0,0,1,6.3,18.91L4.94,10H19.06ZM19.94,8.46H4.06A1.41,1.41,0,0,1,2.75,7,1.41,1.41,0,0,1,4.06,5.49H19.94A1.41,1.41,0,0,1,21.25,7,1.41,1.41,0,0,1,19.94,8.46Zm-11,8.64V13.31a.75.75,0,1,1,1.5,0V17.1a.75.75,0,1,1-1.5,0Zm4.65,0V13.31a.75.75,0,1,1,1.5,0V17.1a.75.75,0,1,1-1.5,0Z"/></g></svg>