<svg xmlns="http://www.w3.org/2000/svg" viewBox="0 0 24 24"><g id="eCommerce"><path id="basket-ok" d="M22.75,7a2.94,2.94,0,0,0-2.81-3H18l-1.4-2.31a.74.74,0,0,0-1-.24.82.82,0,0,0-.23,1.09l.89,1.46H7.74l.88-1.44a.82.82,0,0,0-.23-1.09.72.72,0,0,0-1,.24L6,3.92H4.06A2.94,2.94,0,0,0,1.25,7a3,3,0,0,0,2.16,3l1.42,9.24a4.14,4.14,0,0,0,4,3.57H15.3a4.13,4.13,0,0,0,4-3.63L20.6,9.94A3,3,0,0,0,22.75,7Zm-5,11.89a2.63,2.63,0,0,1-2.49,2.32H8.79A2.63,2.63,0,0,1,6.3,18.91L4.94,10H19.06Zm2.15-10.4H4.06A1.41,1.41,0,0,1,2.75,7,1.41,1.41,0,0,1,4.06,5.49H19.94A1.41,1.41,0,0,1,21.25,7,1.41,1.41,0,0,1,19.94,8.46ZM9.43,15.85a.82.82,0,0,1,0-1.11.72.72,0,0,1,1.06,0L11.71,16l3.11-3a.73.73,0,0,1,1.06.05.82.82,0,0,1-.05,1.12l-3.64,3.48a.78.78,0,0,1-.51.2.75.75,0,0,1-.53-.23Z"/></g></svg>