<svg xmlns="http://www.w3.org/2000/svg" viewBox="0 0 24 24"><g id="eCommerce"><path id="cheque" d="M8.58,8.69a.75.75,0,0,1-.75.75H5.6a.75.75,0,0,1,0-1.5H7.83A.76.76,0,0,1,8.58,8.69Zm3.35,5.81H9.7a.75.75,0,0,0,0,1.5h2.23a.75.75,0,0,0,0-1.5Zm-4.1-3.28H5.6a.75.75,0,0,0,0,1.5H7.83a.75.75,0,0,0,0-1.5Zm4.1-3.28H10.57a.75.75,0,1,0,0,1.5h1.36a.75.75,0,1,0,0-1.5Zm10,8.7v2.3a3.8,3.8,0,0,1-3.8,3.81H5.86a3.82,3.82,0,0,1-3.81-3.82V3.46A1.63,1.63,0,0,1,2.93,2a1.65,1.65,0,0,1,1.7.11L5.88,3A.12.12,0,0,0,6,3L8,1.53a1.64,1.64,0,0,1,1.89-.07l2,1.34a.15.15,0,0,0,.16,0L13.27,2a1.65,1.65,0,0,1,2.54,1.38v9.78h3.33A2.8,2.8,0,0,1,22,16ZM15.1,21.26a3.83,3.83,0,0,1-.78-2.32v-5a0,0,0,0,1,0,0V3.39a.14.14,0,0,0-.07-.13.16.16,0,0,0-.15,0l-1.2.79a1.67,1.67,0,0,1-1.8,0l-2-1.35a.17.17,0,0,0-.17,0L7,4.19A1.64,1.64,0,0,1,5,4.22L3.77,3.34a.13.13,0,0,0-.08,0H3.62a.14.14,0,0,0-.07.13V18.94a2.32,2.32,0,0,0,2.31,2.32ZM20.45,16a1.31,1.31,0,0,0-1.3-1.31H15.82v4.16a2.48,2.48,0,0,0,1.1,2.07l.17.1.16.08a2.38,2.38,0,0,0,.54.14,2.28,2.28,0,0,0,1.82-.49,2.32,2.32,0,0,0,.84-1.79V16Zm-8.52-4.76H10.57a.75.75,0,0,0,0,1.5h1.36a.75.75,0,0,0,0-1.5Z"/></g></svg>