<svg xmlns="http://www.w3.org/2000/svg" viewBox="0 0 24 24"><g id="eCommerce"><path id="discount" d="M12,22.73a2.79,2.79,0,0,1-2-.83L8.59,20.49a.28.28,0,0,0-.2-.08h-2a2.83,2.83,0,0,1-2.83-2.82v-2a.27.27,0,0,0-.08-.2L2.08,14a2.82,2.82,0,0,1,0-4L3.49,8.58a.24.24,0,0,0,.08-.2v-2A2.83,2.83,0,0,1,6.4,3.56h2a.28.28,0,0,0,.2-.08L10,2.07a2.89,2.89,0,0,1,4,0l1.41,1.41a.27.27,0,0,0,.19.08h2a2.83,2.83,0,0,1,2.82,2.83v2a.28.28,0,0,0,.08.2L21.92,10a2.84,2.84,0,0,1,0,4L20.5,15.39a.32.32,0,0,0-.08.2v2a2.82,2.82,0,0,1-2.82,2.82h-2a.27.27,0,0,0-.19.08L14,21.9A2.81,2.81,0,0,1,12,22.73ZM6.4,5.06A1.34,1.34,0,0,0,5.07,6.39v2a1.8,1.8,0,0,1-.52,1.26L3.14,11.05a1.33,1.33,0,0,0,0,1.87l1.41,1.41a1.77,1.77,0,0,1,.52,1.26v2A1.33,1.33,0,0,0,6.4,18.91h2a1.8,1.8,0,0,1,1.26.52l1.41,1.41a1.37,1.37,0,0,0,1.88,0l1.41-1.41a1.77,1.77,0,0,1,1.25-.52h2a1.32,1.32,0,0,0,1.32-1.32v-2a1.81,1.81,0,0,1,.52-1.26l1.42-1.41a1.34,1.34,0,0,0,0-1.87h0L19.44,9.64a1.8,1.8,0,0,1-.52-1.26v-2A1.33,1.33,0,0,0,17.6,5.06h-2a1.73,1.73,0,0,1-1.25-.52L12.94,3.13a1.37,1.37,0,0,0-1.88,0L9.65,4.54a1.74,1.74,0,0,1-1.26.52ZM9,15.75a.71.71,0,0,1-.53-.22.75.75,0,0,1,0-1.06l6-6a.75.75,0,0,1,1.06,0,.75.75,0,0,1,0,1.06l-6,6A.74.74,0,0,1,9,15.75ZM9,8a1,1,0,1,0,1,1A1,1,0,0,0,9,8Zm6,6a1,1,0,1,0,1,1A1,1,0,0,0,15,14Z"/></g></svg>