<svg xmlns="http://www.w3.org/2000/svg" viewBox="0 0 24 24"><g id="eCommerce"><path id="handcart" d="M22,3.63a3,3,0,0,0-2.19-1H7.85A3,3,0,0,0,7,2.81L6.31,1.67a.81.81,0,0,0-.71-.42H2.08a.85.85,0,0,0,0,1.69H5.13l.45.8a3.08,3.08,0,0,0-.71,1.75l-.64,8.89A3.13,3.13,0,0,0,5,16.69a3,3,0,0,0,2.2,1h11.9a3,3,0,0,0,3-2.84l.64-8.89A3.14,3.14,0,0,0,22,3.63Zm-2.19.72a1.33,1.33,0,0,1,1,.43,1.37,1.37,0,0,1,.35,1l-.14,2H6.36l.16-2.17A1.34,1.34,0,0,1,7.85,4.35ZM19.12,16H7.22a1.34,1.34,0,0,1-1-.44,1.39,1.39,0,0,1-.35-1l.36-5H20.83l-.37,5.23A1.36,1.36,0,0,1,19.12,16Zm-8.3,5a1.74,1.74,0,1,1-1.74-1.77A1.75,1.75,0,0,1,10.82,21Zm7.8,0a1.73,1.73,0,1,1-1.73-1.77A1.75,1.75,0,0,1,18.62,21Z"/></g></svg>