<svg xmlns="http://www.w3.org/2000/svg" viewBox="0 0 24 24"><g id="eCommerce"><path id="lots-shopping" d="M8.39,13.54H3.32a2.07,2.07,0,0,0-2.07,2.07v5.07a2.07,2.07,0,0,0,2.07,2.07H8.39a2.07,2.07,0,0,0,2.07-2.07V15.61A2.06,2.06,0,0,0,8.39,13.54ZM9,20.68a.57.57,0,0,1-.57.57H3.32a.58.58,0,0,1-.57-.57V15.61A.57.57,0,0,1,3.32,15h1v.54a1,1,0,0,0,1,1h1a1,1,0,0,0,1-1V15h1a.56.56,0,0,1,.57.57Zm11.72-7.14H15.61a2.06,2.06,0,0,0-2.07,2.07v5.07a2.07,2.07,0,0,0,2.07,2.07h5.07a2.07,2.07,0,0,0,2.07-2.07V15.61A2.07,2.07,0,0,0,20.68,13.54Zm.57,7.14a.58.58,0,0,1-.57.57H15.61a.57.57,0,0,1-.57-.57V15.61a.56.56,0,0,1,.57-.57h1v.54a1,1,0,0,0,1,1h1a1,1,0,0,0,1-1V15h1a.57.57,0,0,1,.57.57ZM8.39,1.25h-5A2.13,2.13,0,0,0,1.25,3.38v5a2.07,2.07,0,0,0,2.07,2.07H8.39a2.06,2.06,0,0,0,2.07-2.07V3.32A2.07,2.07,0,0,0,8.39,1.25ZM9,8.39A.56.56,0,0,1,8.39,9H3.32a.57.57,0,0,1-.57-.57v-5a.63.63,0,0,1,.63-.63h.94V3.3a1,1,0,0,0,1,1h1a1,1,0,0,0,1-1V2.75h1A.57.57,0,0,1,9,3.32ZM20.68,1.25H15.61a2.07,2.07,0,0,0-2.07,2.07V8.39a2.06,2.06,0,0,0,2.07,2.07h5.07a2.07,2.07,0,0,0,2.07-2.07V3.32A2.07,2.07,0,0,0,20.68,1.25Zm.57,7.14a.57.57,0,0,1-.57.57H15.61A.56.56,0,0,1,15,8.39V3.32a.57.57,0,0,1,.57-.57h1V3.3a1,1,0,0,0,1,1h1a1,1,0,0,0,1-1V2.75h1a.58.58,0,0,1,.57.57Z"/></g></svg>