<svg xmlns="http://www.w3.org/2000/svg" viewBox="0 0 24 24"><g id="eCommerce"><path id="package" d="M22.14,17.23l-1.23-6.8a4.7,4.7,0,0,0-3.75-3.76v-2a3.42,3.42,0,0,0-3.42-3.41H10A3.42,3.42,0,0,0,6.62,4.66v2A4.68,4.68,0,0,0,3,10.5L1.84,17.3a4.69,4.69,0,0,0,4.65,5.45h11a4.7,4.7,0,0,0,3.62-1.68A4.65,4.65,0,0,0,22.14,17.23ZM10,2.74h3.7a1.92,1.92,0,0,1,1.92,1.92V6.58H8.12V4.66A1.92,1.92,0,0,1,10,2.74ZM17.5,21.26h-11a3.2,3.2,0,0,1-3.17-3.72l1.13-6.79A3.18,3.18,0,0,1,6.62,8.24v.09a.75.75,0,0,0,1.5,0V8.07h7.54v.26a.75.75,0,1,0,1.5,0V8.21a3.18,3.18,0,0,1,2.27,2.49l1.1,6.05H11a.75.75,0,0,0,0,1.5h9.75A3.17,3.17,0,0,1,20,20.11,3.21,3.21,0,0,1,17.5,21.26Z"/></g></svg>