<svg xmlns="http://www.w3.org/2000/svg" viewBox="0 0 24 24"><g id="eCommerce"><path id="percentage" d="M9,15.75a.71.71,0,0,1-.53-.22.75.75,0,0,1,0-1.06l6-6a.75.75,0,0,1,1.06,0,.75.75,0,0,1,0,1.06l-6,6A.74.74,0,0,1,9,15.75ZM9,8a1,1,0,1,0,1,1A1,1,0,0,0,9,8Zm6,6a1,1,0,1,0,1,1A1,1,0,0,0,15,14ZM8,22.77A6.71,6.71,0,0,1,1.24,16.1L1.2,8A6.71,6.71,0,0,1,7.87,1.27l8.14,0h0A6.71,6.71,0,0,1,22.76,7.9l0,8.08a6.72,6.72,0,0,1-6.67,6.75L8,22.77ZM16,2.73l-8.14,0A5.22,5.22,0,0,0,2.7,8l0,8.08A5.22,5.22,0,0,0,8,21.27H8l8.14,0A5.22,5.22,0,0,0,21.3,16l0-8.08a5.16,5.16,0,0,0-1.55-3.67A5.1,5.1,0,0,0,16,2.73Z"/></g></svg>