<svg xmlns="http://www.w3.org/2000/svg" viewBox="0 0 24 24"><g id="eCommerce"><path id="shop" d="M22.27,10.33c0-.1.06-.19.08-.29a3,3,0,0,0,.1-.5l0-.23a3.86,3.86,0,0,0,0-.76l-.38-3a4.74,4.74,0,0,0-1-2.41,4.87,4.87,0,0,0-3.81-1.85H7A4.9,4.9,0,0,0,2.15,5.62L1.8,8.78a3.56,3.56,0,0,0,0,.73l0,.22a2.36,2.36,0,0,0,.1.46,2.45,2.45,0,0,0,.08.29c0,.11.09.21.14.32s.08.21.14.31v6.14a5.51,5.51,0,0,0,5.5,5.5h8.69a5.5,5.5,0,0,0,5.5-5.5V11a1.6,1.6,0,0,0,.13-.3A2.83,2.83,0,0,0,22.27,10.33Zm-5-7.61A3.4,3.4,0,0,1,19.92,4a3.34,3.34,0,0,1,.71,1.68l.38,3a2.66,2.66,0,0,1,0,.49l0,.18a2.56,2.56,0,0,1,0,.27c0,.08-.05.17-.09.26a.69.69,0,0,1-.05.13,2,2,0,0,1-.17.32h0c-.08.11-.15.22-.23.32a2.55,2.55,0,0,1-1.9.86A2.51,2.51,0,0,1,16,9.26l-.31-3.57-.25-3ZM14,2.72,14,3l.51,6a2.35,2.35,0,0,1-.61,1.8,2.42,2.42,0,0,1-3.47,0,2.36,2.36,0,0,1-.64-1.77L10,4.87l.14-2.15ZM3.61,5.78A3.42,3.42,0,0,1,7,2.72H8.7L8.28,9.35a2.37,2.37,0,0,1-2.36,2.22H5.61a2.37,2.37,0,0,1-1.76-.79,1.79,1.79,0,0,1-.2-.28v0a2,2,0,0,1-.17-.32.36.36,0,0,1,0-.09,1.43,1.43,0,0,1-.09-.27,1.42,1.42,0,0,1,0-.22,1.25,1.25,0,0,1,0-.19,2.26,2.26,0,0,1,0-.45Zm6.6,15.5v-2a2,2,0,0,1,4,0v2Zm6.27,0h-.8v-2a3.47,3.47,0,1,0-6.94,0v2h-1a4,4,0,0,1-4-4V12.53a3.82,3.82,0,0,0,1.85.5h.31A3.84,3.84,0,0,0,9,11.43a2.71,2.71,0,0,0,.3.39,3.84,3.84,0,0,0,5.62,0,4,4,0,0,0,.31-.41,3.94,3.94,0,0,0,5.25,1.08v4.79A4,4,0,0,1,16.48,21.28Z"/></g></svg>