<svg xmlns="http://www.w3.org/2000/svg" viewBox="0 0 24 24"><g id="education"><path id="book" d="M17,1.25H7A4.23,4.23,0,0,0,2.75,5.47V18.53A4.23,4.23,0,0,0,7,22.75H17a4.23,4.23,0,0,0,4.22-4.22V5.47A4.23,4.23,0,0,0,17,1.25Zm2.72,17.28A2.72,2.72,0,0,1,17,21.25H7a2.72,2.72,0,0,1-2.72-2.72v-.6a2.19,2.19,0,0,1,2.18-2.18H19.75ZM6.43,14.25A3.66,3.66,0,0,0,4.25,15V5.47A2.72,2.72,0,0,1,7,2.75H17a2.72,2.72,0,0,1,2.72,2.72v8.78ZM16.58,7a.76.76,0,0,1-.75.75H8.15a.75.75,0,0,1,0-1.5h7.68A.76.76,0,0,1,16.58,7Zm-2.89,3.57a.75.75,0,0,1-.75.75H8.15a.75.75,0,1,1,0-1.5h4.79A.76.76,0,0,1,13.69,10.57Z"/></g></svg>