<svg xmlns="http://www.w3.org/2000/svg" viewBox="0 0 24 24"><g id="education"><path id="bookmark-2" d="M17.73,4.34a3.26,3.26,0,0,0-3.25-3.09h-5A3.26,3.26,0,0,0,6.27,4.34a6.28,6.28,0,0,0-5,6.17v5.94a6.31,6.31,0,0,0,6.3,6.3h8.9a6.31,6.31,0,0,0,6.3-6.3V10.51A6.28,6.28,0,0,0,17.73,4.34Zm-10,.18A1.78,1.78,0,0,1,9.52,2.75h5a1.78,1.78,0,0,1,1.77,1.77v8a.83.83,0,0,1-1.26.71l-1.48-.89a2.92,2.92,0,0,0-3,0L9,13.21a.84.84,0,0,1-.84,0,.81.81,0,0,1-.42-.72Zm13.5,11.93a4.8,4.8,0,0,1-4.8,4.8H7.55a4.8,4.8,0,0,1-4.8-4.8V10.51a4.79,4.79,0,0,1,3.5-4.62V12.5a2.32,2.32,0,0,0,3.53,2l1.48-.89a1.45,1.45,0,0,1,1.48,0l1.48.89h0a2.33,2.33,0,0,0,3.53-2V5.89a4.79,4.79,0,0,1,3.5,4.62Z"/></g></svg>