<svg xmlns="http://www.w3.org/2000/svg" viewBox="0 0 24 24"><g id="education"><path id="briefcase" d="M22.83,9.79a4.91,4.91,0,0,0-4.45-5.34c-.12,0-.25,0-.38,0H16.39v-.3a2.71,2.71,0,0,0-2.71-2.71H10.29A2.72,2.72,0,0,0,7.58,4.12h0v.3H6.05a4.91,4.91,0,0,0-4.9,4.92c0,.17,0,.34,0,.51l.19,1.75h0l.7,6.59a4.91,4.91,0,0,0,4.88,4.39H17.17a4.89,4.89,0,0,0,4.89-4.46l.63-6.76h0ZM9.08,4.12a1.22,1.22,0,0,1,1.21-1.21h3.39a1.21,1.21,0,0,1,1.21,1.21v.3H9.08ZM18,5.92a3.44,3.44,0,0,1,3.41,3.46,2.45,2.45,0,0,1,0,.27l-.09,1a13.74,13.74,0,0,1-6.72,2.68V10.71H9.18v2.57a14,14,0,0,1-6.39-2.46L2.67,9.69a2.81,2.81,0,0,1,0-.71A3.42,3.42,0,0,1,6.05,5.92Zm-7.32,6.29H13v1.63a.61.61,0,0,1-.61.62H11.3a.61.61,0,0,1-.62-.59V12.21Zm6.54,8.87H6.94A3.38,3.38,0,0,1,3.56,18L3,12.74a16.76,16.76,0,0,0,6.44,2.08A2.11,2.11,0,0,0,11.3,16h1.11a2.1,2.1,0,0,0,1.86-1.12,16.26,16.26,0,0,0,6.8-2.26L20.56,18a3.38,3.38,0,0,1-3.39,3.09Z"/></g></svg>