<svg xmlns="http://www.w3.org/2000/svg" viewBox="0 0 24 24"><g id="education"><g id="brifecase-cros"><path d="M13.08,13.86l.57-.59a.75.75,0,1,0-1.07-1l-.55.56-.55-.56a.75.75,0,0,0-1.08,1l.58.59-.58.59a.76.76,0,0,0,.54,1.28.78.78,0,0,0,.54-.23l.55-.56.55.56a.76.76,0,0,0,.54.23.76.76,0,0,0,.53-1.28Z"/><path d="M21.57,6A4.9,4.9,0,0,0,18,4.43H16.39v-.3a2.71,2.71,0,0,0-2.71-2.71H10.29A2.71,2.71,0,0,0,7.58,4.13v.3H6.05A4.91,4.91,0,0,0,1.17,9.86l.19,1.75h0l.7,6.59a4.91,4.91,0,0,0,4.88,4.39H17.17a4.9,4.9,0,0,0,4.89-4.46l.63-6.76h0l.14-1.57A4.89,4.89,0,0,0,21.57,6ZM9.08,4.13a1.21,1.21,0,0,1,1.21-1.21h3.39a1.21,1.21,0,0,1,1.21,1.21v.3H9.08ZM20.56,18a3.39,3.39,0,0,1-3.39,3.1H6.94A3.39,3.39,0,0,1,3.56,18L3,12.76a15.74,15.74,0,0,0,4.24,1.65,4.77,4.77,0,0,0,9.52,0,15.31,15.31,0,0,0,4.32-1.78ZM8.69,14A3.3,3.3,0,1,1,12,17.3,3.3,3.3,0,0,1,8.69,14Zm12.56-3.38a12.69,12.69,0,0,1-4.62,2.24,4.78,4.78,0,0,0-9.31,0,12.79,12.79,0,0,1-4.53-2.07L2.67,9.7a2.81,2.81,0,0,1,0-.71A3.4,3.4,0,0,1,6.05,5.93H18a3.43,3.43,0,0,1,3.39,3.73Z"/></g></g></svg>