<svg xmlns="http://www.w3.org/2000/svg" viewBox="0 0 24 24"><g id="education"><path id="brifecase-tick" d="M9.93,14.7A.75.75,0,0,1,11,13.63l.43.42L13,12.57a.75.75,0,0,1,1.06,0,.75.75,0,0,1,0,1.06l-2.16,2a.72.72,0,0,1-1,0ZM21.57,6A4.9,4.9,0,0,0,18,4.43H16.39v-.3a2.71,2.71,0,0,0-2.71-2.71H10.29A2.71,2.71,0,0,0,7.58,4.13v.3H6.05A4.91,4.91,0,0,0,1.17,9.86l.19,1.75h0l.7,6.59a4.9,4.9,0,0,0,4.88,4.38H17.17a4.89,4.89,0,0,0,4.89-4.45l.63-6.76h0l.14-1.57A4.89,4.89,0,0,0,21.57,6ZM9.08,4.13a1.21,1.21,0,0,1,1.21-1.21h3.39a1.21,1.21,0,0,1,1.21,1.21v.3H9.08ZM20.56,18a3.38,3.38,0,0,1-3.39,3.09H6.94a3.39,3.39,0,0,1-3.38-3L3,12.76a15.52,15.52,0,0,0,4.35,1.68,4.66,4.66,0,0,0,9.29,0,15.61,15.61,0,0,0,4.44-1.82ZM8.8,14A3.19,3.19,0,1,1,12,17.18,3.19,3.19,0,0,1,8.8,14Zm12.45-3.37a12.82,12.82,0,0,1-4.72,2.27,4.67,4.67,0,0,0-9.1,0,13,13,0,0,1-4.64-2.11L2.67,9.7a2.81,2.81,0,0,1,0-.71A3.4,3.4,0,0,1,6.05,5.93H18a3.43,3.43,0,0,1,3.39,3.73Z"/></g></svg>