<svg xmlns="http://www.w3.org/2000/svg" viewBox="0 0 24 24"><defs><style>.cls-1{isolation:isolate;}.cls-2{mix-blend-mode:multiply;}</style></defs><g class="cls-1"><g id="education"><g id="education-2" data-name="education" class="cls-2"><path id="clipboard" d="M19.79,6.61a5.23,5.23,0,0,0-4.38-4.35l-6.76-1a5.26,5.26,0,0,0-6,4.4v0l-1,6.76a5.21,5.21,0,0,0,1.92,4.84,5.12,5.12,0,0,0,3.21,3.1l6.48,2.16A4.9,4.9,0,0,0,15,22.8a5.25,5.25,0,0,0,5-3.58l2.16-6.49A5.23,5.23,0,0,0,19.79,6.61Zm-16.62,6,1-6.76A3.73,3.73,0,0,1,7.88,2.7a5,5,0,0,1,.55,0l6.76,1a3.76,3.76,0,0,1,3.17,3.4h0a4.12,4.12,0,0,1,0,.86l-1,6.76a3.74,3.74,0,0,1-2.77,3.08H14.5a3.44,3.44,0,0,1-.63.1,3.22,3.22,0,0,1-.76,0l-6.76-1a4.13,4.13,0,0,1-.85-.24h0a3.43,3.43,0,0,1-.79-.45l-.08-.06a3.72,3.72,0,0,1-1.46-3.5Zm17.51-.39L18.52,18.7a3.76,3.76,0,0,1-4.74,2.37L7.3,19a3.72,3.72,0,0,1-1-.54l6.61,1a4.9,4.9,0,0,0,.77.06h.53a4.72,4.72,0,0,0,.64-.1l.32-.09c.2-.06.41-.14.61-.22l.3-.15a5.09,5.09,0,0,0,.54-.32l.29-.21a5.87,5.87,0,0,0,.46-.41l.25-.25c.08-.09.25-.33.37-.5s.14-.19.2-.29.21-.41.3-.62l.12-.28a5.65,5.65,0,0,0,.26-1l1-6.5a3.76,3.76,0,0,1,.81,3.68ZM8.74,10A2.77,2.77,0,1,0,6,7.2,2.77,2.77,0,0,0,8.74,10Zm0-4.07A1.32,1.32,0,0,1,10,7.27,1.27,1.27,0,0,1,8.73,8.54,1.26,1.26,0,0,1,7.47,7.27V7.2A1.27,1.27,0,0,1,8.74,5.93Z"/></g></g></g></svg>