<svg xmlns="http://www.w3.org/2000/svg" viewBox="0 0 24 24"><g id="education"><path id="note" d="M18.45,2.73l-3.92-.9a5.59,5.59,0,0,0-6.1,2.7l-3.21.93a5.51,5.51,0,0,0-3.78,6.83l1.73,6a5.54,5.54,0,0,0,5.3,4A5.78,5.78,0,0,0,10,22.1l4.13-1.19a5.35,5.35,0,0,0,1.39-.66h.19a5.57,5.57,0,0,0,5.42-4.33l1.5-6.53A5.57,5.57,0,0,0,18.45,2.73ZM9.59,20.66a4,4,0,0,1-5-2.76l-1.73-6a4,4,0,0,1,.34-3.06A4,4,0,0,1,5.63,6.9L7.8,6.27,6.36,12.54a5.58,5.58,0,0,0,4.19,6.68l2.25.51ZM21.18,9.06l-1.5,6.53a4.07,4.07,0,0,1-4,3.16l-.32,0a2.79,2.79,0,0,1-.58-.07l-3.93-.9a4.07,4.07,0,0,1-3.06-4.87l1.5-6.53h0a4.39,4.39,0,0,1,.21-.61,2.44,2.44,0,0,1,.1-.24h0a4,4,0,0,1,4.55-2.19l3.93.9A4.07,4.07,0,0,1,21.18,9.06Z"/></g></svg>