<svg xmlns="http://www.w3.org/2000/svg" viewBox="0 0 24 24"><g id="education"><g id="education-2" data-name="education"><path d="M18.21,10.27a.77.77,0,0,1-.73.56h-.19l-4.7-1.2A.77.77,0,0,1,13,8.15L17.7,9.36A.75.75,0,0,1,18.21,10.27Z"/><path d="M15.3,13.68a.78.78,0,0,1-.73.56h-.19l-2.78-.73a.74.74,0,0,1-.54-.9h0a.75.75,0,0,1,.91-.54l2.79.73A.75.75,0,0,1,15.3,13.68Z"/><path d="M22.19,5.47a5.68,5.68,0,0,0-3.42-2.73l-3.45-1A5.64,5.64,0,0,0,9.09,3.92a4.4,4.4,0,0,0-.47.1l-3.44,1a5.73,5.73,0,0,0-3.84,7.12L3.2,18.4a5.72,5.72,0,0,0,7.12,3.85l3.44-1a5.71,5.71,0,0,0,2-1,5.73,5.73,0,0,0,5.16-4.12l1.8-6.25A5.64,5.64,0,0,0,22.19,5.47ZM9.89,20.81A4.22,4.22,0,0,1,4.64,18L2.78,11.74A4.21,4.21,0,0,1,5.61,6.49l2.61-.78L6.43,11.9A5.71,5.71,0,0,0,10.33,19l2.89.84ZM21.23,9.41l-1.81,6.25a4.15,4.15,0,0,1-2,2.52,4.23,4.23,0,0,1-3.21.36l-3.45-1a4.22,4.22,0,0,1-2.88-5.23L9.68,6.06a4.23,4.23,0,0,1,4-3,4.26,4.26,0,0,1,1.18.17l3.45,1a4.22,4.22,0,0,1,2.88,5.23Z"/></g></g></svg>