<svg xmlns="http://www.w3.org/2000/svg" viewBox="0 0 24 24"><g id="burger-menu"><path id="burger-menu-3" d="M16.05,22.75H8a6.71,6.71,0,0,1-6.7-6.7V8A6.71,6.71,0,0,1,8,1.25h8.1A6.71,6.71,0,0,1,22.75,8v8.1A6.71,6.71,0,0,1,16.05,22.75ZM8,2.75A5.21,5.21,0,0,0,2.75,8v8.1A5.21,5.21,0,0,0,8,21.25h8.1a5.21,5.21,0,0,0,5.2-5.2V8a5.21,5.21,0,0,0-5.2-5.2Zm-.27,3.8A1.15,1.15,0,1,0,8.84,7.69,1.15,1.15,0,0,0,7.68,6.55Zm4.32,0a1.15,1.15,0,1,0,1.16,1.14A1.15,1.15,0,0,0,12,6.55Zm4.35,0a1.15,1.15,0,1,0,1.16,1.14A1.15,1.15,0,0,0,16.35,6.55ZM7.66,10.86A1.15,1.15,0,1,0,8.82,12,1.15,1.15,0,0,0,7.66,10.86Zm4.32,0A1.15,1.15,0,1,0,13.14,12,1.14,1.14,0,0,0,12,10.86Zm4.36,0A1.15,1.15,0,1,0,17.5,12,1.15,1.15,0,0,0,16.34,10.86Zm-8.69,4.3a1.15,1.15,0,1,0,1.16,1.15A1.16,1.16,0,0,0,7.65,15.16Zm4.32,0a1.15,1.15,0,1,0,1.16,1.15A1.16,1.16,0,0,0,12,15.16Zm4.35,0a1.15,1.15,0,1,0,1.16,1.15A1.16,1.16,0,0,0,16.32,15.16Z"/></g></svg>