<svg xmlns="http://www.w3.org/2000/svg" viewBox="0 0 24 24"><g id="burger-menu"><path id="burger-menu-2" data-name="burger-menu" d="M16.05,22.75H8a6.71,6.71,0,0,1-6.7-6.7V8A6.71,6.71,0,0,1,8,1.25h8.1A6.71,6.71,0,0,1,22.75,8v8.1A6.71,6.71,0,0,1,16.05,22.75ZM8,2.75A5.21,5.21,0,0,0,2.75,8v8.1A5.21,5.21,0,0,0,8,21.25h8.1a5.21,5.21,0,0,0,5.2-5.2V8a5.21,5.21,0,0,0-5.2-5.2Zm9.5,4.78a.74.74,0,0,0-.75-.75H13.34a.75.75,0,0,0,0,1.5H16.7A.75.75,0,0,0,17.45,7.53Zm0,4.47a.75.75,0,0,0-.75-.75H8.24a.75.75,0,0,0,0,1.5H16.7A.75.75,0,0,0,17.45,12Zm-.27,4.47a.76.76,0,0,0-.75-.75H10.7a.75.75,0,1,0,0,1.5h5.73A.75.75,0,0,0,17.18,16.47Z"/></g></svg>