<svg xmlns="http://www.w3.org/2000/svg" viewBox="0 0 24 24"><g id="burger-menu"><path id="burger-menu-2" d="M5,7.59A2.62,2.62,0,1,1,7.67,5,2.63,2.63,0,0,1,5,7.59ZM5,3.86A1.12,1.12,0,1,0,6.17,5,1.13,1.13,0,0,0,5,3.86Zm7,3.73A2.62,2.62,0,1,1,14.71,5,2.62,2.62,0,0,1,12.07,7.59Zm0-3.73A1.12,1.12,0,1,0,13.21,5,1.12,1.12,0,0,0,12.07,3.86Zm7.1,3.73A2.62,2.62,0,1,1,21.81,5,2.63,2.63,0,0,1,19.17,7.59Zm0-3.73A1.12,1.12,0,1,0,20.31,5,1.13,1.13,0,0,0,19.17,3.86ZM5,14.63A2.62,2.62,0,1,1,7.64,12,2.64,2.64,0,0,1,5,14.63Zm0-3.74a1.12,1.12,0,1,0,0,2.24,1.12,1.12,0,1,0,0-2.24Zm7.05,3.74A2.62,2.62,0,1,1,14.69,12,2.63,2.63,0,0,1,12.05,14.63Zm0-3.74A1.12,1.12,0,1,0,13.19,12,1.14,1.14,0,0,0,12.05,10.89Zm7.09,3.74A2.62,2.62,0,1,1,21.78,12,2.63,2.63,0,0,1,19.14,14.63Zm0-3.74A1.12,1.12,0,1,0,20.28,12,1.13,1.13,0,0,0,19.14,10.89ZM5,21.64A2.62,2.62,0,1,1,7.62,19,2.62,2.62,0,0,1,5,21.64Zm0-3.73A1.12,1.12,0,1,0,6.12,19,1.13,1.13,0,0,0,5,17.91Zm7,3.73A2.62,2.62,0,1,1,14.66,19,2.63,2.63,0,0,1,12,21.64Zm0-3.73A1.12,1.12,0,1,0,13.16,19,1.13,1.13,0,0,0,12,17.91Zm7.1,3.73A2.62,2.62,0,1,1,21.76,19,2.62,2.62,0,0,1,19.12,21.64Zm0-3.73A1.12,1.12,0,1,0,20.26,19,1.13,1.13,0,0,0,19.12,17.91Z"/></g></svg>