<svg xmlns="http://www.w3.org/2000/svg" viewBox="0 0 24 24"><g id="burger-menu"><path id="burger-menu-3" d="M16.05,2H8A6,6,0,0,0,2,8v8.1A6,6,0,0,0,8,22h8.1A6,6,0,0,0,22,16.05V8A6,6,0,0,0,16.05,2ZM7.65,17.45a1.15,1.15,0,1,1,1.16-1.14A1.15,1.15,0,0,1,7.65,17.45Zm0-4.3A1.15,1.15,0,1,1,8.82,12,1.15,1.15,0,0,1,7.66,13.15Zm0-4.31A1.15,1.15,0,1,1,8.84,7.69,1.16,1.16,0,0,1,7.68,8.84ZM12,17.45a1.15,1.15,0,1,1,1.16-1.14A1.15,1.15,0,0,1,12,17.45Zm0-4.3A1.15,1.15,0,1,1,13.14,12,1.14,1.14,0,0,1,12,13.15Zm0-4.31a1.15,1.15,0,1,1,1.16-1.15A1.16,1.16,0,0,1,12,8.84Zm4.32,8.61a1.15,1.15,0,1,1,1.16-1.14A1.15,1.15,0,0,1,16.32,17.45Zm0-4.3A1.15,1.15,0,1,1,17.5,12,1.15,1.15,0,0,1,16.34,13.15Zm0-4.31a1.15,1.15,0,1,1,1.16-1.15A1.16,1.16,0,0,1,16.35,8.84Z"/></g></svg>