<svg xmlns="http://www.w3.org/2000/svg" viewBox="0 0 24 24"><defs><style>.cls-1{opacity:0.3;}</style></defs><g id="notification"><g id="notification-favorite"><circle cx="19" cy="5" r="3"/><g class="cls-1"><path d="M19,9.5A4.51,4.51,0,0,1,14.5,5,4.51,4.51,0,0,1,15,3H7A5,5,0,0,0,2,8V17a5,5,0,0,0,5,5H16a5,5,0,0,0,5-5V9A4.51,4.51,0,0,1,19,9.5Z"/></g><path d="M10.44,12.75a1.85,1.85,0,0,0-1.81.31A1.83,1.83,0,0,0,7,12.71a1.9,1.9,0,0,0-1.33,1.86,4.05,4.05,0,0,0,2.14,3.36,1.69,1.69,0,0,0,1.8,0,3.94,3.94,0,0,0,2.06-3.4A1.82,1.82,0,0,0,10.44,12.75Z"/></g></g></svg>