<svg xmlns="http://www.w3.org/2000/svg" viewBox="0 0 24 24"><defs><style>.cls-1{opacity:0.3;}</style></defs><g id="notification"><g id="notification-bing"><path d="M12,11.39a.76.76,0,0,1-.75-.75V7.51a.75.75,0,1,1,1.5,0v3.13A.76.76,0,0,1,12,11.39Z"/><g class="cls-1"><path d="M19.06,13.66a8,8,0,0,1-1.34-4.58V8.9A5.61,5.61,0,0,0,9.9,3.76,5.39,5.39,0,0,0,6.57,8.82v.07A8.1,8.1,0,0,1,5,13.74l-.68.92a2.09,2.09,0,0,0-.41,1.26h0A2.12,2.12,0,0,0,6,18H18a2.12,2.12,0,0,0,2.12-2.12v-.06a2.09,2.09,0,0,0-.35-1.17Z"/></g><path d="M10.07,19a2,2,0,0,0,3.86,0Z"/></g></g></svg>