<svg xmlns="http://www.w3.org/2000/svg" viewBox="0 0 24 24"><g id="delivery-logistics"><path id="airplane" d="M16,22.88a1.55,1.55,0,0,1-1-.37l-3-2.4a.09.09,0,0,0-.12,0L9,22.51a1.61,1.61,0,0,1-2.64-1.25v-2A1.61,1.61,0,0,1,6.91,18l2.33-1.9v-3L4.38,15.17A1.66,1.66,0,0,1,2.81,15a1.63,1.63,0,0,1-.75-1.38V11.51a1.65,1.65,0,0,1,1-1.51L9.24,7.3V4.1a2.44,2.44,0,0,1,.7-1.71l.62-.64a2.07,2.07,0,0,1,1.5-.63h0a2.07,2.07,0,0,1,1.5.63l.62.64a2.44,2.44,0,0,1,.7,1.71V7.35L21,10a1.65,1.65,0,0,1,1,1.51v2.14A1.63,1.63,0,0,1,21.19,15a1.66,1.66,0,0,1-1.57.14L14.88,13.1v3.13L17,18a1.61,1.61,0,0,1,.59,1.26v2a1.6,1.6,0,0,1-.92,1.46A1.62,1.62,0,0,1,16,22.88ZM9.37,11.48a1.33,1.33,0,0,1,.75.23,1.35,1.35,0,0,1,.62,1.14v3.29a1.37,1.37,0,0,1-.5,1.07L7.86,19.15a.1.1,0,0,0,0,.09v2a.12.12,0,0,0,.2.09L11,19a1.6,1.6,0,0,1,2,0l2.94,2.4a.12.12,0,0,0,.2-.09v-2a.1.1,0,0,0,0-.09l-2.2-1.79a1.38,1.38,0,0,1-.5-1.07V12.91A1.35,1.35,0,0,1,14,11.76a1.34,1.34,0,0,1,1.3-.11l4.92,2.14a.15.15,0,0,0,.22-.14V11.51a.16.16,0,0,0-.1-.14L14.2,8.7a1.37,1.37,0,0,1-.82-1.26V4.1a1,1,0,0,0-.27-.66l-.63-.64a.6.6,0,0,0-.84,0L11,3.44a.92.92,0,0,0-.28.66V7.39a1.36,1.36,0,0,1-.82,1.25L3.65,11.37a.17.17,0,0,0-.09.14v2.14a.15.15,0,0,0,.22.14l5-2.19A1.37,1.37,0,0,1,9.37,11.48Zm-.08,4.57Z"/></g></svg>