<svg xmlns="http://www.w3.org/2000/svg" viewBox="0 0 24 24"><g id="delivery-logistics"><path id="airplane-square" d="M8,22.77A6.72,6.72,0,0,1,1.24,16.1L1.2,8A6.71,6.71,0,0,1,7.87,1.27l8.14,0h0A6.71,6.71,0,0,1,22.76,7.9l0,8.08a6.71,6.71,0,0,1-6.67,6.75L8,22.77Zm8.1-20h0l-8.14,0A5.22,5.22,0,0,0,2.7,8l0,8.08A5.22,5.22,0,0,0,8,21.27H8l8.14,0A5.22,5.22,0,0,0,21.3,16l0-8.08a5.22,5.22,0,0,0-5.21-5.18ZM15,20.26a1.4,1.4,0,0,1-.88-.32L12,18.22,9.87,19.94A1.39,1.39,0,0,1,7.6,18.86V17.37a1.39,1.39,0,0,1,.51-1.09l1.65-1.35V13.07L6.43,14.52a1.42,1.42,0,0,1-2-1.3V11.64a1.41,1.41,0,0,1,.86-1.3L9.76,8.39V6.15a2,2,0,0,1,.58-1.41l.46-.47a1.78,1.78,0,0,1,2.49,0l.46.47a2,2,0,0,1,.58,1.41V8.43l4.37,1.91a1.41,1.41,0,0,1,.86,1.3v1.58a1.42,1.42,0,0,1-2,1.3l-3.24-1.41V15l1.52,1.24a1.42,1.42,0,0,1,.51,1.09v1.49a1.38,1.38,0,0,1-.8,1.26A1.42,1.42,0,0,1,15,20.26ZM9.1,18.85h0Zm1-7.43a1.22,1.22,0,0,1,.67.2,1.2,1.2,0,0,1,.54,1v2.44a1.21,1.21,0,0,1-.44.94L9.06,17.45l0,1.19,2-1.64a1.38,1.38,0,0,1,1.74,0l2,1.64V17.37l-1.59-1.25a1.21,1.21,0,0,1-.44-.94V12.67a1.2,1.2,0,0,1,.54-1,1.21,1.21,0,0,1,1.15-.1l3.54,1.54V11.69l-4.51-2a1.21,1.21,0,0,1-.72-1.11V6.15a.49.49,0,0,0-.15-.36l-.46-.47c-.12-.13-.22-.13-.35,0l-.46.47a.53.53,0,0,0-.15.36V8.58a1.21,1.21,0,0,1-.72,1.11l-4.65,2,.05,1.39,3.63-1.58A1.18,1.18,0,0,1,10.05,11.42Z"/></g></svg>