<svg xmlns="http://www.w3.org/2000/svg" viewBox="0 0 24 24"><g id="delivery-logistics"><path id="bus" d="M17.31,1.25H6.69A3.44,3.44,0,0,0,3.25,4.69V19.31a3.44,3.44,0,0,0,3.44,3.44H17.31a3.44,3.44,0,0,0,3.44-3.44V4.69A3.44,3.44,0,0,0,17.31,1.25ZM4.75,8.75h14.5v3.5H4.75Zm14.5,10.56a1.94,1.94,0,0,1-1.94,1.94H6.69a1.94,1.94,0,0,1-1.94-1.94V13.75h14.5ZM4.75,7.25V4.69A1.94,1.94,0,0,1,6.69,2.75H17.31a1.94,1.94,0,0,1,1.94,1.94V7.25Zm9.78-1.5H9.66a.75.75,0,0,1,0-1.5h4.87a.75.75,0,1,1,0,1.5ZM9.25,17.5A1.25,1.25,0,1,1,8,16.25,1.25,1.25,0,0,1,9.25,17.5Zm8,0A1.25,1.25,0,1,1,16,16.25,1.25,1.25,0,0,1,17.25,17.5Z"/></g></svg>