<svg xmlns="http://www.w3.org/2000/svg" viewBox="0 0 24 24"><g id="delivery-logistics"><path id="car-2" d="M22.26,17.76V12.5a4.17,4.17,0,0,0-.35-1.67l-.4-.94A1,1,0,0,0,22,9a1.07,1.07,0,0,0-1.07-1.08h-.26l-1.2-2.77a4.21,4.21,0,0,0-3.86-2.54h-7A4.18,4.18,0,0,0,4.66,5.28L3.6,7.94H3.07A1.07,1.07,0,0,0,2,9a1.06,1.06,0,0,0,.78,1l-.35.87a4.07,4.07,0,0,0-.29,1.55v5.37s0,0,0,.05v1.07a2.43,2.43,0,0,0,4.86,0v-.32H17.42v.32a2.43,2.43,0,1,0,4.86,0V17.87S22.26,17.8,22.26,17.76ZM6.05,5.84A2.7,2.7,0,0,1,8.57,4.13h7a2.7,2.7,0,0,1,2.48,1.63l2.44,5.67h0a2.64,2.64,0,0,1,.23,1.07v4.62H3.64V12.45a2.62,2.62,0,0,1,.19-1Zm-.57,13.1a.93.93,0,0,1-1.86,0v-.32H5.48Zm15.3,0a.93.93,0,1,1-1.86,0v-.32h1.86ZM17,10.84H7.17a1.26,1.26,0,0,1-1-.52,1.45,1.45,0,0,1-.23-1.26h0l.81-2.81A1.31,1.31,0,0,1,8,5.28H16.2a1.31,1.31,0,0,1,1.25,1l.81,2.81A1.42,1.42,0,0,1,18,10.32,1.27,1.27,0,0,1,17,10.84ZM7.36,9.48h0Zm0-.14h9.42L16,6.78H8.14ZM16,6.67ZM5.6,14.47a1.05,1.05,0,1,1,1.05-1.05A1,1,0,0,1,5.6,14.47Zm13,0a1.05,1.05,0,1,1,1.05-1.05A1,1,0,0,1,18.62,14.47Zm-2.78,1.76h-7a.75.75,0,0,1,0-1.5h7a.75.75,0,0,1,0,1.5Z"/></g></svg>