<svg xmlns="http://www.w3.org/2000/svg" viewBox="0 0 24 24"><g id="delivery-logistics"><path id="car-3" d="M20.88,10.71l-2.16-.49A.87.87,0,0,1,18.3,10L14.74,6.61A2.35,2.35,0,0,0,13.09,6H7.94a2.4,2.4,0,0,0-1.89.91L4.17,9.26a.9.9,0,0,1-.45.31L3,9.77a2.46,2.46,0,0,0-1.75,2.34v2.28a2.17,2.17,0,0,0,.62,1.52,2.2,2.2,0,0,0,1.43.65h.49a2.21,2.21,0,0,0,2.09,1.49A2.23,2.23,0,0,0,8,16.57h8a2.22,2.22,0,0,0,4.18,0h.52a2.17,2.17,0,0,0,2.09-2.18V13.05A2.4,2.4,0,0,0,20.88,10.71Zm-15,5.84a.73.73,0,1,1,.73-.72A.73.73,0,0,1,5.88,16.55Zm12.17,0a.73.73,0,1,1,.72-.72A.72.72,0,0,1,18.05,16.55Zm3.2-2.17a.7.7,0,0,1-.25.53.6.6,0,0,1-.38.15h-.49a2.21,2.21,0,0,0-4.17,0H8a2.22,2.22,0,0,0-4.18,0H3.38a.72.72,0,0,1-.43-.2.67.67,0,0,1-.2-.48V12.11a1,1,0,0,1,.67-.9l.72-.2a2.43,2.43,0,0,0,1.21-.83L7.23,7.79a.89.89,0,0,1,.71-.34h5.15a.89.89,0,0,1,.62.24l3.56,3.39a2.31,2.31,0,0,0,1.12.6l2.16.5a.89.89,0,0,1,.7.87ZM14.87,9.72l-1-1.15a1.49,1.49,0,0,0-1.12-.5H8.54a1.52,1.52,0,0,0-1.27.68L6.49,9.89a1.53,1.53,0,0,0-.07,1.57,1.51,1.51,0,0,0,1.34.81h6a1.53,1.53,0,0,0,1.13-2.55Zm-7.13,1,.8-1.18H9.88v1.18Zm6,0-2.36,0V9.57h1.34l1,1.19Z"/></g></svg>