<svg xmlns="http://www.w3.org/2000/svg" viewBox="0 0 24 24"><g id="delivery-logistics"><path id="car" d="M9.39,13.28a.76.76,0,0,1-.75.75H5.39a.75.75,0,1,1,0-1.5H8.64A.75.75,0,0,1,9.39,13.28Zm9.25-.75H15.39a.75.75,0,0,0,0,1.5h3.25a.75.75,0,0,0,0-1.5Zm4.72,7.86a2.31,2.31,0,0,1-2.29,2.49H16.86a2.3,2.3,0,0,1-2.29-2.08v-.2a.8.8,0,0,0-.8-.72H9.87a.81.81,0,0,0-.8.75,2.32,2.32,0,0,1-2.3,2.25H2.93a2.3,2.3,0,0,1-1.69-.74,2.34,2.34,0,0,1-.6-1.75L1.31,12A3.42,3.42,0,0,1,2.84,9.45l.24-1.31H2.9a.75.75,0,0,1,0-1.5h.45L3.78,4.2A3.72,3.72,0,0,1,7.45,1.13h8.86A3.72,3.72,0,0,1,20,4.2l.44,2.44h.2a.75.75,0,0,1,.75.75.74.74,0,0,1-.69.73l.21,1.18A3.42,3.42,0,0,1,22.69,12ZM4.47,8.88H19.29l-.13-.74-.27-1.5L18.5,4.46a2.22,2.22,0,0,0-2.19-1.83H12.66v.58h.7a.75.75,0,0,1,0,1.5h-3a.75.75,0,0,1,0-1.5h.78V2.63H7.45A2.22,2.22,0,0,0,5.26,4.46L4.87,6.64,4.6,8.14Zm17.4,11.63-.67-8.36A1.94,1.94,0,0,0,20,10.52h0l-.07,0a1.47,1.47,0,0,0-.28-.08,2,2,0,0,0-.34,0H4.72A1.93,1.93,0,0,0,2.8,12.15l-.67,8.36a.81.81,0,0,0,.8.87H6.77a.8.8,0,0,0,.8-.76,2.31,2.31,0,0,1,2.3-2.24h3.89a2.29,2.29,0,0,1,2.29,2.07l0,.2a.8.8,0,0,0,.79.73h4.21a.81.81,0,0,0,.8-.87Z"/></g></svg>