<svg xmlns="http://www.w3.org/2000/svg" viewBox="0 0 24 24"><g id="delivery-logistics"><path id="courier-express" d="M21.56,6.58h-1.9a1.73,1.73,0,0,0-1.73,1.73V10H17.6l-.52-2a2,2,0,0,0-.36-.73c0-.06-.1-.11-.14-.16a2.77,2.77,0,0,0,1.47-2.44V4.62h.68a.75.75,0,0,0,0-1.5H18a2.77,2.77,0,0,0-5.48.61v1a2.84,2.84,0,0,0,.1.72h0a2.27,2.27,0,0,0-1.37,1.06l-3,5.34L7,13,7,13,1.32,18.69a2.1,2.1,0,0,0,0,3,2.14,2.14,0,0,0,3,0L9.8,16.14l.78.59-2.4,2.4a2.09,2.09,0,0,0,0,3,2.08,2.08,0,0,0,3,0L15.23,18a2.09,2.09,0,0,0,.62-1.48A2.06,2.06,0,0,0,15.23,15l0,0-.87-.87.28-.5.24.18.1.07.1,0a1.22,1.22,0,0,0,.24.1l.25.08.1,0a1.61,1.61,0,0,0,.46,0h3.51a2.09,2.09,0,0,0,2-1.41A1.74,1.74,0,0,0,23.29,11V8.31A1.73,1.73,0,0,0,21.56,6.58Zm-5-1.89a1.28,1.28,0,1,1-2.55,0V4.62h2.55ZM15.27,2.46a1.26,1.26,0,0,1,1.1.66h-2.2A1.27,1.27,0,0,1,15.27,2.46Zm4.35,10.2H16l-.25-.07h0a.76.76,0,0,1-.17-.15.69.69,0,0,1-.12-.32l-.05-.18a.74.74,0,0,0-.64-.55.74.74,0,0,0-.74.37l-1.07,1.9a1.29,1.29,0,0,0-.16.17.74.74,0,0,0,.1.95l1.31,1.32h0l0,0a.6.6,0,0,1,.16.41.58.58,0,0,1-.18.42L10.08,21a.6.6,0,0,1-.84,0,.58.58,0,0,1,0-.84l3-3a.75.75,0,0,0-.08-1.13l-2-1.5a.69.69,0,0,0-.45-.16.77.77,0,0,0-.53.22l-6,6a.6.6,0,0,1-.84,0,.6.6,0,0,1,0-.84h0L8.09,14l.05,0L9.33,12.8a1,1,0,0,0,.13-.16l3-5.43A.73.73,0,0,1,13,6.86a.72.72,0,0,1,.57.08l1.72,1a.9.9,0,0,1,.26.26.51.51,0,0,1,.11.22l.67,2.5a.76.76,0,0,0,.73.56h2.59a.6.6,0,1,1,0,1.19ZM21.79,11a.23.23,0,0,1-.23.24h0A2.09,2.09,0,0,0,19.62,10h-.19V8.31a.23.23,0,0,1,.23-.23h1.9a.23.23,0,0,1,.23.23ZM2.15,8.29a.75.75,0,0,1,.74-.75L9,7.5H9A.75.75,0,0,1,9,9L2.9,9h0A.75.75,0,0,1,2.15,8.29Zm3.08-3A.74.74,0,0,1,6,4.54l3,0H9A.75.75,0,0,1,9,6L6,6H6A.75.75,0,0,1,5.23,5.3Z"/></g></svg>