<svg xmlns="http://www.w3.org/2000/svg" viewBox="0 0 24 24"><g id="delivery-logistics"><path id="courier" d="M15.05,9.86h0l-1.68,0L12.64,8a2.29,2.29,0,0,0-.78-1.56,2.75,2.75,0,0,0,.7-1.82V4.54h.67a.75.75,0,0,0,0-1.5h-.74A2.78,2.78,0,0,0,7,3.65v1a2.71,2.71,0,0,0,.62,1.71,2.25,2.25,0,0,0-.93,1.82v5.7s0,.05,0,.07v2.95a3.05,3.05,0,0,1-.26,1.23l-.93,2.05a1.84,1.84,0,0,0,.92,2.42,1.82,1.82,0,0,0,2.42-.91L10,19.18a4.51,4.51,0,0,0,.38-1.44,2.81,2.81,0,0,1,.22,1.15v2a1.83,1.83,0,0,0,1.82,1.84h0a1.84,1.84,0,0,0,1.83-1.82V18.33a4.41,4.41,0,0,0-.6-2.27l-1-1.68v-.86h2.4a1.83,1.83,0,0,0,0-3.66Zm-4-5.25a1.28,1.28,0,1,1-2.56,0V4.54h2.56ZM9.78,2.38a1.26,1.26,0,0,1,1.1.66H8.68A1.26,1.26,0,0,1,9.78,2.38ZM15.05,12H11.9a.75.75,0,0,0-.75.75v1.81a.69.69,0,0,0,.1.37l1.07,1.86a3,3,0,0,1,.4,1.51V20.9a.33.33,0,0,1-.33.33h0a.32.32,0,0,1-.33-.33v-2a4.4,4.4,0,0,0-.6-2.26l-1.2-2.09a.77.77,0,0,0-.65-.37l-.2,0a.75.75,0,0,0-.55.73v2.41a2.93,2.93,0,0,1-.27,1.23L7.46,21a.31.31,0,0,1-.18.18.36.36,0,0,1-.25,0,.33.33,0,0,1-.17-.44l.92-2.05a4.37,4.37,0,0,0,.4-1.85V14a.2.2,0,0,0,0-.07V8.14a.74.74,0,0,1,.75-.75H10.4a.75.75,0,0,1,.75.75.82.82,0,0,0,0,.26l.94,2.52a.79.79,0,0,0,.72.49l2.2-.05a.33.33,0,0,1,0,.66ZM18.51,4H15.7A1.74,1.74,0,0,0,14,5.69V7.58A1.74,1.74,0,0,0,15.7,9.32h2.81a1.74,1.74,0,0,0,1.74-1.74V5.69A1.74,1.74,0,0,0,18.51,4Zm.24,3.63a.24.24,0,0,1-.24.24H15.7a.24.24,0,0,1-.24-.24V5.69a.24.24,0,0,1,.24-.24h2.81a.24.24,0,0,1,.24.24Z"/></g></svg>