<svg xmlns="http://www.w3.org/2000/svg" viewBox="0 0 24 24"><g id="delivery-logistics"><path id="cube-2" d="M21.91,8.4a4.57,4.57,0,0,0-.29-1.1l.06,0-.37-.65a.86.86,0,0,1-.07-.1L20.92,6l0,0a4.52,4.52,0,0,0-.73-.72l-.08-.07a6.18,6.18,0,0,0-.53-.36l-5.12-3a4.86,4.86,0,0,0-4.84,0l-5.12,3-.53.35-.12.11A5,5,0,0,0,2.69,6.62l-.37.65.06,0A4.83,4.83,0,0,0,2.05,9V15a4.83,4.83,0,0,0,2.41,4.18l5.12,3a5,5,0,0,0,1.81.61v.05l.59,0h.27l.47,0,.14,0,.45-.1.2-.07c.12,0,.24-.07.36-.12a5.6,5.6,0,0,0,.55-.27l5.12-3A4.83,4.83,0,0,0,22,15V9A4.44,4.44,0,0,0,21.91,8.4ZM10.33,3.19a3.37,3.37,0,0,1,3.34,0l5.12,3,.39.26.12.11.22.2,0,0L15,9.41l-3,1.72L4.45,6.76l0,0a2.39,2.39,0,0,1,.23-.22l.11-.1.39-.26Zm0,17.6-5.12-3A3.31,3.31,0,0,1,3.55,15V9a3.17,3.17,0,0,1,.15-1l7.56,4.37.11,8.72A3.3,3.3,0,0,1,10.33,20.79ZM20.45,15a3.31,3.31,0,0,1-1.66,2.88l-5.12,3a2.94,2.94,0,0,1-.8.33l-.11-8.7L20.3,8.06v0a2.49,2.49,0,0,1,.09.37.3.3,0,0,0,0,.1,3.71,3.71,0,0,1,0,.47Z"/></g></svg>