<svg xmlns="http://www.w3.org/2000/svg" viewBox="0 0 24 24"><g id="delivery-logistics"><path id="cube-3" d="M16.05,22.75H8a6.71,6.71,0,0,1-6.7-6.7V8A6.71,6.71,0,0,1,8,1.25h8.1A6.71,6.71,0,0,1,22.75,8v8.1A6.71,6.71,0,0,1,16.05,22.75ZM8,2.75A5.2,5.2,0,0,0,2.75,8v8.1A5.2,5.2,0,0,0,8,21.25h8.1a5.2,5.2,0,0,0,5.2-5.2V8a5.2,5.2,0,0,0-5.2-5.2Zm6,15.79a1.6,1.6,0,0,1-.76-.2A1.53,1.53,0,0,1,12.4,17V13.77a1.53,1.53,0,0,1,.76-1.31L16,10.83a1.51,1.51,0,0,1,2.27,1.32V15.4a1.52,1.52,0,0,1-.75,1.31l-2.82,1.63A1.6,1.6,0,0,1,13.92,18.54Zm2.43-7.06.38.65-2.82,1.63V17l2.85-1.61V12.15Zm-6.27,7a1.5,1.5,0,0,1-.76-.21L6.5,16.65a1.54,1.54,0,0,1-.75-1.32V12.08A1.51,1.51,0,0,1,8,10.77l2.82,1.62a1.53,1.53,0,0,1,.76,1.32V17a1.54,1.54,0,0,1-1.52,1.52ZM7.26,12.06v3.27L10.07,17l0-3.26L7.27,12.07Zm4.91-.32a1.49,1.49,0,0,1-.76-.2L8.59,9.93a1.53,1.53,0,0,1-.76-1.32A1.48,1.48,0,0,1,8.59,7.3L11.4,5.66a1.51,1.51,0,0,1,1.51,0l2.83,1.62a1.52,1.52,0,0,1,0,2.63l-2.81,1.63A1.47,1.47,0,0,1,12.17,11.74Zm0-4.78L9.34,8.6h0l2.83,1.64L15,8.61Z"/></g></svg>