<svg xmlns="http://www.w3.org/2000/svg" viewBox="0 0 24 24"><g id="delivery-logistics"><path id="deliveri" d="M23.53,12.57,21.83,9.3h0l-1.1-2.11A3.49,3.49,0,0,0,17.64,5.3h-.85V4.73A2.42,2.42,0,0,0,14.37,2.3H7.09a4.61,4.61,0,0,0-4.6,4.61V18.28A3.51,3.51,0,0,0,6,21.8h.56a2.7,2.7,0,0,0,5.21,0h2.67a2.7,2.7,0,0,0,5.21,0h.82a3.51,3.51,0,0,0,3.49-3.52V14.22A3.48,3.48,0,0,0,23.53,12.57Zm-1.33.69a2,2,0,0,1,.24,1v.08H20a.22.22,0,0,1-.22-.23V11A.23.23,0,0,1,20,10.8h1ZM4,6.91A3.11,3.11,0,0,1,7.09,3.8h7.28a.93.93,0,0,1,.92.93v8.66a.92.92,0,0,1-.92.91H4ZM9.15,22.3a1.25,1.25,0,1,1,1.22-1.25A1.24,1.24,0,0,1,9.15,22.3Zm7.88,0a1.25,1.25,0,0,1,0-2.5,1.25,1.25,0,0,1,0,2.5Zm5.41-4a2,2,0,0,1-2,2h-.82a2.7,2.7,0,0,0-5.21,0H11.75a2.7,2.7,0,0,0-5.21,0H6a2,2,0,0,1-2-2V15.8H14.37a2.41,2.41,0,0,0,2.42-2.41V6.8h.85A2,2,0,0,1,19.4,7.88l.74,1.42H20A1.73,1.73,0,0,0,18.25,11v3A1.72,1.72,0,0,0,20,15.8h2.47Z"/></g></svg>