<svg xmlns="http://www.w3.org/2000/svg" viewBox="0 0 24 24"><g id="delivery-logistics"><g id="delivery-24"><path id="delivery-24-2" data-name="delivery-24" d="M12.47,22.29A7.82,7.82,0,0,1,8.68,21,17.49,17.49,0,0,1,2.3,14.37C.9,11.63,1,9.57,2.63,8.07h0a2.72,2.72,0,0,1,1.71-.81,2,2,0,0,1,1.83.79l1.91,2.88a2.25,2.25,0,0,1,.13.57,1.55,1.55,0,0,1-.27,1l-.78.91a12.94,12.94,0,0,0,3.06,3,9.66,9.66,0,0,1,.89-.77,1.72,1.72,0,0,1,1.65-.14l.12.07,2.79,1.93a3.76,3.76,0,0,1,.5.57,2.09,2.09,0,0,1,.11,1.48,3.28,3.28,0,0,1-1.63,2.08A4.26,4.26,0,0,1,12.47,22.29ZM4.68,8.72h0a1.41,1.41,0,0,0-1,.45h0c-.73.68-1.4,1.81,0,4.52a15.88,15.88,0,0,0,5.79,6c2.1,1.2,3.26,1.38,4.46.69a1.67,1.67,0,0,0,1-1.53l-.17-.18L12.11,16.9H12c-.27.2-.74.66-.9.81a1.11,1.11,0,0,1-1.33.23,13.7,13.7,0,0,1-4-4,1.08,1.08,0,0,1,.18-1.33c.2-.22.86-1,.86-1a.13.13,0,0,1,0-.07L4.93,8.9A.54.54,0,0,0,4.68,8.72ZM14.9,18.92h0ZM10,16.64s0,0,0,0S10,16.66,10,16.64Zm2.42-4.36H10.77c1-1,1.81-1.86,1.81-2.94a1.72,1.72,0,0,0-1.86-1.78,2.58,2.58,0,0,0-1.65.59A.28.28,0,0,0,9,8.47L9.23,9a.23.23,0,0,0,.18.15.28.28,0,0,0,.23,0,1.52,1.52,0,0,1,.94-.38.67.67,0,0,1,.76.75c0,.66-.55,1.29-1.86,2.54l-.55.54a.25.25,0,0,0-.09.19v.43a.28.28,0,0,0,.27.27h3.33a.27.27,0,0,0,.27-.27v-.58A.27.27,0,0,0,12.44,12.28Zm5.27-1.39h-.46v-3A.27.27,0,0,0,17,7.65h-.77a.28.28,0,0,0-.22.11l-2.32,3.33a.3.3,0,0,0-.05.16v.46a.27.27,0,0,0,.27.27H16v1.15a.27.27,0,0,0,.27.27H17a.27.27,0,0,0,.27-.27V12h.46a.27.27,0,0,0,.27-.27v-.55A.27.27,0,0,0,17.71,10.89Zm-1.67,0h-.92L16,9.6Z"/><path d="M19.16,18.62a.73.73,0,0,1-.54-.23.75.75,0,0,1,0-1.06,8.12,8.12,0,0,0,2.53-5.92A8.21,8.21,0,0,0,13,3.21,8.1,8.1,0,0,0,7,5.77a.75.75,0,0,1-1.09-1,9.7,9.7,0,0,1,16.73,6.68,9.59,9.59,0,0,1-3,7A.73.73,0,0,1,19.16,18.62Z"/></g></g></svg>