<svg xmlns="http://www.w3.org/2000/svg" viewBox="0 0 24 24"><g id="delivery-logistics"><path id="delivery-2" d="M10.67,8a1.57,1.57,0,0,0,.56.84,1.8,1.8,0,0,0,0,1.1l1.22,4.29a1.87,1.87,0,0,0,1.78,1.35,2.08,2.08,0,0,0,.5-.07l4.49-1.28a1.87,1.87,0,0,0,1.12-.88,1.82,1.82,0,0,0,.16-1.41L19.26,7.65A1.85,1.85,0,0,0,17.6,6.32,1.37,1.37,0,0,0,17.55,6l-1-3.58a1.66,1.66,0,0,0-2.05-1.15l-3.69,1a1.67,1.67,0,0,0-1,.79,1.7,1.7,0,0,0-.14,1.27Zm7.15.06L19,12.35a.36.36,0,0,1-.25.44L14.3,14.06A.29.29,0,0,1,14,14a.32.32,0,0,1-.17-.21L12.65,9.53a.32.32,0,0,1,0-.27.38.38,0,0,1,.2-.16l1-.29.27,1a.73.73,0,0,0,.88.49L16.14,10a.71.71,0,0,0,.49-.88l-.27-1h.07l.95-.27.1,0A.37.37,0,0,1,17.82,8.06ZM11.11,3.88a.18.18,0,0,1,.09-.08L12,3.57l.2.68a.58.58,0,0,0,.72.41l.88-.25a.61.61,0,0,0,.41-.73L14.05,3l.84-.23h0a.2.2,0,0,1,.17.12l1,3.58a.16.16,0,0,1-.11.2l-3.52,1h0l-.15,0a.17.17,0,0,1-.2-.11L11.09,4A.17.17,0,0,1,11.11,3.88Zm-4.9.21a.85.85,0,0,1-.55.42l-2.51.64A.88.88,0,0,1,2.08,4.5L2,4.26a.89.89,0,0,1,.65-1.08l2.51-.63a.86.86,0,0,1,.67.1l1.31-.36a.75.75,0,0,1,.92.52l3.08,11.13a.74.74,0,0,1-.51.91l-.2,0a.75.75,0,0,1-.72-.55L6.83,3.92ZM21.47,15.94l-6.2,1.72-.2,0a.75.75,0,0,1-.72-.55.74.74,0,0,1,.52-.91l6.2-1.72a.74.74,0,1,1,.4,1.43Zm-1.66,4.57H11.3a2.24,2.24,0,1,0-.23,0H7.49a.75.75,0,0,0-.74.75.74.74,0,0,0,.74.74H19.81a.74.74,0,0,0,.74-.74A.75.75,0,0,0,19.81,20.51Zm-9.37-2.29a.78.78,0,0,1,.74-.81.82.82,0,1,1-.74.81Z"/></g></svg>