<svg xmlns="http://www.w3.org/2000/svg" viewBox="0 0 24 24"><g id="delivery-logistics"><path id="delivery-3" d="M10,11.81h5.76a2.33,2.33,0,0,0,2.33-2.34v-5a2.33,2.33,0,0,0-2.33-2.34H10A2.33,2.33,0,0,0,7.66,4.48v5A2.33,2.33,0,0,0,10,11.81Zm3.73-8.17V4.87a.46.46,0,0,1-.46.46h-.78A.46.46,0,0,1,12,4.87V3.64Zm-4.56.84A.84.84,0,0,1,10,3.64h.53V4.87a2,2,0,0,0,2,2h.78a2,2,0,0,0,2-2V3.64h.53a.84.84,0,0,1,.83.84v5a.84.84,0,0,1-.83.84H10a.84.84,0,0,1-.83-.84Zm13.22,6.89A1.93,1.93,0,0,0,19.89,11l-4.13,2.95a.54.54,0,0,0-.15.15,2.3,2.3,0,0,0-.88-.45L8.26,12a2,2,0,0,0-.51-.06,3.63,3.63,0,0,0-3.11,1.39c-.94,1.05-2.09,2.26-2.86,3.07a2,2,0,0,0,.06,2.87l1.73,1.67a2,2,0,0,0,2.84,0c.24-.23.38-.35.46-.42.71.06,3.37.66,5.58,1.21a3.34,3.34,0,0,0,1,.14,2.32,2.32,0,0,0,.68-.09,4.28,4.28,0,0,0,1.54-1l6.57-6.71A2.2,2.2,0,0,0,22.38,11.37Zm-1.32,1.74-6.49,6.63a3.06,3.06,0,0,1-.89.59,2,2,0,0,1-.83,0A34.85,34.85,0,0,0,6.73,19a.82.82,0,0,0-.43.08,3.85,3.85,0,0,0-.94.76.53.53,0,0,1-.75,0L2.88,18.2a.56.56,0,0,1,0-.77c.79-.82,1.94-2,2.89-3.1a2.14,2.14,0,0,1,1.87-.89h.11a.39.39,0,0,1,.16,0l6.47,1.63a.73.73,0,0,1,.47.35.76.76,0,0,1,.07.61.61.61,0,0,1-.73.44l-2.84-.73A.75.75,0,1,0,11,17.21l2.83.73a2.14,2.14,0,0,0,2.56-1.5,2.32,2.32,0,0,0,0-1.17.8.8,0,0,0,.27-.12l4-2.9a.43.43,0,0,1,.55.08C21.4,12.53,21.13,13,21.06,13.11Z"/></g></svg>