<svg xmlns="http://www.w3.org/2000/svg" viewBox="0 0 24 24"><g id="delivery-logistics"><path id="delivery-geolocation" d="M21.39,12.62,18.85,7.83A3.22,3.22,0,0,0,16.4,6.14a5.8,5.8,0,0,0-11.46,0,3.21,3.21,0,0,0-2.7,3.16v8.41A3.22,3.22,0,0,0,5.46,21h.46a2.51,2.51,0,0,0,4.81,0H13a2.51,2.51,0,0,0,4.81,0h.69a3.22,3.22,0,0,0,3.22-3.22V14.12A3.26,3.26,0,0,0,21.39,12.62Zm-1.33.7a1.69,1.69,0,0,1,.2.8H18.11A.13.13,0,0,1,18,14V11.3a.13.13,0,0,1,.13-.13h.82ZM10.16,2.79A4.32,4.32,0,0,1,13.89,10l-2.58,2.88A.72.72,0,0,1,11,13a.79.79,0,0,1-.2,0l-.15,0a.7.7,0,0,1-.14,0,.78.78,0,0,1-.21,0,.72.72,0,0,1-.29-.2L7.45,10a5.11,5.11,0,0,1-.51-.71,2.59,2.59,0,0,1-.17-.38c-.06-.13-.13-.26-.18-.4A3.84,3.84,0,0,1,6.48,8c0-.13-.06-.26-.08-.38s0-.32,0-.48,0-.42,0-.64A4.34,4.34,0,0,1,10.16,2.79ZM8.33,21.24a1,1,0,1,1,1-1A1,1,0,0,1,8.33,21.24Zm7.12,0a1,1,0,1,1,1-1A1,1,0,0,1,15.45,21.24Zm4.81-3.5a1.72,1.72,0,0,1-1.72,1.72h-.69a2.51,2.51,0,0,0-4.81,0H10.73a2.51,2.51,0,0,0-4.81,0H5.46a1.72,1.72,0,0,1-1.72-1.72V9.33A1.71,1.71,0,0,1,4.9,7.71s0,0,0,.07a5.4,5.4,0,0,0,.13.7c0,.06,0,.12,0,.18a4.74,4.74,0,0,0,.26.75l.06.12c.1.2.2.4.32.59l.12.19a6,6,0,0,0,.49.64l2.57,2.88,0,0a2.36,2.36,0,0,0,3.48,0L15,11a5.76,5.76,0,0,0,.6-.8l.15-.29A4.6,4.6,0,0,0,16,9.27c.05-.12.09-.24.13-.36a5.69,5.69,0,0,0,.16-.59,2.66,2.66,0,0,0,.07-.39,2.38,2.38,0,0,0,.05-.26,1.72,1.72,0,0,1,1.08.86l.6,1.14h0a1.63,1.63,0,0,0-1.63,1.63V14a1.63,1.63,0,0,0,1.63,1.63h2.15Zm-9.59-8A2.65,2.65,0,1,0,8,7.07,2.65,2.65,0,0,0,10.67,9.72Zm0-3.8A1.15,1.15,0,1,1,9.52,7.07,1.16,1.16,0,0,1,10.67,5.92Z"/></g></svg>