<svg xmlns="http://www.w3.org/2000/svg" viewBox="0 0 24 24"><g id="delivery-logistics"><path id="delivery-door" d="M11.75,19.7H8.45A2.7,2.7,0,0,1,5.76,17V4a2.7,2.7,0,0,1,2.69-2.7H15A2.7,2.7,0,0,1,17.73,4v8.64a.75.75,0,0,1-1.5,0V4A1.19,1.19,0,0,0,15,2.75H8.45A1.19,1.19,0,0,0,7.26,4V17a1.19,1.19,0,0,0,1.19,1.2h3.3a.75.75,0,0,1,0,1.5Zm4-8.71V9.18a.75.75,0,0,0-1.5,0V11a.75.75,0,0,0,1.5,0Zm6,10V16.31a1.79,1.79,0,0,0-1.79-1.8H15.29a1.8,1.8,0,0,0-1.8,1.8V21a1.81,1.81,0,0,0,1.8,1.8h4.65A1.8,1.8,0,0,0,21.73,21ZM19.94,16a.29.29,0,0,1,.29.3V21a.29.29,0,0,1-.29.3H15.29A.3.3,0,0,1,15,21V16.31a.3.3,0,0,1,.3-.3Zm-7.29,6a.76.76,0,0,0-.75-.75H3.76a.75.75,0,1,0,0,1.5H11.9A.76.76,0,0,0,12.65,22Z"/></g></svg>