<svg xmlns="http://www.w3.org/2000/svg" viewBox="0 0 24 24"><g id="delivery-logistics"><path id="delivery-time" d="M8,9A.76.76,0,0,1,8.12,8L9.61,6.79V4.94a.75.75,0,0,1,1.5,0V7.15a.75.75,0,0,1-.29.59L9.05,9.15a.72.72,0,0,1-.46.16A.77.77,0,0,1,8,9Zm14.88,4.13v4.06a3.54,3.54,0,0,1-3.53,3.53h-.84a2.74,2.74,0,0,1-5.27,0H10.51a2.74,2.74,0,0,1-5.27,0H4.65a3.54,3.54,0,0,1-3.53-3.53V7.78A3.54,3.54,0,0,1,4.65,4.25h.52a6,6,0,0,1,10.38,0h.95a3.53,3.53,0,0,1,3.12,1.88l2.85,5.38A3.66,3.66,0,0,1,22.88,13.16Zm-3-3.41h-1a.24.24,0,0,0-.24.24v3a.24.24,0,0,0,.24.24h2.52v-.09a2,2,0,0,0-.24-.95Zm-14-2.5a4.5,4.5,0,1,0,4.5-4.5A4.51,4.51,0,0,0,5.86,7.25ZM9.12,20a1.25,1.25,0,1,0-1.25,1.25A1.25,1.25,0,0,0,9.12,20Zm8,0a1.25,1.25,0,1,0-1.25,1.25A1.25,1.25,0,0,0,17.12,20Zm4.26-5.25H18.86A1.74,1.74,0,0,1,17.12,13V10a1.74,1.74,0,0,1,1.74-1.74H19l-.75-1.42A2,2,0,0,0,16.5,5.75h-.34a5.71,5.71,0,0,1,.2,1.5,6,6,0,0,1-12,0,6.15,6.15,0,0,1,.19-1.49,2,2,0,0,0-1.93,2v9.44a2,2,0,0,0,2,2h.59a2.74,2.74,0,0,1,5.27,0h2.73a2.74,2.74,0,0,1,5.27,0h.84a2,2,0,0,0,2-2Z"/></g></svg>