<svg xmlns="http://www.w3.org/2000/svg" viewBox="0 0 24 24"><g id="delivery-logistics"><path id="logistic" d="M19.54,11.79H18.09L13.5,7.42a2.35,2.35,0,0,0-.75-4.06v-1a.75.75,0,0,0-1.5,0V4a.75.75,0,0,0,.75.75.87.87,0,0,1,.37,1.65.73.73,0,0,0-.73,0,.86.86,0,0,1-.51-.78.75.75,0,0,0-1.5,0,2.36,2.36,0,0,0,.87,1.82L5.91,11.79H4.46A1.86,1.86,0,0,0,2.6,13.64v6.85a1.87,1.87,0,0,0,1.86,1.86H19.54a1.87,1.87,0,0,0,1.86-1.86V13.64A1.86,1.86,0,0,0,19.54,11.79ZM12,8.06l3.92,3.73H8.08Zm7.9,12.43a.36.36,0,0,1-.36.36H4.46a.36.36,0,0,1-.36-.36V13.64a.36.36,0,0,1,.36-.35H19.54a.36.36,0,0,1,.36.35ZM7.09,14.62v4.66a.75.75,0,0,1-1.5,0V14.62a.75.75,0,0,1,1.5,0Zm3.77,0v4.66a.75.75,0,0,1-1.5,0V14.62a.75.75,0,1,1,1.5,0Zm3.78,0v4.66a.75.75,0,0,1-1.5,0V14.62a.75.75,0,1,1,1.5,0Zm3.77,0v4.66a.75.75,0,0,1-1.5,0V14.62a.75.75,0,0,1,1.5,0Z"/></g></svg>