<svg xmlns="http://www.w3.org/2000/svg" viewBox="0 0 24 24"><g id="delivery-logistics"><path id="parcel-tracking" d="M12.17,15.52a4.43,4.43,0,1,0-8.35,2L2.28,18.81a.75.75,0,0,0,.48,1.32A.72.72,0,0,0,3.24,20l1.47-1.23a4.41,4.41,0,0,0,7.46-3.21ZM7.75,18.45a2.93,2.93,0,1,1,2.92-2.93A2.93,2.93,0,0,1,7.75,18.45ZM18.21,3H8.57A4.53,4.53,0,0,0,4,7.55v2.84a.75.75,0,0,0,1.5,0V7.55a3,3,0,0,1,3-3h1V8.39A2.59,2.59,0,0,0,12.16,11h2.46a2.6,2.6,0,0,0,2.6-2.59V4.52h1a3,3,0,0,1,3,3v8.9a3,3,0,0,1-3,3H11.1a.75.75,0,1,0,0,1.5h7.11a4.53,4.53,0,0,0,4.53-4.53V7.55A4.53,4.53,0,0,0,18.21,3ZM15.72,8.39a1.09,1.09,0,0,1-1.1,1.09H12.16a1.09,1.09,0,0,1-1.09-1.09V4.52h4.65Z"/></g></svg>