<svg xmlns="http://www.w3.org/2000/svg" viewBox="0 0 24 24"><g id="delivery-logistics"><path id="parcel" d="M17.93,9a2.75,2.75,0,0,0,0-4.76L13.36,1.62a2.76,2.76,0,0,0-2.75,0L6.07,4.27A2.75,2.75,0,0,0,6.08,9l4.56,2.62A2.75,2.75,0,0,0,12,12a2.72,2.72,0,0,0,1.38-.37ZM11.37,2.92A1.25,1.25,0,0,1,12,2.76a1.28,1.28,0,0,1,.63.16l4.55,2.62a1.25,1.25,0,0,1,0,2.16l-.85.49-7-4.08Zm0,7.43L6.83,7.73A1.23,1.23,0,0,1,6.2,6.65a1.25,1.25,0,0,1,.62-1.09L7.9,4.94,14.9,9l-2.26,1.31A1.26,1.26,0,0,1,11.38,10.35Zm-1.23,2L5.6,9.72A2.76,2.76,0,0,0,1.47,12.1v5.26a2.76,2.76,0,0,0,1.38,2.38L7.4,22.37A2.76,2.76,0,0,0,11.53,20V14.73A2.76,2.76,0,0,0,10.15,12.35ZM10,20a1.24,1.24,0,0,1-.63,1.08,1.22,1.22,0,0,1-1.25,0L3.6,18.44A1.24,1.24,0,0,1,3,17.36V12.1a1.26,1.26,0,0,1,1.25-1.25,1.29,1.29,0,0,1,.63.17L9.4,13.65A1.25,1.25,0,0,1,10,14.73ZM21.15,9.72a2.76,2.76,0,0,0-2.75,0l-4.55,2.63a2.76,2.76,0,0,0-1.38,2.38V20a2.75,2.75,0,0,0,4.13,2.38l4.55-2.63a2.76,2.76,0,0,0,1.38-2.38V12.1A2.73,2.73,0,0,0,21.15,9.72ZM21,17.36a1.24,1.24,0,0,1-.63,1.08l-4.55,2.63a1.22,1.22,0,0,1-1.25,0A1.24,1.24,0,0,1,14,20V14.73a1.25,1.25,0,0,1,.63-1.08l1.68-1v.85a.72.72,0,0,0,.72.72h0a.73.73,0,0,0,.72-.73l0-1.67L19.15,11a1.29,1.29,0,0,1,.63-.17A1.26,1.26,0,0,1,21,12.1Z"/></g></svg>