<svg xmlns="http://www.w3.org/2000/svg" viewBox="0 0 24 24"><g id="delivery-logistics"><path id="scooter" d="M19.17,13.93a3,3,0,0,0-2.94,2.28l-.36,0h-12l-.1,0h0a.5.5,0,0,1-.36-.74l.79-1.41a.5.5,0,0,1,.44-.27h0l5.86,0-.2.68a1.06,1.06,0,0,0,.15.93,1.1,1.1,0,0,0,.83.44l1.6.07a2,2,0,0,0,1.9-1.15l1-2.07a2,2,0,0,0,.12-1.4L15,8.42l0-.29.11-1.86a.51.51,0,0,1,.4-.47l1.12-.24,0,1.11h-.2a.75.75,0,0,0-.66.36.77.77,0,0,0,0,.75l2.66,4.74a.75.75,0,0,0,1.31-.73L17.59,8.12A.74.74,0,0,0,18,7.46l.06-2.32a1.15,1.15,0,0,0-.41-.91,1.11,1.11,0,0,0-1-.23l-1.58.33a2,2,0,0,0-1.37,1.1l-1.69,0a.74.74,0,0,0-.74.75.75.75,0,0,0,.75.75h1.43l-.07,1.17v.12l.05.42a.5.5,0,0,0,0,.12l.84,3a.53.53,0,0,1,0,.35l-1,2.07a.52.52,0,0,1-.48.29l-1,0,.21-.7a1.16,1.16,0,0,0,0-.37h.12a.75.75,0,0,0,0-1.5H2.68a.75.75,0,0,0,0,1.5h.15l0,0L2,14.75a2,2,0,0,0,.9,2.77,3,3,0,0,0,5.94.21h7l.34,0a3,3,0,1,0,3-3.78ZM5.93,18.53a1.54,1.54,0,0,1-1.36-.8H7.28A1.53,1.53,0,0,1,5.93,18.53Zm13.24,0A1.55,1.55,0,1,1,20.72,17,1.56,1.56,0,0,1,19.17,18.53ZM9.43,10.76H4.5a.75.75,0,0,1,0-1.5H9.43a.75.75,0,0,1,0,1.5Zm0-2.57H4.5a.75.75,0,1,1,0-1.5H9.43a.75.75,0,1,1,0,1.5Z"/></g></svg>