<svg xmlns="http://www.w3.org/2000/svg" viewBox="0 0 24 24"><g id="delivery-logistics"><g id="scooter-2"><path d="M4.62,20.48a2.63,2.63,0,1,1,2.62-2.63A2.63,2.63,0,0,1,4.62,20.48Zm0-3.75a1.13,1.13,0,1,0,1.12,1.12A1.12,1.12,0,0,0,4.62,16.73Z"/><path d="M19.38,20.48A2.63,2.63,0,1,1,22,17.85,2.62,2.62,0,0,1,19.38,20.48Zm0-3.75a1.13,1.13,0,1,0,1.12,1.12A1.12,1.12,0,0,0,19.38,16.73Z"/><path d="M15.08,18.6h-10a.75.75,0,0,1,0-1.5h9.57l2.73-5.38a.74.74,0,0,1,1-.33.76.76,0,0,1,.33,1l-2.94,5.79A.76.76,0,0,1,15.08,18.6Z"/><path d="M19.22,18.08a.76.76,0,0,1-.73-.59L15.71,5h-1.9a.75.75,0,1,1,0-1.5h2.51a.75.75,0,0,1,.73.58L20,17.16a.75.75,0,0,1-.56.9Z"/><path d="M8.77,18.6H8.71A.75.75,0,0,1,8,17.8a3,3,0,0,0-2.7-3.31.76.76,0,0,1-.67-.83A.75.75,0,0,1,5.47,13a4.42,4.42,0,0,1,4.05,4.92A.75.75,0,0,1,8.77,18.6Z"/></g></g></svg>