<svg xmlns="http://www.w3.org/2000/svg" viewBox="0 0 24 24"><g id="delivery-logistics"><path id="ship" d="M20.5,11.52l-.75-.3V7.79a3.55,3.55,0,0,0-3.54-3.54h-1V3.15a1.9,1.9,0,0,0-1.9-1.9h-2.7a1.9,1.9,0,0,0-1.9,1.9v1.1h-1A3.55,3.55,0,0,0,4.25,7.79v3.43l-.75.3a3.05,3.05,0,0,0-1.92,2.85A8.39,8.39,0,0,0,10,22.75H14a8.39,8.39,0,0,0,8.38-8.38A3.05,3.05,0,0,0,20.5,11.52ZM10.25,3.15a.4.4,0,0,1,.4-.4h2.7a.4.4,0,0,1,.4.4v1.1h-3.5ZM5.75,7.79a2,2,0,0,1,2-2h8.42a2,2,0,0,1,2,2v2.83l-4.8-1.94a3.93,3.93,0,0,0-2.9,0l-4.8,1.94ZM14,21.25H10a6.89,6.89,0,0,1-6.88-6.88,1.56,1.56,0,0,1,1-1.46l7.05-2.84a2.41,2.41,0,0,1,1.78,0l7.05,2.84a1.56,1.56,0,0,1,1,1.46A6.89,6.89,0,0,1,14,21.25Z"/></g></svg>