<svg xmlns="http://www.w3.org/2000/svg" viewBox="0 0 24 24"><g id="delivery-logistics"><path id="trailer" d="M9.78,11.5V9.12A1.43,1.43,0,0,0,8.36,7.69H5.77A1.42,1.42,0,0,0,4.35,9.12V11.5a1.42,1.42,0,0,0,1.42,1.42H8.36A1.43,1.43,0,0,0,9.78,11.5Zm-1.5-.08H5.85V9.19H8.28ZM12.14,15H14a1.41,1.41,0,0,0,1.41-1.41V9.11A1.42,1.42,0,0,0,14,7.69H12.14a1.42,1.42,0,0,0-1.41,1.42v4.5A1.41,1.41,0,0,0,12.14,15Zm.09-5.83H13.9v4.33H12.23ZM20.37,16H18.45A3.33,3.33,0,0,0,19,13.42L17.67,7.1a3.37,3.37,0,0,0-3.29-2.67H5.51a3.36,3.36,0,0,0-3.33,3l-.77,6.31a3.36,3.36,0,0,0,3.33,3.76h.73a2.22,2.22,0,0,0,4.43,0H20.37a.75.75,0,0,0,0-1.5ZM7.68,18.07a.73.73,0,1,1,.73-.73A.73.73,0,0,1,7.68,18.07Zm0-3A2.23,2.23,0,0,0,6,16H4.74a1.85,1.85,0,0,1-1.39-.63,1.82,1.82,0,0,1-.45-1.45l.77-6.31A1.85,1.85,0,0,1,5.51,5.93h8.87A1.87,1.87,0,0,1,16.2,7.41l1.3,6.31A1.85,1.85,0,0,1,15.68,16H9.41A2.24,2.24,0,0,0,7.68,15.12Z"/></g></svg>