<svg xmlns="http://www.w3.org/2000/svg" viewBox="0 0 24 24"><g id="delivery-logistics"><path id="truck" d="M11.38,4H3.17A2,2,0,0,0,1.25,6v9.8a2,2,0,0,0,1.92,2H4.61a2.47,2.47,0,0,0,4.89,0h1.88a2,2,0,0,0,1.92-2V6A2,2,0,0,0,11.38,4ZM2.75,6a.49.49,0,0,1,.42-.53h8.21A.49.49,0,0,1,11.8,6v5.68h-9ZM7.05,18.5a1,1,0,1,1,1-1A1,1,0,0,1,7.05,18.5Zm4.75-2.67a.49.49,0,0,1-.42.53H9.23a2.46,2.46,0,0,0-4.36,0H3.17a.49.49,0,0,1-.42-.53V13.21H11.8ZM22.36,11,20.2,7.91a1.93,1.93,0,0,0-1.58-.84H16.23a2,2,0,0,0-2,2.07v6.65a2.06,2.06,0,0,0,1.1,1.85,2.47,2.47,0,0,0,4.91.22h.52a2,2,0,0,0,2-2.07V12.22A2.17,2.17,0,0,0,22.36,11ZM17.83,18.5a1,1,0,1,1,1-1A1,1,0,0,1,17.83,18.5Zm3.42-2.71a.53.53,0,0,1-.46.57H20a2.46,2.46,0,0,0-4.18-.29.68.68,0,0,1-.07-.28V9.14a.54.54,0,0,1,.47-.57h2.39a.43.43,0,0,1,.35.2l2.17,3.07a.7.7,0,0,1,.11.38Z"/></g></svg>