<svg xmlns="http://www.w3.org/2000/svg" viewBox="0 0 24 24"><g id="finance"><path id="avalanche-_avax_" data-name="avalanche-(avax)" d="M12,22.75A10.75,10.75,0,1,1,22.75,12,10.76,10.76,0,0,1,12,22.75Zm0-20A9.25,9.25,0,1,0,21.25,12,9.26,9.26,0,0,0,12,2.75Zm5.4,15.41H13.93a1.39,1.39,0,0,1-1.2-2.08l1.74-3a1.43,1.43,0,0,1,2.4,0l1.73,3a1.39,1.39,0,0,1-1.2,2.08Zm-3.27-1.5H17.2L15.67,14Zm-5,1.26H6.38a1.16,1.16,0,0,1-1-1.74l5.57-9.64a1.44,1.44,0,0,1,2.41,0L14.54,8.6a2.86,2.86,0,0,1,0,2.83l-2.93,5.08A2.86,2.86,0,0,1,9.15,17.92ZM7,16.42H9.15a1.34,1.34,0,0,0,1.16-.66l2.93-5.08a1.32,1.32,0,0,0,0-1.33l-1.1-1.9Z"/></g></svg>