<svg xmlns="http://www.w3.org/2000/svg" viewBox="0 0 24 25"><g id="finance"><path id="bank" d="M18.36,20.4H16.83a1.63,1.63,0,0,1-1.62-1.63V10.61h-.83v8.16a1.62,1.62,0,0,1-1.62,1.63H11.24a1.62,1.62,0,0,1-1.62-1.63V10.61H8.67v8.16A1.63,1.63,0,0,1,7,20.4H5.52A1.62,1.62,0,0,1,3.9,18.77V10.61H3.41A2.1,2.1,0,0,1,1.32,9.16a1.79,1.79,0,0,1,.86-2L9.91,2.34a4,4,0,0,1,4.18,0l7.73,4.77h0a1.79,1.79,0,0,1,.86,2.05,2.1,2.1,0,0,1-2.09,1.45H20v8.16A1.63,1.63,0,0,1,18.36,20.4ZM13.63,9.11H16a.74.74,0,0,1,.75.75v8.91a.13.13,0,0,0,.12.13h1.53a.12.12,0,0,0,.12-.13V9.86a.75.75,0,0,1,.75-.75h1.36c.38,0,.6-.18.65-.36s0-.26-.21-.37L13.3,3.62a2.44,2.44,0,0,0-2.6,0L3,8.38c-.18.11-.25.23-.21.37s.27.36.65.36H4.65a.75.75,0,0,1,.75.75v8.91a.12.12,0,0,0,.12.13H7a.13.13,0,0,0,.13-.13V9.86a.74.74,0,0,1,.75-.75h2.45a.75.75,0,0,1,.75.75v8.91a.12.12,0,0,0,.12.13h1.52a.12.12,0,0,0,.12-.13V9.86A.75.75,0,0,1,13.63,9.11ZM22,22.52a.75.75,0,0,0-.75-.75H2.39a.75.75,0,0,0,0,1.5H21.24A.76.76,0,0,0,22,22.52Z"/></g></svg>