<svg xmlns="http://www.w3.org/2000/svg" viewBox="0 0 24 24"><g id="finance"><path id="binance-usd-_busd_" data-name="binance-usd-(busd)" d="M12.33,22.32a1.57,1.57,0,0,1-1.12-.46L10,20.59a1.56,1.56,0,0,1,0-2.23l8.58-8.58a1.61,1.61,0,0,1,2.23,0L22,11a1.59,1.59,0,0,1,0,2.24l-8.58,8.58A1.57,1.57,0,0,1,12.33,22.32Zm7.31-11.51a.05.05,0,0,0-.05,0L11,19.42a.08.08,0,0,0,0,.11l1.26,1.27a.09.09,0,0,0,.12,0L21,12.22a.09.09,0,0,0,0-.12L19.7,10.84A.06.06,0,0,0,19.64,10.81ZM8.43,18.42A1.58,1.58,0,0,1,7.31,18L6.05,16.69a1.57,1.57,0,0,1,0-2.24l8.58-8.58a1.63,1.63,0,0,1,2.23,0l1.27,1.27a1.57,1.57,0,0,1,.46,1.11,1.54,1.54,0,0,1-.46,1.12L9.55,18A1.59,1.59,0,0,1,8.43,18.42ZM15.75,6.91l-.06,0L7.11,15.51a.09.09,0,0,0,0,.12l1.26,1.26a.09.09,0,0,0,.12,0l8.58-8.58V8.2L15.8,6.93Zm-7.33,3.7a1.54,1.54,0,0,1-1.11-.46L6,8.89A1.6,1.6,0,0,1,6,6.65L10.72,2A1.62,1.62,0,0,1,13,2l1.26,1.26a1.58,1.58,0,0,1,0,2.24L9.54,10.15A1.55,1.55,0,0,1,8.42,10.61ZM11.84,3l-.06,0L7.1,7.71a.09.09,0,0,0,0,.12L8.37,9.09a.08.08,0,0,0,.11,0l4.68-4.68a.07.07,0,0,0,0-.12L11.9,3ZM4.53,14.51a1.57,1.57,0,0,1-1.12-.46L2.15,12.79a1.58,1.58,0,0,1,0-2.24L3.41,9.29a1.57,1.57,0,0,1,2.23,0l1.27,1.26a1.6,1.6,0,0,1,0,2.24L5.65,14.05A1.58,1.58,0,0,1,4.53,14.51Zm-.06-4.16L3.21,11.61a.07.07,0,0,0,0,.12L4.47,13a.09.09,0,0,0,.12,0l1.26-1.26a.09.09,0,0,0,0-.12L4.58,10.35A.08.08,0,0,0,4.47,10.35Z"/></g></svg>