<svg xmlns="http://www.w3.org/2000/svg" viewBox="0 0 24 25"><g id="finance"><path id="bitcoin" d="M12,23.25A10.75,10.75,0,1,1,22.75,12.5,10.76,10.76,0,0,1,12,23.25Zm0-20a9.25,9.25,0,1,0,9.25,9.25A9.26,9.26,0,0,0,12,3.25ZM16.42,12a2.83,2.83,0,0,0,.48-1.57v-.16A2.83,2.83,0,0,0,14.07,7.4h-.84V6.09a.75.75,0,0,0-1.5,0V7.37l-1.27,0V6.05a.75.75,0,0,0-1.5,0V7.34l-2.4,0h0a.75.75,0,0,0-.75.74.76.76,0,0,0,.74.76H7.83v2.91H6.55a.75.75,0,0,0,0,1.5H7.83v2.83H6.55a.75.75,0,0,0,0,1.5H9v1.35a.75.75,0,0,0,1.5,0V17.56h1.27V19a.75.75,0,0,0,1.5,0V17.56h2.06A2.92,2.92,0,0,0,16.42,12ZM9.33,8.84l4.73.06a1.34,1.34,0,0,1,1.34,1.33v.16a1.35,1.35,0,0,1-1.34,1.34H9.33Zm6,7.22h-6V13.23h6a1.42,1.42,0,0,1,0,2.83Z"/></g></svg>