<svg xmlns="http://www.w3.org/2000/svg" viewBox="0 0 24 25"><g id="finance"><path id="calculator" d="M16.15,23.43H7.85a6.61,6.61,0,0,1-6.6-6.6V8.53a6.61,6.61,0,0,1,6.6-6.6h8.3a6.61,6.61,0,0,1,6.6,6.6v8.3A6.61,6.61,0,0,1,16.15,23.43Zm-8.3-20a5.11,5.11,0,0,0-5.1,5.1v8.3a5.11,5.11,0,0,0,5.1,5.1h8.3a5.11,5.11,0,0,0,5.1-5.1V8.53a5.11,5.11,0,0,0-5.1-5.1Zm8.46,8.05H7.62A2.77,2.77,0,0,1,4.86,8.71V8.08A2.77,2.77,0,0,1,7.62,5.31h8.69a2.77,2.77,0,0,1,2.77,2.77v.63A2.77,2.77,0,0,1,16.31,11.48ZM7.62,6.81A1.26,1.26,0,0,0,6.36,8.08v.63A1.26,1.26,0,0,0,7.62,10h8.69a1.27,1.27,0,0,0,1.27-1.27V8.08a1.27,1.27,0,0,0-1.27-1.27Zm-.1,6.53a1,1,0,1,0,0,1.93,1,1,0,1,0,0-1.93Zm5.23,0a1,1,0,1,0,1,1A1,1,0,0,0,12.75,13.34ZM7.52,17a1,1,0,1,0,1,1A1,1,0,0,0,7.52,17Zm5.23,0a1,1,0,1,0,1,1A1,1,0,0,0,12.75,17Zm5.18,1.32V14a.75.75,0,0,0-1.5,0v4.35a.75.75,0,0,0,1.5,0Z"/></g></svg>