<svg xmlns="http://www.w3.org/2000/svg" viewBox="0 0 24 25"><g id="finance"><path id="credit-cart" d="M18.73,5H5.27a4,4,0,0,0-4,4v8.26a4,4,0,0,0,4,4H18.73a4,4,0,0,0,4-4V9A4,4,0,0,0,18.73,5Zm-16,5.23h18.5v2.17H2.75ZM5.27,6.46H18.73a2.52,2.52,0,0,1,2.49,2.23H2.78A2.52,2.52,0,0,1,5.27,6.46Zm13.46,13.3H5.27a2.52,2.52,0,0,1-2.52-2.52V13.86h18.5v3.38A2.52,2.52,0,0,1,18.73,19.76Zm-4.64-2.17a.76.76,0,0,1-.75.75H11.85a.75.75,0,1,1,0-1.5h1.49A.76.76,0,0,1,14.09,17.59Zm6,0a.76.76,0,0,1-.75.75H15.8a.75.75,0,0,1,0-1.5h3.55A.76.76,0,0,1,20.1,17.59Z"/></g></svg>