<svg xmlns="http://www.w3.org/2000/svg" viewBox="0 0 24 25"><g id="finance"><path id="dash" d="M12,23.25A10.75,10.75,0,1,1,22.75,12.5,10.76,10.76,0,0,1,12,23.25Zm0-20a9.25,9.25,0,1,0,9.25,9.25A9.26,9.26,0,0,0,12,3.25Zm6,10.44h-.81a4.94,4.94,0,0,0,.08-.87v-.45a5.69,5.69,0,0,0-.13-1.18H18a.75.75,0,0,0,0-1.5H16.61a5.64,5.64,0,0,0-4.94-2.95H7.48a.76.76,0,0,0-.75.75v2.2H6a.75.75,0,0,0,0,1.5h.75v2.5H6a.75.75,0,0,0,0,1.5h.75v2.32a.76.76,0,0,0,.75.75h4.38a5.44,5.44,0,0,0,4.88-3.07H18a.75.75,0,0,0,0-1.5ZM8.23,8.24h3.44a4.07,4.07,0,0,1,3.1,1.45H8.23Zm0,2.95H15.6a4.11,4.11,0,0,1,.19,1.18v.45a4.14,4.14,0,0,1-.1.87H8.23Zm3.63,5.57H8.23V15.19H15A3.94,3.94,0,0,1,11.86,16.76Z"/></g></svg>