<svg xmlns="http://www.w3.org/2000/svg" viewBox="0 0 24 25"><g id="finance"><path id="dollar" d="M15.15,12.35a4.79,4.79,0,0,0-1.24-.62c-.35-.12-.74-.23-1.15-.34l0-2.72a1.23,1.23,0,0,1,.36.19,2.92,2.92,0,0,1,.7.94,2.75,2.75,0,0,0,.41.61.81.81,0,0,0,.57.18.88.88,0,0,0,.68-.3,1,1,0,0,0,.27-.7,1.86,1.86,0,0,0-.22-.86,2.54,2.54,0,0,0-.69-.85,3.47,3.47,0,0,0-1.19-.65A4.39,4.39,0,0,0,12.79,7v-.5a.75.75,0,0,0-.75-.76h0a.74.74,0,0,0-.75.74V7a5.24,5.24,0,0,0-1.45.31A3,3,0,0,0,8.45,8.41,2.62,2.62,0,0,0,8,10a2.55,2.55,0,0,0,.45,1.54,3,3,0,0,0,1.23,1,9.08,9.08,0,0,0,1.6.53l0,3.31a2.09,2.09,0,0,1-.4-.13,1.8,1.8,0,0,1-.67-.57,5.12,5.12,0,0,1-.44-.85,1.68,1.68,0,0,0-.4-.65.84.84,0,0,0-.58-.21.9.9,0,0,0-.69.28.89.89,0,0,0-.28.67,2.64,2.64,0,0,0,.46,1.39A3.51,3.51,0,0,0,9.4,17.42a4.64,4.64,0,0,0,1.81.55v.49a.75.75,0,0,0,.75.76h0a.74.74,0,0,0,.75-.74V18a5.32,5.32,0,0,0,1.57-.37,3.33,3.33,0,0,0,1.46-1.21,3.16,3.16,0,0,0,.5-1.74A2.94,2.94,0,0,0,16,13.27,2.53,2.53,0,0,0,15.15,12.35ZM11.24,11a4.09,4.09,0,0,1-.62-.26,1.76,1.76,0,0,1-.48-.4A1,1,0,0,1,10,9.77a1.06,1.06,0,0,1,.51-.88,2,2,0,0,1,.8-.3l0,2.4Zm2.27,5a2.27,2.27,0,0,1-.79.35l0-2.89.21.06a2,2,0,0,1,.83.5,1.17,1.17,0,0,1,.33.86A1.35,1.35,0,0,1,13.51,16ZM12,1.75A10.75,10.75,0,1,0,22.75,12.5,10.76,10.76,0,0,0,12,1.75Zm0,20a9.25,9.25,0,1,1,9.25-9.25A9.26,9.26,0,0,1,12,21.75Z"/></g></svg>