<svg xmlns="http://www.w3.org/2000/svg" viewBox="0 0 24 24">
  <g id="finance">
    <path d="M5.4,17.4H5.2a1.9,1.9,0,0,1-1.4-.9L1.5,13a1.8,1.8,0,0,1,0-2L3.8,7.5a2,2,0,0,1,1.3-.9,2,2,0,0,1,1.5.5l3.6,3.5a1.9,1.9,0,0,1,0,2.6L6.7,16.8A1.8,1.8,0,0,1,5.4,17.4ZM5.3,8.1h0c-.1,0-.2,0-.3.2L2.8,11.8a.3.3,0,0,0,0,.4L5,15.7a.4.4,0,0,0,.3.2h.3l3.6-3.6a.4.4,0,0,0,0-.5L5.6,8.2Zm13.3,9.3a1.8,1.8,0,0,1-1.3-.6l-3.5-3.6a1.9,1.9,0,0,1,0-2.6l3.5-3.5a1.9,1.9,0,0,1,1.6-.5,2,2,0,0,1,1.3.9L22.5,11a2.3,2.3,0,0,1,0,2l-2.3,3.5a1.9,1.9,0,0,1-1.4.9Zm.1-9.3h-.3l-3.6,3.5a.3.3,0,0,0,0,.4l3.6,3.7h.3s.2-.1.2-.2l2.3-3.6a.2.2,0,0,0,0-.3L19,8.3c-.1-.2-.2-.2-.3-.2Zm-6.7,8a.9.9,0,0,1,.7.3l2.9,3a.7.7,0,0,1,.1.6.5.5,0,0,1-.5.4H8.8a.5.5,0,0,1-.5-.3.6.6,0,0,1,.1-.6l2.9-3.1a.9.9,0,0,1,.7-.3h0m0-1.5h0a2.5,2.5,0,0,0-1.8.8l-2.9,3a2.4,2.4,0,0,0-.4,2.3,2.2,2.2,0,0,0,1.9,1.2h6.4a2.2,2.2,0,0,0,1.9-1.3,2,2,0,0,0-.5-2.2l-2.8-3a2.5,2.5,0,0,0-1.8-.8ZM8.9,4.3h6.3a.5.5,0,0,1,.5.4.7.7,0,0,1-.1.6l-2.9,3a1,1,0,0,1-1.4,0L8.4,5.2a.6.6,0,0,1-.1-.6.5.5,0,0,1,.5-.3h.1m0-1.5H8.8A2.2,2.2,0,0,0,6.9,4a2.4,2.4,0,0,0,.4,2.3l2.9,3a2.5,2.5,0,0,0,1.8.8h0a2.5,2.5,0,0,0,1.8-.8l2.8-3h0a2,2,0,0,0,.5-2.2,2.2,2.2,0,0,0-1.9-1.3Z"/>
  </g>
</svg>
