<svg xmlns="http://www.w3.org/2000/svg" viewBox="0 0 24 25"><g id="finance"><path id="euro" d="M12,1.75A10.75,10.75,0,1,0,22.75,12.5,10.76,10.76,0,0,0,12,1.75Zm0,20a9.25,9.25,0,1,1,9.25-9.25A9.26,9.26,0,0,1,12,21.75Zm4.47-6.59a.78.78,0,0,1,.2.44,1.43,1.43,0,0,1-.57,1.13,4,4,0,0,1-1.37.93,5.1,5.1,0,0,1-2,.35,6.59,6.59,0,0,1-1.53-.16,4.1,4.1,0,0,1-1.26-.5,4.29,4.29,0,0,1-1-.89,5.36,5.36,0,0,1-.72-1.12,6.78,6.78,0,0,1-.3-.79H6.56a.78.78,0,0,1,0-1.55h1.1c0-.16,0-.32,0-.49s0-.34,0-.51H6.56a.78.78,0,0,1,0-1.55H8A2.1,2.1,0,0,0,8,10.21,4.83,4.83,0,0,1,9.09,8.47a4.52,4.52,0,0,1,1.63-1.1,5.16,5.16,0,0,1,2-.38A5.07,5.07,0,0,1,15,7.5c.55.29,1.23.74,1.28,1.43a1,1,0,0,1-.4.85.75.75,0,0,1-.24.15.79.79,0,0,1-.62-.07c-.36-.19-.58-.54-.91-.76a2.36,2.36,0,0,0-1.4-.4,2.55,2.55,0,0,0-2.12,1,3.12,3.12,0,0,0-.41.74h3.94a.78.78,0,1,1,0,1.55H9.86c0,.19,0,.38,0,.59s0,.27,0,.41h3.49a.78.78,0,0,1,0,1.55h-3.2a.61.61,0,0,0,0,.11,2.57,2.57,0,0,0,1,1.23,2.71,2.71,0,0,0,1.49.41,2.64,2.64,0,0,0,1.58-.47c.44-.31.75-.95,1.33-1A1.09,1.09,0,0,1,16.47,15.16Z"/></g></svg>