<svg xmlns="http://www.w3.org/2000/svg" viewBox="0 0 24 25"><g id="finance"><g id="finance-2" data-name="finance"><path id="financial-schedule" d="M16,1.75H8a6.72,6.72,0,0,0-6.74,6.7h0v8.08A6.72,6.72,0,0,0,8,23.25h8.12a6.73,6.73,0,0,0,6.71-6.71V8.46a6.72,6.72,0,0,0-6.73-6.71Zm5.21,14.79A5.21,5.21,0,0,1,16,21.75H8a5.21,5.21,0,0,1-5.21-5.21V8.46A5.22,5.22,0,0,1,8,3.25h8.11a5.22,5.22,0,0,1,5.21,5.21Zm-4.77-6H14.63V7.91A1.94,1.94,0,0,0,12.69,6H11.3A1.94,1.94,0,0,0,9.36,7.91v4.31H7.49a1.94,1.94,0,0,0-1.94,1.94h0v3.36a.76.76,0,0,0,.75.75H17.67a.77.77,0,0,0,.75-.75V12.46a1.92,1.92,0,0,0-1.94-1.92ZM7.05,14.16a.44.44,0,0,1,.44-.44H9.36v3H7.05ZM10.86,13V7.91a.44.44,0,0,1,.44-.44h1.39a.44.44,0,0,1,.44.44v8.86H10.86ZM17,16.77H14.63V12h1.85a.44.44,0,0,1,.44.44h0Z"/></g></g></svg>