<svg xmlns="http://www.w3.org/2000/svg" viewBox="0 0 24 24"><g id="finance"><path id="nexo" d="M21.37,4.49,18.5,2.76a2.84,2.84,0,0,0-2.9,0h0L12,4.8,8.42,2.73a2.84,2.84,0,0,0-2.9,0L2.65,4.49A2.87,2.87,0,0,0,1.28,6.93v9.71a2.85,2.85,0,0,0,1.39,2.45l2.79,1.66a2.82,2.82,0,0,0,1.46.4,2.88,2.88,0,0,0,1.42-.38L12,18.65l3.67,2.12a2.92,2.92,0,0,0,1.43.38,2.84,2.84,0,0,0,1.46-.4l2.79-1.66a2.86,2.86,0,0,0,1.39-2.45V6.93A2.88,2.88,0,0,0,21.37,4.49Zm-13.78,15a1.35,1.35,0,0,1-1.36,0L3.44,17.8a1.34,1.34,0,0,1-.66-1.16V6.93a1.35,1.35,0,0,1,.65-1.15L6.3,4.05A1.35,1.35,0,0,1,7.67,4l2.84,1.64h0l5.65,3.26a.16.16,0,0,1,.08.14v4.17a.16.16,0,0,1-.08.15.15.15,0,0,1-.17,0L8.84,8.81a1.66,1.66,0,0,0-2.56,1.4v4.18a1.67,1.67,0,0,0,.84,1.44l3.39,2Zm13.66-2.83a1.34,1.34,0,0,1-.66,1.16L17.8,19.46a1.37,1.37,0,0,1-1.37,0L7.87,14.53a.15.15,0,0,1-.09-.14V10.21a.15.15,0,0,1,.09-.14.11.11,0,0,1,.08,0,.16.16,0,0,1,.09,0l7.14,4.58a1.67,1.67,0,0,0,2.56-1.41V9.07a1.66,1.66,0,0,0-.83-1.44l-3.4-2L16.35,4h0a1.36,1.36,0,0,1,1.38,0L20.6,5.78a1.35,1.35,0,0,1,.65,1.15Z"/></g></svg>