<svg xmlns="http://www.w3.org/2000/svg" viewBox="0 0 24 24"><g id="finance"><path id="ocean" d="M13.5,4.25A1.5,1.5,0,1,1,12,2.75,1.5,1.5,0,0,1,13.5,4.25Zm-1.5,3a1.5,1.5,0,1,0,1.5,1.5A1.5,1.5,0,0,0,12,7.26ZM7.75,5a1.5,1.5,0,1,0,1.5,1.5A1.5,1.5,0,0,0,7.75,5Zm8.5,0a1.5,1.5,0,1,0,1.5,1.5A1.5,1.5,0,0,0,16.25,5Zm0,4.25a1.5,1.5,0,1,0,1.5,1.5A1.5,1.5,0,0,0,16.25,9.26Zm4.25-2A1.5,1.5,0,1,0,22,8.75,1.5,1.5,0,0,0,20.5,7.25Zm-8.5,4a1.5,1.5,0,1,0,1.5,1.5A1.5,1.5,0,0,0,12,11.25Zm-4.25-2a1.5,1.5,0,1,0,1.5,1.5A1.5,1.5,0,0,0,7.75,9.26Zm-4.25-2A1.5,1.5,0,1,0,5,8.75,1.5,1.5,0,0,0,3.5,7.25Zm0,4.5a1,1,0,1,0,1,1A1,1,0,0,0,3.5,11.75Zm4.25,2a1,1,0,1,0,1,1A1,1,0,0,0,7.75,13.76Zm0,0a1,1,0,1,0,1,1A1,1,0,0,0,7.75,13.76Zm4.25,2a1,1,0,1,0,1,1A1,1,0,0,0,12,15.75Zm0,0a1,1,0,1,0,1,1A1,1,0,0,0,12,15.75Zm4.25-2a1,1,0,1,0,1,1A1,1,0,0,0,16.25,13.76Zm0,0a1,1,0,1,0,1,1A1,1,0,0,0,16.25,13.76Zm4.25-2a1,1,0,1,0,1,1A1,1,0,0,0,20.5,11.75Zm0,0a1,1,0,1,0,1,1A1,1,0,0,0,20.5,11.75Zm-17,0a1,1,0,1,0,1,1A1,1,0,0,0,3.5,11.75ZM20.5,15a.75.75,0,1,0,.75.75A.76.76,0,0,0,20.5,15Zm-4.25,2.26A.75.75,0,1,0,17,18,.75.75,0,0,0,16.25,17.26ZM12,19.5a.75.75,0,1,0,.75.75A.76.76,0,0,0,12,19.5ZM7.75,17.25A.75.75,0,1,0,8.5,18,.76.76,0,0,0,7.75,17.25ZM3.5,15a.75.75,0,1,0,.75.75A.76.76,0,0,0,3.5,15Z"/></g></svg>