<svg xmlns="http://www.w3.org/2000/svg" viewBox="0 0 24 25"><g id="finance"><path id="office-bag" d="M19.48,6.41H16A2.53,2.53,0,0,0,13.52,4H11.15a2.52,2.52,0,0,0-2.51,2.4H4.52A3.28,3.28,0,0,0,1.25,9.68v4.48a2.74,2.74,0,0,0,1,2.11v2.89A2.75,2.75,0,0,0,5,21.91H19a2.75,2.75,0,0,0,2.75-2.75V16.27a2.74,2.74,0,0,0,1-2.11V9.68A3.28,3.28,0,0,0,19.48,6.41Zm-8.33-.9h2.37a1,1,0,0,1,1,.9H10.15A1,1,0,0,1,11.15,5.51ZM2.75,9.68A1.77,1.77,0,0,1,4.52,7.91h15a1.77,1.77,0,0,1,1.77,1.77v4.48a1.21,1.21,0,0,1-.69,1.1l-.16.07a1.06,1.06,0,0,1-.4.08H4a1.06,1.06,0,0,1-.4-.08l-.16-.07a1.21,1.21,0,0,1-.69-1.1Zm17.5,7.22v2.26A1.25,1.25,0,0,1,19,20.41H5a1.25,1.25,0,0,1-1.25-1.25V16.9h16.5ZM10.17,14.19a.75.75,0,0,1,.75-.75h2.83a.75.75,0,0,1,0,1.5H10.92A.76.76,0,0,1,10.17,14.19Z"/></g></svg>