<svg xmlns="http://www.w3.org/2000/svg" viewBox="0 0 24 24"><g id="finance"><path id="paypal" d="M11.18,22.75H8A1.57,1.57,0,0,1,6.49,20.9l0-.15H5.06a1.65,1.65,0,0,1-1.63-1.92L5.81,4.37A3.71,3.71,0,0,1,9.48,1.25H14.1a5.64,5.64,0,0,1,5.63,5.63V7.1a4.73,4.73,0,0,1,2,3.82,6.16,6.16,0,0,1-6.39,5.93H14.16a.59.59,0,0,0-.58.48l-.72,4A1.71,1.71,0,0,1,11.18,22.75ZM8.09,20.47l-.13.7.07.08h3.15a.2.2,0,0,0,.2-.17l.73-4a2.08,2.08,0,0,1,2.05-1.71h1.18A4.65,4.65,0,0,0,20.23,11a3.17,3.17,0,0,0-.79-2.11,6.82,6.82,0,0,1-6.53,4.9h-3a.18.18,0,0,0-.19.15l-.89,5.4A1.67,1.67,0,0,1,8.09,20.47ZM9.48,2.75A2.21,2.21,0,0,0,7.29,4.61L4.91,19.07a.14.14,0,0,0,.15.18H7.15a.2.2,0,0,0,.2-.17l.89-5.4a1.67,1.67,0,0,1,1.67-1.41h3A5.33,5.33,0,0,0,18.23,7a4.15,4.15,0,0,0-4.13-4.2Z"/></g></svg>