<svg xmlns="http://www.w3.org/2000/svg" viewBox="0 0 24 25"><g id="finance"><path id="price-tag" d="M12.12,22.51A5.23,5.23,0,0,1,8.4,21L3.84,16.4a5.67,5.67,0,0,1-1.67-4.19l.14-5.08A4.59,4.59,0,0,1,6.75,2.66l5-.17A5.65,5.65,0,0,1,16,4.16L20.6,8.77a5.26,5.26,0,0,1,0,7.43L15.83,21A5.22,5.22,0,0,1,12.12,22.51ZM12,4h-.14l-5,.17a3.08,3.08,0,0,0-3,3h0l-.14,5.09A4.14,4.14,0,0,0,4.9,15.34l4.56,4.57a3.84,3.84,0,0,0,5.31,0l4.77-4.77a3.77,3.77,0,0,0,0-5.31L14.93,5.22A4.18,4.18,0,0,0,12,4ZM3.06,7.15h0Zm6.67,6.32a3.55,3.55,0,1,1,2.51-6.05h0a3.54,3.54,0,0,1-2.51,6.05Zm0-5.59a2.05,2.05,0,1,0,2,2.05,2,2,0,0,0-.6-1.45h0A2.05,2.05,0,0,0,9.73,7.88Zm3.4,9.4,3.95-4a.74.74,0,0,0,0-1.06.75.75,0,0,0-1.06,0l-4,4a.75.75,0,0,0,0,1.06.76.76,0,0,0,1.07,0Z"/></g></svg>