<svg xmlns="http://www.w3.org/2000/svg" viewBox="0 0 24 24"><g id="finance"><path id="theta-_theta_" data-name="theta-(theta)" d="M15.13,18.75H8.87a2.63,2.63,0,0,1-2.62-2.62V7.87A2.63,2.63,0,0,1,8.87,5.25h6.26a2.63,2.63,0,0,1,2.62,2.62v8.26A2.63,2.63,0,0,1,15.13,18.75Zm-6.26-12A1.12,1.12,0,0,0,7.75,7.87v8.26a1.12,1.12,0,0,0,1.12,1.12h6.26a1.12,1.12,0,0,0,1.12-1.12V7.87a1.12,1.12,0,0,0-1.12-1.12ZM10,10.88h4a.75.75,0,0,0,0-1.5H12.75V8.06a.75.75,0,1,0-1.5,0V9.38H10a.75.75,0,0,0,0,1.5Zm4,1.5H10a.75.75,0,0,0,0,1.5h1.26v2.06a.75.75,0,1,0,1.5,0V13.88H14a.75.75,0,0,0,0-1.5Zm2.06,10.37H7.93A6.72,6.72,0,0,1,1.22,16V8A6.72,6.72,0,0,1,7.93,1.25h8.14A6.72,6.72,0,0,1,22.78,8V16A6.72,6.72,0,0,1,16.07,22.75Zm-8.14-20A5.22,5.22,0,0,0,2.72,8V16a5.22,5.22,0,0,0,5.21,5.21h8.14A5.22,5.22,0,0,0,21.28,16V8a5.22,5.22,0,0,0-5.21-5.21Z"/></g></svg>