<svg xmlns="http://www.w3.org/2000/svg" viewBox="0 0 24 24"><g id="finance"><path id="trello" d="M14.82,14.37a2.19,2.19,0,0,1-1.57-.65,2.23,2.23,0,0,1-.67-1.57l0-4.39a2.23,2.23,0,0,1,2.22-2.24h2A2.24,2.24,0,0,1,19,7.73l0,4.38a2.24,2.24,0,0,1-2.22,2.25H14.82ZM16.73,7H14.79a.74.74,0,0,0-.73.74l0,4.38a.74.74,0,0,0,.22.52.84.84,0,0,0,.52.21h1.93a.74.74,0,0,0,.73-.74l0-4.38a.73.73,0,0,0-.22-.52A.71.71,0,0,0,16.73,7ZM8.56,18.66H7.33A2.62,2.62,0,0,1,4.71,16V8.17A2.62,2.62,0,0,1,7.33,5.55H8.56a2.62,2.62,0,0,1,2.62,2.62V16A2.62,2.62,0,0,1,8.56,18.66ZM7.33,7.05A1.12,1.12,0,0,0,6.21,8.17V16a1.12,1.12,0,0,0,1.12,1.12H8.56A1.12,1.12,0,0,0,9.68,16V8.17A1.12,1.12,0,0,0,8.56,7.05ZM15.64,22.6H8.34a7,7,0,0,1-7-7V8.26a7,7,0,0,1,7-7h7.3a7,7,0,0,1,7,7v7.3A7.05,7.05,0,0,1,15.64,22.6ZM8.34,2.73A5.54,5.54,0,0,0,2.81,8.26v7.3A5.54,5.54,0,0,0,8.34,21.1h7.3a5.54,5.54,0,0,0,5.54-5.54V8.26a5.54,5.54,0,0,0-5.54-5.53Z"/></g></svg>