<svg xmlns="http://www.w3.org/2000/svg" viewBox="0 0 24 25"><g id="finance"><path id="two-credit-cart" d="M19.41,4.44H8.32A3.34,3.34,0,0,0,5,7.67h-.4A3.35,3.35,0,0,0,1.25,11v6.21a3.35,3.35,0,0,0,3.34,3.34H15.68A3.34,3.34,0,0,0,19,17.33h.4A3.35,3.35,0,0,0,22.75,14V7.78A3.35,3.35,0,0,0,19.41,4.44ZM4.59,9.17H15.68A1.85,1.85,0,0,1,17.52,11v1.48H2.75V11A1.84,1.84,0,0,1,4.59,9.17Zm12.93,8a1.84,1.84,0,0,1-1.84,1.84H4.59a1.84,1.84,0,0,1-1.84-1.84V14H17.52v3.23ZM21.25,14a1.84,1.84,0,0,1-1.84,1.84H19V11a3.35,3.35,0,0,0-3.34-3.34H6.48A1.85,1.85,0,0,1,8.32,5.94H19.41a1.84,1.84,0,0,1,1.84,1.84Zm-4.8,2.07a.75.75,0,0,1-.75.75H14.49a.75.75,0,1,1,0-1.5H15.7A.75.75,0,0,1,16.45,16.06Zm-8.25,0a.75.75,0,0,1-.75.75H4.57a.75.75,0,0,1,0-1.5H7.45A.75.75,0,0,1,8.2,16.06Z"/></g></svg>