<svg xmlns="http://www.w3.org/2000/svg" viewBox="0 0 24 25"><g id="finance"><g id="finance-2" data-name="finance"><path d="M5.73,10.33a.75.75,0,0,0,0,1.5h6.16a.75.75,0,0,0,0-1.5Z"/><path d="M21.07,11.35H18.94a2.8,2.8,0,0,0,0,5.6h2.13a1.68,1.68,0,0,0,1.68-1.68V13A1.68,1.68,0,0,0,21.07,11.35Zm.18,3.92a.18.18,0,0,1-.18.18H18.94a1.3,1.3,0,0,1,0-2.6h2.13a.18.18,0,0,1,.18.18Z"/><path d="M20.1,18.3h0a.76.76,0,0,0-.93.5,3,3,0,0,1-2.83,2.1H5.71a3,3,0,0,1-3-3V10.45a.17.17,0,0,0,0-.1,3,3,0,0,1,3-2.95h10.6a2.94,2.94,0,0,1,2.86,2.22.75.75,0,0,0,1.46-.37,4.46,4.46,0,0,0-4.3-3.35h-.64a4.1,4.1,0,0,0-4-3.3H5.39A4.15,4.15,0,0,0,1.25,6.73v11.2A4.46,4.46,0,0,0,5.7,22.4H16.33a4.43,4.43,0,0,0,4.26-3.16A.75.75,0,0,0,20.1,18.3ZM2.75,6.73A2.65,2.65,0,0,1,5.39,4.1h6.26a2.61,2.61,0,0,1,2.5,1.8H5.71c-2.5,0-3,1.22-3,1.22Z"/></g></g></svg>