<svg xmlns="http://www.w3.org/2000/svg" viewBox="0 0 24 24"><g id="finance"><path id="wanchain-_wan_" data-name="wanchain-(wan)" d="M18.11,20.81H12.3a1.3,1.3,0,0,1-1.09-.58l-3-4.32a1.33,1.33,0,0,1-.08-1.37,1.35,1.35,0,0,1,1.17-.72l4.15,0L8.23,4.89a1.33,1.33,0,0,1,1.15-2h5.46A2.24,2.24,0,0,1,16.77,4l5.8,10a1.34,1.34,0,0,1-.06,1.43L19.2,20.24A1.33,1.33,0,0,1,18.11,20.81Zm-5.72-1.5H18l3.2-4.63L15.47,4.75a.72.72,0,0,0-.63-.37H9.68l5.24,8.92a1.33,1.33,0,0,1-1.14,2l-4.13,0Zm-6.81.78a1.44,1.44,0,0,1-1.17-.6l-2.88-4a1.46,1.46,0,0,1,0-1.67L4.82,9A1.47,1.47,0,0,1,6,8.36h4.64A1.53,1.53,0,0,1,12,9.12a1.5,1.5,0,0,1,0,1.52L6.83,19.37a1.43,1.43,0,0,1-1.18.71ZM6,9.86,2.74,14.7l2.88,3.91,5.06-8.73Z"/></g></svg>