<svg xmlns="http://www.w3.org/2000/svg" viewBox="0 0 24 24"><g id="software"><g id="android"><path d="M17,11.07v5.86A2.08,2.08,0,0,1,14.92,19H9.08A2.08,2.08,0,0,1,7,16.93V11.07A2.08,2.08,0,0,1,9.08,9h5.84A2.08,2.08,0,0,1,17,11.07ZM5,15.66v-4a1,1,0,0,0-2,0v4a1,1,0,0,0,2,0ZM9.08,19h0v2a1,1,0,0,0,2,0V19Zm5.84,0H13v2a1,1,0,0,0,2,0V19ZM21,15.66v-4a1,1,0,1,0-2,0v4a1,1,0,0,0,2,0ZM13.83,7.59a1.81,1.81,0,0,0,1.84-1.72h0a3.93,3.93,0,0,0-4-3.87,3.93,3.93,0,0,0-4,3.87h0A1.81,1.81,0,0,0,9.51,7.59Z"/></g></g></svg>