<svg xmlns="http://www.w3.org/2000/svg" viewBox="0 0 24 24"><g id="software"><path id="angular" d="M11.9,8.1l2,4.18H10Zm8.65-.39-.75,8.55a3.4,3.4,0,0,1-1.67,2.62L13.6,21.54a3.42,3.42,0,0,1-3.42,0L5.64,18.88A3.41,3.41,0,0,1,4,16.26L3.23,7.71A3.37,3.37,0,0,1,5.39,4.25l5.29-2a3.47,3.47,0,0,1,2.42,0l5.29,2A3.4,3.4,0,0,1,20.55,7.71Zm-3.31,8.14L12.57,6a.69.69,0,0,0-.69-.43.73.73,0,0,0-.67.44L8.14,12.74h0L6.72,15.86a.75.75,0,0,0,.38,1,.67.67,0,0,0,.31.07.75.75,0,0,0,.68-.44l1.23-2.7H14.6l1.29,2.71a.75.75,0,1,0,1.35-.64Z"/></g></svg>