<svg xmlns="http://www.w3.org/2000/svg" viewBox="0 0 24 24"><g id="software"><g id="soft-1"><path d="M13.73,10a1.32,1.32,0,0,1-1.31,1.32H10.27V8.68h2.15A1.31,1.31,0,0,1,13.73,10Zm-1.31,2.82H10.27v2.62h2.15a1.31,1.31,0,1,0,0-2.62ZM23,10.66v2.63h0a3,3,0,0,0-3,3v1.16A3.56,3.56,0,0,1,16.42,21H7.58A3.56,3.56,0,0,1,4,17.44V16.28a3,3,0,0,0-3-3H1V10.66H1a3,3,0,0,0,3-3V6.56A3.56,3.56,0,0,1,7.58,3h8.84A3.56,3.56,0,0,1,20,6.56V7.67a3,3,0,0,0,3,3Zm-8.65,1.4a2.81,2.81,0,0,0-1.9-4.88H9.52a.74.74,0,0,0-.75.75v8.25a.74.74,0,0,0,.75.75h2.9a2.81,2.81,0,0,0,2.81-2.81A2.77,2.77,0,0,0,14.32,12.06Z"/></g></g></svg>