<svg xmlns="http://www.w3.org/2000/svg" viewBox="0 0 24 24"><g id="software"><g id="css"><path d="M18.17,2H5.83A2.5,2.5,0,0,0,3.34,4.76L4.76,18.39a2.48,2.48,0,0,0,1.79,2.14l4.76,1.37a2.49,2.49,0,0,0,1.38,0l4.78-1.37a2.51,2.51,0,0,0,1.8-2.15L20.66,4.76A2.5,2.5,0,0,0,18.17,2ZM16.29,16.05a.75.75,0,0,1-.53.64l-3.48,1a.78.78,0,0,1-.22,0,.83.83,0,0,1-.22,0L8.35,16.65a.77.77,0,0,1-.5-.52l-.5-1.77A.75.75,0,0,1,8.8,14l.39,1.38,2.88.88,2.77-.83.38-3.51H8a.76.76,0,1,1,0-1.51h7.35l.28-2.61H7.5a.76.76,0,1,1,0-1.51h9a.77.77,0,0,1,.57.25.74.74,0,0,1,.18.59Z"/></g></g></svg>