<svg xmlns="http://www.w3.org/2000/svg" viewBox="0 0 24 24"><g id="software"><path id="soft-5" d="M21.25,11.57a.93.93,0,0,1,0,1.51l-4.58,3.43L12,13.21l5.8-4.07ZM7.92,2.17a.93.93,0,0,0-1.09,0l-4.1,3a.94.94,0,0,0,0,1.52L6.2,9.14,12,5.05Zm-5.17,9.4a.93.93,0,0,0,0,1.51l4.58,3.43L12,13.21,6.2,9.14ZM13.3,14.13h0l1.94,1.36Zm4.28,3.58-.87.65-.89-.63L12,15.05,8.18,17.73l-.89.63-.87-.65L4.63,16.37V17a1.87,1.87,0,0,0,.92,1.58l5.56,3.2a1.82,1.82,0,0,0,1.83,0l5.55-3.2A1.82,1.82,0,0,0,19.4,17v-.6Zm-13-3.22h0l2.69,2Zm14.77,0h0l-2.7,2h0Zm1.86-7.78a.94.94,0,0,0,0-1.52l-4.1-3a.93.93,0,0,0-1.09,0L12,5.05l5.8,4.09Z"/></g></svg>