<svg xmlns="http://www.w3.org/2000/svg" viewBox="0 0 24 24"><g id="software"><g id="html"><path d="M18.17,2H5.83A2.5,2.5,0,0,0,3.34,4.76L4.76,18.39a2.48,2.48,0,0,0,1.79,2.14l4.76,1.37a2.49,2.49,0,0,0,1.38,0l4.78-1.37a2.51,2.51,0,0,0,1.8-2.15L20.66,4.76A2.5,2.5,0,0,0,18.17,2Zm-2,5.53H8.64l.3,3,6.73.14a.75.75,0,0,1,.73.81L16,16.16a.75.75,0,0,1-.52.65L12,17.93a.62.62,0,0,1-.23,0,.76.76,0,0,1-.21,0L8.37,17a.74.74,0,0,1-.53-.6l-.31-1.86A.75.75,0,1,1,9,14.28l.23,1.4,2.56.75,2.77-.89.27-3.41L8.25,12a.75.75,0,0,1-.73-.68L7.06,6.86A.76.76,0,0,1,7.8,6h8.4a.75.75,0,0,1,0,1.5Z"/></g></g></svg>