<svg xmlns="http://www.w3.org/2000/svg" viewBox="0 0 24 24"><g id="arrows"><path d="M12,2.06A9.93,9.93,0,0,0,9.48,21.6V19.29L9,19.24l-.71-.07-.41-.05A1.42,1.42,0,0,1,7.32,19a1.69,1.69,0,0,1-.75-.77,3.25,3.25,0,0,0-.28-.56,4.67,4.67,0,0,0-.86-1l0,0a.32.32,0,0,1,0-.46.34.34,0,0,1,.41-.08A4.91,4.91,0,0,1,7,17a3.74,3.74,0,0,1,.51.62.55.55,0,0,0,.29.17H8l.31,0L9,17.69l.67-.07a2.9,2.9,0,0,1,1.16-1.48,8.75,8.75,0,0,1-1.63-.36,4,4,0,0,1-3-4.11,3.77,3.77,0,0,1,1-2.51,5.14,5.14,0,0,1-.09-2.55.44.44,0,0,1,.54-.31A4,4,0,0,1,9.85,7.51a8.12,8.12,0,0,1,5,0A4,4,0,0,1,17,6.3a.45.45,0,0,1,.54.31,5,5,0,0,1-.06,2.44,3.77,3.77,0,0,1,1.13,2.62c0,2.19-1.39,4-4.64,4.46a2.88,2.88,0,0,1,1.34,2.44v2.8A9.93,9.93,0,0,0,12,2.06Z"/></g></svg>