<svg xmlns="http://www.w3.org/2000/svg" viewBox="0 0 24 24"><g id="software"><path id="illustrator" d="M10.44,10.23l.82,2.47H9.35ZM22.05,16a6,6,0,0,1-5.93,6L8,22a6,6,0,0,1-6-5.93L2,8A6,6,0,0,1,7.88,2L16,2a6,6,0,0,1,6,5.93Zm-8.12,0L11.25,7.92a.73.73,0,0,0-.67-.51.74.74,0,0,0-.72.44L6.27,15.93a.75.75,0,1,0,1.37.6l1-2.33h3.08l.75,2.27a.75.75,0,0,0,.71.51.67.67,0,0,0,.24,0A.75.75,0,0,0,13.93,16Zm3.55-5.23a.75.75,0,0,0-1.5,0v5.47a.75.75,0,0,0,1.5,0Zm.24-2.6a1,1,0,1,0-1,1A1,1,0,0,0,17.72,8.16Z"/></g></svg>