<svg xmlns="http://www.w3.org/2000/svg" viewBox="0 0 24 24"><g id="software"><g id="js"><path d="M18.17,2H5.83A2.5,2.5,0,0,0,3.34,4.76L4.76,18.39a2.48,2.48,0,0,0,1.79,2.14l4.76,1.37a2.49,2.49,0,0,0,1.38,0l4.78-1.37a2.51,2.51,0,0,0,1.8-2.15L20.66,4.76A2.5,2.5,0,0,0,18.17,2Zm-6.9,14.54a.77.77,0,0,1-.3.61.74.74,0,0,1-.45.15.83.83,0,0,1-.22,0l-3.11-.93a.76.76,0,0,1-.51-.94.75.75,0,0,1,.93-.51l2.15.64V7.73a.76.76,0,1,1,1.51,0ZM16.72,8.2l-2.6.41V12l2.19-.28a.74.74,0,0,1,.85.75l0,3a.75.75,0,0,1-.54.72l-3,.88a.76.76,0,0,1-.43-1.45l2.49-.72V13.36l-2.19.27a.71.71,0,0,1-.59-.18.73.73,0,0,1-.26-.56V8a.75.75,0,0,1,.64-.75l3.23-.51a.77.77,0,0,1,.87.63A.76.76,0,0,1,16.72,8.2Z"/></g></g></svg>