<svg xmlns="http://www.w3.org/2000/svg" viewBox="0 0 24 24"><g id="software"><path id="Laravel" d="M10.05,17.56v4.29a1.44,1.44,0,0,1-.5-.13L2.74,17.84A1,1,0,0,1,2.23,17V4.17l.14.1L6,6.41l.09,8.79h0l3.92,2.36m7.84-4.49V8.67L14.11,6.43a1,1,0,0,0-.13.5V10.8l3.91,2.27Zm-4.42-1.4L13,11.38v0L10.13,13l-3,1.67,2.92,1.76,5.83-3.34ZM7,6.4l.07,7.11L9.63,12.1l.5-.27v-7h0a1.17,1.17,0,0,0,0-.27h0a.82.82,0,0,0-.1-.24h0L7,5.87ZM6.55,5,9.08,3.62,6.61,2.27a1,1,0,0,0-.48-.12.91.91,0,0,0-.48.13l-1.46.81-1,.53L6.06,5.27Zm4.5,16.23.08.16,6.27-3.65a1.56,1.56,0,0,0,.2-.16,1,1,0,0,0,.29-.71V13.07L11,17ZM21.64,6.44a1,1,0,0,0-.15-.2h0a.83.83,0,0,0-.21-.16L18.39,4.39a1,1,0,0,0-.5-.13,1,1,0,0,0-.5.13L15,5.78l3.43,2,.47.27,2.77-1.64Zm-2.26,2.5-.49.3v3.24l2.39-1.39.06-.05a1,1,0,0,0,.4-.61.69.69,0,0,0,0-.2V7.53Z"/></g></svg>