<svg xmlns="http://www.w3.org/2000/svg" viewBox="0 0 24 24"><defs><style>.cls-1{isolation:isolate;}</style></defs><g id="software"><path id="pails" class="cls-1" d="M12,2A10,10,0,1,0,22,12,10,10,0,0,0,12,2Zm4.38,5.86a.61.61,0,1,1-.61.61A.61.61,0,0,1,16.38,7.86Zm-4.62-.61a.61.61,0,1,1-.61.61A.61.61,0,0,1,11.76,7.25ZM7.47,9.51a.61.61,0,0,1,.62.61.62.62,0,0,1-1.23,0A.61.61,0,0,1,7.47,9.51ZM4.83,14a.61.61,0,0,1-.61-.61.61.61,0,1,1,1.22,0A.61.61,0,0,1,4.83,14Zm7.06,2.48a.61.61,0,1,1,.61-.61A.61.61,0,0,1,11.89,16.48ZM14.21,13a.61.61,0,1,1,.61-.61A.61.61,0,0,1,14.21,13Zm2.87-1.85c-6.17-1.43-7.12,3.7-7.26,5.18a.43.43,0,0,1-.43.39H5.88a.44.44,0,0,1-.42-.56c1.38-4.82,4.46-7.45,7.78-7.37a6.92,6.92,0,0,1,4.21,1.61A.43.43,0,0,1,17.08,11.18Zm2.09.92a.61.61,0,1,1,.61-.61A.61.61,0,0,1,19.17,12.1Z"/></g></svg>