<svg xmlns="http://www.w3.org/2000/svg" viewBox="0 0 24 24"><g id="software"><path id="photoshop" d="M10.68,10a1.22,1.22,0,0,1-1.22,1.22H8.23V8.77H9.46A1.22,1.22,0,0,1,10.68,10Zm11.37,6a6,6,0,0,1-5.93,6L8,22a6,6,0,0,1-6-5.93L2,8A6,6,0,0,1,7.88,2L16,2a6,6,0,0,1,6,5.93Zm-9.87-6A2.72,2.72,0,0,0,9.46,7.27h-2A.75.75,0,0,0,6.73,8V16a.75.75,0,0,0,1.5,0V12.71H9.46A2.72,2.72,0,0,0,12.18,10Zm2.65,2.27a.48.48,0,0,1,.48-.48h1.24a.75.75,0,0,0,0-1.5H15.31a2,2,0,0,0,0,4,.49.49,0,1,1,0,1H14.08a.75.75,0,1,0,0,1.5h1.23a2,2,0,1,0,0-4A.48.48,0,0,1,14.83,12.26Z"/></g></svg>