<svg xmlns="http://www.w3.org/2000/svg" viewBox="0 0 24 24"><g id="software"><path id="slack" d="M14.46,11h0a2.15,2.15,0,0,1-2.15-2.15V4.4a2.15,2.15,0,0,1,2.15-2.15h0A2.16,2.16,0,0,1,16.62,4.4V8.88A2.16,2.16,0,0,1,14.46,11Zm-2.77,8.6V15.16A2.15,2.15,0,0,0,9.54,13h0a2.16,2.16,0,0,0-2.16,2.15v4.47a2.16,2.16,0,0,0,2.16,2.15h0A2.15,2.15,0,0,0,11.69,19.63Zm-3-12.45H4.16A2.15,2.15,0,0,0,2,9.33H2a2.15,2.15,0,0,0,2.15,2.15H8.64a2.15,2.15,0,0,0,2.15-2.15h0A2.15,2.15,0,0,0,8.64,7.18Zm11.2,5.38H15.36a2.15,2.15,0,0,0-2.15,2.15h0a2.15,2.15,0,0,0,2.15,2.15h4.48A2.15,2.15,0,0,0,22,14.71h0A2.15,2.15,0,0,0,19.84,12.56ZM2.23,14.73a1.86,1.86,0,0,0,2,2,1.94,1.94,0,0,0,1.73-2V13.35A.34.34,0,0,0,5.63,13H4.21A1.94,1.94,0,0,0,2.23,14.73ZM9.07,2a1.87,1.87,0,0,0-2,2A2,2,0,0,0,9,5.74h1.42a.34.34,0,0,0,.34-.34V4A1.94,1.94,0,0,0,9.07,2Zm5.85,20a1.87,1.87,0,0,0,2-2,2,2,0,0,0-2-1.72H13.54a.34.34,0,0,0-.34.34V20A1.94,1.94,0,0,0,14.92,22ZM21.77,9.32a1.86,1.86,0,0,0-2-2,1.94,1.94,0,0,0-1.72,2V10.7a.34.34,0,0,0,.34.34h1.41A1.94,1.94,0,0,0,21.77,9.32Z"/></g></svg>