<svg xmlns="http://www.w3.org/2000/svg" viewBox="0 0 24 24"><g id="software"><path id="soft-6" d="M19.23,11.65H16.67A1.44,1.44,0,0,1,18,10.42,1.43,1.43,0,0,1,19.23,11.65ZM22,12a10,10,0,1,1-10-10A10,10,0,0,1,22,12Zm-10.39-4A4.71,4.71,0,1,0,9,16.75a4.76,4.76,0,0,0,2.19-.54.5.5,0,1,0-.47-.89A3.65,3.65,0,0,1,9,15.75a3.72,3.72,0,1,1,2-6.84.5.5,0,0,0,.54-.84ZM9,10.4A1.64,1.64,0,1,0,10.64,12,1.63,1.63,0,0,0,9,10.4Zm6.07-.79a.5.5,0,0,0-.7-.09l-.77.6v-.2a.5.5,0,0,0-.5-.5.5.5,0,0,0-.5.5v4.45a.5.5,0,0,0,.5.5.5.5,0,0,0,.5-.5v-3L15,10.31A.5.5,0,0,0,15.07,9.61Zm1.59,3h3.13a.5.5,0,0,0,.5-.5A2.56,2.56,0,0,0,18,9.42a2.56,2.56,0,0,0-2.34,2.73A2.44,2.44,0,0,0,18,14.87h1.43a.5.5,0,0,0,.5-.5.5.5,0,0,0-.5-.5H18A1.34,1.34,0,0,1,16.66,12.65Z"/></g></svg>