<svg xmlns="http://www.w3.org/2000/svg" viewBox="0 0 24 24"><g id="software"><path id="soft-3" d="M12,2A10,10,0,1,0,22,12,10,10,0,0,0,12,2Zm3.43,14.21a.76.76,0,0,1-.62.33.75.75,0,0,1-.42-.14A6.24,6.24,0,0,0,9,15.71a.75.75,0,0,1-.53-1.4,7.73,7.73,0,0,1,6.8.86A.74.74,0,0,1,15.43,16.21Zm1.19-2.88a.74.74,0,0,1-.63.34.78.78,0,0,1-.41-.12,7.52,7.52,0,0,0-7.2-.88.74.74,0,0,1-1-.34.75.75,0,0,1,.34-1,9,9,0,0,1,8.69,1A.76.76,0,0,1,16.62,13.33Zm1.27-2.54a.73.73,0,0,1-.58.27.72.72,0,0,1-.47-.17c-4.37-3.55-10-1.26-10.07-1.23a.75.75,0,0,1-.58-1.39c.26-.11,6.52-2.67,11.6,1.46A.75.75,0,0,1,17.89,10.79Z"/></g></svg>