<svg xmlns="http://www.w3.org/2000/svg" viewBox="0 0 24 24"><g id="software"><path id="yii" d="M22,6.37A4.43,4.43,0,0,0,17.55,2L6.34,2a4.43,4.43,0,0,0-4.4,4.45L2,17.63A4.43,4.43,0,0,0,6.45,22L17.66,22a4.43,4.43,0,0,0,4.4-4.45Zm-7.3,6.46a.5.5,0,0,1-.5.5H12.69v5.34a.5.5,0,0,1-.5.5h-.85a.5.5,0,0,1-.5-.5V13.33H9.34a.5.5,0,0,1-.5-.5v-.72a.5.5,0,0,1,.5-.5H14.2a.51.51,0,0,1,.5.5Zm2.51,6.44a3.82,3.82,0,0,1-1.94-.5.5.5,0,0,1-.21-.56l.22-.71a.49.49,0,0,1,.3-.33.52.52,0,0,1,.44,0,2.42,2.42,0,0,0,1.25.36c.27,0,.88-.06.88-.62,0-.23,0-.49-.92-.84-.5-.17-2.05-.72-2.05-2.32A2.39,2.39,0,0,1,17.8,11.5a3.52,3.52,0,0,1,1.7.39.51.51,0,0,1,.22.6l-.23.69a.51.51,0,0,1-.29.3.48.48,0,0,1-.42,0,2.05,2.05,0,0,0-1-.25c-.54,0-.74.25-.74.48s.07.44,1,.8a2.55,2.55,0,0,1,2,2.39C20,18.07,19.15,19.27,17.21,19.27Z"/></g></svg>