<svg xmlns="http://www.w3.org/2000/svg" viewBox="0 0 24 24"><g id="software"><g id="soft-2"><path d="M20.41,2H5.11a1.09,1.09,0,0,0-.91.49L2.69,4.76a1.09,1.09,0,0,0-.19.6V17.83a1.09,1.09,0,0,0,1.09,1.09H5.33A1.09,1.09,0,0,1,6.42,20v.91A1.09,1.09,0,0,0,7.51,22H8.84a1.09,1.09,0,0,0,.91-.48l1.43-2.13a1.1,1.1,0,0,1,.91-.48H16a1.1,1.1,0,0,0,.77-.32l4.38-4.37a1.14,1.14,0,0,0,.32-.77V3.08A1.09,1.09,0,0,0,20.41,2ZM10.77,12.67a.74.74,0,0,1-.74.74H9.24a.74.74,0,0,1-.74-.74V7.24a.74.74,0,0,1,.74-.74H10a.74.74,0,0,1,.74.74Zm5.72,0a.75.75,0,0,1-.75.74H15a.74.74,0,0,1-.74-.74V7.27A.74.74,0,0,1,15,6.53h.79a.75.75,0,0,1,.75.74Z"/></g></g></svg>