<svg xmlns="http://www.w3.org/2000/svg" viewBox="0 0 24 24"><g id="software"><path id="xd" d="M16.17,12.72h1v2h-1a1,1,0,0,1,0-2ZM22.05,16a6,6,0,0,1-5.93,6L8,22a6,6,0,0,1-6-5.93L2,8A6,6,0,0,1,7.88,2L16,2a6,6,0,0,1,6,5.93ZM9.77,12l2.36-3A.75.75,0,0,0,10.94,8L8.82,10.75,6.7,8a.75.75,0,0,0-1.18.92l2.35,3L5.52,15a.75.75,0,0,0,.59,1.21.75.75,0,0,0,.59-.29L8.82,13.2l2.12,2.73a.76.76,0,0,0,.6.29.74.74,0,0,0,.46-.16.76.76,0,0,0,.13-1Zm8.9-3.49a.75.75,0,0,0-1.5,0v2.74h-1a2.5,2.5,0,0,0,0,5h1.75a.75.75,0,0,0,.75-.75v-7Z"/></g></svg>