<svg xmlns="http://www.w3.org/2000/svg" viewBox="0 0 24 24"><g id="finance"><path id="bill" d="M21,8.52v.56a3,3,0,0,1-3-2.92h1A2.22,2.22,0,0,1,21,8.52ZM6,6.16H5A2.22,2.22,0,0,0,3,8.52v.56A3,3,0,0,0,6,6.16ZM18,17.84h1a2.22,2.22,0,0,0,2-2.36v-.56A3,3,0,0,0,18,17.84ZM3,14.92v.56a2.22,2.22,0,0,0,2,2.36H6A3,3,0,0,0,3,14.92Zm18-4.84v3.84a4,4,0,0,0-4,3.92H7a4,4,0,0,0-4-3.92V10.08A4,4,0,0,0,7,6.16H17A4,4,0,0,0,21,10.08ZM15,12a3.18,3.18,0,0,0-3-3.33A3.18,3.18,0,0,0,9,12a3.18,3.18,0,0,0,3,3.33A3.18,3.18,0,0,0,15,12Z"/></g></svg>