<svg xmlns="http://www.w3.org/2000/svg" viewBox="0 0 24 24"><g id="finance"><path id="binance-usd-_busd_" data-name="binance-usd-(busd)" d="M11.74,21.33l-1.26-1.27a.82.82,0,0,1,0-1.17l8.58-8.58a.82.82,0,0,1,1.17,0l1.27,1.26a.85.85,0,0,1,0,1.18l-8.58,8.58A.85.85,0,0,1,11.74,21.33ZM9,17.42,17.6,8.84a.83.83,0,0,0,0-1.17L16.33,6.4a.83.83,0,0,0-1.17,0L6.58,15a.83.83,0,0,0,0,1.18l1.26,1.26A.83.83,0,0,0,9,17.42Zm0-7.8,4.68-4.68a.83.83,0,0,0,0-1.18L12.43,2.5a.85.85,0,0,0-1.18,0L6.57,7.18a.85.85,0,0,0,0,1.18L7.84,9.62A.82.82,0,0,0,9,9.62Zm-5.07.2L2.68,11.08a.83.83,0,0,0,0,1.18l1.26,1.26a.85.85,0,0,0,1.18,0l1.26-1.26a.85.85,0,0,0,0-1.18L5.11,9.82A.82.82,0,0,0,3.94,9.82Z"/></g></svg>