<svg xmlns="http://www.w3.org/2000/svg" viewBox="0 0 24 24"><g id="finance"><path id="bitcoin" d="M16.7,14.14a1.42,1.42,0,0,1-1.41,1.42h-6V12.73h6A1.41,1.41,0,0,1,16.7,14.14ZM15.4,9.89V9.73A1.34,1.34,0,0,0,14.06,8.4L9.33,8.34v2.89h4.73A1.35,1.35,0,0,0,15.4,9.89ZM22,12A10,10,0,1,1,12,2,10,10,0,0,1,22,12Zm-3.8,2.14a2.91,2.91,0,0,0-1.78-2.68,2.83,2.83,0,0,0,.48-1.57V9.73A2.83,2.83,0,0,0,14.07,6.9h-.84V5.59a.75.75,0,0,0-1.5,0V6.87l-1.27,0V5.55a.75.75,0,0,0-1.5,0V6.84l-2.4,0h0a.75.75,0,0,0,0,1.5H7.83v2.91H6.55a.75.75,0,0,0,0,1.5H7.83v2.83H6.55a.75.75,0,0,0,0,1.5H9v1.35a.75.75,0,0,0,1.5,0V17.06h1.27v1.39a.75.75,0,0,0,1.5,0V17.06h2.06A2.92,2.92,0,0,0,18.2,14.14Z"/></g></svg>