<svg xmlns="http://www.w3.org/2000/svg" viewBox="0 0 24 24"><g id="finance"><path id="calculator" d="M16.15,2.18H7.85A5.85,5.85,0,0,0,2,8v8.3a5.85,5.85,0,0,0,5.85,5.85h8.3A5.85,5.85,0,0,0,22,16.33V8A5.85,5.85,0,0,0,16.15,2.18ZM7.52,18.44a1,1,0,1,1,1-1A1,1,0,0,1,7.52,18.44Zm0-3.67a1,1,0,1,1,1-1A1,1,0,0,1,7.52,14.77Zm5.23,3.67a1,1,0,1,1,1-1A1,1,0,0,1,12.75,18.44Zm0-3.67a1,1,0,1,1,0-1.93,1,1,0,1,1,0,1.93Zm5.18,3.07a.75.75,0,0,1-1.5,0V13.49a.75.75,0,0,1,1.5,0Zm.4-9.63a2,2,0,0,1-2,2H7.62a2,2,0,0,1-2-2V7.58a2,2,0,0,1,2-2h8.69a2,2,0,0,1,2,2Z"/></g></svg>