<svg xmlns="http://www.w3.org/2000/svg" viewBox="0 0 24 24"><g id="finance"><path id="dash" d="M8.23,14.69H15a3.94,3.94,0,0,1-3.12,1.57H8.23Zm3.44-6.95H8.23V9.19h6.54A4.07,4.07,0,0,0,11.67,7.74ZM22,12A10,10,0,1,1,12,2,10,10,0,0,1,22,12Zm-4.84-1.31H18a.75.75,0,0,0,0-1.5H16.61a5.64,5.64,0,0,0-4.94-2.95H7.48A.76.76,0,0,0,6.73,7v2.2H6a.75.75,0,0,0,0,1.5h.75v2.5H6a.75.75,0,0,0,0,1.5h.75V17a.76.76,0,0,0,.75.75h4.38a5.44,5.44,0,0,0,4.88-3.07H18a.75.75,0,0,0,0-1.5h-.81a4.94,4.94,0,0,0,.08-.87v-.45A5.69,5.69,0,0,0,17.16,10.69Zm-8.93,0v2.5h7.46a4.14,4.14,0,0,0,.1-.87v-.45a4.11,4.11,0,0,0-.19-1.18Z"/></g></svg>