<svg xmlns="http://www.w3.org/2000/svg" viewBox="0 0 24 24"><g id="finance"><path id="dollar" d="M13.78,13.5a1.17,1.17,0,0,1,.33.86,1.35,1.35,0,0,1-.6,1.12,2.27,2.27,0,0,1-.79.35l0-2.89L13,13A2,2,0,0,1,13.78,13.5ZM22,12A10,10,0,1,1,12,2,10,10,0,0,1,22,12Zm-5.76,2.13A2.94,2.94,0,0,0,16,12.77a2.53,2.53,0,0,0-.8-.92,4.79,4.79,0,0,0-1.24-.62c-.35-.12-.74-.23-1.15-.34l0-2.72a1.23,1.23,0,0,1,.36.19,2.92,2.92,0,0,1,.7.94,2.75,2.75,0,0,0,.41.61.81.81,0,0,0,.57.18.88.88,0,0,0,.68-.3,1,1,0,0,0,.27-.7,1.86,1.86,0,0,0-.22-.86,2.54,2.54,0,0,0-.69-.85,3.47,3.47,0,0,0-1.19-.65,4.39,4.39,0,0,0-.88-.19V6a.75.75,0,0,0-.75-.76h0A.74.74,0,0,0,11.3,6v.52a5.24,5.24,0,0,0-1.45.31A3,3,0,0,0,8.45,7.91,2.62,2.62,0,0,0,8,9.47,2.55,2.55,0,0,0,8.42,11a3,3,0,0,0,1.23,1,9.08,9.08,0,0,0,1.6.53l0,3.31a2.09,2.09,0,0,1-.4-.13,1.8,1.8,0,0,1-.67-.57,5.12,5.12,0,0,1-.44-.85,1.68,1.68,0,0,0-.4-.65.84.84,0,0,0-.58-.21.9.9,0,0,0-.69.28.89.89,0,0,0-.28.67,2.64,2.64,0,0,0,.46,1.39A3.51,3.51,0,0,0,9.4,16.92a4.64,4.64,0,0,0,1.81.55V18a.75.75,0,0,0,.75.76h0A.74.74,0,0,0,12.7,18v-.53a5.32,5.32,0,0,0,1.57-.37,3.33,3.33,0,0,0,1.46-1.21A3.16,3.16,0,0,0,16.24,14.13ZM10,9.27a1,1,0,0,0,.17.56,1.76,1.76,0,0,0,.48.4,4.09,4.09,0,0,0,.62.26h0l0-2.4a2,2,0,0,0-.8.3A1.06,1.06,0,0,0,10,9.27Z"/></g></svg>