<svg xmlns="http://www.w3.org/2000/svg" viewBox="0 0 24 24"><g id="finance"><path id="educare-_ekt_" data-name="educare-(ekt)" d="M16.1,18.55a1.31,1.31,0,0,1-.94,2.23H12l-3.15,0a1.32,1.32,0,0,1-1-2.22l1-1.05,1.88-2a1.7,1.7,0,0,1,2.46,0l1.89,2Zm0-13.1a1.32,1.32,0,0,0-.95-2.23H12l-3.16,0a1.31,1.31,0,0,0-1,2.22l1,1,1.87,2a1.7,1.7,0,0,0,2.46,0l1.89-2ZM2.16,12.57l2.25,3.55a1.13,1.13,0,0,0,1.75.19L9.7,12.69a1.07,1.07,0,0,0,0-1.51L6.12,7.68a1.11,1.11,0,0,0-1.73.2L2.16,11.39A1.14,1.14,0,0,0,2.16,12.57Zm19.67-1.2L19.61,7.86a1.12,1.12,0,0,0-1.73-.2l-3.57,3.5a1.06,1.06,0,0,0,0,1.51l3.53,3.62a1.13,1.13,0,0,0,1.75-.19l2.25-3.55A1.1,1.1,0,0,0,21.83,11.37Z"/></g></svg>