<svg xmlns="http://www.w3.org/2000/svg" viewBox="0 0 24 24"><g id="finance"><path id="office-bag" d="M19.48,6.66h-15A2.52,2.52,0,0,0,2,9.18v4.48a2,2,0,0,0,2,2H20a2,2,0,0,0,2-2V9.18A2.52,2.52,0,0,0,19.48,6.66Zm-5.73,7.78H10.92a.75.75,0,0,1,0-1.5h2.83a.75.75,0,0,1,0,1.5ZM3.43,15.57A2.3,2.3,0,0,1,3,15.39,3.25,3.25,0,0,0,3.43,15.57ZM21,15.39a2.3,2.3,0,0,1-.43.18A3.25,3.25,0,0,0,21,15.39Zm-17.5.2a2.08,2.08,0,0,0,.5.07A1.68,1.68,0,0,1,3.5,15.59ZM21,17v1.66a2,2,0,0,1-2,2H5a2,2,0,0,1-2-2V17a3.32,3.32,0,0,0,1,.16H20A3.32,3.32,0,0,0,21,17Zm-1-1.34a2.08,2.08,0,0,0,.5-.07A1.68,1.68,0,0,1,20,15.66ZM15.3,7.41a.75.75,0,0,1-.75-.75V6a1,1,0,0,0-1-1H11.15a1,1,0,0,0-1,1v.63a.75.75,0,0,1-1.5,0V6a2.52,2.52,0,0,1,2.52-2.52h2.37A2.52,2.52,0,0,1,16.05,6v.63A.75.75,0,0,1,15.3,7.41Z"/></g></svg>