<svg xmlns="http://www.w3.org/2000/svg" viewBox="0 0 24 24"><g id="finance"><path id="theta-_theta_" data-name="theta-(theta)" d="M9.24,10.13A.76.76,0,0,1,10,9.38h1.26V8.06a.75.75,0,1,1,1.5,0V9.38H14a.75.75,0,0,1,0,1.5H10A.76.76,0,0,1,9.24,10.13ZM14,12.38H10a.75.75,0,0,0,0,1.5h1.26v2.06a.75.75,0,1,0,1.5,0V13.88H14a.75.75,0,0,0,0-1.5ZM22,8V16a6,6,0,0,1-6,6H7.93a6,6,0,0,1-6-6V8a6,6,0,0,1,6-6h8.14A6,6,0,0,1,22,8Zm-5-.09A1.87,1.87,0,0,0,15.13,6H8.87A1.87,1.87,0,0,0,7,7.87v8.26A1.87,1.87,0,0,0,8.87,18h6.26A1.87,1.87,0,0,0,17,16.13Z"/></g></svg>