<svg xmlns="http://www.w3.org/2000/svg" viewBox="0 0 24 24"><g id="finance"><g id="two-credit-cart"><path d="M18.11,9.65a2.47,2.47,0,0,1,.15.81A2.47,2.47,0,0,0,18.11,9.65Zm1.3-5H8.32A2.58,2.58,0,0,0,5.89,6.42h9.79a4.09,4.09,0,0,1,4.09,4.09V16A2.57,2.57,0,0,0,22,13.49V7.28A2.59,2.59,0,0,0,19.41,4.69ZM15.68,7.92H4.59A2.59,2.59,0,0,0,2,10.51v.28H18.27v-.28A2.59,2.59,0,0,0,15.68,7.92Zm2.59,4.82v4a2.59,2.59,0,0,1-2.59,2.59H4.59A2.59,2.59,0,0,1,2,16.72v-4ZM8.2,15.56a.75.75,0,0,0-.75-.75H4.57a.75.75,0,1,0,0,1.5H7.45A.75.75,0,0,0,8.2,15.56Zm8.25,0a.75.75,0,0,0-.75-.75H14.49a.75.75,0,1,0,0,1.5H15.7A.75.75,0,0,0,16.45,15.56Z"/></g></g></svg>