<svg xmlns="http://www.w3.org/2000/svg" viewBox="0 0 24 24"><g id="finance"><g id="wallet"><path d="M2,9.85H2a3.71,3.71,0,0,1,3.71-3.7h0A3.71,3.71,0,0,0,2,9.85Zm3.69-4.7h9.13a3.37,3.37,0,0,0-3.19-2.3H5.39A3.38,3.38,0,0,0,2,6.23V7A4.68,4.68,0,0,1,5.71,5.15ZM18.94,15.7h2.13a.93.93,0,0,0,.93-.93V12.53a.93.93,0,0,0-.93-.93H18.94a2,2,0,0,0-2,2.05h0A2,2,0,0,0,18.94,15.7Zm-2-2h0a2,2,0,0,0,2,2H20V11.6H18.94A2,2,0,0,0,16.9,13.65Zm-1,0a3,3,0,0,0,3,3H20v.74a3.71,3.71,0,0,1-3.7,3.71H5.71A3.71,3.71,0,0,1,2,17.44V9.86A3.71,3.71,0,0,1,5.71,6.15H16.33A3.71,3.71,0,0,1,20,9.86v.74H18.94A3,3,0,0,0,15.9,13.65Zm-3.26-3.07a.75.75,0,0,0-.75-.75H5.73a.75.75,0,0,0,0,1.5h6.16A.75.75,0,0,0,12.64,10.58Z"/></g></g></svg>