<svg xmlns="http://www.w3.org/2000/svg" viewBox="0 0 24 24"><g id="medicine"><g id="bandage"><path d="M21.79,7A13.79,13.79,0,0,0,17,2.22a1.53,1.53,0,0,0-1.87.22L2.44,15.12A1.53,1.53,0,0,0,2.2,17,12.18,12.18,0,0,0,7,21.81a1.53,1.53,0,0,0,1.81-.25L21.56,8.84A1.53,1.53,0,0,0,21.79,7ZM9.51,13.76a1,1,0,1,1,0-1.43A1,1,0,0,1,9.51,13.76Zm2.14,2.14a1,1,0,1,1,0-1.43A1,1,0,0,1,11.65,15.9Zm0-4.28a1,1,0,1,1,0-1.43A1,1,0,0,1,11.65,11.62Zm2.14,2.14a1,1,0,1,1,0-1.43A1,1,0,0,1,13.79,13.76Zm0-4.28a1,1,0,1,1,0-1.43A1,1,0,0,1,13.79,9.48Zm2.14,2.14a1,1,0,1,1,0-1.43A1,1,0,0,1,15.93,11.62Z"/></g></g></svg>