<svg xmlns="http://www.w3.org/2000/svg" viewBox="0 0 24 24"><g id="medicine"><path id="mask" d="M20.58,3.42A4.7,4.7,0,0,0,14.43,3h0a1.17,1.17,0,0,0-.57.16C13,3.74,12.1,4.35,11.26,5A2.4,2.4,0,0,1,9,5.36,2.82,2.82,0,0,0,5.36,9,2.4,2.4,0,0,1,5,11.25c-.64.84-1.25,1.71-1.82,2.62a1.17,1.17,0,0,0,.18,1.44l5.34,5.35a1.17,1.17,0,0,0,1.44.17,33.92,33.92,0,0,0,10.69-10.7A1.13,1.13,0,0,0,21,9.57,4.68,4.68,0,0,0,20.58,3.42Zm-5.66-.33h0Zm-4.7,3.53a1,1,0,0,1,.13,2c-1.17.07-1.67.57-1.73,1.71a1,1,0,0,1-1,.95H7.57a1,1,0,0,1-.94-1A3.54,3.54,0,0,1,10.22,6.62ZM8.06,16a1,1,0,0,1-.71.29A1,1,0,0,1,6.64,16a1,1,0,0,1,0-1.41l8-8A1,1,0,0,1,16,8.05Zm10.66-5.52a37.3,37.3,0,0,1-8.2,8.2,1,1,0,0,1-.59.2,1,1,0,0,1-.8-.41,1,1,0,0,1,.21-1.4A35.69,35.69,0,0,0,17.1,9.34a1,1,0,0,1,1.62,1.17ZM15.86,3.88a3.28,3.28,0,0,1,1.4-.34,3.16,3.16,0,0,1,2.26.94,3.2,3.2,0,0,1,.6,3.66l.54.54h0Zm5.06,5.24s0,0,0,0S20.91,9.11,20.92,9.12ZM9.57,21a4.73,4.73,0,0,1-2.83,1A4.68,4.68,0,0,1,3,14.43a1.14,1.14,0,0,0,.33.88l.54.54a3.17,3.17,0,0,0,4.26,4.26l.54.55A1.21,1.21,0,0,0,9.57,21Z"/></g></svg>