<svg xmlns="http://www.w3.org/2000/svg" viewBox="0 0 24 24"><g id="medicine"><path id="pulse" d="M14.11,16.26H14a.75.75,0,0,1-.65-.56l-1.47-5.55-1.34,4a.75.75,0,0,1-1.33.19L7.63,12l-1.3.7a.74.74,0,0,1-.36.09H3a.75.75,0,0,1,0-1.5H5.78l1.73-.93a.75.75,0,0,1,1,.24l1.16,1.68L11.29,7.3a.75.75,0,0,1,1.43,0l1.59,6,.79-1.66a.74.74,0,0,1,.67-.43H21a.75.75,0,0,1,0,1.5H16.25l-1.46,3.08A.76.76,0,0,1,14.11,16.26ZM3,10.25H5.53L7,9.44a1.73,1.73,0,0,1,.83-.21A1.78,1.78,0,0,1,9.31,10v0l1-3A1.74,1.74,0,0,1,12,5.79h.07a1.75,1.75,0,0,1,1.63,1.3l1,3.58a1.72,1.72,0,0,1,1.13-.42H21a1.77,1.77,0,0,1,.73.16A5.84,5.84,0,0,0,12,4.57a5.87,5.87,0,0,0-8.28,0h0a5.82,5.82,0,0,0-1.44,5.84A1.77,1.77,0,0,1,3,10.25Zm13.87,3.5-1.19,2.51a1.76,1.76,0,0,1-1.58,1H14A1.76,1.76,0,0,1,12.42,16l-.62-2.32-.27.82a1.75,1.75,0,0,1-1.41,1.18l-.25,0a1.73,1.73,0,0,1-1.44-.77L7.31,13.27l-.51.27a1.73,1.73,0,0,1-.83.21H4.61l6.68,6.68a1,1,0,0,0,1.42,0l6.68-6.68Z"/></g></svg>