<svg xmlns="http://www.w3.org/2000/svg" viewBox="0 0 24 24"><g id="medicine"><path id="syringe" d="M18.94,12a1,1,0,0,1,0,1.41,1,1,0,0,1-1.42,0l-.69-.69L11.24,18.3a1.44,1.44,0,0,1-1.46.35l-2.26-.76L3.71,21.71a1,1,0,0,1-1.42,0,1,1,0,0,1,0-1.42l3.82-3.81-.76-2.26a1.44,1.44,0,0,1,.35-1.46l5.59-5.59-.69-.69a1,1,0,0,1,0-1.42,1,1,0,0,1,1.41,0Zm2.32-4.2-5-5.07a.75.75,0,1,0-1.06,1.06L16.3,4.93l-1.5,1.5L17.57,9.2l1.5-1.5L20.2,8.84a.75.75,0,0,0,.53.23.77.77,0,0,0,.53-.22A.75.75,0,0,0,21.26,7.79Z"/></g></svg>