<svg xmlns="http://www.w3.org/2000/svg" viewBox="0 0 24 24"><g id="medicine"><path id="thermometer" d="M7.55,19.27,5.43,21.4a2,2,0,0,1-2.84-2.84l2.13-2.13ZM21.72,5.8a10.17,10.17,0,0,0-3.53-3.55,2,2,0,0,0-2.47.35L15.36,3,21,8.63l.35-.35A2,2,0,0,0,21.72,5.8ZM11.33,7a9.26,9.26,0,0,0-1.58,2.1L7.49,13.15a9.74,9.74,0,0,1-1.58,2.09l-.49.49,2.84,2.83.48-.48a9.8,9.8,0,0,1,2.1-1.58l4.07-2.26A9.5,9.5,0,0,0,17,12.66l3.32-3.32L14.65,3.66Zm4.73-.48,1.43,1.42a1,1,0,0,1,0,1.42l-2.85,2.84a1,1,0,0,1-1.41,0l-1.42-1.42a1,1,0,0,1,0-1.42L14.65,6.5A1,1,0,0,1,16.06,6.5Z"/></g></svg>