<svg xmlns="http://www.w3.org/2000/svg" viewBox="0 0 24 24"><g id="medicine"><g id="virus"><path d="M20.89,14.85a1,1,0,0,0-1.32.32l-1-.57-.12,0A7.27,7.27,0,0,0,18.92,12a7.17,7.17,0,0,0-.47-2.55l.12,0,1-.57a1,1,0,0,0,1.72-1l-1-1.66a1,1,0,0,0-1.75.94l-1,.58-.06,0A6.88,6.88,0,0,0,13.07,5V3.93a1,1,0,0,0,0-2H11.13a1,1,0,0,0-.06,2V5A6.84,6.84,0,0,0,6.53,7.67L6.45,7.6l-.87-.5a1,1,0,1,0-1.73-1l-1,1.73a1,1,0,0,0,.86,1.5,1,1,0,0,0,.87-.5l.87.5.12.05A7.31,7.31,0,0,0,5.08,12a7.4,7.4,0,0,0,.49,2.63l-.12,0-.87.5a1,1,0,1,0-1.73,1l1,1.73a1,1,0,0,0,.87.5,1,1,0,0,0,.49-.13,1,1,0,0,0,.37-1.37l.87-.5.08-.07A6.86,6.86,0,0,0,11.08,19s0,0,0,.05v1a1,1,0,0,0,0,2h2a1,1,0,0,0,0-2v-1s0,0,0-.07a6.86,6.86,0,0,0,4.45-2.72l.06,0,1,.57a1,1,0,0,0,1.74,1l1-1.66A1,1,0,0,0,20.89,14.85ZM13.43,9.44a1.21,1.21,0,1,1,1.21,1.21A1.21,1.21,0,0,1,13.43,9.44ZM15.85,14a.74.74,0,0,1-.94-1.15.76.76,0,0,1,1.05.1A.75.75,0,0,1,15.85,14Z"/></g></g></svg>