<svg xmlns="http://www.w3.org/2000/svg" viewBox="0 0 24 24"><g id="grid"><g id="element-7"><path d="M19.75,7.5H4.25A1.75,1.75,0,0,1,2.5,5.75V4.25A1.75,1.75,0,0,1,4.25,2.5h15.5A1.75,1.75,0,0,1,21.5,4.25v1.5A1.75,1.75,0,0,1,19.75,7.5Zm-13,2H4.25A1.75,1.75,0,0,0,2.5,11.25v8.5A1.75,1.75,0,0,0,4.25,21.5h2.5A1.75,1.75,0,0,0,8.5,19.75v-8.5A1.75,1.75,0,0,0,6.75,9.5ZM21.5,19.75v-8.5A1.75,1.75,0,0,0,19.75,9.5h-7.5a1.75,1.75,0,0,0-1.75,1.75v8.5a1.75,1.75,0,0,0,1.75,1.75h7.5A1.75,1.75,0,0,0,21.5,19.75Z"/></g></g></svg>