<svg xmlns="http://www.w3.org/2000/svg" viewBox="0 0 24 24"><g id="grid"><path id="element-11" d="M8.72,10.5h-5A1.77,1.77,0,0,1,2,8.73v-5A1.77,1.77,0,0,1,3.77,2h5a1.77,1.77,0,0,1,1.77,1.77v5A1.77,1.77,0,0,1,8.72,10.5ZM22,8.73v-5A1.77,1.77,0,0,0,20.23,2h-5a1.77,1.77,0,0,0-1.77,1.77v5a1.77,1.77,0,0,0,1.77,1.77h5A1.77,1.77,0,0,0,22,8.73Zm0,11.5v-5a1.77,1.77,0,0,0-1.77-1.77H15.27a1.77,1.77,0,0,0-1.77,1.77v5A1.77,1.77,0,0,0,15.27,22h4.95A1.77,1.77,0,0,0,22,20.23Zm-11.5,0v-5A1.77,1.77,0,0,0,8.72,13.5h-5A1.77,1.77,0,0,0,2,15.27v5A1.77,1.77,0,0,0,3.77,22h5A1.77,1.77,0,0,0,10.49,20.23Z"/></g></svg>