<svg xmlns="http://www.w3.org/2000/svg" viewBox="0 0 24 24"><g id="grid"><path id="element-plus" d="M9.22,10.5h-5A1.77,1.77,0,0,1,2.5,8.73v-5A1.77,1.77,0,0,1,4.27,2h5A1.77,1.77,0,0,1,11,3.77v5A1.77,1.77,0,0,1,9.22,10.5ZM22.5,8.73v-5A1.78,1.78,0,0,0,20.73,2h-5A1.78,1.78,0,0,0,14,3.77v5a1.78,1.78,0,0,0,1.77,1.77h5A1.78,1.78,0,0,0,22.5,8.73ZM11,20.23v-5A1.77,1.77,0,0,0,9.22,13.5h-5A1.77,1.77,0,0,0,2.5,15.27v5A1.77,1.77,0,0,0,4.27,22h5A1.77,1.77,0,0,0,11,20.23Zm3.77-2.48,6.6-.75H19V14.64a.75.75,0,0,0-1.5,0V17H15.14a.75.75,0,0,0,0,1.5H17.5v2.36a.75.75,0,0,0,1.5,0V18.5h2.36a.75.75,0,0,0,0-1.5Z"/></g></svg>