<svg xmlns="http://www.w3.org/2000/svg" viewBox="0 0 24 24"><g id="grid"><path id="element-equal" d="M8.47,10.5h-5A1.77,1.77,0,0,1,1.75,8.73v-5A1.77,1.77,0,0,1,3.52,2h5a1.78,1.78,0,0,1,1.77,1.77v5A1.78,1.78,0,0,1,8.47,10.5ZM21.74,8.73v-5A1.77,1.77,0,0,0,20,2H15a1.77,1.77,0,0,0-1.77,1.77v5A1.77,1.77,0,0,0,15,10.5H20A1.77,1.77,0,0,0,21.74,8.73Zm-11.5,11.5v-5A1.78,1.78,0,0,0,8.47,13.5h-5a1.77,1.77,0,0,0-1.77,1.77v5A1.77,1.77,0,0,0,3.52,22h5A1.78,1.78,0,0,0,10.24,20.23ZM14,17.75m7.74,1.92a.76.76,0,0,0-.75-.75H14a.75.75,0,0,0,0,1.5h7A.75.75,0,0,0,21.74,19.67Zm0-3.84a.75.75,0,0,0-.75-.75H14a.75.75,0,1,0,0,1.5h7A.76.76,0,0,0,21.74,15.83Z"/></g></svg>