<svg xmlns="http://www.w3.org/2000/svg" viewBox="0 0 24 24"><g id="grid"><g id="element-1"><path d="M9.26,9h-5A1.74,1.74,0,0,1,2.5,7.26V3.74A1.74,1.74,0,0,1,4.24,2h5A1.74,1.74,0,0,1,11,3.74V7.26A1.74,1.74,0,0,1,9.26,9ZM11,20.26V12.74A1.74,1.74,0,0,0,9.26,11h-5A1.74,1.74,0,0,0,2.5,12.74v7.52A1.74,1.74,0,0,0,4.24,22h5A1.74,1.74,0,0,0,11,20.26Zm10.5-9V3.75A1.75,1.75,0,0,0,19.75,2h-5A1.75,1.75,0,0,0,13,3.75v7.5A1.75,1.75,0,0,0,14.75,13h5A1.75,1.75,0,0,0,21.5,11.25Zm0,9V16.74A1.74,1.74,0,0,0,19.76,15h-5A1.74,1.74,0,0,0,13,16.74v3.52A1.74,1.74,0,0,0,14.74,22h5A1.74,1.74,0,0,0,21.5,20.26Z"/></g></g></svg>