<svg xmlns="http://www.w3.org/2000/svg" viewBox="0 0 24 24"><g id="grid"><g id="element-6"><path d="M14.5,11.25v8.5a1.75,1.75,0,0,1-1.75,1.75h-1.5A1.75,1.75,0,0,1,9.5,19.75v-8.5A1.75,1.75,0,0,1,11.25,9.5h1.5A1.75,1.75,0,0,1,14.5,11.25ZM19.75,9.5h-1.5a1.75,1.75,0,0,0-1.75,1.75v8.5a1.75,1.75,0,0,0,1.75,1.75h1.5a1.75,1.75,0,0,0,1.75-1.75v-8.5A1.75,1.75,0,0,0,19.75,9.5ZM7.5,11.25v8.5A1.75,1.75,0,0,1,5.75,21.5H4.25A1.75,1.75,0,0,1,2.5,19.75v-8.5A1.75,1.75,0,0,1,4.25,9.5h1.5A1.75,1.75,0,0,1,7.5,11.25Zm14-5.5V4.25A1.75,1.75,0,0,0,19.75,2.5H4.25A1.75,1.75,0,0,0,2.5,4.25v1.5A1.75,1.75,0,0,0,4.25,7.5h15.5A1.75,1.75,0,0,0,21.5,5.75Z"/></g></g></svg>