<svg xmlns="http://www.w3.org/2000/svg" viewBox="0 0 24 24"><g id="grid"><g id="element-12"><path d="M19.81,13H14.7A1.75,1.75,0,0,1,13,11.25V3.75A1.75,1.75,0,0,1,14.7,2h5.11a1.75,1.75,0,0,1,1.75,1.75v7.5A1.75,1.75,0,0,1,19.81,13Zm1.75,7.25v-3.5A1.75,1.75,0,0,0,19.81,15h-5a1.75,1.75,0,0,0-1.75,1.75v3.5A1.75,1.75,0,0,0,14.81,22h5A1.75,1.75,0,0,0,21.56,20.25Zm-10.62,0V3.75A1.75,1.75,0,0,0,9.19,2h-5A1.75,1.75,0,0,0,2.44,3.75v16.5A1.75,1.75,0,0,0,4.19,22h5A1.75,1.75,0,0,0,10.94,20.25Z"/></g></g></svg>