<svg xmlns="http://www.w3.org/2000/svg" viewBox="0 0 24 24"><g id="grid"><g id="grid-2" data-name="grid"><path d="M7.19,2H9V22H7.19A5.19,5.19,0,0,1,2,16.81V7.19H2a4.94,4.94,0,0,1,.1-1A2.61,2.61,0,0,1,2.16,6a4.75,4.75,0,0,1,.2-.64,1.86,1.86,0,0,1,.1-.25,4.64,4.64,0,0,1,.43-.79h0a5.28,5.28,0,0,1,.56-.69l.13-.13a6,6,0,0,1,.67-.56l.12-.07a4.84,4.84,0,0,1,.71-.38l.13-.07a6,6,0,0,1,.85-.26l.19,0A5.86,5.86,0,0,1,7.18,2Zm9.62,0H10.5V22h6.31A5.19,5.19,0,0,0,22,16.81V7.19A5.19,5.19,0,0,0,16.81,2Z"/></g></g></svg>