<svg xmlns="http://www.w3.org/2000/svg" viewBox="0 0 24 24"><g id="grid"><g id="maximize"><path d="M16.81,2H7.19A5.19,5.19,0,0,0,2,7.19v9.62A5.19,5.19,0,0,0,7.19,22h9.62A5.19,5.19,0,0,0,22,16.81V7.19A5.19,5.19,0,0,0,16.81,2Zm-14,5.93A5.15,5.15,0,0,1,7.93,2.79H9.67a.75.75,0,0,1,0,1.5H7.93A3.64,3.64,0,0,0,4.29,7.93v1.8a.75.75,0,0,1-1.5,0Zm7,13.28H7.93a5.15,5.15,0,0,1-5.14-5.14V14.26a.75.75,0,0,1,1.5,0v1.81a3.64,3.64,0,0,0,3.64,3.64H9.8a.75.75,0,0,1,0,1.5Zm11.41-5.14a5.15,5.15,0,0,1-5.14,5.14H14.33a.75.75,0,1,1,0-1.5h1.74a3.64,3.64,0,0,0,3.64-3.64V14.13a.75.75,0,0,1,1.5,0Zm0-6.48a.75.75,0,0,1-1.5,0V7.93a3.64,3.64,0,0,0-3.64-3.64H14.2a.75.75,0,0,1,0-1.5h1.87a5.15,5.15,0,0,1,5.14,5.14Z"/></g></g></svg>