<svg xmlns="http://www.w3.org/2000/svg" viewBox="0 0 24 24"><defs><style>.cls-1{opacity:0.3;}</style></defs><g id="finance"><g id="bank"><path class="cls-1" d="M21.43,7.24,13.69,2.48a3.22,3.22,0,0,0-3.38,0L2.57,7.24c-1.09.68-.52,2.12.84,2.12H4.65v8.91a.87.87,0,0,0,.87.88H7a.87.87,0,0,0,.88-.88V9.36h2.45v8.91a.87.87,0,0,0,.87.88h1.52a.87.87,0,0,0,.87-.88V9.36H16v8.91a.87.87,0,0,0,.87.88h1.53a.87.87,0,0,0,.87-.88V9.36h1.36C22,9.36,22.52,7.92,21.43,7.24Z"/><path d="M21.42,22.77H2.58a.75.75,0,0,1,0-1.5H21.42a.75.75,0,0,1,0,1.5Z"/></g></g></svg>