<svg xmlns="http://www.w3.org/2000/svg" viewBox="0 0 24 24"><defs><style>.cls-1{fill:none;}.cls-2{opacity:0.3;}</style></defs><g id="finance"><g id="bill"><ellipse class="cls-1" cx="12" cy="12" rx="3" ry="3.89"/><path class="cls-2" d="M18,6.16H6A3,3,0,0,1,3,9.08v5.84a3,3,0,0,1,3,2.92H18a3,3,0,0,1,3-2.92V9.08A3,3,0,0,1,18,6.16Z"/><path d="M19,6.16H18a3,3,0,0,0,3,2.92V8.52A2.22,2.22,0,0,0,19,6.16Z"/><path d="M6,6.16H5A2.22,2.22,0,0,0,3,8.52v.56A3,3,0,0,0,6,6.16Z"/><path d="M18,17.84h1a2.22,2.22,0,0,0,2-2.36v-.56A3,3,0,0,0,18,17.84Z"/><path d="M3,14.92v.56a2.22,2.22,0,0,0,2,2.36H6A3,3,0,0,0,3,14.92Z"/><ellipse cx="12" cy="12" rx="3" ry="3.33"/></g></g></svg>