<svg xmlns="http://www.w3.org/2000/svg" viewBox="0 0 24 24"><defs><style>.cls-1{opacity:0.3;}</style></defs><g id="finance"><g id="binance"><path class="cls-1" d="M14,12.49l-1.55,1.57a.68.68,0,0,1-1,0L10,12.49a.69.69,0,0,1,0-1L11.5,9.94a.68.68,0,0,1,1,0L14,11.51A.69.69,0,0,1,14,12.49Z"/><path class="cls-1" d="M6.27,12.49,4.72,14.05a.67.67,0,0,1-1,0L2.2,12.49a.71.71,0,0,1,0-1L3.75,9.93a.68.68,0,0,1,1,0L6.27,11.5A.71.71,0,0,1,6.27,12.49Z"/><path class="cls-1" d="M21.77,12.49l-1.55,1.56a.68.68,0,0,1-1,0L17.7,12.49a.71.71,0,0,1,0-1l1.55-1.57a.68.68,0,0,1,1,0l1.55,1.56A.72.72,0,0,1,21.77,12.49Z"/><path d="M12.47,6.26,15.6,9.43a.69.69,0,0,0,1,0l1.08-1.1a.71.71,0,0,0,0-1l-5-5.06a1,1,0,0,0-1.35,0l-5,5.07a.71.71,0,0,0,0,1L7.39,9.43a.69.69,0,0,0,1,0L11.5,6.26A.68.68,0,0,1,12.47,6.26Z"/><path d="M15.61,14.56l-3.14,3.18a.68.68,0,0,1-1,0L8.36,14.56a.68.68,0,0,0-1,0L6.3,15.65a.71.71,0,0,0,0,1l5,5.08a1,1,0,0,0,1.35,0l5-5.08a.71.71,0,0,0,0-1l-1.08-1.09A.68.68,0,0,0,15.61,14.56Z"/></g></g></svg>