<svg xmlns="http://www.w3.org/2000/svg" viewBox="0 0 24 24"><defs><style>.cls-1{opacity:0.3;}</style></defs><g id="finance"><g id="bitcoin"><circle class="cls-1" cx="12" cy="12" r="10"/><path d="M16.42,11.46a2.83,2.83,0,0,0,.48-1.57V9.73A2.83,2.83,0,0,0,14.07,6.9h-.84V5.59a.75.75,0,0,0-1.5,0V6.87l-1.27,0V5.55a.75.75,0,0,0-1.5,0V6.84l-2.4,0h0a.75.75,0,0,0-.75.74.76.76,0,0,0,.74.76H7.83v2.91H6.55a.75.75,0,0,0,0,1.5H7.83v2.83H6.55a.75.75,0,0,0,0,1.5H9v1.35a.75.75,0,0,0,1.5,0V17.06h1.27v1.39a.75.75,0,0,0,1.5,0V17.06h2.06a2.92,2.92,0,0,0,1.13-5.6ZM9.33,8.34l4.73.06A1.34,1.34,0,0,1,15.4,9.73v.16a1.34,1.34,0,0,1-1.34,1.34H9.33Zm6,7.22h-6V12.73h6a1.42,1.42,0,0,1,0,2.83Z"/></g></g></svg>