<svg xmlns="http://www.w3.org/2000/svg" viewBox="0 0 24 24"><defs><style>.cls-1{opacity:0.3;}</style></defs><g id="finance"><g id="dash"><circle class="cls-1" cx="12" cy="12" r="10"/><path d="M18,13.19h-.81a4.94,4.94,0,0,0,.08-.87v-.45a5.69,5.69,0,0,0-.13-1.18H18a.75.75,0,0,0,0-1.5H16.61a5.64,5.64,0,0,0-4.94-2.95H7.48A.76.76,0,0,0,6.73,7v2.2H6a.75.75,0,0,0,0,1.5h.75v2.5H6a.75.75,0,0,0,0,1.5h.75V17a.76.76,0,0,0,.75.75h4.38a5.44,5.44,0,0,0,4.88-3.07H18a.75.75,0,0,0,0-1.5ZM8.23,7.74h3.44a4.07,4.07,0,0,1,3.1,1.45H8.23Zm0,2.95H15.6a4.11,4.11,0,0,1,.19,1.18v.45a4.14,4.14,0,0,1-.1.87H8.23Zm3.63,5.57H8.23V14.69H15A3.94,3.94,0,0,1,11.86,16.26Z"/></g></g></svg>