<svg xmlns="http://www.w3.org/2000/svg" viewBox="0 0 24 24"><defs><style>.cls-1{opacity:0.3;}</style></defs><g id="finance"><g id="dollar"><circle class="cls-1" cx="12" cy="12" r="10"/><path d="M16.24,14.13a3.16,3.16,0,0,1-.5,1.74,3.4,3.4,0,0,1-1.46,1.21,5.49,5.49,0,0,1-2.28.43,5.18,5.18,0,0,1-2.6-.59,3.51,3.51,0,0,1-1.18-1.15,2.64,2.64,0,0,1-.46-1.39A.93.93,0,0,1,8,13.7a.94.94,0,0,1,.69-.28.85.85,0,0,1,.58.22,1.68,1.68,0,0,1,.4.65,5.12,5.12,0,0,0,.44.85,1.69,1.69,0,0,0,.67.56,2.41,2.41,0,0,0,1.13.23,2.53,2.53,0,0,0,1.56-.45,1.35,1.35,0,0,0,.6-1.12,1.17,1.17,0,0,0-.33-.86A2,2,0,0,0,13,13c-.35-.12-.8-.24-1.38-.38A9.64,9.64,0,0,1,9.65,12a3,3,0,0,1-1.23-1A2.55,2.55,0,0,1,8,9.47a2.62,2.62,0,0,1,.48-1.56A3,3,0,0,1,9.84,6.85,5.76,5.76,0,0,1,12,6.49a5.32,5.32,0,0,1,1.7.24,3.47,3.47,0,0,1,1.19.65,2.54,2.54,0,0,1,.69.85,1.86,1.86,0,0,1,.22.86,1,1,0,0,1-.27.69.86.86,0,0,1-.68.31.81.81,0,0,1-.57-.18,3,3,0,0,1-.41-.61,2.92,2.92,0,0,0-.7-.94A2,2,0,0,0,11.83,8a2.23,2.23,0,0,0-1.35.37,1.06,1.06,0,0,0-.51.88.9.9,0,0,0,.17.55,1.47,1.47,0,0,0,.48.4,3.33,3.33,0,0,0,.62.27l1,.27a16.38,16.38,0,0,1,1.64.47,4.79,4.79,0,0,1,1.24.62,2.53,2.53,0,0,1,.8.92A2.94,2.94,0,0,1,16.24,14.13Z"/><path d="M12,18.72h0A.75.75,0,0,1,11.2,18L11.3,6a.74.74,0,0,1,.75-.74h0A.75.75,0,0,1,12.8,6L12.7,18A.74.74,0,0,1,12,18.72Z"/></g></g></svg>