<svg xmlns="http://www.w3.org/2000/svg" viewBox="0 0 24 24"><defs><style>.cls-1{opacity:0.3;}</style></defs><g id="finance"><g id="educare-_ekt_" data-name="educare-(ekt)"><path class="cls-1" d="M15.1,17.5l-1.89-2a1.7,1.7,0,0,0-2.46,0l-1.88,2-1,1.05a1.32,1.32,0,0,0,1,2.22l3.15,0h3.16a1.31,1.31,0,0,0,.94-2.23Z"/><path class="cls-1" d="M16.11,5.45a1.32,1.32,0,0,0-.95-2.23H12l-3.16,0a1.31,1.31,0,0,0-1,2.22l1,1,1.87,2a1.7,1.7,0,0,0,2.46,0l1.89-2Z"/><path d="M2.16,11.39,4.39,7.88a1.11,1.11,0,0,1,1.73-.2l3.57,3.5a1.07,1.07,0,0,1,0,1.51L6.16,16.31a1.13,1.13,0,0,1-1.75-.19L2.16,12.57A1.14,1.14,0,0,1,2.16,11.39Z"/><path d="M21.83,11.37,19.61,7.86a1.12,1.12,0,0,0-1.73-.2l-3.57,3.5a1.06,1.06,0,0,0,0,1.51l3.53,3.62a1.13,1.13,0,0,0,1.75-.19l2.25-3.55A1.1,1.1,0,0,0,21.83,11.37Z"/></g></g></svg>