<svg xmlns="http://www.w3.org/2000/svg" viewBox="0 0 24 24"><defs><style>.cls-1{opacity:0.3;}</style></defs><g id="finance"><g id="euro"><circle class="cls-1" cx="12" cy="12" r="10"/><path d="M14.15,11.5H6.56a.78.78,0,0,1,0-1.55h7.59a.78.78,0,1,1,0,1.55Zm0,1.78a.77.77,0,0,0-.77-.78H6.56a.78.78,0,0,0,0,1.55h6.79A.77.77,0,0,0,14.12,13.28Z"/><path d="M16.47,14.66a.78.78,0,0,1,.2.44,1.43,1.43,0,0,1-.57,1.13,4,4,0,0,1-1.37.93,5.1,5.1,0,0,1-2,.35,6.59,6.59,0,0,1-1.53-.16,4.1,4.1,0,0,1-1.26-.5A4.29,4.29,0,0,1,9,16a5.36,5.36,0,0,1-.72-1.12,6.29,6.29,0,0,1-.44-1.33A7.2,7.2,0,0,1,7.64,12,6.65,6.65,0,0,1,8,9.71,4.83,4.83,0,0,1,9.09,8a4.65,4.65,0,0,1,1.63-1.1,5.16,5.16,0,0,1,2-.38A5.07,5.07,0,0,1,15,7c.55.29,1.23.74,1.28,1.43a1,1,0,0,1-.4.85.75.75,0,0,1-.24.15.79.79,0,0,1-.62-.07c-.36-.19-.58-.54-.91-.76a2.36,2.36,0,0,0-1.4-.4,2.55,2.55,0,0,0-2.12,1,4.59,4.59,0,0,0-.79,2.88,5.2,5.2,0,0,0,.35,2.07,2.57,2.57,0,0,0,1,1.23,2.71,2.71,0,0,0,1.49.41,2.64,2.64,0,0,0,1.58-.47c.44-.31.75-.95,1.33-1A1.09,1.09,0,0,1,16.47,14.66Z"/></g></g></svg>