<svg xmlns="http://www.w3.org/2000/svg" viewBox="0 0 24 24"><defs><style>.cls-1{opacity:0.3;}</style></defs><g id="finance"><g id="financial-schedule"><rect class="cls-1" x="2.01" y="2" width="20.03" height="20" rx="5.96"/><path d="M6.34,12.47h3.81a0,0,0,0,1,0,0v3.36A1.19,1.19,0,0,1,9,17H6.34a0,0,0,0,1,0,0V12.47A0,0,0,0,1,6.34,12.47Z" transform="translate(16.49 29.49) rotate(-180)"/><path d="M13.92,10.77h3.79a0,0,0,0,1,0,0V17a0,0,0,0,1,0,0h-2.6a1.19,1.19,0,0,1-1.19-1.19V10.77A0,0,0,0,1,13.92,10.77Z" transform="translate(31.63 27.79) rotate(-180)"/><path class="cls-1" d="M10.15,6.22h3.77a0,0,0,0,1,0,0v9.61A1.19,1.19,0,0,1,12.73,17H11.34a1.19,1.19,0,0,1-1.19-1.19V6.22a0,0,0,0,1,0,0Z" transform="translate(24.07 23.24) rotate(-180)"/></g></g></svg>