<svg xmlns="http://www.w3.org/2000/svg" viewBox="0 0 24 24"><defs><style>.cls-1{opacity:0.3;}</style></defs><g id="finance"><g id="lts"><path d="M16,14.57H13.2a.44.44,0,0,1-.42-.55l.41-1.48,2.5-.51a.74.74,0,0,0,.59-.88.76.76,0,0,0-.88-.59l-1.76.36.89-3.22a.87.87,0,0,0-.84-1.09H12.37a.86.86,0,0,0-.83.63L10.3,11.59l-2.51.5a.75.75,0,0,0,.15,1.49l.15,0,1.75-.35L9,16.29a.86.86,0,0,0,.83,1.1h5.82a.86.86,0,0,0,.82-.61l.33-1.09A.86.86,0,0,0,16,14.57Z"/><circle class="cls-1" cx="12" cy="12" r="10"/></g></g></svg>