<svg xmlns="http://www.w3.org/2000/svg" viewBox="0 0 24 24"><defs><style>.cls-1{opacity:0.3;}</style></defs><g id="finance"><g id="nexo"><path class="cls-1" d="M17,8.54,12.27,5.82,8.05,3.38a2.13,2.13,0,0,0-2.14,0L3,5.14A2.09,2.09,0,0,0,2,6.93v9.71a2.09,2.09,0,0,0,1,1.81L5.84,20.1a2.11,2.11,0,0,0,2.13,0l4.3-2.48L17,14.91Z"/><path d="M16,3.38,12,5.67l5,2.87v6.37L7,8.54v6.37l4.72,2.73,4.31,2.48a2.09,2.09,0,0,0,2.12,0L21,18.45a2.09,2.09,0,0,0,1-1.81V6.93a2.09,2.09,0,0,0-1-1.79L18.12,3.4A2.13,2.13,0,0,0,16,3.38Z"/></g></g></svg>