<svg xmlns="http://www.w3.org/2000/svg" viewBox="0 0 24 24"><defs><style>.cls-1{opacity:0.3;}</style></defs><g id="finance"><g id="ocean"><circle cx="12" cy="4.25" r="1.5"/><circle cx="12" cy="8.76" r="1.5"/><circle cx="7.75" cy="6.5" r="1.5"/><circle cx="16.25" cy="6.51" r="1.5"/><circle cx="16.25" cy="10.76" r="1.5"/><circle cx="20.5" cy="8.75" r="1.5"/><circle cx="12" cy="12.75" r="1.5"/><circle cx="7.75" cy="10.76" r="1.5"/><circle cx="3.5" cy="8.75" r="1.5"/><circle class="cls-1" cx="3.5" cy="12.75" r="1"/><circle class="cls-1" cx="7.75" cy="14.76" r="1"/><circle class="cls-1" cx="7.75" cy="14.76" r="1"/><circle class="cls-1" cx="12" cy="16.75" r="1"/><circle class="cls-1" cx="12" cy="16.75" r="1"/><circle class="cls-1" cx="16.25" cy="14.76" r="1"/><circle class="cls-1" cx="16.25" cy="14.76" r="1"/><circle class="cls-1" cx="20.5" cy="12.75" r="1"/><circle class="cls-1" cx="20.5" cy="12.75" r="1"/><circle class="cls-1" cx="3.5" cy="12.75" r="1"/><circle class="cls-1" cx="20.5" cy="15.75" r="0.75"/><circle class="cls-1" cx="16.25" cy="18.01" r="0.75"/><circle class="cls-1" cx="12" cy="20.25" r="0.75"/><circle class="cls-1" cx="7.75" cy="18" r="0.75"/><circle class="cls-1" cx="3.5" cy="15.75" r="0.75"/></g></g></svg>