<svg xmlns="http://www.w3.org/2000/svg" viewBox="0 0 24 24"><defs><style>.cls-1{opacity:0.3;}</style></defs><g id="finance"><g id="office-bag"><path class="cls-1" d="M20,15.66H4a2,2,0,0,1-2-2V9.18A2.52,2.52,0,0,1,4.52,6.66h15A2.52,2.52,0,0,1,22,9.18v4.48A2,2,0,0,1,20,15.66Z"/><path d="M20,15.66H4a2,2,0,0,1-1-.27v3.27a2,2,0,0,0,2,2H19a2,2,0,0,0,2-2V15.39A2,2,0,0,1,20,15.66Z"/><path d="M13.75,14.44H10.92a.75.75,0,0,1,0-1.5h2.83a.75.75,0,0,1,0,1.5Z"/><path d="M15.3,7.41a.75.75,0,0,1-.75-.75V6a1,1,0,0,0-1-1H11.15a1,1,0,0,0-1,1v.63a.75.75,0,0,1-1.5,0V6a2.52,2.52,0,0,1,2.52-2.52h2.37A2.52,2.52,0,0,1,16.05,6v.63A.75.75,0,0,1,15.3,7.41Z"/></g></g></svg>