<svg xmlns="http://www.w3.org/2000/svg" viewBox="0 0 24 24"><defs><style>.cls-1{opacity:0.3;}</style></defs><g id="finance"><g id="paypal"><path d="M7.15,20H5.06A.9.9,0,0,1,4.17,19L6.55,4.49A3,3,0,0,1,9.48,2H14.1A4.89,4.89,0,0,1,19,6.88V7A6.07,6.07,0,0,1,12.91,13h-3A.94.94,0,0,0,9,13.8l-.89,5.4A1,1,0,0,1,7.15,20Z"/><path class="cls-1" d="M11.18,22H8a.82.82,0,0,1-.8-1L9.42,8.9a2.71,2.71,0,0,1,2.73-2.1h4.29A4.34,4.34,0,0,1,21,10.92V11a5.4,5.4,0,0,1-5.64,5.12H14.16a1.32,1.32,0,0,0-1.31,1.1l-.73,4A1,1,0,0,1,11.18,22Z"/></g></g></svg>