<svg xmlns="http://www.w3.org/2000/svg" viewBox="0 0 24 24"><defs><style>.cls-1{opacity:0.3;}</style></defs><g id="finance"><g id="price-tag"><g class="cls-1"><path d="M3.06,6.65l-.14,5.09a4.89,4.89,0,0,0,1.45,3.63l4.56,4.57a4.5,4.5,0,0,0,6.37,0l4.77-4.77a4.5,4.5,0,0,0,0-6.37L15.46,4.19A5,5,0,0,0,11.8,2.74l-5,.17A3.84,3.84,0,0,0,3.06,6.65Z"/></g><circle cx="9.73" cy="9.43" r="2.8"/><path d="M12.6,17a.75.75,0,0,1-.54-1.28l4-4a.75.75,0,0,1,1.06,0,.74.74,0,0,1,0,1.06l-3.95,4A.74.74,0,0,1,12.6,17Z"/></g></g></svg>