<svg xmlns="http://www.w3.org/2000/svg" viewBox="0 0 24 24"><defs><style>.cls-1{opacity:0.3;}</style></defs><g id="finance"><g id="theta-_theta_" data-name="theta-(theta)"><path d="M15.13,6H8.87A1.87,1.87,0,0,0,7,7.87v8.26A1.87,1.87,0,0,0,8.87,18h6.26A1.87,1.87,0,0,0,17,16.13V7.87A1.87,1.87,0,0,0,15.13,6ZM14,13.88H12.75v2.06a.75.75,0,1,1-1.5,0V13.88H10a.75.75,0,0,1,0-1.5h4a.75.75,0,0,1,0,1.5Zm0-3H10a.75.75,0,0,1,0-1.5h1.26V8.06a.75.75,0,1,1,1.5,0V9.38H14a.75.75,0,0,1,0,1.5Z"/><path class="cls-1" d="M16.07,2H7.93A6,6,0,0,0,2,8V16a6,6,0,0,0,6,6h8.14a6,6,0,0,0,6-6V8A6,6,0,0,0,16.07,2ZM14,13.88H12.75v2.06a.75.75,0,1,1-1.5,0V13.88H10a.75.75,0,0,1,0-1.5h4a.75.75,0,0,1,0,1.5Zm0-3H10a.75.75,0,0,1,0-1.5h1.26V8.06a.75.75,0,1,1,1.5,0V9.38H14a.75.75,0,0,1,0,1.5Z"/></g></g></svg>