<svg xmlns="http://www.w3.org/2000/svg" viewBox="0 0 24 24"><defs><style>.cls-1{opacity:0.3;}</style></defs><g id="finance"><g id="two_credit_cart"><rect x="2" y="10.79" width="16.27" height="1.95"/><rect class="cls-1" x="2" y="7.92" width="16.27" height="11.39" rx="2.52"/><path d="M19.48,4.69H8.25A2.52,2.52,0,0,0,5.73,7.21v.71h10a2.52,2.52,0,0,1,2.52,2.52v5.64h1.21A2.52,2.52,0,0,0,22,13.56V7.21A2.52,2.52,0,0,0,19.48,4.69Z"/><path d="M15.7,16.31H14.49a.75.75,0,1,1,0-1.5H15.7a.75.75,0,0,1,0,1.5Z"/><path d="M7.45,16.31H4.57a.75.75,0,1,1,0-1.5H7.45a.75.75,0,0,1,0,1.5Z"/></g></g></svg>