<svg xmlns="http://www.w3.org/2000/svg" viewBox="0 0 24 24"><defs><style>.cls-1{opacity:0.3;}</style></defs><g id="finance"><g id="wallet"><rect class="cls-1" x="2" y="6.15" width="18.03" height="15" rx="3.71"/><path d="M18.94,15.7h2.13a.93.93,0,0,0,.93-.93V12.53a.93.93,0,0,0-.93-.93H18.94a2,2,0,0,0-2,2.05h0A2,2,0,0,0,18.94,15.7Z"/><path d="M2,9.85a3.71,3.71,0,0,1,3.71-3.7H15a3.37,3.37,0,0,0-3.38-3.3H5.39A3.38,3.38,0,0,0,2,6.23V9.85Z"/><path d="M11.89,11.33H5.73a.75.75,0,0,1,0-1.5h6.16a.75.75,0,0,1,0,1.5Z"/></g></g></svg>