<svg xmlns="http://www.w3.org/2000/svg" viewBox="0 0 24 24"><defs><style>.cls-1{opacity:0.3;}</style></defs><g id="finance"><g id="xmr"><path d="M17.46,15.16a.75.75,0,0,1-.75-.75V10.93L14,12.48v1.93a.75.75,0,0,1-1.5,0V12.05a.75.75,0,0,1,.38-.65L17.08,9a.72.72,0,0,1,.75,0,.75.75,0,0,1,.38.65v4.78A.76.76,0,0,1,17.46,15.16Zm-6-.79V12a.75.75,0,0,0-.38-.65L6.92,9a.72.72,0,0,0-.75,0,.75.75,0,0,0-.38.64v4.78a.75.75,0,0,0,1.5,0V10.89L10,12.45v1.92a.75.75,0,0,0,1.5,0Z"/><circle class="cls-1" cx="12" cy="12" r="10"/></g></g></svg>