<svg xmlns="http://www.w3.org/2000/svg" viewBox="0 0 24 24"><g id="car"><path id="airplane" d="M20.54,10.7,14.47,8.06a.62.62,0,0,1-.37-.56V4.2A1.65,1.65,0,0,0,13.62,3L13,2.4a1.33,1.33,0,0,0-1.9,0L10.5,3A1.65,1.65,0,0,0,10,4.2V7.44A.63.63,0,0,1,9.65,8L3.46,10.7a.89.89,0,0,0-.53.82v2.11a.89.89,0,0,0,1.25.82l5-2.17a.61.61,0,0,1,.86.56v3.25a.6.6,0,0,1-.23.48L7.45,18.48a.88.88,0,0,0-.32.67v2a.86.86,0,0,0,1.41.66l2.9-2.37a.84.84,0,0,1,1.06,0l2.91,2.37a.86.86,0,0,0,1.4-.66v-2a.88.88,0,0,0-.32-.67l-2.16-1.77a.58.58,0,0,1-.23-.47V12.9a.62.62,0,0,1,.86-.57l4.86,2.12a.89.89,0,0,0,1.25-.82V11.52A.89.89,0,0,0,20.54,10.7Z"/></g></svg>