<svg xmlns="http://www.w3.org/2000/svg" viewBox="0 0 24 24"><g id="car"><path id="airplane-square" d="M22,7.91A6,6,0,0,0,16,2L7.88,2A6,6,0,0,0,2,8l0,8.08A6,6,0,0,0,8,22l8.13,0a6,6,0,0,0,5.93-6Zm-3.2,5.31a.68.68,0,0,1-.94.62l-3.65-1.59a.46.46,0,0,0-.64.42v2.51a.46.46,0,0,0,.17.36l1.62,1.32a.67.67,0,0,1,.24.5v1.5a.65.65,0,0,1-1,.5l-2.19-1.78a.62.62,0,0,0-.79,0L9.4,19.36a.65.65,0,0,1-1.05-.5V17.37a.66.66,0,0,1,.23-.51l1.76-1.43a.46.46,0,0,0,.17-.36V12.63a.46.46,0,0,0-.64-.42L6.13,13.84a.68.68,0,0,1-.94-.62V11.64A.68.68,0,0,1,5.6,11l4.64-2a.45.45,0,0,0,.27-.42V6.15a1.25,1.25,0,0,1,.36-.88l.46-.47a1,1,0,0,1,1.43,0l.46.47a1.25,1.25,0,0,1,.36.88V8.62a.46.46,0,0,0,.27.42l4.55,2a.68.68,0,0,1,.41.62Z"/></g></svg>