<svg xmlns="http://www.w3.org/2000/svg" viewBox="0 0 24 24"><g id="car"><path id="bus" d="M4.69,8.5H19.31a.69.69,0,0,1,.69.69v2.62a.69.69,0,0,1-.69.69H4.69A.69.69,0,0,1,4,11.81V9.19A.69.69,0,0,1,4.69,8.5ZM20,4.69V6.81a.69.69,0,0,1-.69.69H4.69A.69.69,0,0,1,4,6.81V4.69A2.68,2.68,0,0,1,6.69,2H17.31A2.68,2.68,0,0,1,20,4.69ZM15.28,5a.76.76,0,0,0-.75-.75H9.66a.75.75,0,0,0,0,1.5h4.87A.76.76,0,0,0,15.28,5ZM20,14.19v5.12A2.68,2.68,0,0,1,17.31,22H6.69A2.68,2.68,0,0,1,4,19.31V14.19a.69.69,0,0,1,.69-.69H19.31A.69.69,0,0,1,20,14.19ZM9.25,17.5A1.25,1.25,0,1,0,8,18.75,1.25,1.25,0,0,0,9.25,17.5Zm8,0A1.25,1.25,0,1,0,16,18.75,1.25,1.25,0,0,0,17.25,17.5Z"/></g></svg>