<svg xmlns="http://www.w3.org/2000/svg" viewBox="0 0 24 24"><g id="car"><path id="car-2" data-name="car" d="M21.34,12.09a2.52,2.52,0,0,0-1.62-2.16,3,3,0,0,0-.43-.12,3.42,3.42,0,0,0-.46,0H5.16a2.73,2.73,0,0,0-.5.05h0a2.24,2.24,0,0,0-.46.14,2.52,2.52,0,0,0-1.53,2.12L2,19.94a1.46,1.46,0,0,0,1.45,1.57H7.09a1.45,1.45,0,0,0,1.45-1.37v-.08A1.45,1.45,0,0,1,10,18.69h3.65A1.46,1.46,0,0,1,15.1,20l0,.19a1.46,1.46,0,0,0,1.45,1.32h3.95A1.46,1.46,0,0,0,22,19.94ZM8.84,13.9h-3a.7.7,0,1,1,0-1.4H8.84a.7.7,0,1,1,0,1.4Zm9.4,0h-3a.7.7,0,1,1,0-1.4h3a.7.7,0,1,1,0,1.4ZM20.8,7.67a.7.7,0,0,1-.71.7H3.46a.7.7,0,0,1-.71-.7A.71.71,0,0,1,3.46,7H4.59L5,4.8A2.8,2.8,0,0,1,7.73,2.49h8.32A2.8,2.8,0,0,1,18.8,4.8L19.19,7h.9A.71.71,0,0,1,20.8,7.67Z"/></g></svg>