<svg xmlns="http://www.w3.org/2000/svg" viewBox="0 0 24 24"><g id="delivery"><path id="courier" d="M16.13,11.69a1.08,1.08,0,0,1-1.08,1.08H11.9v1.81L13,16.43a3.71,3.71,0,0,1,.5,1.89V20.9a1.08,1.08,0,1,1-2.16,0v-2A3.71,3.71,0,0,0,10.8,17L9.6,14.92v2.41a3.91,3.91,0,0,1-.33,1.54L8.15,21.34a1.08,1.08,0,1,1-2-.89L7.1,18.4a3.71,3.71,0,0,0,.33-1.54V13.91h0V8.14a1.5,1.5,0,0,1,1.5-1.5H10.4a1.5,1.5,0,0,1,1.5,1.5l.6,2.47h2.55A1.08,1.08,0,0,1,16.13,11.69Zm.75-6H14a1,1,0,0,0-1,1v2a1,1,0,0,0,1,1h2.93a1,1,0,0,0,1-1v-2A1,1,0,0,0,16.88,5.69Zm-7.2.95a1.86,1.86,0,0,0,1.85-1.86V4.69H13a.72.72,0,0,0,.69-.75A.73.73,0,0,0,13,3.19H11.4A1.85,1.85,0,0,0,8,3.19H8a1.93,1.93,0,0,0-.13.69v.9A1.86,1.86,0,0,0,9.68,6.64Z"/></g></svg>