<svg xmlns="http://www.w3.org/2000/svg" viewBox="0 0 24 24"><g id="delivery"><path id="courier-express-" d="M21,7.59H19.24a.94.94,0,0,0-.94.93v2.27H16.75l-.64-2.36A1.29,1.29,0,0,0,15.88,8a1.37,1.37,0,0,0-.45-.41L15,7.3a1.91,1.91,0,0,0,1.65-1.89V5.35H18a.71.71,0,1,0,0-1.41H16.56a1.9,1.9,0,0,0-3.63,0,1.81,1.81,0,0,0-.1.58v.89a1.82,1.82,0,0,0,.3,1,1.33,1.33,0,0,0-.4,0,1.39,1.39,0,0,0-.86.66L9,12.25l-.11.12L7.81,13.42h0l-5.39,5.4a1.22,1.22,0,0,0-.37.89A1.26,1.26,0,0,0,3.32,21a1.24,1.24,0,0,0,.89-.37L9.86,15l1.88,1.42L8.89,19.23a1.29,1.29,0,0,0,0,1.8,1.26,1.26,0,0,0,.9.37,1.24,1.24,0,0,0,.89-.37l3.87-3.87a1.26,1.26,0,0,0,.37-.9,1.24,1.24,0,0,0-.37-.89h0L13.29,14.1l1.18-2,0,.18a1.36,1.36,0,0,0,.24.55l0,0a1,1,0,0,0,.33.29l0,0s0,0,.07,0a.35.35,0,0,0,.14.06l.15.05h.05l.22,0H19.2a1.26,1.26,0,0,0,1.26-1.27s0,0,0-.06H21a.93.93,0,0,0,.93-.93V8.52A.93.93,0,0,0,21,7.59ZM20,11.1l.08.05ZM2,8.94a.75.75,0,0,1,.75-.75l5.75,0a.72.72,0,0,1,.75.75.74.74,0,0,1-.74.75l-5.76,0h0A.75.75,0,0,1,2,8.94Zm2.9-2.82a.75.75,0,0,1,.74-.76l2.85,0h0a.75.75,0,0,1,.75.74.74.74,0,0,1-.74.76l-2.85,0h0A.75.75,0,0,1,4.88,6.12Z"/></g></svg>