<svg xmlns="http://www.w3.org/2000/svg" viewBox="0 0 24 24"><g id="delivery"><path id="cube-3" d="M16.05,2H8A6,6,0,0,0,2,8v8.1A6,6,0,0,0,8,22h8.1A6,6,0,0,0,22,16.05V8A6,6,0,0,0,16.05,2ZM11.32,17.33a1,1,0,0,1-1.45.84L6.32,16.12a1,1,0,0,1-.48-.84v-4.1a1,1,0,0,1,1.45-.84l3.55,2.05a1,1,0,0,1,.48.84Zm.28-5.72L8,9.56A1,1,0,0,1,8,7.89l3.54-2.06a.94.94,0,0,1,1,0l3.56,2a1,1,0,0,1,0,1.67L12.57,11.6A1,1,0,0,1,11.6,11.61Zm6.56,3.67a1,1,0,0,1-.48.84l-3.55,2.05a1,1,0,0,1-1.45-.84v-4.1a1,1,0,0,1,.48-.84l3.55-2.05a1,1,0,0,1,1.45.84Z"/></g></svg>