<svg xmlns="http://www.w3.org/2000/svg" viewBox="0 0 24 24"><g id="delivery"><path id="deliveri" d="M13.19,14H1.87V5.88A3.88,3.88,0,0,1,5.75,2h7.44a1.68,1.68,0,0,1,1.68,1.68v8.64A1.68,1.68,0,0,1,13.19,14ZM7.87,18a2,2,0,1,0,2,2A2,2,0,0,0,7.87,18Zm8,0a2,2,0,1,0,2,2A2,2,0,0,0,15.87,18Zm2-5V10a1,1,0,0,1,1-1h1.43L19,6.48A2.77,2.77,0,0,0,16.5,5h-.63v7.32A2.68,2.68,0,0,1,13.19,15H1.87v2.22A2.78,2.78,0,0,0,4.65,20h.22a3,3,0,0,1,6,0h2a3,3,0,0,1,6,0h.48a2.78,2.78,0,0,0,2.78-2.78V14H18.86A1,1,0,0,1,17.87,13Z"/></g></svg>