<svg xmlns="http://www.w3.org/2000/svg" viewBox="0 0 24 24"><g id="delivery"><path id="delivery-3" d="M21.6,13.63l-6.52,6.65a3.68,3.68,0,0,1-1.2.77,2.46,2.46,0,0,1-1.21,0s-5.64-1.43-6-1.23a3.91,3.91,0,0,0-.73.62,1.29,1.29,0,0,1-1.8,0L2.36,18.74a1.29,1.29,0,0,1,0-1.82c.78-.82,1.93-2,2.87-3.09a2.9,2.9,0,0,1,2.52-1.14,1.61,1.61,0,0,1,.37,0l5.78,1.48a1.5,1.5,0,0,1,1.07,1.88h0a1.31,1.31,0,0,1-1.64,1l-2.44-.62a.73.73,0,1,0-.36,1.41l2.44.63a2.74,2.74,0,0,0,.7.09,2.81,2.81,0,0,0,2.72-2.12,3,3,0,0,0-.15-1.91l4.13-2.95a1.2,1.2,0,0,1,1.48.26C22.42,12.59,21.6,13.63,21.6,13.63ZM15.75,2.89H14.47v2a1.21,1.21,0,0,1-1.21,1.21h-.78a1.21,1.21,0,0,1-1.21-1.21v-2H10A1.59,1.59,0,0,0,8.41,4.48v5A1.59,1.59,0,0,0,10,11.06h5.76a1.59,1.59,0,0,0,1.58-1.59v-5A1.59,1.59,0,0,0,15.75,2.89Z"/></g></svg>