<svg xmlns="http://www.w3.org/2000/svg" viewBox="0 0 24 24"><g id="delivery"><path id="delivery-2" d="M16.2,7.38h0l1-.27a1.11,1.11,0,0,1,1.37.76l1.22,4.28A1.11,1.11,0,0,1,19,13.51l-4.49,1.27A1.09,1.09,0,0,1,13.15,14L11.93,9.74a1.1,1.1,0,0,1,.74-1.36l1-.29.48,1.68a.73.73,0,0,0,.88.49L16.14,10a.71.71,0,0,0,.49-.88l-.48-1.68ZM11.3,20.51h-.23a2.23,2.23,0,1,1,.23,0ZM11.18,19a.82.82,0,0,0,0-1.63.82.82,0,0,0,0,1.63ZM22,15a.75.75,0,0,0-.92-.51l-6.2,1.72a.74.74,0,0,0-.52.91.75.75,0,0,0,.72.55l.2,0,6.2-1.72A.75.75,0,0,0,22,15Zm-2.18,5.49H7.49a.75.75,0,0,0-.74.75.74.74,0,0,0,.74.74H19.81a.74.74,0,0,0,.74-.74A.75.75,0,0,0,19.81,20.51ZM6.83,3.92,9.72,14.33a.75.75,0,0,0,.72.55l.2,0a.74.74,0,0,0,.51-.91L8.07,2.81a.75.75,0,0,0-.92-.52l-1.31.36a.86.86,0,0,0-.67-.1l-2.51.63A.89.89,0,0,0,2,4.26l.07.24a.88.88,0,0,0,1.07.65l2.51-.64a.85.85,0,0,0,.55-.42ZM11.39,7.8a.91.91,0,0,0,1.13.62l.15,0h0l2.24-.63-1.22.34h0l2.44-.7h0l.06,0a.91.91,0,0,0,.62-1.12l-1-3.59A.91.91,0,0,0,14.68,2l-.84.23.41,1.41a.61.61,0,0,1-.41.73L13,4.66a.58.58,0,0,1-.72-.41l-.4-1.4L11,3.08a.91.91,0,0,0-.63,1.13Z"/></g></svg>