<svg xmlns="http://www.w3.org/2000/svg" viewBox="0 0 24 24"><g id="delivery"><path id="delivery-geolocation" d="M10.11,20.21a1.78,1.78,0,1,1-1.78-1.78A1.78,1.78,0,0,1,10.11,20.21Zm5.34-1.78a1.78,1.78,0,1,0,1.78,1.78A1.78,1.78,0,0,0,15.45,18.43Zm.28-11.36a5.06,5.06,0,0,1-1.28,3.38l-2.58,2.88a1.62,1.62,0,0,1-2.4,0L6.9,10.45a5.06,5.06,0,1,1,8.83-3.38Zm-3.16,0A1.9,1.9,0,1,0,10.67,9,1.9,1.9,0,0,0,12.57,7.07ZM6.32,9.66a5.34,5.34,0,0,1-.38-.8A5.34,5.34,0,0,0,6.32,9.66ZM5.68,7.9a5.17,5.17,0,0,0,.23.88A5.17,5.17,0,0,1,5.68,7.9Zm3.79,5.43a1.86,1.86,0,0,0,.26.23,1.86,1.86,0,0,1-.26-.23L6.9,10.45a4.6,4.6,0,0,1-.53-.72,4.6,4.6,0,0,0,.53.72ZM5.62,6.86h0a4.54,4.54,0,0,0,0,1A4.54,4.54,0,0,1,5.62,6.86Zm5.34,7a1.62,1.62,0,0,1-.62,0l.33,0A1.36,1.36,0,0,0,11,13.83Zm6.27.16V11.3a.88.88,0,0,1,.88-.88h1.27L18.19,8.18A2.45,2.45,0,0,0,16.73,7v.09a6,6,0,0,1-1.54,4L12.62,14a2.61,2.61,0,0,1-1.95.87A2.57,2.57,0,0,1,8.73,14L6.15,11.11A6,6,0,0,1,4.61,7,2.48,2.48,0,0,0,3,9.34v8.4a2.48,2.48,0,0,0,2.47,2.47h.09a2.78,2.78,0,1,1,5.56,0h1.56a2.78,2.78,0,0,1,5.56,0h.31A2.48,2.48,0,0,0,21,17.74V14.87h-2.9A.87.87,0,0,1,17.23,14Zm-1.5-6.92h0a5.1,5.1,0,0,1-.34,1.84A5.1,5.1,0,0,0,15.73,7.07ZM15,9.72a4.68,4.68,0,0,1-.53.73l-1.22,1.36,1.22-1.36A4.68,4.68,0,0,0,15,9.72Z"/></g></svg>