<svg xmlns="http://www.w3.org/2000/svg" viewBox="0 0 24 24"><g id="delivery"><path id="delivery-24" d="M4.46,8.31a1.16,1.16,0,0,1,1,.5L7.29,11.5a2.44,2.44,0,0,1,.1.42.85.85,0,0,1-.15.49s-.68.8-.89,1a.35.35,0,0,0-.08.43A13.24,13.24,0,0,0,10,17.59a.38.38,0,0,0,.46-.09,13,13,0,0,1,1-.89,1,1,0,0,1,.9-.05l2.71,1.85a3.17,3.17,0,0,1,.38.44,2.24,2.24,0,0,1-1.27,2.5c-1.54.9-3,.57-5.22-.68a16.72,16.72,0,0,1-6.08-6.31c-1.32-2.59-1.09-4.25.17-5.42A2.15,2.15,0,0,1,4.46,8.31Zm12.26,2.26V9.28l-.93,1.29ZM13.33,2.14a8.68,8.68,0,0,0-8,5.32,2.54,2.54,0,0,1,1,.79l1.82,2.69.07.11.05.13a3.71,3.71,0,0,1,.14.62A1.84,1.84,0,0,1,8.07,13l0,0,0,0c0,.06-.34.41-.6.71a13.3,13.3,0,0,0,2.71,2.7,9.58,9.58,0,0,1,.77-.66,1.75,1.75,0,0,1,1-.33,2.2,2.2,0,0,1,.85.17l.09,0,.07.05,2.71,1.86.06,0,0,.05a3.64,3.64,0,0,1,.54.63,1.49,1.49,0,0,1,.19.56A8.66,8.66,0,0,0,13.33,2.14Zm.06,10.67a.27.27,0,0,1-.27.27H9.79a.27.27,0,0,1-.27-.27v-.43a.27.27,0,0,1,.08-.19l.55-.54C11.46,10.4,12,9.77,12,9.11a.66.66,0,0,0-.75-.75,1.54,1.54,0,0,0-.95.38.27.27,0,0,1-.23,0,.23.23,0,0,1-.18-.15l-.22-.49a.26.26,0,0,1,.07-.32,2.56,2.56,0,0,1,1.65-.59A1.72,1.72,0,0,1,13.26,9c0,1.08-.78,1.94-1.82,2.94h1.68a.27.27,0,0,1,.27.27Zm5.26-1.42a.27.27,0,0,1-.27.27h-.46v1.15a.27.27,0,0,1-.27.27H17a.27.27,0,0,1-.27-.27V11.66H14.56a.27.27,0,0,1-.26-.27v-.46a.29.29,0,0,1,0-.16l2.33-3.33a.27.27,0,0,1,.22-.11h.76a.27.27,0,0,1,.27.27v3h.46a.27.27,0,0,1,.27.27Z"/></g></svg>