<svg xmlns="http://www.w3.org/2000/svg" viewBox="0 0 24 24"><g id="delivery"><path id="delivery-time" d="M9.87,20a2,2,0,1,1-2-2A2,2,0,0,1,9.87,20Zm6-2a2,2,0,1,0,2,2A2,2,0,0,0,15.87,18Zm2-5V10a1,1,0,0,1,1-1h1.43L19,6.48A2.77,2.77,0,0,0,16.5,5h-.32A6.25,6.25,0,1,1,4.53,5,2.78,2.78,0,0,0,1.87,7.78v9.44A2.78,2.78,0,0,0,4.65,20h.22a3,3,0,0,1,6,0h2a3,3,0,0,1,6,0h.48a2.78,2.78,0,0,0,2.78-2.78V14H18.86A1,1,0,0,1,17.87,13ZM15.61,7.25A5.25,5.25,0,1,1,10.36,2,5.25,5.25,0,0,1,15.61,7.25Zm-4.5-2.31a.75.75,0,0,0-1.5,0V6.79L8.12,8A.76.76,0,0,0,8,9a.77.77,0,0,0,.59.28.72.72,0,0,0,.46-.16l1.77-1.41a.75.75,0,0,0,.29-.59Z"/></g></svg>