<svg xmlns="http://www.w3.org/2000/svg" viewBox="0 0 24 24"><g id="delivery"><path id="courier" d="M19.54,12.54h-.67l0,0L13.5,7.42a2.35,2.35,0,0,0-.75-4.06v-1a.75.75,0,0,0-1.5,0V4a.75.75,0,0,0,.75.75.87.87,0,0,1,.87.87.86.86,0,0,1-.51.78.71.71,0,0,0-.72,0,.86.86,0,0,1-.51-.78.75.75,0,0,0-1.5,0,2.36,2.36,0,0,0,.87,1.82L5.16,12.5l0,0H4.46a1.11,1.11,0,0,0-1.11,1.1v6.85A1.11,1.11,0,0,0,4.46,21.6H19.54a1.11,1.11,0,0,0,1.11-1.11V13.64A1.11,1.11,0,0,0,19.54,12.54ZM7.09,19.28a.75.75,0,0,1-1.5,0V14.62a.75.75,0,0,1,1.5,0Zm3.77,0a.75.75,0,0,1-1.5,0V14.62a.75.75,0,1,1,1.5,0Zm3.78,0a.75.75,0,0,1-1.5,0V14.62a.75.75,0,1,1,1.5,0ZM7.3,12.54,12,8.06l4.7,4.48Zm11.11,6.74a.75.75,0,0,1-1.5,0V14.62a.75.75,0,0,1,1.5,0Z"/></g></svg>