<svg xmlns="http://www.w3.org/2000/svg" viewBox="0 0 24 24"><g id="delivery"><path id="parcel" d="M5.6,9.81l4.74,2.73a2.09,2.09,0,0,1,1,1.81v5.47a2.09,2.09,0,0,1-3.13,1.8L3.51,18.89a2.1,2.1,0,0,1-1-1.81V11.61A2.09,2.09,0,0,1,5.6,9.81Zm12.8,0-1.11.64,0,2.64a.75.75,0,0,1-.74.75h0a.75.75,0,0,1-.75-.74V11.31l-2.14,1.23a2.09,2.09,0,0,0-1,1.81v5.47a2.09,2.09,0,0,0,3.13,1.8l4.74-2.73a2.1,2.1,0,0,0,1-1.81V11.61A2.09,2.09,0,0,0,18.4,9.81ZM17.78,5.1,13,2.37a2.06,2.06,0,0,0-2.08,0L8.45,3.83,17.28,9h0l.51-.3A2.08,2.08,0,0,0,17.78,5.1Zm-2,4.75L7,4.7l-.74.43a2.08,2.08,0,0,0,0,3.6L11,11.46a2.09,2.09,0,0,0,2.08,0l2.74-1.59Z"/></g></svg>