<svg xmlns="http://www.w3.org/2000/svg" viewBox="0 0 24 24"><g id="delivery"><path id="parcel-tracking" d="M7.75,11.09a4.43,4.43,0,0,0-4.43,4.43,4.39,4.39,0,0,0,.5,2L2.28,18.81a.75.75,0,0,0,.48,1.32A.72.72,0,0,0,3.24,20l1.47-1.23a4.42,4.42,0,1,0,3-7.64Zm0,7.36a2.93,2.93,0,1,1,2.92-2.93A2.93,2.93,0,0,1,7.75,18.45ZM22,7.55v8.9a3.78,3.78,0,0,1-3.78,3.78H10.43A5.42,5.42,0,1,0,4.79,11V7.55A3.78,3.78,0,0,1,8.57,3.77h1.75V8.36a1.87,1.87,0,0,0,1.87,1.87h2.4a1.88,1.88,0,0,0,1.88-1.87V3.77h1.74A3.78,3.78,0,0,1,22,7.55Z"/></g></svg>