<svg xmlns="http://www.w3.org/2000/svg" viewBox="0 0 24 24"><g id="setting"><path id="category" d="M7.73,11.29H4.83A3.59,3.59,0,0,1,1.25,7.71V4.8A3.58,3.58,0,0,1,4.83,1.23h2.9A3.58,3.58,0,0,1,11.31,4.8V7.71A3.59,3.59,0,0,1,7.73,11.29ZM4.83,2.73A2.08,2.08,0,0,0,2.75,4.8V7.71A2.08,2.08,0,0,0,4.83,9.79h2.9A2.08,2.08,0,0,0,9.81,7.71V4.8A2.08,2.08,0,0,0,7.73,2.73Zm14.34,8.59h-2.9a3.58,3.58,0,0,1-3.58-3.58V4.84a3.59,3.59,0,0,1,3.58-3.58h2.9a3.59,3.59,0,0,1,3.58,3.58v2.9A3.58,3.58,0,0,1,19.17,11.32Zm-2.9-8.56a2.08,2.08,0,0,0-2.08,2.08v2.9a2.08,2.08,0,0,0,2.08,2.08h2.9a2.08,2.08,0,0,0,2.08-2.08V4.84a2.08,2.08,0,0,0-2.08-2.08Zm-8.54,20H4.83a3.59,3.59,0,0,1-3.58-3.58v-2.9a3.58,3.58,0,0,1,3.58-3.58h2.9a3.58,3.58,0,0,1,3.58,3.58v2.9A3.59,3.59,0,0,1,7.73,22.74Zm-2.9-8.56a2.08,2.08,0,0,0-2.08,2.08v2.9a2.08,2.08,0,0,0,2.08,2.08h2.9a2.08,2.08,0,0,0,2.08-2.08v-2.9a2.08,2.08,0,0,0-2.08-2.08Zm14.34,8.59h-2.9a3.58,3.58,0,0,1-3.58-3.57V16.29a3.59,3.59,0,0,1,3.58-3.58h2.9a3.59,3.59,0,0,1,3.58,3.58V19.2A3.58,3.58,0,0,1,19.17,22.77Zm-2.9-8.56a2.08,2.08,0,0,0-2.08,2.08V19.2a2.08,2.08,0,0,0,2.08,2.07h2.9a2.08,2.08,0,0,0,2.08-2.07V16.29a2.08,2.08,0,0,0-2.08-2.08Z"/></g></svg>