<svg xmlns="http://www.w3.org/2000/svg" viewBox="0 0 24 24"><g id="setting"><path id="more-2" d="M17,22.75H7A5.74,5.74,0,0,1,1.25,17V7A5.74,5.74,0,0,1,7,1.25H17A5.74,5.74,0,0,1,22.75,7V17A5.74,5.74,0,0,1,17,22.75ZM7,2.75A4.24,4.24,0,0,0,2.75,7V17A4.24,4.24,0,0,0,7,21.25H17A4.24,4.24,0,0,0,21.25,17V7A4.24,4.24,0,0,0,17,2.75Zm5,4.94A1.31,1.31,0,1,0,13.31,9,1.31,1.31,0,0,0,12,7.69Zm-3.69,6A1.31,1.31,0,1,0,9.62,15,1.31,1.31,0,0,0,8.31,13.69Zm7.38,0A1.31,1.31,0,1,0,17,15,1.31,1.31,0,0,0,15.69,13.69Z"/></g></svg>