<svg xmlns="http://www.w3.org/2000/svg" viewBox="0 0 24 24"><g id="weather"><path d="M12,22.26a4.78,4.78,0,0,1-2.41-.64L4.88,18.9a4.84,4.84,0,0,1-2.42-4.18V9.28A4.84,4.84,0,0,1,4.88,5.1L9.59,2.38a4.82,4.82,0,0,1,4.82,0L19.12,5.1a4.84,4.84,0,0,1,2.42,4.18v5.44a4.84,4.84,0,0,1-2.42,4.18l-4.71,2.72A4.81,4.81,0,0,1,12,22.26Zm0-19a3.25,3.25,0,0,0-1.66.44L5.63,6.4A3.33,3.33,0,0,0,4,9.28v5.44A3.33,3.33,0,0,0,5.63,17.6l4.71,2.72a3.33,3.33,0,0,0,3.32,0l4.71-2.72A3.33,3.33,0,0,0,20,14.72V9.28A3.33,3.33,0,0,0,18.37,6.4L13.66,3.68A3.25,3.25,0,0,0,12,3.24Z"/><path d="M12,16.08A4.08,4.08,0,1,1,16.08,12,4.08,4.08,0,0,1,12,16.08Zm0-6.66A2.58,2.58,0,1,0,14.58,12,2.59,2.59,0,0,0,12,9.42Z"/></g></svg>