<svg xmlns="http://www.w3.org/2000/svg" viewBox="0 0 24 24"><g id="setting"><path id="setting-2" d="M8.75,22.15a2.67,2.67,0,0,1-1.3-.35l-1.63-.95a2.57,2.57,0,0,1-1.21-1.58,2.61,2.61,0,0,1,.26-2l.44-.75a8.49,8.49,0,0,1-.58-1h-.9a2.6,2.6,0,0,1-2.59-2.61V11A2.54,2.54,0,0,1,2,9.21a2.56,2.56,0,0,1,1.83-.75h.88a7.83,7.83,0,0,1,.59-1l-.44-.79a2.58,2.58,0,0,1,1-3.54L7.5,2.19a2.6,2.6,0,0,1,3.54,1l.43.75a9.37,9.37,0,0,1,1.06,0L13,3.15a2.6,2.6,0,0,1,1.58-1.21,2.56,2.56,0,0,1,2,.26l1.63.94a2.6,2.6,0,0,1,.95,3.55l-.43.76a7.66,7.66,0,0,1,.6,1h.9a2.61,2.61,0,0,1,2.58,2.62V13a2.61,2.61,0,0,1-2.6,2.58h-.89a8.87,8.87,0,0,1-.55.94l.45.79a2.6,2.6,0,0,1-1,3.54l-1.64.94a2.59,2.59,0,0,1-3.54-1l-.44-.75a7,7,0,0,1-1.12,0l-.46.78A2.6,2.6,0,0,1,8.75,22.15ZM3.85,10a1.13,1.13,0,0,0-.78.31,1.1,1.1,0,0,0-.32.78v1.88A1.1,1.1,0,0,0,3.83,14H5.21a.73.73,0,0,1,.69.46A7,7,0,0,0,6.8,16a.78.78,0,0,1,.06.84l-.69,1.17a1.17,1.17,0,0,0-.11.84,1.09,1.09,0,0,0,.51.66l1.63.95a1.07,1.07,0,0,0,.84.11,1.14,1.14,0,0,0,.67-.51l.69-1.2a.77.77,0,0,1,.75-.37,7.23,7.23,0,0,0,1.74,0,.73.73,0,0,1,.75.36l.68,1.18a1.1,1.1,0,0,0,1.5.41l1.63-.94a1.07,1.07,0,0,0,.52-.66,1.17,1.17,0,0,0-.11-.84l-.69-1.2a.76.76,0,0,1,0-.83,6.75,6.75,0,0,0,.87-1.48.7.7,0,0,1,.69-.47l1.36,0A1.12,1.12,0,0,0,21.25,13V11.1a1.1,1.1,0,0,0-.32-.78,1.07,1.07,0,0,0-.77-.33H18.79a.76.76,0,0,1-.69-.47A6.57,6.57,0,0,0,17.19,8a.76.76,0,0,1-.05-.84l.68-1.18a1.1,1.1,0,0,0-.41-1.5L15.78,3.5A1.05,1.05,0,0,0,15,3.39a1.12,1.12,0,0,0-.67.51l-.69,1.2a.75.75,0,0,1-.75.37,6.83,6.83,0,0,0-1.69,0,.74.74,0,0,1-.74-.37L9.74,3.91a1.11,1.11,0,0,0-1.5-.41L6.6,4.42a1.11,1.11,0,0,0-.42,1.5l.68,1.21A.74.74,0,0,1,6.8,8,7,7,0,0,0,5.9,9.5a.74.74,0,0,1-.69.46H3.85ZM12,16a4,4,0,1,1,4-4A4,4,0,0,1,12,16Zm0-6.5a2.5,2.5,0,1,0,2.5,2.5A2.5,2.5,0,0,0,12,9.5Z"/></g></svg>