<svg xmlns="http://www.w3.org/2000/svg" viewBox="0 0 24 24"><g id="setting"><path id="setting-3" d="M16.87,22.75H7.13a5.89,5.89,0,0,1-5.88-5.88V7.13A5.88,5.88,0,0,1,7.13,1.26h9.74a5.87,5.87,0,0,1,5.87,5.87v9.74A5.88,5.88,0,0,1,16.87,22.75Zm-9.74-20A4.38,4.38,0,0,0,2.75,7.13v9.74a4.39,4.39,0,0,0,4.38,4.38h9.74a4.38,4.38,0,0,0,4.37-4.38V7.13a4.37,4.37,0,0,0-4.37-4.37ZM8.42,9.15a.76.76,0,0,0,.75-.75V5.5a.75.75,0,0,0-1.5,0V8.4A.76.76,0,0,0,8.42,9.15Zm0,1.25a3.48,3.48,0,0,0-.75,6.87v1.24a.74.74,0,0,0,.75.74h0a.76.76,0,0,0,.75-.75V17.27a3.48,3.48,0,0,0-.75-6.87Zm0,5.46a2,2,0,1,1,2-2A2,2,0,0,1,8.42,15.86Zm7.16-1a.76.76,0,0,0-.75.75v2.9a.75.75,0,0,0,1.5,0V15.6A.76.76,0,0,0,15.58,14.85Zm.75-8.12V5.5a.76.76,0,0,0-.75-.75h0a.74.74,0,0,0-.75.74V6.73a3.48,3.48,0,1,0,1.5,0Zm-.75,5.37a2,2,0,1,1,2-2A2,2,0,0,1,15.58,12.1Z"/></g></svg>