<svg xmlns="http://www.w3.org/2000/svg" viewBox="0 0 24 24"><g id="setting"><path id="setting-4" d="M10.13,2.26a4.68,4.68,0,0,0-4.6,3.93H2.78A.75.75,0,0,0,2,6.91a.76.76,0,0,0,.75.76H5.45l.08,0a4.66,4.66,0,1,0,4.6-5.4Zm0,7.83A3.17,3.17,0,1,1,13.3,6.93,3.17,3.17,0,0,1,10.13,10.09Zm6.51-2.41a.75.75,0,0,1-.75-.75.73.73,0,0,1,.74-.75h4.59a.75.75,0,0,1,.75.74.76.76,0,0,1-.75.76Zm4.58,8.63h0l-2.67,0h-.07a4.68,4.68,0,1,0,0,1.47l.08,0h0l2.67,0a.75.75,0,0,0,.75-.75A.76.76,0,0,0,21.22,16.31Zm-7.35,3.94A3.17,3.17,0,1,1,17,17.08,3.18,3.18,0,0,1,13.87,20.25ZM7.36,17.83h0l-4.58,0A.75.75,0,0,1,2,17.06a.76.76,0,0,1,.75-.75h0l4.58,0a.73.73,0,0,1,.74.75A.75.75,0,0,1,7.36,17.83Z"/></g></svg>