<svg xmlns="http://www.w3.org/2000/svg" viewBox="0 0 24 24"><g id="setting"><path id="toggle-on" d="M17.83,20.94H6.17A4.92,4.92,0,0,1,1.25,16V8A4.92,4.92,0,0,1,6.17,3.06H17.83A4.92,4.92,0,0,1,22.75,8v8A4.92,4.92,0,0,1,17.83,20.94ZM6.17,4.56A3.42,3.42,0,0,0,2.75,8v8a3.42,3.42,0,0,0,3.42,3.42H17.83A3.42,3.42,0,0,0,21.25,16V8a3.42,3.42,0,0,0-3.42-3.42ZM16.24,16.88H12.41a3.26,3.26,0,0,1-3.25-3.25V10a3.26,3.26,0,0,1,3.25-3.25h3.83A3.26,3.26,0,0,1,19.49,10v3.6A3.26,3.26,0,0,1,16.24,16.88Zm-3.83-8.6A1.75,1.75,0,0,0,10.66,10v3.6a1.75,1.75,0,0,0,1.75,1.75h3.83A1.76,1.76,0,0,0,18,13.63V10a1.75,1.75,0,0,0-1.75-1.75Z"/></g></svg>