<svg xmlns="http://www.w3.org/2000/svg" viewBox="0 0 24 24"><g id="security"><path id="eye-slash" d="M21.66,2.38a.77.77,0,0,0-1.07,0L17.21,5.75A9.92,9.92,0,0,0,12,4.05c-4.73,0-10,4.62-10,8.56C2,14.38,3.18,16.38,4.91,18L2.35,20.55a.76.76,0,0,0,0,1.07.76.76,0,0,0,1.07,0L21.65,3.45A.76.76,0,0,0,21.66,2.38Zm-14,10.23a4.3,4.3,0,0,1,6.46-3.77L13,10a2.73,2.73,0,0,0-1-.2,2.86,2.86,0,0,0-2.85,2.85,2.89,2.89,0,0,0,.19,1L8.22,14.7A4.22,4.22,0,0,1,7.65,12.61Zm14.35,0c0,4-5,8.56-10,8.56a9.56,9.56,0,0,1-4.67-1.38l3.14-3.12a4.32,4.32,0,0,0,5.88-4.06,4.22,4.22,0,0,0-.29-1.51l3.48-3.47A7.65,7.65,0,0,1,22,12.61ZM11.71,15.43l3.11-3.09a2.48,2.48,0,0,1,0,.27A2.85,2.85,0,0,1,12,15.46,2.85,2.85,0,0,1,11.71,15.43Z"/></g></svg>