<svg xmlns="http://www.w3.org/2000/svg" viewBox="0 0 24 24"><g id="security"><path id="key-square" d="M14.9,10.55a1.45,1.45,0,1,1-1.44-1.44A1.44,1.44,0,0,1,14.9,10.55ZM22,7.16v9.68A5.15,5.15,0,0,1,16.84,22H7.16A5.15,5.15,0,0,1,2,16.84V7.16A5.16,5.16,0,0,1,7.16,2h9.68A5.16,5.16,0,0,1,22,7.16Zm-4.14,3.39a4.41,4.41,0,0,0-8.81,0,4.51,4.51,0,0,0,.21,1.33l-2.9,2.9a.79.79,0,0,0-.21.69l.29,1.47a.77.77,0,0,0,.6.61l1.49.29a.75.75,0,0,0,.68-.21L9.87,17l-1.07-1a.75.75,0,0,1,0-1.06.75.75,0,0,1,1.06,0l1.1,1.05,1.18-1.17a4.29,4.29,0,0,0,1.35.21A4.4,4.4,0,0,0,17.86,10.55Z"/></g></svg>