<svg xmlns="http://www.w3.org/2000/svg" viewBox="0 0 24 24"><g id="security"><path id="lock-2" d="M18.09,9.45l.19,0V7.42A5.44,5.44,0,0,0,12.85,2h-1.7A5.44,5.44,0,0,0,5.72,7.42V9.47l.19,0A3.91,3.91,0,0,0,2,13.36V18.1A3.91,3.91,0,0,0,5.91,22H18.09A3.91,3.91,0,0,0,22,18.1V13.36A3.91,3.91,0,0,0,18.09,9.45Zm-10.87-2a3.93,3.93,0,0,1,3.93-3.93h1.7a3.93,3.93,0,0,1,3.93,3.93v2H7.22ZM8,16.35a1,1,0,1,1,1-1A1,1,0,0,1,8,16.35Zm4,0a1,1,0,1,1,1-1A1,1,0,0,1,12,16.35Zm4,0a1,1,0,1,1,1-1A1,1,0,0,1,16,16.35Z"/></g></svg>