<svg xmlns="http://www.w3.org/2000/svg" viewBox="0 0 24 24"><g id="security"><path id="lock" d="M13.63,15.73A1.63,1.63,0,1,1,12,14.1,1.63,1.63,0,0,1,13.63,15.73ZM22,13.36V18.1A3.91,3.91,0,0,1,18.09,22H5.91A3.91,3.91,0,0,1,2,18.1V13.36A3.9,3.9,0,0,1,5.72,9.47V7.42A5.44,5.44,0,0,1,11.15,2h1.7a5.44,5.44,0,0,1,5.43,5.43V9.47A3.9,3.9,0,0,1,22,13.36ZM7.22,7.42v2h9.56v-2a3.93,3.93,0,0,0-3.93-3.93h-1.7A3.93,3.93,0,0,0,7.22,7.42Zm7.91,8.31A3.13,3.13,0,1,0,12,18.86,3.13,3.13,0,0,0,15.13,15.73Z"/></g></svg>