<svg xmlns="http://www.w3.org/2000/svg" viewBox="0 0 24 24"><g id="security"><path id="scan-barcode" d="M9.29,10.75H6.71A1.46,1.46,0,0,1,5.25,9.29V6.71A1.46,1.46,0,0,1,6.71,5.25H9.29a1.46,1.46,0,0,1,1.46,1.46V9.29A1.46,1.46,0,0,1,9.29,10.75Zm9.46-1.46V6.71a1.46,1.46,0,0,0-1.46-1.46H14.71a1.46,1.46,0,0,0-1.46,1.46V9.29a1.46,1.46,0,0,0,1.46,1.46h2.58A1.46,1.46,0,0,0,18.75,9.29Zm-8,8V14.71a1.46,1.46,0,0,0-1.46-1.46H6.71a1.46,1.46,0,0,0-1.46,1.46v2.58a1.46,1.46,0,0,0,1.46,1.46H9.29A1.46,1.46,0,0,0,10.75,17.29Zm8,0V14.71a1.46,1.46,0,0,0-1.46-1.46H14.71a1.46,1.46,0,0,0-1.46,1.46v2.58a1.46,1.46,0,0,0,1.46,1.46h2.58A1.46,1.46,0,0,0,18.75,17.29ZM2.68,9V6.25A3.57,3.57,0,0,1,6.24,2.68H8.56a.75.75,0,0,0,0-1.5H6.24A5.07,5.07,0,0,0,1.18,6.25V9a.75.75,0,0,0,1.5,0ZM22.82,9V6.25a5.07,5.07,0,0,0-5.07-5.07H14.57a.75.75,0,1,0,0,1.5h3.18a3.57,3.57,0,0,1,3.57,3.57V9a.75.75,0,0,0,1.5,0ZM9.31,22.07a.76.76,0,0,0-.75-.75H6.24a3.57,3.57,0,0,1-3.56-3.57V15a.75.75,0,0,0-1.5,0v2.75a5.07,5.07,0,0,0,5.06,5.07H8.56A.76.76,0,0,0,9.31,22.07Zm13.51-4.32V15a.75.75,0,0,0-1.5,0v2.75a3.57,3.57,0,0,1-3.57,3.57H14.57a.75.75,0,0,0,0,1.5h3.18A5.07,5.07,0,0,0,22.82,17.75Z"/></g></svg>