<svg xmlns="http://www.w3.org/2000/svg" viewBox="0 0 24 24"><g id="security"><path id="shield-cross" d="M18,4.41l-4.6-2.1a3.39,3.39,0,0,0-2.82,0L6,4.41A3.39,3.39,0,0,0,4,7.5v7.35a3.39,3.39,0,0,0,1.25,2.63l4.59,3.75a3.38,3.38,0,0,0,4.3,0l4.59-3.75A3.39,3.39,0,0,0,20,14.85V7.5A3.39,3.39,0,0,0,18,4.41Zm-3.49,9a.75.75,0,0,1,0,1.06.76.76,0,0,1-.54.22.77.77,0,0,1-.53-.21L12,13.05l-1.47,1.44a.73.73,0,0,1-.52.21.76.76,0,0,1-.54-.22.75.75,0,0,1,0-1.06L10.93,12,9.48,10.58a.75.75,0,1,1,1-1.07L12,11l1.46-1.44a.77.77,0,0,1,1.07,0,.75.75,0,0,1,0,1.06L13.07,12Z"/></g></svg>