<svg xmlns="http://www.w3.org/2000/svg" viewBox="0 0 24 24"><g id="social-media"><path id="dribbble" d="M13,7.35A44.4,44.4,0,0,0,10.36,3a.66.66,0,0,1,.46-1A9.28,9.28,0,0,1,12,1.91a10.06,10.06,0,0,1,6,2,.64.64,0,0,1,.05,1,16.15,16.15,0,0,1-4.16,2.77A.67.67,0,0,1,13,7.35Zm-2,.53A44.57,44.57,0,0,0,8.09,3.29a.64.64,0,0,0-.82-.19A10.09,10.09,0,0,0,2.41,8.9a.65.65,0,0,0,.6.87,28.27,28.27,0,0,0,7.63-.95A.65.65,0,0,0,11,7.88Zm4.5,3.47a15.83,15.83,0,0,1,5.7.17.66.66,0,0,0,.79-.73A10,10,0,0,0,20.4,6.41a.65.65,0,0,0-1-.08,17.76,17.76,0,0,1-4.58,3.09.65.65,0,0,0-.32.86l.32.69A.64.64,0,0,0,15.53,11.35Zm-2.75,0-.18-.39a.66.66,0,0,0-.78-.34,29.08,29.08,0,0,1-8.42,1.2H2.6a.65.65,0,0,0-.66.67,10.75,10.75,0,0,0,.27,2A10.18,10.18,0,0,0,3.83,17.9a.66.66,0,0,0,1.06,0,18.41,18.41,0,0,1,7.52-5.74A.65.65,0,0,0,12.78,11.32Zm3.3,2.77a41.63,41.63,0,0,1,1.47,5.16.66.66,0,0,0,1.07.37,10.11,10.11,0,0,0,3.19-5.24.67.67,0,0,0-.49-.78,14.51,14.51,0,0,0-4.67-.38A.66.66,0,0,0,16.08,14.09ZM13.21,14a15.83,15.83,0,0,0-7,5.46.64.64,0,0,0,.15.91,10.11,10.11,0,0,0,9,1.15.66.66,0,0,0,.42-.74A38.46,38.46,0,0,0,14,14.38.66.66,0,0,0,13.21,14Z"/></g></svg>