<svg xmlns="http://www.w3.org/2000/svg" viewBox="0 0 24 24"><g id="social-media"><path id="snapchat" d="M12,2A10,10,0,1,0,22,12,10,10,0,0,0,12,2Zm4.73,13.55c-.62.09-.67.31-.71.44s0,.43-.48.42a3.37,3.37,0,0,0-2.09.62,2.75,2.75,0,0,1-3-.06,2.94,2.94,0,0,0-1.68-.55c-.19,0-.59,0-.72-.14s0-.36-.16-.49a5.73,5.73,0,0,0-1.07-.41c-.29-.12-.64-.22.11-.59a4,4,0,0,0,1.43-1.21,2.41,2.41,0,0,0,.53-1.31c0-.19-.47-.43-.88-.71s-.63-.55-.41-.83.6-.07,1,.08.35.08.36,0V9.31a2.75,2.75,0,0,1,2.75-2.75h.44A2.75,2.75,0,0,1,15,9.31V10.6c0,.43.31.23.74.07s.75,0,.75.34-.82.77-1.14,1-.35.31.08,1.22a4.16,4.16,0,0,0,1.9,1.7C17.8,15.22,17.36,15.47,16.73,15.55Z"/></g></svg>