<svg xmlns="http://www.w3.org/2000/svg" viewBox="0 0 24 24"><g id="social-media"><g id="tiktok"><path d="M20.07,7.28a1.11,1.11,0,0,0-.85-.77,4.48,4.48,0,0,1-1.48-.58l-.07,0a4.58,4.58,0,0,1-2-2.95s0-.08,0-.12A1.13,1.13,0,0,0,14.53,2h-1.3a1,1,0,0,0-1,1V15.13a2.78,2.78,0,0,1-2.78,2.76,2.7,2.7,0,0,1-1.24-.29h0a2.78,2.78,0,0,1-1.53-2.48,2.83,2.83,0,0,1,2.67-2.77,1,1,0,0,0,.95-1V10.07a.71.71,0,0,0,0-.2,1,1,0,0,0-1-.8,3.94,3.94,0,0,0-.52,0A6.07,6.07,0,0,0,6.08,20.17l0,0a6,6,0,0,0,3.87,1,6.23,6.23,0,0,0,5.56-6.27V8.42a7.69,7.69,0,0,0,3.51,1.39,1,1,0,0,0,1.07-.94V7.57A1.25,1.25,0,0,0,20.07,7.28Z"/></g></g></svg>