<svg xmlns="http://www.w3.org/2000/svg" viewBox="0 0 24 24"><defs><style>.cls-1{isolation:isolate;}</style></defs><g id="social-media"><path id="whatsapp" class="cls-1" d="M22,11.41A10,10,0,1,0,3.33,17l-.89,3.31a1,1,0,0,0,.12.78.92.92,0,0,0,.34.34,1,1,0,0,0,.77.1l3.27-.9A10,10,0,0,0,12,22,10.15,10.15,0,0,0,22,11.41ZM16,16.66c-1.14.66-2.25.42-3.88-.51a12.55,12.55,0,0,1-4.51-4.68c-1-1.93-.81-3.16.13-4a1.58,1.58,0,0,1,1-.48.89.89,0,0,1,.75.37l1.35,2a1.84,1.84,0,0,1,.07.31.68.68,0,0,1-.11.37s-.5.59-.66.76a.24.24,0,0,0-.06.31,9.47,9.47,0,0,0,2.78,2.77.29.29,0,0,0,.34-.07,8.92,8.92,0,0,1,.74-.65.72.72,0,0,1,.67-.05l2,1.38a3.24,3.24,0,0,1,.28.32A1.68,1.68,0,0,1,16,16.66Z"/></g></svg>