<svg xmlns="http://www.w3.org/2000/svg" viewBox="0 0 24 24"><g id="shopping"><path id="barcode" d="M16.66,3.14H7.37A5.64,5.64,0,0,0,2,9v6.05A5.64,5.64,0,0,0,7.37,21h9.29A5.65,5.65,0,0,0,22,15.07V9A5.65,5.65,0,0,0,16.66,3.14ZM7,16.07a.74.74,0,0,1-.7.76.73.73,0,0,1-.7-.76V7.62a.73.73,0,0,1,.7-.76.74.74,0,0,1,.7.76Zm3,0a.7.7,0,1,1-1.4,0V11.85a.7.7,0,1,1,1.4,0Zm0-7a.7.7,0,1,1-1.4,0V7.62a.7.7,0,1,1,1.4,0Zm3,7a.7.7,0,1,1-1.4,0V7.62a.7.7,0,1,1,1.4,0Zm3-.24a.7.7,0,1,1-1.4,0V14.37a.7.7,0,1,1,1.4,0Zm0-4.23a.7.7,0,1,1-1.4,0V7.38a.7.7,0,1,1,1.4,0Zm3,4.47a.7.7,0,1,1-1.4,0V7.62a.7.7,0,1,1,1.4,0Z"/></g></svg>