<svg xmlns="http://www.w3.org/2000/svg" viewBox="0 0 24 24"><g id="shopping"><path id="basket" d="M22,7.53a2.13,2.13,0,0,1-2.07,2.19H4.07A2.13,2.13,0,0,1,2,7.53,2.13,2.13,0,0,1,4.07,5.34H5.48l1.88-3a.75.75,0,0,1,1-.23.76.76,0,0,1,.23,1.05L7.26,5.34h9.43L15.33,3.17a.77.77,0,0,1,.22-1,.75.75,0,0,1,1,.23l1.89,3h1.46A2.13,2.13,0,0,1,22,7.53ZM4.31,11.24h15.4l-1.18,7.9A3.33,3.33,0,0,1,15.3,22H8.79a3.33,3.33,0,0,1-3.22-2.83Zm9.27,6.07a.75.75,0,1,0,1.5,0V13.65a.75.75,0,1,0-1.5,0Zm-4.66,0a.75.75,0,1,0,1.5,0V13.65a.75.75,0,1,0-1.5,0Z"/></g></svg>