<svg xmlns="http://www.w3.org/2000/svg" viewBox="0 0 24 24"><g id="shopping"><path id="basket-ok" d="M22,7.53a2.13,2.13,0,0,1-2.06,2.19H4.06A2.13,2.13,0,0,1,2,7.53,2.13,2.13,0,0,1,4.06,5.34H5.48l1.88-3a.74.74,0,0,1,1-.23.77.77,0,0,1,.23,1.05L7.26,5.34h9.43L15.32,3.17a.77.77,0,0,1,.23-1,.75.75,0,0,1,1,.23l1.88,3h1.47A2.13,2.13,0,0,1,22,7.53ZM4.3,11.24H19.71l-1.18,7.9A3.33,3.33,0,0,1,15.3,22H8.79a3.35,3.35,0,0,1-3.23-2.83ZM9.43,16.1l1.72,1.75a.75.75,0,0,0,1,0l3.64-3.36a.76.76,0,0,0,.05-1.07.74.74,0,0,0-1.06,0l-3.11,2.87L10.49,15a.75.75,0,0,0-1.06,0A.78.78,0,0,0,9.43,16.1Z"/></g></svg>