<svg xmlns="http://www.w3.org/2000/svg" viewBox="0 0 24 24"><g id="shopping"><path id="cheque" d="M15.15,18.94V3.44a.88.88,0,0,0-1.37-.74l-1.21.78a.9.9,0,0,1-1,0l-2-1.33a.87.87,0,0,0-1,0L6.6,3.64a.89.89,0,0,1-1,0L4.31,2.78a.89.89,0,0,0-1.4.73V18.94A3.06,3.06,0,0,0,6,22H18.2A3.06,3.06,0,0,1,15.15,18.94ZM7.93,12.76H5.71a.76.76,0,1,1,0-1.52H7.93a.76.76,0,0,1,0,1.52Zm0-3.26H5.71a.78.78,0,0,1-.77-.77A.77.77,0,0,1,5.71,8H7.93a.76.76,0,0,1,.76.76A.77.77,0,0,1,7.93,9.5ZM12,16H9.8a.76.76,0,1,1,0-1.52H12A.76.76,0,1,1,12,16Zm0-3.27H10.66a.76.76,0,0,1,0-1.52H12a.76.76,0,0,1,0,1.52ZM12,9.5H10.66a.77.77,0,0,1-.76-.77A.76.76,0,0,1,10.66,8H12a.76.76,0,0,1,.76.76A.77.77,0,0,1,12,9.5Zm8.43,11.6,0,0ZM19.05,21H18.2a2,2,0,0,1-2-2V14.23h2.89a2,2,0,0,1,2,2V19A2,2,0,0,1,19.05,21Z"/></g></svg>