<svg xmlns="http://www.w3.org/2000/svg" viewBox="0 0 24 24"><g id="shopping"><path id="discount" d="M21.28,10.55l-1.39-1.4a1,1,0,0,1-.3-.72v-2a2.05,2.05,0,0,0-2.05-2h-2a1,1,0,0,1-.72-.3l-1.4-1.39a2,2,0,0,0-2.9,0L9.15,4.11a1,1,0,0,1-.72.3h-2a2.05,2.05,0,0,0-2,2.05v2a1,1,0,0,1-.3.72l-1.39,1.4a2,2,0,0,0,0,2.9l1.39,1.4a1,1,0,0,1,.3.72v2a2.05,2.05,0,0,0,2.05,2.05h2a1,1,0,0,1,.72.3l1.4,1.39a2,2,0,0,0,2.9,0l1.4-1.39a1,1,0,0,1,.72-.3h2a2.05,2.05,0,0,0,2.05-2.05v-2a1,1,0,0,1,.3-.72l1.39-1.4A2,2,0,0,0,21.28,10.55ZM9,8A1,1,0,1,1,8,9,1,1,0,0,1,9,8Zm.53,7.53a.74.74,0,0,1-.53.22.71.71,0,0,1-.53-.22.75.75,0,0,1,0-1.06l6-6a.75.75,0,0,1,1.06,0,.75.75,0,0,1,0,1.06ZM15,16a1,1,0,1,1,1-1A1,1,0,0,1,15,16Z"/></g></svg>