<svg xmlns="http://www.w3.org/2000/svg" viewBox="0 0 24 24"><g id="shopping"><path id="lots-shopping" d="M10.6,15.34v4.73A1.93,1.93,0,0,1,8.67,22H3.94A1.94,1.94,0,0,1,2,20.07V15.34a1.94,1.94,0,0,1,1.94-1.93h.93v1.91a1,1,0,0,0,1,.95h1a1,1,0,0,0,1-.95V13.41h.93A1.93,1.93,0,0,1,10.6,15.34Zm9.54-1.93h-.93v1.91a1,1,0,0,1-1,.95H17.3a1,1,0,0,1-1-.95V13.41h-.93a1.94,1.94,0,0,0-1.94,1.93v4.73A1.94,1.94,0,0,0,15.41,22h4.73a1.94,1.94,0,0,0,1.94-1.93V15.34A1.94,1.94,0,0,0,20.14,13.41ZM8.67,2H7.74V3.87a1,1,0,0,1-1,1h-1a1,1,0,0,1-1-1V2H4A2,2,0,0,0,2,4V8.62a1.94,1.94,0,0,0,1.94,1.93H8.67A1.93,1.93,0,0,0,10.6,8.62V3.89A1.93,1.93,0,0,0,8.67,2ZM20.14,2h-.93V3.87a1,1,0,0,1-1,1H17.3a1,1,0,0,1-1-1V2h-.93a1.94,1.94,0,0,0-1.94,1.93V8.62a1.94,1.94,0,0,0,1.94,1.93h4.73a1.94,1.94,0,0,0,1.94-1.93V3.89A1.94,1.94,0,0,0,20.14,2Z"/></g></svg>