<svg xmlns="http://www.w3.org/2000/svg" viewBox="0 0 24 24"><g id="shopping"><path id="package" d="M7.81,7.85a3.71,3.71,0,0,0-1,.14V5.28A3.28,3.28,0,0,1,10.13,2h3.54A3.28,3.28,0,0,1,17,5.28V8a4,4,0,0,0-.86-.11h-.58V5.28a1.84,1.84,0,0,0-1.84-1.84H10.13A1.84,1.84,0,0,0,8.28,5.28V7.85ZM21.07,18.37H11a.72.72,0,1,1,0-1.44h9.9l-1.08-6A3.79,3.79,0,0,0,17,8v.86a.72.72,0,0,1-1.44,0v-1H8.28v1a.72.72,0,1,1-1.43,0V8a3.79,3.79,0,0,0-2.79,3L3,17.58A3.8,3.8,0,0,0,6.73,22H17.28A3.79,3.79,0,0,0,21.07,18.37Z"/></g></svg>