<svg xmlns="http://www.w3.org/2000/svg" viewBox="0 0 24 24"><g id="shopping"><path id="shop" d="M10.07,10.4a2.4,2.4,0,0,1-.7-1.84L9.81,2H14l.59,6.51a2.33,2.33,0,0,1-.68,1.86A2.79,2.79,0,0,1,10.07,10.4Zm5.81-5.32.34,3.7A2.7,2.7,0,0,0,19,11.17a2.87,2.87,0,0,0,2.08-.88,2.52,2.52,0,0,0,.67-2.06l-.41-3.15A3.69,3.69,0,0,0,17.61,2h-2l.26,2.82ZM4.79,11.17h.34a2.55,2.55,0,0,0,2.6-2.3L8.19,2H6.34A3.71,3.71,0,0,0,2.58,5.18L2.2,8.45a2.36,2.36,0,0,0,.65,1.9A2.69,2.69,0,0,0,4.79,11.17ZM19,12.69A4.47,4.47,0,0,1,15.42,11a4.46,4.46,0,0,1-.34.42,4.39,4.39,0,0,1-6.18,0c-.13-.13-.23-.28-.34-.41a4.32,4.32,0,0,1-3.43,1.66H4.79a4.39,4.39,0,0,1-2.85-1.07v5.44A5.1,5.1,0,0,0,7.19,22H9.05V19.16a2.93,2.93,0,0,1,3-2.83,2.93,2.93,0,0,1,3,2.83V22h1.69A5.1,5.1,0,0,0,22,17.06V11.52A4.49,4.49,0,0,1,19,12.69Z"/></g></svg>