<svg xmlns="http://www.w3.org/2000/svg" viewBox="0 0 24 24"><g id="shopping"><path id="tag" d="M12.77,4.56V2.75a.7.7,0,0,0-1.4,0V4.56A6.84,6.84,0,0,0,5.1,11.28v7.64a3,3,0,0,0,3.06,3H16a3,3,0,0,0,3.06-3V11.28A6.84,6.84,0,0,0,12.77,4.56Zm-1.4,1.59V7a.7.7,0,0,0,1.4,0V6.15a1.43,1.43,0,0,1,.8,1.27,1.5,1.5,0,0,1-3,0A1.42,1.42,0,0,1,11.37,6.15Zm1.84,12.73v.63a.43.43,0,0,1-.44.42h-.6a.42.42,0,0,1-.43-.42V18.9a3.49,3.49,0,0,1-1.56-.78.42.42,0,0,1-.07-.55L10.5,17a.44.44,0,0,1,.3-.17.46.46,0,0,1,.34.09,2,2,0,0,0,1.26.54c.6,0,.67-.3.67-.57,0-.46-.38-.68-1.05-1s-1.73-.85-1.73-2.09a2,2,0,0,1,1.45-1.94v-.64a.42.42,0,0,1,.43-.42h.6a.43.43,0,0,1,.44.42v.62a2.78,2.78,0,0,1,1.29.78.42.42,0,0,1,0,.57l-.44.47a.5.5,0,0,1-.31.14.41.41,0,0,1-.32-.12,1.2,1.2,0,0,0-.91-.43.5.5,0,0,0-.57.51c0,.33.29.5.95.81s1.84.87,1.84,2.28A2,2,0,0,1,13.21,18.88Z"/></g></svg>