<svg xmlns="http://www.w3.org/2000/svg" viewBox="0 0 24 24"><g id="social-media"><path id="classmates" d="M12,8.39a.88.88,0,1,1-.88.88A.87.87,0,0,1,12,8.39m0-1.5a2.38,2.38,0,1,0,2.38,2.38A2.38,2.38,0,0,0,12,6.89Zm1.37,7.47a8.42,8.42,0,0,0,1-.33.75.75,0,0,0,.38-1,.74.74,0,0,0-1-.38,3.86,3.86,0,0,1-3.42,0,.76.76,0,0,0-1,.27.75.75,0,0,0,.26,1,3.9,3.9,0,0,0,1,.4L9.36,15.89a.75.75,0,0,0,1.17.94L12,15l1.47,1.83a.77.77,0,0,0,.58.28.68.68,0,0,0,.47-.17.74.74,0,0,0,.12-1.05ZM12,22.75A10.75,10.75,0,1,1,22.75,12,10.76,10.76,0,0,1,12,22.75Zm0-20A9.25,9.25,0,1,0,21.25,12,9.26,9.26,0,0,0,12,2.75Z"/></g></svg>