<svg xmlns="http://www.w3.org/2000/svg" viewBox="0 0 24 24"><g id="social-media"><path id="classmates" d="M12,1.25A10.75,10.75,0,1,0,22.75,12,10.76,10.76,0,0,0,12,1.25Zm9.24,10.56a16.89,16.89,0,0,0-6.57,0c-.29-.68-.61-1.32-.93-1.95A17.22,17.22,0,0,0,19.2,6.21,9.18,9.18,0,0,1,21.24,11.81ZM18.16,5.12A15.56,15.56,0,0,1,13,8.47,37.29,37.29,0,0,0,9.37,3.14a9.15,9.15,0,0,1,8.79,2ZM7.89,3.72A36.93,36.93,0,0,1,11.56,9,22.85,22.85,0,0,1,3,9.88,9.25,9.25,0,0,1,7.89,3.72ZM2.75,12c0-.21,0-.42,0-.64a20,20,0,0,0,2.3.12,23.56,23.56,0,0,0,7.22-1.12c.3.57.6,1.16.88,1.79a15.49,15.49,0,0,0-8,6A9.19,9.19,0,0,1,2.75,12Zm3.51,7.24a13.49,13.49,0,0,1,7.49-5.73,27.81,27.81,0,0,1,1.83,7,9.22,9.22,0,0,1-9.32-1.29ZM17,19.78a29.49,29.49,0,0,0-1.73-6.61,15.78,15.78,0,0,1,5.89.15A9.25,9.25,0,0,1,17,19.78Z"/></g></svg>