<svg xmlns="http://www.w3.org/2000/svg" viewBox="0 0 24 24"><g id="social-media"><path id="facebook" d="M22.76,7.9a6.71,6.71,0,0,0-6.71-6.67h0l-8.13,0A6.72,6.72,0,0,0,1.2,8l0,8.08A6.71,6.71,0,0,0,8,22.77H9l5,0h2.12A6.71,6.71,0,0,0,22.8,16Zm-7.08,4.87-.58,1.44H12.51v7h-2v-7H8.14V12.77h2.35V9.06a2.77,2.77,0,0,1,2.77-2.77h2.6V7.73H14.44a1.94,1.94,0,0,0-1.93,1.93v3.11Zm4.11,6.91a5.18,5.18,0,0,1-3.67,1.55H14V15.71h1.26a1.25,1.25,0,0,0,1.16-.79L17.21,13a1.28,1.28,0,0,0-.13-1.17,1.25,1.25,0,0,0-1-.55H14V9.66a.43.43,0,0,1,.43-.43h1.67A1.25,1.25,0,0,0,17.36,8V6a1.25,1.25,0,0,0-1.25-1.25H13.26A4.28,4.28,0,0,0,9,9.06v2.21H7.89a1.25,1.25,0,0,0-1.25,1.25v1.94a1.25,1.25,0,0,0,1.25,1.25H9v5.56H8a5.22,5.22,0,0,1-5.21-5.18L2.7,8A5.22,5.22,0,0,1,7.88,2.77l8.14,0h0a5.22,5.22,0,0,1,5.21,5.18l0,8.08A5.16,5.16,0,0,1,19.79,19.68Z"/></g></svg>