<svg xmlns="http://www.w3.org/2000/svg" viewBox="0 0 24 24"><g id="social-media"><path id="snapchat" d="M12,18.19a3.46,3.46,0,0,1-2-.61,2.22,2.22,0,0,0-1.23-.41H8.65a1.73,1.73,0,0,1-1.09-.32.91.91,0,0,1-.29-.53L7,16.22l-.41-.14c-.26-.11-.79-.31-.82-.89s.58-.93.87-1.07a2.84,2.84,0,0,0,1-.85l.16-.19a1.47,1.47,0,0,0,.3-.58l-.22-.13-.27-.18a1.68,1.68,0,0,1-.83-1.07A1.06,1.06,0,0,1,7,10.26,1.14,1.14,0,0,1,8.27,9.9V9.31a3.5,3.5,0,0,1,3.5-3.5h.44a3.5,3.5,0,0,1,3.49,3.5v.58a1.27,1.27,0,0,1,1,.17,1.12,1.12,0,0,1,.48.94c0,.73-.72,1.17-1.26,1.49l0,0,.18.39a3.34,3.34,0,0,0,1.5,1.31l.09,0a1,1,0,0,1,.59,1.08c-.06.36-.37.81-1.41,1l-.12,0a1.11,1.11,0,0,1-1.19.84,2.63,2.63,0,0,0-1.68.51A3.48,3.48,0,0,1,12,18.19ZM8.68,15.66h.16a3.77,3.77,0,0,1,2.06.69,2,2,0,0,0,2.17,0,4,4,0,0,1,2.27-.73A1.21,1.21,0,0,1,16,15a4,4,0,0,1-1.26-1.46c-.33-.71-.67-1.44,0-2l-.09,0a1,1,0,0,1-.41-.86V9.31a2,2,0,0,0-2-2h-.44a2,2,0,0,0-2,2v1.9l-.37.29-.09.05a1,1,0,0,1,.34.74,3.08,3.08,0,0,1-.72,1.78l-.16.18A4.43,4.43,0,0,1,8,15a1.66,1.66,0,0,1,.38.22A1.08,1.08,0,0,1,8.68,15.66Zm7.93.69ZM12,22.75A10.75,10.75,0,1,1,22.75,12,10.76,10.76,0,0,1,12,22.75Zm0-20A9.25,9.25,0,1,0,21.25,12,9.26,9.26,0,0,0,12,2.75Z"/></g></svg>