<svg xmlns="http://www.w3.org/2000/svg" viewBox="0 0 24 24"><g id="social-media"><path id="social-media-2" data-name="social-media" d="M16,18.74H8A2.74,2.74,0,0,1,5.29,16V8A2.74,2.74,0,0,1,8,5.26h6A2.74,2.74,0,0,1,16.75,8V9.92a.4.4,0,0,0,.39.39,1.6,1.6,0,0,1,1.6,1.6V16A2.74,2.74,0,0,1,16,18.74Zm-8-12A1.25,1.25,0,0,0,6.78,8v8A1.25,1.25,0,0,0,8,17.24h8A1.25,1.25,0,0,0,17.25,16V11.91a.11.11,0,0,0-.11-.11,1.88,1.88,0,0,1-1.88-1.88V8A1.25,1.25,0,0,0,14,6.75Zm1.9,2.5H12a.75.75,0,0,1,0,1.5H9.92a.75.75,0,0,1,0-1.5Zm4,5.49H10a.75.75,0,1,1,0-1.49h3.92a.75.75,0,1,1,0,1.49ZM8,22.76a6.71,6.71,0,0,1-6.69-6.67L1.25,8A6.7,6.7,0,0,1,7.9,1.28l8.11,0h0a6.71,6.71,0,0,1,6.69,6.67l0,8.06a6.71,6.71,0,0,1-6.65,6.74L8,22.76Zm8.07-20h0l-8.11,0A5.2,5.2,0,0,0,2.75,8l0,8.07A5.21,5.21,0,0,0,8,21.26H8l8.11-.05A5.19,5.19,0,0,0,21.28,16l0-8.07a5.19,5.19,0,0,0-5.19-5.17Z"/></g></svg>