<svg xmlns="http://www.w3.org/2000/svg" viewBox="0 0 24 24"><g id="social-media"><path id="tiktok" d="M9.62,22.75a7,7,0,0,1-3.91-1.18A7.09,7.09,0,0,1,8.78,8.63l.61,0a1.88,1.88,0,0,1,1.82,1.46,1.32,1.32,0,0,1,.06.36v1.33a1.81,1.81,0,0,1-1.73,1.81,2.16,2.16,0,0,0-2,2.1,2.1,2.1,0,0,0,1.11,1.86l.14.08a2.34,2.34,0,0,0,.86.17,2.11,2.11,0,0,0,2.11-2.1V3.07a1.82,1.82,0,0,1,1.82-1.82h1.35a2,2,0,0,1,1.84,1.39,1.32,1.32,0,0,1,.06.2,4,4,0,0,0,1.78,2.58A4.25,4.25,0,0,0,19.91,6a1.9,1.9,0,0,1,1.47,1.34h0a1.52,1.52,0,0,1,.09.52V9.17a1.77,1.77,0,0,1-2,1.75,9,9,0,0,1-2.76-.85v5.37a7.24,7.24,0,0,1-6.48,7.28Zm-.19-12.6h0a3.48,3.48,0,0,0-.49,0,5.53,5.53,0,0,0-2.4,10.08,5.58,5.58,0,0,0,3.56.91,5.68,5.68,0,0,0,5.05-5.73V7.18l1.23.88a7.41,7.41,0,0,0,3.3,1.31.17.17,0,0,0,.16,0,.18.18,0,0,0,.07-.15V7.81l0-.08a.36.36,0,0,0-.28-.25,5.33,5.33,0,0,1-1.79-.71,5.62,5.62,0,0,1-2.54-3.55l0-.1a.38.38,0,0,0-.35-.31H13.54a.25.25,0,0,0-.26.26V15.66a3.68,3.68,0,0,1-3.67,3.66A3.62,3.62,0,0,1,8,19l-.07,0a3.67,3.67,0,0,1-2-3.28A3.73,3.73,0,0,1,9.46,12a.26.26,0,0,0,.25-.26V10.41C9.66,10.26,9.57,10.15,9.43,10.15Z"/></g></svg>