<svg xmlns="http://www.w3.org/2000/svg" viewBox="0 0 24 24"><g id="social-media"><path id="twitter" d="M22.6,4.72a1.48,1.48,0,0,0-1.22-.84,9.42,9.42,0,0,0-2.15.06,5.15,5.15,0,0,0-3.42-1.32,5.1,5.1,0,0,0-4.65,3,5.48,5.48,0,0,0-.42,2.23,11.42,11.42,0,0,1-6.9-3.49A1.4,1.4,0,0,0,2.48,4a1.39,1.39,0,0,0-1,.94A4.78,4.78,0,0,0,2.09,9.1a1.24,1.24,0,0,0-.34.22,1.2,1.2,0,0,0-.38,1.16,4.91,4.91,0,0,0,2,3.15l-.12.19a1.3,1.3,0,0,0,0,1.28,5,5,0,0,0,2.28,2.08,8.53,8.53,0,0,1-.87.39A8.81,8.81,0,0,1,3,17.86a1.28,1.28,0,0,0-.38,2.45,12.88,12.88,0,0,0,5.18,1.07A13,13,0,0,0,20.92,8.24a1.77,1.77,0,0,0,0-.23,9.76,9.76,0,0,0,1.58-1.8A1.5,1.5,0,0,0,22.6,4.72ZM4.75,14.64a4.63,4.63,0,0,0,.87-.16l2.59-.7L5.63,13A3.56,3.56,0,0,1,3,10.61a4.45,4.45,0,0,0,.94.11H6L4.37,9.39A3.72,3.72,0,0,1,2.86,5.54a13,13,0,0,0,8.6,3.92c1.2.06,1.68,1.45,1.7,2.37a4.45,4.45,0,0,1-2.28,3.71,6,6,0,0,1-3.31.57A3.44,3.44,0,0,1,4.75,14.64ZM19.68,7.09l-.3.24,0,.39c0,.17,0,.34,0,.52A11.52,11.52,0,0,1,7.81,19.88,11.61,11.61,0,0,1,4,19.25,7.19,7.19,0,0,0,5.16,19a9.39,9.39,0,0,0,2.57-1.37h.5a6.41,6.41,0,0,0,3.43-.8,6,6,0,0,0,3-5,3.82,3.82,0,0,0-2.42-3.71,4.52,4.52,0,0,1,.29-1.82,3.58,3.58,0,0,1,5.9-1l.29.31.42-.09a7.48,7.48,0,0,1,2.11-.11A8.08,8.08,0,0,1,19.68,7.09Z"/></g></svg>