<svg xmlns="http://www.w3.org/2000/svg" viewBox="0 0 24 24"><g id="social-media"><path id="whatsapp" d="M12,22.75a10.67,10.67,0,0,1-5.15-1.32l-3,.82a1.73,1.73,0,0,1-1.35-.17,1.76,1.76,0,0,1-.8-2l.81-3a10.78,10.78,0,1,1,17.24,2.23A10.77,10.77,0,0,1,12,22.75ZM7.05,19.82l.27.16a9.32,9.32,0,0,0,13.92-8.53h0a9.29,9.29,0,0,0-3.47-6.68A9.26,9.26,0,0,0,4,16.63l.16.26-1,3.61a.24.24,0,0,0,0,.2.2.2,0,0,0,.08.08.21.21,0,0,0,.19,0Zm7.64-2a6.05,6.05,0,0,1-2.91-1,13.38,13.38,0,0,1-4.81-5c-1.08-2.13-1-3.73.29-4.92a2.21,2.21,0,0,1,1.36-.64,1.57,1.57,0,0,1,1.55.66L11.62,9.1a3.23,3.23,0,0,1,.1.46,1.33,1.33,0,0,1-.23.87c0,.05-.29.35-.49.59a9.7,9.7,0,0,0,2,2c.17-.16.39-.35.56-.48A1.46,1.46,0,0,1,15,12.41l.11.07,2.1,1.45a2.66,2.66,0,0,1,.4.46,1.74,1.74,0,0,1,.11,1.25A2.63,2.63,0,0,1,16.4,17.3,3.32,3.32,0,0,1,14.69,17.78ZM8.86,7.71A.84.84,0,0,0,8.28,8h0c-.5.45-.94,1.22,0,3.13a11.69,11.69,0,0,0,4.22,4.37c1.68,1,2.42.92,3.12.51a1.07,1.07,0,0,0,.62-.89l-.06-.06L14.38,13.8a5.54,5.54,0,0,0-.58.53,1,1,0,0,1-1.21.2,10.25,10.25,0,0,1-3.08-3,1,1,0,0,1,.16-1.22l.53-.62L8.94,7.76Zm3.88,5.55,0,0Zm-2-2Zm0-.6v0Z"/></g></svg>