<svg xmlns="http://www.w3.org/2000/svg" viewBox="0 0 24 24"><g id="social-media"><path id="youtube" d="M10.44,15.69a1.8,1.8,0,0,1-1.81-1.81V10.13a1.81,1.81,0,0,1,2.75-1.56l3.11,1.87a1.82,1.82,0,0,1,0,3.12l-3.11,1.87A1.78,1.78,0,0,1,10.44,15.69Zm0-5.88a.31.31,0,0,0-.31.32v3.75a.29.29,0,0,0,.16.27.3.3,0,0,0,.31,0l3.12-1.88a.32.32,0,0,0,0-.54L10.6,9.85A.32.32,0,0,0,10.44,9.81Zm6.63,10.94H6.93a5.69,5.69,0,0,1-5.68-5.68V8.93A5.69,5.69,0,0,1,6.93,3.25H17.07a5.69,5.69,0,0,1,5.68,5.68v6.14A5.69,5.69,0,0,1,17.07,20.75ZM6.93,4.75A4.19,4.19,0,0,0,2.75,8.93v6.14a4.18,4.18,0,0,0,4.18,4.18H17.07a4.18,4.18,0,0,0,4.18-4.18V8.93a4.19,4.19,0,0,0-4.18-4.18Z"/></g></svg>