<svg xmlns="http://www.w3.org/2000/svg" viewBox="0 0 24 24"><g id="notification"><g id="notification-on"><path d="M19.08,15a8.13,8.13,0,0,1-1.34-4.59v-.17A5.61,5.61,0,0,0,9.92,5.09a5.39,5.39,0,0,0-3.33,5.06v.07A8.1,8.1,0,0,1,5,15.07L4.34,16a2.13,2.13,0,0,0-.41,1.26h0a2.12,2.12,0,0,0,2.12,2.12H18a2.12,2.12,0,0,0,2.12-2.12v-.06A2.14,2.14,0,0,0,19.76,16Z"/><path d="M10.09,20.33a2,2,0,0,0,3.86,0Z"/><path d="M12.76,4.69s0,0,0,0V2.76a.75.75,0,0,0-1.5,0V4.65a.24.24,0,0,0,0,.08A5.6,5.6,0,0,1,12.76,4.69Z"/><path d="M3.39,11a.74.74,0,0,1-.74-.64A6.66,6.66,0,0,1,5.14,4,.75.75,0,1,1,6,5.26H6a5.21,5.21,0,0,0-1.87,4.89.74.74,0,0,1-.64.84Z"/><path d="M20.61,11h-.1a.74.74,0,0,1-.64-.84A5.21,5.21,0,0,0,18,5.26.75.75,0,1,1,18.86,4a6.66,6.66,0,0,1,2.49,6.32A.74.74,0,0,1,20.61,11Z"/></g></g></svg>