<svg xmlns="http://www.w3.org/2000/svg" viewBox="0 0 24 24"><g id="files-folders"><path id="add-notepad" d="M8.27,3.64a5,5,0,0,0-.67,0V2.8a.75.75,0,1,1,1.5,0v.84Zm8.13,0V2.8a.75.75,0,0,0-1.5,0v.84h.83A4.91,4.91,0,0,1,16.4,3.69ZM21.18,9.1v7.39A5.45,5.45,0,0,1,15.73,22H8.27a5.46,5.46,0,0,1-5.45-5.46V9.1A5.45,5.45,0,0,1,7.6,3.69v.94a.75.75,0,1,0,1.5,0v-1h5.8v1a.75.75,0,1,0,1.5,0V3.69A5.44,5.44,0,0,1,21.18,9.1ZM15,12.86a.71.71,0,0,0-.7-.72h-1.6l0-1.59a.7.7,0,0,0-.73-.7.72.72,0,0,0-.69.74l0,1.53H9.73a.71.71,0,0,0,0,1.42l1.6,0,0,1.59a.71.71,0,0,0,.71.69h0a.71.71,0,0,0,.69-.73l0-1.54,1.54,0h0A.71.71,0,0,0,15,12.86Z"/></g></svg>