<svg xmlns="http://www.w3.org/2000/svg" viewBox="0 0 24 24"><g id="files-folders"><path id="add-files" d="M23,9.47H18.27A3.39,3.39,0,0,1,15,6a.31.31,0,0,0,0-.1V1.09ZM23,11H18.27a4.9,4.9,0,0,1-4.75-5V1.07H8.63A5.65,5.65,0,0,0,3.05,6.79h0v6.83a5.43,5.43,0,0,1,7.05,3.23A5.75,5.75,0,0,1,10,21.09h7.44A5.65,5.65,0,0,0,23,15.37h0Zm-18,3.8a4.07,4.07,0,0,0,0,8.14,4.07,4.07,0,0,0,0-8.14Zm1.49,4.84H5.68v.77a.73.73,0,0,1-.74.74.75.75,0,0,1-.75-.76v-.76H3.44a.77.77,0,0,1,0-1.53h.75v-.75a.75.75,0,1,1,1.49,0v.76h.76a.77.77,0,0,1,0,1.53Z"/></g></svg>