<svg xmlns="http://www.w3.org/2000/svg" viewBox="0 0 24 24"><g id="files-folders"><path id="delete-files" d="M22.94,9.32H18.22a3.37,3.37,0,0,1-3.29-3.45.57.57,0,0,0,0-.13V1Zm0,1.52H18.22a4.9,4.9,0,0,1-4.78-5V1H8.53A5.65,5.65,0,0,0,2.91,6.62v7.23A5.36,5.36,0,0,1,5,13.41a5.51,5.51,0,0,1,5.5,5.52,5.71,5.71,0,0,1-.32,1.88h7.14A5.65,5.65,0,0,0,23,15.19v0ZM9,19a4,4,0,1,1-4-4A4,4,0,0,1,9,19ZM7.24,19a.75.75,0,0,0-.74-.78l-3,0a.78.78,0,0,0-.75.76.75.75,0,0,0,.74.77l3,0h0A.74.74,0,0,0,7.24,19Z"/></g></svg>