<svg xmlns="http://www.w3.org/2000/svg" viewBox="0 0 24 24"><g id="files-folders"><path id="delete-folder" d="M16.76,6.21H13.82a2.61,2.61,0,0,1-2.41-1.6l-.33-.83a2.6,2.6,0,0,0-2.41-1.6h-2A4.52,4.52,0,0,0,2.14,6.66v10A5.22,5.22,0,0,0,7.36,21.8h9.4A5.22,5.22,0,0,0,22,16.61h0V11.38A5.21,5.21,0,0,0,16.76,6.21Zm-2.45,9a.73.73,0,0,1-.52.22.67.67,0,0,1-.48-.2l-1.13-1.05-1,1.13a.74.74,0,0,1-.52.22.71.71,0,0,1-.7-.72.74.74,0,0,1,.18-.44l1.06-1.12L10,12.16a.71.71,0,0,1,0-1,.72.72,0,0,1,1,0l1.13,1.06,1.06-1.12a.72.72,0,0,1,1-.2.69.69,0,0,1,.21,1,.66.66,0,0,1-.16.17l-1.07,1.12,1.13,1.07A.69.69,0,0,1,14.31,15.19Z"/></g></svg>