<svg xmlns="http://www.w3.org/2000/svg" viewBox="0 0 24 24"><g id="files-folders"><path id="file-right" d="M22,10.45H17.27A3.39,3.39,0,0,1,14,7a.71.71,0,0,0,0-.14V2Zm0,5.84A5.67,5.67,0,0,1,16.37,22H7.62A5.67,5.67,0,0,1,2,16.29V7.73A5.67,5.67,0,0,1,7.62,2h4.91V6.84A4.93,4.93,0,0,0,17.17,12H22ZM12.75,14.4a.35.35,0,0,0-.05-.08.5.5,0,0,0-.08-.14L10.2,11.29a.73.73,0,0,0-1-.08.76.76,0,0,0-.08,1.07l1.36,1.64h-5a.76.76,0,0,0,0,1.52h5.09L9.05,17.32a.77.77,0,0,0,.12,1.07.73.73,0,0,0,1.05-.12l2.42-3.12A.39.39,0,0,0,12.7,15a.41.41,0,0,0,.05-.09.86.86,0,0,0,.05-.23v0h0A.86.86,0,0,0,12.75,14.4Z"/></g></svg>