<svg xmlns="http://www.w3.org/2000/svg" viewBox="0 0 24 24"><g id="files-folders"><path id="file-down" d="M22.13,10.44H17.35A3.4,3.4,0,0,1,14,7a.71.71,0,0,1,0-.14V2.06ZM17.35,12h-.14a4.93,4.93,0,0,1-4.7-5.16V2h-5A5.69,5.69,0,0,0,1.87,7.73v8.54A5.69,5.69,0,0,0,7.53,22h8.91a5.69,5.69,0,0,0,5.69-5.69V12Zm-5.24,4.28L9.26,18.71s-.08,0-.12.07l-.09,0a.66.66,0,0,1-.27.06.6.6,0,0,1-.27-.06l-.09,0a.39.39,0,0,1-.11-.06L5.25,16.3a.76.76,0,0,1-.12-1.06.75.75,0,0,1,1-.12L8,16.59v-5.1a.75.75,0,0,1,1.5,0v5l1.6-1.37a.75.75,0,0,1,1,1.14Z"/></g></svg>