<svg xmlns="http://www.w3.org/2000/svg" viewBox="0 0 24 24"><g id="files-folders"><path id="file-up" d="M22.15,10.44H17.36A3.41,3.41,0,0,1,14,7c0-.05,0-.1,0-.14V2.05ZM17.36,12h-.13a4.94,4.94,0,0,1-4.71-5.16V2h-5a5.7,5.7,0,0,0-5.7,5.7v8.54A5.7,5.7,0,0,0,7.54,22h8.92a5.7,5.7,0,0,0,5.69-5.7V12Zm-5.12,2.37a.76.76,0,0,1-1.06.08L9.57,13.08v5a.75.75,0,0,1-1.5,0V13L6.23,14.47a.75.75,0,1,1-.93-1.18l3.06-2.42a.39.39,0,0,1,.11-.06l.08-.05a.66.66,0,0,1,.27-.06.67.67,0,0,1,.28.06l.09.05.12.07,2.84,2.43A.75.75,0,0,1,12.24,14.37Z"/></g></svg>