<svg xmlns="http://www.w3.org/2000/svg" viewBox="0 0 24 24"><g id="files-folders"><path id="file-deleted" d="M22.84,9.48H18.12A3.37,3.37,0,0,1,14.84,6V1.07Zm0,1.53H18.12a4.92,4.92,0,0,1-4.78-5V1.05H8.44A5.67,5.67,0,0,0,2.82,6.76v7.05a5.45,5.45,0,0,1,7.31,2.69,5.68,5.68,0,0,1,.09,4.57h7a5.67,5.67,0,0,0,5.62-5.72ZM9.16,18.87a4,4,0,0,1-4,4.08,4.08,4.08,0,0,1,0-8.15A4,4,0,0,1,9.16,18.87Zm-2.91,0,.53-.48a.79.79,0,0,0,.15-1.07.74.74,0,0,0-1-.16.47.47,0,0,0-.1.1l-.58.54-.56-.56a.73.73,0,0,0-1,0v0a.77.77,0,0,0,0,1.07l.51.51-.53.49a.78.78,0,0,0,0,1.08.73.73,0,0,0,.55.25.76.76,0,0,0,.51-.2l.58-.54.55.56a.74.74,0,0,0,1.06,0,.78.78,0,0,0,0-1.08Z"/></g></svg>