<svg xmlns="http://www.w3.org/2000/svg" viewBox="0 0 24 24"><g id="files-folders"><path id="file-added" d="M22.68,9.78H18a3.37,3.37,0,0,1-3.26-3.46.61.61,0,0,1,0-.14V1.39Zm0,1.52H18a4.88,4.88,0,0,1-4.71-5.06V1.37H8.39a5.63,5.63,0,0,0-5.57,5.7h0v6.52A5.18,5.18,0,0,1,5.26,13a5.52,5.52,0,0,1,5.45,5.58A5.58,5.58,0,0,1,10,21.32h7.14a5.62,5.62,0,0,0,5.57-5.68v0ZM5.26,14.51a4.06,4.06,0,0,1,0,8.12,4.06,4.06,0,0,1,0-8.12Zm-2,4,1.22,1.6a.63.63,0,0,0,.59.29.73.73,0,0,0,.58-.29l1.7-2.22a.77.77,0,0,0-.13-1.06h0a.72.72,0,0,0-1,.14L5,18.44l-.63-.83a.74.74,0,0,0-1-.13A.78.78,0,0,0,3.21,18.55Z"/></g></svg>