<svg xmlns="http://www.w3.org/2000/svg" viewBox="0 0 24 24"><g id="files-folders"><path id="file-left" d="M21.85,10.43H17.2A3.36,3.36,0,0,1,14,7a.66.66,0,0,0,0-.14V2ZM17.2,12h-.13a4.9,4.9,0,0,1-4.58-5.18V2H7.66A5.63,5.63,0,0,0,2.15,7.72v8.56A5.63,5.63,0,0,0,7.66,22h8.65a5.63,5.63,0,0,0,5.54-5.72V12Zm-5.09,3.42H7l1.46,1.87a.76.76,0,0,1-.12,1.07.69.69,0,0,1-.46.17.74.74,0,0,1-.59-.29L4.88,15.13,4.82,15l-.05-.1a.85.85,0,0,1,0-.23s0,0,0,0h0a.67.67,0,0,1,.06-.28l0-.08.08-.13,2.43-2.89a.74.74,0,0,1,1.05-.09.77.77,0,0,1,.08,1.08L7.09,13.89h5a.77.77,0,0,1,0,1.53Z"/></g></svg>