<svg xmlns="http://www.w3.org/2000/svg" viewBox="0 0 24 24"><g id="files-folders"><path id="tablet-up" d="M10,5.55l-2.33,2a1,1,0,0,0-.33.76v2.21a.73.73,0,0,1-.48.71l-1,.34A.69.69,0,0,1,5,10.9V8.35a1,1,0,0,0-.33-.76l-2.33-2a1.71,1.71,0,0,1-.56-1.28V3.56A1.49,1.49,0,0,1,3.18,2h6a1.49,1.49,0,0,1,1.41,1.56v.71A1.68,1.68,0,0,1,10,5.55Zm6.53-2.42h-5a2,2,0,0,1,0,.43v.71a2.68,2.68,0,0,1-.89,2L8.35,8.35v2.21A1.7,1.7,0,0,1,7.2,12.2l-1,.34a1.69,1.69,0,0,1-.5.08A1.69,1.69,0,0,1,4,10.9V8.33l-.88-.78A5.78,5.78,0,0,0,3,8.8v7.53A5.67,5.67,0,0,0,8.65,22h7.91a5.67,5.67,0,0,0,5.67-5.67V8.8A5.67,5.67,0,0,0,16.56,3.13Zm-3.95,8.38h4.47a.74.74,0,1,1,0,1.47H12.61a.74.74,0,1,1,0-1.47Zm4.78,5.63H9a.74.74,0,0,1,0-1.47h8.39a.74.74,0,1,1,0,1.47Z"/></g></svg>