<svg xmlns="http://www.w3.org/2000/svg" viewBox="0 0 24 24"><g id="files-folders"><path id="folder-down" d="M16.69,6.2h-3a2.59,2.59,0,0,1-2.4-1.63L11,3.73A2.59,2.59,0,0,0,8.58,2.09h-2A4.58,4.58,0,0,0,2,6.67H2V16.83a5.26,5.26,0,0,0,5.27,5.26h9.42A5.26,5.26,0,0,0,22,16.88V11.47A5.27,5.27,0,0,0,16.74,6.2ZM14.81,15l-2.36,2-.12.07-.08,0a.62.62,0,0,1-.26.06h-.05l-.21,0-.09,0a.53.53,0,0,1-.1-.06L9,15a.72.72,0,0,1-.11-1,.71.71,0,0,1,.55-.26.76.76,0,0,1,.45.15L11.27,15V11a.72.72,0,0,1,1.43,0v4l1.18-1a.71.71,0,0,1,1,.07A.72.72,0,0,1,14.81,15Z"/></g></svg>