<svg xmlns="http://www.w3.org/2000/svg" viewBox="0 0 24 24"><g id="files-folders"><path id="folder-up" d="M16.73,6.06h-3a2.61,2.61,0,0,1-2.42-1.64L11,3.58A2.61,2.61,0,0,0,8.58,1.94h-2A4.58,4.58,0,0,0,2,6.52H2V16.65a5.27,5.27,0,0,0,5.24,5.26h9.49A5.27,5.27,0,0,0,22,16.64V11.33A5.27,5.27,0,0,0,16.73,6.06Zm-1.48,7.38a.72.72,0,0,1-1,.08l-1.18-1v4a.72.72,0,0,1-1.43,0V12.43l-1.38,1.11a.74.74,0,0,1-.45.15.69.69,0,0,1-.55-.27.7.7,0,0,1,.11-1l2.54-2,.1-.05.09,0a.52.52,0,0,1,.21,0h0a.75.75,0,0,1,.26.05l.08,0,.12.07,2.36,2A.71.71,0,0,1,15.25,13.44Z"/></g></svg>