<svg xmlns="http://www.w3.org/2000/svg" viewBox="0 0 24 24"><g id="files-folders"><path id="like-folder" d="M16.72,6.1H13.79a2.62,2.62,0,0,1-2.42-1.64L11,3.62A2.58,2.58,0,0,0,8.59,2h-2A4.58,4.58,0,0,0,2,6.57H2V16.73A5.27,5.27,0,0,0,7.28,22h9.44A5.27,5.27,0,0,0,22,16.73V11.38A5.27,5.27,0,0,0,16.72,6.1Zm-4,9.29a1.5,1.5,0,0,1-1.72,0c-.85-.56-2-1.5-2-2.56A1.65,1.65,0,0,1,10.46,11h0a1.45,1.45,0,0,1,1.25.77.17.17,0,0,0,.23.08.16.16,0,0,0,.08-.08A1.45,1.45,0,0,1,13.3,11a1.63,1.63,0,0,1,1.51,1.75C14.81,13.75,13.6,14.78,12.74,15.39Z"/></g></svg>