<svg xmlns="http://www.w3.org/2000/svg" viewBox="0 0 24 24"><g id="files-folders"><path id="notepad-edit" d="M20.71,8.25a5.07,5.07,0,0,1-4.08-1,5.14,5.14,0,0,1-2-3.7l.52-.7H7.73A5.92,5.92,0,0,0,1.82,8.82v7.89a5.93,5.93,0,0,0,5.91,5.95H16a5.93,5.93,0,0,0,5.88-5.95V8.82a6,6,0,0,0-.26-1.74ZM15.6,15a2.19,2.19,0,0,1-1.17.81l-3.07.93a1.85,1.85,0,0,1-2.3-1.25A2.09,2.09,0,0,1,9,15V11.72a2.39,2.39,0,0,1,.46-1.36l3.67-4.88a7.15,7.15,0,0,0,2.38,3.25,7.21,7.21,0,0,0,3.75,1.43Zm6-8L21.68,7A2.51,2.51,0,0,0,21.2,3.5L19,1.85a2.47,2.47,0,0,0-3.47.48h0l-.44.55H16a5.89,5.89,0,0,1,5.64,4.2Z"/></g></svg>