<svg xmlns="http://www.w3.org/2000/svg" viewBox="0 0 24 24"><g id="files-folders"><path id="notepad" d="M17.36,10.49a.77.77,0,0,0-.77-.78H7.45a.78.78,0,0,0,0,1.56h9.14A.77.77,0,0,0,17.36,10.49Zm-3.22,4.88a.77.77,0,0,0-.76-.78H7.5a.78.78,0,0,0,0,1.56h5.88A.77.77,0,0,0,14.14,15.37Zm7-6.27v7.39A5.45,5.45,0,0,1,15.73,22H8.27a5.46,5.46,0,0,1-5.45-5.46V9.1A5.45,5.45,0,0,1,7.6,3.69v.94a.75.75,0,1,0,1.5,0v-1h5.8v1a.75.75,0,1,0,1.5,0V3.69A5.44,5.44,0,0,1,21.18,9.1ZM8.27,3.64a5,5,0,0,0-.67,0V2.8a.75.75,0,1,1,1.5,0v.84Zm7.46,0H14.9V2.8a.75.75,0,0,1,1.5,0v.89A4.91,4.91,0,0,0,15.73,3.64Z"/></g></svg>