<svg xmlns="http://www.w3.org/2000/svg" viewBox="0 0 24 24"><g id="files-folders"><path id="notepad-bookmark" d="M21.15,15.21h0l-6.4,6.72h0V18.06a4,4,0,0,1,.05-.61,2.66,2.66,0,0,1,2.6-2.3h3.81ZM9.07,3.64V2.8a.75.75,0,0,0-1.5,0v.89a5.06,5.06,0,0,1,.68,0Zm7.3,0V2.8a.75.75,0,1,0-1.5,0v.84h.83A4.91,4.91,0,0,1,16.37,3.69Zm1,10a4.24,4.24,0,0,0-4.15,4.41V22h-5a5.46,5.46,0,0,1-5.45-5.46V9.1A5.45,5.45,0,0,1,7.57,3.69v.94a.75.75,0,0,0,1.5,0v-1h5.8v1a.75.75,0,0,0,1.5,0V3.69A5.45,5.45,0,0,1,21.16,9.1v4.55Zm-5.68.4a.75.75,0,0,0-.75-.76H7.53a.76.76,0,0,0,0,1.52H11A.75.75,0,0,0,11.72,14.05ZM17.21,9.3a.75.75,0,0,0-.75-.76h-9a.76.76,0,0,0,0,1.52h9A.75.75,0,0,0,17.21,9.3Z"/></g></svg>