<svg xmlns="http://www.w3.org/2000/svg" viewBox="0 0 24 24"><g id="files-folders"><path id="questionnaire-tablet" d="M16.1,2H7.92A6,6,0,0,0,2,8v8a6,6,0,0,0,5.9,6h8.2A6,6,0,0,0,22,16V8A6,6,0,0,0,16.1,2ZM9.35,13.18,7.66,15.94a.77.77,0,0,1-.54.35H7a.74.74,0,0,1-.51-.2L5.14,14.9a.81.81,0,0,1-.08-1.11.77.77,0,0,1,1.09-.08h0l.68.61,1.23-2a.75.75,0,0,1,1-.25A.79.79,0,0,1,9.35,13.18Zm0-5.7L7.66,10.24a.77.77,0,0,1-.54.35H7a.74.74,0,0,1-.51-.2L5.14,9.19a.8.8,0,0,1-.08-1.1A.77.77,0,0,1,6.15,8h0l.68.62,1.23-2a.75.75,0,0,1,1-.25A.79.79,0,0,1,9.35,7.48Zm8.66,8H12A.75.75,0,0,1,12,14h6a.75.75,0,0,1,0,1.5ZM18,10H12a.75.75,0,0,1,0-1.5h6A.75.75,0,0,1,18,10Z"/></g></svg>