<svg xmlns="http://www.w3.org/2000/svg" viewBox="0 0 24 24"><g id="files-folders"><path d="M16.62,7.75h2.87l-5.23-5.3v3A2.36,2.36,0,0,0,16.62,7.75Z"/><path d="M11,10.56A2.44,2.44,0,1,0,13.4,13,2.45,2.45,0,0,0,11,10.56Z"/><path d="M19.94,9.25H16.62A3.86,3.86,0,0,1,12.76,5.4V2H6.38A2.35,2.35,0,0,0,4,4.35v15.3A2.35,2.35,0,0,0,6.38,22H17.62A2.35,2.35,0,0,0,20,19.65V9.25ZM16.28,18.3a.7.7,0,0,1-.54.23.74.74,0,0,1-.52-.2l-2.14-2A3.93,3.93,0,1,1,14.9,13a3.87,3.87,0,0,1-.73,2.27l2.08,2A.75.75,0,0,1,16.28,18.3Z"/></g></svg>