<svg xmlns="http://www.w3.org/2000/svg" viewBox="0 0 24 24"><g id="files-folders"><path id="tab-tablet" d="M16.08,2.48H13.22a1,1,0,0,1,1-1h3.6a1,1,0,0,1,1,1.05v.64A5.69,5.69,0,0,0,16.08,2.48Zm5.92,6v8a6,6,0,0,1-5.9,6H7.92a6,6,0,0,1-5.92-6v-8a6,6,0,0,1,5.92-6h5.3V8.12a1,1,0,0,0,1.11,1,1.11,1.11,0,0,0,.47-.17l.59-.48a.94.94,0,0,1,1.2,0l.58.48a1,1,0,0,0,1.42-.29,1.25,1.25,0,0,0,.17-.49v-5A6.07,6.07,0,0,1,22,8.46Zm-14.73,4a.78.78,0,0,0,.76.79h5.1a.79.79,0,0,0,0-1.57H8A.78.78,0,0,0,7.27,12.46Zm8.9,4a.77.77,0,0,0-.76-.79H7.33a.79.79,0,0,0,0,1.57h8.08A.77.77,0,0,0,16.17,16.43Z"/></g></svg>