<svg xmlns="http://www.w3.org/2000/svg" viewBox="0 0 24 24"><g id="files-folders"><path id="tablet-ok" d="M8.55,4.08v-1a1,1,0,0,1,.94-1H15a1,1,0,0,1,.93,1v1a1,1,0,0,1-.93,1H9.49A1,1,0,0,1,8.55,4.08ZM21,9.23v7.22a5.38,5.38,0,0,1-5.29,5.47H8.31A5.38,5.38,0,0,1,3,16.48V9.26A5.4,5.4,0,0,1,7.55,3.84v.24a2,2,0,0,0,1.94,2H15a2,2,0,0,0,1.93-2V3.91A5.44,5.44,0,0,1,21,9.23ZM8.85,13.06,11.23,16a.74.74,0,0,0,.57.27h0a.72.72,0,0,0,.58-.3l3.26-4.39a.8.8,0,0,0-.13-1,.74.74,0,0,0-1,.15l-2.7,3.63L10,12.12A.74.74,0,0,0,9,12,.79.79,0,0,0,8.85,13.06Z"/></g></svg>