<svg xmlns="http://www.w3.org/2000/svg" viewBox="0 0 24 24"><g id="files-folders"><path d="M16.05,3V4a1,1,0,0,1-1,1H9.39a1,1,0,0,1-1-1V3a1,1,0,0,1,1-1h5.68A1,1,0,0,1,16.05,3Zm1,.84V4a2,2,0,0,1-2,2H9.39a2,2,0,0,1-2-2V3.74A5.5,5.5,0,0,0,2.65,9.17v7.32A5.51,5.51,0,0,0,8.16,22h7.68a5.51,5.51,0,0,0,5.51-5.51V9.17A5.51,5.51,0,0,0,17.09,3.81Zm-1.8,12.06a.75.75,0,0,1-1,.13l-4.18-3.23v2.45a.75.75,0,0,1-1.5,0v-4A.77.77,0,0,1,9,10.57l.15-.06,3.75-.91a.55.55,0,0,1,.18,0,.75.75,0,0,1,.17,1.47L11,11.6l4.15,3.22A.75.75,0,0,1,15.29,15.87Z"/></g></svg>