<svg xmlns="http://www.w3.org/2000/svg" viewBox="0 0 24 24"><g id="files-folders"><path id="tablet-text-down" d="M15,5H9.49a1,1,0,0,1-.94-1v-1a1,1,0,0,1,.94-1H15a1,1,0,0,1,.93,1v1A1,1,0,0,1,15,5Zm6,4.19v7.22a5.39,5.39,0,0,1-5.3,5.47H8.31A5.39,5.39,0,0,1,3,16.48V9.26A5.39,5.39,0,0,1,7.55,3.85v.23a2,2,0,0,0,1.93,2H15a2,2,0,0,0,1.93-2h0V3.92A5.42,5.42,0,0,1,21,9.23Zm-8.12,6.45a.77.77,0,0,0-.75-.78H7.57a.78.78,0,0,0,0,1.55h4.56A.78.78,0,0,0,12.88,15.68Zm4-3.59a.77.77,0,0,0-.73-.78H7.57a.78.78,0,0,0,0,1.55h8.54a.76.76,0,0,0,.75-.77V12Z"/></g></svg>