<svg xmlns="http://www.w3.org/2000/svg" viewBox="0 0 24 24"><g id="files-folders"><path id="tablet-down" d="M8.55,4.08v-1a1,1,0,0,1,.94-1H15a1,1,0,0,1,.93,1v1a1,1,0,0,1-.93,1H9.49A1,1,0,0,1,8.55,4.08ZM21,9.23v7.22a5.38,5.38,0,0,1-5.29,5.47H8.31A5.38,5.38,0,0,1,3,16.48V9.26A5.4,5.4,0,0,1,7.55,3.84v.24a2,2,0,0,0,1.94,2H15a2,2,0,0,0,1.93-2V3.91A5.44,5.44,0,0,1,21,9.23Zm-5.48,6.28-.06-4.06a.77.77,0,0,0-.78-.77h0a.79.79,0,0,0-.77.79l0,2.45-4.2-3.24a.78.78,0,1,0-1,1.23l4.13,3.2-2.15.44a.79.79,0,0,0-.6.93.77.77,0,0,0,.76.62l.16,0,3.81-.79.11-.05.09,0a1,1,0,0,0,.25-.2h0s0,0,0,0a1,1,0,0,0,.1-.21s0-.07,0-.11S15.52,15.56,15.52,15.51Z"/></g></svg>