<svg xmlns="http://www.w3.org/2000/svg" viewBox="0 0 24 24"><g id="files-folders"><path id="tablet-text-up" d="M8.55,4.08v-1a1,1,0,0,1,.93-1H15a1,1,0,0,1,.93,1h0v1a.94.94,0,0,1-.92,1H9.49A1,1,0,0,1,8.55,4.08ZM21,9.26V16.5A5.42,5.42,0,0,1,15.71,22H8.31A5.41,5.41,0,0,1,3,16.51H3V9.26A5.41,5.41,0,0,1,7.54,3.84v.24a2,2,0,0,0,2,2H15a2,2,0,0,0,1.94-2h0V3.92A5.45,5.45,0,0,1,21,9.25ZM6.82,12.06a.77.77,0,0,0,.75.78h4.57a.76.76,0,0,0,.75-.78.75.75,0,0,0-.75-.77H7.54A.76.76,0,0,0,6.82,12.06Zm10,3.6a.77.77,0,0,0-.76-.77H7.54a.78.78,0,0,0,0,1.55h8.57a.79.79,0,0,0,.79-.76v0Z"/></g></svg>