<svg xmlns="http://www.w3.org/2000/svg" viewBox="0 0 24 24"><g id="files-folders"><path id="tablet-delete" d="M8.55,4.08v-1a1,1,0,0,1,.94-1H15a1,1,0,0,1,.93,1v1a1,1,0,0,1-.93,1H9.49A1,1,0,0,1,8.55,4.08ZM21,9.23v7.22a5.38,5.38,0,0,1-5.29,5.47H8.31A5.38,5.38,0,0,1,3,16.48V9.26A5.4,5.4,0,0,1,7.55,3.84v.24a2,2,0,0,0,1.94,2H15a2,2,0,0,0,1.93-2V3.91A5.44,5.44,0,0,1,21,9.23Zm-6.24,5.26-1.48-1.43,1.38-1.52a.8.8,0,0,0,.13-1.09.76.76,0,0,0-1.22.05L12.19,12l-1.45-1.43a.73.73,0,0,0-1.05-.17.79.79,0,0,0-.16,1.08.8.8,0,0,0,.21.2l1.43,1.37L9.78,14.63a.79.79,0,0,0,0,1.09.71.71,0,0,0,.51.21.73.73,0,0,0,.55-.25l1.37-1.51,1.46,1.44a.74.74,0,0,0,.52.22.71.71,0,0,0,.54-.25.78.78,0,0,0,0-1.09Z"/></g></svg>