<svg xmlns="http://www.w3.org/2000/svg" viewBox="0 0 24 24"><g id="files-folders"><path id="update-file" d="M14,6.82V2l2.66,2.85L22,10.48H17.28A3.38,3.38,0,0,1,14,7,1.21,1.21,0,0,1,14,6.82Zm8,9.47A5.66,5.66,0,0,1,16.4,22H7.6A5.66,5.66,0,0,1,2,16.29H2V7.71A5.66,5.66,0,0,1,7.6,2h4.91V6.82A4.93,4.93,0,0,0,17.15,12H22ZM8.9,14.19a.73.73,0,0,0,.44-.94.72.72,0,0,0-.92-.45h0l-.5.18A2.41,2.41,0,0,1,9.31,11.9a2.31,2.31,0,0,1,1.82.2.72.72,0,0,0,1-.29.74.74,0,0,0-.29-1h0a3.79,3.79,0,0,0-5.19,1.54h0a.28.28,0,0,0,0,.13l-.23-.61a.73.73,0,1,0-1.35.53l.8,2.14a.69.69,0,0,0,.67.46.49.49,0,0,0,.24,0Zm5.81,3.14L14,15.05a.73.73,0,0,0-.91-.47l0,0L11,15.44a.76.76,0,0,0-.41,1,.72.72,0,0,0,.94.41h0l.44-.18a2.35,2.35,0,0,1-3.18.89.69.69,0,0,0-1,.24l0,0a.75.75,0,0,0,.27,1H8a3.68,3.68,0,0,0,1.83.48,3.8,3.8,0,0,0,3.33-2l.15.45a.7.7,0,0,0,.69.51h.22a.74.74,0,0,0,.5-.93s0,0,0,0Z"/></g></svg>