<svg xmlns="http://www.w3.org/2000/svg" viewBox="0 0 24 24"><g id="files-folders"><path id="update-folder" d="M16.69,6.1h-3a2.59,2.59,0,0,1-2.41-1.63L11,3.63A2.6,2.6,0,0,0,8.57,2h-2A4.58,4.58,0,0,0,2,6.57H2V16.69a5.27,5.27,0,0,0,5.23,5.24h9.46a5.27,5.27,0,0,0,5.24-5.24V11.36A5.26,5.26,0,0,0,16.69,6.1Zm-8.2,8.13a.74.74,0,0,1-.66-.46L7,11.7a.71.71,0,0,1,1.33-.5l.23.58a.24.24,0,0,1,0-.12,3.77,3.77,0,0,1,5.1-1.49.69.69,0,0,1,.28.94.71.71,0,0,1-1,.28,2.32,2.32,0,0,0-1.79-.19,2.39,2.39,0,0,0-1.34,1l.49-.17a.72.72,0,0,1,.94.4v0a.7.7,0,0,1-.42.9h0l-2.16.77A1,1,0,0,1,8.49,14.23Zm7.66,3.12h-.22a.71.71,0,0,1-.68-.49l-.14-.45A3.78,3.78,0,0,1,10,17.84.7.7,0,0,1,9.47,17a.71.71,0,0,1,.82-.57.72.72,0,0,1,.42.25,2.36,2.36,0,0,0,3.13-.85L13.4,16a.7.7,0,0,1-.92-.4.72.72,0,0,1,.4-.92h0L15,13.86a.68.68,0,0,1,.56,0,.67.67,0,0,1,.37.42l.72,2.19A.71.71,0,0,1,16.15,17.35Z"/></g></svg>