<svg xmlns="http://www.w3.org/2000/svg" viewBox="0 0 24 24"><defs><style>.cls-1{opacity:0.3;}</style></defs><g id="education"><g id="book-open"><path class="cls-1" d="M22,16.93a1.77,1.77,0,0,1-1.45,1.76,26.12,26.12,0,0,0-7.73,2.54,2.16,2.16,0,0,1-1.64,0,27.78,27.78,0,0,0-7.69-2.58A1.78,1.78,0,0,1,2,16.89V4.48A1.8,1.8,0,0,1,4.07,2.7a20.3,20.3,0,0,1,7.11,2.5,1.54,1.54,0,0,0,1.64,0,21.4,21.4,0,0,1,7.07-2.57A1.81,1.81,0,0,1,22,4.41Z"/><path d="M19.89,2.63A21.4,21.4,0,0,0,12.82,5.2a1.6,1.6,0,0,1-.82.23v16a1.88,1.88,0,0,0,.82-.16,26.12,26.12,0,0,1,7.73-2.54A1.77,1.77,0,0,0,22,16.93V4.41A1.81,1.81,0,0,0,19.89,2.63Z"/><path d="M7.74,9H5.47a.75.75,0,1,1,0-1.5H7.74a.75.75,0,0,1,0,1.5Z"/><path d="M8.5,12h-3a.75.75,0,1,1,0-1.5h3a.75.75,0,0,1,0,1.5Z"/></g></g></svg>