<svg xmlns="http://www.w3.org/2000/svg" viewBox="0 0 24 24"><defs><style>.cls-1{opacity:0.3;}</style></defs><g id="education"><g id="briefcase"><g class="cls-1"><path d="M18,5.18H6.05a4.16,4.16,0,0,0-4.13,4.6l.89,8.34a4.16,4.16,0,0,0,4.13,3.71H17.17a4.15,4.15,0,0,0,4.14-3.77l.78-8.33A4.17,4.17,0,0,0,18,5.18Zm-4.17,8.67a1.36,1.36,0,0,1-1.37,1.36H11.3a1.36,1.36,0,0,1-1.37-1.36V11.47h3.85Z"/></g><path d="M22.09,9.73A4.17,4.17,0,0,0,18,5.18H16.39v-1a2.71,2.71,0,0,0-2.71-2.71H10.29A2.71,2.71,0,0,0,7.58,4.13v1H6.05a4.16,4.16,0,0,0-4.13,4.6l.15,1.44A14.7,14.7,0,0,0,9.2,14,2.12,2.12,0,0,0,11.3,16h1.11a2.12,2.12,0,0,0,2.1-1.91A14.37,14.37,0,0,0,22,11Zm-13-5.6a1.21,1.21,0,0,1,1.21-1.21h3.39a1.21,1.21,0,0,1,1.21,1.21v1H9.08ZM13,13.85a.61.61,0,0,1-.62.61H11.3a.61.61,0,0,1-.62-.61V12.22H13Z"/></g></g></svg>