<svg xmlns="http://www.w3.org/2000/svg" viewBox="0 0 24 24"><defs><style>.cls-1{opacity:0.3;}</style></defs><g id="education"><g id="brifecase-cros"><g class="cls-1"><path d="M18,5.18H6.05a4.16,4.16,0,0,0-4.13,4.6l.89,8.34a4.16,4.16,0,0,0,4.13,3.71H17.17a4.15,4.15,0,0,0,4.14-3.77l.78-8.33A4.17,4.17,0,0,0,18,5.18ZM12,17.88A3.88,3.88,0,1,1,15.88,14,3.88,3.88,0,0,1,12,17.88Z"/></g><path d="M22.09,9.73A4.17,4.17,0,0,0,18,5.18H16.39v-1a2.71,2.71,0,0,0-2.71-2.71H10.29A2.71,2.71,0,0,0,7.58,4.13v1H6.05a4.16,4.16,0,0,0-4.13,4.6l.15,1.44A13.56,13.56,0,0,0,7.4,13.68c0,.11,0,.21,0,.32a4.63,4.63,0,0,0,9.26,0c0-.12,0-.24,0-.35A13.37,13.37,0,0,0,22,11Zm-13-5.6a1.21,1.21,0,0,1,1.21-1.21h3.39a1.21,1.21,0,0,1,1.21,1.21v1H9.08Zm2.92,13A3.13,3.13,0,1,1,15.13,14,3.13,3.13,0,0,1,12,17.13Z"/><path d="M13.06,14l.52-.52a.75.75,0,1,0-1.06-1.06l-.52.52-.52-.52a.75.75,0,1,0-1.06,1.06l.52.52-.52.52a.74.74,0,0,0,0,1.06.71.71,0,0,0,.53.22.74.74,0,0,0,.53-.22l.52-.52.52.52a.74.74,0,0,0,.53.22.71.71,0,0,0,.53-.22.74.74,0,0,0,0-1.06Z"/></g></g></svg>