<svg xmlns="http://www.w3.org/2000/svg" viewBox="0 0 24 24"><defs><style>.cls-1{opacity:0.3;}</style></defs><g id="education"><g id="brifecase-tick"><g class="cls-1"><path d="M17.93,5.18H6A4.17,4.17,0,0,0,1.9,9.78l.89,8.34a4.16,4.16,0,0,0,4.14,3.71H17.15a4.15,4.15,0,0,0,4.14-3.77l.78-8.33A4.16,4.16,0,0,0,17.93,5.18ZM12,17.88A3.88,3.88,0,1,1,15.87,14,3.88,3.88,0,0,1,12,17.88Z"/></g><path d="M22.07,9.73a4.16,4.16,0,0,0-4.14-4.55H16.37v-1a2.71,2.71,0,0,0-2.71-2.71H10.28A2.71,2.71,0,0,0,7.56,4.13v1H6A4.17,4.17,0,0,0,1.9,9.78l.16,1.44a13.56,13.56,0,0,0,5.33,2.46c0,.11,0,.21,0,.32a4.64,4.64,0,0,0,9.27,0c0-.12,0-.24,0-.35A13.33,13.33,0,0,0,22,11Zm-13-5.6a1.22,1.22,0,0,1,1.22-1.21h3.38a1.21,1.21,0,0,1,1.21,1.21v1H9.06Zm2.92,13A3.13,3.13,0,1,1,15.12,14,3.13,3.13,0,0,1,12,17.13Z"/><path d="M11.37,15.84a.76.76,0,0,1-.52-.22l-.94-.91a.75.75,0,0,1,0-1.06.75.75,0,0,1,1.06,0l.43.42L13,12.58a.75.75,0,1,1,1,1.11l-2.15,2A.78.78,0,0,1,11.37,15.84Z"/></g></g></svg>