<svg xmlns="http://www.w3.org/2000/svg" viewBox="0 0 24 24"><defs><style>.cls-1{opacity:0.3;}</style></defs><g id="education"><g id="clipboard"><rect class="cls-1" x="2.85" y="2.41" width="15.82" height="15.82" rx="4.5" transform="translate(1.63 -1.47) rotate(8.44)"/><path d="M19.11,7.06a4.53,4.53,0,0,1,0,1l-1,6.76A4.49,4.49,0,0,1,13,18.65l-6.76-1a4.44,4.44,0,0,1-2-.84,4.44,4.44,0,0,0,2.83,2.85l6.48,2.16A4.5,4.5,0,0,0,19.23,19l2.16-6.48A4.49,4.49,0,0,0,19.11,7.06Z"/><circle cx="8.74" cy="7.2" r="2.02"/></g></g></svg>