<svg xmlns="http://www.w3.org/2000/svg" viewBox="0 0 24 24"><defs><style>.cls-1{opacity:0.3;}</style></defs><g id="education"><g id="note"><g class="cls-1"><rect x="6.33" y="4.14" width="16.34" height="13.67" rx="4.82" transform="translate(0.57 22.66) rotate(-77.11)"/></g><path d="M14.64,19.38l-3.92-.89a4.83,4.83,0,0,1-3.63-5.78l1.5-6.53a4.43,4.43,0,0,1,.37-1l-3.54,1a4.77,4.77,0,0,0-3.26,5.91l1.73,6A4.78,4.78,0,0,0,9.8,21.38l4.13-1.19a4.69,4.69,0,0,0,1.43-.72A3.55,3.55,0,0,1,14.64,19.38Z"/></g></g></svg>