<svg xmlns="http://www.w3.org/2000/svg" viewBox="0 0 24 24"><defs><style>.cls-1{opacity:0.3;}</style></defs><g id="education"><g id="note-2"><g class="cls-1"><rect x="6.33" y="3.68" width="16.34" height="13.67" rx="4.82" transform="translate(1.02 22.3) rotate(-77.11)"/></g><path d="M14.64,18.92,10.72,18a4.83,4.83,0,0,1-3.63-5.78l1.5-6.53A4.43,4.43,0,0,1,9,4.7l-3.54,1a4.77,4.77,0,0,0-3.26,5.91l1.73,6A4.78,4.78,0,0,0,9.8,20.92l4.13-1.19A4.91,4.91,0,0,0,15.36,19,4.45,4.45,0,0,1,14.64,18.92Z"/><path d="M17.4,10.41a.65.65,0,0,1-.19,0l-4.7-1.2a.75.75,0,0,1,.37-1.46l4.71,1.21a.75.75,0,0,1-.19,1.47Z"/><path d="M14.49,13.82l-.19,0-2.78-.72a.75.75,0,0,1,.37-1.46l2.79.73a.75.75,0,0,1,.54.91A.77.77,0,0,1,14.49,13.82Z"/></g></g></svg>