<svg xmlns="http://www.w3.org/2000/svg" viewBox="0 0 24 24"><defs><style>.cls-1{opacity:0.3;}</style></defs><g id="education"><g id="teacher"><g class="cls-1"><path d="M10.87,22.05,7.76,20.84a3.41,3.41,0,0,1-2.17-3.18V12.1L12,8.41l6.4,3.72v5.58a3.4,3.4,0,0,1-2.14,3.17L13.39,22A3.38,3.38,0,0,1,10.87,22.05Z"/></g><path d="M19.92,6.24l-6.33-4a3.23,3.23,0,0,0-3.53.06L4,6.39a3.21,3.21,0,0,0,0,5.33l6.21,4.13a3.21,3.21,0,0,0,3.6,0l6-4.1v3.14a.75.75,0,0,0,1.5,0V9.68A3.18,3.18,0,0,0,19.92,6.24Z"/></g></g></svg>