<svg xmlns="http://www.w3.org/2000/svg" viewBox="0 0 24 24"><defs><style>.cls-1{opacity:0.3;}</style></defs><g id="software"><g id="android"><g class="cls-1"><rect x="7" y="8.99" width="10" height="10.02" rx="2.08"/></g><path d="M4,16.66a1,1,0,0,1-1-1v-4a1,1,0,0,1,2,0v4A1,1,0,0,1,4,16.66Z"/><path d="M9.08,19h0v2a1,1,0,0,0,2,0V19Z"/><path d="M14.92,19H13v2a1,1,0,0,0,2,0V19Z"/><path d="M20,16.66a1,1,0,0,1-1-1v-4a1,1,0,1,1,2,0v4A1,1,0,0,1,20,16.66Z"/><g class="cls-1"><path d="M13.83,7.59a1.81,1.81,0,0,0,1.84-1.72h0a3.93,3.93,0,0,0-4-3.87,3.93,3.93,0,0,0-4,3.87h0A1.81,1.81,0,0,0,9.51,7.59Z"/></g></g></g></svg>