<svg xmlns="http://www.w3.org/2000/svg" viewBox="0 0 24 24"><defs><style>.cls-1{opacity:0.3;}</style></defs><g id="software"><g id="angular"><g class="cls-1"><path d="M18.13,18.88,13.6,21.54a3.42,3.42,0,0,1-3.42,0L5.64,18.88A3.41,3.41,0,0,1,4,16.26L3.23,7.71A3.37,3.37,0,0,1,5.39,4.25l5.29-2a3.47,3.47,0,0,1,2.42,0l5.29,2a3.4,3.4,0,0,1,2.16,3.46l-.75,8.55A3.4,3.4,0,0,1,18.13,18.88Z"/></g><path d="M17.24,15.85,15.85,12.9a.76.76,0,0,0-.19-.38L12.57,6a.78.78,0,0,0-.69-.43.73.73,0,0,0-.67.44L6.72,15.86a.75.75,0,0,0,.38,1,.67.67,0,0,0,.31.07.75.75,0,0,0,.68-.44l1.23-2.7H14.6l1.29,2.71a.75.75,0,1,0,1.35-.64ZM10,12.28,11.9,8.1l2,4.18Z"/><g class="cls-1"><path d="M18.39,4.25l-5.29-2A3.24,3.24,0,0,0,12,2V22a3.59,3.59,0,0,0,1.64-.46l4.53-2.66a3.4,3.4,0,0,0,1.67-2.62l.75-8.55A3.4,3.4,0,0,0,18.39,4.25Z"/></g></g></g></svg>