<svg xmlns="http://www.w3.org/2000/svg" viewBox="0 0 24 24"><defs><style>.cls-1{opacity:0.3;}</style></defs><g id="software"><g id="apple"><path d="M15.3,5.1a4.86,4.86,0,0,0,1-2.24.74.74,0,0,0-1-.81,4.82,4.82,0,0,0-2.07,1.44,4.51,4.51,0,0,0-1,2.34.73.73,0,0,0,.94.74A4.21,4.21,0,0,0,15.3,5.1Z"/><g class="cls-1"><path d="M18.78,10.1a1,1,0,0,0-.1-1.52,4.48,4.48,0,0,0-2.44-1c-1.36-.09-2.46.8-3.77.8s-2.12-.8-3.57-.8A4.85,4.85,0,0,0,5,10C3.62,12.08,3.86,16,6.05,19.42,6.84,20.63,7.89,22,9.27,22c1.22,0,1.56-.79,3.22-.79s2,.8,3.19.79c1.38,0,2.48-1.52,3.27-2.73a11.72,11.72,0,0,0,.82-1.42,1,1,0,0,0-.37-1.24A4.18,4.18,0,0,1,18.78,10.1Z"/></g></g></g></svg>