<svg xmlns="http://www.w3.org/2000/svg" viewBox="0 0 24 24"><defs><style>.cls-1{opacity:0.3;}</style></defs><g id="software"><g id="bootstrap"><g class="cls-1"><path d="M23.32,10.66h0a3,3,0,0,1-3-3V6.56A3.56,3.56,0,0,0,16.76,3H7.92A3.56,3.56,0,0,0,4.36,6.56V7.67a3,3,0,0,1-3,3h0v2.63h0a3,3,0,0,1,3,3v1.16A3.56,3.56,0,0,0,7.92,21h8.84a3.56,3.56,0,0,0,3.56-3.56V16.28a3,3,0,0,1,3-3h0Z"/></g><path d="M13,12.81H10.1a.75.75,0,0,1-.75-.75V7.93a.74.74,0,0,1,.75-.75H13a2.82,2.82,0,0,1,0,5.63Zm-2.15-1.5H13a1.32,1.32,0,0,0,0-2.63H10.85Z"/><path d="M13,16.93H10.1a.74.74,0,0,1-.75-.75V12.06a.74.74,0,0,1,.75-.75H13a2.81,2.81,0,1,1,0,5.62Zm-2.15-1.5H13a1.31,1.31,0,1,0,0-2.62H10.85Z"/></g></g></svg>