<svg xmlns="http://www.w3.org/2000/svg" viewBox="0 0 24 24"><defs><style>.cls-1{opacity:0.3;}</style></defs><g id="software"><g id="css"><g class="cls-1"><path d="M17.47,20.53,12.69,21.9a2.49,2.49,0,0,1-1.38,0L6.55,20.53a2.48,2.48,0,0,1-1.79-2.14L3.34,4.76A2.5,2.5,0,0,1,5.83,2H18.17a2.5,2.5,0,0,1,2.49,2.76L19.27,18.38A2.51,2.51,0,0,1,17.47,20.53Z"/></g><path d="M17.07,6.49a.77.77,0,0,0-.57-.25h-9a.76.76,0,1,0,0,1.51h8.16l-.28,2.61H8a.76.76,0,1,0,0,1.51h7.19l-.38,3.52-2.77.82-2.88-.88L8.8,14a.75.75,0,0,0-1.45.41l.5,1.77a.77.77,0,0,0,.5.52l3.49,1.08a.83.83,0,0,0,.22,0,.78.78,0,0,0,.22,0l3.48-1a.75.75,0,0,0,.53-.64l1-9A.74.74,0,0,0,17.07,6.49Z"/></g></g></svg>