<svg xmlns="http://www.w3.org/2000/svg" viewBox="0 0 24 24"><g id="software"><g id="dj"><path d="M12.92,2a1.4,1.4,0,0,0-1.4,1.4V7H9.39a4.93,4.93,0,0,0,0,9.86h3.53a1.4,1.4,0,0,0,1.4-1.4V3.4A1.4,1.4,0,0,0,12.92,2ZM7.26,11.89A2.13,2.13,0,0,1,9.39,9.76h2.13V14H9.39A2.13,2.13,0,0,1,7.26,11.89Z"/><path d="M15.23,22a1.4,1.4,0,0,1-1.32-.95,1.38,1.38,0,0,1,.87-1.77,2.83,2.83,0,0,0,2-2.68v-9a1.4,1.4,0,1,1,2.8,0v9a5.64,5.64,0,0,1-3.86,5.34A1.19,1.19,0,0,1,15.23,22Z"/><circle cx="18.14" cy="3.4" r="1.39"/></g></g></svg>