<svg xmlns="http://www.w3.org/2000/svg" viewBox="0 0 24 24"><defs><style>.cls-1{opacity:0.4;isolation:isolate;}</style></defs><g id="software"><g id="dropbox"><g class="cls-1"><path d="M17.8,9.14,12,13.21l4.69,3.3,4.58-3.43a.93.93,0,0,0,0-1.51Z"/><path d="M7.92,2.17a.93.93,0,0,0-1.09,0l-4.1,3a.94.94,0,0,0,0,1.52L6.2,9.14,12,5.05Z"/><path d="M2.75,11.57a.93.93,0,0,0,0,1.51l4.58,3.43L12,13.21,6.2,9.14Z"/><path d="M21.25,6.71a.94.94,0,0,0,0-1.52l-4.1-3a.93.93,0,0,0-1.09,0L12,5.05l5.8,4.09Z"/></g><path d="M16.69,16.51,12,13.22h0L7.31,16.51l-2.69-2V17a1.87,1.87,0,0,0,.92,1.58l5.56,3.2a1.82,1.82,0,0,0,1.83,0l5.55-3.2A1.82,1.82,0,0,0,19.4,17V14.49Z"/></g></g></svg>