<svg id="github" xmlns="http://www.w3.org/2000/svg" viewBox="0 0 24 24"><defs><style>.cls-1{opacity:0.3;isolation:isolate;}</style></defs><g id="github-2" data-name="github"><circle class="cls-1" cx="12" cy="11.94" r="10"/><path d="M17.52,6.65A.46.46,0,0,0,17,6.34a4.11,4.11,0,0,0-2.16,1.17,8.21,8.21,0,0,0-5,0A4,4,0,0,0,7.66,6.34a.45.45,0,0,0-.54.31h0A5.24,5.24,0,0,0,7.21,9.2a3.78,3.78,0,0,0-1,2.51c0,2.21,1.19,4,4.62,4.47a3,3,0,0,0-1.16,1.48L9,17.73l-.71.08-.29,0H7.82a.51.51,0,0,1-.29-.17A3.93,3.93,0,0,0,7,17a5.16,5.16,0,0,0-1.24-.93.35.35,0,0,0-.41.08.33.33,0,0,0,0,.46h0a5.11,5.11,0,0,1,.86,1,4.18,4.18,0,0,1,.28.56,1.6,1.6,0,0,0,.75.77,1.31,1.31,0,0,0,.54.17l.41.05.71.07.5.05V21.6a9.61,9.61,0,0,0,5.81-.19v-2.8A2.88,2.88,0,0,0,14,16.17c3.25-.43,4.64-2.27,4.64-4.46a3.78,3.78,0,0,0-1.13-2.62A5,5,0,0,0,17.52,6.65Z"/></g></svg>