<svg xmlns="http://www.w3.org/2000/svg" viewBox="0 0 24 24"><defs><style>.cls-1{opacity:0.3;}</style></defs><g id="software"><g id="google"><g class="cls-1"><path d="M13.55,21.88a10,10,0,1,1,4-18.22,1.34,1.34,0,0,1,.21,2l-.91,1a1.35,1.35,0,0,1-1.72.21,6,6,0,0,0-5-.56A6,6,0,1,0,17.63,14H13.56a1.36,1.36,0,0,1-1.36-1.36v-1.3A1.36,1.36,0,0,1,13.56,10h7.08A1.36,1.36,0,0,1,22,11.35v.4C22,16.47,18.22,21.18,13.55,21.88Z"/></g><path d="M6.11,11A5.95,5.95,0,0,1,12,6V2a10.13,10.13,0,0,0-2.6.33A10,10,0,0,0,12,22V18A6,6,0,0,1,6.11,11Z"/></g></g></svg>