<svg xmlns="http://www.w3.org/2000/svg" viewBox="0 0 24 24"><defs><style>.cls-1{opacity:0.3;}</style></defs><g id="software"><g id="html"><g class="cls-1"><path d="M17.47,20.53,12.69,21.9a2.49,2.49,0,0,1-1.38,0L6.55,20.53a2.48,2.48,0,0,1-1.79-2.14L3.34,4.76A2.5,2.5,0,0,1,5.83,2H18.17a2.5,2.5,0,0,1,2.49,2.76L19.27,18.38A2.51,2.51,0,0,1,17.47,20.53Z"/></g><path d="M11.81,18a.76.76,0,0,1-.21,0L8.37,17a.75.75,0,0,1-.53-.59l-.31-1.87A.75.75,0,1,1,9,14.28l.23,1.4,2.56.75,2.77-.89.27-3.41L8.25,12a.75.75,0,0,1-.73-.68L7.06,6.86a.77.77,0,0,1,.19-.58A.73.73,0,0,1,7.8,6h8.4a.75.75,0,0,1,0,1.5H8.64l.3,3,6.73.14a.69.69,0,0,1,.54.25.73.73,0,0,1,.19.56L16,16.16a.75.75,0,0,1-.52.65L12,17.93A.62.62,0,0,1,11.81,18Z"/></g></g></svg>