<svg xmlns="http://www.w3.org/2000/svg" viewBox="0 0 24 24"><defs><style>.cls-1{opacity:0.3;}</style></defs><g id="software"><g id="illustrator"><rect class="cls-1" x="1.97" y="2" width="20.06" height="20" rx="5.96" transform="translate(-0.06 0.06) rotate(-0.31)"/><path d="M11.25,7.92a.72.72,0,0,0-.67-.51.75.75,0,0,0-.72.44L7.5,13.15h0L6.27,15.93a.76.76,0,0,0,.38,1,.76.76,0,0,0,1-.39l1-2.33h3.08l.75,2.27a.75.75,0,0,0,.71.51.67.67,0,0,0,.24,0,.75.75,0,0,0,.47-1ZM9.35,12.7l1.09-2.47.82,2.47Z"/><path d="M16.73,10a.74.74,0,0,0-.75.75v5.47a.75.75,0,0,0,1.5,0V10.76A.75.75,0,0,0,16.73,10Z"/><circle cx="16.73" cy="8.16" r="1"/></g></g></svg>