<svg xmlns="http://www.w3.org/2000/svg" viewBox="0 0 24 24"><defs><style>.cls-1{opacity:0.3;}</style></defs><g id="software"><g id="js-2"><path d="M12,22.68a1.77,1.77,0,0,1-.92-.25L9,21.24a.75.75,0,0,1-.28-1,.76.76,0,0,1,1-.28l2.06,1.19a.34.34,0,0,0,.34,0l7.65-4.41a.36.36,0,0,0,.18-.3V7.58a.36.36,0,0,0-.18-.3L12.17,2.87a.34.34,0,0,0-.34,0L4.18,7.28a.36.36,0,0,0-.18.3v8.65a.67.67,0,0,0,.34.58l2,1.15a.78.78,0,0,0,1.16-.68l0-8.47a.74.74,0,0,1,.74-.75h0a.75.75,0,0,1,.75.74l0,8.48a2.25,2.25,0,0,1-1.13,2,2.22,2.22,0,0,1-2.28,0l-2-1.14A2.19,2.19,0,0,1,2.5,16.23V7.58A1.87,1.87,0,0,1,3.43,6l7.65-4.41a1.83,1.83,0,0,1,1.84,0L20.57,6a1.87,1.87,0,0,1,.93,1.6v8.84a1.87,1.87,0,0,1-.93,1.6l-7.65,4.41A1.77,1.77,0,0,1,12,22.68Z"/><g class="cls-1"><path d="M17.5,13.64A2.44,2.44,0,0,1,17.12,15a2.55,2.55,0,0,1-1.13.93,4.11,4.11,0,0,1-1.75.34,3.93,3.93,0,0,1-2-.46,2.64,2.64,0,0,1-.91-.88A2,2,0,0,1,11,13.83a.73.73,0,0,1,.21-.52.72.72,0,0,1,.53-.21.64.64,0,0,1,.45.17,1.38,1.38,0,0,1,.31.5,3.54,3.54,0,0,0,.34.65,1.38,1.38,0,0,0,.51.44,2,2,0,0,0,.87.17,1.92,1.92,0,0,0,1.2-.35,1,1,0,0,0,.47-.86.93.93,0,0,0-.25-.66,1.61,1.61,0,0,0-.65-.39,10.19,10.19,0,0,0-1.05-.29A8.44,8.44,0,0,1,12.42,12a2.38,2.38,0,0,1-.94-.76,1.93,1.93,0,0,1-.36-1.19,2.11,2.11,0,0,1,.37-1.21A2.38,2.38,0,0,1,12.57,8a4.3,4.3,0,0,1,1.64-.28,3.9,3.9,0,0,1,1.31.19,2.61,2.61,0,0,1,.92.5,2,2,0,0,1,.53.65,1.55,1.55,0,0,1,.17.67.77.77,0,0,1-.21.53.66.66,0,0,1-.52.24.64.64,0,0,1-.44-.14,2.08,2.08,0,0,1-.32-.47,2.21,2.21,0,0,0-.54-.73,1.59,1.59,0,0,0-1-.26,1.75,1.75,0,0,0-1,.29.81.81,0,0,0-.39.68.68.68,0,0,0,.13.42,1,1,0,0,0,.37.31,2,2,0,0,0,.48.2l.79.22a10.15,10.15,0,0,1,1.26.36,3.9,3.9,0,0,1,1,.47,2,2,0,0,1,.62.71A2.26,2.26,0,0,1,17.5,13.64Z"/></g></g></g></svg>