<svg xmlns="http://www.w3.org/2000/svg" viewBox="0 0 24 24"><defs><style>.cls-1{opacity:0.3;}</style></defs><g id="software"><g id="js"><path d="M10.52,17.3a.83.83,0,0,1-.22,0l-3.11-.93a.76.76,0,0,1-.51-.94.75.75,0,0,1,.93-.51l2.15.64V7.73a.76.76,0,1,1,1.51,0v8.81a.77.77,0,0,1-.3.61A.74.74,0,0,1,10.52,17.3Zm3.06-.23,3-.88a.75.75,0,0,0,.54-.72l0-3a.77.77,0,0,0-.25-.57.76.76,0,0,0-.6-.18L14.12,12V8.61l2.6-.41a.76.76,0,0,0,.63-.86.77.77,0,0,0-.87-.63l-3.23.51a.75.75,0,0,0-.64.75v4.92a.73.73,0,0,0,.26.56.71.71,0,0,0,.59.18l2.19-.27V14.9l-2.49.72a.76.76,0,0,0,.43,1.45Z"/><g class="cls-1"><path d="M17.47,20.53,12.69,21.9a2.49,2.49,0,0,1-1.38,0L6.55,20.53a2.48,2.48,0,0,1-1.79-2.14L3.34,4.76A2.5,2.5,0,0,1,5.83,2H18.17a2.5,2.5,0,0,1,2.49,2.76L19.27,18.38A2.51,2.51,0,0,1,17.47,20.53Z"/></g></g></g></svg>