<svg xmlns="http://www.w3.org/2000/svg" viewBox="0 0 24 24"><defs><style>.cls-1{opacity:0.3;}</style></defs><g id="software"><g id="Laravel"><path class="cls-1" d="M2.23,4.77V17a1,1,0,0,0,.51.86l6.81,3.88a1,1,0,0,0,1,0l6.86-4a1,1,0,0,0,.49-.87V13.07l3.39-2a1,1,0,0,0,.49-.86V6.94a1,1,0,0,0-.5-.86L18.39,4.39a1,1,0,0,0-1,0L14.48,6.06a1,1,0,0,0-.5.87V10.8L10.13,13V4.78A1,1,0,0,0,9.6,3.9l-3-1.63a1,1,0,0,0-1,0L2.74,3.9A1,1,0,0,0,2.23,4.77Z"/><path class="cls-1" d="M2.37,4.27,6,6.41,10,4.26A1,1,0,0,0,9.6,3.9l-3-1.63a1,1,0,0,0-1,0L2.74,3.9A1,1,0,0,0,2.37,4.27Z"/><path d="M10.13,4.78A1,1,0,0,0,10,4.26L6,6.41l.09,8.79,4-2.23Z"/><polygon class="cls-1" points="17.89 13.07 10.05 17.56 6.13 15.2 13.98 10.8 17.89 13.07"/><path d="M17.89,8.67v4.4l3.39-2a1,1,0,0,0,.49-.86V6.94a1.06,1.06,0,0,0-.13-.5Z"/><path d="M10.05,21.85a1,1,0,0,0,.49-.13l6.86-4a1,1,0,0,0,.49-.87V13.07l-7.84,4.49Z"/><path class="cls-1" d="M14.11,6.43l3.78,2.24,3.75-2.23a1,1,0,0,0-.37-.36L18.39,4.39a1,1,0,0,0-1,0L14.48,6.06A1,1,0,0,0,14.11,6.43Z"/></g></g></svg>