<svg xmlns="http://www.w3.org/2000/svg" viewBox="0 0 24 24"><defs><style>.cls-1{opacity:0.3;}</style></defs><g id="software"><g id="microsoft"><g class="cls-1"><path d="M13.37,3.68l7.22-.9A1.25,1.25,0,0,1,22,4V9.75A1.25,1.25,0,0,1,20.75,11H13.52a1.25,1.25,0,0,1-1.25-1.25V4.92A1.25,1.25,0,0,1,13.37,3.68Z"/></g><path d="M10.27,9.75V5.49A1.25,1.25,0,0,0,8.86,4.25L3.1,5A1.25,1.25,0,0,0,2,6.21V9.75A1.25,1.25,0,0,0,3.25,11H9A1.25,1.25,0,0,0,10.27,9.75Z"/><path d="M12.27,14.25v4.82a1.25,1.25,0,0,0,1.1,1.25l7.22.9A1.25,1.25,0,0,0,22,20V14.25A1.25,1.25,0,0,0,20.75,13H13.52A1.25,1.25,0,0,0,12.27,14.25Z"/><g class="cls-1"><path d="M9,13H3.25A1.25,1.25,0,0,0,2,14.25v3.54A1.25,1.25,0,0,0,3.1,19l5.76.72a1.25,1.25,0,0,0,1.41-1.24V14.25A1.25,1.25,0,0,0,9,13Z"/></g></g></g></svg>