<svg xmlns="http://www.w3.org/2000/svg" viewBox="0 0 24 24"><defs><style>.cls-1{fill:none;}.cls-2{opacity:0.3;}</style></defs><g id="software"><circle class="cls-1" cx="4.83" cy="13.39" r="0.61"/><path class="cls-1" d="M11.89,15.26a.61.61,0,1,0,.61.61A.61.61,0,0,0,11.89,15.26Z"/><circle class="cls-1" cx="11.76" cy="7.86" r="0.61"/><path class="cls-1" d="M16.38,9.08a.61.61,0,1,0-.61-.61A.61.61,0,0,0,16.38,9.08Z"/><path class="cls-1" d="M7.47,10.73a.62.62,0,0,0,.62-.61.62.62,0,1,0-.62.61Z"/><circle class="cls-1" cx="14.21" cy="12.42" r="0.61"/><circle class="cls-1" cx="19.17" cy="11.49" r="0.61"/><circle class="cls-2" cx="12" cy="12" r="10"/><path d="M16.38,7.86a.61.61,0,1,1-.61.61A.61.61,0,0,1,16.38,7.86Z"/><circle cx="11.76" cy="7.86" r="0.61"/><path d="M7.47,9.51a.61.61,0,0,1,.62.61.62.62,0,0,1-1.23,0A.61.61,0,0,1,7.47,9.51Z"/><circle cx="4.83" cy="13.39" r="0.61"/><path d="M11.89,16.48a.61.61,0,1,1,.61-.61A.61.61,0,0,1,11.89,16.48Z"/><circle cx="14.21" cy="12.42" r="0.61"/><path d="M16.9,11c-5.95-1.1-6.58,3.77-6.64,5.22a.41.41,0,0,1-.41.39H6.15a.41.41,0,0,1-.4-.54c.54-1.61,2.38-6.3,6-7a6.6,6.6,0,0,1,5.52,1.22A.41.41,0,0,1,16.9,11Z"/><circle cx="19.17" cy="11.49" r="0.61"/></g></svg>