<svg xmlns="http://www.w3.org/2000/svg" viewBox="0 0 24 24"><defs><style>.cls-1{opacity:0.3;}</style></defs><g id="software"><g id="photoshop"><rect class="cls-1" x="1.97" y="2" width="20.06" height="20" rx="5.96" transform="translate(-0.06 0.06) rotate(-0.31)"/><path d="M9.46,7.27h-2A.75.75,0,0,0,6.73,8V16a.75.75,0,0,0,1.5,0V12.71H9.46a2.72,2.72,0,0,0,0-5.44Zm0,3.94H8.23V8.77H9.46a1.22,1.22,0,0,1,0,2.44Zm7.84,3.53a2,2,0,0,1-2,2H14.08a.75.75,0,1,1,0-1.5h1.23a.49.49,0,1,0,0-1,2,2,0,0,1,0-4h1.24a.75.75,0,0,1,0,1.5H15.31a.49.49,0,0,0,0,1A2,2,0,0,1,17.3,14.74Z"/></g></g></svg>