<svg xmlns="http://www.w3.org/2000/svg" viewBox="0 0 24 24"><defs><style>.cls-1{opacity:0.3;}</style></defs><g id="software"><g id="python"><g class="cls-1"><path d="M19.85,7.56H16.44V4.15A2.15,2.15,0,0,0,14.29,2H9.71A2.15,2.15,0,0,0,7.56,4.15V7.56H4.15A2.15,2.15,0,0,0,2,9.71v4.58a2.15,2.15,0,0,0,2.15,2.15H7.56v3.41A2.15,2.15,0,0,0,9.71,22h4.58a2.15,2.15,0,0,0,2.15-2.15V16.44h3.41A2.15,2.15,0,0,0,22,14.29V9.71A2.15,2.15,0,0,0,19.85,7.56ZM10,5.43a.75.75,0,0,1-.74-.75A.74.74,0,0,1,10,3.94a.75.75,0,0,1,.75.74A.76.76,0,0,1,10,5.43Zm4,14.64a.8.8,0,0,1-.8-.8.79.79,0,0,1,.8-.79.79.79,0,0,1,.79.79A.79.79,0,0,1,14,20.07Z"/></g><path d="M14.29,2H9.71A2.15,2.15,0,0,0,7.56,4.15V7.56H4.15A2.15,2.15,0,0,0,2,9.71v4.58a2.15,2.15,0,0,0,2.15,2.15H7.56v-2A2.48,2.48,0,0,1,10,12h4.11a2.3,2.3,0,0,0,2.3-2.3V4.15A2.15,2.15,0,0,0,14.29,2ZM10,5.43a.75.75,0,0,1-.74-.75A.74.74,0,0,1,10,3.94a.75.75,0,0,1,.75.74A.76.76,0,0,1,10,5.43Z"/></g></g></svg>