<svg xmlns="http://www.w3.org/2000/svg" viewBox="0 0 24 24"><defs><style>.cls-1{opacity:0.3;}</style></defs><g id="software"><g id="slack"><rect x="12.31" y="2.25" width="4.3" height="8.78" rx="2.15"/><rect x="7.38" y="13.01" width="4.3" height="8.78" rx="2.15"/><rect x="4.25" y="4.94" width="4.3" height="8.78" rx="2.15" transform="translate(-2.93 15.73) rotate(-90)"/><rect x="15.45" y="10.32" width="4.3" height="8.78" rx="2.15" transform="translate(2.89 32.31) rotate(-90)"/><path class="cls-1" d="M2.23,14.73a1.86,1.86,0,0,0,2,2,1.94,1.94,0,0,0,1.73-2V13.35A.34.34,0,0,0,5.63,13H4.21A1.94,1.94,0,0,0,2.23,14.73Z"/><path class="cls-1" d="M9.07,2a1.87,1.87,0,0,0-2,2A2,2,0,0,0,9,5.74h1.42a.34.34,0,0,0,.34-.34V4A1.94,1.94,0,0,0,9.07,2Z"/><path class="cls-1" d="M14.92,22a1.87,1.87,0,0,0,2-2,2,2,0,0,0-2-1.72H13.54a.34.34,0,0,0-.34.34V20A1.94,1.94,0,0,0,14.92,22Z"/><path class="cls-1" d="M21.77,9.32a1.86,1.86,0,0,0-2-2,1.94,1.94,0,0,0-1.72,2V10.7a.34.34,0,0,0,.34.34h1.41A1.94,1.94,0,0,0,21.77,9.32Z"/></g></g></svg>