<svg xmlns="http://www.w3.org/2000/svg" viewBox="0 0 24 24"><defs><style>.cls-1{opacity:0.3;}</style></defs><g id="software"><g id="soft-8"><path d="M18.41,3.5A2.1,2.1,0,0,1,20.5,5.59V18.41a2.1,2.1,0,0,1-2.09,2.09H5.59A2.1,2.1,0,0,1,3.5,18.41V5.59A2.1,2.1,0,0,1,5.59,3.5H18.41m0-1.5H5.59A3.59,3.59,0,0,0,2,5.59V18.41A3.59,3.59,0,0,0,5.59,22H18.41A3.59,3.59,0,0,0,22,18.41V5.59A3.59,3.59,0,0,0,18.41,2Z"/><path class="cls-1" d="M13.19,8.44h1.3a1.19,1.19,0,0,1,1.19,1.19V22a0,0,0,0,1,0,0H12a0,0,0,0,1,0,0V9.64A1.19,1.19,0,0,1,13.19,8.44Z"/></g></g></svg>