<svg xmlns="http://www.w3.org/2000/svg" viewBox="0 0 24 24"><defs><style>.cls-1{opacity:0.3;}</style></defs><g id="software"><g id="soft"><circle class="cls-1" cx="12" cy="12.04" r="9.96"/><path d="M9,16.75a4.72,4.72,0,1,1,2.54-8.68.5.5,0,0,1-.54.84,3.71,3.71,0,1,0-2,6.84,3.68,3.68,0,0,0,1.72-.43.5.5,0,1,1,.47.89A4.76,4.76,0,0,1,9,16.75Z"/><circle cx="9" cy="12.04" r="1.64"/><path d="M13.1,14.87a.5.5,0,0,1-.5-.5V9.92a.5.5,0,0,1,.5-.5.5.5,0,0,1,.5.5v4.45A.5.5,0,0,1,13.1,14.87Z"/><path d="M13.1,11.64a.51.51,0,0,1-.39-.19.49.49,0,0,1,.09-.7l1.57-1.23a.5.5,0,1,1,.61.79l-1.57,1.22A.45.45,0,0,1,13.1,11.64Z"/><path d="M19.38,14.87H18a2.44,2.44,0,0,1-2.34-2.72A2.56,2.56,0,0,1,18,9.42a2.56,2.56,0,0,1,2.34,2.73.5.5,0,0,1-.5.5H16.66A1.33,1.33,0,0,0,18,13.87h1.43a.5.5,0,0,1,.5.5A.5.5,0,0,1,19.38,14.87Zm-2.71-3.22h2.56A1.43,1.43,0,0,0,18,10.42,1.44,1.44,0,0,0,16.67,11.65Z"/></g></g></svg>