<svg xmlns="http://www.w3.org/2000/svg" viewBox="0 0 24 24"><defs><style>.cls-1{opacity:0.3;}</style></defs><g id="software"><g id="spotify"><path d="M17.31,11.06a.72.72,0,0,1-.47-.17c-4.37-3.55-10-1.26-10.07-1.23a.75.75,0,0,1-.58-1.39c.26-.11,6.52-2.67,11.6,1.46a.75.75,0,0,1,.1,1.06A.73.73,0,0,1,17.31,11.06Zm-.69,2.27a.76.76,0,0,0-.21-1,9,9,0,0,0-8.69-1,.75.75,0,0,0-.34,1,.74.74,0,0,0,1,.34,7.52,7.52,0,0,1,7.2.88.78.78,0,0,0,.41.12A.74.74,0,0,0,16.62,13.33Zm-1.19,2.88a.74.74,0,0,0-.19-1,7.73,7.73,0,0,0-6.8-.86A.75.75,0,0,0,9,15.71a6.24,6.24,0,0,1,5.42.69.75.75,0,0,0,.42.14A.76.76,0,0,0,15.43,16.21Z"/><circle class="cls-1" cx="12" cy="12" r="10"/></g></g></svg>