<svg xmlns="http://www.w3.org/2000/svg" viewBox="0 0 24 24"><defs><style>.cls-1{opacity:0.3;}</style></defs><g id="software"><g id="spring-framework"><path class="cls-1" d="M20.83,4.84a.8.8,0,0,0-1.4-.19L19.14,5A10,10,0,0,1,22,11.68,19.24,19.24,0,0,0,20.83,4.84Z"/><path class="cls-1" d="M22,11.68c-.21,4.22-2.74,8.24-12.13,7.1a.29.29,0,0,1,0-.57c2.51-.71,7.47-2.75,9-8.08A11.69,11.69,0,0,1,6.45,17.05,1.33,1.33,0,0,1,5.33,16c-.47-2-.91-6.72,4.6-7.49S17.64,6.88,19.14,5A10,10,0,1,0,22,12C22,11.92,22,11.8,22,11.68Z"/></g></g></svg>