<svg xmlns="http://www.w3.org/2000/svg" viewBox="0 0 24 24"><defs><style>.cls-1{opacity:0.3;}</style></defs><g id="software"><g id="ts"><rect class="cls-1" x="1.97" y="2" width="20.06" height="20" rx="4.43" transform="translate(-0.06 0.06) rotate(-0.31)"/><path d="M14.2,11.61H9.34a.5.5,0,0,0-.5.5v.72a.5.5,0,0,0,.5.5h1.5v5.34a.5.5,0,0,0,.5.5h.85a.5.5,0,0,0,.5-.5V13.33H14.2a.5.5,0,0,0,.5-.5v-.72A.51.51,0,0,0,14.2,11.61Z"/><path d="M18,14.49c-.92-.36-1-.55-1-.8s.2-.48.74-.48a2.06,2.06,0,0,1,1,.25.48.48,0,0,0,.42,0,.51.51,0,0,0,.29-.3l.23-.69a.51.51,0,0,0-.22-.6,3.52,3.52,0,0,0-1.7-.39,2.39,2.39,0,0,0-2.62,2.29c0,1.59,1.55,2.15,2.05,2.32.92.35.92.61.92.84,0,.54-.55.62-.88.62A2.42,2.42,0,0,1,16,17.21a.53.53,0,0,0-.44,0,.49.49,0,0,0-.3.33l-.22.71a.51.51,0,0,0,.2.56,3.88,3.88,0,0,0,2,.5c1.94,0,2.8-1.2,2.8-2.39A2.55,2.55,0,0,0,18,14.49Z"/></g></g></svg>