<svg xmlns="http://www.w3.org/2000/svg" viewBox="0 0 24 24"><defs><style>.cls-1{opacity:0.3;}</style></defs><g id="software"><g id="twitch"><g class="cls-1"><path d="M21.5,13.46V3.08A1.09,1.09,0,0,0,20.41,2H5.11a1.09,1.09,0,0,0-.91.49L2.69,4.76a1.09,1.09,0,0,0-.19.6V17.83a1.09,1.09,0,0,0,1.09,1.09H5.33A1.09,1.09,0,0,1,6.42,20v.91A1.09,1.09,0,0,0,7.51,22H8.84a1.09,1.09,0,0,0,.91-.48l1.43-2.13a1.1,1.1,0,0,1,.91-.48H16a1.1,1.1,0,0,0,.77-.32l4.38-4.37A1.14,1.14,0,0,0,21.5,13.46Z"/></g><rect x="8.5" y="6.5" width="2.28" height="6.91" rx="0.74"/><rect x="14.21" y="6.53" width="2.28" height="6.91" rx="0.74"/></g></g></svg>