<svg xmlns="http://www.w3.org/2000/svg" viewBox="0 0 24 24"><defs><style>.cls-1{opacity:0.4;isolation:isolate;}</style></defs><g id="software"><g id="vuesax"><path d="M12.05,22h0a.74.74,0,0,1-.62-.33L2.54,8.32a.75.75,0,0,1,.21-1,.74.74,0,0,1,1,.21l8.26,12.41L20.21,7.65a.75.75,0,0,1,1.25.83L12.67,21.67A.73.73,0,0,1,12.05,22Z"/><path class="cls-1" d="M17.6,4.24l-5.07,7.6a.65.65,0,0,1-1.1,0L6.36,4.24A.66.66,0,0,0,5.81,4H4.49a.66.66,0,0,0-.56,1l7.51,11.72a.66.66,0,0,0,1.12,0L20.17,5a.66.66,0,0,0-.56-1H18.15A.66.66,0,0,0,17.6,4.24Z"/><path d="M15.84,3,12.58,7.9a.72.72,0,0,1-1.2,0L8.12,3,10.83,4V2.67A.67.67,0,0,1,11.51,2h1a.68.68,0,0,1,.68.67V4Z"/></g></g></svg>