<svg xmlns="http://www.w3.org/2000/svg" viewBox="0 0 24 24"><defs><style>.cls-1{opacity:0.3;}</style></defs><g id="software"><g id="xd"><rect class="cls-1" x="1.97" y="2" width="20.06" height="20" rx="5.96" transform="translate(-0.06 0.06) rotate(-0.31)"/><path d="M12,7.89A.75.75,0,0,0,10.94,8L8.82,10.75,6.7,8a.75.75,0,0,0-1.18.92l2.35,3L5.52,15a.75.75,0,0,0,.59,1.21.75.75,0,0,0,.59-.29L8.82,13.2l2.12,2.73a.76.76,0,0,0,.6.29.74.74,0,0,0,.46-.16.76.76,0,0,0,.13-1L9.77,12l2.36-3A.76.76,0,0,0,12,7.89Z"/><path d="M17.92,7.73a.74.74,0,0,0-.75.75v2.74h-1a2.5,2.5,0,0,0,0,5h1.75a.75.75,0,0,0,.75-.75v-7A.75.75,0,0,0,17.92,7.73Zm-2.75,6a1,1,0,0,1,1-1h1v2h-1A1,1,0,0,1,15.17,13.72Z"/></g></g></svg>