<svg xmlns="http://www.w3.org/2000/svg" viewBox="0 0 24 24"><defs><style>.cls-1{opacity:0.3;}</style></defs><g id="software"><g id="yii"><path class="cls-1" d="M2.92,3.85a8.52,8.52,0,0,1,8,.91,14.32,14.32,0,0,1,5.6,10.33s-1.25-2.37-5.55-3.41S2.54,9.27,2.92,3.85Z"/><path class="cls-1" d="M9.69,22a6.86,6.86,0,0,1,1.42-6.19c2.48-3.12,3.14-4.72,3.35-7.15a15.37,15.37,0,0,1,2,6.4C16.75,18.7,13,22.09,9.69,22Z"/><path d="M19.15,2A4.77,4.77,0,0,0,15,5.51c-.73,3,1.24,2.92,1.72,8A.71.71,0,0,0,18,13.9C20.22,11.42,24.47,5.62,19.15,2Z"/></g></g></svg>