<svg xmlns="http://www.w3.org/2000/svg" viewBox="0 0 24 24"><defs><style>.cls-1{opacity:0.3;}</style></defs><g id="support"><g id="_24-support" data-name="24-support"><path class="cls-1" d="M18.08,2H5.92A2.92,2.92,0,0,0,3,4.87v11a2.92,2.92,0,0,0,2.92,2.92H7.06a2.19,2.19,0,0,1,1.63.71l1.7,1.84a2.23,2.23,0,0,0,3.23,0l1.81-1.9a2.21,2.21,0,0,1,1.6-.68h1A2.92,2.92,0,0,0,21,15.87v-11A2.92,2.92,0,0,0,18.08,2Z"/><path d="M10.33,14.32H7.56a1.34,1.34,0,0,1-1-2.23A8.26,8.26,0,0,1,7.85,11c.77-.6,1.73-1.35,1.73-2a.88.88,0,0,0-.24-.64.91.91,0,0,0-.66-.25.9.9,0,0,0-.9.9.75.75,0,0,1-1.5,0,2.4,2.4,0,1,1,4.8,0c0,1.36-1.23,2.31-2.31,3.15-.31.24-.61.47-.83.68h2.39a.75.75,0,0,1,0,1.5ZM7.69,13.07Z"/><path d="M15.94,14.32h0a.74.74,0,0,1-.74-.75v-.66H12.92a1.16,1.16,0,0,1-1-.63A1.15,1.15,0,0,1,12,11.07l2.64-3.83a1.18,1.18,0,0,1,1.32-.46,1.16,1.16,0,0,1,.82,1.13l0,3.5h.4a.75.75,0,0,1,0,1.5h-.41v.67A.75.75,0,0,1,15.94,14.32Zm-2.4-2.91H15.2l0-2.45Z"/></g></g></svg>