<svg xmlns="http://www.w3.org/2000/svg" viewBox="0 0 24 24"><defs><style>.cls-1{opacity:0.3;}</style></defs><g id="support"><g id="heart"><path class="cls-1" d="M18.43,3.32A6.51,6.51,0,0,0,12.75,4a.83.83,0,0,1-.91,0,6.49,6.49,0,0,0-5.22-.81A6.08,6.08,0,0,0,2.1,9.08C2,16,9.16,19.78,11.53,20.86a2,2,0,0,0,1.54.05C15.43,20,22.35,16.72,22.48,9A6.13,6.13,0,0,0,18.43,3.32Z"/><path d="M18.43,3.32A6.51,6.51,0,0,0,12.75,4a.83.83,0,0,1-.91,0,6.49,6.49,0,0,0-5.22-.81A6.08,6.08,0,0,0,2.1,9.08a9.81,9.81,0,0,0,.19,2h20A11.31,11.31,0,0,0,22.48,9,6.13,6.13,0,0,0,18.43,3.32Z"/></g></g></svg>