<svg xmlns="http://www.w3.org/2000/svg" viewBox="0 0 24 24"><defs><style>.cls-1{opacity:0.3;}</style></defs><g id="support"><g id="information-4"><path class="cls-1" d="M10.17,2.47,4.67,5.65A3.65,3.65,0,0,0,2.84,8.82v6.36a3.65,3.65,0,0,0,1.83,3.17l5.5,3.18a3.68,3.68,0,0,0,3.66,0l5.5-3.18a3.65,3.65,0,0,0,1.83-3.17V8.82a3.65,3.65,0,0,0-1.83-3.17l-5.5-3.18A3.68,3.68,0,0,0,10.17,2.47Z"/><path d="M12,10.6a1,1,0,0,1,1,1v4.66a1,1,0,0,1-2,0V11.6A1,1,0,0,1,12,10.6Z"/><circle cx="12" cy="7.99" r="1.25"/></g></g></svg>