<svg xmlns="http://www.w3.org/2000/svg" viewBox="0 0 24 24"><defs><style>.cls-1{opacity:0.3;}</style></defs><g id="support"><g id="information-3"><path class="cls-1" d="M10.17,21.53l-5.5-3.18a3.65,3.65,0,0,1-1.83-3.17V8.82A3.65,3.65,0,0,1,4.67,5.65l5.5-3.18a3.68,3.68,0,0,1,3.66,0l5.5,3.18a3.65,3.65,0,0,1,1.83,3.17v6.36a3.65,3.65,0,0,1-1.83,3.17l-5.5,3.18A3.68,3.68,0,0,1,10.17,21.53Z"/><path d="M12,13.4a1,1,0,0,0,1-1V7.74a1,1,0,0,0-2,0V12.4A1,1,0,0,0,12,13.4Z"/><circle cx="12" cy="16.01" r="1.25"/></g></g></svg>