<svg xmlns="http://www.w3.org/2000/svg" viewBox="0 0 24 24"><defs><style>.cls-1{opacity:0.3;}</style></defs><g id="support"><g id="like-shapes"><path class="cls-1" d="M21.39,10.53,20,9.12a1,1,0,0,1-.3-.73v-2A2.08,2.08,0,0,0,17.6,4.32h-2a1,1,0,0,1-.73-.3L13.47,2.61a2.08,2.08,0,0,0-2.94,0L9.12,4a1,1,0,0,1-.73.3h-2A2.08,2.08,0,0,0,4.32,6.4v2a1,1,0,0,1-.3.73L2.61,10.53a2.08,2.08,0,0,0,0,2.94L4,14.88a1,1,0,0,1,.3.73v2A2.08,2.08,0,0,0,6.4,19.68h2a1,1,0,0,1,.73.3l1.41,1.41a2.08,2.08,0,0,0,2.94,0L14.88,20a1,1,0,0,1,.73-.3h2a2.08,2.08,0,0,0,2.08-2.08v-2a1,1,0,0,1,.3-.73l1.41-1.41A2.08,2.08,0,0,0,21.39,10.53Z"/><path d="M16,10.73H14a.57.57,0,0,1-.56-.67l.25-1.43a1.06,1.06,0,0,0-1.94-.77L9.9,10.71v-.58a.76.76,0,0,0-.76-.76h-1a.76.76,0,0,0-.76.76v5.13a.76.76,0,0,0,.76.76h1a.76.76,0,0,0,.76-.76v.07l1.26,1a1.63,1.63,0,0,0,.93.3h2.42a1.08,1.08,0,0,0,1-.76l1.24-4.05A.86.86,0,0,0,16,10.73Z"/></g></g></svg>