<svg xmlns="http://www.w3.org/2000/svg" viewBox="0 0 24 24"><defs><style>.cls-1{opacity:0.3;}</style></defs><g id="support"><g id="like-tag"><path class="cls-1" d="M18.08,2H5.92A2.92,2.92,0,0,0,3,4.87v11a2.92,2.92,0,0,0,2.92,2.92H7.06a2.19,2.19,0,0,1,1.63.71l1.7,1.84a2.23,2.23,0,0,0,3.23,0l1.81-1.9a2.21,2.21,0,0,1,1.6-.68h1A2.92,2.92,0,0,0,21,15.87v-11A2.92,2.92,0,0,0,18.08,2Z"/><path d="M15.88,9.1H13.94a.58.58,0,0,1-.56-.67L13.63,7a1.07,1.07,0,0,0-1.94-.78L9.8,9.08V8.49A.76.76,0,0,0,9,7.73H8a.76.76,0,0,0-.76.76v5.13a.76.76,0,0,0,.76.76H9a.76.76,0,0,0,.76-.76v.08l1.26,1A1.63,1.63,0,0,0,12,15h2.42a1.07,1.07,0,0,0,1-.76l1.24-4A.86.86,0,0,0,15.88,9.1Z"/></g></g></svg>