<svg xmlns="http://www.w3.org/2000/svg" viewBox="0 0 24 24"><defs><style>.cls-1{opacity:0.3;}</style></defs><g id="support"><g id="like-2"><path class="cls-1" d="M18.08,2H5.92A2.92,2.92,0,0,0,3,4.87v11a2.92,2.92,0,0,0,2.92,2.92H7.06a2.19,2.19,0,0,1,1.63.71l1.7,1.84a2.23,2.23,0,0,0,3.23,0l1.81-1.9a2.21,2.21,0,0,1,1.6-.68h1A2.92,2.92,0,0,0,21,15.87v-11A2.92,2.92,0,0,0,18.08,2Z"/><path d="M14.71,7.18A2.91,2.91,0,0,0,12,7.61a2.89,2.89,0,0,0-2.5-.49,2.67,2.67,0,0,0-2,2.58c0,3.18,3.49,4.87,4.33,5.23a.5.5,0,0,0,.34,0c.8-.27,4.27-1.67,4.33-5.27A2.68,2.68,0,0,0,14.71,7.18Z"/></g></g></svg>