<svg xmlns="http://www.w3.org/2000/svg" viewBox="0 0 24 24"><defs><style>.cls-1{opacity:0.3;}</style></defs><g id="support"><g id="lovely"><g class="cls-1"><path d="M10.29,13.6a4.2,4.2,0,0,1,3.16-4.07A4.6,4.6,0,0,1,16.9,10a4.54,4.54,0,0,1,3.75-.38,4.88,4.88,0,0,1,.66.29,9.64,9.64,0,0,0,.08-1.1,5.37,5.37,0,0,0-3.57-5,5.82,5.82,0,0,0-5.42.87,5.79,5.79,0,0,0-5-1,5.34,5.34,0,0,0-4,5.16c-.1,6.36,7,9.74,8.65,10.45a.94.94,0,0,0,.68,0,4.37,4.37,0,0,0,.48-.18A7.07,7.07,0,0,1,10.29,13.6Z"/></g><path d="M16.9,11.85l-.46-.35a2.94,2.94,0,0,0-1.81-.62,3.74,3.74,0,0,0-.81.1,2.73,2.73,0,0,0-2,2.65c-.07,3.69,4.29,5.73,5.17,6.1.75-.29,5-1.95,5-6.17a2.78,2.78,0,0,0-1.81-2.51,3,3,0,0,0-2.84.45Z"/></g></g></svg>