<svg xmlns="http://www.w3.org/2000/svg" viewBox="0 0 24 24"><defs><style>.cls-1{opacity:0.3;}</style></defs><g id="support"><g id="medal-star"><path d="M13.66,12.25l-1.11-.58a.62.62,0,0,0-.59,0l-1.1.58a.64.64,0,0,1-.93-.67l.21-1.23A.67.67,0,0,0,10,9.78l-.89-.87a.64.64,0,0,1,.35-1.09l1.24-.18a.63.63,0,0,0,.48-.35l.55-1.12a.64.64,0,0,1,1.15,0l.55,1.12a.64.64,0,0,0,.48.35l1.24.18a.64.64,0,0,1,.35,1.09l-.89.87a.64.64,0,0,0-.18.57l.21,1.23A.64.64,0,0,1,13.66,12.25Z"/><circle class="cls-1" cx="12.26" cy="9.18" r="6.94"/><path d="M21.81,16.86,18.1,12.92a6.94,6.94,0,0,1-5.84,3.2h-.18L17,21.37a1,1,0,0,0,1.69-.5L19,19.48a1,1,0,0,1,.85-.8l1.41-.17A1,1,0,0,0,21.81,16.86Z"/><path d="M6.24,12.64,2.19,17a1,1,0,0,0,.6,1.65l1.41.17a1,1,0,0,1,.85.8L5.3,21A1,1,0,0,0,7,21.45l5-5.34A7,7,0,0,1,6.24,12.64Z"/></g></g></svg>