<svg xmlns="http://www.w3.org/2000/svg" viewBox="0 0 24 24"><defs><style>.cls-1{opacity:0.3;}</style></defs><g id="support"><g id="message-questio"><path class="cls-1" d="M17.49,2.27h-11A4.51,4.51,0,0,0,2,6.78V13.6a4.51,4.51,0,0,0,4.51,4.51h0A.49.49,0,0,1,7,18.6v2.17a1,1,0,0,0,1.53.78L13,18.29a1,1,0,0,1,.57-.18h3.89A4.51,4.51,0,0,0,22,13.6V6.78A4.51,4.51,0,0,0,17.49,2.27Z"/><path d="M12,12.29a.75.75,0,0,1-.75-.75v-.28A2.49,2.49,0,0,1,12.4,9.1a.78.78,0,0,0,.4-.68.8.8,0,0,0-1.6,0,.75.75,0,0,1-1.5,0,2.3,2.3,0,1,1,3.46,2,1,1,0,0,0-.41.86v.28A.75.75,0,0,1,12,12.29Z"/><circle cx="12" cy="13.74" r="0.75"/></g></g></svg>