<svg xmlns="http://www.w3.org/2000/svg" viewBox="0 0 24 24"><g id="grid"><path id="element-11" d="M8.72,11.25h-5A2.52,2.52,0,0,1,1.25,8.73v-5A2.52,2.52,0,0,1,3.77,1.25h5a2.52,2.52,0,0,1,2.52,2.52v5A2.52,2.52,0,0,1,8.72,11.25Zm-5-8.5a1,1,0,0,0-1,1v5a1,1,0,0,0,1,1h5a1,1,0,0,0,1-1v-5a1,1,0,0,0-1-1Zm16.46,8.5h-5a2.52,2.52,0,0,1-2.52-2.52v-5a2.52,2.52,0,0,1,2.52-2.52h5a2.52,2.52,0,0,1,2.52,2.52v5A2.52,2.52,0,0,1,20.23,11.25Zm-5-8.5a1,1,0,0,0-1,1v5a1,1,0,0,0,1,1h5a1,1,0,0,0,1-1v-5a1,1,0,0,0-1-1Zm4.94,20H15.27a2.52,2.52,0,0,1-2.52-2.52v-5a2.52,2.52,0,0,1,2.52-2.52h4.95a2.52,2.52,0,0,1,2.52,2.52v5A2.52,2.52,0,0,1,20.22,22.75Zm-4.95-8.5a1,1,0,0,0-1,1v5a1,1,0,0,0,1,1h4.95a1,1,0,0,0,1-1v-5a1,1,0,0,0-1-1Zm-6.55,8.5h-5a2.52,2.52,0,0,1-2.52-2.52v-5a2.52,2.52,0,0,1,2.52-2.52h5a2.52,2.52,0,0,1,2.52,2.52v5A2.52,2.52,0,0,1,8.72,22.75Zm-5-8.5a1,1,0,0,0-1,1v5a1,1,0,0,0,1,1h5a1,1,0,0,0,1-1v-5a1,1,0,0,0-1-1Z"/></g></svg>