<svg xmlns="http://www.w3.org/2000/svg" viewBox="0 0 24 24"><g id="grid"><path id="element-9" d="M19.82,22.25H4.18a2.43,2.43,0,0,1-2.43-2.43V12.1A2.43,2.43,0,0,1,4.18,9.68H19.82a2.43,2.43,0,0,1,2.43,2.42v7.72A2.43,2.43,0,0,1,19.82,22.25ZM4.18,11.18a.93.93,0,0,0-.93.92v7.72a.93.93,0,0,0,.93.93H19.82a.93.93,0,0,0,.93-.93V12.1a.93.93,0,0,0-.93-.92ZM19.75,8.25H4.25a2.5,2.5,0,0,1-2.5-2.5V4.25a2.5,2.5,0,0,1,2.5-2.5h15.5a2.5,2.5,0,0,1,2.5,2.5v1.5A2.5,2.5,0,0,1,19.75,8.25Zm-15.5-5a1,1,0,0,0-1,1v1.5a1,1,0,0,0,1,1h15.5a1,1,0,0,0,1-1V4.25a1,1,0,0,0-1-1Z"/></g></svg>