<svg xmlns="http://www.w3.org/2000/svg" viewBox="0 0 24 24"><g id="grid"><path id="element-12" d="M19.9,13.25H15.05a2.42,2.42,0,0,1-2.41-2.42V3.66a2.41,2.41,0,0,1,2.41-2.41H19.9a2.41,2.41,0,0,1,2.41,2.41v7.17A2.42,2.42,0,0,1,19.9,13.25ZM15.05,2.75a.91.91,0,0,0-.91.91v7.17a.92.92,0,0,0,.91.92H19.9a.92.92,0,0,0,.91-.92V3.66a.91.91,0,0,0-.91-.91Zm4.87,20H15.14a2.4,2.4,0,0,1-2.39-2.4V17.09a2.39,2.39,0,0,1,2.39-2.39h4.78a2.39,2.39,0,0,1,2.39,2.39v3.26A2.4,2.4,0,0,1,19.92,22.75ZM15.14,16.2a.89.89,0,0,0-.89.89v3.26a.89.89,0,0,0,.89.9h4.78a.89.89,0,0,0,.89-.9V17.09a.89.89,0,0,0-.89-.89ZM8.75,22.75H4.13a2.45,2.45,0,0,1-2.44-2.44V3.69A2.45,2.45,0,0,1,4.13,1.25H8.75a2.45,2.45,0,0,1,2.44,2.44V20.31A2.45,2.45,0,0,1,8.75,22.75Zm-4.62-20a.94.94,0,0,0-.94.94V20.31a.94.94,0,0,0,.94.94H8.75a.94.94,0,0,0,.94-.94V3.69a.94.94,0,0,0-.94-.94Z"/></g></svg>