<svg xmlns="http://www.w3.org/2000/svg" viewBox="0 0 24 24"><g id="grid"><path id="element-6" d="M20,22.25h-1.2a2.3,2.3,0,0,1-2.3-2.3V12a2.31,2.31,0,0,1,2.3-2.31H20A2.31,2.31,0,0,1,22.25,12V20A2.3,2.3,0,0,1,20,22.25Zm-1.2-11A.8.8,0,0,0,18,12V20a.8.8,0,0,0,.8.8H20a.8.8,0,0,0,.8-.8V12a.8.8,0,0,0-.8-.81Zm-6.07,11H11.53A2.29,2.29,0,0,1,9.25,20V12a2.29,2.29,0,0,1,2.28-2.29h1.15A2.3,2.3,0,0,1,15,12V20A2.3,2.3,0,0,1,12.68,22.25Zm-1.15-11a.79.79,0,0,0-.78.79V20a.78.78,0,0,0,.78.79h1.15a.79.79,0,0,0,.79-.79V12a.79.79,0,0,0-.79-.79Zm-6.15,11H4.08a2.34,2.34,0,0,1-2.33-2.33V12.06A2.34,2.34,0,0,1,4.08,9.73h1.3a2.34,2.34,0,0,1,2.33,2.33v7.86A2.34,2.34,0,0,1,5.38,22.25Zm-1.3-11a.83.83,0,0,0-.83.83v7.86a.83.83,0,0,0,.83.83h1.3a.83.83,0,0,0,.83-.83V12.06a.83.83,0,0,0-.83-.83Zm15.67-3H4.25a2.5,2.5,0,0,1-2.5-2.5V4.25a2.5,2.5,0,0,1,2.5-2.5h15.5a2.5,2.5,0,0,1,2.5,2.5v1.5A2.5,2.5,0,0,1,19.75,8.25Zm-15.5-5a1,1,0,0,0-1,1v1.5a1,1,0,0,0,1,1h15.5a1,1,0,0,0,1-1V4.25a1,1,0,0,0-1-1Z"/></g></svg>