<svg xmlns="http://www.w3.org/2000/svg" viewBox="0 0 24 24"><g id="grid"><path id="grid-2" data-name="grid" d="M9.22,1.25h-5A2.52,2.52,0,0,0,1.75,3.77v5a2.52,2.52,0,0,0,2.52,2.52h5a2.52,2.52,0,0,0,2.52-2.52v-5A2.52,2.52,0,0,0,9.22,1.25Zm1,7.48a1,1,0,0,1-1,1h-5a1,1,0,0,1-1-1v-5a1,1,0,0,1,1-1h5a1,1,0,0,1,1,1ZM20.73,1.25h-5a2.52,2.52,0,0,0-2.51,2.52v5a2.52,2.52,0,0,0,2.51,2.52h5a2.52,2.52,0,0,0,2.52-2.52v-5A2.52,2.52,0,0,0,20.73,1.25Zm1,7.48a1,1,0,0,1-1,1h-5a1,1,0,0,1-1-1v-5a1,1,0,0,1,1-1h5a1,1,0,0,1,1,1Zm-12.53,4h-5a2.52,2.52,0,0,0-2.52,2.52v5a2.52,2.52,0,0,0,2.52,2.52h5a2.52,2.52,0,0,0,2.52-2.52v-5A2.52,2.52,0,0,0,9.22,12.75Zm1,7.48a1,1,0,0,1-1,1h-5a1,1,0,0,1-1-1v-5a1,1,0,0,1,1-1h5a1,1,0,0,1,1,1Zm11.87-2.48a.75.75,0,0,1-.75.75H19v2.36a.75.75,0,0,1-1.5,0V18.5H15.14a.75.75,0,0,1,0-1.5H17.5V14.64a.75.75,0,0,1,1.5,0V17h2.36A.75.75,0,0,1,22.11,17.75Z"/></g></svg>