<svg xmlns="http://www.w3.org/2000/svg" viewBox="0 0 24 24"><g id="grid"><path id="element-2" d="M5.41,2.75V5.41H2.75V2.75H5.41m.37-1.5H2.38A1.14,1.14,0,0,0,1.25,2.38v3.4A1.14,1.14,0,0,0,2.38,6.91h3.4A1.14,1.14,0,0,0,6.91,5.78V2.38A1.14,1.14,0,0,0,5.78,1.25Zm15.47,1.5V5.41H18.59V2.75h2.66m-7.92,0V5.41H10.67V2.75h2.66m7.92,7.92v2.66H18.59V10.67h2.66m-7.92,0v2.66H10.67V10.67h2.66m-7.92,0v2.66H2.75V10.67H5.41m15.84,7.92v2.66H18.59V18.59h2.66m-7.92,0v2.66H10.67V18.59h2.66m-7.92,0v2.66H2.75V18.59H5.41M21.62,1.25h-3.4a1.14,1.14,0,0,0-1.13,1.13v3.4a1.14,1.14,0,0,0,1.13,1.13h3.4a1.14,1.14,0,0,0,1.13-1.13V2.38a1.14,1.14,0,0,0-1.13-1.13Zm-7.92,0H10.3A1.14,1.14,0,0,0,9.17,2.38v3.4A1.14,1.14,0,0,0,10.3,6.91h3.4a1.14,1.14,0,0,0,1.13-1.13V2.38A1.14,1.14,0,0,0,13.7,1.25Zm7.92,7.92h-3.4a1.14,1.14,0,0,0-1.13,1.13v3.4a1.14,1.14,0,0,0,1.13,1.13h3.4a1.14,1.14,0,0,0,1.13-1.13V10.3a1.14,1.14,0,0,0-1.13-1.13Zm-7.92,0H10.3A1.14,1.14,0,0,0,9.17,10.3v3.4a1.14,1.14,0,0,0,1.13,1.13h3.4a1.14,1.14,0,0,0,1.13-1.13V10.3A1.14,1.14,0,0,0,13.7,9.17Zm-7.92,0H2.38A1.14,1.14,0,0,0,1.25,10.3v3.4a1.14,1.14,0,0,0,1.13,1.13h3.4A1.14,1.14,0,0,0,6.91,13.7V10.3A1.14,1.14,0,0,0,5.78,9.17Zm15.84,7.92h-3.4a1.14,1.14,0,0,0-1.13,1.13v3.4a1.14,1.14,0,0,0,1.13,1.13h3.4a1.14,1.14,0,0,0,1.13-1.13v-3.4a1.14,1.14,0,0,0-1.13-1.13Zm-7.92,0H10.3a1.14,1.14,0,0,0-1.13,1.13v3.4a1.14,1.14,0,0,0,1.13,1.13h3.4a1.14,1.14,0,0,0,1.13-1.13v-3.4a1.14,1.14,0,0,0-1.13-1.13Zm-7.92,0H2.38a1.14,1.14,0,0,0-1.13,1.13v3.4a1.14,1.14,0,0,0,1.13,1.13h3.4a1.14,1.14,0,0,0,1.13-1.13v-3.4a1.14,1.14,0,0,0-1.13-1.13Z"/></g></svg>