<svg xmlns="http://www.w3.org/2000/svg" viewBox="0 0 24 24"><g id="grid"><path id="element-4" d="M10.79,21.75H4.69a3.44,3.44,0,0,1-3.44-3.44V5.69A3.44,3.44,0,0,1,4.69,2.25h6.1a3.44,3.44,0,0,1,3.43,3.44V18.31A3.44,3.44,0,0,1,10.79,21.75Zm-6.1-18A1.94,1.94,0,0,0,2.75,5.69V18.31a1.94,1.94,0,0,0,1.94,1.94h6.1a1.93,1.93,0,0,0,1.93-1.94V5.69a1.93,1.93,0,0,0-1.93-1.94Zm15.63,18H18.16a2.43,2.43,0,0,1-2.43-2.43V4.68a2.43,2.43,0,0,1,2.43-2.43h2.16a2.43,2.43,0,0,1,2.43,2.43V19.32A2.43,2.43,0,0,1,20.32,21.75Zm-2.16-18a.93.93,0,0,0-.93.93V19.32a.93.93,0,0,0,.93.93h2.16a.93.93,0,0,0,.93-.93V4.68a.93.93,0,0,0-.93-.93Z"/></g></svg>