<svg xmlns="http://www.w3.org/2000/svg" viewBox="0 0 24 24"><g id="grid"><path id="element-8" d="M19.91,22.25H12.49a2.35,2.35,0,0,1-2.35-2.34V18.78a2.35,2.35,0,0,1,2.35-2.34h7.42a2.34,2.34,0,0,1,2.34,2.34v1.13A2.34,2.34,0,0,1,19.91,22.25Zm-7.42-4.31a.85.85,0,0,0-.85.84v1.13a.85.85,0,0,0,.85.84h7.42a.85.85,0,0,0,.84-.84V18.78a.85.85,0,0,0-.84-.84ZM19.91,15H12.48a2.34,2.34,0,0,1-2.34-2.34V11.55a2.34,2.34,0,0,1,2.34-2.33h7.43a2.34,2.34,0,0,1,2.34,2.33v1.11A2.34,2.34,0,0,1,19.91,15Zm-7.43-4.28a.84.84,0,0,0-.84.83v1.11a.85.85,0,0,0,.84.84h7.43a.84.84,0,0,0,.84-.84V11.55a.83.83,0,0,0-.84-.83Zm7.37-3H4.15a2.41,2.41,0,0,1-2.4-2.41V4.15a2.41,2.41,0,0,1,2.4-2.4h15.7a2.41,2.41,0,0,1,2.4,2.4V5.33A2.41,2.41,0,0,1,19.85,7.74ZM4.15,3.25a.91.91,0,0,0-.9.9V5.33a.91.91,0,0,0,.9.91h15.7a.91.91,0,0,0,.9-.91V4.15a.91.91,0,0,0-.9-.9Zm2.15,19H4.13a2.39,2.39,0,0,1-2.38-2.38V11.6A2.39,2.39,0,0,1,4.13,9.22H6.3A2.38,2.38,0,0,1,8.68,11.6v8.27A2.38,2.38,0,0,1,6.3,22.25ZM4.13,10.72a.87.87,0,0,0-.88.88v8.27a.87.87,0,0,0,.88.88H6.3a.87.87,0,0,0,.88-.88V11.6a.87.87,0,0,0-.88-.88Z"/></g></svg>