<svg xmlns="http://www.w3.org/2000/svg" viewBox="0 0 24 24"><g id="grid"><path id="element-5" d="M5.89,21.75H3.68a2.43,2.43,0,0,1-2.43-2.43V4.68A2.43,2.43,0,0,1,3.68,2.25H5.89A2.43,2.43,0,0,1,8.32,4.68V19.32A2.43,2.43,0,0,1,5.89,21.75Zm-2.21-18a.93.93,0,0,0-.93.93V19.32a.93.93,0,0,0,.93.93H5.89a.93.93,0,0,0,.93-.93V4.68a.93.93,0,0,0-.93-.93Zm16.66,18H12.18a2.41,2.41,0,0,1-2.4-2.41V15.13a2.41,2.41,0,0,1,2.4-2.41h8.16a2.41,2.41,0,0,1,2.41,2.41v4.21A2.41,2.41,0,0,1,20.34,21.75Zm-8.16-7.53a.9.9,0,0,0-.9.91v4.21a.9.9,0,0,0,.9.91h8.16a.91.91,0,0,0,.91-.91V15.13a.91.91,0,0,0-.91-.91Zm8.16-3H12.18a2.41,2.41,0,0,1-2.4-2.4V4.66a2.41,2.41,0,0,1,2.4-2.41h8.16a2.41,2.41,0,0,1,2.41,2.41V8.87A2.41,2.41,0,0,1,20.34,11.27ZM12.18,3.75a.9.9,0,0,0-.9.91V8.87a.9.9,0,0,0,.9.9h8.16a.9.9,0,0,0,.91-.9V4.66a.91.91,0,0,0-.91-.91Z"/></g></svg>