<svg xmlns="http://www.w3.org/2000/svg" viewBox="0 0 24 24"><g id="grid"><path id="element-3" d="M20.29,21.75H12.21a2.46,2.46,0,0,1-2.46-2.46V4.71a2.46,2.46,0,0,1,2.46-2.46h8.08a2.46,2.46,0,0,1,2.46,2.46V19.29A2.46,2.46,0,0,1,20.29,21.75Zm-8.08-18a1,1,0,0,0-1,1V19.29a1,1,0,0,0,1,1h8.08a1,1,0,0,0,1-1V4.71a1,1,0,0,0-1-1Zm-6.35,18H3.68a2.43,2.43,0,0,1-2.43-2.43V4.68A2.43,2.43,0,0,1,3.68,2.25H5.86A2.43,2.43,0,0,1,8.29,4.68V19.32A2.43,2.43,0,0,1,5.86,21.75Zm-2.18-18a.93.93,0,0,0-.93.93V19.32a.93.93,0,0,0,.93.93H5.86a.93.93,0,0,0,.93-.93V4.68a.93.93,0,0,0-.93-.93Z"/></g></svg>