<svg xmlns="http://www.w3.org/2000/svg" viewBox="0 0 24 24"><g id="grid"><path id="element-10" d="M8.81,22.75H4.19a2.45,2.45,0,0,1-2.44-2.44V3.69A2.45,2.45,0,0,1,4.19,1.25H8.81a2.44,2.44,0,0,1,2.44,2.44V20.31A2.44,2.44,0,0,1,8.81,22.75Zm-4.62-20a.94.94,0,0,0-.94.94V20.31a.94.94,0,0,0,.94.94H8.81a.94.94,0,0,0,.94-.94V3.69a.94.94,0,0,0-.94-.94Zm15.67,8.43H15.12a2.4,2.4,0,0,1-2.39-2.39V3.64a2.4,2.4,0,0,1,2.39-2.39h4.74a2.39,2.39,0,0,1,2.39,2.39V8.79A2.4,2.4,0,0,1,19.86,11.18ZM15.12,2.75a.89.89,0,0,0-.89.89V8.79a.89.89,0,0,0,.89.89h4.74a.89.89,0,0,0,.89-.89V3.64a.89.89,0,0,0-.89-.89Zm4.73,20H15.14a2.41,2.41,0,0,1-2.41-2.4V15.1a2.4,2.4,0,0,1,2.41-2.4h4.71a2.4,2.4,0,0,1,2.4,2.4v5.25A2.41,2.41,0,0,1,19.85,22.75ZM15.14,14.2a.9.9,0,0,0-.91.9v5.25a.91.91,0,0,0,.91.9h4.71a.91.91,0,0,0,.9-.9V15.1a.9.9,0,0,0-.9-.9Z"/></g></svg>