<svg xmlns="http://www.w3.org/2000/svg" viewBox="0 0 24 24"><g id="grid"><path id="element-equal" d="M8.47,11.25h-5A2.52,2.52,0,0,1,1,8.73v-5A2.52,2.52,0,0,1,3.52,1.25h5A2.52,2.52,0,0,1,11,3.77v5A2.52,2.52,0,0,1,8.47,11.25Zm-5-8.5a1,1,0,0,0-1,1v5a1,1,0,0,0,1,1h5a1,1,0,0,0,1-1v-5a1,1,0,0,0-1-1ZM20,11.25H15A2.52,2.52,0,0,1,12.5,8.73v-5A2.52,2.52,0,0,1,15,1.25H20a2.52,2.52,0,0,1,2.52,2.52v5A2.52,2.52,0,0,1,20,11.25ZM15,2.75a1,1,0,0,0-1,1v5a1,1,0,0,0,1,1H20a1,1,0,0,0,1-1v-5a1,1,0,0,0-1-1Zm-6.55,20h-5A2.52,2.52,0,0,1,1,20.23v-5a2.52,2.52,0,0,1,2.52-2.52h5A2.52,2.52,0,0,1,11,15.27v5A2.52,2.52,0,0,1,8.47,22.75Zm-5-8.5a1,1,0,0,0-1,1v5a1,1,0,0,0,1,1h5a1,1,0,0,0,1-1v-5a1,1,0,0,0-1-1ZM14,17.75m7.74,1.92a.76.76,0,0,0-.75-.75H14a.75.75,0,0,0,0,1.5h7A.75.75,0,0,0,21.74,19.67Zm0-3.84a.75.75,0,0,0-.75-.75H14a.75.75,0,1,0,0,1.5h7A.76.76,0,0,0,21.74,15.83Z"/></g></svg>