<svg xmlns="http://www.w3.org/2000/svg" viewBox="0 0 24 24"><g id="grid"><path id="element-7" d="M19.86,7.68H4.14A2.39,2.39,0,0,1,1.75,5.29V4.14A2.39,2.39,0,0,1,4.14,1.75H19.86a2.39,2.39,0,0,1,2.39,2.39V5.29A2.39,2.39,0,0,1,19.86,7.68ZM4.14,3.25a.89.89,0,0,0-.89.89V5.29a.89.89,0,0,0,.89.89H19.86a.89.89,0,0,0,.89-.89V4.14a.89.89,0,0,0-.89-.89Zm2.2,19H4.14a2.39,2.39,0,0,1-2.39-2.39V11.6A2.39,2.39,0,0,1,4.14,9.21h2.2A2.39,2.39,0,0,1,8.72,11.6v8.26A2.39,2.39,0,0,1,6.34,22.25ZM4.14,10.71a.89.89,0,0,0-.89.89v8.26a.89.89,0,0,0,.89.89h2.2a.89.89,0,0,0,.88-.89V11.6a.89.89,0,0,0-.88-.89ZM19.83,22.25H12.66a2.43,2.43,0,0,1-2.42-2.42V11.64a2.43,2.43,0,0,1,2.42-2.43h7.17a2.43,2.43,0,0,1,2.42,2.43v8.19A2.43,2.43,0,0,1,19.83,22.25ZM12.66,10.71a.93.93,0,0,0-.92.93v8.19a.92.92,0,0,0,.92.92h7.17a.92.92,0,0,0,.92-.92V11.64a.93.93,0,0,0-.92-.93Z"/></g></svg>