<svg xmlns="http://www.w3.org/2000/svg" viewBox="0 0 24 24"><g id="grid"><path id="element-1" d="M9,8.72H4.07A2.32,2.32,0,0,1,1.75,6.4V3.57A2.32,2.32,0,0,1,4.07,1.25H9a2.32,2.32,0,0,1,2.32,2.32V6.4A2.32,2.32,0,0,1,9,8.72Zm-4.94-6a.82.82,0,0,0-.82.82V6.4a.82.82,0,0,0,.82.82H9a.82.82,0,0,0,.82-.82V3.57A.82.82,0,0,0,9,2.75Zm4.81,20H4.2A2.45,2.45,0,0,1,1.75,20.3V12.7A2.45,2.45,0,0,1,4.2,10.25H8.88a2.45,2.45,0,0,1,2.45,2.45v7.6A2.45,2.45,0,0,1,8.88,22.75Zm-4.68-11a1,1,0,0,0-1,.95v7.6a1,1,0,0,0,1,.95H8.88a1,1,0,0,0,.95-.95V12.7a1,1,0,0,0-.95-.95Zm15.61,2H15.26a2.44,2.44,0,0,1-2.44-2.44V3.69a2.44,2.44,0,0,1,2.44-2.44h4.55a2.44,2.44,0,0,1,2.44,2.44v7.62A2.44,2.44,0,0,1,19.81,13.75Zm-4.55-11a.94.94,0,0,0-.94.94v7.62a.94.94,0,0,0,.94.94h4.55a.94.94,0,0,0,.94-.94V3.69a.94.94,0,0,0-.94-.94Zm4.68,20h-4.8a2.32,2.32,0,0,1-2.32-2.31V17.53a2.32,2.32,0,0,1,2.32-2.31h4.8a2.32,2.32,0,0,1,2.31,2.31v2.91A2.32,2.32,0,0,1,19.94,22.75Zm-4.8-6a.82.82,0,0,0-.82.81v2.91a.82.82,0,0,0,.82.81h4.8a.81.81,0,0,0,.81-.81V17.53a.81.81,0,0,0-.81-.81Z"/></g></svg>