<svg xmlns="http://www.w3.org/2000/svg" viewBox="0 0 24 24"><g id="grid"><path id="maximize" d="M2.67,10.25a.75.75,0,0,1-.75-.75v-2A5.6,5.6,0,0,1,7.51,1.92H9.43a.75.75,0,0,1,0,1.5H7.51A4.09,4.09,0,0,0,3.42,7.51v2A.76.76,0,0,1,2.67,10.25Zm7.65,11.08a.75.75,0,0,0-.75-.75H7.51a4.09,4.09,0,0,1-4.09-4.09v-2a.75.75,0,0,0-1.5,0v2a5.6,5.6,0,0,0,5.59,5.59H9.57A.74.74,0,0,0,10.32,21.33Zm11.76-4.84V14.35a.75.75,0,0,0-1.5,0v2.14a4.09,4.09,0,0,1-4.09,4.09H14.57a.75.75,0,0,0,0,1.5h1.92A5.6,5.6,0,0,0,22.08,16.49Zm0-7.15V7.51a5.6,5.6,0,0,0-5.59-5.59H14.43a.75.75,0,0,0,0,1.5h2.06a4.09,4.09,0,0,1,4.09,4.09V9.34a.75.75,0,0,0,1.5,0Z"/></g></svg>