<svg xmlns="http://www.w3.org/2000/svg" viewBox="0 0 24 24"><g id="grid"><path id="row-horizontal" d="M20.25,11.25H3.75a2.5,2.5,0,0,1-2.5-2.5v-5a2.5,2.5,0,0,1,2.5-2.5h16.5a2.5,2.5,0,0,1,2.5,2.5v5A2.5,2.5,0,0,1,20.25,11.25ZM3.75,2.75a1,1,0,0,0-1,1v5a1,1,0,0,0,1,1h16.5a1,1,0,0,0,1-1v-5a1,1,0,0,0-1-1Zm16.5,20H3.75a2.5,2.5,0,0,1-2.5-2.5v-5a2.5,2.5,0,0,1,2.5-2.5h16.5a2.5,2.5,0,0,1,2.5,2.5v5A2.5,2.5,0,0,1,20.25,22.75Zm-16.5-8.5a1,1,0,0,0-1,1v5a1,1,0,0,0,1,1h16.5a1,1,0,0,0,1-1v-5a1,1,0,0,0-1-1Z"/></g></svg>