<svg xmlns="http://www.w3.org/2000/svg" viewBox="0 0 24 24"><g id="grid"><path id="slider-horizontal" d="M19.79,4.58H18.7A3.68,3.68,0,0,0,15,1.25H9A3.69,3.69,0,0,0,5.3,4.58H4.21a3,3,0,0,0-3,3v8.92a3,3,0,0,0,3,3H5.3A3.69,3.69,0,0,0,9,22.75H15a3.68,3.68,0,0,0,3.66-3.33h1.09a3,3,0,0,0,3-3V7.54A3,3,0,0,0,19.79,4.58Zm-17,11.88V7.54A1.47,1.47,0,0,1,4.21,6.08h1V17.92h-1A1.47,1.47,0,0,1,2.75,16.46ZM15,21.25H9a2.21,2.21,0,0,1-2.2-2.2V5A2.21,2.21,0,0,1,9,2.75H15A2.21,2.21,0,0,1,17.24,5v14.1A2.21,2.21,0,0,1,15,21.25Zm6.21-4.79a1.47,1.47,0,0,1-1.46,1.46H18.74V6.08h1.05a1.47,1.47,0,0,1,1.46,1.46Z"/></g></svg>