<svg xmlns="http://www.w3.org/2000/svg" viewBox="0 0 24 24"><g id="grid"><path id="slider-vertical" d="M19.42,5.3V4.21a3,3,0,0,0-3-3H7.54a3,3,0,0,0-3,3V5.3A3.68,3.68,0,0,0,1.25,9V15A3.68,3.68,0,0,0,4.58,18.7v1.09a3,3,0,0,0,3,3h8.92a3,3,0,0,0,3-3V18.7A3.68,3.68,0,0,0,22.75,15V9A3.68,3.68,0,0,0,19.42,5.3ZM6.08,4.21A1.47,1.47,0,0,1,7.54,2.75h8.92a1.47,1.47,0,0,1,1.46,1.46v1H6.08ZM17.92,19.79a1.47,1.47,0,0,1-1.46,1.46H7.54a1.47,1.47,0,0,1-1.46-1.46V18.74H17.92ZM21.25,15a2.21,2.21,0,0,1-2.2,2.2H5A2.21,2.21,0,0,1,2.75,15V9A2.21,2.21,0,0,1,5,6.76h14.1A2.21,2.21,0,0,1,21.25,9Z"/></g></svg>