<svg xmlns="http://www.w3.org/2000/svg" viewBox="0 0 24 24"><g id="grid"><path id="slider-vertica" d="M18.28,20.15H5.72A3.73,3.73,0,0,1,2,16.43V7.57A3.73,3.73,0,0,1,5.72,3.85H18.28A3.73,3.73,0,0,1,22,7.57v8.86A3.73,3.73,0,0,1,18.28,20.15ZM5.72,5.35A2.23,2.23,0,0,0,3.5,7.57v8.86a2.23,2.23,0,0,0,2.22,2.22H18.28a2.23,2.23,0,0,0,2.22-2.22V7.57a2.23,2.23,0,0,0-2.22-2.22ZM19.49,2a.76.76,0,0,0-.75-.75H5.26a.75.75,0,0,0,0,1.5H18.74A.76.76,0,0,0,19.49,2Zm0,20a.76.76,0,0,0-.75-.75H5.26a.75.75,0,1,0,0,1.5H18.74A.76.76,0,0,0,19.49,22Z"/></g></svg>