<svg xmlns="http://www.w3.org/2000/svg" viewBox="0 0 24 24"><defs><style>.cls-1{fill:#050505;}</style></defs><g id="communication"><path id="address-book" class="cls-1" d="M20.5,9.75A1.76,1.76,0,0,0,22.25,8V6A1.76,1.76,0,0,0,20.5,4.25H19.19a3.63,3.63,0,0,0-3.57-3H5.38A3.64,3.64,0,0,0,1.75,4.88V19.12a3.64,3.64,0,0,0,3.63,3.63H15.62a3.64,3.64,0,0,0,3.63-3.63V15.75H20.5A1.76,1.76,0,0,0,22.25,14V12a1.76,1.76,0,0,0-1.75-1.75H19.25v-.5ZM20.75,6V8a.25.25,0,0,1-.25.25H19.25V5.75H20.5A.25.25,0,0,1,20.75,6Zm-.25,5.75a.25.25,0,0,1,.25.25v2a.25.25,0,0,1-.25.25H19.25v-2.5Zm-2.75-1.5v8.87a2.13,2.13,0,0,1-2.13,2.13H5.38a2.13,2.13,0,0,1-2.13-2.13V4.88A2.13,2.13,0,0,1,5.38,2.75H15.62a2.14,2.14,0,0,1,2.13,2.13v5.37ZM10.5,11.51A2.75,2.75,0,1,0,7.75,8.76,2.75,2.75,0,0,0,10.5,11.51Zm0-4A1.25,1.25,0,1,1,9.25,8.76,1.25,1.25,0,0,1,10.5,7.51Zm0,4.74a5.26,5.26,0,0,0-4.93,3.12,1.56,1.56,0,0,0,.15,1.48,2.39,2.39,0,0,0,2.07.9h6A1.81,1.81,0,0,0,15.26,17a1.72,1.72,0,0,0,.18-1.58A5.28,5.28,0,0,0,10.5,12.25ZM14,16.12a.34.34,0,0,1-.25.13h-6c-.53,0-.77-.15-.83-.32a3.76,3.76,0,0,1,3.54-2.18A3.76,3.76,0,0,1,14,15.93.19.19,0,0,1,14,16.12Z"/></g></svg>