<svg xmlns="http://www.w3.org/2000/svg" viewBox="0 0 24 24"><defs><style>.cls-1{fill:#050505;}</style></defs><g id="communication"><path id="directbox-default" class="cls-1" d="M20,11.22V5.17a3.93,3.93,0,0,0-3.92-3.92H8A3.93,3.93,0,0,0,4,5.17v6a4.06,4.06,0,0,0-1.86,3.41V18A4.8,4.8,0,0,0,7,22.75H17A4.8,4.8,0,0,0,21.82,18V14.62A4.06,4.06,0,0,0,20,11.22ZM5.54,5.17A2.43,2.43,0,0,1,8,2.75h8.1a2.43,2.43,0,0,1,2.42,2.42v5.45a4.4,4.4,0,0,0-.73-.07h-.83A4.11,4.11,0,0,0,13.77,12l-.29.35a1.93,1.93,0,0,1-1.49.69h0a1.93,1.93,0,0,1-1.48-.69l-.3-.36a4.11,4.11,0,0,0-3.15-1.46H6.25a4.17,4.17,0,0,0-.71.07ZM20.32,18A3.29,3.29,0,0,1,17,21.25H7A3.29,3.29,0,0,1,3.68,18V14.62a2.57,2.57,0,0,1,2.57-2.57h.81a2.62,2.62,0,0,1,2,.93l.3.36A3.46,3.46,0,0,0,12,14.56h0a3.45,3.45,0,0,0,2.64-1.23l.29-.35a2.62,2.62,0,0,1,2-.93h.83a2.57,2.57,0,0,1,2.57,2.57ZM9,6.42a.76.76,0,0,1,.75-.75h4.5a.75.75,0,0,1,0,1.5H9.75A.76.76,0,0,1,9,6.42Zm5,2.79a.75.75,0,0,1-.75.75H10.65a.75.75,0,1,1,0-1.5h2.58A.75.75,0,0,1,14,9.21Z"/></g></svg>