<svg xmlns="http://www.w3.org/2000/svg" viewBox="0 0 24 24"><defs><style>.cls-1{fill:#050505;}</style></defs><g id="communication"><path id="message-text" class="cls-1" d="M16.82,22.75H3A1.77,1.77,0,0,1,1.25,21V7.18A5.94,5.94,0,0,1,7.18,1.25h9.64a5.94,5.94,0,0,1,5.93,5.93v9.64A5.94,5.94,0,0,1,16.82,22.75Zm-9.64-20A4.44,4.44,0,0,0,2.75,7.18V21a.27.27,0,0,0,.27.27h13.8a4.44,4.44,0,0,0,4.43-4.43V7.18a4.44,4.44,0,0,0-4.43-4.43ZM17.51,9.5a.76.76,0,0,0-.75-.75H7.24a.75.75,0,0,0,0,1.5h9.52A.76.76,0,0,0,17.51,9.5Zm-3.17,5a.76.76,0,0,0-.75-.75H7.24a.75.75,0,0,0,0,1.5h6.35A.76.76,0,0,0,14.34,14.5Z"/></g></svg>