<svg xmlns="http://www.w3.org/2000/svg" viewBox="0 0 24 24"><defs><style>.cls-1{fill:#050505;}</style></defs><g id="communication"><path id="message-notif" class="cls-1" d="M19.36,8a3.39,3.39,0,1,1,3.39-3.38A3.39,3.39,0,0,1,19.36,8Zm0-5.27a1.89,1.89,0,1,0,1.89,1.89A1.89,1.89,0,0,0,19.36,2.7Zm-5.8,18.91,1.07-1.52a.58.58,0,0,1,.47-.24h1.52A5.42,5.42,0,0,0,22,14.44V9.28a.75.75,0,0,0-1.5,0v5.16a3.92,3.92,0,0,1-3.91,3.91H15.1a2,2,0,0,0-1.69.88l-1.07,1.52a.82.82,0,0,1-1.29,0L10,19.23a2.06,2.06,0,0,0-1.69-.88H6.77a3.92,3.92,0,0,1-3.91-3.91V7.33A3.91,3.91,0,0,1,6.77,3.42h7.92a.75.75,0,0,0,0-1.5H6.77A5.42,5.42,0,0,0,1.36,7.33v7.11a5.42,5.42,0,0,0,5.41,5.41H8.29a.58.58,0,0,1,.47.24l1.07,1.52a2.28,2.28,0,0,0,3.73,0ZM7.86,10.34a1,1,0,1,0,1,1A1,1,0,0,0,7.86,10.34Zm3.83,0a1,1,0,1,0,1,1A1,1,0,0,0,11.69,10.34Zm0,0a1,1,0,1,0,1,1A1,1,0,0,0,11.69,10.34Zm3.84,0a1,1,0,1,0,1,1A1,1,0,0,0,15.53,10.34Z"/></g></svg>