<svg xmlns="http://www.w3.org/2000/svg" viewBox="0 0 24 24"><defs><style>.cls-1{fill:#050505;}</style></defs><g id="communication"><path id="messages" class="cls-1" d="M17.34,16.48V9.88a3.16,3.16,0,0,0-3.15-3.15h-9l0-.85A4.65,4.65,0,0,1,9.81,1.23h8.24A4.65,4.65,0,0,1,22.7,5.88v6a4.65,4.65,0,0,1-4.6,4.64ZM14.19,5.23a4.65,4.65,0,0,1,4.65,4.65v5a3.15,3.15,0,0,0,2.36-3V5.88a3.16,3.16,0,0,0-3.15-3.15H9.81A3.14,3.14,0,0,0,6.73,5.24ZM10.07,22.77a2,2,0,0,1-1.66-.87l-.9-1.27a.33.33,0,0,0-.29-.15H6A4.65,4.65,0,0,1,1.3,15.83V9.88A4.65,4.65,0,0,1,6,5.23h8.24a4.65,4.65,0,0,1,4.65,4.65v5.95a4.65,4.65,0,0,1-4.65,4.65H12.92a.34.34,0,0,0-.29.15l-.9,1.27a2,2,0,0,1-1.66.87ZM6,6.73A3.16,3.16,0,0,0,2.8,9.88v5.95A3.15,3.15,0,0,0,6,19H7.22a1.84,1.84,0,0,1,1.52.79L9.63,21a.54.54,0,0,0,.44.23h0a.54.54,0,0,0,.44-.23l.89-1.27A1.84,1.84,0,0,1,12.92,19h1.27a3.15,3.15,0,0,0,3.15-3.15V9.88a3.16,3.16,0,0,0-3.15-3.15ZM6.58,12a.94.94,0,1,0,.94.94A.95.95,0,0,0,6.58,12Zm3.5,0A.94.94,0,1,0,11,13,.95.95,0,0,0,10.08,12Zm3.49,0a.94.94,0,1,0,.94.94A.95.95,0,0,0,13.57,12Z"/></g></svg>