<svg xmlns="http://www.w3.org/2000/svg" viewBox="0 0 24 24"><defs><style>.cls-1{fill:#050505;}</style></defs><g id="communication"><path id="message-add" class="cls-1" d="M16.82,1.25H7.18A5.94,5.94,0,0,0,1.25,7.18V21A1.77,1.77,0,0,0,3,22.75h13.8a5.94,5.94,0,0,0,5.93-5.93V7.18A5.94,5.94,0,0,0,16.82,1.25Zm4.43,15.57a4.44,4.44,0,0,1-4.43,4.43H3A.27.27,0,0,1,2.75,21V7.18A4.44,4.44,0,0,1,7.18,2.75h9.64a4.44,4.44,0,0,1,4.43,4.43ZM16.19,12a.76.76,0,0,1-.75.75H12.75v2.69a.75.75,0,1,1-1.5,0V12.75H8.56a.75.75,0,0,1,0-1.5h2.69V8.56a.75.75,0,1,1,1.5,0v2.69h2.69A.76.76,0,0,1,16.19,12Z"/></g></svg>