<svg xmlns="http://www.w3.org/2000/svg" viewBox="0 0 24 24"><defs><style>.cls-1{fill:#050505;}</style></defs><g id="communication"><path id="message-edit" class="cls-1" d="M16.82,1.25H7.18A5.94,5.94,0,0,0,1.25,7.18V21A1.77,1.77,0,0,0,3,22.75h13.8a5.94,5.94,0,0,0,5.93-5.93V7.18A5.94,5.94,0,0,0,16.82,1.25Zm4.43,15.57a4.44,4.44,0,0,1-4.43,4.43H3A.27.27,0,0,1,2.75,21V7.18A4.44,4.44,0,0,1,7.18,2.75h9.64a4.44,4.44,0,0,1,4.43,4.43Zm-4.5-9.76-1.68-1.3a2.6,2.6,0,0,0-3.7.53L6.74,12.55A2.59,2.59,0,0,0,6.24,14l0,2.52a2.21,2.21,0,0,0,.88,1.79,2.14,2.14,0,0,0,1.28.43A2.27,2.27,0,0,0,9,18.69L11.35,18a2.45,2.45,0,0,0,1.28-.91l4.63-6.26A2.71,2.71,0,0,0,16.75,7.06Zm-3.42-.33h.15a1.14,1.14,0,0,1,.68.23l1.67,1.29a1.21,1.21,0,0,1,.22,1.67l-.52.71A3.35,3.35,0,0,1,12,7.92l.55-.74A1.1,1.1,0,0,1,13.33,6.73Zm-1.9,9.44a1,1,0,0,1-.51.37l-2.37.71a.59.59,0,0,1-.56-.1.69.69,0,0,1-.28-.57l0-2.52A1.08,1.08,0,0,1,8,13.44l3-4.07a4.62,4.62,0,0,0,3.51,2.68Z"/></g></svg>