<svg xmlns="http://www.w3.org/2000/svg" viewBox="0 0 24 24"><defs><style>.cls-1{fill:#050505;}</style></defs><g id="communication"><path id="message-text-2" class="cls-1" d="M12,23a2.37,2.37,0,0,1-1.92-1L9,20.41a.63.63,0,0,0-.51-.27H6.86a5.61,5.61,0,0,1-5.61-5.61V7.12A5.61,5.61,0,0,1,6.86,1.51H17.14a5.61,5.61,0,0,1,5.61,5.61v7.41a5.61,5.61,0,0,1-5.61,5.61H15.55a.63.63,0,0,0-.51.27L13.92,22A2.37,2.37,0,0,1,12,23ZM6.86,3A4.11,4.11,0,0,0,2.75,7.12v7.41a4.11,4.11,0,0,0,4.11,4.11H8.45a2.13,2.13,0,0,1,1.74.91l1.11,1.58a.88.88,0,0,0,1.4,0l1.11-1.58a2.13,2.13,0,0,1,1.74-.91h1.59a4.11,4.11,0,0,0,4.11-4.11V7.12A4.11,4.11,0,0,0,17.14,3ZM17.51,8.88a.76.76,0,0,0-.75-.75H7.24a.75.75,0,0,0,0,1.5h9.52A.76.76,0,0,0,17.51,8.88Zm-1.59,5a.75.75,0,0,0-.75-.75H8.83a.75.75,0,0,0,0,1.5h6.34A.75.75,0,0,0,15.92,13.88Z"/></g></svg>