<svg xmlns="http://www.w3.org/2000/svg" viewBox="0 0 24 24"><defs><style>.cls-1{fill:#050505;}</style></defs><g id="communication"><path id="sms" class="cls-1" d="M17.74,21.25H6.26a5,5,0,0,1-5-5V7.76a5,5,0,0,1,5-5H17.74a5,5,0,0,1,5,5v8.48A5,5,0,0,1,17.74,21.25ZM6.26,4.25A3.51,3.51,0,0,0,2.75,7.76v8.48a3.51,3.51,0,0,0,3.51,3.51H17.74a3.51,3.51,0,0,0,3.51-3.51V7.76a3.51,3.51,0,0,0-3.51-3.51Zm7.93,7.94L17.48,9.4a.77.77,0,0,0,.09-1.06.76.76,0,0,0-1.06-.08l-3.29,2.79a1.91,1.91,0,0,1-2.46,0L7.38,8.25a.75.75,0,0,0-1,1.15L9.8,12.21a3.38,3.38,0,0,0,4.39,0Z"/></g></svg>