<svg xmlns="http://www.w3.org/2000/svg" viewBox="0 0 24 24"><g id="support"><path id="_24-support" data-name="24-support" d="M12,22.8h0a3,3,0,0,1-2.15-.95L8.14,20a1.47,1.47,0,0,0-1.07-.47H5.92a3.68,3.68,0,0,1-3.67-3.67v-11A3.68,3.68,0,0,1,5.92,1.2H18.08a3.68,3.68,0,0,1,3.67,3.67v11a3.68,3.68,0,0,1-3.67,3.67H17A1.47,1.47,0,0,0,16,20l-1.81,1.89A3,3,0,0,1,12,22.8ZM5.92,2.7A2.17,2.17,0,0,0,3.75,4.87v11A2.17,2.17,0,0,0,5.92,18H7.07A3,3,0,0,1,9.24,19l1.7,1.84A1.45,1.45,0,0,0,12,21.3a1.69,1.69,0,0,0,1.08-.45L14.89,19A3,3,0,0,1,17,18h1a2.17,2.17,0,0,0,2.17-2.17v-11A2.17,2.17,0,0,0,18.08,2.7Zm4.41,11.62H7.56a1.34,1.34,0,0,1-1-2.23A8.26,8.26,0,0,1,7.85,11c.77-.6,1.73-1.35,1.73-2a.86.86,0,0,0-.24-.64.91.91,0,0,0-.66-.25.9.9,0,0,0-.9.9.75.75,0,0,1-1.5,0,2.43,2.43,0,0,1,4.13-1.71A2.43,2.43,0,0,1,11.08,9c0,1.36-1.23,2.31-2.31,3.15-.31.24-.61.47-.83.68h2.39a.75.75,0,0,1,0,1.5ZM7.69,13.07Zm9.41-1.66h-.4l0-3.5a1.16,1.16,0,0,0-.82-1.13,1.18,1.18,0,0,0-1.32.46L12,11.07a1.15,1.15,0,0,0-.07,1.21,1.16,1.16,0,0,0,1,.63h2.27v.66a.74.74,0,0,0,.74.75h0a.75.75,0,0,0,.75-.74v-.67h.41a.75.75,0,0,0,0-1.5Zm-1.9,0H13.54L15.22,9Z"/></g></svg>