<svg xmlns="http://www.w3.org/2000/svg" viewBox="0 0 24 24"><g id="support"><path id="dislike" d="M20.31,2.83h-2.1a2.34,2.34,0,0,0-1.91,1L14.39,2.29A4.12,4.12,0,0,0,12,1.53H6.93A3,3,0,0,0,4.06,3.65l-2.6,8.48a2.53,2.53,0,0,0,2.4,3.27l4.07,0a.44.44,0,0,1,.34.16.43.43,0,0,1,.09.37l-.52,3a2.94,2.94,0,0,0,1.84,3.3,3.13,3.13,0,0,0,1.14.23,2.94,2.94,0,0,0,2.46-1.36l2.8-4.24a2.33,2.33,0,0,0,2.13,1.39h2.1a2.34,2.34,0,0,0,2.34-2.34V5.17A2.34,2.34,0,0,0,20.31,2.83ZM12,20.29a1.49,1.49,0,0,1-2.71-1.08l.52-3a1.94,1.94,0,0,0-.42-1.59,2,2,0,0,0-1.48-.7l-4.07,0a1,1,0,0,1-.82-.42,1,1,0,0,1-.16-.91l2.6-8.48A1.51,1.51,0,0,1,6.93,3H12a2.6,2.6,0,0,1,1.49.46l2.37,1.89,0,1.91v7.19Zm9.12-4.36a.85.85,0,0,1-.84.84h-2.1a.84.84,0,0,1-.84-.84V5.17a.84.84,0,0,1,.84-.84h2.1a.85.85,0,0,1,.84.84Z"/></g></svg>