<svg xmlns="http://www.w3.org/2000/svg" viewBox="0 0 24 24"><g id="support"><path id="heart" d="M12.36,21.8a2.89,2.89,0,0,1-1.14-.25c-2.34-1.07-10-5.12-9.87-12.49A6.83,6.83,0,0,1,6.44,2.45a7.28,7.28,0,0,1,5.8.9.08.08,0,0,0,.11,0,7.25,7.25,0,0,1,6.31-.75h0A6.88,6.88,0,0,1,23.23,9c-.14,8.25-7.61,11.73-9.89,12.61A2.78,2.78,0,0,1,12.36,21.8Zm-4-18.09a6.17,6.17,0,0,0-1.53.19,5.34,5.34,0,0,0-4,5.19c-.11,6.45,6.86,10.12,9,11.09a1.23,1.23,0,0,0,1,0c2.07-.78,8.81-3.91,8.93-11.22A5.4,5.4,0,0,0,18.2,4h0a5.79,5.79,0,0,0-5,.59,1.58,1.58,0,0,1-1.73,0A5.65,5.65,0,0,0,8.34,3.71Z"/></g></svg>