<svg xmlns="http://www.w3.org/2000/svg" viewBox="0 0 24 24"><g id="support"><path id="heart-circle" d="M12,22.75A10.75,10.75,0,1,1,22.75,12,10.76,10.76,0,0,1,12,22.75Zm0-20A9.25,9.25,0,1,0,21.25,12,9.26,9.26,0,0,0,12,2.75Zm.06,14.69A2.41,2.41,0,0,1,11,17.2c-1.58-.76-5.24-2.94-5.18-6.77a4,4,0,0,1,3-3.82A4.25,4.25,0,0,1,11.86,7a.29.29,0,0,0,.27,0,4.28,4.28,0,0,1,3.37-.27h0a4,4,0,0,1,2.67,3.72c-.07,4.27-3.66,6.21-5.19,6.85A2.47,2.47,0,0,1,12.06,17.44ZM9.9,8a3.3,3.3,0,0,0-.73.09,2.47,2.47,0,0,0-1.84,2.39c0,3,3,4.77,4.33,5.4a.91.91,0,0,0,.74,0c1.27-.53,4.21-2.12,4.27-5.49A2.52,2.52,0,0,0,15,8.12h0a2.71,2.71,0,0,0-2.19.16,1.78,1.78,0,0,1-1.68,0A2.61,2.61,0,0,0,9.9,8Z"/></g></svg>