<svg xmlns="http://www.w3.org/2000/svg" viewBox="0 0 24 24"><g id="support"><g id="information-3"><path d="M12,22.76a4.39,4.39,0,0,1-2.21-.59L4.29,19a4.43,4.43,0,0,1-2.2-3.82V8.82A4.43,4.43,0,0,1,4.29,5l5.5-3.17a4.42,4.42,0,0,1,4.42,0L19.71,5a4.43,4.43,0,0,1,2.2,3.82v6.36A4.43,4.43,0,0,1,19.71,19l-5.5,3.17A4.36,4.36,0,0,1,12,22.76Zm0-20a3,3,0,0,0-1.46.38L5,6.3A2.92,2.92,0,0,0,3.59,8.82v6.36A2.92,2.92,0,0,0,5,17.7l5.5,3.18a3,3,0,0,0,2.92,0L19,17.7a2.92,2.92,0,0,0,1.45-2.52V8.82A2.92,2.92,0,0,0,19,6.3l-5.5-3.18A3,3,0,0,0,12,2.74Z"/><path d="M12,13.4a1,1,0,0,0,1-1V7.74a1,1,0,0,0-2,0V12.4A1,1,0,0,0,12,13.4Z"/><circle cx="12" cy="16.01" r="1.25"/></g></g></svg>