<svg xmlns="http://www.w3.org/2000/svg" viewBox="0 0 24 24"><g id="support"><path id="like-2" d="M12,22.8h0a3,3,0,0,1-2.15-.95L8.14,20a1.47,1.47,0,0,0-1.07-.47H5.92a3.68,3.68,0,0,1-3.67-3.67v-11A3.68,3.68,0,0,1,5.92,1.2H18.08a3.68,3.68,0,0,1,3.67,3.67v11a3.68,3.68,0,0,1-3.67,3.67H17A1.47,1.47,0,0,0,16,20l-1.81,1.89A3,3,0,0,1,12,22.8ZM5.92,2.7A2.17,2.17,0,0,0,3.75,4.87v11A2.17,2.17,0,0,0,5.92,18H7.07A3,3,0,0,1,9.24,19l1.7,1.84A1.45,1.45,0,0,0,12,21.3a1.69,1.69,0,0,0,1.08-.45L14.89,19A3,3,0,0,1,17,18h1a2.17,2.17,0,0,0,2.17-2.17v-11A2.17,2.17,0,0,0,18.08,2.7ZM12,15.64A2.37,2.37,0,0,1,11,15.39c-1.25-.59-4.15-2.33-4.1-5.49A3.56,3.56,0,0,1,9.54,6.47,3.76,3.76,0,0,1,12,6.66a3.8,3.8,0,0,1,2.72-.11,3.56,3.56,0,0,1,2.41,3.36c-.06,3.48-2.92,5-4.15,5.54A2.32,2.32,0,0,1,12,15.64ZM10.52,7.85a2.18,2.18,0,0,0-.61.08,2.06,2.06,0,0,0-1.54,2c0,2.28,2.26,3.64,3.25,4.11a1,1,0,0,0,.78,0c1-.4,3.18-1.6,3.23-4.18A2.09,2.09,0,0,0,14.25,8a2.29,2.29,0,0,0-1.8.14,1,1,0,0,1-.9,0A2.1,2.1,0,0,0,10.52,7.85Zm1.23-1.06h0Z"/></g></svg>