<svg xmlns="http://www.w3.org/2000/svg" viewBox="0 0 24 24"><g id="support"><path id="like-tag" d="M12,22.8h0a3,3,0,0,1-2.15-.95L8.14,20a1.47,1.47,0,0,0-1.07-.47H5.92a3.68,3.68,0,0,1-3.67-3.67v-11A3.68,3.68,0,0,1,5.92,1.2H18.08a3.68,3.68,0,0,1,3.67,3.67v11a3.68,3.68,0,0,1-3.67,3.67H17A1.47,1.47,0,0,0,16,20l-1.81,1.89A3,3,0,0,1,12,22.8ZM5.92,2.7A2.17,2.17,0,0,0,3.75,4.87v11A2.17,2.17,0,0,0,5.92,18H7.07A3,3,0,0,1,9.24,19l1.7,1.84A1.45,1.45,0,0,0,12,21.3a1.71,1.71,0,0,0,1.08-.45L14.89,19A3,3,0,0,1,17,18h1a2.17,2.17,0,0,0,2.17-2.17v-11A2.17,2.17,0,0,0,18.08,2.7Zm11.2,6.35a1.58,1.58,0,0,0-1.28-.65H14.11l.22-1.23A1.82,1.82,0,0,0,11,5.85L10,7.41A1.5,1.5,0,0,0,9,7H8A1.52,1.52,0,0,0,6.48,8.54v5.13A1.52,1.52,0,0,0,8,15.18H9a1.48,1.48,0,0,0,.94-.34l.66.53A2.39,2.39,0,0,0,12,15.8h2.41a1.82,1.82,0,0,0,1.75-1.29l1.24-4A1.58,1.58,0,0,0,17.12,9.05ZM9,13.68H8V8.53H9v5.13Zm5.7.39a.33.33,0,0,1-.32.23H12a.84.84,0,0,1-.47-.13l-1-.79v-4l1.77-2.68a.28.28,0,0,1,.38-.12.3.3,0,0,1,.2.35L12.6,8.33a1.32,1.32,0,0,0,.29,1.08,1.28,1.28,0,0,0,1,.47l1.94,0,.09.12Z"/></g></svg>