<svg xmlns="http://www.w3.org/2000/svg" viewBox="0 0 24 24"><g id="support"><path id="like-shapes" d="M12,22.75a2.83,2.83,0,0,1-2-.83L8.59,20.51a.28.28,0,0,0-.2-.08h-2A2.83,2.83,0,0,1,3.57,17.6v-2a.28.28,0,0,0-.08-.2L2.08,14a2.84,2.84,0,0,1,0-4L3.49,8.59a.28.28,0,0,0,.08-.2v-2A2.83,2.83,0,0,1,6.4,3.57h2a.28.28,0,0,0,.2-.08L10,2.08a2.84,2.84,0,0,1,4,0l1.41,1.41a.28.28,0,0,0,.2.08h2A2.83,2.83,0,0,1,20.43,6.4v2a.28.28,0,0,0,.08.2L21.92,10a2.84,2.84,0,0,1,0,4l-1.41,1.41a.28.28,0,0,0-.08.2v2a2.83,2.83,0,0,1-2.83,2.83h-2a.28.28,0,0,0-.2.08L14,21.92A2.83,2.83,0,0,1,12,22.75ZM6.4,5.07A1.34,1.34,0,0,0,5.07,6.4v2a1.74,1.74,0,0,1-.52,1.26L3.14,11.06a1.33,1.33,0,0,0,0,1.88l1.41,1.41a1.74,1.74,0,0,1,.52,1.26v2A1.34,1.34,0,0,0,6.4,18.93h2a1.74,1.74,0,0,1,1.26.52l1.41,1.41a1.33,1.33,0,0,0,1.88,0l1.41-1.41a1.74,1.74,0,0,1,1.26-.52h2a1.34,1.34,0,0,0,1.33-1.33v-2a1.75,1.75,0,0,1,.52-1.26l1.41-1.41a1.33,1.33,0,0,0,0-1.88L19.45,9.65a1.75,1.75,0,0,1-.52-1.26v-2A1.34,1.34,0,0,0,17.6,5.07h-2a1.8,1.8,0,0,1-1.26-.52L12.94,3.14a1.33,1.33,0,0,0-1.88,0L9.65,4.55a1.75,1.75,0,0,1-1.26.52Zm10.87,5.57A1.63,1.63,0,0,0,16,10H14.26l.21-1.22a1.82,1.82,0,0,0-3.31-1.32L10.13,9a1.47,1.47,0,0,0-1-.38h-1a1.51,1.51,0,0,0-1.51,1.51v5.13a1.51,1.51,0,0,0,1.51,1.51h1a1.48,1.48,0,0,0,.94-.34l.65.52a2.35,2.35,0,0,0,1.37.44h2.42a1.82,1.82,0,0,0,1.75-1.29l1.23-4.05A1.57,1.57,0,0,0,17.27,10.64ZM9.14,15.27h-1V10.12h1v.44a.58.58,0,0,0,0,.19l0,3.43v1.07Zm5.69.39a.32.32,0,0,1-.31.23H12.1a.81.81,0,0,1-.46-.14l-1-.78v-4l1.76-2.68a.3.3,0,0,1,.39-.12.3.3,0,0,1,.2.35l-.26,1.43A1.33,1.33,0,0,0,14,11.47H15.6a.29.29,0,0,1,.28.37Z"/></g></svg>