<svg xmlns="http://www.w3.org/2000/svg" viewBox="0 0 24 24"><g id="support"><path id="lovely" d="M21.17,10.4a11.6,11.6,0,0,0,.15-1.57,6.1,6.1,0,0,0-4.1-5.7,6.56,6.56,0,0,0-5.64.67A6.57,6.57,0,0,0,6.38,3,6.06,6.06,0,0,0,1.83,8.87c-.12,6.89,7.56,10.5,9.1,11.15a1.8,1.8,0,0,0,.68.14,1.61,1.61,0,0,0,.54-.09c.22-.08.54-.19.92-.36a13.62,13.62,0,0,0,2.48,1.4,1.46,1.46,0,0,0,.55.11,1.29,1.29,0,0,0,.43-.07c1-.35,6.06-2.34,6.14-7.57A4.23,4.23,0,0,0,21.17,10.4Zm-9.51,8.25s-.06,0-.14,0c-1.39-.59-8.29-3.82-8.19-9.75A4.57,4.57,0,0,1,6.76,4.45a5,5,0,0,1,4.36.86.77.77,0,0,0,.91,0,5.07,5.07,0,0,1,4.73-.75A4.62,4.62,0,0,1,19.82,8.8c0,.27,0,.54-.05.81a4.54,4.54,0,0,0-3.7.39,4.54,4.54,0,0,0-3.45-.47A4.21,4.21,0,0,0,9.46,13.6a6.77,6.77,0,0,0,2.29,5Zm4.47,1.08c-.87-.37-5.23-2.41-5.17-6.1A2.73,2.73,0,0,1,13,11a3.73,3.73,0,0,1,.8-.1,2.92,2.92,0,0,1,1.81.62.78.78,0,0,0,.92,0,3,3,0,0,1,2.83-.45,2.76,2.76,0,0,1,1.81,2.51C21.1,17.78,16.89,19.44,16.13,19.73Z"/></g></svg>