<svg xmlns="http://www.w3.org/2000/svg" viewBox="0 0 24 24"><g id="support"><path id="medal-star" d="M10.56,13.08a1.39,1.39,0,0,1-1.37-1.63l.2-1.17-.86-.83a1.39,1.39,0,0,1,.78-2.37l1.17-.17L11,5.84a1.37,1.37,0,0,1,1.25-.78h0a1.37,1.37,0,0,1,1.24.78L14,6.9l1.18.18A1.37,1.37,0,0,1,16.33,8,1.4,1.4,0,0,1,16,9.45l-.85.83.2,1.17a1.38,1.38,0,0,1-.56,1.36,1.4,1.4,0,0,1-1.46.11l-1.05-.56-1.06.56A1.44,1.44,0,0,1,10.56,13.08ZM14,11.59ZM9.74,8.53l.74.72a1.4,1.4,0,0,1,.4,1.22l-.18,1,.91-.48a1.4,1.4,0,0,1,1.29,0l.91.47-.17-1A1.39,1.39,0,0,1,14,9.25l.74-.72-1-.15a1.37,1.37,0,0,1-1-.76l-.46-.92-.45.92a1.37,1.37,0,0,1-1,.76Zm12.61,7.82L19,12.81A7.55,7.55,0,0,0,20,9.18a7.7,7.7,0,1,0-15.39,0,7.61,7.61,0,0,0,.77,3.33L1.65,16.44A1.73,1.73,0,0,0,2.7,19.35l1.41.16a.25.25,0,0,1,.2.19l.26,1.39a1.69,1.69,0,0,0,1.21,1.35,1.67,1.67,0,0,0,.49.08A1.74,1.74,0,0,0,7.53,22L12,17.17l4.43,4.71a1.7,1.7,0,0,0,1.26.55,2.07,2.07,0,0,0,.49-.07A1.72,1.72,0,0,0,19.43,21l.26-1.4a.22.22,0,0,1,.2-.18l1.41-.17a1.73,1.73,0,0,0,1.05-2.91ZM12.26,3a6.19,6.19,0,0,1,5.19,9.56,6.76,6.76,0,0,1-.44.61h0c-.15.17-.31.34-.47.49a1.07,1.07,0,0,1-.16.14,4,4,0,0,1-.39.33l-.17.12a5.93,5.93,0,0,1-1.26.69l-.07,0a3.79,3.79,0,0,1-.65.21l-.08,0a5.94,5.94,0,0,1-1.53.19H12a6.18,6.18,0,0,1-2.27-.52l-.06,0-.56-.29L9,14.42c-.15-.09-.29-.19-.44-.3L8.38,14a5.91,5.91,0,0,1-.52-.48l-.05,0c-.16-.16-.3-.33-.44-.5l-.08-.12a5.28,5.28,0,0,1-.37-.55A6.18,6.18,0,0,1,12.26,3Zm-5.82,18A.24.24,0,0,1,6.2,21,.23.23,0,0,1,6,20.82l-.26-1.39A1.72,1.72,0,0,0,4.29,18l-1.41-.16a.25.25,0,0,1-.19-.16.21.21,0,0,1,.05-.24l3.4-3.62.06.06a7.58,7.58,0,0,0,.76.85l.18.16a6.45,6.45,0,0,0,.88.68l.15.1a9.21,9.21,0,0,0,1,.55h0a9.53,9.53,0,0,0,1.21.4h0Zm14.87-3.32a.24.24,0,0,1-.19.15l-1.4.17a1.7,1.7,0,0,0-1.5,1.4L18,20.74a.23.23,0,0,1-.16.18.24.24,0,0,1-.24-.07l-3.87-4.11h.05a8.14,8.14,0,0,0,1.1-.31l.23-.09a7.46,7.46,0,0,0,1-.47l.23-.14a8.14,8.14,0,0,0,.9-.64l.13-.12a8.73,8.73,0,0,0,.85-.87h0l3.09,3.29A.21.21,0,0,1,21.31,17.62Z"/></g></svg>