<svg xmlns="http://www.w3.org/2000/svg" viewBox="0 0 24 24"><g id="support"><path id="message-questio" d="M8,22.48a1.64,1.64,0,0,1-.78-.19,1.7,1.7,0,0,1-.94-1.52V18.85a5.26,5.26,0,0,1-5-5.25V6.78A5.27,5.27,0,0,1,6.51,1.52h11a5.27,5.27,0,0,1,5.26,5.26V13.6a5.27,5.27,0,0,1-5.26,5.26H13.6a.2.2,0,0,0-.13,0L9,22.16A1.75,1.75,0,0,1,8,22.48ZM6.51,3A3.76,3.76,0,0,0,2.75,6.78V13.6a3.77,3.77,0,0,0,3.76,3.76A1.24,1.24,0,0,1,7.75,18.6v2.17a.2.2,0,0,0,.12.19.18.18,0,0,0,.22,0l4.5-3.26a1.73,1.73,0,0,1,1-.32h3.89a3.77,3.77,0,0,0,3.76-3.76V6.78A3.76,3.76,0,0,0,17.49,3ZM12,6.12a2.3,2.3,0,0,0-2.3,2.3.75.75,0,0,0,1.5,0,.8.8,0,0,1,1.6,0,.78.78,0,0,1-.4.68,2.49,2.49,0,0,0-1.15,2.16v.28a.75.75,0,0,0,1.5,0v-.28a1,1,0,0,1,.41-.86A2.3,2.3,0,0,0,12,6.12ZM12,13a.75.75,0,1,0,.75.75A.76.76,0,0,0,12,13Z"/></g></svg>