<svg xmlns="http://www.w3.org/2000/svg" viewBox="0 0 24 24"><g id="notification"><path d="M19.71,14.2A7.33,7.33,0,0,1,18.49,10V9.85a6.34,6.34,0,0,0-5.72-6.3V2.38a.75.75,0,1,0-1.5,0V3.59A6.37,6.37,0,0,0,9.65,4,6.17,6.17,0,0,0,5.84,9.84a7.24,7.24,0,0,1-1.43,4.4l-.67.92a2.91,2.91,0,0,0-.56,1.7,2.87,2.87,0,0,0,2.87,2.87H9.34v.33a2.7,2.7,0,0,0,5.35,0v-.33H18a2.92,2.92,0,0,0,2.4-4.51ZM13.2,19.89a1.18,1.18,0,0,1-1.18,1,1.2,1.2,0,0,1-1.18-1v-.16H13.2ZM18,18.23H6.05a1.37,1.37,0,0,1-1.37-1.37A1.32,1.32,0,0,1,5,16.05l.67-.92A8.8,8.8,0,0,0,7.34,9.77,4.65,4.65,0,0,1,10.2,5.41a5.3,5.3,0,0,1,2-.38A4.81,4.81,0,0,1,17,9.84V10a8.78,8.78,0,0,0,1.47,5l.67,1a1.41,1.41,0,0,1,.23.81A1.37,1.37,0,0,1,18,18.23Z"/><path d="M3.49,10.62a.75.75,0,0,0,.64-.85A5.16,5.16,0,0,1,6,4.89a.75.75,0,0,0,.18-1,.74.74,0,0,0-1-.18A6.67,6.67,0,0,0,2.65,10a.74.74,0,0,0,.74.64Z"/><path d="M18.86,3.66A.75.75,0,1,0,18,4.88a5.21,5.21,0,0,1,1.87,4.89.75.75,0,0,0,.64.85h.1a.74.74,0,0,0,.74-.64A6.67,6.67,0,0,0,18.86,3.66Z"/></g></svg>