<svg xmlns="http://www.w3.org/2000/svg" viewBox="0 0 24 24"><g id="notification"><g id="notification-bing"><path d="M12,11.33a.75.75,0,0,1-.75-.75V7.45a.75.75,0,1,1,1.5,0v3.13A.75.75,0,0,1,12,11.33Z"/><path d="M18,18.73H6a2.88,2.88,0,0,1-2.87-2.87,2.92,2.92,0,0,1,.56-1.71l.67-.91a7.24,7.24,0,0,0,1.43-4.4A6.19,6.19,0,0,1,9.63,3a6.43,6.43,0,0,1,6.07.6,6.31,6.31,0,0,1,2.77,5.23V9a7.29,7.29,0,0,0,1.22,4.16l.67,1a2.83,2.83,0,0,1,.48,1.59A2.89,2.89,0,0,1,18,18.73ZM12.15,4a5.51,5.51,0,0,0-2,.38A4.65,4.65,0,0,0,7.32,8.76,8.83,8.83,0,0,1,5.6,14.13l-.67.92a1.32,1.32,0,0,0-.27.81A1.37,1.37,0,0,0,6,17.23H18a1.37,1.37,0,0,0,1.37-1.37,1.44,1.44,0,0,0-.23-.82l-.67-1A8.75,8.75,0,0,1,17,9V8.83A4.81,4.81,0,0,0,12.15,4Z"/><path d="M12,21.48a2.71,2.71,0,0,1-2.67-2.31.41.41,0,0,1,0-.11v-1a.75.75,0,0,1,1.5,0V19a1.2,1.2,0,0,0,2.36,0v-.91a.75.75,0,1,1,1.5,0v1a.41.41,0,0,1,0,.11A2.68,2.68,0,0,1,12,21.48Z"/></g></g></svg>