<svg xmlns="http://www.w3.org/2000/svg" viewBox="0 0 24 24"><g id="notification"><g id="notification-statu"><path d="M19,3.5A1.5,1.5,0,1,1,17.5,5,1.5,1.5,0,0,1,19,3.5M19,2a3,3,0,1,0,3,3,3,3,0,0,0-3-3Z"/><path d="M16,22.75H7A5.8,5.8,0,0,1,1.25,17V8A5.8,5.8,0,0,1,7,2.25h6.39a.75.75,0,0,1,0,1.5H7A4.3,4.3,0,0,0,2.75,8V17A4.3,4.3,0,0,0,7,21.25H16A4.3,4.3,0,0,0,20.25,17V11a.75.75,0,0,1,1.5,0v6A5.8,5.8,0,0,1,16,22.75Z"/><path d="M11.5,14H6.81a.75.75,0,1,1,0-1.5H11.5a.75.75,0,0,1,0,1.5Z"/><path d="M15.5,18H6.81a.75.75,0,1,1,0-1.5H15.5a.75.75,0,0,1,0,1.5Z"/></g></g></svg>