<svg xmlns="http://www.w3.org/2000/svg" viewBox="0 0 24 24"><defs><style>.cls-1{opacity:0.3;}</style></defs><g id="arrows"><g id="arrow-diagonal"><path class="cls-1" d="M5.47,19.16A.7.7,0,0,1,5,18.94a.75.75,0,0,1,0-1.06L17.8,4.94A.75.75,0,0,1,18.86,6L6,18.94A.75.75,0,0,1,5.47,19.16Z"/><path d="M5.39,19.16a.75.75,0,0,1-.53-.22.73.73,0,0,1-.22-.54l0-4.2a.75.75,0,0,1,.75-.74h0a.75.75,0,0,1,.74.76l0,3.43,3.44,0a.73.73,0,0,1,.76.74.76.76,0,0,1-.74.76l-4.21,0Z"/><path d="M18.37,10.29h0a.76.76,0,0,1-.75-.76l0-3.43-3.44,0h0a.75.75,0,0,1,0-1.5l4.2,0a.71.71,0,0,1,.54.22.76.76,0,0,1,.22.54l-.05,4.2A.75.75,0,0,1,18.37,10.29Z"/></g></g></svg>