<svg xmlns="http://www.w3.org/2000/svg" viewBox="0 0 24 24"><defs><style>.cls-1{opacity:0.3;}</style></defs><g id="arrows"><g id="arrow-right-left"><path class="cls-1" d="M21.25,16.44l-16.63,0L6.06,15a.72.72,0,0,0,0-1A.75.75,0,0,0,5,14L2.28,16.69a.76.76,0,0,0,0,1L5,20.7a.76.76,0,0,0,.56.24.74.74,0,0,0,.5-.2.76.76,0,0,0,0-1.06L4.53,18l16.72,0h0a.75.75,0,0,0,0-1.5Z"/><path d="M21.78,7.21,19,4.36a.72.72,0,0,0-1,0,.75.75,0,0,0,0,1l1.48,1.5H2.79a.75.75,0,0,0,0,1.49H19.56l-1.49,1.5a.75.75,0,0,0,.52,1.28A.7.7,0,0,0,19.1,11l2.68-2.69A.75.75,0,0,0,22,7.75.79.79,0,0,0,21.78,7.21Z"/></g></g></svg>