<svg xmlns="http://www.w3.org/2000/svg" viewBox="0 0 24 24"><defs><style>.cls-1{opacity:0.3;}</style></defs><g id="arrows"><g id="arrow-down-refraction"><path class="cls-1" d="M20.71,16.26a.82.82,0,0,1-.55-.22l-5.72-5.57-3.85,3.69a.78.78,0,0,1-1.09,0L2.75,7.5a.78.78,0,0,1,1.1-1.12l6.2,6.12,3.86-3.68a.77.77,0,0,1,1.08,0l6.26,6.09a.78.78,0,0,1-.54,1.34Z"/><path d="M21.14,17h0L16.75,17a.73.73,0,0,1-.74-.75.74.74,0,0,1,.75-.75h0l3.62,0,0-3.62a.75.75,0,0,1,.74-.75.73.73,0,0,1,.76.74l.05,4.38a.77.77,0,0,1-.22.54A.75.75,0,0,1,21.14,17Z"/></g></g></svg>