<svg xmlns="http://www.w3.org/2000/svg" viewBox="0 0 24 24"><defs><style>.cls-1{opacity:0.3;}</style></defs><g id="arrows"><g id="arrow-mix"><path d="M21.8,5.71,19.26,3.07a.71.71,0,0,0-1,0,.75.75,0,0,0,0,1.06L19.65,5.6h0l-3.1,0a.77.77,0,0,0-.52.22L5,17.08H2.72a.75.75,0,0,0,0,1.5H5.27a.72.72,0,0,0,.51-.22l11-11.3,2.67,0L18.14,8.45a.77.77,0,0,0,0,1.06.74.74,0,0,0,.51.22.72.72,0,0,0,.51-.22L21.8,6.77A.75.75,0,0,0,21.8,5.71Z"/><path class="cls-1" d="M10.94,12.76a.72.72,0,0,1-.51-.22L5,6.93H2.72a.75.75,0,0,1,0-1.5H5.27a.72.72,0,0,1,.51.22l5.67,5.82a.77.77,0,0,1,0,1.06A.71.71,0,0,1,10.94,12.76Zm10.85,4.37-2.55-2.64a.71.71,0,0,0-1,0,.77.77,0,0,0,0,1.06l1.31,1.37-2.38,0-2.51-2.57a.7.7,0,0,0-1,0,.76.76,0,0,0,0,1.06l2.71,2.79a.72.72,0,0,0,.51.22h0l2.67,0-1.41,1.45a.77.77,0,0,0,0,1.06.72.72,0,0,0,.52.22.7.7,0,0,0,.51-.22l2.64-2.74a.77.77,0,0,0,0-1.06Z"/></g></g></svg>