<svg xmlns="http://www.w3.org/2000/svg" viewBox="0 0 24 24"><defs><style>.cls-1{opacity:0.3;}</style></defs><g id="arrows"><g id="arrow-up-refraction"><path class="cls-1" d="M2.79,17.11a.77.77,0,0,1-.56-.24.78.78,0,0,1,0-1.12L9.07,9a.81.81,0,0,1,1.11,0l3.9,3.73,5.8-5.63A.79.79,0,1,1,21,8.23L14.64,14.4a.79.79,0,0,1-1.1,0l-3.9-3.73-6.29,6.2A.82.82,0,0,1,2.79,17.11Z"/><path d="M21.18,12.19h0a.76.76,0,0,1-.74-.76l0-3.67-3.68,0A.74.74,0,0,1,16,7.05a.76.76,0,0,1,.75-.76l4.44,0a.71.71,0,0,1,.53.22A.68.68,0,0,1,22,7l0,4.43A.76.76,0,0,1,21.18,12.19Z"/></g></g></svg>