<svg xmlns="http://www.w3.org/2000/svg" viewBox="0 0 24 24"><defs><style>.cls-1{opacity:0.3;}</style></defs><g id="arrows"><g id="arrows-loop"><path class="cls-1" d="M19.37,11.79a.74.74,0,0,0-.72.75v2.57a2.37,2.37,0,0,1-2.32,2.4h-10l1.53-1.57a.76.76,0,0,0,0-1.06.7.7,0,0,0-1,0l-2.64,2.7a.77.77,0,0,0,0,1l2.65,3a.7.7,0,0,0,1,0,.77.77,0,0,0,0-1.06L6.46,19h9.87a3.84,3.84,0,0,0,3.76-3.9V12.54A.74.74,0,0,0,19.37,11.79Z"/><path d="M19.92,5.21,17.13,2.35a.71.71,0,0,0-1,0,.77.77,0,0,0,0,1.06l1.47,1.51H7.73A3.83,3.83,0,0,0,4,8.82v2.42a.72.72,0,1,0,1.44,0V8.82a2.36,2.36,0,0,1,2.32-2.4h10l-1.46,1.5a.76.76,0,0,0,0,1.06.7.7,0,0,0,.51.22A.68.68,0,0,0,17.27,9l2.65-2.7a.78.78,0,0,0,.21-.53A.81.81,0,0,0,19.92,5.21Z"/></g></g></svg>