<svg xmlns="http://www.w3.org/2000/svg" viewBox="0 0 24 24"><defs><style>.cls-1{opacity:0.3;}</style></defs><g id="arrows"><g id="arrows-circle"><path class="cls-1" d="M20,2.16a.78.78,0,0,0-.77.77V5.67a9.42,9.42,0,0,0-16,4.46.76.76,0,0,0,.58.92.55.55,0,0,0,.18,0,.77.77,0,0,0,.75-.6A7.87,7.87,0,0,1,18.18,6.8H15.29a.78.78,0,0,0,0,1.56H20a.78.78,0,0,0,.78-.78V2.93A.78.78,0,0,0,20,2.16Z"/><path d="M21.08,13.18a.78.78,0,0,0-.91.61A7.88,7.88,0,0,1,6.62,17.5h3a.78.78,0,1,0,0-1.55H5.28a.78.78,0,0,0-.78.78v4.49a.78.78,0,0,0,1.56,0V19.13a9.43,9.43,0,0,0,15.63-5A.79.79,0,0,0,21.08,13.18Z"/></g></g></svg>