<svg xmlns="http://www.w3.org/2000/svg" viewBox="0 0 24 24"><defs><style>.cls-1{opacity:0.3;}</style></defs><g id="arrows"><g id="arrow-zigzag"><path d="M7.14,9.58a.77.77,0,0,1-.55-.22l-3-3a.8.8,0,0,1-.22-.55.82.82,0,0,1,.22-.55l3-3a.77.77,0,1,1,1.1,1.09L5.22,5.79,7.69,8.26a.78.78,0,0,1,0,1.1A.77.77,0,0,1,7.14,9.58ZM17.41,21.77l3-3a.77.77,0,0,0,0-1.1l-3-3a.78.78,0,0,0-1.1,1.1l2.47,2.47-2.47,2.47a.77.77,0,0,0,0,1.09.77.77,0,0,0,1.1,0Z"/><path class="cls-1" d="M18.89,17.43H7.3a2.33,2.33,0,1,1,0-4.65h9.6A3.87,3.87,0,0,0,16.78,5H5.17a.77.77,0,0,0,0,1.54H16.78a2.33,2.33,0,0,1,0,4.66H7.17A3.87,3.87,0,0,0,7.3,19H18.89a.77.77,0,0,0,.77-.77A.78.78,0,0,0,18.89,17.43Z"/></g></g></svg>