<svg xmlns="http://www.w3.org/2000/svg" viewBox="0 0 24 24"><defs><style>.cls-1{opacity:0.3;}</style></defs><g id="arrows"><g id="arrow-circle-right"><path class="cls-1" d="M14.9,20.92H6.27A4.35,4.35,0,0,1,2,16.51V7.6A4.34,4.34,0,0,1,6.27,3.2H14.9a4.34,4.34,0,0,1,4.27,4.4v5.66a.73.73,0,1,1-1.45,0V7.6A2.87,2.87,0,0,0,14.9,4.7H6.27A2.87,2.87,0,0,0,3.45,7.6v8.91a2.88,2.88,0,0,0,2.82,2.91H14.9a2.81,2.81,0,0,0,2.62-1.85.73.73,0,0,1,.95-.42.76.76,0,0,1,.4,1A4.24,4.24,0,0,1,14.9,20.92Z"/><path d="M18.4,15.26h0a.75.75,0,0,1-.54-.24L15,12A.75.75,0,0,1,15,11a.75.75,0,0,1,1.06,0l2.34,2.44L20.74,11a.75.75,0,0,1,1.06,0,.75.75,0,0,1,0,1.06l-2.88,3A.75.75,0,0,1,18.4,15.26Z"/></g></g></svg>