<svg xmlns="http://www.w3.org/2000/svg" viewBox="0 0 24 24"><defs><style>.cls-1{opacity:0.3;}</style></defs><g id="arrows"><g id="arrow-circle-left"><g id="Arrow_in_a_circle_on_the_right" data-name="Arrow in a circle on the right"><path class="cls-1" d="M9.1,20.92h8.63A4.35,4.35,0,0,0,22,16.51V7.6a4.34,4.34,0,0,0-4.27-4.4H9.1A4.34,4.34,0,0,0,4.83,7.6v5.66a.73.73,0,1,0,1.45,0V7.6A2.87,2.87,0,0,1,9.1,4.7h8.63a2.87,2.87,0,0,1,2.82,2.9v8.91a2.88,2.88,0,0,1-2.82,2.91H9.1a2.81,2.81,0,0,1-2.62-1.85.73.73,0,0,0-1-.42.76.76,0,0,0-.4,1A4.24,4.24,0,0,0,9.1,20.92Z"/><path d="M5.6,15.26A.75.75,0,0,1,5.06,15L2.18,12A.75.75,0,0,1,2.2,11a.75.75,0,0,1,1.06,0L5.6,13.42,7.94,11A.75.75,0,0,1,9,11,.75.75,0,0,1,9,12L6.14,15A.75.75,0,0,1,5.6,15.26Z"/></g></g></g></svg>