<svg xmlns="http://www.w3.org/2000/svg" viewBox="0 0 24 24"><defs><style>.cls-1{opacity:0.3;}</style></defs><g id="arrows"><g id="arrow-two-diagonals"><path class="cls-1" d="M19.09,18l-6-6,5.8-5.84a.75.75,0,0,0,0-1.06.75.75,0,0,0-1.06,0L12,10.86,6.23,5A.75.75,0,0,0,5.17,5a.75.75,0,0,0,0,1.06L11,11.93,5,18A.75.75,0,0,0,5,19a.79.79,0,0,0,.53.22A.75.75,0,0,0,6,19l6-6,6,6a.79.79,0,0,0,.53.22.77.77,0,0,0,.53-.22A.75.75,0,0,0,19.09,18Z"/><path d="M5.41,19.29a.77.77,0,0,1-.53-.22.79.79,0,0,1-.22-.54l0-4.2a.76.76,0,0,1,.75-.75h0a.76.76,0,0,1,.74.76l0,3.44,3.44,0a.77.77,0,0,1,.76.74.75.75,0,0,1-.75.76l-4.2.05Z"/><path d="M18.63,10.42h0a.76.76,0,0,1-.74-.76l0-3.44-3.44,0h0a.75.75,0,0,1,0-1.5l4.21,0a.66.66,0,0,1,.53.22.67.67,0,0,1,.22.53l0,4.2A.75.75,0,0,1,18.63,10.42Z"/><path d="M18.59,19.29h0l-4.2-.05a.75.75,0,0,1-.75-.75.79.79,0,0,1,.76-.75l3.44,0,0-3.44a.75.75,0,0,1,.74-.75.72.72,0,0,1,.76.74l.05,4.2a.79.79,0,0,1-.22.54A.77.77,0,0,1,18.59,19.29Z"/><path d="M5.37,10.42a.75.75,0,0,1-.75-.75l0-4.2a.71.71,0,0,1,.22-.54.69.69,0,0,1,.53-.22l4.21,0a.75.75,0,0,1,0,1.5h0l-3.44,0,0,3.44a.76.76,0,0,1-.74.76Z"/></g></g></svg>