<svg xmlns="http://www.w3.org/2000/svg" viewBox="0 0 24 24"><defs><style>.cls-1{opacity:0.3;}</style></defs><g id="arrows"><g id="duble-down"><path d="M12,18.91a1,1,0,0,1-.71-.29,1,1,0,0,1,0-1.42l6-6a1,1,0,1,1,1.41,1.41l-6,6A1,1,0,0,1,12,18.91Z"/><path d="M12,18.91a1,1,0,0,1-.71-.29l-6-6a1,1,0,0,1,1.41-1.41l6,6a1,1,0,0,1,0,1.42A1,1,0,0,1,12,18.91Z"/><path class="cls-1" d="M12,13.54a1,1,0,0,1-.71-.3l-6-6A1,1,0,0,1,6.74,5.87L12,11.12l5.26-5.25a1,1,0,1,1,1.41,1.41l-6,6A1,1,0,0,1,12,13.54Z"/></g></g></svg>