<svg xmlns="http://www.w3.org/2000/svg" viewBox="0 0 24 24"><defs><style>.cls-1{opacity:0.3;}</style></defs><g id="arrows"><g id="duble-up"><path d="M18,13.06a1,1,0,0,1-.7-.3l-6-6a1,1,0,0,1,1.42-1.42l6,6a1,1,0,0,1,0,1.41A1,1,0,0,1,18,13.06Z"/><path d="M6,13.06a1,1,0,0,1-.71-.3,1,1,0,0,1,0-1.41l6-6A1,1,0,1,1,12.71,6.8l-6,6A1,1,0,0,1,6,13.06Z"/><path class="cls-1" d="M18,18.43a1,1,0,0,1-.7-.3L12,12.88,6.74,18.13a1,1,0,0,1-1.41,0,1,1,0,0,1,0-1.41l6-6a1,1,0,0,1,1.42,0l6,6a1,1,0,0,1,0,1.41A1,1,0,0,1,18,18.43Z"/></g></g></svg>