<svg xmlns="http://www.w3.org/2000/svg" viewBox="0 0 24 24"><defs><style>.cls-1{opacity:0.3;}</style></defs><g id="arrows"><g id="duble-right"><path d="M11.71,18.81a1,1,0,0,1-.71-.29,1,1,0,0,1,0-1.42L16.11,12,11,6.9a1,1,0,0,1,1.42-1.42l5.81,5.81a1,1,0,0,1,.29.71,1,1,0,0,1-.29.71l-5.81,5.81A1,1,0,0,1,11.71,18.81Z"/><path class="cls-1" d="M6.48,18.81a1,1,0,0,1-.71-.29,1,1,0,0,1,0-1.42l5.1-5.1L5.77,6.9A1,1,0,0,1,7.19,5.48L13,11.29a1,1,0,0,1,.29.71,1.05,1.05,0,0,1-.29.71L7.19,18.52A1,1,0,0,1,6.48,18.81Z"/></g></g></svg>