<svg xmlns="http://www.w3.org/2000/svg" viewBox="0 0 24 24"><defs><style>.cls-1{opacity:0.3;}</style></defs><g id="arrows"><g id="exit-right"><g id="Exit"><path class="cls-1" d="M15.45,6a4,4,0,0,0-4.12-3.82H7A4,4,0,0,0,2.84,6V18A4,4,0,0,0,7,21.83h4.37A4,4,0,0,0,15.45,18Z"/><path d="M8.69,11.25H18.6L17,9.61a.75.75,0,0,1,0-1.06.74.74,0,0,1,1.06,0l2.93,2.92a.75.75,0,0,1,0,1.06L18,15.45a.73.73,0,0,1-.53.22.74.74,0,0,1-.53-.22.75.75,0,0,1,0-1.06l1.65-1.64H8.69a.75.75,0,1,1,0-1.5Z"/></g></g></g></svg>