<svg xmlns="http://www.w3.org/2000/svg" viewBox="0 0 24 24"><defs><style>.cls-1{opacity:0.3;}</style></defs><g id="arrows"><g id="exit-down"><g id="Exit"><path class="cls-1" d="M6,15.45a4,4,0,0,1-3.82-4.12V7A4,4,0,0,1,6,2.84H18A4,4,0,0,1,21.83,7v4.37A4,4,0,0,1,18,15.45Z"/><path d="M11.25,8.69V18.6L9.61,17a.75.75,0,0,0-1.06,0,.74.74,0,0,0,0,1.06l2.92,2.93a.75.75,0,0,0,1.06,0L15.45,18a.73.73,0,0,0,.22-.53.74.74,0,0,0-.22-.53.75.75,0,0,0-1.06,0L12.75,18.6V8.69a.75.75,0,0,0-1.5,0Z"/></g></g></g></svg>