<svg xmlns="http://www.w3.org/2000/svg" viewBox="0 0 24 24"><defs><style>.cls-1{opacity:0.3;}</style></defs><g id="arrows"><g id="exit-up"><g id="Exit"><path class="cls-1" d="M6,8.55a4,4,0,0,0-3.82,4.12V17A4,4,0,0,0,6,21.16H18A4,4,0,0,0,21.83,17V12.67A4,4,0,0,0,18,8.55Z"/><path d="M11.25,15.31V5.4L9.61,7.05a.75.75,0,0,1-1.06,0A.74.74,0,0,1,8.55,6l2.92-2.93a.75.75,0,0,1,1.06,0L15.45,6a.73.73,0,0,1,.22.53.74.74,0,0,1-.22.53.75.75,0,0,1-1.06,0L12.75,5.4v9.91a.75.75,0,0,1-1.5,0Z"/></g></g></g></svg>