<svg xmlns="http://www.w3.org/2000/svg" viewBox="0 0 24 24"><defs><style>.cls-1{opacity:0.3;}</style></defs><g id="arrows"><g id="right-left"><path d="M5.78,15.72a.77.77,0,0,1-.53-.21l-3-2.94a.75.75,0,0,1,0-1.08l3-2.94a.75.75,0,0,1,1,1.08L3.85,12l2.45,2.4a.76.76,0,0,1-.52,1.29Z"/><path d="M18.23,15.69a.75.75,0,0,1-.54-.22.77.77,0,0,1,0-1.07L20.16,12,17.7,9.6a.77.77,0,0,1,0-1.07.75.75,0,0,1,1.06,0l3,2.94a.75.75,0,0,1,0,1.08l-3,2.94A.73.73,0,0,1,18.23,15.69Z"/><path class="cls-1" d="M2.77,12.81a.75.75,0,1,1,0-1.5L21,11.25h0a.75.75,0,1,1,0,1.5l-18.23.06Z"/></g></g></svg>