<svg xmlns="http://www.w3.org/2000/svg" viewBox="0 0 24 24"><g id="time"><path id="calendar-edit" d="M9.19,20.33a1.63,1.63,0,0,1-1.6-1.91l.24-1.37a1.56,1.56,0,0,1,.41-.82l4.21-4.57a1.8,1.8,0,0,1,1.26-.58,1.82,1.82,0,0,1,1.3.47l.84.78a1.78,1.78,0,0,1,.58,1.26,1.8,1.8,0,0,1-.48,1.3l-4.21,4.57a1.69,1.69,0,0,1-.79.47l-1.35.35A1.92,1.92,0,0,1,9.19,20.33Zm4.59-7.76h0a.38.38,0,0,0-.22.1L9.34,17.24l-.27,1.44a.12.12,0,0,0,0,.11s.07,0,.12,0l1.34-.34h0a.09.09,0,0,0,.06,0l4.22-4.57a.3.3,0,0,0,.08-.22.32.32,0,0,0-.1-.22L14,12.66A.31.31,0,0,0,13.78,12.57Zm3.76-9.14V1.94a.7.7,0,0,0-1.39,0V3.21l-.32,0H12.89V1.94a.7.7,0,0,0-1.4,0V3.19H8.17l-.32,0V1.94a.7.7,0,0,0-1.39,0V3.43A6.17,6.17,0,0,0,2,9.35v7.24a6.18,6.18,0,0,0,6.19,6.16h7.66A6.18,6.18,0,0,0,22,16.59V9.35A6.17,6.17,0,0,0,17.54,3.43ZM6.46,4.9v.81a.7.7,0,0,0,1.39,0V4.61c.11,0,.21,0,.32,0h3.32V5.71a.7.7,0,0,0,1.4,0V4.58h2.94c.11,0,.21,0,.32,0v1.1a.7.7,0,0,0,1.39,0V4.9a4.79,4.79,0,0,1,3,3.75H3.44A4.79,4.79,0,0,1,6.46,4.9ZM20.63,16.59a4.79,4.79,0,0,1-4.8,4.77H8.17a4.79,4.79,0,0,1-4.8-4.77V10H20.63Z"/></g></svg>