<svg xmlns="http://www.w3.org/2000/svg" viewBox="0 0 24 24"><g id="time"><path id="calendar" d="M17.54,3.43V1.94a.7.7,0,0,0-1.39,0V3.21l-.32,0H12.89V1.94a.7.7,0,0,0-1.4,0V3.19H8.17l-.32,0V1.94a.7.7,0,0,0-1.39,0V3.43A6.17,6.17,0,0,0,2,9.35v7.24a6.18,6.18,0,0,0,6.19,6.16h7.66A6.18,6.18,0,0,0,22,16.59V9.35A6.17,6.17,0,0,0,17.54,3.43ZM6.46,4.9v.81a.7.7,0,0,0,1.39,0V4.61c.11,0,.21,0,.32,0h3.32V5.71a.7.7,0,0,0,1.4,0V4.58h2.94c.11,0,.21,0,.32,0v1.1a.7.7,0,0,0,1.39,0V4.9a4.79,4.79,0,0,1,3,3.75H3.44A4.79,4.79,0,0,1,6.46,4.9Zm9.37,16.46H8.17a4.79,4.79,0,0,1-4.8-4.77V10H20.63v6.55A4.79,4.79,0,0,1,15.83,21.36ZM9.59,13.84A.87.87,0,1,1,8.72,13,.87.87,0,0,1,9.59,13.84Zm3.26,0A.88.88,0,1,1,12,13,.87.87,0,0,1,12.85,13.84Zm3.28,0a.88.88,0,1,1-.87-.86A.87.87,0,0,1,16.13,13.84ZM9.58,17.07a.86.86,0,0,1-.87.85.86.86,0,1,1,.87-.85Zm3.26,0a.88.88,0,1,1-.88-.86A.86.86,0,0,1,12.84,17.07Zm3.28,0a.88.88,0,1,1-.88-.86A.86.86,0,0,1,16.12,17.07Z"/></g></svg>