<svg xmlns="http://www.w3.org/2000/svg" viewBox="0 0 24 24"><g id="time"><path id="calendar-search" d="M12,19.79a4.42,4.42,0,0,0,2.53-.8l.54.56a.73.73,0,0,0,.54.22.77.77,0,0,0,.52-.21.75.75,0,0,0,0-1.06l-.55-.57A4.4,4.4,0,1,0,12,19.79Zm0-7.31a2.91,2.91,0,1,1-2.9,2.91A2.91,2.91,0,0,1,12,12.48Zm5.54-9V1.94a.7.7,0,0,0-1.39,0V3.21l-.32,0H12.89V1.94a.7.7,0,0,0-1.4,0V3.19H8.17l-.32,0V1.94a.7.7,0,0,0-1.39,0V3.43A6.17,6.17,0,0,0,2,9.35v7.24a6.18,6.18,0,0,0,6.19,6.16h7.66A6.18,6.18,0,0,0,22,16.59V9.35A6.17,6.17,0,0,0,17.54,3.43ZM6.46,4.9v.81a.7.7,0,0,0,1.39,0V4.61c.11,0,.21,0,.32,0h3.32V5.71a.7.7,0,0,0,1.4,0V4.58h2.94c.11,0,.21,0,.32,0v1.1a.7.7,0,0,0,1.39,0V4.9a4.79,4.79,0,0,1,3,3.75H3.44A4.79,4.79,0,0,1,6.46,4.9ZM20.63,16.59a4.79,4.79,0,0,1-4.8,4.77H8.17a4.79,4.79,0,0,1-4.8-4.77V10H20.63Z"/></g></svg>