<svg xmlns="http://www.w3.org/2000/svg" viewBox="0 0 24 24"><g id="time"><g id="calendar-2"><path d="M8.73,13a.85.85,0,1,0,.86.85A.85.85,0,0,0,8.73,13Zm3.21,0a.85.85,0,1,0,.86.85A.85.85,0,0,0,11.94,13Zm-3.22,3.2a.85.85,0,1,0,.86.85A.85.85,0,0,0,8.72,16.16ZM17.54,3.43V1.94a.7.7,0,0,0-1.39,0V3.21l-.32,0H12.89V1.94a.7.7,0,0,0-1.4,0V3.19H8.17l-.32,0V1.94a.7.7,0,0,0-1.39,0V3.43A6.17,6.17,0,0,0,2,9.35v7.24a6.18,6.18,0,0,0,6.19,6.16h7.66A6.18,6.18,0,0,0,22,16.59V9.35A6.17,6.17,0,0,0,17.54,3.43ZM6.46,4.9v.81a.7.7,0,0,0,1.39,0V4.61c.11,0,.21,0,.32,0h3.32V5.71a.7.7,0,0,0,1.4,0V4.58h2.94c.11,0,.21,0,.32,0v1.1a.7.7,0,0,0,1.39,0V4.9a4.79,4.79,0,0,1,3,3.75H3.44A4.79,4.79,0,0,1,6.46,4.9ZM20.63,16.59a4.79,4.79,0,0,1-4.8,4.77H8.17a4.79,4.79,0,0,1-4.8-4.77V10H20.63Z"/></g></g></svg>