<svg xmlns="http://www.w3.org/2000/svg" viewBox="0 0 24 24"><g id="time"><path id="calendar-tick" d="M9.24,13.69a.88.88,0,1,1-.87-.85A.86.86,0,0,1,9.24,13.69Zm3.25,0a.87.87,0,1,1-.87-.85A.86.86,0,0,1,12.49,13.69ZM9.23,16.92a.88.88,0,0,1-1.75,0,.88.88,0,0,1,1.75,0Zm9.15,6.73a4.75,4.75,0,1,1,4.75-4.75A4.76,4.76,0,0,1,18.38,23.65Zm0-8a3.25,3.25,0,1,0,3.25,3.25A3.25,3.25,0,0,0,18.38,15.65Zm2.26,2.9-1.71,2.18a.74.74,0,0,1-.59.28.7.7,0,0,1-.59-.28l-1.23-1.58a.75.75,0,0,1,1.19-.92l.63.82,1.12-1.43a.75.75,0,0,1,1.05-.12A.74.74,0,0,1,20.64,18.55ZM17.19,3.29V1.8a.7.7,0,0,0-1.4,0V3.06l-.31,0h-3V1.8a.7.7,0,1,0-1.39,0V3H7.82l-.32,0V1.8a.7.7,0,0,0-1.4,0V3.29A6.17,6.17,0,0,0,1.62,9.2v7.25a6.18,6.18,0,0,0,6.2,6.15h4.82a.69.69,0,0,0,.69-.69h0a.69.69,0,0,0-.69-.69H7.82A4.79,4.79,0,0,1,3,16.45V9.89H20.27V13a.7.7,0,0,0,.7.69h0a.69.69,0,0,0,.7-.69V9.2A6.17,6.17,0,0,0,17.19,3.29ZM3.09,8.51a4.76,4.76,0,0,1,3-3.75v.8a.7.7,0,0,0,1.4,0V4.46c.11,0,.21,0,.32,0h3.32V5.56a.7.7,0,1,0,1.39,0V4.43h3l.31,0v1.1a.7.7,0,0,0,1.4,0v-.8a4.76,4.76,0,0,1,3,3.75Z"/></g></svg>