<svg xmlns="http://www.w3.org/2000/svg" viewBox="0 0 24 24"><g id="time"><path id="calendar-8" d="M16.77,2.72h0V2a.75.75,0,0,0-1.5,0v.69H8.76V2a.75.75,0,1,0-1.5,0v.69h0A5.49,5.49,0,0,0,1.76,8.2v9.05a5.48,5.48,0,0,0,5.47,5.47h9.54a5.48,5.48,0,0,0,5.47-5.47v-9A5.49,5.49,0,0,0,16.77,2.72ZM7.23,4.22h0v.62a.75.75,0,0,0,1.5,0V4.22h6.5v.62a.75.75,0,0,0,1.5,0V4.22h0a4,4,0,0,1,4,4v8.62H3.26V8.2A4,4,0,0,1,7.23,4.22Zm9.54,17H7.23a4,4,0,0,1-3.8-2.9H20.57A4,4,0,0,1,16.77,21.22ZM9.49,13.36A2.44,2.44,0,0,0,12,15.71a2.44,2.44,0,0,0,2.52-2.35,2.27,2.27,0,0,0-.78-1.7,2,2,0,0,0,.48-1.3,2.22,2.22,0,0,0-4.44,0,2,2,0,0,0,.48,1.3A2.27,2.27,0,0,0,9.49,13.36Zm2.52.85a1,1,0,0,1-1-.85,1,1,0,0,1,1-.86,1,1,0,0,1,1,.86A1,1,0,0,1,12,14.21Zm0-4.46a.68.68,0,0,1,.72.61.73.73,0,0,1-1.44,0A.68.68,0,0,1,12,9.75Z"/></g></svg>