<svg xmlns="http://www.w3.org/2000/svg" viewBox="0 0 24 24"><g id="time"><path id="watch" d="M20.43,19.61a3,3,0,0,1-.89,2.22,3.17,3.17,0,0,1-2.24.92H6.71a3.12,3.12,0,0,1-3.13-3V19.3a6.23,6.23,0,0,1,2.1-4.6l2.71-2.44a.37.37,0,0,0,0-.59L5.67,9.23a.73.73,0,0,1,0-1,.75.75,0,0,1,1.06,0L9.4,10.58a1.84,1.84,0,0,1,0,2.77L6.69,15.79a4.64,4.64,0,0,0-1.62,3.49v.43a1.63,1.63,0,0,0,1.63,1.57H17.3a1.64,1.64,0,0,0,1.63-1.64V19.3a4.65,4.65,0,0,0-1.62-3.51l-2.71-2.44a1.86,1.86,0,0,1,0-2.77L17.3,8.15a4.68,4.68,0,0,0,1.62-3.5V4.33a1.62,1.62,0,0,0-1.63-1.61H6.7A1.62,1.62,0,0,0,5.07,4.33v.32a.75.75,0,0,1-1.5,0V4.33A3.11,3.11,0,0,1,6.7,1.25H17.29a3.11,3.11,0,0,1,3.13,3.08v.32a6.18,6.18,0,0,1-2.1,4.58l-2.71,2.44a.38.38,0,0,0-.14.3.37.37,0,0,0,.14.29l2.71,2.44a6.18,6.18,0,0,1,2.1,4.58ZM7.89,17.84l2.42-2.45a2.51,2.51,0,0,1,3.49,0l2.41,2.45a1.19,1.19,0,0,1,.25,1.33,1.22,1.22,0,0,1-1.11.73H8.76a1.21,1.21,0,0,1-.87-2.06Zm1.52.59H14.7l-2-2a1,1,0,0,0-1.34,0Z"/></g></svg>