<svg xmlns="http://www.w3.org/2000/svg" viewBox="0 0 24 24"><g id="communication"><path id="directbox-default" d="M17,22H7a4,4,0,0,1-4-4V14.62A3.32,3.32,0,0,1,6.25,11.3h.81a3.38,3.38,0,0,1,2.58,1.2l.29.35a2.69,2.69,0,0,0,4.12,0l.29-.35a3.38,3.38,0,0,1,2.58-1.2h.83a3.32,3.32,0,0,1,3.32,3.32V18A4,4,0,0,1,17,22ZM4.79,10.57V5.17A3.17,3.17,0,0,1,8,2h8.1a3.17,3.17,0,0,1,3.17,3.17v5.41a4.28,4.28,0,0,0-1.48-.28h-.83a4.35,4.35,0,0,0-3.34,1.56l-.29.35a1.72,1.72,0,0,1-1.3.6,1.68,1.68,0,0,1-1.29-.6l-.3-.36A4.38,4.38,0,0,0,7.06,10.3H6.25A4.45,4.45,0,0,0,4.79,10.57ZM14,9.21a.75.75,0,0,0-.75-.75H10.65a.75.75,0,1,0,0,1.5h2.58A.75.75,0,0,0,14,9.21ZM9,6.42a.76.76,0,0,0,.75.75h4.5a.75.75,0,0,0,0-1.5H9.75A.76.76,0,0,0,9,6.42Z"/></g></svg>