<svg xmlns="http://www.w3.org/2000/svg" viewBox="0 0 24 24"><g id="communication"><path id="message-notif" d="M22,4.68A2.65,2.65,0,1,1,19.33,2,2.64,2.64,0,0,1,22,4.68Zm-.72,3.58v6.29a4.67,4.67,0,0,1-4.67,4.67H15.05a1.33,1.33,0,0,0-1.08.56L12.9,21.31a1.54,1.54,0,0,1-2.52,0L9.31,19.78a1.33,1.33,0,0,0-1.08-.56H6.7A4.67,4.67,0,0,1,2,14.55V7.43A4.67,4.67,0,0,1,6.7,2.76h9.05a3.9,3.9,0,0,0-.51,1.92,4.06,4.06,0,0,0,6,3.58ZM8.75,11.4a1,1,0,1,0-1,1A1,1,0,0,0,8.75,11.4Zm3.85,0a1,1,0,1,0-1,1A1,1,0,0,0,12.6,11.4Zm3.84,0a1,1,0,1,0-1,1A1,1,0,0,0,16.44,11.4Z"/></g></svg>