<svg xmlns="http://www.w3.org/2000/svg" viewBox="0 0 24 24"><g id="communication"><g id="message-edit"><path d="M16.82,2H7.18A5.18,5.18,0,0,0,2,7.18V21a1,1,0,0,0,1,1h13.8A5.18,5.18,0,0,0,22,16.82V7.18A5.18,5.18,0,0,0,16.82,2ZM12,16.62a1.73,1.73,0,0,1-.9.63L8.77,18A1.42,1.42,0,0,1,7,16.57l0-2.52A1.86,1.86,0,0,1,7.34,13l2.8-3.78A5.56,5.56,0,0,0,12,11.73a5.37,5.37,0,0,0,2.86,1.11Zm4.63-6.26-.74,1a3.82,3.82,0,0,1-3.13-.75,4,4,0,0,1-1.56-2.87l.74-1a1.86,1.86,0,0,1,2.65-.38l1.67,1.29A2,2,0,0,1,16.66,10.36Z"/></g></g></svg>