<svg xmlns="http://www.w3.org/2000/svg" viewBox="0 0 24 24"><g id="communication"><path id="messages" d="M14.19,6a3.88,3.88,0,0,1,2.18.67A3.88,3.88,0,0,0,14.19,6h0Zm2.18.67a3.89,3.89,0,0,1,1.72,3.23v5.84h0V9.88A3.89,3.89,0,0,0,16.37,6.65ZM18.05,2H9.81A3.91,3.91,0,0,0,6,5h8.17a4.91,4.91,0,0,1,4.9,4.9v5.69A3.88,3.88,0,0,0,22,11.83V5.88A3.91,3.91,0,0,0,18.05,2Zm0,7.9v5.95a3.9,3.9,0,0,1-3.9,3.9H12.92a1.07,1.07,0,0,0-.9.47l-.9,1.27a1.28,1.28,0,0,1-2.1,0l-.9-1.27a1.07,1.07,0,0,0-.9-.47H6a3.91,3.91,0,0,1-3.9-3.9V9.88A3.91,3.91,0,0,1,6,6h8.24A3.9,3.9,0,0,1,18.09,9.88ZM7.52,13a.94.94,0,1,0-.94.94A.95.95,0,0,0,7.52,13ZM11,13a.94.94,0,1,0-.93.94A.94.94,0,0,0,11,13Zm3.5,0a.94.94,0,1,0-.94.94A.95.95,0,0,0,14.51,13Z"/></g></svg>