<svg xmlns="http://www.w3.org/2000/svg" viewBox="0 0 24 24"><defs><style>.cls-1{opacity:0.3;}</style></defs><g id="мedicine"><g id="pulse"><g class="cls-1"><path d="M12,4.57h0a5.87,5.87,0,0,0-8.28,0h0a5.86,5.86,0,0,0,0,8.29l7.57,7.58a1,1,0,0,0,1.42,0l7.57-7.58a5.86,5.86,0,0,0,0-8.29h0a5.87,5.87,0,0,0-8.28,0Z"/></g><path d="M14.11,16.26H14a.75.75,0,0,1-.65-.56l-1.47-5.55-1.34,4a.75.75,0,0,1-1.33.19L7.63,12l-1.3.7a.74.74,0,0,1-.36.09H3a.75.75,0,0,1,0-1.5H5.78l1.73-.93a.75.75,0,0,1,1,.24l1.16,1.68L11.29,7.3A.71.71,0,0,1,12,6.79a.74.74,0,0,1,.7.56l1.59,6,.79-1.66a.74.74,0,0,1,.67-.43H21a.75.75,0,0,1,0,1.5H16.25l-1.46,3.08A.76.76,0,0,1,14.11,16.26Z"/></g></g></svg>