<svg xmlns="http://www.w3.org/2000/svg" viewBox="0 0 24 24"><defs><style>.cls-1{opacity:0.3;}</style></defs><g id="мedicine"><g id="syringe"><g class="cls-1"><path d="M18.94,12,12,5.06a1,1,0,0,0-1.41,0,1,1,0,0,0,0,1.42l.69.69L5.7,12.76a1.44,1.44,0,0,0-.35,1.46l.76,2.26L2.29,20.29a1,1,0,0,0,0,1.42,1,1,0,0,0,1.42,0l3.81-3.82,2.26.76a1.44,1.44,0,0,0,1.46-.35l5.59-5.59.69.69a1,1,0,0,0,1.42,0A1,1,0,0,0,18.94,12Z"/></g><path d="M19.6,7.17,16.86,9.91,14.09,7.14,16.83,4.4Z"/><path d="M20.73,9.07a.75.75,0,0,1-.53-.23l-5-5.06a.75.75,0,0,1,0-1.06.75.75,0,0,1,1.06,0l5,5.07a.75.75,0,0,1,0,1.06A.79.79,0,0,1,20.73,9.07Z"/></g></g></svg>