<svg xmlns="http://www.w3.org/2000/svg" viewBox="0 0 24 24"><g id="users"><path id="people" d="M12.18,15.49a3.75,3.75,0,1,1,3.75-3.75A3.75,3.75,0,0,1,12.18,15.49Zm0-6.13a2.38,2.38,0,1,0,2.38,2.38A2.38,2.38,0,0,0,12.18,9.36Zm0,13.43c-2.61,0-4.66-1.41-4.66-3.21s2.05-3.21,4.66-3.21,4.66,1.41,4.66,3.21S14.79,22.79,12.18,22.79Zm0-5c-1.91,0-3.24.94-3.24,1.79s1.33,1.79,3.24,1.79,3.24-.95,3.24-1.79S14.09,17.79,12.18,17.79Zm5-9.8A3.39,3.39,0,1,1,20.6,4.6,3.39,3.39,0,0,1,17.21,8Zm0-5.36a2,2,0,1,0,2,2A2,2,0,0,0,17.21,2.63ZM7.12,8A3.39,3.39,0,1,1,10.51,4.6,3.39,3.39,0,0,1,7.12,8Zm0-5.36a2,2,0,1,0,2,2A2,2,0,0,0,7.12,2.63Zm15,9.3c0-1.85-2.23-3.3-5.07-3.3a.72.72,0,1,0,0,1.43c2.14,0,3.64,1,3.64,1.87s-1.5,1.88-3.64,1.88a.71.71,0,1,0,0,1.42C19.9,15.23,22.13,13.79,22.13,11.93ZM7.66,14.37a.71.71,0,0,0-.72-.71c-2.14,0-3.64-1-3.64-1.88S4.8,9.91,6.94,9.91a.72.72,0,1,0,0-1.43c-2.84,0-5.07,1.45-5.07,3.3s2.23,3.3,5.07,3.3A.71.71,0,0,0,7.66,14.37Z"/></g></svg>