<svg xmlns="http://www.w3.org/2000/svg" viewBox="0 0 24 24"><g id="users"><path d="M9.18,1.17a5,5,0,1,0,5,5A5,5,0,0,0,9.18,1.17Zm0,8.56a3.6,3.6,0,1,1,3.62-3.6A3.62,3.62,0,0,1,9.18,9.73Z"/><path d="M9.18,11.93c-4.36,0-7.78,2.39-7.78,5.45s3.42,5.45,7.78,5.45S17,20.44,17,17.38,13.54,11.93,9.18,11.93Zm0,9.4c-3.41,0-6.28-1.81-6.28-3.95s2.87-3.95,6.28-3.95,6.27,1.81,6.27,3.95S12.58,21.33,9.18,21.33Z"/><path d="M16.63,11.38a4.08,4.08,0,1,0-.18-8.16.75.75,0,0,0,0,1.5h0a2.58,2.58,0,1,1,.12,5.16,2.86,2.86,0,0,1-.42,0,.77.77,0,0,0-.85.64.75.75,0,0,0,.64.85,3.48,3.48,0,0,0,.57,0Z"/><path d="M18,20.73c2.7-.43,4.58-2.1,4.58-4.08,0-2.34-2.58-4.17-5.87-4.17a.75.75,0,0,0,0,1.5c2.37,0,4.37,1.22,4.37,2.67,0,1.2-1.39,2.29-3.32,2.59a.76.76,0,0,0-.62.86.75.75,0,0,0,.74.63Z"/></g></svg>