<svg xmlns="http://www.w3.org/2000/svg" viewBox="0 0 24 24"><g id="users"><path id="user" d="M12,12.67A5.71,5.71,0,1,1,17.71,7,5.71,5.71,0,0,1,12,12.67Zm0-9.92A4.21,4.21,0,1,0,16.21,7,4.22,4.22,0,0,0,12,2.75Zm7.7,20H4.3a2,2,0,0,1-1.54-.7,1.74,1.74,0,0,1-.4-1.41c.7-4.15,4.85-7.28,9.64-7.28s8.94,3.13,9.64,7.28a1.74,1.74,0,0,1-.4,1.41A2,2,0,0,1,19.7,22.75ZM12,14.86c-4.07,0-7.58,2.59-8.16,6a.24.24,0,0,0,.06.19.51.51,0,0,0,.4.17H19.7a.51.51,0,0,0,.4-.17.24.24,0,0,0,.06-.19C19.58,17.45,16.07,14.86,12,14.86Z"/></g></svg>