<svg xmlns="http://www.w3.org/2000/svg" viewBox="0 0 24 24"><g id="users"><path id="user-tick" d="M11.49,13.24a5.7,5.7,0,1,0-5.7-5.69A5.69,5.69,0,0,0,11.49,13.24Zm0-9.89a4.2,4.2,0,1,1-4.2,4.2A4.2,4.2,0,0,1,11.49,3.35Zm5.94,9.38A4.65,4.65,0,0,0,14,14.23a11.2,11.2,0,0,0-2.52-.3c-4.78,0-8.91,3.11-9.61,7.25a.74.74,0,0,0,.61.86h.13a.76.76,0,0,0,.74-.62c.57-3.42,4.07-6,8.13-6a9.86,9.86,0,0,1,1.62.15,4.62,4.62,0,0,0-.39,1.86,4.71,4.71,0,1,0,4.71-4.71Zm0,7.92a3.21,3.21,0,1,1,3.2-3.21A3.21,3.21,0,0,1,17.43,20.65Zm2-4.76a.73.73,0,0,1,.12,1l-1.68,2.15a.77.77,0,0,1-.59.29.73.73,0,0,1-.58-.29l-1.22-1.55a.74.74,0,0,1,.13-1,.73.73,0,0,1,1,.12l.63.81L18.38,16A.74.74,0,0,1,19.42,15.89Z"/></g></svg>