<svg xmlns="http://www.w3.org/2000/svg" viewBox="0 0 24 24"><g id="users"><path id="user-edit" d="M11.8,13.29a5.71,5.71,0,1,1,5.71-5.71A5.71,5.71,0,0,1,11.8,13.29Zm0-9.92A4.21,4.21,0,1,0,16,7.58,4.22,4.22,0,0,0,11.8,3.37ZM3.64,21.51c.58-3.44,4.09-6,8.16-6a9.64,9.64,0,0,1,2.15.24.75.75,0,1,0,.33-1.46A10.78,10.78,0,0,0,11.8,14C7,14,2.87,17.11,2.16,21.26a.76.76,0,0,0,.62.86h.13A.75.75,0,0,0,3.64,21.51Zm11.63-.21a1.47,1.47,0,0,1-1.06-.45,1.49,1.49,0,0,1-.36-1.29l.3-1.42a1.83,1.83,0,0,1,.52-.94L18.09,14a1.81,1.81,0,0,1,1.32-.47,1.9,1.9,0,0,1,1.27.6l.65.7a1.85,1.85,0,0,1,0,2.6l-3.42,3.19a1.73,1.73,0,0,1-1,.46l-1.44.2Zm4-6.26a.27.27,0,0,0-.19.07L15.7,18.3a.29.29,0,0,0-.08.14l-.3,1.43,1.38-.27a.26.26,0,0,0,.15-.07l3.41-3.19a.36.36,0,0,0,0-.48l-.66-.7a.37.37,0,0,0-.26-.12Z"/></g></svg>