<svg xmlns="http://www.w3.org/2000/svg" viewBox="0 0 24 24"><g id="users"><path id="user-square" d="M22.8,16l0-8.08a6.71,6.71,0,0,0-6.71-6.67h0l-8.14,0A6.71,6.71,0,0,0,1.2,8l0,8.08a6.71,6.71,0,0,0,4,6.08h0c.19.08.38.16.57.22l.07,0,.59.16.09,0c.18,0,.37.06.56.09l.12,0c.21,0,.43,0,.65,0H8l8.14,0c.22,0,.45,0,.67,0l.17,0a4.5,4.5,0,0,0,.51-.08l.09,0,.59-.16h0c.22-.07.44-.16.65-.25l.63-.28v0a7.17,7.17,0,0,0,1.43-1.1A6.69,6.69,0,0,0,22.8,16ZM7.85,21.26a3.84,3.84,0,0,1-.76-.08,2.2,2.2,0,0,1-.37-.07L6.49,21a6.14,6.14,0,0,1,11,0l-.22.07-.25.05a4.43,4.43,0,0,1-.9.1L8,21.27Zm11-.84a7.6,7.6,0,0,0-13.71,0,5.2,5.2,0,0,1-2.4-4.34L2.7,8A5.22,5.22,0,0,1,7.88,2.77l8.14,0h0a5.22,5.22,0,0,1,5.21,5.18l0,8.08a5.16,5.16,0,0,1-1.51,3.69A4.79,4.79,0,0,1,18.85,20.42ZM12,6.16a4.37,4.37,0,1,0,4.37,4.37A4.37,4.37,0,0,0,12,6.16Zm0,7.24a2.87,2.87,0,1,1,2.87-2.87A2.88,2.88,0,0,1,12,13.4Z"/></g></svg>