<svg xmlns="http://www.w3.org/2000/svg" viewBox="0 0 24 24"><g id="time"><path id="calendar" d="M20.27,10.08H3.73a.8.8,0,0,0-.77.81v5.67A5.37,5.37,0,0,0,8.3,22h7.45A5.38,5.38,0,0,0,21,16.56V10.89A.8.8,0,0,0,20.27,10.08ZM8.8,17.88A.85.85,0,1,1,9.65,17a.85.85,0,0,1-.85.84Zm0-3.19a.85.85,0,1,1,.85-.85.84.84,0,0,1-.85.85ZM12,17.88a.85.85,0,0,1-.83-.86.84.84,0,1,1,1.68,0,.85.85,0,0,1-.85.84Zm0-3.19a.85.85,0,0,1-.83-.86.84.84,0,1,1,1.68,0,.85.85,0,0,1-.84.85Zm3.18,3.19a.85.85,0,0,1,0-1.7.85.85,0,0,1,0,1.7h0Zm0-3.19a.85.85,0,0,1,0-1.7.85.85,0,0,1,0,1.7h0ZM20.73,7.6a.84.84,0,0,1-.49,1.06.86.86,0,0,1-.27.05H4.22a1,1,0,0,1-1-1,.86.86,0,0,1,.07-.36A5.38,5.38,0,0,1,6.57,4.28V2.72a.68.68,0,1,1,1.36,0V4h3.55V2.72a.68.68,0,1,1,1.35,0V4H16V2.72a.68.68,0,1,1,1.35,0V4.28A5.39,5.39,0,0,1,20.73,7.6Z"/></g></svg>