<svg xmlns="http://www.w3.org/2000/svg" viewBox="0 0 24 24"><g id="time"><g id="calendar-2"><path d="M20.85,7.55a.82.82,0,0,1-.77,1.11h-16A1,1,0,0,1,3.17,7.3,5.43,5.43,0,0,1,6.5,4.22V2.65A.68.68,0,0,1,7.18,2a.69.69,0,0,1,.69.69V4c.11,0,.21,0,.32,0h3.27V2.65a.69.69,0,1,1,1.38,0V3.93h2.9c.11,0,.21,0,.32,0V2.65A.68.68,0,0,1,16.74,2a.69.69,0,0,1,.69.69V4.22A5.42,5.42,0,0,1,20.85,7.55ZM20.38,10H3.62a.82.82,0,0,0-.82.82v5.68A5.42,5.42,0,0,0,8.22,22h7.56a5.42,5.42,0,0,0,5.42-5.42V10.86A.82.82,0,0,0,20.38,10ZM8.72,17.86A.85.85,0,1,1,9.58,17,.85.85,0,0,1,8.72,17.86Zm0-3.2a.85.85,0,1,1,.86-.85A.85.85,0,0,1,8.73,14.66Zm3.21,0a.85.85,0,1,1,.86-.85A.85.85,0,0,1,11.94,14.66Z"/></g></g></svg>