<svg xmlns="http://www.w3.org/2000/svg" viewBox="0 0 24 24"><g id="time"><g id="calendar-tick"><path d="M20.08,7a.83.83,0,0,1-.76,1.12h-16a1,1,0,0,1-.93-1.36A5.43,5.43,0,0,1,5.73,3.67V2.11a.69.69,0,1,1,1.38,0v1.3c.1,0,.2,0,.31,0H10.7V2.11a.69.69,0,0,1,.69-.69.68.68,0,0,1,.68.69V3.38H15c.1,0,.2,0,.31,0V2.11a.69.69,0,1,1,1.38,0V3.67A5.42,5.42,0,0,1,20.08,7Zm-.47,2.49H2.85a.82.82,0,0,0-.82.82V16a5.43,5.43,0,0,0,5.43,5.42h5.81a5.4,5.4,0,0,1-.8-2.84,5.49,5.49,0,0,1,8-4.91V10.31A.82.82,0,0,0,19.61,9.49ZM8,17.32a.85.85,0,1,1,.86-.85A.85.85,0,0,1,8,17.32Zm0-3.21a.85.85,0,1,1,.86-.84A.86.86,0,0,1,8,14.11Zm3.21,0a.85.85,0,1,1,.87-.84A.86.86,0,0,1,11.17,14.11Zm6.8.47a4,4,0,1,0,4,4A4,4,0,0,0,18,14.58Zm2.26,3.65-1.71,2.18a.75.75,0,0,1-.59.29.74.74,0,0,1-.59-.29l-1.23-1.57a.76.76,0,1,1,1.19-.93l.63.82,1.12-1.42a.74.74,0,0,1,1.05-.13A.75.75,0,0,1,20.23,18.23Z"/></g></g></svg>