<svg xmlns="http://www.w3.org/2000/svg" viewBox="0 0 24 24"><g id="time"><path id="calendar-8" d="M2.64,18.32H21.36A4.73,4.73,0,0,1,16.77,22H7.23A4.73,4.73,0,0,1,2.64,18.32ZM12,12.5a1,1,0,0,0-1,.86,1,1,0,0,0,1,.85,1,1,0,0,0,1-.85A1,1,0,0,0,12,12.5ZM12,11a.68.68,0,0,0,.72-.62.73.73,0,0,0-1.44,0A.68.68,0,0,0,12,11ZM21.49,8.2v8.62h-19V8.2A4.73,4.73,0,0,1,7.23,3.47h0V2a.75.75,0,1,1,1.5,0V3.47h6.5V2a.75.75,0,0,1,1.5,0V3.47h0A4.73,4.73,0,0,1,21.49,8.2Zm-7,5.16a2.27,2.27,0,0,0-.78-1.7,2,2,0,0,0,.48-1.3,2.22,2.22,0,0,0-4.44,0,2,2,0,0,0,.48,1.3,2.27,2.27,0,0,0-.78,1.7A2.44,2.44,0,0,0,12,15.71,2.44,2.44,0,0,0,14.53,13.36Z"/></g></svg>