<svg xmlns="http://www.w3.org/2000/svg" viewBox="0 0 24 24"><g id="time"><g id="calendar-search"><path d="M20.85,7.58a.83.83,0,0,1-.77,1.12h-16a1,1,0,0,1-.94-1.36A5.45,5.45,0,0,1,6.5,4.25V2.69A.68.68,0,0,1,7.18,2a.69.69,0,0,1,.69.69V4C8,4,8.08,4,8.19,4h3.27V2.69a.69.69,0,1,1,1.38,0V4h2.9c.11,0,.21,0,.32,0V2.69A.68.68,0,0,1,16.74,2a.69.69,0,0,1,.69.69V4.25A5.46,5.46,0,0,1,20.85,7.58Zm-.47,2.49H3.62a.82.82,0,0,0-.82.82v5.69A5.42,5.42,0,0,0,8.22,22h7.56a5.42,5.42,0,0,0,5.42-5.42V10.89A.82.82,0,0,0,20.38,10.07ZM15.7,19.35a.7.7,0,0,1-.52.22.78.78,0,0,1-.54-.23L14,18.67a3.64,3.64,0,1,1,1.06-1.06l.66.68A.75.75,0,0,1,15.7,19.35Z"/></g></g></svg>