<svg xmlns="http://www.w3.org/2000/svg" viewBox="0 0 24 24"><g id="time"><path id="watch" d="M19.67,19.24a5.38,5.38,0,0,0-1.86-4L15.1,12.8A1.12,1.12,0,0,1,15,11.21l.09-.08,2.71-2.42a5.38,5.38,0,0,0,1.86-4V4.37a2.35,2.35,0,0,0-2.38-2.32H6.7A2.35,2.35,0,0,0,4.32,4.37V4.7a5.38,5.38,0,0,0,1.86,4l2.71,2.42A1.12,1.12,0,0,1,9,12.72l-.09.08L6.18,15.22a5.38,5.38,0,0,0-1.86,4v.43A2.35,2.35,0,0,0,6.7,22H17.3a2.35,2.35,0,0,0,2.38-2.32v-.39Zm-4.32-.12H8.76a.47.47,0,0,1-.47-.48.43.43,0,0,1,.14-.32l2.42-2.41a1.72,1.72,0,0,1,2.38,0l0,0,2.42,2.44a.46.46,0,0,1,0,.66A.57.57,0,0,1,15.35,19.12Z"/></g></svg>