<svg xmlns="http://www.w3.org/2000/svg" viewBox="0 0 24 24"><g id="arrows"><path id="arrows-loop" d="M20,12.54v2.57A3.83,3.83,0,0,1,16.27,19H6.4l1.4,1.6a.77.77,0,0,1,0,1.06.67.67,0,0,1-.49.2.71.71,0,0,1-.53-.24l-2.65-3a.77.77,0,0,1,0-1l2.65-2.7a.7.7,0,0,1,1,0,.77.77,0,0,1,0,1.06L6.24,17.51h10a2.36,2.36,0,0,0,2.31-2.4V12.54a.72.72,0,1,1,1.44,0Zm-3-10.19a.71.71,0,0,0-1,0,.76.76,0,0,0,0,1.06l1.46,1.51H7.66A3.84,3.84,0,0,0,3.9,8.82v2.42a.73.73,0,1,0,1.45,0V8.82a2.35,2.35,0,0,1,2.31-2.4h10l-1.47,1.5a.76.76,0,0,0,0,1.06.7.7,0,0,0,.52.22A.68.68,0,0,0,17.2,9l2.65-2.7a.74.74,0,0,0,.21-.53.76.76,0,0,0-.21-.54Z"/></g></svg>