<svg xmlns="http://www.w3.org/2000/svg" viewBox="0 0 24 24"><g id="arrows"><path id="arrow-right-left" d="M21.93,17.19a.75.75,0,0,1-.74.75h0L4.46,18l1.61,1.72a.75.75,0,0,1,0,1.06.79.79,0,0,1-.5.2A.77.77,0,0,1,5,20.7l-2.77-3a.75.75,0,0,1,0-1L4.93,14A.77.77,0,0,1,6,14a.74.74,0,0,1,0,1L4.56,16.46l16.62,0A.75.75,0,0,1,21.93,17.19Zm-3-12.83a.72.72,0,0,0-1,0,.75.75,0,0,0,0,1l1.48,1.5H2.73a.75.75,0,0,0,0,1.49H19.49L18,9.91A.74.74,0,0,0,18,11a.71.71,0,0,0,.52.23A.7.7,0,0,0,19,11l2.68-2.69a.75.75,0,0,0,.22-.53.83.83,0,0,0-.21-.54Z"/></g></svg>