<svg xmlns="http://www.w3.org/2000/svg" viewBox="0 0 24 24"><g id="arrows"><path id="arrow-down" d="M19.9,18.45a.74.74,0,0,1-.22.56L16.86,21.8a.69.69,0,0,1-1,0l-2.58-2.73a.77.77,0,0,1,0-1.06.67.67,0,0,1,1,0l1.37,1.44,0-16.68a.73.73,0,0,1,.7-.75.74.74,0,0,1,.72.74h0l0,16.78,1.63-1.62a.68.68,0,0,1,1,0A.73.73,0,0,1,19.9,18.45ZM7.88,2.22A.68.68,0,0,0,7.38,2h0a.72.72,0,0,0-.51.22L4.17,5.05a.75.75,0,0,0,0,1,.7.7,0,0,0,.5.21.66.66,0,0,0,.5-.22L6.59,4.6V21.27a.71.71,0,1,0,1.42,0V4.45L9.43,5.94a.7.7,0,0,0,1,0,.76.76,0,0,0,0-1Z"/></g></svg>