<svg xmlns="http://www.w3.org/2000/svg" viewBox="0 0 24 24"><g id="arrows"><path id="arrow-zigzag" d="M17.38,14.77a.77.77,0,0,0-1.09,1.09l1.7,1.7H7.28a2.33,2.33,0,1,1,0-4.65h9.54l.06,0a3.87,3.87,0,0,0-.13-7.74H6l1.7-1.7a.77.77,0,0,0-1.09-1.1l-3,3a.81.81,0,0,0-.23.55.83.83,0,0,0,.23.55l3,3a.76.76,0,0,0,1.09,0,.76.76,0,0,0,0-1.09L6,6.7H16.75a2.33,2.33,0,0,1,0,4.66H7.15a3.87,3.87,0,0,0,.13,7.74H18l-1.7,1.7a.77.77,0,0,0,0,1.09.78.78,0,0,0,.55.23.76.76,0,0,0,.54-.23l3-3a.77.77,0,0,0,0-1.09Z"/></g></svg>