<svg xmlns="http://www.w3.org/2000/svg" viewBox="0 0 24 24"><g id="arrows"><path id="arrows-circle" d="M4.73,10.59A.77.77,0,0,1,4,11.2l-.17,0a.77.77,0,0,1-.59-.92,9.43,9.43,0,0,1,16-4.47V3.06A.77.77,0,0,1,20,2.28a.78.78,0,0,1,.78.78V7.71a.78.78,0,0,1-.78.77H15.27a.78.78,0,1,1,0-1.55h2.89A7.88,7.88,0,0,0,4.73,10.59Zm16.33,2.72a.76.76,0,0,0-.91.6A7.88,7.88,0,0,1,6.6,17.63h3a.78.78,0,0,0,.78-.78.77.77,0,0,0-.78-.77H5.26a.77.77,0,0,0-.78.77v4.5a.78.78,0,1,0,1.55,0v-2.1a9.42,9.42,0,0,0,15.63-5A.76.76,0,0,0,21.06,13.31Z"/></g></svg>