<svg xmlns="http://www.w3.org/2000/svg" viewBox="0 0 24 24"><g id="arrows"><path id="arrow-circle-left" d="M17.71,3.32H9.08A4.34,4.34,0,0,0,4.81,7.73v5L3.24,11.11a.75.75,0,0,0-1.06,0,.75.75,0,0,0,0,1.06l2.89,3a.73.73,0,0,0,.54.23.74.74,0,0,0,.54-.23l2.88-3a.76.76,0,0,0,0-1.06.75.75,0,0,0-1.06,0L6.26,12.84V7.73A2.87,2.87,0,0,1,9.08,4.82h8.63a2.87,2.87,0,0,1,2.81,2.91v8.91a2.86,2.86,0,0,1-2.81,2.9H9.08A2.81,2.81,0,0,1,6.45,17.7a.72.72,0,0,0-.94-.42.76.76,0,0,0-.41,1,4.25,4.25,0,0,0,4,2.79h8.63A4.34,4.34,0,0,0,22,16.64V7.73A4.35,4.35,0,0,0,17.71,3.32Z"/></g></svg>