<svg xmlns="http://www.w3.org/2000/svg" viewBox="0 0 24 24"><g id="arrows"><path id="check-squared" d="M15.92,2.65a5.43,5.43,0,0,1,5.43,5.43v7.84a5.43,5.43,0,0,1-5.43,5.43H8.08a5.43,5.43,0,0,1-5.43-5.43V8.08A5.43,5.43,0,0,1,8.08,2.65h7.84M11.07,13.48,8,10.4a1,1,0,0,0-.66-.27.94.94,0,0,0-.66,1.6l3.73,3.74a1,1,0,0,0,1.33,0l5.6-5.61a.94.94,0,0,0-.66-1.6,1,1,0,0,0-.66.27l-4.94,5M15.92,1.25H8.08A6.83,6.83,0,0,0,1.25,8.08v7.84a6.83,6.83,0,0,0,6.83,6.83h7.84a6.83,6.83,0,0,0,6.83-6.83V8.08a6.83,6.83,0,0,0-6.83-6.83Z"/></g></svg>