<svg xmlns="http://www.w3.org/2000/svg" viewBox="0 0 24 24"><g id="arrows"><path id="dots-square-vertical" d="M16.25,22.75H7.75a6.51,6.51,0,0,1-6.5-6.5V7.75a6.51,6.51,0,0,1,6.5-6.5h8.5a6.51,6.51,0,0,1,6.5,6.5v8.5A6.51,6.51,0,0,1,16.25,22.75Zm-8.5-20a5,5,0,0,0-5,5v8.5a5,5,0,0,0,5,5h8.5a5,5,0,0,0,5-5V7.75a5,5,0,0,0-5-5ZM11.88,13a1.34,1.34,0,1,0-1.34-1.34A1.34,1.34,0,0,0,11.88,13Zm0,5a1.34,1.34,0,1,0-1.34-1.34A1.34,1.34,0,0,0,11.88,18Zm0-10a1.34,1.34,0,1,0-1.34-1.34A1.34,1.34,0,0,0,11.88,8Z"/></g></svg>