<svg xmlns="http://www.w3.org/2000/svg" viewBox="0 0 24 24"><g id="arrows"><path id="double-left-arrow" d="M19.32,18.52a2.43,2.43,0,0,1-1.22-.33L15.7,16.8a.75.75,0,1,1,.75-1.3l2.4,1.39a.94.94,0,0,0,.94,0,.92.92,0,0,0,.47-.81V7.92a.92.92,0,0,0-.47-.81.94.94,0,0,0-.94,0L16.45,8.5a.75.75,0,1,1-.75-1.3l2.4-1.39a2.44,2.44,0,0,1,3.66,2.11v8.16a2.45,2.45,0,0,1-2.44,2.44Zm-6.86-.33a2.41,2.41,0,0,0,1.21-2.11V7.92A2.43,2.43,0,0,0,10,5.81L3.71,9.45h0a2.95,2.95,0,0,0,0,5.1L10,18.19a2.42,2.42,0,0,0,2.44,0ZM10.77,7.11a.94.94,0,0,1,.94,0,.91.91,0,0,1,.46.81v8.16a.91.91,0,0,1-.46.81.94.94,0,0,1-.94,0L4.46,13.25a1.45,1.45,0,0,1,0-2.5Z"/></g></svg>