<svg xmlns="http://www.w3.org/2000/svg" viewBox="0 0 24 24"><g id="arrows"><path id="down-square" d="M22.75,7.81v8.38a6.56,6.56,0,0,1-6.56,6.56H7.81a6.56,6.56,0,0,1-6.56-6.56V7.81A6.56,6.56,0,0,1,7.81,1.25h8.38A6.56,6.56,0,0,1,22.75,7.81Zm-20,8.38a5.07,5.07,0,0,0,5.06,5.06h8.38a5.07,5.07,0,0,0,5.06-5.06V7.81a5.07,5.07,0,0,0-5.06-5.06H7.81A5.07,5.07,0,0,0,2.75,7.81Zm13.54-5.9a1,1,0,0,0-1.41,0L12,13.06l-2.8-2.92a1,1,0,1,0-1.44,1.38l3.49,3.65a1,1,0,0,0,.7.31,1,1,0,0,0,.71-.28l3.65-3.49a1,1,0,0,0,.31-.73A1,1,0,0,0,16.29,10.29Z"/></g></svg>