<svg xmlns="http://www.w3.org/2000/svg" viewBox="0 0 24 24"><g id="arrows"><path id="entrance-eft" d="M15.46,12.54l-3,3a.77.77,0,0,1-1.08,0,.76.76,0,0,1,0-1.08l1.67-1.67H3a.76.76,0,1,1,0-1.52H13.08L11.41,9.57a.76.76,0,0,1,1.08-1.08l3,3A.76.76,0,0,1,15.46,12.54Zm6.28,5.57V5.89A4.8,4.8,0,0,0,16.8,1.25H12.36A4.81,4.81,0,0,0,7.41,5.89a.78.78,0,0,0,.77.77.77.77,0,0,0,.76-.77,3.28,3.28,0,0,1,3.42-3.12H16.8a3.28,3.28,0,0,1,3.42,3.12V18.11a3.28,3.28,0,0,1-3.42,3.12H12.36a3.28,3.28,0,0,1-3.42-3.12.77.77,0,0,0-.76-.77.78.78,0,0,0-.77.77,4.81,4.81,0,0,0,4.95,4.64H16.8A4.8,4.8,0,0,0,21.74,18.11Z"/></g></svg>