<svg xmlns="http://www.w3.org/2000/svg" viewBox="0 0 24 24"><g id="arrows"><path id="entrance-right" d="M11.7,22.75H7.26a4.8,4.8,0,0,1-4.94-4.64V5.89A4.8,4.8,0,0,1,7.26,1.25H11.7a4.81,4.81,0,0,1,4.95,4.64.77.77,0,0,1-.76.77.78.78,0,0,1-.77-.77A3.28,3.28,0,0,0,11.7,2.77H7.26A3.29,3.29,0,0,0,3.84,5.89V18.11a3.29,3.29,0,0,0,3.42,3.12H11.7a3.28,3.28,0,0,0,3.42-3.12.78.78,0,0,1,.77-.77.77.77,0,0,1,.76.77A4.81,4.81,0,0,1,11.7,22.75Zm9.22-11.51H10.86l1.67-1.67a.78.78,0,0,0,0-1.08.76.76,0,0,0-1.08,0l-3,3a.76.76,0,0,0,0,1.08l3,3a.75.75,0,0,0,.54.22.76.76,0,0,0,.54-.22.78.78,0,0,0,0-1.08l-1.67-1.67H20.92a.76.76,0,1,0,0-1.52Z"/></g></svg>