<svg xmlns="http://www.w3.org/2000/svg" viewBox="0 0 24 24"><g id="arrows"><path id="exit-up" d="M18.11,21.68H5.89a4.8,4.8,0,0,1-4.64-4.94V12.3a4.81,4.81,0,0,1,4.64-5,.77.77,0,0,1,.77.76.78.78,0,0,1-.77.77A3.28,3.28,0,0,0,2.77,12.3v4.44a3.29,3.29,0,0,0,3.12,3.42H18.11a3.29,3.29,0,0,0,3.12-3.42V12.3a3.28,3.28,0,0,0-3.12-3.42.78.78,0,0,1-.77-.77.77.77,0,0,1,.77-.76,4.81,4.81,0,0,1,4.64,5v4.44A4.8,4.8,0,0,1,18.11,21.68ZM12,15.74a.76.76,0,0,0,.76-.76V4.92l1.67,1.67a.76.76,0,0,0,1.08,0,.77.77,0,0,0,0-1.08l-3-3a.76.76,0,0,0-1.08,0l-3,3A.76.76,0,0,0,9.57,6.59l1.67-1.67V15A.76.76,0,0,0,12,15.74Z"/></g></svg>