<svg xmlns="http://www.w3.org/2000/svg" viewBox="0 0 24 24"><g id="arrows"><path id="exit-right-corner" d="M16.79,22.75H6a4.69,4.69,0,0,1-4.69-4.68V7.28A4.69,4.69,0,0,1,6,2.59h7.86a.79.79,0,0,1,0,1.57H6A3.12,3.12,0,0,0,2.88,7.28V18.07A3.12,3.12,0,0,0,6,21.18H16.79a3.12,3.12,0,0,0,3.12-3.11v-8a.79.79,0,1,1,1.57,0v8A4.69,4.69,0,0,1,16.79,22.75ZM13.84,11.26l7.34-7.33V6.36a.79.79,0,1,0,1.57,0V2A.79.79,0,0,0,22,1.25H17.63a.79.79,0,0,0,0,1.57h2.44l-7.34,7.33a.8.8,0,0,0,0,1.11A.78.78,0,0,0,13.84,11.26Z"/></g></svg>