<svg xmlns="http://www.w3.org/2000/svg" viewBox="0 0 24 24"><g id="arrows"><path id="exit-left" d="M15.92,22.75H11.49a4.81,4.81,0,0,1-4.95-4.64.76.76,0,1,1,1.52,0,3.29,3.29,0,0,0,3.43,3.12h4.43a3.29,3.29,0,0,0,3.43-3.12V5.89a3.29,3.29,0,0,0-3.43-3.12H11.49A3.29,3.29,0,0,0,8.06,5.89a.76.76,0,1,1-1.52,0,4.81,4.81,0,0,1,5-4.64h4.43a4.81,4.81,0,0,1,5,4.64V18.11A4.81,4.81,0,0,1,15.92,22.75ZM14.17,11.24H4.11L5.78,9.57a.78.78,0,0,0,0-1.08.76.76,0,0,0-1.08,0l-3,3a.76.76,0,0,0,0,1.08l3,3a.75.75,0,0,0,.54.22.76.76,0,0,0,.54-.22.78.78,0,0,0,0-1.08L4.11,12.76H14.17a.76.76,0,1,0,0-1.52Z"/></g></svg>