<svg xmlns="http://www.w3.org/2000/svg" viewBox="0 0 24 24"><g id="arrows"><path id="exit-down" d="M18.11,16.65a.77.77,0,0,1-.77-.76.78.78,0,0,1,.77-.77,3.28,3.28,0,0,0,3.12-3.42V7.26a3.29,3.29,0,0,0-3.12-3.42H5.89A3.29,3.29,0,0,0,2.77,7.26V11.7a3.28,3.28,0,0,0,3.12,3.42.78.78,0,0,1,.77.77.77.77,0,0,1-.77.76A4.81,4.81,0,0,1,1.25,11.7V7.26A4.8,4.8,0,0,1,5.89,2.32H18.11a4.8,4.8,0,0,1,4.64,4.94V11.7A4.81,4.81,0,0,1,18.11,16.65ZM11.24,9V19.08L9.57,17.41a.76.76,0,0,0-1.08,1.08l3,3a.76.76,0,0,0,1.08,0l3-3a.75.75,0,0,0,.22-.54.76.76,0,0,0-1.3-.54l-1.67,1.67V9a.76.76,0,0,0-1.52,0Z"/></g></svg>