<svg xmlns="http://www.w3.org/2000/svg" viewBox="0 0 24 24"><g id="arrows"><path id="exit-right" d="M11.33,22.75H6.89a4.81,4.81,0,0,1-4.95-4.64V5.89A4.81,4.81,0,0,1,6.89,1.25h4.44a4.8,4.8,0,0,1,4.94,4.64.76.76,0,1,1-1.52,0,3.29,3.29,0,0,0-3.42-3.12H6.89A3.28,3.28,0,0,0,3.47,5.89V18.11a3.28,3.28,0,0,0,3.42,3.12h4.44a3.29,3.29,0,0,0,3.42-3.12.76.76,0,1,1,1.52,0A4.8,4.8,0,0,1,11.33,22.75ZM7.88,12a.76.76,0,0,0,.76.76H18.71L17,14.43a.76.76,0,0,0,0,1.08.75.75,0,0,0,.54.22.73.73,0,0,0,.53-.22l3-3a.76.76,0,0,0,0-1.08l-3-3a.75.75,0,0,0-1.07,0,.76.76,0,0,0,0,1.08l1.67,1.67H8.64A.76.76,0,0,0,7.88,12Z"/></g></svg>