<svg xmlns="http://www.w3.org/2000/svg" viewBox="0 0 24 24"><g id="arrows"><path id="left-square" d="M16.19,22.75H7.81a6.56,6.56,0,0,1-6.56-6.56V7.81A6.56,6.56,0,0,1,7.81,1.25h8.38a6.56,6.56,0,0,1,6.56,6.56v8.38A6.56,6.56,0,0,1,16.19,22.75Zm-8.38-20A5.07,5.07,0,0,0,2.75,7.81v8.38a5.07,5.07,0,0,0,5.06,5.06h8.38a5.07,5.07,0,0,0,5.06-5.06V7.81a5.07,5.07,0,0,0-5.06-5.06Zm5.9,13.54a1,1,0,0,0,0-1.41L10.94,12l2.92-2.8a1,1,0,0,0-1.38-1.44L8.83,11.2a1,1,0,0,0-.31.7,1,1,0,0,0,.28.71l3.49,3.65a1,1,0,0,0,.73.31A1,1,0,0,0,13.71,16.29Z"/></g></svg>