<svg xmlns="http://www.w3.org/2000/svg" viewBox="0 0 24 24"><g id="arrows"><path id="plus-squared" d="M15.92,2.65a5.43,5.43,0,0,1,5.43,5.43v7.84a5.43,5.43,0,0,1-5.43,5.43H8.08a5.43,5.43,0,0,1-5.43-5.43V8.08A5.43,5.43,0,0,1,8.08,2.65h7.84M7.33,12.93h3.74v3.74a.93.93,0,1,0,1.86,0V12.93h3.74a.93.93,0,1,0,0-1.86H12.93V7.33a.93.93,0,1,0-1.86,0v3.74H7.33a.93.93,0,1,0,0,1.86M15.92,1.25H8.08A6.83,6.83,0,0,0,1.25,8.08v7.84a6.83,6.83,0,0,0,6.83,6.83h7.84a6.83,6.83,0,0,0,6.83-6.83V8.08a6.83,6.83,0,0,0-6.83-6.83Z"/></g></svg>