<svg xmlns="http://www.w3.org/2000/svg" viewBox="0 0 24 24"><g id="arrows"><path id="right-square" d="M16.19,22.73H7.81a6.57,6.57,0,0,1-6.56-6.56V7.78A6.56,6.56,0,0,1,7.81,1.23h8.38a6.56,6.56,0,0,1,6.56,6.55v8.39A6.57,6.57,0,0,1,16.19,22.73Zm-8.38-20A5.06,5.06,0,0,0,2.75,7.78v8.39a5.07,5.07,0,0,0,5.06,5.06h8.38a5.07,5.07,0,0,0,5.06-5.06V7.78a5.06,5.06,0,0,0-5.06-5.05Zm3.82,13.5,3.49-3.64a1,1,0,0,0,0-1.42L11.45,7.68a1,1,0,1,0-1.39,1.45L13,11.93l-2.8,2.92a1,1,0,0,0,.72,1.69A1,1,0,0,0,11.63,16.23Z"/></g></svg>