<svg xmlns="http://www.w3.org/2000/svg" viewBox="0 0 24 24"><g id="arrows"><path id="up-square" d="M22.75,7.78v8.39a6.57,6.57,0,0,1-6.56,6.56H7.81a6.57,6.57,0,0,1-6.56-6.56V7.78A6.56,6.56,0,0,1,7.81,1.23h8.38A6.56,6.56,0,0,1,22.75,7.78Zm-20,8.39a5.07,5.07,0,0,0,5.06,5.06h8.38a5.07,5.07,0,0,0,5.06-5.06V7.78a5.06,5.06,0,0,0-5.06-5.05H7.81A5.06,5.06,0,0,0,2.75,7.78Zm13.51-3.83L12.61,8.85a1,1,0,0,0-1.41,0L7.71,12.53a1,1,0,1,0,1.44,1.38L12,11l2.93,2.8a1,1,0,0,0,1.41,0,1,1,0,0,0,.28-.7A1,1,0,0,0,16.26,12.34Z"/></g></svg>