<?xml version="1.0" encoding="UTF-8" standalone="no"?>
<svg
   viewBox="0 0 29.290507 29.290508"
   version="1.1"
   id="svg243"
   sodipodi:docname="tu_alone_white.svg"
   width="29.290508"
   height="29.290508"
   inkscape:version="1.2.2 (b0a8486, 2022-12-01)"
   xml:space="preserve"
   xmlns:inkscape="http://www.inkscape.org/namespaces/inkscape"
   xmlns:sodipodi="http://sodipodi.sourceforge.net/DTD/sodipodi-0.dtd"
   xmlns="http://www.w3.org/2000/svg"
   xmlns:svg="http://www.w3.org/2000/svg"
   xmlns:rdf="http://www.w3.org/1999/02/22-rdf-syntax-ns#"
   xmlns:cc="http://creativecommons.org/ns#"
   xmlns:dc="http://purl.org/dc/elements/1.1/"><sodipodi:namedview
     id="namedview245"
     pagecolor="#ffffff"
     bordercolor="#000000"
     borderopacity="0.25"
     inkscape:showpageshadow="2"
     inkscape:pageopacity="0.0"
     inkscape:pagecheckerboard="true"
     inkscape:deskcolor="#d1d1d1"
     showgrid="false"
     inkscape:zoom="12.988944"
     inkscape:cx="53.661021"
     inkscape:cy="25.675682"
     inkscape:window-width="2560"
     inkscape:window-height="1403"
     inkscape:window-x="0"
     inkscape:window-y="0"
     inkscape:window-maximized="1"
     inkscape:current-layer="svg243" /><defs
     id="defs233"><style
       id="style231">.cls-1{fill:#fff;}.cls-2{fill:#f8e14b;}</style><clipPath
       clipPathUnits="userSpaceOnUse"
       id="clipPath598"><path
         id="path600"
         style="fill:#ff0000;fill-opacity:1;fill-rule:nonzero;stroke:none;stroke-width:9.67754"
         d="m 0,0 v 283.46491 h 302.23404 c -0.0552,-2.31695 -0.0435,-4.70128 0.0571,-7.16365 0.25384,-6.24996 0.35265,-12.49409 0.26458,-18.75023 v -64.2838 -48.69011 c 0,-17.11286 3.70739,-30.55281 9.50743,-40.37348 -2.08494,-6.789614 -4.34558,-13.524996 -6.40795,-20.319046 -4.67089,-15.111377 -6.10988,-19.942992 -10.77382,-34.514031 -1.28992,-4.029907 -2.63575,-8.049982 -3.9315,-12.07802 -0.58419,-1.816033 -1.51487,-3.565906 -1.72003,-5.462517 -0.27848,-2.574797 9.98592,17.924968 5.3302,5.651531 C 289.39988,23.878004 286.35938,11.254122 285.05263,0 Z m 521.01821,0 c 0.288,2.0422557 0.57775,4.0826908 0.86943,6.1240668 C 522.27519,4.0743847 522.73064,2.0413977 523.15408,0 Z m 101.27392,0 c 0.16326,1.7076587 0.32855,3.4150972 0.49143,5.1222904 C 625.8655,3.9629665 628.90839,2.2030492 631.87516,0 Z m 126.16712,178.20278 c -1.31897,1.88061 -2.68086,3.73292 -4.08271,5.55703 0.15997,-0.16577 -0.23265,0.3934 -0.35913,0.58598 -0.47478,0.72252 -0.95701,1.43534 -1.43651,2.15477 -4.9749,7.46422 -10.26048,13.4518 -15.65039,18.22098 -0.0978,2.17518 -0.12117,2.2153 -0.30243,6.23748 -2.82328,62.65265 -52.41392,73.47926 -72.48703,37.31143 -10.22301,6.4758 -22.73466,6.68513 -33.87138,0.11343 -22.63862,15.58524 -56.58172,-0.004 -60.86264,-50.73146 -0.54543,-6.46373 -1.25743,-12.91148 -1.81454,-19.37398 -4.35455,2.81991 -8.93862,4.54716 -13.53343,5.2924 1.03552,9.50086 2.47143,18.95516 3.42116,28.46557 2.17509,23.30603 4.35149,46.6116 6.5399,69.91642 0.0484,0.5193 0.0532,0.99897 0.0948,1.51213 h 194.34461 z m -277.30304,88.98799 c -0.17207,4.38317 -0.64637,8.79138 0.32129,13.04199 0.252,1.10708 0.41265,2.15076 0.62372,3.23215 h 0.567 c -0.50845,-5.42447 -1.00534,-10.84984 -1.51212,-16.27414 z" /></clipPath></defs><title
     id="title235">BLEU-fond-transparent-2</title><metadata
     id="metadata247"><rdf:RDF><cc:Work
         rdf:about=""><dc:title>BLEU-fond-transparent-2</dc:title></cc:Work></rdf:RDF></metadata><style
     type="text/css"
     id="style313">
	.st0{display:none;}
	.st1{fill-rule:evenodd;clip-rule:evenodd;fill:#FFFFFF;}
</style><g
     id="Hintergrund"
     class="st0"
     transform="matrix(0.10333207,0,0,0.10333207,19.965652,23.447647)">
</g><g
     id="Hilfslinien_anzeigen"
     class="st0"
     transform="matrix(0.10333207,0,0,0.10333207,19.965652,23.447647)">
</g><g
     id="Vordergrund"
     transform="scale(0.10333207)"
     clip-path="url(#clipPath598)">
	<g
   id="g383">
		
		
		
		<path
   class="st1"
   d="m 202.75,138.27 c 0.46,-0.08 0.8,-0.14 1.25,-0.25 11.39,-2.89 19.88,-13.87 19.88,-26.08 l -0.26,-83.47 h 30.87 v 83.91 c 0.03,29.16 -22.11,53.41 -50.49,56.41 l -1.25,0.13 z m -9.18,30.65 -1.6,-0.13 c -28.37,-2.96 -50.31,-26.94 -50.31,-56.1 V 28.48 h 30.67 l -0.05,83.47 c 0,12.21 8.49,23.19 19.88,26.08 0.5,0.12 0.89,0.2 1.4,0.29 z m -74.93,85.53 v -49.89 h -9.74 v 49.89 z m 66.22,0 v -8.69 h -23.12 v -12.12 h 19.69 v -8.69 h -19.69 v -11.7 h 23.12 v -8.69 H 152 v 49.89 z m 69.77,0 v -49.89 h -9.74 v 30.55 l -19.76,-30.55 h -8.69 v 49.89 h 9.74 v -30.62 l 19.76,30.62 z M 85.72,204.56 H 75.56 l -7.78,31.46 -9.11,-31.46 h -7.29 l -9.11,31.46 -7.71,-31.46 H 24.42 l 13.31,49.89 h 8.13 l 9.18,-30.27 9.18,30.27 h 8.13 z M 21.79,28.48 H 127.65 V 58.75 H 21.79 Z M 60.1,168.12 V 67.55 H 90.37 V 168.13 H 60.1 Z M 255.11,0 c 15.65,0 28.29,12.7 28.29,28.36 l 0.06,226.74 c 0,15.66 -12.74,28.36 -28.39,28.36 H 28.34 C 12.7,283.46 0,270.77 0,255.11 L 0.02,28.36 C 0.02,12.7 12.68,0 28.32,0 Z"
   id="path381" />
	</g>
</g></svg>
